<svg width="224" height="41" viewBox="0 0 224 41" fill="none" xmlns="http://www.w3.org/2000/svg">
<g clip-path="url(#clip0_331_78197)">
<path d="M39.5263 17.3404L32.1897 24.8274C31.3709 25.6682 30.9968 26.8725 31.1866 28.054L32.9163 38.6257C33.1332 39.9493 31.8102 40.9548 30.6769 40.3299L21.6105 35.3366C20.5965 34.7799 19.3873 34.7799 18.3733 35.3366L9.30688 40.3299C8.17358 40.9548 6.8505 39.9436 7.0674 38.6257L8.79717 28.054C8.99238 26.8725 8.61823 25.6625 7.79401 24.8274L0.46825 17.3404C-0.448149 16.4031 0.0561416 14.7727 1.325 14.5853L11.4596 13.0401C12.5929 12.8697 13.5744 12.1199 14.0787 11.0462L18.6118 1.42324C19.1758 0.218946 20.8134 0.218946 21.3827 1.42324L25.9159 11.0406C26.4256 12.1199 27.4017 12.864 28.5404 13.0345L38.675 14.5796C39.9439 14.7727 40.4482 16.4031 39.5318 17.3347L39.5263 17.3404Z" fill="#FFBE0B"/>
<path d="M85.5263 17.3404L78.1897 24.8274C77.3709 25.6682 76.9968 26.8725 77.1866 28.054L78.9163 38.6257C79.1332 39.9493 77.8102 40.9548 76.6769 40.3299L67.6105 35.3366C66.5965 34.7799 65.3873 34.7799 64.3733 35.3366L55.3069 40.3299C54.1736 40.9548 52.8505 39.9436 53.0674 38.6257L54.7972 28.054C54.9924 26.8725 54.6182 25.6625 53.794 24.8274L46.4682 17.3404C45.5519 16.4031 46.0561 14.7727 47.325 14.5853L57.4596 13.0401C58.5929 12.8697 59.5744 12.1199 60.0787 11.0462L64.6118 1.42324C65.1758 0.218946 66.8134 0.218946 67.3827 1.42324L71.9159 11.0406C72.4256 12.1199 73.4017 12.864 74.5404 13.0345L84.675 14.5796C85.9439 14.7727 86.4482 16.4031 85.5318 17.3347L85.5263 17.3404Z" fill="#FFBE0B"/>
<path d="M131.526 17.3404L124.19 24.8274C123.371 25.6682 122.997 26.8725 123.187 28.054L124.916 38.6257C125.133 39.9493 123.81 40.9548 122.677 40.3299L113.61 35.3366C112.596 34.7799 111.387 34.7799 110.373 35.3366L101.307 40.3299C100.174 40.9548 98.8505 39.9436 99.0674 38.6257L100.797 28.054C100.992 26.8725 100.618 25.6625 99.794 24.8274L92.4682 17.3404C91.5519 16.4031 92.0561 14.7727 93.325 14.5853L103.46 13.0401C104.593 12.8697 105.574 12.1199 106.079 11.0462L110.612 1.42324C111.176 0.218946 112.813 0.218946 113.383 1.42324L117.916 11.0406C118.426 12.1199 119.402 12.864 120.54 13.0345L130.675 14.5796C131.944 14.7727 132.448 16.4031 131.532 17.3347L131.526 17.3404Z" fill="#FFBE0B"/>
<path d="M177.526 17.3404L170.19 24.8274C169.371 25.6682 168.997 26.8725 169.187 28.054L170.916 38.6257C171.133 39.9493 169.81 40.9548 168.677 40.3299L159.61 35.3366C158.596 34.7799 157.387 34.7799 156.373 35.3366L147.307 40.3299C146.174 40.9548 144.851 39.9436 145.067 38.6257L146.797 28.054C146.992 26.8725 146.618 25.6625 145.794 24.8274L138.468 17.3404C137.552 16.4031 138.056 14.7727 139.325 14.5853L149.46 13.0401C150.593 12.8697 151.574 12.1199 152.079 11.0462L156.612 1.42324C157.176 0.218946 158.813 0.218946 159.383 1.42324L163.916 11.0406C164.426 12.1199 165.402 12.864 166.54 13.0345L176.675 14.5796C177.944 14.7727 178.448 16.4031 177.532 17.3347L177.526 17.3404Z" fill="#FFBE0B"/>
<path d="M223.526 17.3404L216.19 24.8274C215.371 25.6682 214.997 26.8725 215.187 28.054L216.916 38.6257C217.133 39.9493 215.81 40.9548 214.677 40.3299L205.61 35.3366C204.596 34.7799 203.387 34.7799 202.373 35.3366L193.307 40.3299C192.174 40.9548 190.851 39.9436 191.067 38.6257L192.797 28.054C192.992 26.8725 192.618 25.6625 191.794 24.8274L184.468 17.3404C183.552 16.4031 184.056 14.7727 185.325 14.5853L195.46 13.0401C196.593 12.8697 197.574 12.1199 198.079 11.0462L202.612 1.42324C203.176 0.218946 204.813 0.218946 205.383 1.42324L209.916 11.0406C210.426 12.1199 211.402 12.864 212.54 13.0345L222.675 14.5796C223.944 14.7727 224.448 16.4031 223.532 17.3347L223.526 17.3404Z" fill="#FFBE0B"/>
</g>
<defs>
<clipPath id="clip0_331_78197">
<rect width="224" height="40" fill="white" transform="translate(0 0.52002)"/>
</clipPath>
</defs>
</svg>
