<svg width="17" height="16" viewBox="0 0 17 16" fill="none" xmlns="http://www.w3.org/2000/svg">
    <g clip-path="url(#w0sts06dia)">
        <path fill-rule="evenodd" clip-rule="evenodd" d="M3 1.75a.25.25 0 0 1 .25-.25h8.5a.25.25 0 0 1 .25.25v7.736a.75.75 0 1 0 1.5 0V1.75A1.75 1.75 0 0 0 11.75 0h-8.5A1.75 1.75 0 0 0 1.5 1.75v11.5c0 .966.784 1.75 1.75 1.75h3.17a.75.75 0 0 0 0-1.5H3.25a.25.25 0 0 1-.25-.25V1.75zM5.25 4a.75.75 0 0 0 0 1.5h4.5a.75.75 0 0 0 0-1.5h-4.5zM4.5 7.75A.75.75 0 0 1 5.25 7h2a.75.75 0 0 1 0 1.5h-2a.75.75 0 0 1-.75-.75zm11.774 3.537a.75.75 0 0 0-1.048-1.074L11.2 14.145 9.781 12.72a.75.75 0 0 0-1.062 1.058l1.943 1.95a.75.75 0 0 0 1.055.008l4.557-4.45z" fill="#565656"/>
    </g>
    <defs>
        <clipPath id="w0sts06dia">
            <path fill="#fff" transform="translate(.5)" d="M0 0h16v16H0z"/>
        </clipPath>
    </defs>
</svg>
