<svg width="40" height="40" viewBox="0 0 40 40" fill="none" xmlns="http://www.w3.org/2000/svg">
    <rect width="40" height="40" rx="20" fill="#FE7193"/>
    <path d="M24.228 30.945a.9.9 0 0 1-.838-.572c-.237-.606-1.308-2.178-3.39-2.178s-3.153 1.572-3.39 2.178a.9.9 0 1 1-1.676-.656c.45-1.15 2.087-3.322 5.066-3.322 2.979 0 4.616 2.173 5.066 3.322a.9.9 0 0 1-.838 1.228z" fill="#222"/>
    <path fill-rule="evenodd" clip-rule="evenodd" d="M24.45 31.167h-.222c-.448 0-.872-.27-1.046-.714-.217-.556-1.225-2.036-3.182-2.036-1.958 0-2.966 1.48-3.183 2.036a1.122 1.122 0 1 1-2.09-.817c.47-1.204 2.173-3.464 5.273-3.464 3.1 0 4.802 2.26 5.272 3.464a1.122 1.122 0 0 1-.636 1.454 1.136 1.136 0 0 1-.186.054v.023zm-.222-.223a.9.9 0 0 0 .837-1.228c-.45-1.148-2.087-3.322-5.065-3.322-2.98 0-4.616 2.174-5.066 3.323a.9.9 0 1 0 1.676.655c.237-.605 1.307-2.178 3.39-2.178 2.082 0 3.153 1.573 3.39 2.178a.899.899 0 0 0 .838.573z" fill="#222"/>
    <circle cx="13.39" cy="19.703" r="2.222" fill="#222"/>
    <circle cx="26.611" cy="19.703" r="2.222" fill="#222"/>
</svg>
