<svg width="20" height="20" viewBox="0 0 20 20" fill="none" xmlns="http://www.w3.org/2000/svg">
    <path fill-rule="evenodd" clip-rule="evenodd" d="M3.906 4.05a.709.709 0 0 0-.703-.714.709.709 0 0 0-.703.714v11.905c0 .394.315.714.703.714h13.594c.388 0 .703-.32.703-.714a.709.709 0 0 0-.703-.714H3.907V4.05zm13.388 2.41a.722.722 0 0 0 0-1.01.695.695 0 0 0-.994 0l-4.425 4.495L9.56 7.593a.695.695 0 0 0-.995 0l-3.047 3.095a.722.722 0 0 0 0 1.01c.275.28.72.28.995 0l2.55-2.59 2.315 2.352a.698.698 0 0 0 .994 0l4.922-5z" fill="#565656"/>
</svg>
