<svg width="16" height="16" viewBox="0 0 16 16" fill="none" xmlns="http://www.w3.org/2000/svg">
    <g clip-path="url(#le2xpzp6ca)">
        <path fill-rule="evenodd" clip-rule="evenodd" d="M2.343 13.657A8 8 0 1 1 13.657 2.343 8 8 0 0 1 2.343 13.657zM6.03 4.97a.75.75 0 0 0-1.06 1.06L6.94 8 4.97 9.97a.75.75 0 1 0 1.06 1.06L8 9.06l1.97 1.97a.75.75 0 1 0 1.06-1.06L9.06 8l1.97-1.97a.75.75 0 1 0-1.06-1.06L8 6.94 6.03 4.97z" fill="#CECECE"/>
    </g>
    <defs>
        <clipPath id="le2xpzp6ca">
            <path fill="#fff" d="M0 0h16v16H0z"/>
        </clipPath>
    </defs>
</svg>
