<svg width="40" height="40" viewBox="0 0 40 40" fill="none" xmlns="http://www.w3.org/2000/svg">
    <rect width="40" height="40" rx="20" fill="#FFCF26"/>
    <path d="M15.661 26.291h.112c.404 0 .785.244.942.643m-1.054-.643.112.111h.11v.007a.9.9 0 0 1 .728.566c.237.606 1.308 2.178 3.39 2.178s3.153-1.572 3.39-2.178m-7.73-.684v.007m0-.007v.007m1.054.636-.103.04.103-.04zm0 0c.227.581 1.266 2.108 3.286 2.108s3.06-1.527 3.286-2.108l.104.04m0 0a.9.9 0 0 1 1.166-.51m-1.166.51-.104-.04a1.01 1.01 0 0 1 1.31-.573m-8.936-.063a1.011 1.011 0 0 0-.83 1.373c.46 1.176 2.13 3.393 5.17 3.393s4.709-2.217 5.17-3.393l-9.51-1.373zm9.406 1.333c-.45 1.149-2.087 3.322-5.066 3.322-2.979 0-4.616-2.173-5.066-3.322a.9.9 0 0 1 .51-1.166l9.622 1.166zm0 0a.9.9 0 0 0-.51-1.166m.51 1.166.103.04a1.01 1.01 0 0 0-.573-1.31m-.04.104.04-.104m-.04.104.04-.104" fill="#222" stroke="#222" stroke-width=".222"/>
    <circle cx="13.39" cy="19.707" r="2.222" fill="#222"/>
    <circle cx="26.611" cy="19.707" r="2.222" fill="#222"/>
</svg>
