<svg width="40" height="40" viewBox="0 0 40 40" fill="none" xmlns="http://www.w3.org/2000/svg">
    <path d="m39.526 16.82-7.336 7.487a3.775 3.775 0 0 0-1.003 3.227l1.73 10.572c.216 1.323-1.107 2.329-2.24 1.704l-9.067-4.993a3.346 3.346 0 0 0-3.237 0L9.307 39.81c-1.133.625-2.457-.386-2.24-1.704l1.73-10.572c.195-1.181-.179-2.392-1.003-3.227L.468 16.82c-.916-.937-.412-2.567.857-2.755L11.46 12.52c1.133-.17 2.114-.92 2.619-1.994L18.612.903a1.514 1.514 0 0 1 2.77 0l4.534 9.617c.51 1.08 1.486 1.824 2.624 1.994l10.135 1.546c1.269.193 1.773 1.823.857 2.755l-.006.005z" fill="#FFBE0B"/>
</svg>
