<svg width="17" height="17" viewBox="0 0 17 17" fill="none" xmlns="http://www.w3.org/2000/svg">
    <path d="m16.31 6.767-2.934 2.995a1.51 1.51 0 0 0-.401 1.29l.691 4.23c.087.529-.442.931-.895.681l-3.627-1.997a1.338 1.338 0 0 0-1.295 0l-3.626 1.997c-.454.25-.983-.154-.896-.682l.692-4.228a1.495 1.495 0 0 0-.401-1.291L.688 6.767C.32 6.392.521 5.74 1.03 5.665l4.054-.618A1.396 1.396 0 0 0 6.13 4.25L7.945.4a.606.606 0 0 1 1.108 0l1.813 3.847c.204.432.595.73 1.05.798l4.054.618c.507.077.71.73.343 1.102l-.002.002z" fill="#FFBE0B"/>
</svg>
