<svg width="15" height="15" viewBox="0 0 15 15" fill="none" xmlns="http://www.w3.org/2000/svg">
    <path d="M11.726 8.763h.001l2.74-2.808h.001a.118.118 0 0 0 .025-.123.114.114 0 0 0-.03-.05.061.061 0 0 0-.034-.016l-3.793-.58a1.802 1.802 0 0 1-1.358-1.029v-.001L7.582.552V.55A.09.09 0 0 0 7.547.51a.06.06 0 0 0-.063 0 .09.09 0 0 0-.033.041v.002L5.755 4.158a1.81 1.81 0 0 1-1.358 1.029l-3.792.579H.602a.058.058 0 0 0-.033.016.112.112 0 0 0-.03.049.121.121 0 0 0 .027.124L3.31 8.762l8.416.001zm0 0a1.917 1.917 0 0 0-.51 1.638v.001m.51-1.639-.51 1.64m0 0 .647 3.963m-.647-3.964.648 3.964m0 0c.009.058-.013.095-.04.115a.066.066 0 0 1-.032.015c-.005 0-.014 0-.031-.009m.103-.12-.104.12m0 0-3.393-1.872m3.393 1.872-3.393-1.872m0 0a1.755 1.755 0 0 0-1.699 0h1.7z" stroke="#DDD"/>
    <path d="M7.485 0v12.9c-.209 0-.416.05-.606.157l-3.394 1.872c-.424.234-.919-.145-.838-.64l.648-3.963a1.415 1.415 0 0 0-.376-1.21L.175 6.31c-.343-.351-.154-.963.32-1.033l3.794-.58a1.31 1.31 0 0 0 .98-.747L6.966.343a.568.568 0 0 1 .517-.339L7.485 0z" fill="#FFBE0B"/>
</svg>
