<svg width="32" height="32" viewBox="0 0 32 32" fill="none" xmlns="http://www.w3.org/2000/svg">
    <g clip-path="url(#u9hqr3pxva)">
        <path d="M30.95 15.944c0 8.536-6.823 15.444-15.225 15.444S.5 24.48.5 15.944C.5 7.408 7.323.5 15.725.5S30.95 7.408 30.95 15.944z" fill="#fff" stroke="#E8E8E8"/>
        <mask id="a05sdincrb" style="mask-type:alpha" maskUnits="userSpaceOnUse" x="0" y="0" width="32" height="32">
            <path d="M15.725 31.888c8.685 0 15.725-7.138 15.725-15.944C31.45 7.138 24.41 0 15.725 0 7.04 0 0 7.138 0 15.944c0 8.806 7.04 15.944 15.725 15.944z" fill="#F8F8F9"/>
        </mask>
        <g mask="url(#a05sdincrb)">
            <path d="M19.74 5.47c-.113-.72-.825-1.691-1.426-2.026-.602-.334-1.288-.789-1.96-.887-.838-.124-1.704-.22-2.518.023-.815.242-2.038 1.294-2.66 1.894-.79.764-.969 1.474-1.398 2.52-.428 1.047-.539 2.28-.12 3.332.3.758.849 1.371 1.446 1.886.33.308.714.551 1.133.716.636.192 1.32.155 1.932-.106a8.532 8.532 0 0 0 1.734-1.003c1.115-.762 2.308-1.655 2.656-3.026" fill="#3B2E2A"/>
            <path d="M12.462 21.031c-.625.124-1 .23-1 .23l-9.377 3.32s.573 8.397 4.892 9.362c2.255.502 8.428.627 13.849.597l-3.45-9.027-4.914-4.482zM30.193 25.21c-.608-.502-5.122-2.022-9.277-3.737l-.173-.067-.311 3.262.471 9.872c4.921-.028 9.195-.185 9.29-.304.205-.25.61-8.525 0-9.027z" fill="#303742"/>
            <path d="M20.743 21.4c-3.019-1.17-6.581-.709-8.281-.371l3.916 4.714 4.436 8.791h.09l.329-9.973-.49-3.161z" fill="#E3E3E3"/>
            <path d="M18.242 16.68a9.249 9.249 0 0 0 .21 2.906c.236.977.77 1.855 1.526 2.507 0 0-.239 1.374-.911 1.752h.015c-1.417-.431-5.746-1.694-7.012-2.429.781-.645 1.111-.884 1.362-1.839.222-.95.293-1.932.209-2.905" fill="#E9CBBD"/>
            <path d="M21.233 9.586s0 3.845-1.06 5.596c-1.06 1.752-3.401 3.511-4.18 3.344-.782.167-3.123-1.582-4.184-3.344-1.06-1.761-1.058-5.596-1.058-5.596l5.019-2.727h2.782l1.026.275 1.655 2.452z" fill="#F4DBCF"/>
            <path d="M11.244 11.713a1.01 1.01 0 0 0-.874-.277 1.006 1.006 0 0 0-.73.562 1.25 1.25 0 0 0 0 .98c.132.31.336.584.593.798.232.202.49.37.767.502.22.084.427.196.618.334" fill="#F4DBCF"/>
            <path d="M18.625 7.11c.338.183.686.345 1.042.487a.18.18 0 0 0 .165.01.149.149 0 0 0 .059-.093.588.588 0 0 0-.277-.614 1.468 1.468 0 0 0-.68-.189c-.196-.02-.428-.015-.54.148-.082.12.08.081.015.212" fill="#CCA592"/>
            <path d="M20.705 11.713a1.013 1.013 0 0 1 .876-.277 1.006 1.006 0 0 1 .73.562 1.265 1.265 0 0 1 0 .98c-.133.31-.336.584-.593.798-.232.202-.49.37-.767.502a2.7 2.7 0 0 0-.62.334" fill="#F4DBCF"/>
            <path d="M13.936 12.203c.182 0 .33-.192.33-.43 0-.237-.148-.43-.33-.43-.182 0-.33.193-.33.43 0 .238.148.43.33.43zM18.165 11.773a.395.395 0 0 1-.08.283.385.385 0 0 1-.25.147.385.385 0 0 1-.25-.147.395.395 0 0 1-.08-.283.395.395 0 0 1 .08-.282.384.384 0 0 1 .25-.147c.1.014.189.067.25.147.062.08.09.181.08.282z" fill="#0A0807"/>
            <path d="M15.571 13.632a.076.076 0 0 1-.046-.013l-.354-.25a.36.36 0 0 1-.132-.14.286.286 0 0 1 .072-.307.701.701 0 0 1 .154-.114l.05-.032a.832.832 0 0 0 .359-.797.085.085 0 0 1 .039-.084c.009-.006.02-.01.03-.011a.082.082 0 0 1 .092.07 1.016 1.016 0 0 1-.43.963.626.626 0 0 1-.056.035.684.684 0 0 0-.12.087.126.126 0 0 0-.04.122c.02.029.046.053.076.072l.354.247a.086.086 0 0 1 .02.117.08.08 0 0 1-.068.035zM22.257 12.804h-.013a.084.084 0 0 1-.068-.095.363.363 0 0 0-.072-.22c-.187-.32-.4-.502-.63-.537a.562.562 0 0 0-.495.177.084.084 0 0 1-.058.025.082.082 0 0 1-.077-.052.084.084 0 0 1 .018-.092.732.732 0 0 1 .643-.229c.282.045.534.253.747.617a.507.507 0 0 1 .092.334.082.082 0 0 1-.029.054.08.08 0 0 1-.058.018z" fill="#C7A494"/>
            <path d="M20.811 13.9a.084.084 0 0 1-.08-.106.081.081 0 0 1 .069-.06 1.109 1.109 0 0 0 .776-.527c.172-.33.254-.702.238-1.075a.082.082 0 0 1 .08-.085c.02 0 .042.008.058.023a.088.088 0 0 1 .026.059c.019.407-.073.811-.263 1.17a1.293 1.293 0 0 1-.894.602l-.01-.002zM9.73 12.803a.081.081 0 0 1-.054-.02.084.084 0 0 1-.028-.05.507.507 0 0 1 .092-.335c.215-.364.465-.572.749-.617a.724.724 0 0 1 .643.23.084.084 0 0 1-.058.143.08.08 0 0 1-.057-.025.57.57 0 0 0-.495-.177c-.23.037-.444.217-.632.536a.371.371 0 0 0-.07.221.085.085 0 0 1-.04.084.08.08 0 0 1-.03.011l-.02-.001z" fill="#C7A494"/>
            <path d="M11.176 13.893h-.01a1.274 1.274 0 0 1-.895-.602 2.272 2.272 0 0 1-.262-1.17.087.087 0 0 1 .026-.058.085.085 0 0 1 .058-.024.081.081 0 0 1 .058.026.083.083 0 0 1 .023.06 2.11 2.11 0 0 0 .237 1.074 1.125 1.125 0 0 0 .775.527.082.082 0 0 1 .055.03.084.084 0 0 1-.065.137z" fill="#C7A494"/>
            <path d="M18.963 10.544a.09.09 0 0 1-.056-.021c-.211-.193-.53-.213-.863-.216a.506.506 0 0 0-.385.098.083.083 0 0 1-.117 0 .08.08 0 0 1-.025-.058.08.08 0 0 1 .025-.058.633.633 0 0 1 .512-.158c.365 0 .714.027.97.258a.085.085 0 0 1 0 .119.083.083 0 0 1-.061.036z" fill="#52423A"/>
            <path d="M19.13 14.675c.47 0 .85-.386.85-.861s-.38-.86-.85-.86a.855.855 0 0 0-.848.86c0 .476.38.86.849.86zM12.805 14.675c.469 0 .85-.386.85-.861s-.381-.86-.85-.86a.855.855 0 0 0-.849.86c0 .476.38.86.85.86z" fill="#E3A1A1"/>
            <path d="M18.7 7.105c.164 0 .261.154.329.29.29.636.422 1.327.727 1.957.184.357.393.7.627 1.026.174.26.377.537.697.62.032.01.067.01.099 0 .053-.02.069-.08.079-.132.145-.819.056-1.656-.092-2.475-.096-.532-.225-1.077-.574-1.505-.35-.428-.98-.719-1.535-.547" fill="#E9CBBD"/>
            <path d="M18.66 7.118a.49.49 0 0 1 .558.024c.158.124.285.283.371.466.183.336.336.688.458 1.052.33 1.003.322 2.141 1.075 2.87.531-.453.978-1.145 1.057-1.839a5.295 5.295 0 0 0-.244-2.083 3.894 3.894 0 0 0-.74-1.48 1.764 1.764 0 0 0-1.456-.649c-.547.055-1.062.518-1.076 1.074" fill="#3B2E2A"/>
            <path d="M17.431 20.182a.473.473 0 0 0 .249-.063.501.501 0 0 0 .165-.223c.267-.593.217-1.277.165-1.927-.33.132-.543.483-.86.652a1.782 1.782 0 0 1-.833.142c-.66 0-1.084-.167-1.685-.385-.447-.167-.243.192-.03.453.593.726 1.89 1.403 2.829 1.351zM16.122 15.106c-.61 0-1.22-.075-1.813-.223a.086.086 0 0 1-.061-.1.082.082 0 0 1 .1-.062c1 .248 2.039.284 3.052.106a.082.082 0 0 1 .084.037.085.085 0 0 1-.056.128 7.542 7.542 0 0 1-1.306.114z" fill="#C7A494"/>
            <path d="m13.298 19.987 5.764 3.855-2.684 1.904-4.559-4.483 1.66-1.896-.18.62zM19.561 21.696l-.494 2.15 2.283.914-.429-3.287-2.473-1.887c.17.794.556 1.525 1.113 2.11z" fill="#fff"/>
            <path d="M16.877 6.914c-.504.016-1.028.224-1.318.648a2.281 2.281 0 0 0-.244.56c-.195.594-.33 1.296.036 1.797-.384-.021-.713-.27-1.01-.518a2.862 2.862 0 0 1-.479-.471c-.478-.634-.399-1.583.05-2.239.448-.655 1.195-1.05 1.958-1.242a2.765 2.765 0 0 1 1.154-.077 1.451 1.451 0 0 1 .973.606c.165.26.758 1.135.59 1.17-.114.045-1.362-.234-1.71-.234z" fill="#E9CBBD"/>
            <path d="M16.523 6.29c-.348.032-.683.15-.976.344a2.162 2.162 0 0 0-.703.767 1.978 1.978 0 0 0-.13 1.595c.095.259.25.49.455.672.204.183.45.311.714.374a20.492 20.492 0 0 1-3.51.896c-.46.074-.958.127-1.367-.098-.494-.273-.722-.885-.763-1.456-.044-.921.219-1.83.745-2.581a6.393 6.393 0 0 1 1.979-1.83c.4-.255.833-.455 1.285-.594a3.776 3.776 0 0 1 3.402.717c.425.351.923.779 1.038 1.369.023.278-.009.559-.095.824-.567-.568-1.224-1.07-2.074-1z" fill="#3B2E2A"/>
            <path d="m17.773 24.758.992 1.44h1.332l.36-1.796-1.395-.558-1.158.862-.131.052z" fill="#C26F6B"/>
            <path d="m18.765 26.195-.064 4.154 2.209 4.322.142-4.592-.955-3.884h-1.332z" fill="#915350"/>
            <path d="m9.396 21.992 2.67 4.962 3.802 1.309-.104 3.375 2.948 2.6 2.191.298-4.525-8.79-4.559-4.715-2.423.961zM24.146 22.75l-.219 4.49-1.515 1.472.547 5.155-2.056.669.442-9.78-.428-3.287 3.23 1.28z" fill="#39424F"/>
        </g>
    </g>
    <defs>
        <clipPath id="u9hqr3pxva">
            <path fill="#fff" d="M0 0h32v32H0z"/>
        </clipPath>
    </defs>
</svg>
