<?xml version="1.0" standalone="no"?>
<!DOCTYPE svg PUBLIC "-//W3C//DTD SVG 1.1//EN" "http://www.w3.org/Graphics/SVG/1.1/DTD/svg11.dtd" >
<svg xmlns="http://www.w3.org/2000/svg" xmlns:xlink="http://www.w3.org/1999/xlink" version="1.1">
<metadata>
Created by FontForge 20170731 at Wed Sep 15 23:24:54 2021
 By Aleksey,,,
Copyright 2019 The Rosario Project Authors (https://github.com/Omnibus-Type/Rosario)
</metadata>
<defs>
<font id="Rosario-Regular" horiz-adv-x="0" >
  <font-face 
    font-family="Rosario"
    font-weight="400"
    font-stretch="normal"
    units-per-em="1000"
    panose-1="0 0 0 0 0 0 0 0 0 0"
    ascent="800"
    descent="-200"
    x-height="497"
    cap-height="728"
    bbox="-651 -286 1264 1139"
    underline-thickness="62"
    underline-position="-293"
    unicode-range="U+000D-FEFF"
  />
<missing-glyph horiz-adv-x="641" 
d="M581 728v-728h-521v728h521zM143 676l177 -264l178 264h-355zM289 365l-177 264v-530zM529 629l-177 -264l177 -266v530zM320 318l-177 -266h355z" />
    <glyph glyph-name="fi" unicode="fi" horiz-adv-x="548" 
d="M297 769q58 0 102.5 -28t63.5 -85l-83 -25q-7 35 -26.5 55.5t-54.5 20.5q-42 0 -66.5 -18.5t-36.5 -49.5t-15.5 -68t-3.5 -74h290v-498h-82v435h-207v-435h-83v435h-75v52q33 3 49.5 9t22.5 18t8.5 32.5t8.5 53.5q15 80 59 125t129 45z" />
    <glyph glyph-name="fl" unicode="fl" horiz-adv-x="568" 
d="M306 769q17 0 38 -3.5t40.5 -10t33.5 -17.5l65 26v-765h-82v636q0 24 -14.5 40t-36 24t-42.5 8q-38 0 -62.5 -13t-38.5 -35t-20.5 -49.5t-8 -56.5t-1.5 -56h143l-18 -63h-125v-435h-82v435h-75v52q34 3 50.5 8.5t22 17t7.5 32.5t8 55q10 53 35 91t66 58.5t97 20.5z" />
    <glyph glyph-name="f_f" unicode="ff" horiz-adv-x="576" 
d="M303 770q28 0 50.5 -5.5t46.5 -19.5l-23 -62q-13 12 -33.5 18.5t-38.5 6.5q-35 0 -58.5 -13.5t-37.5 -35.5t-21 -49.5t-9 -57t-2 -55.5h230l-105 -62h-125v-435h-82v435h-75v52q16 2 32.5 3.5t28.5 9.5t16 27q10 46 15 74.5t14 50.5t29 48q25 32 62 51t86 19zM591 770
q28 0 50.5 -5.5t46.5 -19.5l-23 -62q-13 12 -33.5 18.5t-38.5 6.5q-35 0 -58.5 -13.5t-37.5 -35.5t-21 -49.5t-9 -57t-2 -55.5h143l-18 -62h-125v-435h-82v435h-100l25 62q18 0 34 2t27.5 10.5t15.5 27.5l11.5 57.5t9.5 39t13.5 32t23.5 34.5q25 32 62 51t86 19z" />
    <glyph glyph-name="f_f_i" unicode="ffi" horiz-adv-x="835" 
d="M303 770q28 0 50.5 -5.5t46.5 -19.5l-23 -62q-13 12 -33.5 18.5t-38.5 6.5q-35 0 -58.5 -13.5t-37.5 -35.5t-21 -49.5t-9 -57t-2 -55.5h230l8 -62h-238v-435h-82v435h-75v52q16 2 32.5 3.5t28.5 9.5t16 27q10 46 15 74.5t14 50.5t29 48q25 32 62 51t86 19zM584 769
q58 0 102.5 -28t63.5 -85l-83 -25q-7 35 -26.5 55.5t-54.5 20.5q-42 0 -66.5 -18.5t-36.5 -49.5t-15.5 -68t-3.5 -74h290v-498h-82v435h-207v-435h-83v436h-75v62q29 0 44.5 3.5t23 14.5t11.5 31t10 53q15 80 59 125t129 45z" />
    <glyph glyph-name="f_f_l" unicode="ffl" horiz-adv-x="856" 
d="M303 770q28 0 50.5 -5.5t46.5 -19.5l-23 -62q-13 12 -33.5 18.5t-38.5 6.5q-35 0 -58.5 -13.5t-37.5 -35.5t-21 -49.5t-9 -57t-2 -55.5h230l-2 -62h-228v-435h-82v435h-75v52q16 2 32.5 3.5t28.5 9.5t16 27q10 46 15 74.5t14 50.5t29 48q25 32 62 51t86 19zM594 769
q17 0 38 -3.5t40.5 -10t33.5 -17.5l65 26v-765h-82v636q0 24 -14.5 40t-36 24t-42.5 8q-38 0 -62.5 -13t-38.5 -35t-20.5 -49.5t-8 -56.5t-1.5 -56h143l-18 -63h-125v-435h-82v436h-75v62q31 0 47.5 6.5t25 28.5t15.5 67q10 53 35 91t66 58.5t97 20.5z" />
    <glyph glyph-name=".notdef" horiz-adv-x="641" 
d="M581 728v-728h-521v728h521zM143 676l177 -264l178 264h-355zM289 365l-177 264v-530zM529 629l-177 -264l177 -266v530zM320 318l-177 -266h355z" />
    <glyph glyph-name=".null" 
 />
    <glyph glyph-name="nonmarkingreturn" horiz-adv-x="333" 
 />
    <glyph glyph-name="CR" unicode="&#xd;" horiz-adv-x="600" 
 />
    <glyph glyph-name="space" unicode=" " horiz-adv-x="230" 
 />
    <glyph glyph-name="exclam" unicode="!" horiz-adv-x="329" 
d="M106 728h117l-29 -511h-59zM231 53q0 -27 -19.5 -46.5t-46.5 -19.5t-46.5 19.5t-19.5 46.5q0 28 19 47t47 19q27 0 46.5 -19.5t19.5 -46.5z" />
    <glyph glyph-name="quotedbl" unicode="&#x22;" horiz-adv-x="367" 
d="M96 441q-1 3 -5 21t-9 39.5t-9 37.5t-4 17v178h83v-178l-27 -115h-29zM242 441l-27 115v178h84v-178l-28 -115h-29z" />
    <glyph glyph-name="numbersign" unicode="#" horiz-adv-x="640" 
d="M283 488h112l31 233h71l-32 -233h123v-66h-131l-17 -121h124v-65h-133l-33 -241h-71l33 241h-111l-34 -241h-70l33 241h-126v65h135l16 121h-125v66h134l31 233h73zM274 422l-16 -121h111l17 121h-112z" />
    <glyph glyph-name="dollar" unicode="$" horiz-adv-x="536" 
d="M473 644l-46 -67q-35 26 -72 38t-71 12q-49 0 -83 -27.5t-34 -83.5q0 -29 15.5 -48t41 -32t56.5 -25q35 -13 71.5 -28.5t68 -38.5t51 -58t19.5 -88q0 -69 -31.5 -115.5t-85 -70t-119.5 -23.5q-49 0 -102 13t-105 40l36 82q38 -32 81.5 -47.5t83.5 -15.5q39 0 71 14
t51.5 41.5t19.5 68.5q0 42 -21 67t-55 41t-72 31q-31 12 -62.5 26.5t-56.5 35t-40.5 50t-15.5 72.5q0 62 30 104t80.5 63.5t109.5 21.5q46 0 93.5 -13t92.5 -40zM273 13l-15 -151h-72l41 151h46zM259 668l14 144h74l-40 -144h-48z" />
    <glyph glyph-name="percent" unicode="%" horiz-adv-x="907" 
d="M613 730h66l-375 -737h-64zM214 730q59 0 94 -28.5t51 -76t16 -105.5q0 -57 -18.5 -105t-56 -77t-96.5 -29q-58 0 -93.5 29t-51.5 77t-16 105q0 58 18.5 105.5t56.5 76t96 28.5zM209 678q-42 0 -63.5 -24t-29 -60.5t-7.5 -73.5q0 -38 7.5 -74.5t29 -60t63.5 -23.5
q43 0 64 23.5t28 60t7 74.5t-7 74t-28 60t-64 24zM703 411q59 0 94 -28.5t51 -76t16 -105.5q0 -57 -18.5 -105t-56 -77t-96.5 -29q-58 0 -93.5 29t-51.5 77t-16 105q0 58 18.5 105.5t56.5 76t96 28.5zM698 358q-42 0 -63.5 -24t-29 -60t-7.5 -73q0 -38 7.5 -74.5t29 -60
t63.5 -23.5q43 0 64 23.5t28 60t7 74.5t-7 74t-28 59.5t-64 23.5zM214 730h420v-52h-425z" />
    <glyph glyph-name="ampersand" unicode="&#x26;" horiz-adv-x="661" 
d="M595 327q-47 -168 -136 -252t-220 -84q-70 0 -117 27.5t-70.5 72t-23.5 94.5q0 71 44.5 132.5t138.5 98.5l26 -61q-55 -18 -85 -57t-30 -98q0 -36 15 -69.5t44.5 -54.5t74.5 -21q57 0 110 31.5t93.5 95t56.5 159.5zM676 -2q-18 -3 -35 -4.5t-34 -1.5q-69 0 -126 17
t-103 50q-66 49 -120.5 123t-86.5 162.5t-32 177.5q0 45 10 84t30.5 68.5t52 46.5t74.5 17q62 0 97 -35.5t35 -95.5q0 -43 -20.5 -89.5t-64.5 -88.5t-113 -72l-21 60q47 19 75.5 50.5t41.5 67t13 66.5q0 35 -11.5 54t-37.5 19q-34 0 -51.5 -34.5t-17.5 -102.5
q0 -86 29.5 -167.5t79 -147.5t108.5 -106q39 -26 80 -39t83 -13q14 0 27.5 1.5t26.5 3.5z" />
    <glyph glyph-name="quotesingle" unicode="'" horiz-adv-x="226" 
d="M98 445q-1 3 -5 21t-9 39.5t-9 37.5t-4 17v178h84v-178l-28 -115h-29z" />
    <glyph glyph-name="parenleft" unicode="(" horiz-adv-x="306" 
d="M218 -138q-79 92 -126.5 204.5t-47.5 235.5t47 236t127 205l67 -10q-52 -64 -86 -132.5t-50.5 -142.5t-16.5 -156t16.5 -156t50.5 -142.5t86 -132.5z" />
    <glyph glyph-name="parenright" unicode=")" horiz-adv-x="306" 
d="M262 302q0 -123 -47 -235.5t-127 -204.5l-67 9q52 64 86 132t51 142.5t17 156.5q0 83 -17 157t-51 142t-86 132l67 10q80 -92 127 -205t47 -236z" />
    <glyph glyph-name="asterisk" unicode="*" horiz-adv-x="510" 
d="M212 731h78l-17 -140h-41zM287 583l121 64l29 -78l-137 -28zM93 643l128 -61l-13 -36l-136 21zM212 530l34 -27l-68 -122l-61 45zM261 503l33 23l98 -99l-63 -48z" />
    <glyph glyph-name="plus" unicode="+" horiz-adv-x="642" 
d="M352 0h-70v215h-214v68h214v214h70v-214h215v-68h-215v-215z" />
    <glyph glyph-name="comma" unicode="," horiz-adv-x="235" 
d="M108 124q36 0 55.5 -25.5t19.5 -59.5q0 -52 -30.5 -94.5t-71.5 -71.5l-17 17l-17 17l20.5 20.5t20 24.5t8.5 26q0 14 -12.5 23.5t-25 23.5t-12.5 39q0 26 18.5 43t43.5 17z" />
    <glyph glyph-name="hyphen" unicode="-" horiz-adv-x="313" 
d="M41 299h231v-75h-231v75z" />
    <glyph glyph-name="period" unicode="." horiz-adv-x="228" 
d="M174 56q0 -27 -19.5 -46.5t-46.5 -19.5t-46.5 19.5t-19.5 46.5q0 28 19 47t47 19q27 0 46.5 -19.5t19.5 -46.5z" />
    <glyph glyph-name="slash" unicode="/" horiz-adv-x="326" 
d="M264 727h67l-267 -736h-69z" />
    <glyph glyph-name="zero" unicode="0" horiz-adv-x="580" 
d="M296 509q78 0 130 -34.5t78.5 -93.5t26.5 -133t-29.5 -133t-84.5 -93.5t-133 -34.5q-77 0 -129.5 34.5t-79 93.5t-26.5 133q0 75 29.5 134t84.5 93t133 34zM290 446q-43 0 -72 -17t-46.5 -45.5t-25 -63.5t-7.5 -72t7.5 -72.5t24.5 -63.5t46.5 -45t72.5 -17q44 0 73 17
t46 45t24 63.5t7 72.5t-7 72.5t-24 63.5t-46 45t-73 17z" />
    <glyph glyph-name="one" unicode="1" horiz-adv-x="387" 
d="M47 67h117v337l-120 -37l-18 47l171 83h50v-430h113v-68h-313v68z" />
    <glyph glyph-name="two" unicode="2" horiz-adv-x="466" 
d="M248 509q41 0 75.5 -13t56 -40t21.5 -71q0 -59 -33 -112t-90.5 -103t-129.5 -102h277l-20 -69h-374v58q77 55 130 99.5t85 82t46 70.5t14 65q0 38 -19.5 55t-48.5 17q-32 0 -71 -17.5t-72 -47.5l-45 53q51 41 99 58t99 17z" />
    <glyph glyph-name="three" unicode="3" horiz-adv-x="400" 
d="M212 510q70 0 105 -30.5t35 -79.5q0 -38 -16 -72.5t-47.5 -65.5t-78.5 -59q36 -1 70 -17t56 -47t22 -80q0 -51 -19 -90t-52 -67.5t-74.5 -48t-87.5 -30.5t-91 -15.5t-84 -3.5l-5 44q54 3 110 15t102.5 36.5t75.5 62.5t29 92q0 51 -28 75.5t-70 24.5q-14 0 -30 -3t-33 -8
l-23 48q42 17 75.5 41t57.5 51.5t37 55.5t13 53q0 24 -14.5 39t-46.5 15q-34 0 -72.5 -18t-61.5 -46l-44 57q41 35 92 53t98 18z" />
    <glyph glyph-name="four" unicode="4" horiz-adv-x="457" 
d="M249 498h98v-429h101l-18 -69h-83v-185h-83v185h-272v40zM264 399l-180 -330h180v330z" />
    <glyph glyph-name="five" unicode="5" horiz-adv-x="364" 
d="M116 497h246l-24 -85h-187l-43 -106q86 -36 139 -92t53 -139q0 -61 -24.5 -109.5t-66.5 -84t-97 -58.5t-117 -32l-13 44q70 18 119.5 45.5t76 73t26.5 115.5q0 47 -24 86t-65 69t-94 49z" />
    <glyph glyph-name="six" unicode="6" horiz-adv-x="526" 
d="M444 732l21 -47q-88 -36 -150 -89t-100.5 -114.5t-56.5 -124t-18 -118.5q0 -53 15.5 -96t44 -68t67.5 -25t66 22t40.5 56t13.5 71q0 35 -13 66.5t-38.5 51.5t-65.5 20q-33 0 -69.5 -13.5t-71.5 -41.5l12 64q33 30 73.5 44.5t78.5 14.5q64 0 106 -27.5t63 -71t21 -92.5
q0 -41 -14.5 -81.5t-42.5 -73.5t-70 -52.5t-97 -19.5t-104.5 27t-80 82t-30.5 139q0 89 33 168t90 144t128.5 112.5t148.5 72.5z" />
    <glyph glyph-name="seven" unicode="7" horiz-adv-x="425" 
d="M35 497h370v-42l-278 -640h-102l299 607h-309z" />
    <glyph glyph-name="eight" unicode="8" horiz-adv-x="492" 
d="M255 729q42 0 80 -17t61.5 -52t23.5 -89q0 -51 -30.5 -102t-92.5 -91l-46 39q46 29 69 69t23 80q0 35 -13 58.5t-33 35t-42 11.5q-23 0 -44.5 -12.5t-35 -37t-13.5 -62.5q0 -37 16.5 -62.5t43 -46t57.5 -42.5q29 -19 58 -40.5t53.5 -47.5t39.5 -60t15 -78
q0 -64 -30.5 -107.5t-78 -64.5t-99.5 -21q-49 1 -92.5 20.5t-70.5 58.5t-27 96q0 46 17 83.5t50 70t80 63.5l40 -39q-46 -30 -68.5 -60.5t-29.5 -59t-7 -55.5q0 -39 16 -65.5t41 -39.5t52 -13q28 0 53 13.5t41.5 41t16.5 68.5t-22.5 70t-57.5 53.5t-71 51.5q-33 25 -62 52.5
t-47.5 64t-18.5 85.5q0 56 27.5 96.5t70 62t87.5 21.5z" />
    <glyph glyph-name="nine" unicode="9" horiz-adv-x="524" 
d="M265 509q56 0 105 -27t79.5 -81.5t30.5 -139.5q0 -89 -33 -165t-90 -137t-128.5 -105t-148.5 -70l-21 47q88 36 150 86t100.5 107.5t56.5 117.5t18 115q0 54 -15.5 96.5t-44 67.5t-67.5 25t-65.5 -22t-40.5 -56t-14 -71q0 -35 13 -66.5t39 -51.5t65 -20q33 0 69.5 13.5
t71.5 41.5l-12 -64q-33 -30 -73.5 -44.5t-78.5 -14.5q-64 0 -106 27.5t-63 71t-21 92.5q0 41 14.5 81.5t42.5 73.5t70 52.5t97 19.5z" />
    <glyph glyph-name="colon" unicode=":" horiz-adv-x="331" 
d="M228 368q0 -27 -19.5 -46.5t-46.5 -19.5t-46.5 19.5t-19.5 46.5t19.5 46.5t46.5 19.5t46.5 -19.5t19.5 -46.5zM228 53q0 -27 -19.5 -46.5t-46.5 -19.5t-46.5 19.5t-19.5 46.5t19.5 46.5t46.5 19.5t46.5 -19.5t19.5 -46.5z" />
    <glyph glyph-name="semicolon" unicode=";" horiz-adv-x="334" 
d="M162 434q27 0 46.5 -19.5t19.5 -46.5q0 -28 -19 -47t-47 -19q-27 0 -46.5 19.5t-19.5 46.5t19.5 46.5t46.5 19.5zM153 124q36 0 55.5 -25.5t19.5 -59.5q0 -52 -30.5 -94.5t-71.5 -71.5l-34 34l20.5 20.5t20 24.5t8.5 26q0 14 -12.5 23.5t-25 23.5t-12.5 39q0 26 18.5 43
t43.5 17z" />
    <glyph glyph-name="less" unicode="&#x3c;" horiz-adv-x="630" 
d="M66 287l498 216v-77l-405 -177l405 -177v-76l-498 218v73z" />
    <glyph glyph-name="equal" unicode="=" horiz-adv-x="630" 
d="M68 376h499v-70h-499v70zM68 183h499v-70h-499v70z" />
    <glyph glyph-name="greater" unicode="&#x3e;" horiz-adv-x="630" 
d="M66 72l405 177l-405 177v77l498 -216v-73l-498 -218v76z" />
    <glyph glyph-name="question" unicode="?" horiz-adv-x="438" 
d="M189 723q51 0 96 -18.5t73.5 -56t28.5 -94.5q0 -50 -21 -88t-58.5 -64t-85.5 -42v-143h-65v195q35 6 67.5 23t53.5 45t21 68q0 53 -37.5 78t-87.5 25q-25 0 -50.5 -8.5t-45.5 -22.5l-27 67q26 16 65 26t73 10zM186 119q27 0 46.5 -19.5t19.5 -46.5t-19.5 -46.5
t-46.5 -19.5t-46.5 19.5t-19.5 46.5q0 28 19 47t47 19z" />
    <glyph glyph-name="at" unicode="@" horiz-adv-x="1026" 
d="M552 728q86 0 162.5 -26.5t135.5 -77.5t92.5 -124.5t33.5 -168.5q0 -61 -17 -121t-49 -109t-77.5 -78t-102.5 -29q-31 0 -58 6t-46.5 23.5t-27.5 50.5h-4q-23 -41 -62.5 -64t-80.5 -23q-54 0 -87.5 28t-49 75t-15.5 103t15.5 111t46.5 100t78 72t111 27q28 0 56.5 -9.5
t53.5 -34.5l22 36h44q-15 -99 -25.5 -166.5t-17 -110t-10 -67t-4.5 -37t-1 -20.5q0 -20 14.5 -32t50.5 -12q42 0 75 24t56 64.5t35 90.5t12 102q0 81 -28 144.5t-77.5 107.5t-114.5 67t-139 23q-108 0 -190 -41t-137 -109.5t-82.5 -152t-27.5 -169.5q0 -75 21.5 -144
t64 -123.5t107 -86.5t151.5 -32q51 0 104 14l16 -53q-29 -7 -59 -11.5t-61 -4.5q-103 0 -179.5 37t-127.5 99.5t-76.5 142.5t-25.5 165q0 76 20 151.5t60.5 142.5t101 119t140.5 81.5t180 29.5zM552 441q-46 0 -78.5 -22t-53 -58.5t-29.5 -80t-9 -86.5q0 -58 20 -100.5
t65 -42.5q33 0 58.5 21.5t44.5 58t31.5 82t18.5 94.5l15 109q-41 25 -83 25z" />
    <glyph glyph-name="A" unicode="A" horiz-adv-x="631" 
d="M362 728l252 -728h-103l-84 250h-240l-85 -250h-84l253 728h91zM308 606l-98 -288h194z" />
    <glyph glyph-name="B" unicode="B" horiz-adv-x="614" 
d="M535 559q0 -37 -14.5 -71.5t-42 -59t-66.5 -31.5q50 -7 84.5 -34.5t53 -68.5t18.5 -90q0 -65 -24 -105.5t-65 -62t-92 -29t-104 -7.5h-198v662q0 1 -3.5 16t-6.5 31t-4 19h243q43 0 82.5 -7.5t71 -26.5t49.5 -51.5t18 -83.5zM438 557q0 40 -17.5 62t-46.5 31t-63 9h-133
v-232h107q47 0 81 12t53 40.5t19 77.5zM469 219q0 51 -26.5 81.5t-68 44t-85.5 13.5h-111v-289h111q53 0 93.5 12.5t63.5 45.5t23 92z" />
    <glyph glyph-name="C" unicode="C" horiz-adv-x="624" 
d="M378 -12q-86 0 -148.5 30t-103.5 81.5t-60.5 116.5t-19.5 134q0 75 22 144.5t64.5 124.5t106.5 87t148 32q35 0 76.5 -8.5t79.5 -25.5t62 -45l-52 -58q-19 22 -48 36.5t-60.5 22.5t-59.5 8q-58 0 -102 -26.5t-74 -71.5t-45.5 -101t-15.5 -114q0 -90 29 -155.5t82 -101
t125 -35.5q42 0 91 12t101 38l31 -57q-22 -16 -50.5 -28.5t-60 -21.5t-62 -13.5t-56.5 -4.5z" />
    <glyph glyph-name="D" unicode="D" horiz-adv-x="699" 
d="M653 362q0 -105 -35.5 -186.5t-108.5 -128.5t-186 -47h-237v662q0 1 -3.5 16t-6.5 31t-4 19h187q91 0 164 -20.5t124.5 -64t78.5 -113t27 -168.5zM556 364q0 79 -19.5 135t-58 91.5t-95 52t-131.5 16.5h-73v-590h132q91 0 144.5 40t77 107t23.5 148z" />
    <glyph glyph-name="E" unicode="E" horiz-adv-x="549" 
d="M72 728h437v-69h-330v-251h256v-68h-256v-271h330v-69h-423v662z" />
    <glyph glyph-name="F" unicode="F" horiz-adv-x="510" 
d="M72 728h403v-69h-296v-251h235v-68h-235v-340h-93v662z" />
    <glyph glyph-name="G" unicode="G" horiz-adv-x="707" 
d="M385 738q39 0 83.5 -8.5t86 -27t69.5 -47.5l-53 -62q-31 25 -58 41t-56.5 24t-71.5 8q-66 0 -111.5 -25t-74 -68t-41.5 -97t-13 -112q0 -55 12 -108.5t39 -97.5t71 -70t108 -26q53 0 91.5 23.5t60 64t21.5 91.5v66h-179l12 68h261v-209q0 -41 3.5 -83t5.5 -83h-50l-32 76
q-44 -47 -94.5 -67.5t-115.5 -20.5q-79 0 -137.5 29.5t-97.5 81t-58 117.5t-19 139q0 80 21 149.5t63 122t105.5 82t148.5 29.5z" />
    <glyph glyph-name="H" unicode="H" horiz-adv-x="714" 
d="M534 344h-354v-344h-93v662q0 1 -3.5 16t-6.5 31t-4 19h107v-316h354v316h93v-728h-93v344z" />
    <glyph glyph-name="I" unicode="I" horiz-adv-x="268" 
d="M73 728h107v-728h-93v662q0 1 -3.5 16t-6.5 31t-4 19z" />
    <glyph glyph-name="J" unicode="J" horiz-adv-x="268" 
d="M73 728h108v-667q0 -52 -7.5 -99t-28 -83.5t-58 -60t-98.5 -29.5l-13 59q39 6 62 27t33.5 51t13.5 64t3 65v607z" />
    <glyph glyph-name="K" unicode="K" horiz-adv-x="583" 
d="M72 728h107v-325l289 325h97l-287 -324l305 -404h-116l-288 379v-379h-93v662z" />
    <glyph glyph-name="L" unicode="L" horiz-adv-x="514" 
d="M72 728h107v-659h306v-69h-399v662z" />
    <glyph glyph-name="M" unicode="M" horiz-adv-x="838" 
d="M209 728l177 -473q9 -25 17.5 -49t17.5 -55q8 30 16 53.5t17 47.5l176 476h121v-728h-92v527q0 18 1 35t2 38q-6 -16 -13 -33t-13 -34l-196 -534h-56l-198 539q-5 15 -12 31.5t-12 30.5q2 -19 2.5 -35t0.5 -33v-532h-76v662l-15 66h135z" />
    <glyph glyph-name="N" unicode="N" horiz-adv-x="714" 
d="M197 728l318 -489q9 -14 19 -29.5t20 -29.5q-1 17 -2 34.5t-1 33.5v480h76v-733h-59l-371 568q-8 13 -17.5 27.5t-19.5 27.5q2 -16 2.5 -32.5t0.5 -32.5v-553h-76v662l-14 66h124z" />
    <glyph glyph-name="O" unicode="O" horiz-adv-x="737" 
d="M368 -11q-81 0 -141.5 30t-100.5 82.5t-60 119.5t-20 142t19.5 142.5t59.5 120t101 82.5t143 30t142.5 -30t100.5 -82.5t59.5 -120t19.5 -142.5t-20 -142.5t-60 -119.5t-100.5 -82t-142.5 -30zM369 57q64 0 107 27t69 72t37.5 99t11.5 108t-11.5 108t-37.5 98.5
t-69.5 71.5t-106.5 27t-106.5 -27t-69 -72t-37 -99t-11.5 -108t11.5 -107.5t37 -98.5t69 -72t106.5 -27z" />
    <glyph glyph-name="P" unicode="P" horiz-adv-x="575" 
d="M71 728h218q72 0 127.5 -22.5t86.5 -70.5t31 -127q0 -73 -33 -122t-88 -73.5t-123 -24.5h-111v-288h-93v662zM179 659v-303h109q69 0 109 42t40 110q0 71 -38 111t-110 40h-110z" />
    <glyph glyph-name="Q" unicode="Q" horiz-adv-x="737" 
d="M1155 -175q-26 -10 -50.5 -18.5t-50.5 -15t-55 -10t-64 -3.5q-45 0 -99 14t-110 35.5t-110 46.5t-100 47.5t-78 36.5q-30 14 -64 22t-67 15q-93 21 -150.5 74.5t-84 129.5t-26.5 164q0 75 19.5 142.5t59.5 120t101 82.5t143 30t142.5 -30.5t100.5 -83t59.5 -120
t19.5 -141.5q0 -72 -20 -140.5t-63.5 -123.5t-114.5 -85q3 -1 7 -3l8 -4q22 -11 61.5 -31t90.5 -43t106 -43.5t107.5 -34t95.5 -13.5q21 0 52 5t63 12t55 14zM369 57q63 0 106 26.5t69.5 71t38 99t11.5 109.5t-11.5 109t-38 98.5t-69.5 71t-106 26.5t-106 -27t-69 -71.5
t-37.5 -98.5t-11.5 -109q0 -54 11.5 -108t37.5 -98.5t69 -71.5t106 -27z" />
    <glyph glyph-name="R" unicode="R" horiz-adv-x="591" 
d="M71 728h217q69 0 125 -17.5t88.5 -61.5t32.5 -122q0 -40 -19 -77t-50.5 -64.5t-69.5 -39.5l204 -346h-108l-188 327h-125v-327h-93v662zM178 659v-264h80q50 0 90.5 11.5t64.5 41.5t24 85q0 43 -21 70.5t-55 41.5t-73 14h-110z" />
    <glyph glyph-name="S" unicode="S" horiz-adv-x="516" 
d="M280 738q50 0 97.5 -14t90.5 -40l-46 -67q-31 23 -67.5 36.5t-75.5 13.5q-53 0 -90 -26.5t-37 -84.5q0 -32 17.5 -54.5t46.5 -39.5t63 -33q35 -16 71.5 -35t67 -44.5t49 -62t18.5 -89.5q0 -72 -35 -118.5t-92 -69t-123 -22.5q-54 0 -104.5 14.5t-98.5 39.5l36 82
q33 -28 80 -46t90 -18q33 0 67 12.5t57 40.5t23 72t-21 72.5t-55 48t-72 37.5q-33 16 -66 33t-60 40t-43 55t-16 77q0 63 33.5 105t86 63.5t108.5 21.5z" />
    <glyph glyph-name="T" unicode="T" horiz-adv-x="578" 
d="M240 659h-216v69h530v-69h-219v-659h-95v659z" />
    <glyph glyph-name="U" unicode="U" horiz-adv-x="707" 
d="M181 728v-484q0 -85 42 -136t132 -51q62 0 104 25.5t63 71t21 104.5v470h77v-470q0 -84 -31.5 -144.5t-91.5 -93t-146 -32.5q-125 0 -195 65t-70 191v418l-15 66h110z" />
    <glyph glyph-name="V" unicode="V" horiz-adv-x="603" 
d="M120 728l158 -475q8 -25 15 -48.5t15 -51.5q8 26 14 47.5t14 44.5l166 484h80l-252 -732h-58l-251 731h99z" />
    <glyph glyph-name="W" unicode="W" horiz-adv-x="894" 
d="M119 728l122 -451q8 -27 15 -54.5t14 -62.5q7 32 13 57.5t13 50.5l124 460h74l122 -455q7 -25 14 -52.5t14 -60.5q7 32 13 57t13 49l125 462h78l-199 -733h-77l-127 465q-5 20 -11 41.5t-11 49.5q-6 -28 -11.5 -50.5t-11.5 -43.5l-125 -462h-77l-202 733h98z" />
    <glyph glyph-name="X" unicode="X" horiz-adv-x="585" 
d="M138 728l435 -728h-109l-433 728h107zM456 728h100l-445 -728h-99z" />
    <glyph glyph-name="Y" unicode="Y" horiz-adv-x="584" 
d="M140 728l169 -283l157 283h87l-209 -368v-360h-95v360l-217 368h108z" />
    <glyph glyph-name="Z" unicode="Z" horiz-adv-x="571" 
d="M57 728h467v-67l-378 -592h391l-8 -69h-494v67l378 592h-356v69z" />
    <glyph glyph-name="bracketleft" unicode="[" horiz-adv-x="351" 
d="M72 730h208v-49h-127v-760h127v-49h-208v858z" />
    <glyph glyph-name="backslash" unicode="\" horiz-adv-x="326" 
d="M-3 728h69l263 -728h-67z" />
    <glyph glyph-name="bracketright" unicode="]" horiz-adv-x="350" 
d="M72 -78h126v759h-127v49h208v-857h-207v49z" />
    <glyph glyph-name="asciicircum" unicode="^" horiz-adv-x="618" 
d="M309 405l-176 -405h-77l215 497h74l217 -497h-76z" />
    <glyph glyph-name="underscore" unicode="_" horiz-adv-x="499" 
d="M-9 -66h518v-60h-518v60z" />
    <glyph glyph-name="grave" unicode="`" horiz-adv-x="281" 
d="M153 733l96 -152h-78l-140 152h122z" />
    <glyph glyph-name="a" unicode="a" horiz-adv-x="494" 
d="M253 509q79 0 119 -43t40 -121v-249q0 -21 8 -28.5t19 -7.5q9 0 19 2.5t19 6.5l18 -54q-16 -9 -40.5 -16.5t-50.5 -7.5t-47 14.5t-26 53.5q-29 -31 -68 -50.5t-82 -19.5q-59 0 -98 35t-39 96q0 57 27.5 91t71.5 51t93.5 23t92.5 6v53q0 28 -7 50.5t-25 36t-51 13.5
q-38 0 -73 -15t-70 -44l-41 59q41 33 90 49t101 16zM329 226q-27 0 -61 -2.5t-66 -12t-52.5 -30.5t-20.5 -58q0 -33 22.5 -48.5t56.5 -15.5q36 0 63 20t42.5 51t15.5 64v32z" />
    <glyph glyph-name="b" unicode="b" horiz-adv-x="558" 
d="M305 507q52 0 91 -22t64.5 -59.5t38.5 -82.5t13 -92q0 -51 -13.5 -98t-40.5 -84.5t-68 -59.5t-97 -22q-42 0 -80.5 16t-65.5 48l-18 -52h-50q1 17 2 34.5t1 34.5v636l-14 58h97v-276q0 -9 -0.5 -17.5t-1.5 -17.5q32 29 65.5 42.5t76.5 13.5zM284 436q-33 0 -64.5 -15.5
t-54.5 -39.5v-182q0 -42 12 -76t39.5 -54t73.5 -20q38 0 63.5 19.5t40.5 50t22 65t7 64.5q0 33 -7.5 66t-24 60.5t-43 44.5t-64.5 17z" />
    <glyph glyph-name="c" unicode="c" horiz-adv-x="450" 
d="M274 509q38 0 76.5 -12.5t75.5 -38.5l-45 -58q-28 23 -55 33.5t-52 10.5q-30 0 -55.5 -14t-45 -39.5t-30 -61.5t-10.5 -80q0 -94 42.5 -144t107.5 -50q29 0 56.5 9t57.5 26l27 -53q-40 -25 -77 -37.5t-83 -12.5q-64 0 -113.5 32.5t-78 92.5t-28.5 141q0 78 31.5 135.5
t84 89t114.5 31.5z" />
    <glyph glyph-name="d" unicode="d" horiz-adv-x="558" 
d="M267 508q34 0 68 -11t59 -34q-1 14 -1.5 27.5t-0.5 26.5v186l-14 59h96v-619q0 -21 3 -47t10 -50.5t18 -43.5l-88 -11q-7 17 -12 34t-7 34q-26 -34 -65 -53t-82 -19q-52 0 -91 22t-64.5 59.5t-38 83t-12.5 92.5q0 51 13.5 98.5t41 84.5t69.5 59t98 22zM269 440
q-39 0 -65.5 -17t-42 -45t-22 -61.5t-6.5 -66.5q0 -34 7.5 -67.5t24 -61.5t44 -44.5t67.5 -16.5q35 0 64.5 20.5t51.5 45.5v168q0 40 -12.5 73t-39.5 53t-71 20z" />
    <glyph glyph-name="e" unicode="e" horiz-adv-x="494" 
d="M270 509q60 0 101 -24.5t61.5 -68t20.5 -101.5q0 -14 -1.5 -28.5t-3.5 -30.5h-316q0 -95 42 -147t112 -52q29 0 60.5 9t65.5 27l31 -50q-35 -28 -79 -42t-89 -14q-59 0 -102.5 21.5t-72 58t-42.5 82.5t-14 94q0 50 14 97t42.5 85.5t70.5 61t99 22.5zM262 446
q-34 0 -60 -19t-42 -48.5t-22 -60.5h228q1 42 -11.5 70.5t-36 43t-56.5 14.5z" />
    <glyph glyph-name="f" unicode="f" horiz-adv-x="288" 
d="M303 770q28 0 50.5 -5.5t46.5 -19.5l-23 -62q-13 12 -33.5 18.5t-38.5 6.5q-35 0 -58.5 -13.5t-37.5 -35.5t-21 -49.5t-9 -57t-2 -55.5h143l-18 -62h-125v-435h-82v435h-75v52q16 2 32.5 3.5t28.5 9.5t16 27q10 46 15 74.5t14 50.5t29 48q25 32 62 51t86 19z" />
    <glyph glyph-name="g" unicode="g" horiz-adv-x="477" 
d="M220 509q29 0 55.5 -7t54.5 -7q38 0 77 4.5t82 10.5l-18 -72h-80q-7 0 -14.5 0.5t-14.5 1.5q17 -23 25.5 -48t8.5 -51q0 -50 -22 -90t-64.5 -62.5t-103.5 -22.5q-25 0 -44 -13t-19 -40q0 -18 9.5 -25.5t23.5 -8.5t28 -1h97q26 0 53.5 -3.5t50.5 -14t37.5 -31t14.5 -55.5
q0 -55 -22 -94t-59 -63.5t-83 -35.5t-93 -11q-28 0 -59 6.5t-58.5 21t-44.5 38.5t-17 60q0 38 23.5 67t54.5 49v3q-22 11 -34.5 30.5t-12.5 41.5q0 13 10 24.5t25.5 30.5t33.5 52q-35 24 -56 61.5t-21 80.5q0 49 24 88t64.5 62t87.5 23zM221 449q-24 0 -44.5 -15t-33 -40
t-12.5 -57t12 -57.5t32.5 -40.5t44.5 -15q41 0 65.5 31t24.5 81q0 32 -12.5 57.5t-32.5 40.5t-44 15zM158 -1q-19 -14 -35 -38.5t-16 -47.5q0 -24 17.5 -41t43 -25.5t47.5 -8.5q26 0 55 5.5t54 17.5t40.5 33t15.5 51q0 26 -16 37.5t-39.5 14t-46.5 2.5h-120z" />
    <glyph glyph-name="h" unicode="h" horiz-adv-x="547" 
d="M164 762v-324q32 30 69 51t82 21q55 0 88 -23t48 -62.5t15 -91.5v-333h-82v306q0 31 -4.5 60.5t-21.5 49.5t-57 20q-25 0 -49.5 -10t-46.5 -25t-41 -31v-370h-82v703l-13 59h95z" />
    <glyph glyph-name="i" unicode="i" horiz-adv-x="251" 
d="M185 664q0 -25 -17.5 -43t-43.5 -18q-25 0 -42.5 18t-17.5 43t17.5 43t42.5 18t43 -18t18 -43zM167 497v-497h-83v438l-12 59h95z" />
    <glyph glyph-name="j" unicode="j" horiz-adv-x="251" 
d="M187 664q0 -25 -17.5 -43t-43.5 -18q-25 0 -43 18t-18 43t18 43t43 18t43 -18t18 -43zM167 497v-472q0 -38 -5 -79.5t-19.5 -78.5t-42.5 -63t-75 -32l-14 40q37 19 52 52.5t18 73t3 75.5v425l-13 59h96z" />
    <glyph glyph-name="k" unicode="k" horiz-adv-x="464" 
d="M164 762v-470l186 205h89l-191 -209l218 -288h-99l-203 270v-270h-83v703l-13 59h96z" />
    <glyph glyph-name="l" unicode="l" horiz-adv-x="251" 
d="M167 762v-762h-83v704l-13 58h96z" />
    <glyph glyph-name="m" unicode="m" horiz-adv-x="829" 
d="M139 504q7 -16 12 -34t7 -35q18 18 41.5 35t50.5 28t53 11q48 0 82 -19.5t55 -63.5q20 20 45 39t53 31.5t57 12.5q55 0 88.5 -23t48.5 -62.5t15 -91.5v-332h-83v305q0 23 -2.5 45.5t-10.5 42t-24.5 31t-45.5 11.5q-35 0 -69 -22.5t-57 -45.5v-367h-83v305q0 23 -2 46
t-10 42t-25 30.5t-46 11.5q-22 0 -45 -10.5t-44 -26t-37 -29.5v-369h-83v361q0 21 -3.5 45t-10.5 47t-18 41z" />
    <glyph glyph-name="n" unicode="n" horiz-adv-x="547" 
d="M138 505q7 -17 12 -35t7 -36q30 30 71 52.5t84 22.5q55 0 88.5 -23t48.5 -62.5t15 -91.5v-332h-82v305q0 31 -4.5 61t-22 49.5t-57.5 19.5q-24 0 -49 -9.5t-47 -24.5t-40 -32v-369h-82v352q0 20 -3 46.5t-10 52t-20 42.5z" />
    <glyph glyph-name="o" unicode="o" horiz-adv-x="537" 
d="M265 -13q-73 0 -122.5 36.5t-74 95.5t-24.5 126q0 50 15 97.5t44 85t71.5 59.5t96.5 22q74 0 123.5 -36t74 -95t24.5 -127q0 -51 -15 -98.5t-43.5 -84.5t-71 -59t-98.5 -22zM266 50q39 0 65.5 18.5t43 48.5t23.5 64.5t7 66.5q0 33 -6.5 67.5t-21.5 64t-41.5 48
t-65.5 18.5t-65.5 -18.5t-42.5 -48.5t-23 -64.5t-7 -66.5q0 -31 7 -65.5t22.5 -64.5t41.5 -49t63 -19z" />
    <glyph glyph-name="p" unicode="p" horiz-adv-x="556" 
d="M138 504q8 -16 12.5 -33.5t6.5 -34.5q26 33 64.5 52.5t81.5 19.5q53 0 92 -22t64.5 -59.5t38 -83t12.5 -92.5q0 -51 -14 -98.5t-41.5 -85t-69.5 -59t-98 -21.5q-34 0 -67.5 11t-58.5 34q2 -14 2 -28v-22v-139l14 -59h-96v568q0 21 -3 47t-9.5 51t-18.5 43zM278 435
q-34 0 -64 -20.5t-51 -45.5v-168q0 -39 12.5 -72.5t39.5 -53.5t70 -20q39 0 65.5 17t42.5 45t22.5 61.5t6.5 66.5q0 35 -7.5 68.5t-24.5 61t-44.5 44t-67.5 16.5z" />
    <glyph glyph-name="q" unicode="q" horiz-adv-x="556" 
d="M262 509q42 0 81 -16t66 -49l18 53h50q-1 -17 -2 -34.5t-1 -34.5v-585q0 -1 3 -14.5t6.5 -27.5t3.5 -17h-96v188q0 12 0.5 24.5t1 24.5t1.5 24q-31 -29 -65 -43t-78 -14q-52 0 -91 22.5t-64.5 60t-38.5 83t-13 91.5q0 51 13 98t40 84.5t68 59.5t97 22zM266 446
q-37 0 -63 -19.5t-41 -49.5t-22 -64.5t-7 -64.5q0 -33 7.5 -66t24 -60.5t43 -44.5t64.5 -17q32 0 65 15t54 40v181q0 42 -12 76t-39.5 54t-73.5 20z" />
    <glyph glyph-name="r" unicode="r" horiz-adv-x="349" 
d="M139 506q18 -44 23 -93q26 41 70 67t93 26l-20 -88q-48 0 -81.5 -25t-59.5 -63v-330h-83v360q0 20 -3 45t-10 49t-19 41z" />
    <glyph glyph-name="s" unicode="s" horiz-adv-x="430" 
d="M244 509q34 0 67.5 -8.5t61.5 -26.5l-29 -64q-22 18 -49 27t-53 9q-37 0 -64.5 -17t-27.5 -51q0 -24 11.5 -40t30.5 -27t41 -22q25 -12 50.5 -24.5t47 -30t35 -42t13.5 -60.5q0 -50 -24.5 -82.5t-64 -47.5t-85.5 -15q-40 0 -80 11t-74 31l35 61q24 -18 54 -29t58 -11
q38 0 66.5 18t28.5 54q0 25 -15.5 41.5t-39.5 29.5t-50 25q-30 15 -58.5 32.5t-46.5 44.5t-18 69q0 48 25.5 80t66.5 48.5t87 16.5z" />
    <glyph glyph-name="t" unicode="t" horiz-adv-x="327" 
d="M197 639q-7 -34 -12.5 -70.5t-7.5 -71.5h130l-17 -63h-113v-318q0 -19 4.5 -33.5t16 -22t32.5 -7.5q16 0 32 3t31 7l14 -56q-25 -7 -47.5 -12.5t-51.5 -5.5q-64 0 -89 34t-25 95v316h-74v50q30 1 50 16t33 38.5t21 50t12 50.5h61z" />
    <glyph glyph-name="u" unicode="u" horiz-adv-x="553" 
d="M163 497v-306q0 -29 5 -59.5t22.5 -50.5t55.5 -20q37 0 67.5 16t49.5 44.5t19 66.5v250q0 1 -3 14.5t-6 28t-4 16.5h96v-400q0 -19 6.5 -28t20.5 -9t38 9l18 -54q-20 -11 -44.5 -17.5t-46.5 -6.5q-26 0 -46 15t-26 53q-29 -30 -69.5 -51t-83.5 -21q-55 0 -88.5 23
t-48.5 62.5t-15 91.5v274l-13 59h96z" />
    <glyph glyph-name="v" unicode="v" horiz-adv-x="455" 
d="M100 497l108 -308q7 -19 13 -37t12 -43q6 24 11.5 41.5t11.5 34.5l109 312h78l-178 -503h-76l-177 503h88z" />
    <glyph glyph-name="w" unicode="w" horiz-adv-x="658" 
d="M99 497l86 -289q4 -13 7.5 -27t7.5 -34q4 20 7.5 33.5t7.5 25.5l91 291h59l87 -289q4 -13 7.5 -27t7.5 -34q4 20 8 34t8 27l89 289h74l-157 -503h-60q-17 58 -34 111.5t-33 110.5t-34 127q-18 -70 -35.5 -127t-35 -110.5t-36.5 -111.5h-61l-147 503h86z" />
    <glyph glyph-name="x" unicode="x" horiz-adv-x="446" 
d="M116 497l320 -498h-95l-320 498h95zM338 497h88l-327 -498h-89z" />
    <glyph glyph-name="y" unicode="y" horiz-adv-x="456" 
d="M102 497q22 -62 43.5 -124t43.5 -127q11 -34 22.5 -68.5t22.5 -68.5q11 35 22.5 69t22.5 68q22 65 43.5 127t43.5 124h78l-176 -499q-11 -31 -28 -68.5t-40 -70.5t-54 -54.5t-70 -21.5h-38v67h5.5h5.5q42 0 69.5 25t45.5 60.5t30 68.5l-182 493h90z" />
    <glyph glyph-name="z" unicode="z" horiz-adv-x="445" 
d="M55 497h346v-48l-258 -386h270l-11 -63h-370v47l257 386h-234v64z" />
    <glyph glyph-name="braceleft" unicode="{" horiz-adv-x="349" 
d="M267 -135q-79 0 -112 43.5t-33 119.5v164q0 32 -13.5 59t-50.5 27v45q29 0 42.5 15t17.5 37.5t4 44.5v153q0 51 14.5 87.5t47 56t86.5 19.5h22v-47q-37 0 -56 -7t-26 -26t-7 -55v-170q0 -27 -4.5 -53.5t-18.5 -47t-43 -30.5q29 -10 43 -30.5t18.5 -46.5t4.5 -53v-178
q0 -33 8.5 -50.5t28.5 -23.5t52 -6v-47h-25z" />
    <glyph glyph-name="bar" unicode="|" horiz-adv-x="235" 
d="M82 748h71v-855h-71v855z" />
    <glyph glyph-name="braceright" unicode="}" horiz-adv-x="349" 
d="M83 736q79 0 112 -43.5t33 -119.5v-164q0 -31 13.5 -58.5t50.5 -27.5v-45q-28 0 -42 -15t-18 -37.5t-4 -44.5v-153q0 -50 -14.5 -87t-47 -56.5t-86.5 -19.5h-22v47q37 0 56 7t26 26.5t7 54.5v170q0 27 4.5 53.5t19 47t42.5 30.5q-28 10 -42.5 30.5t-19 46.5t-4.5 53v178
q0 34 -8.5 51t-28 23t-52.5 6v47h25z" />
    <glyph glyph-name="asciitilde" unicode="~" horiz-adv-x="663" 
d="M579 298q-14 -22 -37 -44.5t-50.5 -37t-55.5 -14.5q-30 0 -56.5 10.5t-52 24t-51.5 24t-55 10.5q-19 0 -35.5 -11t-28.5 -27t-20 -32l-53 44q12 26 33 49t47.5 37.5t56.5 14.5q33 0 63 -10.5t57 -24t50.5 -24t44.5 -10.5q29 0 53.5 21.5t37.5 46.5z" />
    <glyph glyph-name="uni00A0" unicode="&#xa0;" horiz-adv-x="230" 
 />
    <glyph glyph-name="exclamdown" unicode="&#xa1;" horiz-adv-x="329" 
d="M224 -232h-117l29 511h59zM99 443q0 27 19.5 46.5t46.5 19.5t46.5 -19.5t19.5 -46.5q0 -28 -19 -47t-47 -19q-27 0 -46.5 19.5t-19.5 46.5z" />
    <glyph glyph-name="cent" unicode="&#xa2;" horiz-adv-x="490" 
d="M281 485q34 0 69 -11t69 -35l-41 -58q-25 20 -49.5 30t-47.5 10q-36 0 -64 -20.5t-43.5 -59t-15.5 -92.5q0 -84 35.5 -127.5t93.5 -43.5q50 0 108 30l30 -52q-38 -23 -75 -34t-78 -11q-58 0 -103.5 29.5t-71 84t-25.5 128.5q0 71 28.5 123t76.5 80.5t104 28.5zM273 33
l-15 -151h-72l41 151h46zM262 468l14 144h74l-40 -144h-48z" />
    <glyph glyph-name="sterling" unicode="&#xa3;" horiz-adv-x="581" 
d="M56 69h93v435q0 62 25 105t70 65.5t105 22.5q54 0 100.5 -26t74.5 -72l-75 -42q-15 29 -40.5 50t-60.5 21t-58.5 -17t-35 -44.5t-11.5 -60.5v-437h292v-69h-479v69zM73 298l10 62h324l-10 -62h-324z" />
    <glyph glyph-name="currency" unicode="&#xa4;" horiz-adv-x="536" 
d="M266 458q65 0 115 -41l55 54l49 -49l-58 -57q15 -25 24 -53.5t9 -59.5q0 -32 -9 -60.5t-24 -53.5l58 -56l-49 -48l-54 53q-24 -20 -54 -31t-62 -11q-33 0 -62.5 11.5t-54.5 30.5l-53 -53l-49 49l56 56q-14 24 -22.5 53t-8.5 60t8.5 59.5t23.5 53.5l-57 57l49 49l54 -55
q24 20 53.5 31t62.5 11zM266 397q-34 0 -61.5 -19.5t-43.5 -52t-16 -73.5q0 -43 17 -76t45 -51.5t59 -18.5q32 0 60 18t45 51t17 77q0 40 -16 73t-43.5 52.5t-62.5 19.5z" />
    <glyph glyph-name="yen" unicode="&#xa5;" horiz-adv-x="604" 
d="M150 697l169 -283l157 283h87l-209 -368v-329h-95v329l-217 368h108zM77 389h464l-10 -62h-464zM77 253h464l-10 -62h-464z" />
    <glyph glyph-name="brokenbar" unicode="&#xa6;" horiz-adv-x="238" 
d="M84 742h68v-349h-68v349zM84 233h68v-348h-68v348z" />
    <glyph glyph-name="section" unicode="&#xa7;" horiz-adv-x="495" 
d="M53 327q0 53 26.5 85.5t67.5 46.5q-20 23 -32.5 52t-12.5 66q0 47 26 82t69 54t94 19q37 0 75 -11t74 -34l-29 -64q-30 23 -61.5 34t-60.5 11q-43 0 -72.5 -21t-29.5 -56q0 -36 19.5 -61.5t50 -46.5t64.5 -41t64.5 -45t50 -59t19.5 -83q0 -52 -26.5 -85t-67.5 -47
q20 -22 32.5 -51t12.5 -67q0 -47 -26 -82t-69 -54t-94 -19q-37 0 -75 11t-74 34l29 64q30 -23 62 -34t60 -11q43 0 72.5 21.5t29.5 55.5q0 36 -19.5 61.5t-50 46.5t-64.5 41t-64.5 45t-50 59t-19.5 83zM139 337q0 -38 24.5 -65t61.5 -49.5t74 -47.5q29 5 49.5 22.5
t20.5 47.5q0 39 -24.5 65.5t-61 49t-74.5 47.5q-29 -5 -49.5 -22.5t-20.5 -47.5z" />
    <glyph glyph-name="dieresis" unicode="&#xa8;" horiz-adv-x="276" 
d="M113 657q0 -23 -17 -40t-40 -17t-39.5 17t-16.5 40t16.5 40t39.5 17q24 0 40.5 -16.5t16.5 -40.5zM276 657q0 -23 -17 -40t-40 -17t-39.5 17t-16.5 40t16.5 40t39.5 17q24 0 40.5 -16.5t16.5 -40.5z" />
    <glyph glyph-name="copyright" unicode="&#xa9;" horiz-adv-x="634" 
d="M589 250q0 -56 -21.5 -105t-59 -86.5t-86.5 -59t-105 -21.5t-105.5 21t-87 58.5t-58.5 87t-21 105.5t21 105.5t58.5 87t87 58.5t105.5 21t105 -21.5t86.5 -59t59 -86.5t21.5 -105zM550 250q0 64 -31.5 117t-84.5 84.5t-117 31.5t-117 -31.5t-84.5 -84.5t-31.5 -117
t31.5 -117t84.5 -84.5t117 -31.5t117 31.5t84.5 84.5t31.5 117zM433 119q-29 -16 -51 -23.5t-57 -7.5q-47 0 -80 22t-50 59.5t-17 81.5q0 71 41.5 117t113.5 46q25 0 49.5 -9.5t45.5 -23.5l-30 -38q-18 15 -33.5 21t-39.5 6q-29 0 -48.5 -18t-28.5 -44.5t-9 -51.5
q0 -26 9.5 -54.5t29 -48t50.5 -19.5q25 0 42 7.5t37 20.5z" />
    <glyph glyph-name="ordfeminine" unicode="&#xaa;" horiz-adv-x="315" 
d="M305 410q-16 -10 -32.5 -16t-32.5 -6t-29.5 9t-20.5 28q-18 -17 -41 -27.5t-48 -10.5q-40 0 -65.5 24.5t-25.5 64.5q0 36 16 59t42.5 35t57.5 17t60 5v27q0 24 -8.5 40.5t-36.5 16.5q-22 0 -47.5 -12.5t-41.5 -29.5l-33 50q28 23 59 34.5t67 11.5q53 0 78.5 -29.5
t25.5 -80.5v-153q0 -14 5 -19.5t12 -5.5q5 0 11.5 2t13.5 4zM186 537q-21 0 -46.5 -3t-44.5 -15t-19 -41q0 -16 13.5 -25t28.5 -9q20 0 35.5 12.5t24 30.5t8.5 36v14zM30 329h239v-50h-239v50z" />
    <glyph glyph-name="guillemotleft" unicode="&#xab;" horiz-adv-x="466" 
d="M55 336l144 163l61 -11l-116 -152l119 -154l-60 -9zM203 336l145 163l61 -11l-116 -152l118 -154l-59 -9z" />
    <glyph glyph-name="logicalnot" unicode="&#xac;" horiz-adv-x="638" 
d="M504 279h-432v60h493v-250h-61v190z" />
    <glyph glyph-name="uni00AD" unicode="&#xad;" horiz-adv-x="313" 
d="M41 299h231v-75h-231v75z" />
    <glyph glyph-name="registered" unicode="&#xae;" horiz-adv-x="467" 
d="M432 603q0 -55 -27 -100t-72 -71.5t-100 -26.5t-100 26.5t-71.5 71.5t-26.5 100t26.5 100t71.5 71.5t100 26.5t100 -26.5t72 -71.5t27 -100zM399 603q0 46 -22.5 83t-60 59.5t-83.5 22.5q-45 0 -82.5 -22.5t-60 -59.5t-22.5 -83q0 -45 22.5 -82.5t60 -60t82.5 -22.5
q46 0 83.5 22.5t60 60t22.5 82.5zM152 717h88q32 0 55 -13t23 -51q0 -21 -13.5 -35.5t-32.5 -21.5l73 -104h-60l-65 96h-18v-96h-50v225zM202 680v-55h24q19 0 30.5 6.5t11.5 23.5q0 13 -10.5 19t-24.5 6h-31z" />
    <glyph glyph-name="macron" unicode="&#xaf;" horiz-adv-x="304" 
d="M0 689h304v-64h-304v64z" />
    <glyph glyph-name="degree" unicode="&#xb0;" horiz-adv-x="388" 
d="M194 743q42 0 76 -20t54 -54t20 -76q0 -41 -20 -75.5t-54 -54.5t-76 -20q-41 0 -75.5 20t-54.5 54.5t-20 75.5q0 42 20 76t54.5 54t75.5 20zM194 683q-37 0 -62.5 -26.5t-25.5 -63.5t25.5 -63.5t62.5 -26.5q38 0 62.5 26.5t24.5 63.5t-24.5 63.5t-62.5 26.5z" />
    <glyph glyph-name="plusminus" unicode="&#xb1;" horiz-adv-x="632" 
d="M352 97h-70v165h-214v70h214v164h70v-164h215v-70h-215v-165zM68 69h499v-70h-499v70z" />
    <glyph glyph-name="uni00B2" unicode="&#xb2;" horiz-adv-x="455" 
d="M58 472l18 15t47 40.5t61 58t61 69t47 72.5t18 68t-20.5 53.5t-58.5 21.5q-25 0 -48 -8t-40.5 -18.5t-27.5 -18.5l-10 -8l-32 47l12 9.5t34.5 22.5t54.5 22.5t73 9.5q55 0 87 -19t46 -48.5t14 -59.5q0 -45 -22.5 -88.5t-55.5 -81.5t-66.5 -67t-56 -45.5l-22.5 -16.5h237
l-19 -68h-331v38z" />
    <glyph glyph-name="uni00B3" unicode="&#xb3;" horiz-adv-x="455" 
d="M63 474q122 6 186.5 42t64.5 90q0 33 -18 48.5t-44 20t-52 4.5q-14 0 -24.5 -1l-10.5 -1l-8 47q28 6 60 17t55 31t23 51q0 23 -19 35t-51 12q-31 0 -67 -15.5t-59 -34.5l-32 46q34 27 83.5 44.5t93.5 17.5q30 0 59.5 -8t49 -27.5t19.5 -54.5q0 -29 -14.5 -50.5t-36.5 -36
t-44 -23.5q32 -3 58.5 -17.5t42.5 -38.5t16 -58q0 -27 -13.5 -59t-48.5 -60.5t-98 -48.5t-161 -23z" />
    <glyph glyph-name="acute" unicode="&#xb4;" horiz-adv-x="281" 
d="M127 733h122l-140 -152h-78z" />
    <glyph glyph-name="uni00B5" unicode="&#xb5;" horiz-adv-x="555" 
d="M551 21q-22 -8 -47 -19t-49 -11q-31 0 -48 20t-22 48q-28 -27 -70.5 -49.5t-82.5 -22.5q-33 0 -66 14v-188h-85v625q0 1 -3 14.5t-6 28t-4 16.5h95v-306q0 -29 5 -59.5t23 -50.5t55 -20q24 0 49.5 9.5t48.5 25t39 31.5v311q0 1 -3 14.5t-6 28t-4 16.5h95v-400
q0 -12 1.5 -20.5t6.5 -13t14 -4.5q1 0 11.5 3t22 6.5t13.5 4.5z" />
    <glyph glyph-name="paragraph" unicode="&#xb6;" horiz-adv-x="500" 
d="M153 -110q36 -9 56 11.5t20 51.5v379q-52 0 -95 24.5t-68.5 67t-25.5 96.5q0 68 29.5 112t80 65t113.5 21h192v-54h-56v-654q0 -33 -18 -60t-47 -40.5t-63 -8.5q-9 -24 -28.5 -40t-45 -20t-54.5 5zM284 664v-711q29 0 45 17.5t16 39.5v654h-61z" />
    <glyph glyph-name="periodcentered" unicode="&#xb7;" horiz-adv-x="293" 
d="M213 260q0 -27 -19.5 -46t-46.5 -19t-46.5 19t-19.5 46q0 28 19 47.5t47 19.5q27 0 46.5 -20t19.5 -47z" />
    <glyph glyph-name="cedilla" unicode="&#xb8;" horiz-adv-x="280" 
d="M114 9h47l-29 -55q55 0 85 -21.5t30 -59.5q0 -46 -34.5 -69.5t-80.5 -23.5q-25 0 -51 7t-49 21l24 46q15 -11 31.5 -16.5t31.5 -5.5q19 0 32 9.5t13 28.5q0 21 -13 33t-42 12q-10 0 -22 -1.5t-26 -4.5z" />
    <glyph glyph-name="uni00B9" unicode="&#xb9;" horiz-adv-x="455" 
d="M91 493h124v345l-121 -35l-18 49l169 66h50v-425h100v-59h-304v59z" />
    <glyph glyph-name="ordmasculine" unicode="&#xba;" horiz-adv-x="332" 
d="M170 737q49 0 82 -23.5t50 -62.5t17 -85t-19 -85t-54 -62.5t-84 -23.5t-82 23.5t-50 62.5t-17 85t19 84.5t54 62.5t84 24zM166 685q-31 0 -49.5 -19t-26.5 -46.5t-8 -53.5q0 -24 8.5 -52t27.5 -47.5t48 -19.5q31 0 49 19t26 47t8 53q0 26 -8 53.5t-26 46.5t-49 19z
M47 329h239v-50h-239v50z" />
    <glyph glyph-name="guillemotright" unicode="&#xbb;" horiz-adv-x="466" 
d="M263 334l-149 -163l-59 8l118 155l-116 151l61 12zM411 334l-148 -163l-60 8l119 155l-116 151l61 12z" />
    <glyph glyph-name="onequarter" unicode="&#xbc;" horiz-adv-x="1129" 
d="M718 730h66l-375 -737h-64zM91 303h124v345l-121 -35l-18 49l169 66h50v-425h100v-59h-304v59zM940 110h-229v40l229 333h80v-314h75l-17 -59h-58v-110h-80v110zM943 387l-147 -218h144z" />
    <glyph glyph-name="onehalf" unicode="&#xbd;" horiz-adv-x="1129" 
d="M718 730h66l-375 -737h-64zM91 303h124v345l-121 -35l-18 49l169 66h50v-425h100v-59h-304v59zM732 38l18 15t47 40.5t61 58t61 69t47 72.5t18 68t-20.5 53.5t-58.5 21.5q-25 0 -48 -8t-40.5 -18.5t-27.5 -18.5l-10 -8l-32 47l12 9.5t34.5 22.5t54.5 22.5t73 9.5
q55 0 87 -19t46 -48.5t14 -59.5q0 -45 -22.5 -88.5t-55.5 -81.5t-66.5 -67t-56 -45.5l-22.5 -16.5h237l-19 -68h-331v38z" />
    <glyph glyph-name="threequarters" unicode="&#xbe;" horiz-adv-x="1129" 
d="M718 730h66l-375 -737h-64zM63 284q122 6 186.5 42t64.5 90q0 33 -18 48.5t-44 20t-52 4.5q-14 0 -24.5 -1l-10.5 -1l-8 47q28 6 60 17t55 31t23 51q0 23 -19 35t-51 12q-31 0 -67 -15.5t-59 -34.5l-32 46q34 27 83.5 44.5t93.5 17.5q30 0 59.5 -8t49 -27.5t19.5 -54.5
q0 -29 -14.5 -50.5t-36.5 -36t-44 -23.5q32 -3 58.5 -17.5t42.5 -38.5t16 -58q0 -27 -13.5 -59t-48.5 -60.5t-98 -48.5t-161 -23zM940 110h-229v40l229 333h80v-314h75l-17 -59h-58v-110h-80v110zM943 387l-147 -218h144z" />
    <glyph glyph-name="questiondown" unicode="&#xbf;" horiz-adv-x="431" 
d="M249 -227q-50 0 -95.5 18.5t-74 56.5t-28.5 94q0 51 21.5 88.5t58.5 63.5t85 42v143h65v-195q-35 -6 -67.5 -23t-53.5 -45t-21 -68q0 -53 37.5 -78t87.5 -25q25 0 50.5 8.5t45.5 22.5l27 -67q-25 -16 -64.5 -26t-73.5 -10zM252 377q-27 0 -46.5 19.5t-19.5 46.5
t19.5 46.5t46.5 19.5t46.5 -19.5t19.5 -46.5q0 -28 -19 -47t-47 -19z" />
    <glyph glyph-name="Agrave" unicode="&#xc0;" horiz-adv-x="631" 
d="M362 728l252 -728h-103l-84 250h-240l-85 -250h-84l253 728h91zM308 606l-98 -288h194zM263 905l96 -131h-78l-140 131h122z" />
    <glyph glyph-name="Aacute" unicode="&#xc1;" horiz-adv-x="631" 
d="M362 728l252 -728h-103l-84 250h-240l-85 -250h-84l253 728h91zM308 606l-98 -288h194zM374 905h122l-140 -131h-78z" />
    <glyph glyph-name="Acircumflex" unicode="&#xc2;" horiz-adv-x="631" 
d="M362 728l252 -728h-103l-84 250h-240l-85 -250h-84l253 728h91zM308 606l-98 -288h194zM317 834l-79 -62h-69l106 135h83l102 -134h-67z" />
    <glyph glyph-name="Atilde" unicode="&#xc3;" horiz-adv-x="631" 
d="M362 728l252 -728h-103l-84 250h-240l-85 -250h-84l253 728h91zM308 606l-98 -288h194zM471 882q-2 -22 -12.5 -45t-28.5 -38.5t-44 -15.5q-28 0 -52.5 10t-47.5 19.5t-49 9.5q-13 0 -21 -8t-13 -19h-49q3 25 15 47.5t32 37.5t47 15t51 -9.5t46.5 -19.5t42.5 -10
q12 0 22 7.5t14 18.5h47z" />
    <glyph glyph-name="Adieresis" unicode="&#xc4;" horiz-adv-x="631" 
d="M362 728l252 -728h-103l-84 250h-240l-85 -250h-84l253 728h91zM308 606l-98 -288h194zM291 838q0 -23 -17 -40t-40 -17t-39.5 17t-16.5 40t16.5 40t39.5 17q24 0 40.5 -16.5t16.5 -40.5zM454 838q0 -23 -17 -40t-40 -17t-39.5 17t-16.5 40t16.5 40t39.5 17
q24 0 40.5 -16.5t16.5 -40.5z" />
    <glyph glyph-name="Aring" unicode="&#xc5;" horiz-adv-x="631" 
d="M362 728l252 -728h-103l-84 250h-240l-85 -250h-84l253 728h91zM308 606l-98 -288h194zM316 989q28 0 50 -13.5t35.5 -36t13.5 -50.5q0 -40 -29 -69.5t-70 -29.5q-40 0 -69.5 29.5t-29.5 69.5q0 27 13.5 50t36 36.5t49.5 13.5zM316 937q-20 0 -34 -14t-14 -34t14 -34
t34 -14t34 14.5t14 33.5q0 20 -14 34t-34 14z" />
    <glyph glyph-name="AE" unicode="&#xc6;" horiz-adv-x="794" 
d="M390 248h-179l-114 -248h-85l301 663l-14 65h448v-68h-265v-250h234v-72h-234v-267h265v-71h-357v248zM243 320h147v321z" />
    <glyph glyph-name="Ccedilla" unicode="&#xc7;" horiz-adv-x="624" 
d="M378 -12q-86 0 -148.5 30t-103.5 81.5t-60.5 116.5t-19.5 134q0 75 22 144.5t64.5 124.5t106.5 87t148 32q35 0 76.5 -8.5t79.5 -25.5t62 -45l-52 -58q-19 22 -48 36.5t-60.5 22.5t-59.5 8q-58 0 -102 -26.5t-74 -71.5t-45.5 -101t-15.5 -114q0 -90 29 -155.5t82 -101
t125 -35.5q42 0 91 12t101 38l31 -57q-22 -16 -50.5 -28.5t-60 -21.5t-62 -13.5t-56.5 -4.5zM340 9h47l-29 -55q55 0 85 -21.5t30 -59.5q0 -46 -34.5 -69.5t-80.5 -23.5q-25 0 -51 7t-49 21l24 46q15 -11 31.5 -16.5t31.5 -5.5q19 0 32 9.5t13 28.5q0 21 -13 33t-42 12
q-10 0 -22 -1.5t-26 -4.5z" />
    <glyph glyph-name="Egrave" unicode="&#xc8;" horiz-adv-x="549" 
d="M72 728h437v-69h-330v-251h256v-68h-256v-271h330v-69h-423v662zM248 905l96 -131h-78l-140 131h122z" />
    <glyph glyph-name="Eacute" unicode="&#xc9;" horiz-adv-x="549" 
d="M72 728h437v-69h-330v-251h256v-68h-256v-271h330v-69h-423v662zM359 905h122l-140 -131h-78z" />
    <glyph glyph-name="Ecircumflex" unicode="&#xca;" horiz-adv-x="549" 
d="M72 728h437v-69h-330v-251h256v-68h-256v-271h330v-69h-423v662zM302 834l-79 -62h-69l106 135h83l102 -134h-67z" />
    <glyph glyph-name="Edieresis" unicode="&#xcb;" horiz-adv-x="549" 
d="M72 728h437v-69h-330v-251h256v-68h-256v-271h330v-69h-423v662zM276 838q0 -23 -17 -40t-40 -17t-39.5 17t-16.5 40t16.5 40t39.5 17q24 0 40.5 -16.5t16.5 -40.5zM439 838q0 -23 -17 -40t-40 -17t-39.5 17t-16.5 40t16.5 40t39.5 17q24 0 40.5 -16.5t16.5 -40.5z" />
    <glyph glyph-name="Igrave" unicode="&#xcc;" horiz-adv-x="268" 
d="M73 728h107v-728h-93v662q0 1 -3.5 16t-6.5 31t-4 19zM80 905l96 -131h-78l-140 131h122z" />
    <glyph glyph-name="Iacute" unicode="&#xcd;" horiz-adv-x="268" 
d="M73 728h107v-728h-93v662q0 1 -3.5 16t-6.5 31t-4 19zM191 905h122l-140 -131h-78z" />
    <glyph glyph-name="Icircumflex" unicode="&#xce;" horiz-adv-x="268" 
d="M73 728h107v-728h-93v662q0 1 -3.5 16t-6.5 31t-4 19zM134 834l-79 -62h-69l106 135h83l102 -134h-67z" />
    <glyph glyph-name="Idieresis" unicode="&#xcf;" horiz-adv-x="268" 
d="M73 728h107v-728h-93v662q0 1 -3.5 16t-6.5 31t-4 19zM108 838q0 -23 -17 -40t-40 -17t-39.5 17t-16.5 40t16.5 40t39.5 17q24 0 40.5 -16.5t16.5 -40.5zM271 838q0 -23 -17 -40t-40 -17t-39.5 17t-16.5 40t16.5 40t39.5 17q24 0 40.5 -16.5t16.5 -40.5z" />
    <glyph glyph-name="Eth" unicode="&#xd0;" horiz-adv-x="699" 
d="M653 362q0 -105 -35.5 -186.5t-108.5 -128.5t-186 -47h-237v662q0 1 -3.5 16t-6.5 31t-4 19h187q91 0 164 -20.5t124.5 -64t78.5 -113t27 -168.5zM556 364q0 79 -19.5 135t-58 91.5t-95 52t-131.5 16.5h-73v-590h132q91 0 144.5 40t77 107t23.5 148zM35 401h321v-65h-321
v65z" />
    <glyph glyph-name="Ntilde" unicode="&#xd1;" horiz-adv-x="714" 
d="M197 728l318 -489q9 -14 19 -29.5t20 -29.5q-1 17 -2 34.5t-1 33.5v480h76v-733h-59l-371 568q-8 13 -17.5 27.5t-19.5 27.5q2 -16 2.5 -32.5t0.5 -32.5v-553h-76v662l-14 66h124zM510 882q-2 -22 -12.5 -45t-28.5 -38.5t-44 -15.5q-28 0 -52.5 10t-47.5 19.5t-49 9.5
q-13 0 -21 -8t-13 -19h-49q3 25 15 47.5t32 37.5t47 15t51 -9.5t46.5 -19.5t42.5 -10q12 0 22 7.5t14 18.5h47z" />
    <glyph glyph-name="Ograve" unicode="&#xd2;" horiz-adv-x="737" 
d="M368 -11q-81 0 -141.5 30t-100.5 82.5t-60 119.5t-20 142t19.5 142.5t59.5 120t101 82.5t143 30t142.5 -30t100.5 -82.5t59.5 -120t19.5 -142.5t-20 -142.5t-60 -119.5t-100.5 -82t-142.5 -30zM369 57q64 0 107 27t69 72t37.5 99t11.5 108t-11.5 108t-37.5 98.5
t-69.5 71.5t-106.5 27t-106.5 -27t-69 -72t-37 -99t-11.5 -108t11.5 -107.5t37 -98.5t69 -72t106.5 -27zM316 905l96 -131h-78l-140 131h122z" />
    <glyph glyph-name="Oacute" unicode="&#xd3;" horiz-adv-x="737" 
d="M368 -11q-81 0 -141.5 30t-100.5 82.5t-60 119.5t-20 142t19.5 142.5t59.5 120t101 82.5t143 30t142.5 -30t100.5 -82.5t59.5 -120t19.5 -142.5t-20 -142.5t-60 -119.5t-100.5 -82t-142.5 -30zM369 57q64 0 107 27t69 72t37.5 99t11.5 108t-11.5 108t-37.5 98.5
t-69.5 71.5t-106.5 27t-106.5 -27t-69 -72t-37 -99t-11.5 -108t11.5 -107.5t37 -98.5t69 -72t106.5 -27zM427 905h122l-140 -131h-78z" />
    <glyph glyph-name="Ocircumflex" unicode="&#xd4;" horiz-adv-x="737" 
d="M368 -11q-81 0 -141.5 30t-100.5 82.5t-60 119.5t-20 142t19.5 142.5t59.5 120t101 82.5t143 30t142.5 -30t100.5 -82.5t59.5 -120t19.5 -142.5t-20 -142.5t-60 -119.5t-100.5 -82t-142.5 -30zM369 57q64 0 107 27t69 72t37.5 99t11.5 108t-11.5 108t-37.5 98.5
t-69.5 71.5t-106.5 27t-106.5 -27t-69 -72t-37 -99t-11.5 -108t11.5 -107.5t37 -98.5t69 -72t106.5 -27zM370 834l-79 -62h-69l106 135h83l102 -134h-67z" />
    <glyph glyph-name="Otilde" unicode="&#xd5;" horiz-adv-x="737" 
d="M368 -11q-81 0 -141.5 30t-100.5 82.5t-60 119.5t-20 142t19.5 142.5t59.5 120t101 82.5t143 30t142.5 -30t100.5 -82.5t59.5 -120t19.5 -142.5t-20 -142.5t-60 -119.5t-100.5 -82t-142.5 -30zM369 57q64 0 107 27t69 72t37.5 99t11.5 108t-11.5 108t-37.5 98.5
t-69.5 71.5t-106.5 27t-106.5 -27t-69 -72t-37 -99t-11.5 -108t11.5 -107.5t37 -98.5t69 -72t106.5 -27zM524 882q-2 -22 -12.5 -45t-28.5 -38.5t-44 -15.5q-28 0 -52.5 10t-47.5 19.5t-49 9.5q-13 0 -21 -8t-13 -19h-49q3 25 15 47.5t32 37.5t47 15t51 -9.5t46.5 -19.5
t42.5 -10q12 0 22 7.5t14 18.5h47z" />
    <glyph glyph-name="Odieresis" unicode="&#xd6;" horiz-adv-x="737" 
d="M368 -11q-81 0 -141.5 30t-100.5 82.5t-60 119.5t-20 142t19.5 142.5t59.5 120t101 82.5t143 30t142.5 -30t100.5 -82.5t59.5 -120t19.5 -142.5t-20 -142.5t-60 -119.5t-100.5 -82t-142.5 -30zM369 57q64 0 107 27t69 72t37.5 99t11.5 108t-11.5 108t-37.5 98.5
t-69.5 71.5t-106.5 27t-106.5 -27t-69 -72t-37 -99t-11.5 -108t11.5 -107.5t37 -98.5t69 -72t106.5 -27zM344 838q0 -23 -17 -40t-40 -17t-39.5 17t-16.5 40t16.5 40t39.5 17q24 0 40.5 -16.5t16.5 -40.5zM507 838q0 -23 -17 -40t-40 -17t-39.5 17t-16.5 40t16.5 40t39.5 17
q24 0 40.5 -16.5t16.5 -40.5z" />
    <glyph glyph-name="multiply" unicode="&#xd7;" horiz-adv-x="534" 
d="M267 202l-152 -152l-44 44l153 152l-153 152l44 44l152 -152l152 152l44 -44l-153 -152l153 -152l-44 -44z" />
    <glyph glyph-name="Oslash" unicode="&#xd8;" horiz-adv-x="737" 
d="M368 -11q-81 0 -141.5 30t-100.5 82.5t-60 119.5t-20 142t19.5 142.5t59.5 120t101 82.5t143 30t142.5 -30t100.5 -82.5t59.5 -120t19.5 -142.5t-20 -142.5t-60 -119.5t-100.5 -82t-142.5 -30zM369 57q64 0 107 27t69 72t37.5 99t11.5 108t-11.5 108t-37.5 98.5
t-69.5 71.5t-106.5 27t-106.5 -27t-69 -72t-37 -99t-11.5 -108t11.5 -107.5t37 -98.5t69 -72t106.5 -27zM133 -55l-52 33l515 791l54 -31z" />
    <glyph glyph-name="Ugrave" unicode="&#xd9;" horiz-adv-x="707" 
d="M181 728v-484q0 -85 42 -136t132 -51q62 0 104 25.5t63 71t21 104.5v470h77v-470q0 -84 -31.5 -144.5t-91.5 -93t-146 -32.5q-125 0 -195 65t-70 191v418l-15 66h110zM306 905l96 -131h-78l-140 131h122z" />
    <glyph glyph-name="Uacute" unicode="&#xda;" horiz-adv-x="707" 
d="M181 728v-484q0 -85 42 -136t132 -51q62 0 104 25.5t63 71t21 104.5v470h77v-470q0 -84 -31.5 -144.5t-91.5 -93t-146 -32.5q-125 0 -195 65t-70 191v418l-15 66h110zM417 905h122l-140 -131h-78z" />
    <glyph glyph-name="Ucircumflex" unicode="&#xdb;" horiz-adv-x="707" 
d="M181 728v-484q0 -85 42 -136t132 -51q62 0 104 25.5t63 71t21 104.5v470h77v-470q0 -84 -31.5 -144.5t-91.5 -93t-146 -32.5q-125 0 -195 65t-70 191v418l-15 66h110zM360 834l-79 -62h-69l106 135h83l102 -134h-67z" />
    <glyph glyph-name="Udieresis" unicode="&#xdc;" horiz-adv-x="707" 
d="M181 728v-484q0 -85 42 -136t132 -51q62 0 104 25.5t63 71t21 104.5v470h77v-470q0 -84 -31.5 -144.5t-91.5 -93t-146 -32.5q-125 0 -195 65t-70 191v418l-15 66h110zM334 838q0 -23 -17 -40t-40 -17t-39.5 17t-16.5 40t16.5 40t39.5 17q24 0 40.5 -16.5t16.5 -40.5z
M497 838q0 -23 -17 -40t-40 -17t-39.5 17t-16.5 40t16.5 40t39.5 17q24 0 40.5 -16.5t16.5 -40.5z" />
    <glyph glyph-name="Yacute" unicode="&#xdd;" horiz-adv-x="584" 
d="M140 728l169 -283l157 283h87l-209 -368v-360h-95v360l-217 368h108zM357 905h122l-140 -131h-78z" />
    <glyph glyph-name="Thorn" unicode="&#xde;" horiz-adv-x="575" 
d="M183 728v-117h99q71 0 128 -20.5t90 -66.5t33 -124q0 -75 -34.5 -123t-91.5 -71t-124 -23h-101v-182h-93v661l-15 66h109zM289 251q68 0 107 41.5t39 107.5t-37 104t-108 38h-108v-291h107z" />
    <glyph glyph-name="germandbls" unicode="&#xdf;" horiz-adv-x="552" 
d="M28 434v55q32 0 48 7.5t24.5 25t14.5 46.5q12 52 36 90.5t63 60.5t94 22q49 0 86 -15t58.5 -42t21.5 -64q0 -42 -15.5 -72.5t-37.5 -54t-44.5 -42.5t-38 -37.5t-15.5 -40.5q0 -27 15.5 -44t39.5 -30t51 -25.5t51 -29.5t39.5 -44t15.5 -68q0 -57 -30 -91.5t-76.5 -47
t-97.5 -3.5t-94 39l35 61q23 -23 53 -32.5t58.5 -6t47 21.5t18.5 49q0 26 -15 43.5t-39.5 31t-51 26.5t-51 30t-39.5 42t-15 62q0 32 15 56t36.5 45.5t43.5 42.5t37 45.5t15 55.5q0 17 -8 33t-25.5 26t-45.5 10q-40 0 -64 -19.5t-36.5 -49.5t-16.5 -64t-4 -64v-474h-83v434
h-74z" />
    <glyph glyph-name="agrave" unicode="&#xe0;" horiz-adv-x="494" 
d="M253 509q79 0 119 -43t40 -121v-249q0 -21 8 -28.5t19 -7.5q9 0 19 2.5t19 6.5l18 -54q-16 -9 -40.5 -16.5t-50.5 -7.5t-47 14.5t-26 53.5q-29 -31 -68 -50.5t-82 -19.5q-59 0 -98 35t-39 96q0 57 27.5 91t71.5 51t93.5 23t92.5 6v53q0 28 -7 50.5t-25 36t-51 13.5
q-38 0 -73 -15t-70 -44l-41 59q41 33 90 49t101 16zM329 226q-27 0 -61 -2.5t-66 -12t-52.5 -30.5t-20.5 -58q0 -33 22.5 -48.5t56.5 -15.5q36 0 63 20t42.5 51t15.5 64v32zM188 733l96 -152h-78l-140 152h122z" />
    <glyph glyph-name="aacute" unicode="&#xe1;" horiz-adv-x="494" 
d="M253 509q79 0 119 -43t40 -121v-249q0 -21 8 -28.5t19 -7.5q9 0 19 2.5t19 6.5l18 -54q-16 -9 -40.5 -16.5t-50.5 -7.5t-47 14.5t-26 53.5q-29 -31 -68 -50.5t-82 -19.5q-59 0 -98 35t-39 96q0 57 27.5 91t71.5 51t93.5 23t92.5 6v53q0 28 -7 50.5t-25 36t-51 13.5
q-38 0 -73 -15t-70 -44l-41 59q41 33 90 49t101 16zM329 226q-27 0 -61 -2.5t-66 -12t-52.5 -30.5t-20.5 -58q0 -33 22.5 -48.5t56.5 -15.5q36 0 63 20t42.5 51t15.5 64v32zM296 733h122l-140 -152h-78z" />
    <glyph glyph-name="acircumflex" unicode="&#xe2;" horiz-adv-x="494" 
d="M253 509q79 0 119 -43t40 -121v-249q0 -21 8 -28.5t19 -7.5q9 0 19 2.5t19 6.5l18 -54q-16 -9 -40.5 -16.5t-50.5 -7.5t-47 14.5t-26 53.5q-29 -31 -68 -50.5t-82 -19.5q-59 0 -98 35t-39 96q0 57 27.5 91t71.5 51t93.5 23t92.5 6v53q0 28 -7 50.5t-25 36t-51 13.5
q-38 0 -73 -15t-70 -44l-41 59q41 33 90 49t101 16zM329 226q-27 0 -61 -2.5t-66 -12t-52.5 -30.5t-20.5 -58q0 -33 22.5 -48.5t56.5 -15.5q36 0 63 20t42.5 51t15.5 64v32zM243 661l-76 -81h-67l102 154h83l106 -155h-69z" />
    <glyph glyph-name="atilde" unicode="&#xe3;" horiz-adv-x="494" 
d="M253 509q79 0 119 -43t40 -121v-249q0 -21 8 -28.5t19 -7.5q9 0 19 2.5t19 6.5l18 -54q-16 -9 -40.5 -16.5t-50.5 -7.5t-47 14.5t-26 53.5q-29 -31 -68 -50.5t-82 -19.5q-59 0 -98 35t-39 96q0 57 27.5 91t71.5 51t93.5 23t92.5 6v53q0 28 -7 50.5t-25 36t-51 13.5
q-38 0 -73 -15t-70 -44l-41 59q41 33 90 49t101 16zM329 226q-27 0 -61 -2.5t-66 -12t-52.5 -30.5t-20.5 -58q0 -33 22.5 -48.5t56.5 -15.5q36 0 63 20t42.5 51t15.5 64v32zM397 701q-2 -22 -12.5 -45t-28.5 -38.5t-44 -15.5q-28 0 -52.5 10t-47.5 19.5t-49 9.5
q-13 0 -21 -8t-13 -19h-49q3 25 15 47.5t32 37.5t47 15t51 -9.5t46.5 -19.5t42.5 -10q12 0 22 7.5t14 18.5h47z" />
    <glyph glyph-name="adieresis" unicode="&#xe4;" horiz-adv-x="494" 
d="M253 509q79 0 119 -43t40 -121v-249q0 -21 8 -28.5t19 -7.5q9 0 19 2.5t19 6.5l18 -54q-16 -9 -40.5 -16.5t-50.5 -7.5t-47 14.5t-26 53.5q-29 -31 -68 -50.5t-82 -19.5q-59 0 -98 35t-39 96q0 57 27.5 91t71.5 51t93.5 23t92.5 6v53q0 28 -7 50.5t-25 36t-51 13.5
q-38 0 -73 -15t-70 -44l-41 59q41 33 90 49t101 16zM329 226q-27 0 -61 -2.5t-66 -12t-52.5 -30.5t-20.5 -58q0 -33 22.5 -48.5t56.5 -15.5q36 0 63 20t42.5 51t15.5 64v32zM218 655q0 -23 -17 -40t-40 -17t-39.5 17t-16.5 40t16.5 40t39.5 17q24 0 40.5 -16.5t16.5 -40.5z
M381 655q0 -23 -17 -40t-40 -17t-39.5 17t-16.5 40t16.5 40t39.5 17q24 0 40.5 -16.5t16.5 -40.5z" />
    <glyph glyph-name="aring" unicode="&#xe5;" horiz-adv-x="494" 
d="M253 509q79 0 119 -43t40 -121v-249q0 -21 8 -28.5t19 -7.5q9 0 19 2.5t19 6.5l18 -54q-16 -9 -40.5 -16.5t-50.5 -7.5t-47 14.5t-26 53.5q-29 -31 -68 -50.5t-82 -19.5q-59 0 -98 35t-39 96q0 57 27.5 91t71.5 51t93.5 23t92.5 6v53q0 28 -7 50.5t-25 36t-51 13.5
q-38 0 -73 -15t-70 -44l-41 59q41 33 90 49t101 16zM329 226q-27 0 -61 -2.5t-66 -12t-52.5 -30.5t-20.5 -58q0 -33 22.5 -48.5t56.5 -15.5q36 0 63 20t42.5 51t15.5 64v32zM242 758q28 0 50 -13.5t35.5 -36t13.5 -50.5q0 -40 -29 -69.5t-70 -29.5q-40 0 -69.5 29.5
t-29.5 69.5q0 27 13.5 50t36 36.5t49.5 13.5zM242 706q-20 0 -34 -14t-14 -34t14 -34t34 -14t34 14.5t14 33.5q0 20 -14 34t-34 14z" />
    <glyph glyph-name="ae" unicode="&#xe6;" horiz-adv-x="779" 
d="M44 120q0 57 27.5 91t71.5 51t93.5 23t92.5 6v53q0 28 -7 50.5t-25 36t-51 13.5q-24 0 -51 -7t-51 -20t-41 -32l-41 59q41 33 90 49t101 16q50 0 88 -18t57 -50q28 31 67 49.5t90 18.5q60 0 100.5 -24.5t61.5 -68t21 -101.5q0 -14 -1.5 -28.5t-3.5 -30.5h-316
q0 -60 19 -104.5t52 -69.5t74 -25q32 0 68 12.5t61 33.5l37 -60q-23 -19 -51 -31.5t-57.5 -18.5t-59.5 -6q-70 0 -118.5 30.5t-76.5 79.5q-35 -59 -83 -83.5t-101 -24.5q-59 0 -98 35t-39 96zM129 123q0 -33 22.5 -48.5t56.5 -15.5q36 0 63 20t42.5 51t15.5 64v32
q-27 0 -61 -2.5t-66 -12t-52.5 -30.5t-20.5 -58zM423 318h228q2 62 -26 95t-78 33q-34 0 -60 -19t-42 -48.5t-22 -60.5z" />
    <glyph glyph-name="ccedilla" unicode="&#xe7;" horiz-adv-x="450" 
d="M274 509q38 0 76.5 -12.5t75.5 -38.5l-45 -58q-28 23 -55 33.5t-52 10.5q-30 0 -55.5 -14t-45 -39.5t-30 -61.5t-10.5 -80q0 -94 42.5 -144t107.5 -50q29 0 56.5 9t57.5 26l27 -53q-40 -25 -77 -37.5t-83 -12.5q-64 0 -113.5 32.5t-78 92.5t-28.5 141q0 78 31.5 135.5
t84 89t114.5 31.5zM237 9h47l-29 -55q55 0 85 -21.5t30 -59.5q0 -46 -34.5 -69.5t-80.5 -23.5q-25 0 -51 7t-49 21l24 46q15 -11 31.5 -16.5t31.5 -5.5q19 0 32 9.5t13 28.5q0 21 -13 33t-42 12q-10 0 -22 -1.5t-26 -4.5z" />
    <glyph glyph-name="egrave" unicode="&#xe8;" horiz-adv-x="494" 
d="M270 509q60 0 101 -24.5t61.5 -68t20.5 -101.5q0 -14 -1.5 -28.5t-3.5 -30.5h-316q0 -95 42 -147t112 -52q29 0 60.5 9t65.5 27l31 -50q-35 -28 -79 -42t-89 -14q-59 0 -102.5 21.5t-72 58t-42.5 82.5t-14 94q0 50 14 97t42.5 85.5t70.5 61t99 22.5zM262 446
q-34 0 -60 -19t-42 -48.5t-22 -60.5h228q1 42 -11.5 70.5t-36 43t-56.5 14.5zM212 733l96 -152h-78l-140 152h122z" />
    <glyph glyph-name="eacute" unicode="&#xe9;" horiz-adv-x="494" 
d="M270 509q60 0 101 -24.5t61.5 -68t20.5 -101.5q0 -14 -1.5 -28.5t-3.5 -30.5h-316q0 -95 42 -147t112 -52q29 0 60.5 9t65.5 27l31 -50q-35 -28 -79 -42t-89 -14q-59 0 -102.5 21.5t-72 58t-42.5 82.5t-14 94q0 50 14 97t42.5 85.5t70.5 61t99 22.5zM262 446
q-34 0 -60 -19t-42 -48.5t-22 -60.5h228q1 42 -11.5 70.5t-36 43t-56.5 14.5zM320 733h122l-140 -152h-78z" />
    <glyph glyph-name="ecircumflex" unicode="&#xea;" horiz-adv-x="494" 
d="M270 509q60 0 101 -24.5t61.5 -68t20.5 -101.5q0 -14 -1.5 -28.5t-3.5 -30.5h-316q0 -95 42 -147t112 -52q29 0 60.5 9t65.5 27l31 -50q-35 -28 -79 -42t-89 -14q-59 0 -102.5 21.5t-72 58t-42.5 82.5t-14 94q0 50 14 97t42.5 85.5t70.5 61t99 22.5zM262 446
q-34 0 -60 -19t-42 -48.5t-22 -60.5h228q1 42 -11.5 70.5t-36 43t-56.5 14.5zM267 661l-76 -81h-67l102 154h83l106 -155h-69z" />
    <glyph glyph-name="edieresis" unicode="&#xeb;" horiz-adv-x="494" 
d="M270 509q60 0 101 -24.5t61.5 -68t20.5 -101.5q0 -14 -1.5 -28.5t-3.5 -30.5h-316q0 -95 42 -147t112 -52q29 0 60.5 9t65.5 27l31 -50q-35 -28 -79 -42t-89 -14q-59 0 -102.5 21.5t-72 58t-42.5 82.5t-14 94q0 50 14 97t42.5 85.5t70.5 61t99 22.5zM262 446
q-34 0 -60 -19t-42 -48.5t-22 -60.5h228q1 42 -11.5 70.5t-36 43t-56.5 14.5zM242 655q0 -23 -17 -40t-40 -17t-39.5 17t-16.5 40t16.5 40t39.5 17q24 0 40.5 -16.5t16.5 -40.5zM405 655q0 -23 -17 -40t-40 -17t-39.5 17t-16.5 40t16.5 40t39.5 17q24 0 40.5 -16.5
t16.5 -40.5z" />
    <glyph glyph-name="igrave" unicode="&#xec;" horiz-adv-x="252" 
d="M84 438q0 1 -3 14.5t-5.5 27.5t-3.5 17h95v-497h-83v438zM71 733l96 -152h-78l-140 152h122z" />
    <glyph glyph-name="iacute" unicode="&#xed;" horiz-adv-x="252" 
d="M84 438q0 1 -3 14.5t-5.5 27.5t-3.5 17h95v-497h-83v438zM179 733h122l-140 -152h-78z" />
    <glyph glyph-name="icircumflex" unicode="&#xee;" horiz-adv-x="252" 
d="M84 438q0 1 -3 14.5t-5.5 27.5t-3.5 17h95v-497h-83v438zM126 661l-76 -81h-67l102 154h83l106 -155h-69z" />
    <glyph glyph-name="idieresis" unicode="&#xef;" horiz-adv-x="252" 
d="M84 438q0 1 -3 14.5t-5.5 27.5t-3.5 17h95v-497h-83v438zM101 655q0 -23 -17 -40t-40 -17t-39.5 17t-16.5 40t16.5 40t39.5 17q24 0 40.5 -16.5t16.5 -40.5zM264 655q0 -23 -17 -40t-40 -17t-39.5 17t-16.5 40t16.5 40t39.5 17q24 0 40.5 -16.5t16.5 -40.5z" />
    <glyph glyph-name="eth" unicode="&#xf0;" horiz-adv-x="536" 
d="M268 505q19 0 35.5 -3.5t31.5 -9.5q-21 41 -45.5 78.5t-50.5 69.5l-105 -58l-31 40l104 58q-15 17 -29.5 32t-27.5 27l55 33q12 -11 28 -26t32 -34l107 59l28 -42l-101 -56q34 -41 68 -90t62 -104t45 -113.5t17 -118.5q0 -68 -26 -127t-75.5 -94.5t-121.5 -35.5
q-71 0 -121 35.5t-76 94.5t-26 127q0 69 26 127.5t76 94.5t121 36zM268 445q-39 0 -65 -19.5t-41.5 -50t-22 -64.5t-6.5 -64t6.5 -64t22 -64.5t41.5 -49.5t65 -19t65.5 19t41.5 49t21.5 64.5t6.5 64.5t-6.5 64.5t-21.5 65t-41.5 49.5t-65.5 19z" />
    <glyph glyph-name="ntilde" unicode="&#xf1;" horiz-adv-x="547" 
d="M138 505q7 -17 12 -35t7 -36q30 30 71 52.5t84 22.5q55 0 88.5 -23t48.5 -62.5t15 -91.5v-332h-82v305q0 31 -4.5 61t-22 49.5t-57.5 19.5q-24 0 -49 -9.5t-47 -24.5t-40 -32v-369h-82v352q0 20 -3 46.5t-10 52t-20 42.5zM436 701q-2 -22 -12.5 -45t-28.5 -38.5
t-44 -15.5q-28 0 -52.5 10t-47.5 19.5t-49 9.5q-13 0 -21 -8t-13 -19h-49q3 25 15 47.5t32 37.5t47 15t51 -9.5t46.5 -19.5t42.5 -10q12 0 22 7.5t14 18.5h47z" />
    <glyph glyph-name="ograve" unicode="&#xf2;" horiz-adv-x="537" 
d="M265 -13q-73 0 -122.5 36.5t-74 95.5t-24.5 126q0 50 15 97.5t44 85t71.5 59.5t96.5 22q74 0 123.5 -36t74 -95t24.5 -127q0 -51 -15 -98.5t-43.5 -84.5t-71 -59t-98.5 -22zM266 50q39 0 65.5 18.5t43 48.5t23.5 64.5t7 66.5q0 33 -6.5 67.5t-21.5 64t-41.5 48
t-65.5 18.5t-65.5 -18.5t-42.5 -48.5t-23 -64.5t-7 -66.5q0 -31 7 -65.5t22.5 -64.5t41.5 -49t63 -19zM211 733l96 -152h-78l-140 152h122z" />
    <glyph glyph-name="oacute" unicode="&#xf3;" horiz-adv-x="537" 
d="M265 -13q-73 0 -122.5 36.5t-74 95.5t-24.5 126q0 50 15 97.5t44 85t71.5 59.5t96.5 22q74 0 123.5 -36t74 -95t24.5 -127q0 -51 -15 -98.5t-43.5 -84.5t-71 -59t-98.5 -22zM266 50q39 0 65.5 18.5t43 48.5t23.5 64.5t7 66.5q0 33 -6.5 67.5t-21.5 64t-41.5 48
t-65.5 18.5t-65.5 -18.5t-42.5 -48.5t-23 -64.5t-7 -66.5q0 -31 7 -65.5t22.5 -64.5t41.5 -49t63 -19zM319 733h122l-140 -152h-78z" />
    <glyph glyph-name="ocircumflex" unicode="&#xf4;" horiz-adv-x="537" 
d="M265 -13q-73 0 -122.5 36.5t-74 95.5t-24.5 126q0 50 15 97.5t44 85t71.5 59.5t96.5 22q74 0 123.5 -36t74 -95t24.5 -127q0 -51 -15 -98.5t-43.5 -84.5t-71 -59t-98.5 -22zM266 50q39 0 65.5 18.5t43 48.5t23.5 64.5t7 66.5q0 33 -6.5 67.5t-21.5 64t-41.5 48
t-65.5 18.5t-65.5 -18.5t-42.5 -48.5t-23 -64.5t-7 -66.5q0 -31 7 -65.5t22.5 -64.5t41.5 -49t63 -19zM266 661l-76 -81h-67l102 154h83l106 -155h-69z" />
    <glyph glyph-name="otilde" unicode="&#xf5;" horiz-adv-x="537" 
d="M265 -13q-73 0 -122.5 36.5t-74 95.5t-24.5 126q0 50 15 97.5t44 85t71.5 59.5t96.5 22q74 0 123.5 -36t74 -95t24.5 -127q0 -51 -15 -98.5t-43.5 -84.5t-71 -59t-98.5 -22zM266 50q39 0 65.5 18.5t43 48.5t23.5 64.5t7 66.5q0 33 -6.5 67.5t-21.5 64t-41.5 48
t-65.5 18.5t-65.5 -18.5t-42.5 -48.5t-23 -64.5t-7 -66.5q0 -31 7 -65.5t22.5 -64.5t41.5 -49t63 -19zM420 701q-2 -22 -12.5 -45t-28.5 -38.5t-44 -15.5q-28 0 -52.5 10t-47.5 19.5t-49 9.5q-13 0 -21 -8t-13 -19h-49q3 25 15 47.5t32 37.5t47 15t51 -9.5t46.5 -19.5
t42.5 -10q12 0 22 7.5t14 18.5h47z" />
    <glyph glyph-name="odieresis" unicode="&#xf6;" horiz-adv-x="537" 
d="M265 -13q-73 0 -122.5 36.5t-74 95.5t-24.5 126q0 50 15 97.5t44 85t71.5 59.5t96.5 22q74 0 123.5 -36t74 -95t24.5 -127q0 -51 -15 -98.5t-43.5 -84.5t-71 -59t-98.5 -22zM266 50q39 0 65.5 18.5t43 48.5t23.5 64.5t7 66.5q0 33 -6.5 67.5t-21.5 64t-41.5 48
t-65.5 18.5t-65.5 -18.5t-42.5 -48.5t-23 -64.5t-7 -66.5q0 -31 7 -65.5t22.5 -64.5t41.5 -49t63 -19zM241 655q0 -23 -17 -40t-40 -17t-39.5 17t-16.5 40t16.5 40t39.5 17q24 0 40.5 -16.5t16.5 -40.5zM404 655q0 -23 -17 -40t-40 -17t-39.5 17t-16.5 40t16.5 40t39.5 17
q24 0 40.5 -16.5t16.5 -40.5z" />
    <glyph glyph-name="divide" unicode="&#xf7;" horiz-adv-x="630" 
d="M376 413q0 -25 -17.5 -42.5t-42.5 -17.5t-43 17.5t-18 42.5t18 43t43 18t42.5 -18t17.5 -43zM68 281h499v-70h-499v70zM376 80q0 -25 -17.5 -42.5t-42.5 -17.5t-43 17.5t-18 42.5t18 42.5t43 17.5t42.5 -17.5t17.5 -42.5z" />
    <glyph glyph-name="oslash" unicode="&#xf8;" horiz-adv-x="537" 
d="M265 -13q-73 0 -122.5 36.5t-74 95.5t-24.5 126q0 50 15 97.5t44 85t71.5 59.5t96.5 22q74 0 123.5 -36t74 -95t24.5 -127q0 -51 -15 -98.5t-43.5 -84.5t-71 -59t-98.5 -22zM266 50q39 0 65.5 18.5t43 48.5t23.5 64.5t7 66.5q0 33 -6.5 67.5t-21.5 64t-41.5 48
t-65.5 18.5t-65.5 -18.5t-42.5 -48.5t-23 -64.5t-7 -66.5q0 -31 7 -65.5t22.5 -64.5t41.5 -49t63 -19zM106 -61l-47 31l366 591l50 -27z" />
    <glyph glyph-name="ugrave" unicode="&#xf9;" horiz-adv-x="553" 
d="M163 497v-306q0 -29 5 -59.5t22.5 -50.5t55.5 -20q37 0 67.5 16t49.5 44.5t19 66.5v250q0 1 -3 14.5t-6 28t-4 16.5h96v-400q0 -19 6.5 -28t20.5 -9t38 9l18 -54q-20 -11 -44.5 -17.5t-46.5 -6.5q-26 0 -46 15t-26 53q-29 -30 -69.5 -51t-83.5 -21q-55 0 -88.5 23
t-48.5 62.5t-15 91.5v274l-13 59h96zM220 733l96 -152h-78l-140 152h122z" />
    <glyph glyph-name="uacute" unicode="&#xfa;" horiz-adv-x="553" 
d="M163 497v-306q0 -29 5 -59.5t22.5 -50.5t55.5 -20q37 0 67.5 16t49.5 44.5t19 66.5v250q0 1 -3 14.5t-6 28t-4 16.5h96v-400q0 -19 6.5 -28t20.5 -9t38 9l18 -54q-20 -11 -44.5 -17.5t-46.5 -6.5q-26 0 -46 15t-26 53q-29 -30 -69.5 -51t-83.5 -21q-55 0 -88.5 23
t-48.5 62.5t-15 91.5v274l-13 59h96zM328 733h122l-140 -152h-78z" />
    <glyph glyph-name="ucircumflex" unicode="&#xfb;" horiz-adv-x="553" 
d="M163 497v-306q0 -29 5 -59.5t22.5 -50.5t55.5 -20q37 0 67.5 16t49.5 44.5t19 66.5v250q0 1 -3 14.5t-6 28t-4 16.5h96v-400q0 -19 6.5 -28t20.5 -9t38 9l18 -54q-20 -11 -44.5 -17.5t-46.5 -6.5q-26 0 -46 15t-26 53q-29 -30 -69.5 -51t-83.5 -21q-55 0 -88.5 23
t-48.5 62.5t-15 91.5v274l-13 59h96zM275 661l-76 -81h-67l102 154h83l106 -155h-69z" />
    <glyph glyph-name="udieresis" unicode="&#xfc;" horiz-adv-x="553" 
d="M163 497v-306q0 -29 5 -59.5t22.5 -50.5t55.5 -20q37 0 67.5 16t49.5 44.5t19 66.5v250q0 1 -3 14.5t-6 28t-4 16.5h96v-400q0 -19 6.5 -28t20.5 -9t38 9l18 -54q-20 -11 -44.5 -17.5t-46.5 -6.5q-26 0 -46 15t-26 53q-29 -30 -69.5 -51t-83.5 -21q-55 0 -88.5 23
t-48.5 62.5t-15 91.5v274l-13 59h96zM250 655q0 -23 -17 -40t-40 -17t-39.5 17t-16.5 40t16.5 40t39.5 17q24 0 40.5 -16.5t16.5 -40.5zM413 655q0 -23 -17 -40t-40 -17t-39.5 17t-16.5 40t16.5 40t39.5 17q24 0 40.5 -16.5t16.5 -40.5z" />
    <glyph glyph-name="yacute" unicode="&#xfd;" horiz-adv-x="456" 
d="M102 497q22 -62 43.5 -124t43.5 -127q11 -34 22.5 -68.5t22.5 -68.5q11 35 22.5 69t22.5 68q22 65 43.5 127t43.5 124h78l-176 -499q-11 -31 -28 -68.5t-40 -70.5t-54 -54.5t-70 -21.5h-38v67h5.5h5.5q42 0 69.5 25t45.5 60.5t30 68.5l-182 493h90zM286 733h122
l-140 -152h-78z" />
    <glyph glyph-name="thorn" unicode="&#xfe;" horiz-adv-x="556" 
d="M303 508q53 0 92 -22t64.5 -59.5t38 -83t12.5 -92.5q0 -51 -14 -98.5t-41.5 -85t-69.5 -59t-98 -21.5q-34 0 -67.5 11t-58.5 34q2 -14 2 -28v-22v-139l14 -59h-96l-1 920l-13 58h96v-319q26 30 63 47.5t77 17.5zM278 435q-34 0 -64 -20.5t-51 -45.5v-168
q0 -39 12.5 -72.5t39.5 -53.5t70 -20q39 0 65.5 17t42.5 45t22.5 61.5t6.5 66.5q0 35 -7.5 68.5t-24.5 61t-44.5 44t-67.5 16.5z" />
    <glyph glyph-name="ydieresis" unicode="&#xff;" horiz-adv-x="456" 
d="M102 497q22 -62 43.5 -124t43.5 -127q11 -34 22.5 -68.5t22.5 -68.5q11 35 22.5 69t22.5 68q22 65 43.5 127t43.5 124h78l-176 -499q-11 -31 -28 -68.5t-40 -70.5t-54 -54.5t-70 -21.5h-38v67h5.5h5.5q42 0 69.5 25t45.5 60.5t30 68.5l-182 493h90zM208 655
q0 -23 -17 -40t-40 -17t-39.5 17t-16.5 40t16.5 40t39.5 17q24 0 40.5 -16.5t16.5 -40.5zM371 655q0 -23 -17 -40t-40 -17t-39.5 17t-16.5 40t16.5 40t39.5 17q24 0 40.5 -16.5t16.5 -40.5z" />
    <glyph glyph-name="Amacron" unicode="&#x100;" horiz-adv-x="631" 
d="M362 728l252 -728h-103l-84 250h-240l-85 -250h-84l253 728h91zM308 606l-98 -288h194zM163 871h304v-64h-304v64z" />
    <glyph glyph-name="amacron" unicode="&#x101;" horiz-adv-x="494" 
d="M253 509q79 0 119 -43t40 -121v-249q0 -21 8 -28.5t19 -7.5q9 0 19 2.5t19 6.5l18 -54q-16 -9 -40.5 -16.5t-50.5 -7.5t-47 14.5t-26 53.5q-29 -31 -68 -50.5t-82 -19.5q-59 0 -98 35t-39 96q0 57 27.5 91t71.5 51t93.5 23t92.5 6v53q0 28 -7 50.5t-25 36t-51 13.5
q-38 0 -73 -15t-70 -44l-41 59q41 33 90 49t101 16zM329 226q-27 0 -61 -2.5t-66 -12t-52.5 -30.5t-20.5 -58q0 -33 22.5 -48.5t56.5 -15.5q36 0 63 20t42.5 51t15.5 64v32zM86 689h304v-64h-304v64z" />
    <glyph glyph-name="Abreve" unicode="&#x102;" horiz-adv-x="631" 
d="M362 728l252 -728h-103l-84 250h-240l-85 -250h-84l253 728h91zM308 606l-98 -288h194zM460 899q-4 -34 -20.5 -61t-46 -42.5t-74.5 -15.5q-43 0 -72.5 15.5t-45.5 42.5t-20 61h50q6 -24 30 -37t60 -13t59 13t31 37h49z" />
    <glyph glyph-name="abreve" unicode="&#x103;" horiz-adv-x="494" 
d="M253 509q79 0 119 -43t40 -121v-249q0 -21 8 -28.5t19 -7.5q9 0 19 2.5t19 6.5l18 -54q-16 -9 -40.5 -16.5t-50.5 -7.5t-47 14.5t-26 53.5q-29 -31 -68 -50.5t-82 -19.5q-59 0 -98 35t-39 96q0 57 27.5 91t71.5 51t93.5 23t92.5 6v53q0 28 -7 50.5t-25 36t-51 13.5
q-38 0 -73 -15t-70 -44l-41 59q41 33 90 49t101 16zM329 226q-27 0 -61 -2.5t-66 -12t-52.5 -30.5t-20.5 -58q0 -33 22.5 -48.5t56.5 -15.5q36 0 63 20t42.5 51t15.5 64v32zM386 728q-4 -42 -20 -73.5t-45 -48.5t-74 -17q-65 0 -99 39t-41 100h50q8 -36 31 -53t59 -17
t59 17.5t31 52.5h49z" />
    <glyph glyph-name="Aogonek" unicode="&#x104;" horiz-adv-x="631" 
d="M362 728l252 -728h-103l-84 250h-240l-85 -250h-84l253 728h91zM308 606l-98 -288h194zM623 -152q-28 -22 -62 -36t-71 -14q-40 0 -68 20.5t-28 63.5q0 29 19.5 53t49.5 43t61.5 31t55.5 16l20 -11q-15 -9 -36 -20.5t-41 -25.5t-33 -31.5t-13 -38.5q0 -22 13.5 -33.5
t35.5 -11.5q19 0 41.5 11t38.5 21z" />
    <glyph glyph-name="aogonek" unicode="&#x105;" horiz-adv-x="494" 
d="M253 509q79 0 119 -43t40 -121v-249q0 -21 8 -28.5t19 -7.5q9 0 19 2.5t19 6.5l18 -54q-16 -9 -40.5 -16.5t-50.5 -7.5t-47 14.5t-26 53.5q-29 -31 -68 -50.5t-82 -19.5q-59 0 -98 35t-39 96q0 57 27.5 91t71.5 51t93.5 23t92.5 6v53q0 28 -7 50.5t-25 36t-51 13.5
q-38 0 -73 -15t-70 -44l-41 59q41 33 90 49t101 16zM329 226q-27 0 -61 -2.5t-66 -12t-52.5 -30.5t-20.5 -58q0 -33 22.5 -48.5t56.5 -15.5q36 0 63 20t42.5 51t15.5 64v32zM503 -152q-28 -22 -62 -36t-71 -14q-40 0 -68 20.5t-28 63.5q0 29 19.5 53t49.5 43t61.5 31
t55.5 16l20 -11q-15 -9 -36 -20.5t-41 -25.5t-33 -31.5t-13 -38.5q0 -22 13.5 -33.5t35.5 -11.5q19 0 41.5 11t38.5 21z" />
    <glyph glyph-name="Cacute" unicode="&#x106;" horiz-adv-x="624" 
d="M378 -12q-86 0 -148.5 30t-103.5 81.5t-60.5 116.5t-19.5 134q0 75 22 144.5t64.5 124.5t106.5 87t148 32q35 0 76.5 -8.5t79.5 -25.5t62 -45l-52 -58q-19 22 -48 36.5t-60.5 22.5t-59.5 8q-58 0 -102 -26.5t-74 -71.5t-45.5 -101t-15.5 -114q0 -90 29 -155.5t82 -101
t125 -35.5q42 0 91 12t101 38l31 -57q-22 -16 -50.5 -28.5t-60 -21.5t-62 -13.5t-56.5 -4.5zM415 905h122l-140 -131h-78z" />
    <glyph glyph-name="cacute" unicode="&#x107;" horiz-adv-x="450" 
d="M274 509q38 0 76.5 -12.5t75.5 -38.5l-45 -58q-28 23 -55 33.5t-52 10.5q-30 0 -55.5 -14t-45 -39.5t-30 -61.5t-10.5 -80q0 -94 42.5 -144t107.5 -50q29 0 56.5 9t57.5 26l27 -53q-40 -25 -77 -37.5t-83 -12.5q-64 0 -113.5 32.5t-78 92.5t-28.5 141q0 78 31.5 135.5
t84 89t114.5 31.5zM314 733h122l-140 -152h-78z" />
    <glyph glyph-name="Ccircumflex" unicode="&#x108;" horiz-adv-x="624" 
d="M378 -12q-86 0 -148.5 30t-103.5 81.5t-60.5 116.5t-19.5 134q0 75 22 144.5t64.5 124.5t106.5 87t148 32q35 0 76.5 -8.5t79.5 -25.5t62 -45l-52 -58q-19 22 -48 36.5t-60.5 22.5t-59.5 8q-58 0 -102 -26.5t-74 -71.5t-45.5 -101t-15.5 -114q0 -90 29 -155.5t82 -101
t125 -35.5q42 0 91 12t101 38l31 -57q-22 -16 -50.5 -28.5t-60 -21.5t-62 -13.5t-56.5 -4.5zM358 834l-79 -62h-69l106 135h83l102 -134h-67z" />
    <glyph glyph-name="ccircumflex" unicode="&#x109;" horiz-adv-x="450" 
d="M274 509q38 0 76.5 -12.5t75.5 -38.5l-45 -58q-28 23 -55 33.5t-52 10.5q-30 0 -55.5 -14t-45 -39.5t-30 -61.5t-10.5 -80q0 -94 42.5 -144t107.5 -50q29 0 56.5 9t57.5 26l27 -53q-40 -25 -77 -37.5t-83 -12.5q-64 0 -113.5 32.5t-78 92.5t-28.5 141q0 78 31.5 135.5
t84 89t114.5 31.5zM261 661l-76 -81h-67l102 154h83l106 -155h-69z" />
    <glyph glyph-name="Cdotaccent" unicode="&#x10a;" horiz-adv-x="624" 
d="M378 -12q-86 0 -148.5 30t-103.5 81.5t-60.5 116.5t-19.5 134q0 75 22 144.5t64.5 124.5t106.5 87t148 32q35 0 76.5 -8.5t79.5 -25.5t62 -45l-52 -58q-19 22 -48 36.5t-60.5 22.5t-59.5 8q-58 0 -102 -26.5t-74 -71.5t-45.5 -101t-15.5 -114q0 -90 29 -155.5t82 -101
t125 -35.5q42 0 91 12t101 38l31 -57q-22 -16 -50.5 -28.5t-60 -21.5t-62 -13.5t-56.5 -4.5zM414 838q0 -23 -17 -40t-40 -17t-39.5 17t-16.5 40t16.5 40t39.5 17q24 0 40.5 -16.5t16.5 -40.5z" />
    <glyph glyph-name="cdotaccent" unicode="&#x10b;" horiz-adv-x="450" 
d="M274 509q38 0 76.5 -12.5t75.5 -38.5l-45 -58q-28 23 -55 33.5t-52 10.5q-30 0 -55.5 -14t-45 -39.5t-30 -61.5t-10.5 -80q0 -94 42.5 -144t107.5 -50q29 0 56.5 9t57.5 26l27 -53q-40 -25 -77 -37.5t-83 -12.5q-64 0 -113.5 32.5t-78 92.5t-28.5 141q0 78 31.5 135.5
t84 89t114.5 31.5zM317 657q0 -23 -17 -40t-40 -17t-39.5 17t-16.5 40t16.5 40t39.5 17q24 0 40.5 -16.5t16.5 -40.5z" />
    <glyph glyph-name="Ccaron" unicode="&#x10c;" horiz-adv-x="624" 
d="M378 -12q-86 0 -148.5 30t-103.5 81.5t-60.5 116.5t-19.5 134q0 75 22 144.5t64.5 124.5t106.5 87t148 32q35 0 76.5 -8.5t79.5 -25.5t62 -45l-52 -58q-19 22 -48 36.5t-60.5 22.5t-59.5 8q-58 0 -102 -26.5t-74 -71.5t-45.5 -101t-15.5 -114q0 -90 29 -155.5t82 -101
t125 -35.5q42 0 91 12t101 38l31 -57q-22 -16 -50.5 -28.5t-60 -21.5t-62 -13.5t-56.5 -4.5zM358 845l76 61h67l-102 -134h-83l-106 135h69z" />
    <glyph glyph-name="ccaron" unicode="&#x10d;" horiz-adv-x="450" 
d="M274 509q38 0 76.5 -12.5t75.5 -38.5l-45 -58q-28 23 -55 33.5t-52 10.5q-30 0 -55.5 -14t-45 -39.5t-30 -61.5t-10.5 -80q0 -94 42.5 -144t107.5 -50q29 0 56.5 9t57.5 26l27 -53q-40 -25 -77 -37.5t-83 -12.5q-64 0 -113.5 32.5t-78 92.5t-28.5 141q0 78 31.5 135.5
t84 89t114.5 31.5zM266 652l76 81h67l-102 -154h-83l-106 155h69z" />
    <glyph glyph-name="Dcaron" unicode="&#x10e;" horiz-adv-x="699" 
d="M653 362q0 -105 -35.5 -186.5t-108.5 -128.5t-186 -47h-237v662q0 1 -3.5 16t-6.5 31t-4 19h187q91 0 164 -20.5t124.5 -64t78.5 -113t27 -168.5zM556 364q0 79 -19.5 135t-58 91.5t-95 52t-131.5 16.5h-73v-590h132q91 0 144.5 40t77 107t23.5 148zM341 845l76 61h67
l-102 -134h-83l-106 135h69z" />
    <glyph glyph-name="dcaron" unicode="&#x10f;" horiz-adv-x="618" 
d="M267 508q34 0 68 -11t59 -34q-1 14 -1.5 27.5t-0.5 26.5v186l-14 59h96v-619q0 -21 3 -47t10 -50.5t18 -43.5l-88 -11q-7 17 -12 34t-7 34q-26 -34 -65 -53t-82 -19q-52 0 -91 22t-64.5 59.5t-38 83t-12.5 92.5q0 51 13.5 98.5t41 84.5t69.5 59t98 22zM269 440
q-39 0 -65.5 -17t-42 -45t-22 -61.5t-6.5 -66.5q0 -34 7.5 -67.5t24 -61.5t44 -44.5t67.5 -16.5q35 0 64.5 20.5t51.5 45.5v168q0 40 -12.5 73t-39.5 53t-71 20zM548 761h112l-49 -152h-73z" />
    <glyph glyph-name="Dcroat" unicode="&#x110;" horiz-adv-x="699" 
d="M653 362q0 -105 -35.5 -186.5t-108.5 -128.5t-186 -47h-237v662q0 1 -3.5 16t-6.5 31t-4 19h187q91 0 164 -20.5t124.5 -64t78.5 -113t27 -168.5zM556 364q0 79 -19.5 135t-58 91.5t-95 52t-131.5 16.5h-73v-590h132q91 0 144.5 40t77 107t23.5 148zM35 401h321v-65h-321
v65z" />
    <glyph glyph-name="dcroat" unicode="&#x111;" horiz-adv-x="558" 
d="M267 508q34 0 68 -11t59 -34q-1 14 -1.5 27.5t-0.5 26.5v186l-14 59h96v-619q0 -21 3 -47t10 -50.5t18 -43.5l-88 -11q-7 17 -12 34t-7 34q-26 -34 -65 -53t-82 -19q-52 0 -91 22t-64.5 59.5t-38 83t-12.5 92.5q0 51 13.5 98.5t41 84.5t69.5 59t98 22zM269 440
q-39 0 -65.5 -17t-42 -45t-22 -61.5t-6.5 -66.5q0 -34 7.5 -67.5t24 -61.5t44 -44.5t67.5 -16.5q35 0 64.5 20.5t51.5 45.5v168q0 40 -12.5 73t-39.5 53t-71 20zM220 660h321v-65h-321v65z" />
    <glyph glyph-name="Emacron" unicode="&#x112;" horiz-adv-x="549" 
d="M72 728h437v-69h-330v-251h256v-68h-256v-271h330v-69h-423v662zM148 871h304v-64h-304v64z" />
    <glyph glyph-name="emacron" unicode="&#x113;" horiz-adv-x="494" 
d="M270 509q60 0 101 -24.5t61.5 -68t20.5 -101.5q0 -14 -1.5 -28.5t-3.5 -30.5h-316q0 -95 42 -147t112 -52q29 0 60.5 9t65.5 27l31 -50q-35 -28 -79 -42t-89 -14q-59 0 -102.5 21.5t-72 58t-42.5 82.5t-14 94q0 50 14 97t42.5 85.5t70.5 61t99 22.5zM262 446
q-34 0 -60 -19t-42 -48.5t-22 -60.5h228q1 42 -11.5 70.5t-36 43t-56.5 14.5zM110 689h304v-64h-304v64z" />
    <glyph glyph-name="Ebreve" unicode="&#x114;" horiz-adv-x="549" 
d="M72 728h437v-69h-330v-251h256v-68h-256v-271h330v-69h-423v662zM445 899q-4 -34 -20.5 -61t-46 -42.5t-74.5 -15.5q-43 0 -72.5 15.5t-45.5 42.5t-20 61h50q6 -24 30 -37t60 -13t59 13t31 37h49z" />
    <glyph glyph-name="ebreve" unicode="&#x115;" horiz-adv-x="494" 
d="M270 509q60 0 101 -24.5t61.5 -68t20.5 -101.5q0 -14 -1.5 -28.5t-3.5 -30.5h-316q0 -95 42 -147t112 -52q29 0 60.5 9t65.5 27l31 -50q-35 -28 -79 -42t-89 -14q-59 0 -102.5 21.5t-72 58t-42.5 82.5t-14 94q0 50 14 97t42.5 85.5t70.5 61t99 22.5zM262 446
q-34 0 -60 -19t-42 -48.5t-22 -60.5h228q1 42 -11.5 70.5t-36 43t-56.5 14.5zM410 728q-4 -42 -20 -73.5t-45 -48.5t-74 -17q-65 0 -99 39t-41 100h50q8 -36 31 -53t59 -17t59 17.5t31 52.5h49z" />
    <glyph glyph-name="Edotaccent" unicode="&#x116;" horiz-adv-x="549" 
d="M72 728h437v-69h-330v-251h256v-68h-256v-271h330v-69h-423v662zM358 838q0 -23 -17 -40t-40 -17t-39.5 17t-16.5 40t16.5 40t39.5 17q24 0 40.5 -16.5t16.5 -40.5z" />
    <glyph glyph-name="edotaccent" unicode="&#x117;" horiz-adv-x="494" 
d="M270 509q60 0 101 -24.5t61.5 -68t20.5 -101.5q0 -14 -1.5 -28.5t-3.5 -30.5h-316q0 -95 42 -147t112 -52q29 0 60.5 9t65.5 27l31 -50q-35 -28 -79 -42t-89 -14q-59 0 -102.5 21.5t-72 58t-42.5 82.5t-14 94q0 50 14 97t42.5 85.5t70.5 61t99 22.5zM262 446
q-34 0 -60 -19t-42 -48.5t-22 -60.5h228q1 42 -11.5 70.5t-36 43t-56.5 14.5zM323 657q0 -23 -17 -40t-40 -17t-39.5 17t-16.5 40t16.5 40t39.5 17q24 0 40.5 -16.5t16.5 -40.5z" />
    <glyph glyph-name="Eogonek" unicode="&#x118;" horiz-adv-x="549" 
d="M72 728h437v-69h-330v-251h256v-68h-256v-271h330v-69h-423v662zM523 -152q-28 -22 -62 -36t-71 -14q-40 0 -68 20.5t-28 63.5q0 29 19.5 53t49.5 43t61.5 31t55.5 16l20 -11q-15 -9 -36 -20.5t-41 -25.5t-33 -31.5t-13 -38.5q0 -22 13.5 -33.5t35.5 -11.5q19 0 41.5 11
t38.5 21z" />
    <glyph glyph-name="eogonek" unicode="&#x119;" horiz-adv-x="494" 
d="M270 509q60 0 101 -24.5t61.5 -68t20.5 -101.5q0 -14 -1.5 -28.5t-3.5 -30.5h-316q0 -95 42 -147t112 -52q29 0 60.5 9t65.5 27l31 -50q-35 -28 -79 -42t-89 -14q-59 0 -102.5 21.5t-72 58t-42.5 82.5t-14 94q0 50 14 97t42.5 85.5t70.5 61t99 22.5zM262 446
q-34 0 -60 -19t-42 -48.5t-22 -60.5h228q1 42 -11.5 70.5t-36 43t-56.5 14.5zM420 -152q-28 -22 -62 -36t-71 -14q-40 0 -68 20.5t-28 63.5q0 29 19.5 53t49.5 43t61.5 31t55.5 16l20 -11q-15 -9 -36 -20.5t-41 -25.5t-33 -31.5t-13 -38.5q0 -22 13.5 -33.5t35.5 -11.5
q19 0 41.5 11t38.5 21z" />
    <glyph glyph-name="Ecaron" unicode="&#x11a;" horiz-adv-x="549" 
d="M72 728h437v-69h-330v-251h256v-68h-256v-271h330v-69h-423v662zM302 845l76 61h67l-102 -134h-83l-106 135h69z" />
    <glyph glyph-name="ecaron" unicode="&#x11b;" horiz-adv-x="494" 
d="M270 509q60 0 101 -24.5t61.5 -68t20.5 -101.5q0 -14 -1.5 -28.5t-3.5 -30.5h-316q0 -95 42 -147t112 -52q29 0 60.5 9t65.5 27l31 -50q-35 -28 -79 -42t-89 -14q-59 0 -102.5 21.5t-72 58t-42.5 82.5t-14 94q0 50 14 97t42.5 85.5t70.5 61t99 22.5zM262 446
q-34 0 -60 -19t-42 -48.5t-22 -60.5h228q1 42 -11.5 70.5t-36 43t-56.5 14.5zM272 652l76 81h67l-102 -154h-83l-106 155h69z" />
    <glyph glyph-name="Gcircumflex" unicode="&#x11c;" horiz-adv-x="707" 
d="M385 738q39 0 83.5 -8.5t86 -27t69.5 -47.5l-53 -62q-31 25 -58 41t-56.5 24t-71.5 8q-66 0 -111.5 -25t-74 -68t-41.5 -97t-13 -112q0 -55 12 -108.5t39 -97.5t71 -70t108 -26q53 0 91.5 23.5t60 64t21.5 91.5v66h-179l12 68h261v-209q0 -41 3.5 -83t5.5 -83h-50l-32 76
q-44 -47 -94.5 -67.5t-115.5 -20.5q-79 0 -137.5 29.5t-97.5 81t-58 117.5t-19 139q0 80 21 149.5t63 122t105.5 82t148.5 29.5zM364 834l-79 -62h-69l106 135h83l102 -134h-67z" />
    <glyph glyph-name="gcircumflex" unicode="&#x11d;" horiz-adv-x="477" 
d="M220 509q29 0 55.5 -7t54.5 -7q38 0 77 4.5t82 10.5l-18 -72h-80q-7 0 -14.5 0.5t-14.5 1.5q17 -23 25.5 -48t8.5 -51q0 -50 -22 -90t-64.5 -62.5t-103.5 -22.5q-25 0 -44 -13t-19 -40q0 -18 9.5 -25.5t23.5 -8.5t28 -1h97q26 0 53.5 -3.5t50.5 -14t37.5 -31t14.5 -55.5
q0 -55 -22 -94t-59 -63.5t-83 -35.5t-93 -11q-28 0 -59 6.5t-58.5 21t-44.5 38.5t-17 60q0 38 23.5 67t54.5 49v3q-22 11 -34.5 30.5t-12.5 41.5q0 13 10 24.5t25.5 30.5t33.5 52q-35 24 -56 61.5t-21 80.5q0 49 24 88t64.5 62t87.5 23zM221 449q-24 0 -44.5 -15t-33 -40
t-12.5 -57t12 -57.5t32.5 -40.5t44.5 -15q41 0 65.5 31t24.5 81q0 32 -12.5 57.5t-32.5 40.5t-44 15zM158 -1q-19 -14 -35 -38.5t-16 -47.5q0 -24 17.5 -41t43 -25.5t47.5 -8.5q26 0 55 5.5t54 17.5t40.5 33t15.5 51q0 26 -16 37.5t-39.5 14t-46.5 2.5h-120zM234 661
l-76 -81h-67l102 154h83l106 -155h-69z" />
    <glyph glyph-name="Gbreve" unicode="&#x11e;" horiz-adv-x="707" 
d="M385 738q39 0 83.5 -8.5t86 -27t69.5 -47.5l-53 -62q-31 25 -58 41t-56.5 24t-71.5 8q-66 0 -111.5 -25t-74 -68t-41.5 -97t-13 -112q0 -55 12 -108.5t39 -97.5t71 -70t108 -26q53 0 91.5 23.5t60 64t21.5 91.5v66h-179l12 68h261v-209q0 -41 3.5 -83t5.5 -83h-50l-32 76
q-44 -47 -94.5 -67.5t-115.5 -20.5q-79 0 -137.5 29.5t-97.5 81t-58 117.5t-19 139q0 80 21 149.5t63 122t105.5 82t148.5 29.5zM507 899q-4 -34 -20.5 -61t-46 -42.5t-74.5 -15.5q-43 0 -72.5 15.5t-45.5 42.5t-20 61h50q6 -24 30 -37t60 -13t59 13t31 37h49z" />
    <glyph glyph-name="gbreve" unicode="&#x11f;" horiz-adv-x="477" 
d="M220 509q29 0 55.5 -7t54.5 -7q38 0 77 4.5t82 10.5l-18 -72h-80q-7 0 -14.5 0.5t-14.5 1.5q17 -23 25.5 -48t8.5 -51q0 -50 -22 -90t-64.5 -62.5t-103.5 -22.5q-25 0 -44 -13t-19 -40q0 -18 9.5 -25.5t23.5 -8.5t28 -1h97q26 0 53.5 -3.5t50.5 -14t37.5 -31t14.5 -55.5
q0 -55 -22 -94t-59 -63.5t-83 -35.5t-93 -11q-28 0 -59 6.5t-58.5 21t-44.5 38.5t-17 60q0 38 23.5 67t54.5 49v3q-22 11 -34.5 30.5t-12.5 41.5q0 13 10 24.5t25.5 30.5t33.5 52q-35 24 -56 61.5t-21 80.5q0 49 24 88t64.5 62t87.5 23zM221 449q-24 0 -44.5 -15t-33 -40
t-12.5 -57t12 -57.5t32.5 -40.5t44.5 -15q41 0 65.5 31t24.5 81q0 32 -12.5 57.5t-32.5 40.5t-44 15zM158 -1q-19 -14 -35 -38.5t-16 -47.5q0 -24 17.5 -41t43 -25.5t47.5 -8.5q26 0 55 5.5t54 17.5t40.5 33t15.5 51q0 26 -16 37.5t-39.5 14t-46.5 2.5h-120zM377 728
q-4 -42 -20 -73.5t-45 -48.5t-74 -17q-65 0 -99 39t-41 100h50q8 -36 31 -53t59 -17t59 17.5t31 52.5h49z" />
    <glyph glyph-name="Gdotaccent" unicode="&#x120;" horiz-adv-x="707" 
d="M385 738q39 0 83.5 -8.5t86 -27t69.5 -47.5l-53 -62q-31 25 -58 41t-56.5 24t-71.5 8q-66 0 -111.5 -25t-74 -68t-41.5 -97t-13 -112q0 -55 12 -108.5t39 -97.5t71 -70t108 -26q53 0 91.5 23.5t60 64t21.5 91.5v66h-179l12 68h261v-209q0 -41 3.5 -83t5.5 -83h-50l-32 76
q-44 -47 -94.5 -67.5t-115.5 -20.5q-79 0 -137.5 29.5t-97.5 81t-58 117.5t-19 139q0 80 21 149.5t63 122t105.5 82t148.5 29.5zM420 838q0 -23 -17 -40t-40 -17t-39.5 17t-16.5 40t16.5 40t39.5 17q24 0 40.5 -16.5t16.5 -40.5z" />
    <glyph glyph-name="gdotaccent" unicode="&#x121;" horiz-adv-x="477" 
d="M220 509q29 0 55.5 -7t54.5 -7q38 0 77 4.5t82 10.5l-18 -72h-80q-7 0 -14.5 0.5t-14.5 1.5q17 -23 25.5 -48t8.5 -51q0 -50 -22 -90t-64.5 -62.5t-103.5 -22.5q-25 0 -44 -13t-19 -40q0 -18 9.5 -25.5t23.5 -8.5t28 -1h97q26 0 53.5 -3.5t50.5 -14t37.5 -31t14.5 -55.5
q0 -55 -22 -94t-59 -63.5t-83 -35.5t-93 -11q-28 0 -59 6.5t-58.5 21t-44.5 38.5t-17 60q0 38 23.5 67t54.5 49v3q-22 11 -34.5 30.5t-12.5 41.5q0 13 10 24.5t25.5 30.5t33.5 52q-35 24 -56 61.5t-21 80.5q0 49 24 88t64.5 62t87.5 23zM221 449q-24 0 -44.5 -15t-33 -40
t-12.5 -57t12 -57.5t32.5 -40.5t44.5 -15q41 0 65.5 31t24.5 81q0 32 -12.5 57.5t-32.5 40.5t-44 15zM158 -1q-19 -14 -35 -38.5t-16 -47.5q0 -24 17.5 -41t43 -25.5t47.5 -8.5q26 0 55 5.5t54 17.5t40.5 33t15.5 51q0 26 -16 37.5t-39.5 14t-46.5 2.5h-120zM290 657
q0 -23 -17 -40t-40 -17t-39.5 17t-16.5 40t16.5 40t39.5 17q24 0 40.5 -16.5t16.5 -40.5z" />
    <glyph glyph-name="uni0122" unicode="&#x122;" horiz-adv-x="707" 
d="M385 738q39 0 83.5 -8.5t86 -27t69.5 -47.5l-53 -62q-31 25 -58 41t-56.5 24t-71.5 8q-66 0 -111.5 -25t-74 -68t-41.5 -97t-13 -112q0 -55 12 -108.5t39 -97.5t71 -70t108 -26q53 0 91.5 23.5t60 64t21.5 91.5v66h-179l12 68h261v-209q0 -41 3.5 -83t5.5 -83h-50l-32 76
q-44 -47 -94.5 -67.5t-115.5 -20.5q-79 0 -137.5 29.5t-97.5 81t-58 117.5t-19 139q0 80 21 149.5t63 122t105.5 82t148.5 29.5zM357 -77q30 0 46.5 -21t16.5 -50q0 -43 -25.5 -78t-59.5 -60l-29 28q11 11 26 27.5t15 32.5q0 11 -10.5 19.5t-21 20t-10.5 31.5q0 22 15.5 36
t36.5 14z" />
    <glyph glyph-name="uni0123" unicode="&#x123;" horiz-adv-x="477" 
d="M220 509q29 0 55.5 -7t54.5 -7q38 0 77 4.5t82 10.5l-18 -72h-80q-7 0 -14.5 0.5t-14.5 1.5q17 -23 25.5 -48t8.5 -51q0 -50 -22 -90t-64.5 -62.5t-103.5 -22.5q-25 0 -44 -13t-19 -40q0 -18 9.5 -25.5t23.5 -8.5t28 -1h97q26 0 53.5 -3.5t50.5 -14t37.5 -31t14.5 -55.5
q0 -55 -22 -94t-59 -63.5t-83 -35.5t-93 -11q-28 0 -59 6.5t-58.5 21t-44.5 38.5t-17 60q0 38 23.5 67t54.5 49v3q-22 11 -34.5 30.5t-12.5 41.5q0 13 10 24.5t25.5 30.5t33.5 52q-35 24 -56 61.5t-21 80.5q0 49 24 88t64.5 62t87.5 23zM221 449q-24 0 -44.5 -15t-33 -40
t-12.5 -57t12 -57.5t32.5 -40.5t44.5 -15q41 0 65.5 31t24.5 81q0 32 -12.5 57.5t-32.5 40.5t-44 15zM158 -1q-19 -14 -35 -38.5t-16 -47.5q0 -24 17.5 -41t43 -25.5t47.5 -8.5q26 0 55 5.5t54 17.5t40.5 33t15.5 51q0 26 -16 37.5t-39.5 14t-46.5 2.5h-120zM238 573
q-30 0 -46.5 21.5t-16.5 49.5q0 43 25.5 78t59.5 60l29 -28q-10 -11 -25.5 -27t-15.5 -33q0 -11 10.5 -19.5t21 -19.5t10.5 -32q0 -22 -15.5 -36t-36.5 -14z" />
    <glyph glyph-name="Hcircumflex" unicode="&#x124;" horiz-adv-x="714" 
d="M534 344h-354v-344h-93v662q0 1 -3.5 16t-6.5 31t-4 19h107v-316h354v316h93v-728h-93v344zM358 834l-79 -62h-69l106 135h83l102 -134h-67z" />
    <glyph glyph-name="hcircumflex" unicode="&#x125;" horiz-adv-x="547" 
d="M164 762v-324q32 30 69 51t82 21q55 0 88 -23t48 -62.5t15 -91.5v-333h-82v306q0 31 -4.5 60.5t-21.5 49.5t-57 20q-25 0 -49.5 -10t-46.5 -25t-41 -31v-370h-82v703l-13 59h95zM123 834l-79 -62h-69l106 135h83l102 -134h-67z" />
    <glyph glyph-name="Hbar" unicode="&#x126;" horiz-adv-x="714" 
d="M534 344h-354v-344h-93v662q0 1 -3.5 16t-6.5 31t-4 19h107v-316h354v316h93v-728h-93v344zM25 591h671v-65h-671v65z" />
    <glyph glyph-name="hbar" unicode="&#x127;" horiz-adv-x="547" 
d="M164 762v-324q32 30 69 51t82 21q55 0 88 -23t48 -62.5t15 -91.5v-333h-82v306q0 31 -4.5 60.5t-21.5 49.5t-57 20q-25 0 -49.5 -10t-46.5 -25t-41 -31v-370h-82v703l-13 59h95zM19 640h321v-65h-321v65z" />
    <glyph glyph-name="Itilde" unicode="&#x128;" horiz-adv-x="268" 
d="M73 728h107v-728h-93v662q0 1 -3.5 16t-6.5 31t-4 19zM288 882q-2 -22 -12.5 -45t-28.5 -38.5t-44 -15.5q-28 0 -52.5 10t-47.5 19.5t-49 9.5q-13 0 -21 -8t-13 -19h-49q3 25 15 47.5t32 37.5t47 15t51 -9.5t46.5 -19.5t42.5 -10q12 0 22 7.5t14 18.5h47z" />
    <glyph glyph-name="itilde" unicode="&#x129;" horiz-adv-x="252" 
d="M84 438q0 1 -3 14.5t-5.5 27.5t-3.5 17h95v-497h-83v438zM280 701q-2 -22 -12.5 -45t-28.5 -38.5t-44 -15.5q-28 0 -52.5 10t-47.5 19.5t-49 9.5q-13 0 -21 -8t-13 -19h-49q3 25 15 47.5t32 37.5t47 15t51 -9.5t46.5 -19.5t42.5 -10q12 0 22 7.5t14 18.5h47z" />
    <glyph glyph-name="Imacron" unicode="&#x12a;" horiz-adv-x="268" 
d="M73 728h107v-728h-93v662q0 1 -3.5 16t-6.5 31t-4 19zM-20 871h304v-64h-304v64z" />
    <glyph glyph-name="imacron" unicode="&#x12b;" horiz-adv-x="252" 
d="M84 438q0 1 -3 14.5t-5.5 27.5t-3.5 17h95v-497h-83v438zM-31 689h304v-64h-304v64z" />
    <glyph glyph-name="Ibreve" unicode="&#x12c;" horiz-adv-x="268" 
d="M73 728h107v-728h-93v662q0 1 -3.5 16t-6.5 31t-4 19zM277 899q-4 -34 -20.5 -61t-46 -42.5t-74.5 -15.5q-43 0 -72.5 15.5t-45.5 42.5t-20 61h50q6 -24 30 -37t60 -13t59 13t31 37h49z" />
    <glyph glyph-name="ibreve" unicode="&#x12d;" horiz-adv-x="252" 
d="M84 438q0 1 -3 14.5t-5.5 27.5t-3.5 17h95v-497h-83v438zM269 728q-4 -42 -20 -73.5t-45 -48.5t-74 -17q-65 0 -99 39t-41 100h50q8 -36 31 -53t59 -17t59 17.5t31 52.5h49z" />
    <glyph glyph-name="Iogonek" unicode="&#x12e;" horiz-adv-x="268" 
d="M73 728h107v-728h-93v662q0 1 -3.5 16t-6.5 31t-4 19zM202 -152q-28 -22 -62 -36t-71 -14q-40 0 -68 20.5t-28 63.5q0 29 19.5 53t49.5 43t61.5 31t55.5 16l20 -11q-15 -9 -36 -20.5t-41 -25.5t-33 -31.5t-13 -38.5q0 -22 13.5 -33.5t35.5 -11.5q19 0 41.5 11t38.5 21z
" />
    <glyph glyph-name="iogonek" unicode="&#x12f;" horiz-adv-x="251" 
d="M185 664q0 -25 -17.5 -43t-43.5 -18q-25 0 -42.5 18t-17.5 43t17.5 43t42.5 18t43 -18t18 -43zM167 497v-497h-83v438l-12 59h95zM203 -152q-28 -22 -62 -36t-71 -14q-40 0 -68 20.5t-28 63.5q0 29 19.5 53t49.5 43t61.5 31t55.5 16l2 -21q-21 -11 -45.5 -27t-42 -35.5
t-17.5 -43.5q0 -22 13.5 -33.5t35.5 -11.5q19 0 41.5 11t38.5 21z" />
    <glyph glyph-name="Idotaccent" unicode="&#x130;" horiz-adv-x="268" 
d="M73 728h107v-728h-93v662q0 1 -3.5 16t-6.5 31t-4 19zM190 838q0 -23 -17 -40t-40 -17t-39.5 17t-16.5 40t16.5 40t39.5 17q24 0 40.5 -16.5t16.5 -40.5z" />
    <glyph glyph-name="dotlessi" unicode="&#x131;" horiz-adv-x="252" 
d="M84 438q0 1 -3 14.5t-5.5 27.5t-3.5 17h95v-497h-83v438z" />
    <glyph glyph-name="IJ" unicode="&#x132;" horiz-adv-x="536" 
d="M73 728h107v-728h-93v662q0 1 -3.5 16t-6.5 31t-4 19zM341 728h108v-667q0 -52 -7.5 -99t-28 -83.5t-58 -60t-98.5 -29.5l-13 59q39 6 62 27t33.5 51t13.5 64t3 65v607z" />
    <glyph glyph-name="ij" unicode="&#x133;" horiz-adv-x="502" 
d="M185 664q0 -25 -17.5 -43t-43.5 -18q-25 0 -42.5 18t-17.5 43t17.5 43t42.5 18t43 -18t18 -43zM167 497v-497h-83v438l-12 59h95zM438 664q0 -25 -17.5 -43t-43.5 -18q-25 0 -43 18t-18 43t18 43t43 18t43 -18t18 -43zM418 497v-472q0 -38 -5 -79.5t-19.5 -78.5
t-42.5 -63t-75 -32l-14 40q37 19 52 52.5t18 73t3 75.5v425l-13 59h96z" />
    <glyph glyph-name="Jcircumflex" unicode="&#x134;" horiz-adv-x="268" 
d="M73 728h108v-667q0 -52 -7.5 -99t-28 -83.5t-58 -60t-98.5 -29.5l-13 59q39 6 62 27t33.5 51t13.5 64t3 65v607zM132 834l-79 -62h-69l106 135h83l102 -134h-67z" />
    <glyph glyph-name="jcircumflex" unicode="&#x135;" horiz-adv-x="251" 
d="M167 497v-472q0 -38 -5 -79.5t-19.5 -78.5t-42.5 -63t-75 -32l-14 40q37 19 52 52.5t18 73t3 75.5v425l-13 59h96zM124 661l-76 -81h-67l102 154h83l106 -155h-69z" />
    <glyph glyph-name="uni0136" unicode="&#x136;" horiz-adv-x="583" 
d="M72 728h107v-325l289 325h97l-287 -324l305 -404h-116l-288 379v-379h-93v662zM313 -77q30 0 46.5 -21t16.5 -50q0 -43 -25.5 -78t-59.5 -60l-29 28q11 11 26 27.5t15 32.5q0 11 -10.5 19.5t-21 20t-10.5 31.5q0 22 15.5 36t36.5 14z" />
    <glyph glyph-name="uni0137" unicode="&#x137;" horiz-adv-x="464" 
d="M164 762v-470l186 205h89l-191 -209l218 -288h-99l-203 270v-270h-83v703l-13 59h96zM246 -77q30 0 46.5 -21t16.5 -50q0 -43 -25.5 -78t-59.5 -60l-29 28q11 11 26 27.5t15 32.5q0 11 -10.5 19.5t-21 20t-10.5 31.5q0 22 15.5 36t36.5 14z" />
    <glyph glyph-name="kgreenlandic" unicode="&#x138;" horiz-adv-x="464" 
d="M164 497v-235l186 235h89l-191 -236l218 -261h-99l-203 240v-240h-83v497h83z" />
    <glyph glyph-name="Lacute" unicode="&#x139;" horiz-adv-x="514" 
d="M72 728h107v-659h306v-69h-399v662zM191 905h122l-140 -131h-78z" />
    <glyph glyph-name="lacute" unicode="&#x13a;" horiz-adv-x="251" 
d="M167 762v-762h-83v704l-13 58h96zM176 964h122l-140 -152h-78z" />
    <glyph glyph-name="uni013B" unicode="&#x13b;" horiz-adv-x="514" 
d="M72 728h107v-659h306v-69h-399v662zM289 -77q30 0 46.5 -21t16.5 -50q0 -43 -25.5 -78t-59.5 -60l-29 28q11 11 26 27.5t15 32.5q0 11 -10.5 19.5t-21 20t-10.5 31.5q0 22 15.5 36t36.5 14z" />
    <glyph glyph-name="uni013C" unicode="&#x13c;" horiz-adv-x="251" 
d="M167 762v-762h-83v704l-13 58h96zM122 -77q30 0 46.5 -21t16.5 -50q0 -43 -25.5 -78t-59.5 -60l-29 28q11 11 26 27.5t15 32.5q0 11 -10.5 19.5t-21 20t-10.5 31.5q0 22 15.5 36t36.5 14z" />
    <glyph glyph-name="Lcaron" unicode="&#x13d;" horiz-adv-x="514" 
d="M72 728h107v-659h306v-69h-399v662zM372 728h112l-49 -152h-73z" />
    <glyph glyph-name="lcaron" unicode="&#x13e;" horiz-adv-x="309" 
d="M167 762v-762h-83v704l-13 58h96zM224 763h112l-49 -152h-73z" />
    <glyph glyph-name="Ldot" unicode="&#x13f;" horiz-adv-x="514" 
d="M72 728h107v-659h306v-69h-399v662zM452 384q0 -27 -19.5 -46t-46.5 -19t-46.5 19t-19.5 46q0 28 19 47.5t47 19.5q27 0 46.5 -20t19.5 -47z" />
    <glyph glyph-name="ldot" unicode="&#x140;" horiz-adv-x="330" 
d="M167 762v-762h-83v704l-13 58h96zM363 310q0 -27 -19.5 -46t-46.5 -19t-46.5 19t-19.5 46q0 28 19 47.5t47 19.5q27 0 46.5 -20t19.5 -47z" />
    <glyph glyph-name="Lslash" unicode="&#x141;" horiz-adv-x="514" 
d="M72 728h107v-659h306v-69h-399v662zM0 263v69l377 175v-69z" />
    <glyph glyph-name="lslash" unicode="&#x142;" horiz-adv-x="251" 
d="M167 762v-762h-83v704l-13 58h96zM15 283v69l225 105v-69z" />
    <glyph glyph-name="Nacute" unicode="&#x143;" horiz-adv-x="714" 
d="M197 728l318 -489q9 -14 19 -29.5t20 -29.5q-1 17 -2 34.5t-1 33.5v480h76v-733h-59l-371 568q-8 13 -17.5 27.5t-19.5 27.5q2 -16 2.5 -32.5t0.5 -32.5v-553h-76v662l-14 66h124zM413 905h122l-140 -131h-78z" />
    <glyph glyph-name="nacute" unicode="&#x144;" horiz-adv-x="547" 
d="M138 505q7 -17 12 -35t7 -36q30 30 71 52.5t84 22.5q55 0 88.5 -23t48.5 -62.5t15 -91.5v-332h-82v305q0 31 -4.5 61t-22 49.5t-57.5 19.5q-24 0 -49 -9.5t-47 -24.5t-40 -32v-369h-82v352q0 20 -3 46.5t-10 52t-20 42.5zM335 733h122l-140 -152h-78z" />
    <glyph glyph-name="uni0145" unicode="&#x145;" horiz-adv-x="714" 
d="M197 728l318 -489q9 -14 19 -29.5t20 -29.5q-1 17 -2 34.5t-1 33.5v480h76v-733h-59l-371 568q-8 13 -17.5 27.5t-19.5 27.5q2 -16 2.5 -32.5t0.5 -32.5v-553h-76v662l-14 66h124zM358 -77q30 0 46.5 -21t16.5 -50q0 -43 -25.5 -78t-59.5 -60l-29 28q11 11 26 27.5
t15 32.5q0 11 -10.5 19.5t-21 20t-10.5 31.5q0 22 15.5 36t36.5 14z" />
    <glyph glyph-name="uni0146" unicode="&#x146;" horiz-adv-x="547" 
d="M138 505q7 -17 12 -35t7 -36q30 30 71 52.5t84 22.5q55 0 88.5 -23t48.5 -62.5t15 -91.5v-332h-82v305q0 31 -4.5 61t-22 49.5t-57.5 19.5q-24 0 -49 -9.5t-47 -24.5t-40 -32v-369h-82v352q0 20 -3 46.5t-10 52t-20 42.5zM269 -77q30 0 46.5 -21t16.5 -50
q0 -43 -25.5 -78t-59.5 -60l-29 28q11 11 26 27.5t15 32.5q0 11 -10.5 19.5t-21 20t-10.5 31.5q0 22 15.5 36t36.5 14z" />
    <glyph glyph-name="Ncaron" unicode="&#x147;" horiz-adv-x="714" 
d="M197 728l318 -489q9 -14 19 -29.5t20 -29.5q-1 17 -2 34.5t-1 33.5v480h76v-733h-59l-371 568q-8 13 -17.5 27.5t-19.5 27.5q2 -16 2.5 -32.5t0.5 -32.5v-553h-76v662l-14 66h124zM356 845l76 61h67l-102 -134h-83l-106 135h69z" />
    <glyph glyph-name="ncaron" unicode="&#x148;" horiz-adv-x="547" 
d="M138 505q7 -17 12 -35t7 -36q30 30 71 52.5t84 22.5q55 0 88.5 -23t48.5 -62.5t15 -91.5v-332h-82v305q0 31 -4.5 61t-22 49.5t-57.5 19.5q-24 0 -49 -9.5t-47 -24.5t-40 -32v-369h-82v352q0 20 -3 46.5t-10 52t-20 42.5zM287 652l76 81h67l-102 -154h-83l-106 155h69z
" />
    <glyph glyph-name="napostrophe" unicode="&#x149;" horiz-adv-x="547" 
d="M138 505q7 -17 12 -35t7 -36q30 30 71 52.5t84 22.5q55 0 88.5 -23t48.5 -62.5t15 -91.5v-332h-82v305q0 31 -4.5 61t-22 49.5t-57.5 19.5q-24 0 -49 -9.5t-47 -24.5t-40 -32v-369h-82v352q0 20 -3 46.5t-10 52t-20 42.5zM28 762q30 0 46.5 -21t16.5 -50
q0 -43 -25.5 -78.5t-59.5 -59.5q-7 6 -14.5 13.5l-14.5 14.5q11 11 26 27t15 32q0 12 -10.5 20t-21 19.5t-10.5 32.5t15.5 35.5t36.5 14.5z" />
    <glyph glyph-name="Eng" unicode="&#x14a;" horiz-adv-x="714" 
d="M73 728h124l318 -489q9 -14 19 -29.5t20 -29.5q-1 17 -2 34.5t-1 33.5v480h76v-667q0 -52 -7.5 -99t-28 -83.5t-58 -60t-98.5 -29.5l-12 52q38 6 60.5 26.5t33.5 51t14 64t3 64.5l-337 516q-8 13 -17.5 27.5t-19.5 27.5q2 -16 2.5 -32.5t0.5 -32.5v-553h-76v662z" />
    <glyph glyph-name="eng" unicode="&#x14b;" horiz-adv-x="547" 
d="M47 493l91 12q7 -17 12 -35t7 -36q30 30 71 52.5t84 22.5q55 0 88.5 -23t48.5 -62.5t15 -91.5v-307q0 -38 -5 -79.5t-19.5 -78.5t-42.5 -63t-75 -32l-14 40q37 19 52 52.5t18.5 73t3.5 75.5v293q0 31 -4.5 60.5t-22 49t-57.5 19.5q-24 0 -49 -9.5t-47 -24.5t-40 -32v-369
h-82v352q0 20 -3 46.5t-10 52t-20 42.5z" />
    <glyph glyph-name="Omacron" unicode="&#x14c;" horiz-adv-x="737" 
d="M368 -11q-81 0 -141.5 30t-100.5 82.5t-60 119.5t-20 142t19.5 142.5t59.5 120t101 82.5t143 30t142.5 -30t100.5 -82.5t59.5 -120t19.5 -142.5t-20 -142.5t-60 -119.5t-100.5 -82t-142.5 -30zM369 57q64 0 107 27t69 72t37.5 99t11.5 108t-11.5 108t-37.5 98.5
t-69.5 71.5t-106.5 27t-106.5 -27t-69 -72t-37 -99t-11.5 -108t11.5 -107.5t37 -98.5t69 -72t106.5 -27zM216 871h304v-64h-304v64z" />
    <glyph glyph-name="omacron" unicode="&#x14d;" horiz-adv-x="537" 
d="M265 -13q-73 0 -122.5 36.5t-74 95.5t-24.5 126q0 50 15 97.5t44 85t71.5 59.5t96.5 22q74 0 123.5 -36t74 -95t24.5 -127q0 -51 -15 -98.5t-43.5 -84.5t-71 -59t-98.5 -22zM266 50q39 0 65.5 18.5t43 48.5t23.5 64.5t7 66.5q0 33 -6.5 67.5t-21.5 64t-41.5 48
t-65.5 18.5t-65.5 -18.5t-42.5 -48.5t-23 -64.5t-7 -66.5q0 -31 7 -65.5t22.5 -64.5t41.5 -49t63 -19zM109 689h304v-64h-304v64z" />
    <glyph glyph-name="Obreve" unicode="&#x14e;" horiz-adv-x="737" 
d="M368 -11q-81 0 -141.5 30t-100.5 82.5t-60 119.5t-20 142t19.5 142.5t59.5 120t101 82.5t143 30t142.5 -30t100.5 -82.5t59.5 -120t19.5 -142.5t-20 -142.5t-60 -119.5t-100.5 -82t-142.5 -30zM369 57q64 0 107 27t69 72t37.5 99t11.5 108t-11.5 108t-37.5 98.5
t-69.5 71.5t-106.5 27t-106.5 -27t-69 -72t-37 -99t-11.5 -108t11.5 -107.5t37 -98.5t69 -72t106.5 -27zM513 899q-4 -34 -20.5 -61t-46 -42.5t-74.5 -15.5q-43 0 -72.5 15.5t-45.5 42.5t-20 61h50q6 -24 30 -37t60 -13t59 13t31 37h49z" />
    <glyph glyph-name="obreve" unicode="&#x14f;" horiz-adv-x="537" 
d="M265 -13q-73 0 -122.5 36.5t-74 95.5t-24.5 126q0 50 15 97.5t44 85t71.5 59.5t96.5 22q74 0 123.5 -36t74 -95t24.5 -127q0 -51 -15 -98.5t-43.5 -84.5t-71 -59t-98.5 -22zM266 50q39 0 65.5 18.5t43 48.5t23.5 64.5t7 66.5q0 33 -6.5 67.5t-21.5 64t-41.5 48
t-65.5 18.5t-65.5 -18.5t-42.5 -48.5t-23 -64.5t-7 -66.5q0 -31 7 -65.5t22.5 -64.5t41.5 -49t63 -19zM409 728q-4 -42 -20 -73.5t-45 -48.5t-74 -17q-65 0 -99 39t-41 100h50q8 -36 31 -53t59 -17t59 17.5t31 52.5h49z" />
    <glyph glyph-name="Ohungarumlaut" unicode="&#x150;" horiz-adv-x="737" 
d="M368 -11q-81 0 -141.5 30t-100.5 82.5t-60 119.5t-20 142t19.5 142.5t59.5 120t101 82.5t143 30t142.5 -30t100.5 -82.5t59.5 -120t19.5 -142.5t-20 -142.5t-60 -119.5t-100.5 -82t-142.5 -30zM369 57q64 0 107 27t69 72t37.5 99t11.5 108t-11.5 108t-37.5 98.5
t-69.5 71.5t-106.5 27t-106.5 -27t-69 -72t-37 -99t-11.5 -108t11.5 -107.5t37 -98.5t69 -72t106.5 -27zM347 905h118l-137 -131h-62zM489 905h117l-137 -131h-61z" />
    <glyph glyph-name="ohungarumlaut" unicode="&#x151;" horiz-adv-x="537" 
d="M265 -13q-73 0 -122.5 36.5t-74 95.5t-24.5 126q0 50 15 97.5t44 85t71.5 59.5t96.5 22q74 0 123.5 -36t74 -95t24.5 -127q0 -51 -15 -98.5t-43.5 -84.5t-71 -59t-98.5 -22zM266 50q39 0 65.5 18.5t43 48.5t23.5 64.5t7 66.5q0 33 -6.5 67.5t-21.5 64t-41.5 48
t-65.5 18.5t-65.5 -18.5t-42.5 -48.5t-23 -64.5t-7 -66.5q0 -31 7 -65.5t22.5 -64.5t41.5 -49t63 -19zM243 733h118l-137 -152h-62zM385 733h117l-137 -152h-61z" />
    <glyph glyph-name="OE" unicode="&#x152;" horiz-adv-x="1048" 
d="M598 94q-46 -55 -104 -80.5t-124 -25.5q-82 0 -142 30.5t-99.5 83.5t-58.5 120.5t-19 141.5q0 76 20 143.5t60.5 119t101.5 81t143 29.5q65 0 122.5 -24t100.5 -80v95h422v-70h-329v-248h255v-72h-255v-267h329v-71h-423v94zM373 58q64 0 107 27t69 72t37.5 99t11.5 108
t-11.5 108t-37.5 98.5t-69.5 71.5t-106.5 27t-106.5 -27t-69 -72t-37 -99t-11.5 -108t11.5 -107.5t37 -98.5t69 -72t106.5 -27z" />
    <glyph glyph-name="oe" unicode="&#x153;" horiz-adv-x="855" 
d="M44 248q0 50 14.5 97t43 84t70.5 58.5t96 21.5q63 0 108.5 -27.5t73.5 -72.5q28 44 73.5 72t107.5 28q60 0 100.5 -24.5t61.5 -68t21 -101.5q0 -14 -1.5 -28.5t-3.5 -30.5h-316q0 -60 19 -104.5t52 -69.5t74 -25q32 0 68 12.5t61 33.5l37 -60q-23 -19 -51 -31.5
t-57.5 -18.5t-59.5 -6q-66 0 -112.5 27.5t-74.5 70.5q-28 -44 -73.5 -71t-107.5 -27q-55 0 -97 21.5t-70 58.5t-42.5 83.5t-14.5 97.5zM132 248q0 -30 7.5 -64t24 -64.5t42.5 -50t62 -19.5q39 0 65.5 18.5t42 48.5t22.5 64.5t7 66.5t-7 66.5t-23 64.5t-42.5 48.5t-64.5 18.5
q-39 0 -65 -18.5t-41.5 -48.5t-22.5 -64.5t-7 -66.5zM499 318h228q2 62 -26 95t-78 33q-34 0 -60 -19t-42 -48.5t-22 -60.5z" />
    <glyph glyph-name="Racute" unicode="&#x154;" horiz-adv-x="591" 
d="M71 728h217q69 0 125 -17.5t88.5 -61.5t32.5 -122q0 -40 -19 -77t-50.5 -64.5t-69.5 -39.5l204 -346h-108l-188 327h-125v-327h-93v662zM178 659v-264h80q50 0 90.5 11.5t64.5 41.5t24 85q0 43 -21 70.5t-55 41.5t-73 14h-110zM353 905h122l-140 -131h-78z" />
    <glyph glyph-name="racute" unicode="&#x155;" horiz-adv-x="349" 
d="M139 506q18 -44 23 -93q26 41 70 67t93 26l-20 -88q-48 0 -81.5 -25t-59.5 -63v-330h-83v360q0 20 -3 45t-10 49t-19 41zM226 733h122l-140 -152h-78z" />
    <glyph glyph-name="uni0156" unicode="&#x156;" horiz-adv-x="591" 
d="M71 728h217q69 0 125 -17.5t88.5 -61.5t32.5 -122q0 -40 -19 -77t-50.5 -64.5t-69.5 -39.5l204 -346h-108l-188 327h-125v-327h-93v662zM178 659v-264h80q50 0 90.5 11.5t64.5 41.5t24 85q0 43 -21 70.5t-55 41.5t-73 14h-110zM305 -77q30 0 46.5 -21t16.5 -50
q0 -43 -25.5 -78t-59.5 -60l-29 28q11 11 26 27.5t15 32.5q0 11 -10.5 19.5t-21 20t-10.5 31.5q0 22 15.5 36t36.5 14z" />
    <glyph glyph-name="uni0157" unicode="&#x157;" horiz-adv-x="349" 
d="M139 506q18 -44 23 -93q26 41 70 67t93 26l-20 -88q-48 0 -81.5 -25t-59.5 -63v-330h-83v360q0 20 -3 45t-10 49t-19 41zM119 -77q30 0 46.5 -21t16.5 -50q0 -43 -25.5 -78t-59.5 -60l-29 28q11 11 26 27.5t15 32.5q0 11 -10.5 19.5t-21 20t-10.5 31.5q0 22 15.5 36
t36.5 14z" />
    <glyph glyph-name="Rcaron" unicode="&#x158;" horiz-adv-x="591" 
d="M71 728h217q69 0 125 -17.5t88.5 -61.5t32.5 -122q0 -40 -19 -77t-50.5 -64.5t-69.5 -39.5l204 -346h-108l-188 327h-125v-327h-93v662zM178 659v-264h80q50 0 90.5 11.5t64.5 41.5t24 85q0 43 -21 70.5t-55 41.5t-73 14h-110zM296 845l76 61h67l-102 -134h-83l-106 135
h69z" />
    <glyph glyph-name="rcaron" unicode="&#x159;" horiz-adv-x="349" 
d="M139 506q18 -44 23 -93q26 41 70 67t93 26l-20 -88q-48 0 -81.5 -25t-59.5 -63v-330h-83v360q0 20 -3 45t-10 49t-19 41zM178 652l76 81h67l-102 -154h-83l-106 155h69z" />
    <glyph glyph-name="Sacute" unicode="&#x15a;" horiz-adv-x="516" 
d="M280 738q50 0 97.5 -14t90.5 -40l-46 -67q-31 23 -67.5 36.5t-75.5 13.5q-53 0 -90 -26.5t-37 -84.5q0 -32 17.5 -54.5t46.5 -39.5t63 -33q35 -16 71.5 -35t67 -44.5t49 -62t18.5 -89.5q0 -72 -35 -118.5t-92 -69t-123 -22.5q-54 0 -104.5 14.5t-98.5 39.5l36 82
q33 -28 80 -46t90 -18q33 0 67 12.5t57 40.5t23 72t-21 72.5t-55 48t-72 37.5q-33 16 -66 33t-60 40t-43 55t-16 77q0 63 33.5 105t86 63.5t108.5 21.5zM320 905h122l-140 -131h-78z" />
    <glyph glyph-name="sacute" unicode="&#x15b;" horiz-adv-x="430" 
d="M244 509q34 0 67.5 -8.5t61.5 -26.5l-29 -64q-22 18 -49 27t-53 9q-37 0 -64.5 -17t-27.5 -51q0 -24 11.5 -40t30.5 -27t41 -22q25 -12 50.5 -24.5t47 -30t35 -42t13.5 -60.5q0 -50 -24.5 -82.5t-64 -47.5t-85.5 -15q-40 0 -80 11t-74 31l35 61q24 -18 54 -29t58 -11
q38 0 66.5 18t28.5 54q0 25 -15.5 41.5t-39.5 29.5t-50 25q-30 15 -58.5 32.5t-46.5 44.5t-18 69q0 48 25.5 80t66.5 48.5t87 16.5zM273 733h122l-140 -152h-78z" />
    <glyph glyph-name="Scircumflex" unicode="&#x15c;" horiz-adv-x="516" 
d="M280 738q50 0 97.5 -14t90.5 -40l-46 -67q-31 23 -67.5 36.5t-75.5 13.5q-53 0 -90 -26.5t-37 -84.5q0 -32 17.5 -54.5t46.5 -39.5t63 -33q35 -16 71.5 -35t67 -44.5t49 -62t18.5 -89.5q0 -72 -35 -118.5t-92 -69t-123 -22.5q-54 0 -104.5 14.5t-98.5 39.5l36 82
q33 -28 80 -46t90 -18q33 0 67 12.5t57 40.5t23 72t-21 72.5t-55 48t-72 37.5q-33 16 -66 33t-60 40t-43 55t-16 77q0 63 33.5 105t86 63.5t108.5 21.5zM263 834l-79 -62h-69l106 135h83l102 -134h-67z" />
    <glyph glyph-name="scircumflex" unicode="&#x15d;" horiz-adv-x="430" 
d="M244 509q34 0 67.5 -8.5t61.5 -26.5l-29 -64q-22 18 -49 27t-53 9q-37 0 -64.5 -17t-27.5 -51q0 -24 11.5 -40t30.5 -27t41 -22q25 -12 50.5 -24.5t47 -30t35 -42t13.5 -60.5q0 -50 -24.5 -82.5t-64 -47.5t-85.5 -15q-40 0 -80 11t-74 31l35 61q24 -18 54 -29t58 -11
q38 0 66.5 18t28.5 54q0 25 -15.5 41.5t-39.5 29.5t-50 25q-30 15 -58.5 32.5t-46.5 44.5t-18 69q0 48 25.5 80t66.5 48.5t87 16.5zM220 661l-76 -81h-67l102 154h83l106 -155h-69z" />
    <glyph glyph-name="Scedilla" unicode="&#x15e;" horiz-adv-x="516" 
d="M280 738q50 0 97.5 -14t90.5 -40l-46 -67q-31 23 -67.5 36.5t-75.5 13.5q-53 0 -90 -26.5t-37 -84.5q0 -32 17.5 -54.5t46.5 -39.5t63 -33q35 -16 71.5 -35t67 -44.5t49 -62t18.5 -89.5q0 -72 -35 -118.5t-92 -69t-123 -22.5q-54 0 -104.5 14.5t-98.5 39.5l36 82
q33 -28 80 -46t90 -18q33 0 67 12.5t57 40.5t23 72t-21 72.5t-55 48t-72 37.5q-33 16 -66 33t-60 40t-43 55t-16 77q0 63 33.5 105t86 63.5t108.5 21.5zM247 9h47l-29 -55q55 0 85 -21.5t30 -59.5q0 -46 -34.5 -69.5t-80.5 -23.5q-25 0 -51 7t-49 21l24 46
q15 -11 31.5 -16.5t31.5 -5.5q19 0 32 9.5t13 28.5q0 21 -13 33t-42 12q-10 0 -22 -1.5t-26 -4.5z" />
    <glyph glyph-name="scedilla" unicode="&#x15f;" horiz-adv-x="430" 
d="M244 509q34 0 67.5 -8.5t61.5 -26.5l-29 -64q-22 18 -49 27t-53 9q-37 0 -64.5 -17t-27.5 -51q0 -24 11.5 -40t30.5 -27t41 -22q25 -12 50.5 -24.5t47 -30t35 -42t13.5 -60.5q0 -50 -24.5 -82.5t-64 -47.5t-85.5 -15q-40 0 -80 11t-74 31l35 61q24 -18 54 -29t58 -11
q38 0 66.5 18t28.5 54q0 25 -15.5 41.5t-39.5 29.5t-50 25q-30 15 -58.5 32.5t-46.5 44.5t-18 69q0 48 25.5 80t66.5 48.5t87 16.5zM205 9h47l-29 -55q55 0 85 -21.5t30 -59.5q0 -46 -34.5 -69.5t-80.5 -23.5q-25 0 -51 7t-49 21l24 46q15 -11 31.5 -16.5t31.5 -5.5
q19 0 32 9.5t13 28.5q0 21 -13 33t-42 12q-10 0 -22 -1.5t-26 -4.5z" />
    <glyph glyph-name="Scaron" unicode="&#x160;" horiz-adv-x="516" 
d="M280 738q50 0 97.5 -14t90.5 -40l-46 -67q-31 23 -67.5 36.5t-75.5 13.5q-53 0 -90 -26.5t-37 -84.5q0 -32 17.5 -54.5t46.5 -39.5t63 -33q35 -16 71.5 -35t67 -44.5t49 -62t18.5 -89.5q0 -72 -35 -118.5t-92 -69t-123 -22.5q-54 0 -104.5 14.5t-98.5 39.5l36 82
q33 -28 80 -46t90 -18q33 0 67 12.5t57 40.5t23 72t-21 72.5t-55 48t-72 37.5q-33 16 -66 33t-60 40t-43 55t-16 77q0 63 33.5 105t86 63.5t108.5 21.5zM263 845l76 61h67l-102 -134h-83l-106 135h69z" />
    <glyph glyph-name="scaron" unicode="&#x161;" horiz-adv-x="430" 
d="M244 509q34 0 67.5 -8.5t61.5 -26.5l-29 -64q-22 18 -49 27t-53 9q-37 0 -64.5 -17t-27.5 -51q0 -24 11.5 -40t30.5 -27t41 -22q25 -12 50.5 -24.5t47 -30t35 -42t13.5 -60.5q0 -50 -24.5 -82.5t-64 -47.5t-85.5 -15q-40 0 -80 11t-74 31l35 61q24 -18 54 -29t58 -11
q38 0 66.5 18t28.5 54q0 25 -15.5 41.5t-39.5 29.5t-50 25q-30 15 -58.5 32.5t-46.5 44.5t-18 69q0 48 25.5 80t66.5 48.5t87 16.5zM225 652l76 81h67l-102 -154h-83l-106 155h69z" />
    <glyph glyph-name="uni0162" unicode="&#x162;" horiz-adv-x="578" 
d="M240 659h-216v69h530v-69h-219v-659h-95v659zM267 9h47l-29 -55q55 0 85 -21.5t30 -59.5q0 -46 -34.5 -69.5t-80.5 -23.5q-25 0 -51 7t-49 21l24 46q15 -11 31.5 -16.5t31.5 -5.5q19 0 32 9.5t13 28.5q0 21 -13 33t-42 12q-10 0 -22 -1.5t-26 -4.5z" />
    <glyph glyph-name="uni0163" unicode="&#x163;" horiz-adv-x="327" 
d="M197 639q-7 -34 -12.5 -70.5t-7.5 -71.5h130l-17 -63h-113v-318q0 -19 4.5 -33.5t16 -22t32.5 -7.5q16 0 32 3t31 7l14 -56q-25 -7 -47.5 -12.5t-51.5 -5.5q-64 0 -89 34t-25 95v316h-74v50q30 1 50 16t33 38.5t21 50t12 50.5h61zM152 9h47l-29 -55q55 0 85 -21.5
t30 -59.5q0 -46 -34.5 -69.5t-80.5 -23.5q-25 0 -51 7t-49 21l24 46q15 -11 31.5 -16.5t31.5 -5.5q19 0 32 9.5t13 28.5q0 21 -13 33t-42 12q-10 0 -22 -1.5t-26 -4.5z" />
    <glyph glyph-name="Tcaron" unicode="&#x164;" horiz-adv-x="578" 
d="M240 659h-216v69h530v-69h-219v-659h-95v659zM288 845l76 61h67l-102 -134h-83l-106 135h69z" />
    <glyph glyph-name="tcaron" unicode="&#x165;" horiz-adv-x="327" 
d="M197 639q-7 -34 -12.5 -70.5t-7.5 -71.5h130l-17 -63h-113v-318q0 -19 4.5 -33.5t16 -22t32.5 -7.5q16 0 32 3t31 7l14 -56q-25 -7 -47.5 -12.5t-51.5 -5.5q-64 0 -89 34t-25 95v316h-74v50q30 1 50 16t33 38.5t21 50t12 50.5h61zM263 733h112l-49 -152h-73z" />
    <glyph glyph-name="Tbar" unicode="&#x166;" horiz-adv-x="578" 
d="M240 659h-216v69h530v-69h-219v-659h-95v659zM127 399h321v-65h-321v65z" />
    <glyph glyph-name="tbar" unicode="&#x167;" horiz-adv-x="327" 
d="M197 639q-7 -34 -12.5 -70.5t-7.5 -71.5h130l-17 -63h-113v-318q0 -19 4.5 -33.5t16 -22t32.5 -7.5q16 0 32 3t31 7l14 -56q-25 -7 -47.5 -12.5t-51.5 -5.5q-64 0 -89 34t-25 95v316h-74v50q30 1 50 16t33 38.5t21 50t12 50.5h61zM22 297h277v-65h-277v65z" />
    <glyph glyph-name="Utilde" unicode="&#x168;" horiz-adv-x="707" 
d="M181 728v-484q0 -85 42 -136t132 -51q62 0 104 25.5t63 71t21 104.5v470h77v-470q0 -84 -31.5 -144.5t-91.5 -93t-146 -32.5q-125 0 -195 65t-70 191v418l-15 66h110zM514 882q-2 -22 -12.5 -45t-28.5 -38.5t-44 -15.5q-28 0 -52.5 10t-47.5 19.5t-49 9.5q-13 0 -21 -8
t-13 -19h-49q3 25 15 47.5t32 37.5t47 15t51 -9.5t46.5 -19.5t42.5 -10q12 0 22 7.5t14 18.5h47z" />
    <glyph glyph-name="utilde" unicode="&#x169;" horiz-adv-x="553" 
d="M163 497v-306q0 -29 5 -59.5t22.5 -50.5t55.5 -20q37 0 67.5 16t49.5 44.5t19 66.5v250q0 1 -3 14.5t-6 28t-4 16.5h96v-400q0 -19 6.5 -28t20.5 -9t38 9l18 -54q-20 -11 -44.5 -17.5t-46.5 -6.5q-26 0 -46 15t-26 53q-29 -30 -69.5 -51t-83.5 -21q-55 0 -88.5 23
t-48.5 62.5t-15 91.5v274l-13 59h96zM429 701q-2 -22 -12.5 -45t-28.5 -38.5t-44 -15.5q-28 0 -52.5 10t-47.5 19.5t-49 9.5q-13 0 -21 -8t-13 -19h-49q3 25 15 47.5t32 37.5t47 15t51 -9.5t46.5 -19.5t42.5 -10q12 0 22 7.5t14 18.5h47z" />
    <glyph glyph-name="Umacron" unicode="&#x16a;" horiz-adv-x="707" 
d="M181 728v-484q0 -85 42 -136t132 -51q62 0 104 25.5t63 71t21 104.5v470h77v-470q0 -84 -31.5 -144.5t-91.5 -93t-146 -32.5q-125 0 -195 65t-70 191v418l-15 66h110zM206 871h304v-64h-304v64z" />
    <glyph glyph-name="umacron" unicode="&#x16b;" horiz-adv-x="553" 
d="M163 497v-306q0 -29 5 -59.5t22.5 -50.5t55.5 -20q37 0 67.5 16t49.5 44.5t19 66.5v250q0 1 -3 14.5t-6 28t-4 16.5h96v-400q0 -19 6.5 -28t20.5 -9t38 9l18 -54q-20 -11 -44.5 -17.5t-46.5 -6.5q-26 0 -46 15t-26 53q-29 -30 -69.5 -51t-83.5 -21q-55 0 -88.5 23
t-48.5 62.5t-15 91.5v274l-13 59h96zM118 689h304v-64h-304v64z" />
    <glyph glyph-name="Ubreve" unicode="&#x16c;" horiz-adv-x="707" 
d="M181 728v-484q0 -85 42 -136t132 -51q62 0 104 25.5t63 71t21 104.5v470h77v-470q0 -84 -31.5 -144.5t-91.5 -93t-146 -32.5q-125 0 -195 65t-70 191v418l-15 66h110zM503 899q-4 -34 -20.5 -61t-46 -42.5t-74.5 -15.5q-43 0 -72.5 15.5t-45.5 42.5t-20 61h50
q6 -24 30 -37t60 -13t59 13t31 37h49z" />
    <glyph glyph-name="ubreve" unicode="&#x16d;" horiz-adv-x="553" 
d="M163 497v-306q0 -29 5 -59.5t22.5 -50.5t55.5 -20q37 0 67.5 16t49.5 44.5t19 66.5v250q0 1 -3 14.5t-6 28t-4 16.5h96v-400q0 -19 6.5 -28t20.5 -9t38 9l18 -54q-20 -11 -44.5 -17.5t-46.5 -6.5q-26 0 -46 15t-26 53q-29 -30 -69.5 -51t-83.5 -21q-55 0 -88.5 23
t-48.5 62.5t-15 91.5v274l-13 59h96zM418 728q-4 -42 -20 -73.5t-45 -48.5t-74 -17q-65 0 -99 39t-41 100h50q8 -36 31 -53t59 -17t59 17.5t31 52.5h49z" />
    <glyph glyph-name="Uring" unicode="&#x16e;" horiz-adv-x="707" 
d="M181 728v-484q0 -85 42 -136t132 -51q62 0 104 25.5t63 71t21 104.5v470h77v-470q0 -84 -31.5 -144.5t-91.5 -93t-146 -32.5q-125 0 -195 65t-70 191v418l-15 66h110zM359 989q28 0 50 -13.5t35.5 -36t13.5 -50.5q0 -40 -29 -69.5t-70 -29.5q-40 0 -69.5 29.5t-29.5 69.5
q0 27 13.5 50t36 36.5t49.5 13.5zM359 937q-20 0 -34 -14t-14 -34t14 -34t34 -14t34 14.5t14 33.5q0 20 -14 34t-34 14z" />
    <glyph glyph-name="uring" unicode="&#x16f;" horiz-adv-x="553" 
d="M163 497v-306q0 -29 5 -59.5t22.5 -50.5t55.5 -20q37 0 67.5 16t49.5 44.5t19 66.5v250q0 1 -3 14.5t-6 28t-4 16.5h96v-400q0 -19 6.5 -28t20.5 -9t38 9l18 -54q-20 -11 -44.5 -17.5t-46.5 -6.5q-26 0 -46 15t-26 53q-29 -30 -69.5 -51t-83.5 -21q-55 0 -88.5 23
t-48.5 62.5t-15 91.5v274l-13 59h96zM274 758q28 0 50 -13.5t35.5 -36t13.5 -50.5q0 -40 -29 -69.5t-70 -29.5q-40 0 -69.5 29.5t-29.5 69.5q0 27 13.5 50t36 36.5t49.5 13.5zM274 706q-20 0 -34 -14t-14 -34t14 -34t34 -14t34 14.5t14 33.5q0 20 -14 34t-34 14z" />
    <glyph glyph-name="Uhungarumlaut" unicode="&#x170;" horiz-adv-x="707" 
d="M181 728v-484q0 -85 42 -136t132 -51q62 0 104 25.5t63 71t21 104.5v470h77v-470q0 -84 -31.5 -144.5t-91.5 -93t-146 -32.5q-125 0 -195 65t-70 191v418l-15 66h110zM337 905h118l-137 -131h-62zM479 905h117l-137 -131h-61z" />
    <glyph glyph-name="uhungarumlaut" unicode="&#x171;" horiz-adv-x="553" 
d="M163 497v-306q0 -29 5 -59.5t22.5 -50.5t55.5 -20q37 0 67.5 16t49.5 44.5t19 66.5v250q0 1 -3 14.5t-6 28t-4 16.5h96v-400q0 -19 6.5 -28t20.5 -9t38 9l18 -54q-20 -11 -44.5 -17.5t-46.5 -6.5q-26 0 -46 15t-26 53q-29 -30 -69.5 -51t-83.5 -21q-55 0 -88.5 23
t-48.5 62.5t-15 91.5v274l-13 59h96zM252 733h118l-137 -152h-62zM394 733h117l-137 -152h-61z" />
    <glyph glyph-name="Uogonek" unicode="&#x172;" horiz-adv-x="707" 
d="M181 728v-484q0 -85 42 -136t132 -51q62 0 104 25.5t63 71t21 104.5v470h77v-470q0 -84 -31.5 -144.5t-91.5 -93t-146 -32.5q-125 0 -195 65t-70 191v418l-15 66h110zM506 -152q-28 -22 -62 -36t-71 -14q-40 0 -68 20.5t-28 63.5q0 29 19.5 53t49.5 43t61.5 31t55.5 16
l20 -11q-15 -9 -36 -20.5t-41 -25.5t-33 -31.5t-13 -38.5q0 -22 13.5 -33.5t35.5 -11.5q19 0 41.5 11t38.5 21z" />
    <glyph glyph-name="uogonek" unicode="&#x173;" horiz-adv-x="553" 
d="M163 497v-306q0 -29 5 -59.5t22.5 -50.5t55.5 -20q37 0 67.5 16t49.5 44.5t19 66.5v250q0 1 -3 14.5t-6 28t-4 16.5h96v-400q0 -19 6.5 -28t20.5 -9t38 9l18 -54q-20 -11 -44.5 -17.5t-46.5 -6.5q-26 0 -46 15t-26 53q-29 -30 -69.5 -51t-83.5 -21q-55 0 -88.5 23
t-48.5 62.5t-15 91.5v274l-13 59h96zM556 -152q-28 -22 -62 -36t-71 -14q-40 0 -68 20.5t-28 63.5q0 29 19.5 53t49.5 43t61.5 31t55.5 16l20 -11q-15 -9 -36 -20.5t-41 -25.5t-33 -31.5t-13 -38.5q0 -22 13.5 -33.5t35.5 -11.5q19 0 41.5 11t38.5 21z" />
    <glyph glyph-name="Wcircumflex" unicode="&#x174;" horiz-adv-x="894" 
d="M119 728l122 -451q8 -27 15 -54.5t14 -62.5q7 32 13 57.5t13 50.5l124 460h74l122 -455q7 -25 14 -52.5t14 -60.5q7 32 13 57t13 49l125 462h78l-199 -733h-77l-127 465q-5 20 -11 41.5t-11 49.5q-6 -28 -11.5 -50.5t-11.5 -43.5l-125 -462h-77l-202 733h98zM458 834
l-79 -62h-69l106 135h83l102 -134h-67z" />
    <glyph glyph-name="wcircumflex" unicode="&#x175;" horiz-adv-x="658" 
d="M99 497l86 -289q4 -13 7.5 -27t7.5 -34q4 20 7.5 33.5t7.5 25.5l91 291h59l87 -289q4 -13 7.5 -27t7.5 -34q4 20 8 34t8 27l89 289h74l-157 -503h-60q-17 58 -34 111.5t-33 110.5t-34 127q-18 -70 -35.5 -127t-35 -110.5t-36.5 -111.5h-61l-147 503h86zM335 661l-76 -81
h-67l102 154h83l106 -155h-69z" />
    <glyph glyph-name="Ycircumflex" unicode="&#x176;" horiz-adv-x="584" 
d="M140 728l169 -283l157 283h87l-209 -368v-360h-95v360l-217 368h108zM300 834l-79 -62h-69l106 135h83l102 -134h-67z" />
    <glyph glyph-name="ycircumflex" unicode="&#x177;" horiz-adv-x="456" 
d="M102 497q22 -62 43.5 -124t43.5 -127q11 -34 22.5 -68.5t22.5 -68.5q11 35 22.5 69t22.5 68q22 65 43.5 127t43.5 124h78l-176 -499q-11 -31 -28 -68.5t-40 -70.5t-54 -54.5t-70 -21.5h-38v67h5.5h5.5q42 0 69.5 25t45.5 60.5t30 68.5l-182 493h90zM233 661l-76 -81h-67
l102 154h83l106 -155h-69z" />
    <glyph glyph-name="Ydieresis" unicode="&#x178;" horiz-adv-x="584" 
d="M140 728l169 -283l157 283h87l-209 -368v-360h-95v360l-217 368h108zM274 838q0 -23 -17 -40t-40 -17t-39.5 17t-16.5 40t16.5 40t39.5 17q24 0 40.5 -16.5t16.5 -40.5zM437 838q0 -23 -17 -40t-40 -17t-39.5 17t-16.5 40t16.5 40t39.5 17q24 0 40.5 -16.5t16.5 -40.5z
" />
    <glyph glyph-name="Zacute" unicode="&#x179;" horiz-adv-x="571" 
d="M57 728h467v-67l-378 -592h391l-8 -69h-494v67l378 592h-356v69zM344 905h122l-140 -131h-78z" />
    <glyph glyph-name="zacute" unicode="&#x17a;" horiz-adv-x="445" 
d="M55 497h346v-48l-258 -386h270l-11 -63h-370v47l257 386h-234v64zM279 733h122l-140 -152h-78z" />
    <glyph glyph-name="Zdotaccent" unicode="&#x17b;" horiz-adv-x="571" 
d="M57 728h467v-67l-378 -592h391l-8 -69h-494v67l378 592h-356v69zM343 838q0 -23 -17 -40t-40 -17t-39.5 17t-16.5 40t16.5 40t39.5 17q24 0 40.5 -16.5t16.5 -40.5z" />
    <glyph glyph-name="zdotaccent" unicode="&#x17c;" horiz-adv-x="445" 
d="M55 497h346v-48l-258 -386h270l-11 -63h-370v47l257 386h-234v64zM282 657q0 -23 -17 -40t-40 -17t-39.5 17t-16.5 40t16.5 40t39.5 17q24 0 40.5 -16.5t16.5 -40.5z" />
    <glyph glyph-name="Zcaron" unicode="&#x17d;" horiz-adv-x="571" 
d="M57 728h467v-67l-378 -592h391l-8 -69h-494v67l378 592h-356v69zM287 845l76 61h67l-102 -134h-83l-106 135h69z" />
    <glyph glyph-name="zcaron" unicode="&#x17e;" horiz-adv-x="445" 
d="M55 497h346v-48l-258 -386h270l-11 -63h-370v47l257 386h-234v64zM231 652l76 81h67l-102 -154h-83l-106 155h69z" />
    <glyph glyph-name="longs" unicode="&#x17f;" horiz-adv-x="288" 
d="M303 770q28 0 50.5 -5.5t46.5 -19.5l-23 -62q-13 12 -33.5 18.5t-38.5 6.5q-35 0 -58.5 -13.5t-37.5 -35.5t-21 -49.5t-9 -57t-2 -55.5v-497h-82v435h-75v52q16 2 32.5 3.5t28.5 9.5t16 27q10 46 15 74.5t14 50.5t29 48q25 32 62 51t86 19z" />
    <glyph glyph-name="uni018F" unicode="&#x18f;" horiz-adv-x="726" 
d="M161 362q-3 -16 -4.5 -33t-1.5 -34q0 -61 21 -115.5t66 -88.5t116 -34q64 0 107 27t69 72t37.5 99t11.5 108q0 105 -30.5 172.5t-81 100t-110.5 32.5q-53 0 -108.5 -26t-102.5 -76l-55 62q60 55 130 82.5t139 27.5q63 0 119.5 -23t101 -69.5t70 -117t25.5 -165.5
q0 -75 -20 -142.5t-60 -119.5t-100.5 -82t-142.5 -30q-99 0 -165.5 44t-99.5 118t-33 162q0 12 1 24.5t2 25.5zM62 363h565v-71h-530z" />
    <glyph glyph-name="uni0191" unicode="&#x191;" horiz-adv-x="510" 
d="M-25 -159q39 6 61.5 28t33 53.5t13.5 66.5t3 66v607l-15 66h404v-69h-296v-251h235v-68h-235v-279q0 -52 -7.5 -99t-28 -83.5t-58 -60t-98.5 -29.5z" />
    <glyph glyph-name="florin" unicode="&#x192;" horiz-adv-x="377" 
d="M331 697q24 0 47.5 -6.5t43.5 -20.5l-20 -70q-43 33 -75 33q-30 0 -49.5 -25.5t-31.5 -65.5t-20 -86h142l-18 -63h-133l-71 -424q-15 -90 -52 -140.5t-106 -50.5q-10 0 -22 1.5t-24 3.5l17 60q26 0 44.5 7.5t30.5 28t18 58.5l79 456h-78v53q29 2 45.5 2.5t26.5 7.5t19 27
q10 23 18 53.5t21.5 62.5t38.5 57q20 20 49 30.5t60 10.5z" />
    <glyph glyph-name="uni019D" unicode="&#x19d;" horiz-adv-x="714" 
d="M-23 -160q43 7 65.5 29t32 53t11 66t1.5 67v607l-15 66l2 -3l-1 3h124l318 -489q9 -14 19 -29.5t20 -29.5q-1 17 -2 34.5t-1 33.5v480h76v-733h-59l-371 568q-8 13 -17.5 27.5t-19.5 27.5q2 -16 2.5 -32.5t0.5 -32.5v-492q0 -52 -4.5 -99t-20.5 -83.5t-51.5 -60
t-98.5 -29.5z" />
    <glyph glyph-name="Ohorn" unicode="&#x1a0;" horiz-adv-x="737" 
d="M368 -11q-81 0 -141.5 30t-100.5 82.5t-60 119.5t-20 142t19.5 142.5t59.5 120t101 82.5t143 30t142.5 -30t100.5 -82.5t59.5 -120t19.5 -142.5t-20 -142.5t-60 -119.5t-100.5 -82t-142.5 -30zM369 57q64 0 107 27t69 72t37.5 99t11.5 108t-11.5 108t-37.5 98.5
t-69.5 71.5t-106.5 27t-106.5 -27t-69 -72t-37 -99t-11.5 -108t11.5 -107.5t37 -98.5t69 -72t106.5 -27zM478 721q43 -15 71.5 -1t41 47.5t7.5 75.5h99q3 -37 -9 -75t-39 -67.5t-69.5 -41.5t-101.5 1v61z" />
    <glyph glyph-name="ohorn" unicode="&#x1a1;" horiz-adv-x="537" 
d="M265 -13q-73 0 -122.5 36.5t-74 95.5t-24.5 126q0 50 15 97.5t44 85t71.5 59.5t96.5 22q74 0 123.5 -36t74 -95t24.5 -127q0 -51 -15 -98.5t-43.5 -84.5t-71 -59t-98.5 -22zM266 50q39 0 65.5 18.5t43 48.5t23.5 64.5t7 66.5q0 33 -6.5 67.5t-21.5 64t-41.5 48
t-65.5 18.5t-65.5 -18.5t-42.5 -48.5t-23 -64.5t-7 -66.5q0 -31 7 -65.5t22.5 -64.5t41.5 -49t63 -19zM345 496q38 -15 64 -3.5t38.5 42.5t7.5 73h99q2 -37 -11 -73t-39.5 -63t-66 -37t-92.5 3v58z" />
    <glyph glyph-name="Uhorn" unicode="&#x1af;" horiz-adv-x="707" 
d="M181 728v-484q0 -85 42 -136t132 -51q62 0 104 25.5t63 71t21 104.5v470h77v-470q0 -84 -31.5 -144.5t-91.5 -93t-146 -32.5q-125 0 -195 65t-70 191v418l-15 66h110zM543 736q43 -15 71.5 -1t41 47.5t7.5 75.5h99q3 -37 -9 -75t-39 -67.5t-69.5 -41.5t-101.5 1v61z" />
    <glyph glyph-name="uhorn" unicode="&#x1b0;" horiz-adv-x="553" 
d="M232 -13q-55 0 -88.5 23t-48.5 62.5t-15 91.5v274l-13 59h96v-306q0 -29 5 -59.5t22.5 -50.5t55.5 -20q37 0 67.5 16t49.5 44.5t19 66.5v250l-13 59h96v-400q0 -12 1.5 -20.5t6.5 -13t14 -4.5q1 0 11.5 3t22 6.5t13.5 4.5l17 -52q-22 -8 -47 -19t-49 -11q-31 0 -48 20
t-22 48q-29 -30 -69.5 -51t-83.5 -21zM381 448l39 49q38 0 57.5 34.5t13.5 86.5h99q2 -37 -11 -73t-39.5 -63t-66 -37t-92.5 3z" />
    <glyph glyph-name="uni01C4" unicode="&#x1c4;" horiz-adv-x="1270" 
d="M653 362q0 -105 -35.5 -186.5t-108.5 -128.5t-186 -47h-237v662q0 1 -3.5 16t-6.5 31t-4 19h187q91 0 164 -20.5t124.5 -64t78.5 -113t27 -168.5zM556 364q0 79 -19.5 135t-58 91.5t-95 52t-131.5 16.5h-73v-590h132q91 0 144.5 40t77 107t23.5 148zM756 728h467v-67
l-378 -592h391l-8 -69h-494v67l378 592h-356v69zM986 845l76 61h67l-102 -134h-83l-106 135h69z" />
    <glyph glyph-name="uni01C5" unicode="&#x1c5;" horiz-adv-x="1144" 
d="M653 362q0 -105 -35.5 -186.5t-108.5 -128.5t-186 -47h-237v662q0 1 -3.5 16t-6.5 31t-4 19h187q91 0 164 -20.5t124.5 -64t78.5 -113t27 -168.5zM556 364q0 79 -19.5 135t-58 91.5t-95 52t-131.5 16.5h-73v-590h132q91 0 144.5 40t77 107t23.5 148zM754 497h346v-48
l-258 -386h270l-11 -63h-370v47l257 386h-234v64zM930 652l76 81h67l-102 -154h-83l-106 155h69z" />
    <glyph glyph-name="uni01C6" unicode="&#x1c6;" horiz-adv-x="1003" 
d="M267 508q34 0 68 -11t59 -34q-1 14 -1.5 27.5t-0.5 26.5v186l-14 59h96v-619q0 -21 3 -47t10 -50.5t18 -43.5l-88 -11q-7 17 -12 34t-7 34q-26 -34 -65 -53t-82 -19q-52 0 -91 22t-64.5 59.5t-38 83t-12.5 92.5q0 51 13.5 98.5t41 84.5t69.5 59t98 22zM269 440
q-39 0 -65.5 -17t-42 -45t-22 -61.5t-6.5 -66.5q0 -34 7.5 -67.5t24 -61.5t44 -44.5t67.5 -16.5q35 0 64.5 20.5t51.5 45.5v168q0 40 -12.5 73t-39.5 53t-71 20zM613 497h346v-48l-258 -386h270l-11 -63h-370v47l257 386h-234v64zM789 652l76 81h67l-102 -154h-83l-106 155
h69z" />
    <glyph glyph-name="uni01C7" unicode="&#x1c7;" horiz-adv-x="782" 
d="M72 728h107v-659h306v-69h-399v662zM587 728h108v-667q0 -52 -7.5 -99t-28 -83.5t-58 -60t-98.5 -29.5l-13 59q39 6 62 27t33.5 51t13.5 64t3 65v607z" />
    <glyph glyph-name="uni01C8" unicode="&#x1c8;" horiz-adv-x="765" 
d="M72 728h107v-659h306v-69h-399v662zM701 664q0 -25 -17.5 -43t-43.5 -18q-25 0 -43 18t-18 43t18 43t43 18t43 -18t18 -43zM681 497v-472q0 -38 -5 -79.5t-19.5 -78.5t-42.5 -63t-75 -32l-14 40q37 19 52 52.5t18 73t3 75.5v425l-13 59h96z" />
    <glyph glyph-name="uni01C9" unicode="&#x1c9;" horiz-adv-x="502" 
d="M167 762v-762h-83v704l-13 58h96zM438 664q0 -25 -17.5 -43t-43.5 -18q-25 0 -43 18t-18 43t18 43t43 18t43 -18t18 -43zM418 497v-472q0 -38 -5 -79.5t-19.5 -78.5t-42.5 -63t-75 -32l-14 40q37 19 52 52.5t18 73t3 75.5v425l-13 59h96z" />
    <glyph glyph-name="uni01CA" unicode="&#x1ca;" horiz-adv-x="982" 
d="M197 728l318 -489q9 -14 19 -29.5t20 -29.5q-1 17 -2 34.5t-1 33.5v480h76v-733h-59l-371 568q-8 13 -17.5 27.5t-19.5 27.5q2 -16 2.5 -32.5t0.5 -32.5v-553h-76v662l-14 66h124zM787 728h108v-667q0 -52 -7.5 -99t-28 -83.5t-58 -60t-98.5 -29.5l-13 59q39 6 62 27
t33.5 51t13.5 64t3 65v607z" />
    <glyph glyph-name="uni01CB" unicode="&#x1cb;" horiz-adv-x="965" 
d="M197 728l318 -489q9 -14 19 -29.5t20 -29.5q-1 17 -2 34.5t-1 33.5v480h76v-733h-59l-371 568q-8 13 -17.5 27.5t-19.5 27.5q2 -16 2.5 -32.5t0.5 -32.5v-553h-76v662l-14 66h124zM901 664q0 -25 -17.5 -43t-43.5 -18q-25 0 -43 18t-18 43t18 43t43 18t43 -18t18 -43z
M881 497v-472q0 -38 -5 -79.5t-19.5 -78.5t-42.5 -63t-75 -32l-14 40q37 19 52 52.5t18 73t3 75.5v425l-13 59h96z" />
    <glyph glyph-name="uni01CC" unicode="&#x1cc;" horiz-adv-x="798" 
d="M138 505q7 -17 12 -35t7 -36q30 30 71 52.5t84 22.5q55 0 88.5 -23t48.5 -62.5t15 -91.5v-332h-82v305q0 31 -4.5 61t-22 49.5t-57.5 19.5q-24 0 -49 -9.5t-47 -24.5t-40 -32v-369h-82v352q0 20 -3 46.5t-10 52t-20 42.5zM734 664q0 -25 -17.5 -43t-43.5 -18
q-25 0 -43 18t-18 43t18 43t43 18t43 -18t18 -43zM714 497v-472q0 -38 -5 -79.5t-19.5 -78.5t-42.5 -63t-75 -32l-14 40q37 19 52 52.5t18 73t3 75.5v425l-13 59h96z" />
    <glyph glyph-name="uni01CD" unicode="&#x1cd;" horiz-adv-x="631" 
d="M362 728l252 -728h-103l-84 250h-240l-85 -250h-84l253 728h91zM308 606l-98 -288h194zM317 845l76 61h67l-102 -134h-83l-106 135h69z" />
    <glyph glyph-name="uni01CE" unicode="&#x1ce;" horiz-adv-x="494" 
d="M253 509q79 0 119 -43t40 -121v-249q0 -21 8 -28.5t19 -7.5q9 0 19 2.5t19 6.5l18 -54q-16 -9 -40.5 -16.5t-50.5 -7.5t-47 14.5t-26 53.5q-29 -31 -68 -50.5t-82 -19.5q-59 0 -98 35t-39 96q0 57 27.5 91t71.5 51t93.5 23t92.5 6v53q0 28 -7 50.5t-25 36t-51 13.5
q-38 0 -73 -15t-70 -44l-41 59q41 33 90 49t101 16zM329 226q-27 0 -61 -2.5t-66 -12t-52.5 -30.5t-20.5 -58q0 -33 22.5 -48.5t56.5 -15.5q36 0 63 20t42.5 51t15.5 64v32zM248 652l76 81h67l-102 -154h-83l-106 155h69z" />
    <glyph glyph-name="uni01CF" unicode="&#x1cf;" horiz-adv-x="268" 
d="M73 728h107v-728h-93v662q0 1 -3.5 16t-6.5 31t-4 19zM134 845l76 61h67l-102 -134h-83l-106 135h69z" />
    <glyph glyph-name="uni01D0" unicode="&#x1d0;" horiz-adv-x="252" 
d="M84 438q0 1 -3 14.5t-5.5 27.5t-3.5 17h95v-497h-83v438zM131 652l76 81h67l-102 -154h-83l-106 155h69z" />
    <glyph glyph-name="uni01D1" unicode="&#x1d1;" horiz-adv-x="737" 
d="M368 -11q-81 0 -141.5 30t-100.5 82.5t-60 119.5t-20 142t19.5 142.5t59.5 120t101 82.5t143 30t142.5 -30t100.5 -82.5t59.5 -120t19.5 -142.5t-20 -142.5t-60 -119.5t-100.5 -82t-142.5 -30zM369 57q64 0 107 27t69 72t37.5 99t11.5 108t-11.5 108t-37.5 98.5
t-69.5 71.5t-106.5 27t-106.5 -27t-69 -72t-37 -99t-11.5 -108t11.5 -107.5t37 -98.5t69 -72t106.5 -27zM370 845l76 61h67l-102 -134h-83l-106 135h69z" />
    <glyph glyph-name="uni01D2" unicode="&#x1d2;" horiz-adv-x="537" 
d="M265 -13q-73 0 -122.5 36.5t-74 95.5t-24.5 126q0 50 15 97.5t44 85t71.5 59.5t96.5 22q74 0 123.5 -36t74 -95t24.5 -127q0 -51 -15 -98.5t-43.5 -84.5t-71 -59t-98.5 -22zM266 50q39 0 65.5 18.5t43 48.5t23.5 64.5t7 66.5q0 33 -6.5 67.5t-21.5 64t-41.5 48
t-65.5 18.5t-65.5 -18.5t-42.5 -48.5t-23 -64.5t-7 -66.5q0 -31 7 -65.5t22.5 -64.5t41.5 -49t63 -19zM271 652l76 81h67l-102 -154h-83l-106 155h69z" />
    <glyph glyph-name="uni01D3" unicode="&#x1d3;" horiz-adv-x="707" 
d="M181 728v-484q0 -85 42 -136t132 -51q62 0 104 25.5t63 71t21 104.5v470h77v-470q0 -84 -31.5 -144.5t-91.5 -93t-146 -32.5q-125 0 -195 65t-70 191v418l-15 66h110zM360 845l76 61h67l-102 -134h-83l-106 135h69z" />
    <glyph glyph-name="uni01D4" unicode="&#x1d4;" horiz-adv-x="553" 
d="M163 497v-306q0 -29 5 -59.5t22.5 -50.5t55.5 -20q37 0 67.5 16t49.5 44.5t19 66.5v250q0 1 -3 14.5t-6 28t-4 16.5h96v-400q0 -19 6.5 -28t20.5 -9t38 9l18 -54q-20 -11 -44.5 -17.5t-46.5 -6.5q-26 0 -46 15t-26 53q-29 -30 -69.5 -51t-83.5 -21q-55 0 -88.5 23
t-48.5 62.5t-15 91.5v274l-13 59h96zM280 652l76 81h67l-102 -154h-83l-106 155h69z" />
    <glyph glyph-name="uni01D5" unicode="&#x1d5;" horiz-adv-x="707" 
d="M181 728v-484q0 -85 42 -136t132 -51q62 0 104 25.5t63 71t21 104.5v470h77v-470q0 -84 -31.5 -144.5t-91.5 -93t-146 -32.5q-125 0 -195 65t-70 191v418l-15 66h110zM208 1014h304v-64h-304v64zM334 839q0 -23 -17 -40t-40 -17t-39.5 17t-16.5 40t16.5 40t39.5 17
q24 0 40.5 -16.5t16.5 -40.5zM497 839q0 -23 -17 -40t-40 -17t-39.5 17t-16.5 40t16.5 40t39.5 17q24 0 40.5 -16.5t16.5 -40.5z" />
    <glyph glyph-name="uni01D6" unicode="&#x1d6;" horiz-adv-x="553" 
d="M163 497v-306q0 -29 5 -59.5t22.5 -50.5t55.5 -20q37 0 67.5 16t49.5 44.5t19 66.5v250q0 1 -3 14.5t-6 28t-4 16.5h96v-400q0 -19 6.5 -28t20.5 -9t38 9l18 -54q-20 -11 -44.5 -17.5t-46.5 -6.5q-26 0 -46 15t-26 53q-29 -30 -69.5 -51t-83.5 -21q-55 0 -88.5 23
t-48.5 62.5t-15 91.5v274l-13 59h96zM123 832h304v-64h-304v64zM249 657q0 -23 -17 -40t-40 -17t-39.5 17t-16.5 40t16.5 40t39.5 17q24 0 40.5 -16.5t16.5 -40.5zM412 657q0 -23 -17 -40t-40 -17t-39.5 17t-16.5 40t16.5 40t39.5 17q24 0 40.5 -16.5t16.5 -40.5z" />
    <glyph glyph-name="uni01D7" unicode="&#x1d7;" horiz-adv-x="707" 
d="M181 728v-484q0 -85 42 -136t132 -51q62 0 104 25.5t63 71t21 104.5v470h77v-470q0 -84 -31.5 -144.5t-91.5 -93t-146 -32.5q-125 0 -195 65t-70 191v418l-15 66h110zM380 1047h112l-100 -112h-68zM334 838q0 -23 -17 -40t-40 -17t-39.5 17t-16.5 40t16.5 40t39.5 17
q24 0 40.5 -16.5t16.5 -40.5zM497 838q0 -23 -17 -40t-40 -17t-39.5 17t-16.5 40t16.5 40t39.5 17q24 0 40.5 -16.5t16.5 -40.5z" />
    <glyph glyph-name="uni01D8" unicode="&#x1d8;" horiz-adv-x="553" 
d="M163 497v-306q0 -29 5 -59.5t22.5 -50.5t55.5 -20q37 0 67.5 16t49.5 44.5t19 66.5v250q0 1 -3 14.5t-6 28t-4 16.5h96v-400q0 -19 6.5 -28t20.5 -9t38 9l18 -54q-20 -11 -44.5 -17.5t-46.5 -6.5q-26 0 -46 15t-26 53q-29 -30 -69.5 -51t-83.5 -21q-55 0 -88.5 23
t-48.5 62.5t-15 91.5v274l-13 59h96zM300 867h112l-100 -112h-68zM249 657q0 -23 -17 -40t-40 -17t-39.5 17t-16.5 40t16.5 40t39.5 17q24 0 40.5 -16.5t16.5 -40.5zM412 657q0 -23 -17 -40t-40 -17t-39.5 17t-16.5 40t16.5 40t39.5 17q24 0 40.5 -16.5t16.5 -40.5z" />
    <glyph glyph-name="uni01D9" unicode="&#x1d9;" horiz-adv-x="707" 
d="M181 728v-484q0 -85 42 -136t132 -51q62 0 104 25.5t63 71t21 104.5v470h77v-470q0 -84 -31.5 -144.5t-91.5 -93t-146 -32.5q-125 0 -195 65t-70 191v418l-15 66h110zM334 838q0 -23 -17 -40t-40 -17t-39.5 17t-16.5 40t16.5 40t39.5 17q24 0 40.5 -16.5t16.5 -40.5z
M497 838q0 -23 -17 -40t-40 -17t-39.5 17t-16.5 40t16.5 40t39.5 17q24 0 40.5 -16.5t16.5 -40.5zM362 1001l76 61h67l-102 -134h-83l-106 135h69z" />
    <glyph glyph-name="uni01DA" unicode="&#x1da;" horiz-adv-x="553" 
d="M163 497v-306q0 -29 5 -59.5t22.5 -50.5t55.5 -20q37 0 67.5 16t49.5 44.5t19 66.5v250q0 1 -3 14.5t-6 28t-4 16.5h96v-400q0 -19 6.5 -28t20.5 -9t38 9l18 -54q-20 -11 -44.5 -17.5t-46.5 -6.5q-26 0 -46 15t-26 53q-29 -30 -69.5 -51t-83.5 -21q-55 0 -88.5 23
t-48.5 62.5t-15 91.5v274l-13 59h96zM277 832l76 81h67l-102 -154h-83l-106 155h69zM249 657q0 -23 -17 -40t-40 -17t-39.5 17t-16.5 40t16.5 40t39.5 17q24 0 40.5 -16.5t16.5 -40.5zM412 657q0 -23 -17 -40t-40 -17t-39.5 17t-16.5 40t16.5 40t39.5 17q24 0 40.5 -16.5
t16.5 -40.5z" />
    <glyph glyph-name="uni01DB" unicode="&#x1db;" horiz-adv-x="707" 
d="M181 728v-484q0 -85 42 -136t132 -51q62 0 104 25.5t63 71t21 104.5v470h77v-470q0 -84 -31.5 -144.5t-91.5 -93t-146 -32.5q-125 0 -195 65t-70 191v418l-15 66h110zM338 1047l56 -112h-68l-100 112h112zM384 838q0 24 16.5 40.5t40.5 16.5q23 0 39.5 -17t16.5 -40
t-16.5 -40t-39.5 -17t-40 17t-17 40zM221 838q0 24 16.5 40.5t40.5 16.5q23 0 39.5 -17t16.5 -40t-16.5 -40t-39.5 -17t-40 17t-17 40z" />
    <glyph glyph-name="uni01DC" unicode="&#x1dc;" horiz-adv-x="553" 
d="M163 497v-306q0 -29 5 -59.5t22.5 -50.5t55.5 -20q37 0 67.5 16t49.5 44.5t19 66.5v250q0 1 -3 14.5t-6 28t-4 16.5h96v-400q0 -19 6.5 -28t20.5 -9t38 9l18 -54q-20 -11 -44.5 -17.5t-46.5 -6.5q-26 0 -46 15t-26 53q-29 -30 -69.5 -51t-83.5 -21q-55 0 -88.5 23
t-48.5 62.5t-15 91.5v274l-13 59h96zM248 867l56 -112h-68l-100 112h112zM299 657q0 24 16.5 40.5t40.5 16.5q23 0 39.5 -17t16.5 -40t-16.5 -40t-39.5 -17t-40 17t-17 40zM136 657q0 24 16.5 40.5t40.5 16.5q23 0 39.5 -17t16.5 -40t-16.5 -40t-39.5 -17t-40 17t-17 40z
" />
    <glyph glyph-name="Gcaron" unicode="&#x1e6;" horiz-adv-x="707" 
d="M385 738q39 0 83.5 -8.5t86 -27t69.5 -47.5l-53 -62q-31 25 -58 41t-56.5 24t-71.5 8q-66 0 -111.5 -25t-74 -68t-41.5 -97t-13 -112q0 -55 12 -108.5t39 -97.5t71 -70t108 -26q53 0 91.5 23.5t60 64t21.5 91.5v66h-179l12 68h261v-209q0 -41 3.5 -83t5.5 -83h-50l-32 76
q-44 -47 -94.5 -67.5t-115.5 -20.5q-79 0 -137.5 29.5t-97.5 81t-58 117.5t-19 139q0 80 21 149.5t63 122t105.5 82t148.5 29.5zM364 845l76 61h67l-102 -134h-83l-106 135h69z" />
    <glyph glyph-name="gcaron" unicode="&#x1e7;" horiz-adv-x="477" 
d="M220 509q29 0 55.5 -7t54.5 -7q38 0 77 4.5t82 10.5l-18 -72h-80q-7 0 -14.5 0.5t-14.5 1.5q17 -23 25.5 -48t8.5 -51q0 -50 -22 -90t-64.5 -62.5t-103.5 -22.5q-25 0 -44 -13t-19 -40q0 -18 9.5 -25.5t23.5 -8.5t28 -1h97q26 0 53.5 -3.5t50.5 -14t37.5 -31t14.5 -55.5
q0 -55 -22 -94t-59 -63.5t-83 -35.5t-93 -11q-28 0 -59 6.5t-58.5 21t-44.5 38.5t-17 60q0 38 23.5 67t54.5 49v3q-22 11 -34.5 30.5t-12.5 41.5q0 13 10 24.5t25.5 30.5t33.5 52q-35 24 -56 61.5t-21 80.5q0 49 24 88t64.5 62t87.5 23zM221 449q-24 0 -44.5 -15t-33 -40
t-12.5 -57t12 -57.5t32.5 -40.5t44.5 -15q41 0 65.5 31t24.5 81q0 32 -12.5 57.5t-32.5 40.5t-44 15zM158 -1q-19 -14 -35 -38.5t-16 -47.5q0 -24 17.5 -41t43 -25.5t47.5 -8.5q26 0 55 5.5t54 17.5t40.5 33t15.5 51q0 26 -16 37.5t-39.5 14t-46.5 2.5h-120zM239 652l76 81
h67l-102 -154h-83l-106 155h69z" />
    <glyph glyph-name="uni01EA" unicode="&#x1ea;" horiz-adv-x="737" 
d="M368 -11q-81 0 -141.5 30t-100.5 82.5t-60 119.5t-20 142t19.5 142.5t59.5 120t101 82.5t143 30t142.5 -30t100.5 -82.5t59.5 -120t19.5 -142.5t-20 -142.5t-60 -119.5t-100.5 -82t-142.5 -30zM369 57q64 0 107 27t69 72t37.5 99t11.5 108t-11.5 108t-37.5 98.5
t-69.5 71.5t-106.5 27t-106.5 -27t-69 -72t-37 -99t-11.5 -108t11.5 -107.5t37 -98.5t69 -72t106.5 -27zM521 -152q-28 -22 -62 -36t-71 -14q-40 0 -68 20.5t-28 63.5q0 29 19.5 53t49.5 43t61.5 31t55.5 16l20 -11q-15 -9 -36 -20.5t-41 -25.5t-33 -31.5t-13 -38.5
q0 -22 13.5 -33.5t35.5 -11.5q19 0 41.5 11t38.5 21z" />
    <glyph glyph-name="uni01EB" unicode="&#x1eb;" horiz-adv-x="537" 
d="M265 -13q-73 0 -122.5 36.5t-74 95.5t-24.5 126q0 50 15 97.5t44 85t71.5 59.5t96.5 22q74 0 123.5 -36t74 -95t24.5 -127q0 -51 -15 -98.5t-43.5 -84.5t-71 -59t-98.5 -22zM266 50q39 0 65.5 18.5t43 48.5t23.5 64.5t7 66.5q0 33 -6.5 67.5t-21.5 64t-41.5 48
t-65.5 18.5t-65.5 -18.5t-42.5 -48.5t-23 -64.5t-7 -66.5q0 -31 7 -65.5t22.5 -64.5t41.5 -49t63 -19zM398 -152q-28 -22 -62 -36t-71 -14q-40 0 -68 20.5t-28 63.5q0 29 19.5 53t49.5 43t61.5 31t55.5 16l20 -11q-15 -9 -36 -20.5t-41 -25.5t-33 -31.5t-13 -38.5
q0 -22 13.5 -33.5t35.5 -11.5q19 0 41.5 11t38.5 21z" />
    <glyph glyph-name="Aringacute" unicode="&#x1fa;" horiz-adv-x="631" 
d="M362 728l252 -728h-103l-84 250h-240l-85 -250h-84l253 728h91zM308 606l-98 -288h194zM316 989q28 0 50 -13.5t35.5 -36t13.5 -50.5q0 -40 -29 -69.5t-70 -29.5q-40 0 -69.5 29.5t-29.5 69.5q0 27 13.5 50t36 36.5t49.5 13.5zM316 937q-20 0 -34 -14t-14 -34t14 -34
t34 -14t34 14.5t14 33.5q0 20 -14 34t-34 14zM366 1139h92l-115 -111h-53z" />
    <glyph glyph-name="aringacute" unicode="&#x1fb;" horiz-adv-x="494" 
d="M253 509q79 0 119 -43t40 -121v-249q0 -21 8 -28.5t19 -7.5q9 0 19 2.5t19 6.5l18 -54q-16 -9 -40.5 -16.5t-50.5 -7.5t-47 14.5t-26 53.5q-29 -31 -68 -50.5t-82 -19.5q-59 0 -98 35t-39 96q0 57 27.5 91t71.5 51t93.5 23t92.5 6v53q0 28 -7 50.5t-25 36t-51 13.5
q-38 0 -73 -15t-70 -44l-41 59q41 33 90 49t101 16zM329 226q-27 0 -61 -2.5t-66 -12t-52.5 -30.5t-20.5 -58q0 -33 22.5 -48.5t56.5 -15.5q36 0 63 20t42.5 51t15.5 64v32zM242 758q28 0 50 -13.5t35.5 -36t13.5 -50.5q0 -40 -29 -69.5t-70 -29.5q-40 0 -69.5 29.5
t-29.5 69.5q0 27 13.5 50t36 36.5t49.5 13.5zM242 706q-20 0 -34 -14t-14 -34t14 -34t34 -14t34 14.5t14 33.5q0 20 -14 34t-34 14zM287 939h102l-120 -132h-58z" />
    <glyph glyph-name="AEacute" unicode="&#x1fc;" horiz-adv-x="794" 
d="M390 248h-179l-114 -248h-85l301 663l-14 65h448v-68h-265v-250h234v-72h-234v-267h265v-71h-357v248zM243 320h147v321zM491 964h122l-140 -152h-78z" />
    <glyph glyph-name="aeacute" unicode="&#x1fd;" horiz-adv-x="779" 
d="M44 120q0 57 27.5 91t71.5 51t93.5 23t92.5 6v53q0 28 -7 50.5t-25 36t-51 13.5q-24 0 -51 -7t-51 -20t-41 -32l-41 59q41 33 90 49t101 16q50 0 88 -18t57 -50q28 31 67 49.5t90 18.5q60 0 100.5 -24.5t61.5 -68t21 -101.5q0 -14 -1.5 -28.5t-3.5 -30.5h-316
q0 -60 19 -104.5t52 -69.5t74 -25q32 0 68 12.5t61 33.5l37 -60q-23 -19 -51 -31.5t-57.5 -18.5t-59.5 -6q-70 0 -118.5 30.5t-76.5 79.5q-35 -59 -83 -83.5t-101 -24.5q-59 0 -98 35t-39 96zM129 123q0 -33 22.5 -48.5t56.5 -15.5q36 0 63 20t42.5 51t15.5 64v32
q-27 0 -61 -2.5t-66 -12t-52.5 -30.5t-20.5 -58zM423 318h228q2 62 -26 95t-78 33q-34 0 -60 -19t-42 -48.5t-22 -60.5zM452 733h122l-140 -152h-78z" />
    <glyph glyph-name="Oslashacute" unicode="&#x1fe;" horiz-adv-x="737" 
d="M368 -11q-81 0 -141.5 30t-100.5 82.5t-60 119.5t-20 142t19.5 142.5t59.5 120t101 82.5t143 30t142.5 -30t100.5 -82.5t59.5 -120t19.5 -142.5t-20 -142.5t-60 -119.5t-100.5 -82t-142.5 -30zM369 57q64 0 107 27t69 72t37.5 99t11.5 108t-11.5 108t-37.5 98.5
t-69.5 71.5t-106.5 27t-106.5 -27t-69 -72t-37 -99t-11.5 -108t11.5 -107.5t37 -98.5t69 -72t106.5 -27zM133 -55l-52 33l515 791l54 -31zM427 905h122l-140 -131h-78z" />
    <glyph glyph-name="oslashacute" unicode="&#x1ff;" horiz-adv-x="537" 
d="M265 -13q-73 0 -122.5 36.5t-74 95.5t-24.5 126q0 50 15 97.5t44 85t71.5 59.5t96.5 22q74 0 123.5 -36t74 -95t24.5 -127q0 -51 -15 -98.5t-43.5 -84.5t-71 -59t-98.5 -22zM266 50q39 0 65.5 18.5t43 48.5t23.5 64.5t7 66.5q0 33 -6.5 67.5t-21.5 64t-41.5 48
t-65.5 18.5t-65.5 -18.5t-42.5 -48.5t-23 -64.5t-7 -66.5q0 -31 7 -65.5t22.5 -64.5t41.5 -49t63 -19zM106 -61l-47 31l366 591l50 -27zM319 733h122l-140 -152h-78z" />
    <glyph glyph-name="uni0200" unicode="&#x200;" horiz-adv-x="631" 
d="M362 728l252 -728h-103l-84 250h-240l-85 -250h-84l253 728h91zM308 606l-98 -288h194zM338 905l81 -131h-62l-137 131h118zM196 905l81 -131h-61l-137 131h117z" />
    <glyph glyph-name="uni0201" unicode="&#x201;" horiz-adv-x="494" 
d="M253 509q79 0 119 -43t40 -121v-249q0 -21 8 -28.5t19 -7.5q9 0 19 2.5t19 6.5l18 -54q-16 -9 -40.5 -16.5t-50.5 -7.5t-47 14.5t-26 53.5q-29 -31 -68 -50.5t-82 -19.5q-59 0 -98 35t-39 96q0 57 27.5 91t71.5 51t93.5 23t92.5 6v53q0 28 -7 50.5t-25 36t-51 13.5
q-38 0 -73 -15t-70 -44l-41 59q41 33 90 49t101 16zM329 226q-27 0 -61 -2.5t-66 -12t-52.5 -30.5t-20.5 -58q0 -33 22.5 -48.5t56.5 -15.5q36 0 63 20t42.5 51t15.5 64v32zM264 733l81 -152h-62l-137 152h118zM122 733l81 -152h-61l-137 152h117z" />
    <glyph glyph-name="uni0202" unicode="&#x202;" horiz-adv-x="631" 
d="M362 728l252 -728h-103l-84 250h-240l-85 -250h-84l253 728h91zM308 606l-98 -288h194zM176 780q5 35 21 61.5t45.5 42t74.5 15.5q44 0 73 -15.5t45.5 -42t19.5 -61.5h-50q-6 24 -30 37t-60 13t-59 -13t-31 -37h-49z" />
    <glyph glyph-name="uni0203" unicode="&#x203;" horiz-adv-x="494" 
d="M253 509q79 0 119 -43t40 -121v-249q0 -21 8 -28.5t19 -7.5q9 0 19 2.5t19 6.5l18 -54q-16 -9 -40.5 -16.5t-50.5 -7.5t-47 14.5t-26 53.5q-29 -31 -68 -50.5t-82 -19.5q-59 0 -98 35t-39 96q0 57 27.5 91t71.5 51t93.5 23t92.5 6v53q0 28 -7 50.5t-25 36t-51 13.5
q-38 0 -73 -15t-70 -44l-41 59q41 33 90 49t101 16zM329 226q-27 0 -61 -2.5t-66 -12t-52.5 -30.5t-20.5 -58q0 -33 22.5 -48.5t56.5 -15.5q36 0 63 20t42.5 51t15.5 64v32zM102 589q5 42 21.5 73.5t47 48.5t75.5 17q44 0 72 -17.5t43.5 -49t19.5 -72.5h-50q-7 36 -30.5 53
t-59.5 17t-59 -17.5t-31 -52.5h-49z" />
    <glyph glyph-name="uni0204" unicode="&#x204;" horiz-adv-x="549" 
d="M72 728h437v-69h-330v-251h256v-68h-256v-271h330v-69h-423v662zM323 905l81 -131h-62l-137 131h118zM181 905l81 -131h-61l-137 131h117z" />
    <glyph glyph-name="uni0205" unicode="&#x205;" horiz-adv-x="494" 
d="M270 509q60 0 101 -24.5t61.5 -68t20.5 -101.5q0 -14 -1.5 -28.5t-3.5 -30.5h-316q0 -95 42 -147t112 -52q29 0 60.5 9t65.5 27l31 -50q-35 -28 -79 -42t-89 -14q-59 0 -102.5 21.5t-72 58t-42.5 82.5t-14 94q0 50 14 97t42.5 85.5t70.5 61t99 22.5zM262 446
q-34 0 -60 -19t-42 -48.5t-22 -60.5h228q1 42 -11.5 70.5t-36 43t-56.5 14.5zM288 733l81 -152h-62l-137 152h118zM146 733l81 -152h-61l-137 152h117z" />
    <glyph glyph-name="uni0206" unicode="&#x206;" horiz-adv-x="549" 
d="M72 728h437v-69h-330v-251h256v-68h-256v-271h330v-69h-423v662zM161 780q5 35 21 61.5t45.5 42t74.5 15.5q44 0 73 -15.5t45.5 -42t19.5 -61.5h-50q-6 24 -30 37t-60 13t-59 -13t-31 -37h-49z" />
    <glyph glyph-name="uni0207" unicode="&#x207;" horiz-adv-x="494" 
d="M270 509q60 0 101 -24.5t61.5 -68t20.5 -101.5q0 -14 -1.5 -28.5t-3.5 -30.5h-316q0 -95 42 -147t112 -52q29 0 60.5 9t65.5 27l31 -50q-35 -28 -79 -42t-89 -14q-59 0 -102.5 21.5t-72 58t-42.5 82.5t-14 94q0 50 14 97t42.5 85.5t70.5 61t99 22.5zM262 446
q-34 0 -60 -19t-42 -48.5t-22 -60.5h228q1 42 -11.5 70.5t-36 43t-56.5 14.5zM126 589q5 42 21.5 73.5t47 48.5t75.5 17q44 0 72 -17.5t43.5 -49t19.5 -72.5h-50q-7 36 -30.5 53t-59.5 17t-59 -17.5t-31 -52.5h-49z" />
    <glyph glyph-name="uni0208" unicode="&#x208;" horiz-adv-x="268" 
d="M73 728h107v-728h-93v662q0 1 -3.5 16t-6.5 31t-4 19zM155 905l81 -131h-62l-137 131h118zM13 905l81 -131h-61l-137 131h117z" />
    <glyph glyph-name="uni0209" unicode="&#x209;" horiz-adv-x="252" 
d="M84 438q0 1 -3 14.5t-5.5 27.5t-3.5 17h95v-497h-83v438zM147 733l81 -152h-62l-137 152h118zM5 733l81 -152h-61l-137 152h117z" />
    <glyph glyph-name="uni020A" unicode="&#x20a;" horiz-adv-x="268" 
d="M73 728h107v-728h-93v662q0 1 -3.5 16t-6.5 31t-4 19zM-7 780q5 35 21 61.5t45.5 42t74.5 15.5q44 0 73 -15.5t45.5 -42t19.5 -61.5h-50q-6 24 -30 37t-60 13t-59 -13t-31 -37h-49z" />
    <glyph glyph-name="uni020B" unicode="&#x20b;" horiz-adv-x="252" 
d="M84 438q0 1 -3 14.5t-5.5 27.5t-3.5 17h95v-497h-83v438zM-15 589q5 42 21.5 73.5t47 48.5t75.5 17q44 0 72 -17.5t43.5 -49t19.5 -72.5h-50q-7 36 -30.5 53t-59.5 17t-59 -17.5t-31 -52.5h-49z" />
    <glyph glyph-name="uni020C" unicode="&#x20c;" horiz-adv-x="737" 
d="M368 -11q-81 0 -141.5 30t-100.5 82.5t-60 119.5t-20 142t19.5 142.5t59.5 120t101 82.5t143 30t142.5 -30t100.5 -82.5t59.5 -120t19.5 -142.5t-20 -142.5t-60 -119.5t-100.5 -82t-142.5 -30zM369 57q64 0 107 27t69 72t37.5 99t11.5 108t-11.5 108t-37.5 98.5
t-69.5 71.5t-106.5 27t-106.5 -27t-69 -72t-37 -99t-11.5 -108t11.5 -107.5t37 -98.5t69 -72t106.5 -27zM391 905l81 -131h-62l-137 131h118zM249 905l81 -131h-61l-137 131h117z" />
    <glyph glyph-name="uni020D" unicode="&#x20d;" horiz-adv-x="537" 
d="M265 -13q-73 0 -122.5 36.5t-74 95.5t-24.5 126q0 50 15 97.5t44 85t71.5 59.5t96.5 22q74 0 123.5 -36t74 -95t24.5 -127q0 -51 -15 -98.5t-43.5 -84.5t-71 -59t-98.5 -22zM266 50q39 0 65.5 18.5t43 48.5t23.5 64.5t7 66.5q0 33 -6.5 67.5t-21.5 64t-41.5 48
t-65.5 18.5t-65.5 -18.5t-42.5 -48.5t-23 -64.5t-7 -66.5q0 -31 7 -65.5t22.5 -64.5t41.5 -49t63 -19zM287 733l81 -152h-62l-137 152h118zM145 733l81 -152h-61l-137 152h117z" />
    <glyph glyph-name="uni020E" unicode="&#x20e;" horiz-adv-x="737" 
d="M368 -11q-81 0 -141.5 30t-100.5 82.5t-60 119.5t-20 142t19.5 142.5t59.5 120t101 82.5t143 30t142.5 -30t100.5 -82.5t59.5 -120t19.5 -142.5t-20 -142.5t-60 -119.5t-100.5 -82t-142.5 -30zM369 57q64 0 107 27t69 72t37.5 99t11.5 108t-11.5 108t-37.5 98.5
t-69.5 71.5t-106.5 27t-106.5 -27t-69 -72t-37 -99t-11.5 -108t11.5 -107.5t37 -98.5t69 -72t106.5 -27zM229 780q5 35 21 61.5t45.5 42t74.5 15.5q44 0 73 -15.5t45.5 -42t19.5 -61.5h-50q-6 24 -30 37t-60 13t-59 -13t-31 -37h-49z" />
    <glyph glyph-name="uni020F" unicode="&#x20f;" horiz-adv-x="537" 
d="M265 -13q-73 0 -122.5 36.5t-74 95.5t-24.5 126q0 50 15 97.5t44 85t71.5 59.5t96.5 22q74 0 123.5 -36t74 -95t24.5 -127q0 -51 -15 -98.5t-43.5 -84.5t-71 -59t-98.5 -22zM266 50q39 0 65.5 18.5t43 48.5t23.5 64.5t7 66.5q0 33 -6.5 67.5t-21.5 64t-41.5 48
t-65.5 18.5t-65.5 -18.5t-42.5 -48.5t-23 -64.5t-7 -66.5q0 -31 7 -65.5t22.5 -64.5t41.5 -49t63 -19zM125 589q5 42 21.5 73.5t47 48.5t75.5 17q44 0 72 -17.5t43.5 -49t19.5 -72.5h-50q-7 36 -30.5 53t-59.5 17t-59 -17.5t-31 -52.5h-49z" />
    <glyph glyph-name="uni0210" unicode="&#x210;" horiz-adv-x="591" 
d="M71 728h217q69 0 125 -17.5t88.5 -61.5t32.5 -122q0 -40 -19 -77t-50.5 -64.5t-69.5 -39.5l204 -346h-108l-188 327h-125v-327h-93v662zM178 659v-264h80q50 0 90.5 11.5t64.5 41.5t24 85q0 43 -21 70.5t-55 41.5t-73 14h-110zM317 905l81 -131h-62l-137 131h118z
M175 905l81 -131h-61l-137 131h117z" />
    <glyph glyph-name="uni0211" unicode="&#x211;" horiz-adv-x="349" 
d="M139 506q18 -44 23 -93q26 41 70 67t93 26l-20 -88q-48 0 -81.5 -25t-59.5 -63v-330h-83v360q0 20 -3 45t-10 49t-19 41zM194 733l81 -152h-62l-137 152h118zM52 733l81 -152h-61l-137 152h117z" />
    <glyph glyph-name="uni0212" unicode="&#x212;" horiz-adv-x="591" 
d="M71 728h217q69 0 125 -17.5t88.5 -61.5t32.5 -122q0 -40 -19 -77t-50.5 -64.5t-69.5 -39.5l204 -346h-108l-188 327h-125v-327h-93v662zM178 659v-264h80q50 0 90.5 11.5t64.5 41.5t24 85q0 43 -21 70.5t-55 41.5t-73 14h-110zM155 780q5 35 21 61.5t45.5 42t74.5 15.5
q44 0 73 -15.5t45.5 -42t19.5 -61.5h-50q-6 24 -30 37t-60 13t-59 -13t-31 -37h-49z" />
    <glyph glyph-name="uni0213" unicode="&#x213;" horiz-adv-x="349" 
d="M139 506q18 -44 23 -93q26 41 70 67t93 26l-20 -88q-48 0 -81.5 -25t-59.5 -63v-330h-83v360q0 20 -3 45t-10 49t-19 41zM32 589q5 42 21.5 73.5t47 48.5t75.5 17q44 0 72 -17.5t43.5 -49t19.5 -72.5h-50q-7 36 -30.5 53t-59.5 17t-59 -17.5t-31 -52.5h-49z" />
    <glyph glyph-name="uni0214" unicode="&#x214;" horiz-adv-x="707" 
d="M181 728v-484q0 -85 42 -136t132 -51q62 0 104 25.5t63 71t21 104.5v470h77v-470q0 -84 -31.5 -144.5t-91.5 -93t-146 -32.5q-125 0 -195 65t-70 191v418l-15 66h110zM381 905l81 -131h-62l-137 131h118zM239 905l81 -131h-61l-137 131h117z" />
    <glyph glyph-name="uni0215" unicode="&#x215;" horiz-adv-x="553" 
d="M163 497v-306q0 -29 5 -59.5t22.5 -50.5t55.5 -20q37 0 67.5 16t49.5 44.5t19 66.5v250q0 1 -3 14.5t-6 28t-4 16.5h96v-400q0 -19 6.5 -28t20.5 -9t38 9l18 -54q-20 -11 -44.5 -17.5t-46.5 -6.5q-26 0 -46 15t-26 53q-29 -30 -69.5 -51t-83.5 -21q-55 0 -88.5 23
t-48.5 62.5t-15 91.5v274l-13 59h96zM296 733l81 -152h-62l-137 152h118zM154 733l81 -152h-61l-137 152h117z" />
    <glyph glyph-name="uni0216" unicode="&#x216;" horiz-adv-x="707" 
d="M181 728v-484q0 -85 42 -136t132 -51q62 0 104 25.5t63 71t21 104.5v470h77v-470q0 -84 -31.5 -144.5t-91.5 -93t-146 -32.5q-125 0 -195 65t-70 191v418l-15 66h110zM219 780q5 35 21 61.5t45.5 42t74.5 15.5q44 0 73 -15.5t45.5 -42t19.5 -61.5h-50q-6 24 -30 37
t-60 13t-59 -13t-31 -37h-49z" />
    <glyph glyph-name="uni0217" unicode="&#x217;" horiz-adv-x="553" 
d="M163 497v-306q0 -29 5 -59.5t22.5 -50.5t55.5 -20q37 0 67.5 16t49.5 44.5t19 66.5v250q0 1 -3 14.5t-6 28t-4 16.5h96v-400q0 -19 6.5 -28t20.5 -9t38 9l18 -54q-20 -11 -44.5 -17.5t-46.5 -6.5q-26 0 -46 15t-26 53q-29 -30 -69.5 -51t-83.5 -21q-55 0 -88.5 23
t-48.5 62.5t-15 91.5v274l-13 59h96zM134 589q5 42 21.5 73.5t47 48.5t75.5 17q44 0 72 -17.5t43.5 -49t19.5 -72.5h-50q-7 36 -30.5 53t-59.5 17t-59 -17.5t-31 -52.5h-49z" />
    <glyph glyph-name="uni0218" unicode="&#x218;" horiz-adv-x="516" 
d="M280 738q50 0 97.5 -14t90.5 -40l-46 -67q-31 23 -67.5 36.5t-75.5 13.5q-53 0 -90 -26.5t-37 -84.5q0 -32 17.5 -54.5t46.5 -39.5t63 -33q35 -16 71.5 -35t67 -44.5t49 -62t18.5 -89.5q0 -72 -35 -118.5t-92 -69t-123 -22.5q-54 0 -104.5 14.5t-98.5 39.5l36 82
q33 -28 80 -46t90 -18q33 0 67 12.5t57 40.5t23 72t-21 72.5t-55 48t-72 37.5q-33 16 -66 33t-60 40t-43 55t-16 77q0 63 33.5 105t86 63.5t108.5 21.5zM263 -77q30 0 46.5 -21t16.5 -50q0 -43 -25.5 -78t-59.5 -60l-29 28q11 11 26 27.5t15 32.5q0 11 -10.5 19.5t-21 20
t-10.5 31.5q0 22 15.5 36t36.5 14z" />
    <glyph glyph-name="uni0219" unicode="&#x219;" horiz-adv-x="430" 
d="M244 509q34 0 67.5 -8.5t61.5 -26.5l-29 -64q-22 18 -49 27t-53 9q-37 0 -64.5 -17t-27.5 -51q0 -24 11.5 -40t30.5 -27t41 -22q25 -12 50.5 -24.5t47 -30t35 -42t13.5 -60.5q0 -50 -24.5 -82.5t-64 -47.5t-85.5 -15q-40 0 -80 11t-74 31l35 61q24 -18 54 -29t58 -11
q38 0 66.5 18t28.5 54q0 25 -15.5 41.5t-39.5 29.5t-50 25q-30 15 -58.5 32.5t-46.5 44.5t-18 69q0 48 25.5 80t66.5 48.5t87 16.5zM221 -77q30 0 46.5 -21t16.5 -50q0 -43 -25.5 -78t-59.5 -60l-29 28q11 11 26 27.5t15 32.5q0 11 -10.5 19.5t-21 20t-10.5 31.5
q0 22 15.5 36t36.5 14z" />
    <glyph glyph-name="uni021A" unicode="&#x21a;" horiz-adv-x="578" 
d="M240 659h-216v69h530v-69h-219v-659h-95v659zM283 -77q30 0 46.5 -21t16.5 -50q0 -43 -25.5 -78t-59.5 -60l-29 28q11 11 26 27.5t15 32.5q0 11 -10.5 19.5t-21 20t-10.5 31.5q0 22 15.5 36t36.5 14z" />
    <glyph glyph-name="uni021B" unicode="&#x21b;" horiz-adv-x="327" 
d="M197 639q-7 -34 -12.5 -70.5t-7.5 -71.5h130l-17 -63h-113v-318q0 -19 4.5 -33.5t16 -22t32.5 -7.5q16 0 32 3t31 7l14 -56q-25 -7 -47.5 -12.5t-51.5 -5.5q-64 0 -89 34t-25 95v316h-74v50q30 1 50 16t33 38.5t21 50t12 50.5h61zM168 -77q30 0 46.5 -21t16.5 -50
q0 -43 -25.5 -78t-59.5 -60l-29 28q11 11 26 27.5t15 32.5q0 11 -10.5 19.5t-21 20t-10.5 31.5q0 22 15.5 36t36.5 14z" />
    <glyph glyph-name="uni022A" unicode="&#x22a;" horiz-adv-x="737" 
d="M368 -11q-81 0 -141.5 30t-100.5 82.5t-60 119.5t-20 142t19.5 142.5t59.5 120t101 82.5t143 30t142.5 -30t100.5 -82.5t59.5 -120t19.5 -142.5t-20 -142.5t-60 -119.5t-100.5 -82t-142.5 -30zM369 57q64 0 107 27t69 72t37.5 99t11.5 108t-11.5 108t-37.5 98.5
t-69.5 71.5t-106.5 27t-106.5 -27t-69 -72t-37 -99t-11.5 -108t11.5 -107.5t37 -98.5t69 -72t106.5 -27zM218 1014h304v-64h-304v64zM344 839q0 -23 -17 -40t-40 -17t-39.5 17t-16.5 40t16.5 40t39.5 17q24 0 40.5 -16.5t16.5 -40.5zM507 839q0 -23 -17 -40t-40 -17
t-39.5 17t-16.5 40t16.5 40t39.5 17q24 0 40.5 -16.5t16.5 -40.5z" />
    <glyph glyph-name="uni022B" unicode="&#x22b;" horiz-adv-x="537" 
d="M265 -13q-73 0 -122.5 36.5t-74 95.5t-24.5 126q0 50 15 97.5t44 85t71.5 59.5t96.5 22q74 0 123.5 -36t74 -95t24.5 -127q0 -51 -15 -98.5t-43.5 -84.5t-71 -59t-98.5 -22zM266 50q39 0 65.5 18.5t43 48.5t23.5 64.5t7 66.5q0 33 -6.5 67.5t-21.5 64t-41.5 48
t-65.5 18.5t-65.5 -18.5t-42.5 -48.5t-23 -64.5t-7 -66.5q0 -31 7 -65.5t22.5 -64.5t41.5 -49t63 -19zM114 832h304v-64h-304v64zM240 657q0 -23 -17 -40t-40 -17t-39.5 17t-16.5 40t16.5 40t39.5 17q24 0 40.5 -16.5t16.5 -40.5zM403 657q0 -23 -17 -40t-40 -17t-39.5 17
t-16.5 40t16.5 40t39.5 17q24 0 40.5 -16.5t16.5 -40.5z" />
    <glyph glyph-name="uni022C" unicode="&#x22c;" horiz-adv-x="737" 
d="M368 -11q-81 0 -141.5 30t-100.5 82.5t-60 119.5t-20 142t19.5 142.5t59.5 120t101 82.5t143 30t142.5 -30t100.5 -82.5t59.5 -120t19.5 -142.5t-20 -142.5t-60 -119.5t-100.5 -82t-142.5 -30zM369 57q64 0 107 27t69 72t37.5 99t11.5 108t-11.5 108t-37.5 98.5
t-69.5 71.5t-106.5 27t-106.5 -27t-69 -72t-37 -99t-11.5 -108t11.5 -107.5t37 -98.5t69 -72t106.5 -27zM525 882q-2 -22 -12.5 -45t-28.5 -38.5t-44 -15.5q-28 0 -52.5 10t-47.5 19.5t-49 9.5q-13 0 -21 -8t-13 -19h-49q3 25 15 47.5t32 37.5t47 15t51 -9.5t46.5 -19.5
t42.5 -10q12 0 22 7.5t14 18.5h47zM214 1012h304v-64h-304v64z" />
    <glyph glyph-name="uni022D" unicode="&#x22d;" horiz-adv-x="537" 
d="M265 -13q-73 0 -122.5 36.5t-74 95.5t-24.5 126q0 50 15 97.5t44 85t71.5 59.5t96.5 22q74 0 123.5 -36t74 -95t24.5 -127q0 -51 -15 -98.5t-43.5 -84.5t-71 -59t-98.5 -22zM266 50q39 0 65.5 18.5t43 48.5t23.5 64.5t7 66.5q0 33 -6.5 67.5t-21.5 64t-41.5 48
t-65.5 18.5t-65.5 -18.5t-42.5 -48.5t-23 -64.5t-7 -66.5q0 -31 7 -65.5t22.5 -64.5t41.5 -49t63 -19zM421 701q-2 -22 -12.5 -45t-28.5 -38.5t-44 -15.5q-28 0 -52.5 10t-47.5 19.5t-49 9.5q-13 0 -21 -8t-13 -19h-49q3 25 15 47.5t32 37.5t47 15t51 -9.5t46.5 -19.5
t42.5 -10q12 0 22 7.5t14 18.5h47zM110 832h304v-64h-304v64z" />
    <glyph glyph-name="uni0230" unicode="&#x230;" horiz-adv-x="737" 
d="M368 -11q-81 0 -141.5 30t-100.5 82.5t-60 119.5t-20 142t19.5 142.5t59.5 120t101 82.5t143 30t142.5 -30t100.5 -82.5t59.5 -120t19.5 -142.5t-20 -142.5t-60 -119.5t-100.5 -82t-142.5 -30zM369 57q64 0 107 27t69 72t37.5 99t11.5 108t-11.5 108t-37.5 98.5
t-69.5 71.5t-106.5 27t-106.5 -27t-69 -72t-37 -99t-11.5 -108t11.5 -107.5t37 -98.5t69 -72t106.5 -27zM218 1014h304v-64h-304v64zM425 839q0 -23 -17 -40t-40 -17t-39.5 17t-16.5 40t16.5 40t39.5 17q24 0 40.5 -16.5t16.5 -40.5z" />
    <glyph glyph-name="uni0231" unicode="&#x231;" horiz-adv-x="537" 
d="M265 -13q-73 0 -122.5 36.5t-74 95.5t-24.5 126q0 50 15 97.5t44 85t71.5 59.5t96.5 22q74 0 123.5 -36t74 -95t24.5 -127q0 -51 -15 -98.5t-43.5 -84.5t-71 -59t-98.5 -22zM266 50q39 0 65.5 18.5t43 48.5t23.5 64.5t7 66.5q0 33 -6.5 67.5t-21.5 64t-41.5 48
t-65.5 18.5t-65.5 -18.5t-42.5 -48.5t-23 -64.5t-7 -66.5q0 -31 7 -65.5t22.5 -64.5t41.5 -49t63 -19zM114 832h304v-64h-304v64zM321 657q0 -23 -17 -40t-40 -17t-39.5 17t-16.5 40t16.5 40t39.5 17q24 0 40.5 -16.5t16.5 -40.5z" />
    <glyph glyph-name="uni0232" unicode="&#x232;" horiz-adv-x="584" 
d="M140 728l169 -283l157 283h87l-209 -368v-360h-95v360l-217 368h108zM146 871h304v-64h-304v64z" />
    <glyph glyph-name="uni0233" unicode="&#x233;" horiz-adv-x="456" 
d="M102 497q22 -62 43.5 -124t43.5 -127q11 -34 22.5 -68.5t22.5 -68.5q11 35 22.5 69t22.5 68q22 65 43.5 127t43.5 124h78l-176 -499q-11 -31 -28 -68.5t-40 -70.5t-54 -54.5t-70 -21.5h-38v67h5.5h5.5q42 0 69.5 25t45.5 60.5t30 68.5l-182 493h90zM76 689h304v-64h-304
v64z" />
    <glyph glyph-name="uni0237" unicode="&#x237;" horiz-adv-x="251" 
d="M167 497v-472q0 -38 -5 -79.5t-19.5 -78.5t-42.5 -63t-75 -32l-14 40q37 19 52 52.5t18 73t3 75.5v425l-13 59h96z" />
    <glyph glyph-name="uni0259" unicode="&#x259;" horiz-adv-x="494" 
d="M224 -12q-60 0 -101 24.5t-61.5 68t-20.5 101.5q0 14 1.5 28.5t3.5 30.5h316q0 60 -19 105t-51.5 69.5t-74.5 24.5q-32 0 -68 -12.5t-61 -33.5l-37 60q24 19 51.5 31.5t57 18.5t59.5 6q59 0 102.5 -21.5t72 -58t42.5 -82.5t14 -94q0 -49 -14 -96.5t-42.5 -86t-70.5 -61
t-99 -22.5zM232 51q34 0 60 19t42.5 48.5t21.5 60.5h-228q-1 -62 27 -95t77 -33z" />
    <glyph glyph-name="uni0272" unicode="&#x272;" horiz-adv-x="551" 
d="M11 -188q37 19 52 52.5t18 73t3 75.5v339q0 20 -3 46.5t-10 52t-20 42.5l91 12q7 -17 12 -35t7 -36q30 30 71 52.5t84 22.5q55 0 88.5 -23t48.5 -62.5t15 -91.5v-332h-82v305q0 31 -4.5 61t-22 49.5t-57.5 19.5q-24 0 -49 -9.5t-47 -24.5t-40 -32v-344q0 -38 -5 -79.5
t-19 -78.5t-42 -63t-75 -32z" />
    <glyph glyph-name="uni02B9" unicode="&#x2b9;" horiz-adv-x="256" 
d="M90 753h122l-80 -172h-78z" />
    <glyph glyph-name="uni02BA" unicode="&#x2ba;" horiz-adv-x="428" 
d="M90 753h122l-80 -172h-78zM262 753h122l-80 -172h-78z" />
    <glyph glyph-name="uni02BC" unicode="&#x2bc;" horiz-adv-x="286" 
d="M138 762q30 0 46.5 -21t16.5 -50q0 -43 -25.5 -78.5t-59.5 -59.5q-7 6 -14.5 13.5l-14.5 14.5q11 11 26 27t15 32q0 12 -10.5 20t-21 19.5t-10.5 32.5t15.5 35.5t36.5 14.5z" />
    <glyph glyph-name="circumflex" unicode="&#x2c6;" horiz-adv-x="291" 
d="M143 661l-76 -81h-67l102 154h83l106 -155h-69z" />
    <glyph glyph-name="caron" unicode="&#x2c7;" horiz-adv-x="291" 
d="M148 652l76 81h67l-102 -154h-83l-106 155h69z" />
    <glyph glyph-name="uni02C9" unicode="&#x2c9;" horiz-adv-x="384" 
d="M40 689h304v-64h-304v64z" />
    <glyph glyph-name="breve" unicode="&#x2d8;" horiz-adv-x="279" 
d="M279 728q-4 -42 -20 -73.5t-45 -48.5t-74 -17q-65 0 -99 39t-41 100h50q8 -36 31 -53t59 -17t59 17.5t31 52.5h49z" />
    <glyph glyph-name="dotaccent" unicode="&#x2d9;" horiz-adv-x="276" 
d="M194 657q0 -23 -17 -40t-40 -17t-39.5 17t-16.5 40t16.5 40t39.5 17q24 0 40.5 -16.5t16.5 -40.5z" />
    <glyph glyph-name="ring" unicode="&#x2da;" horiz-adv-x="282" 
d="M141 758q28 0 50 -13.5t35.5 -36t13.5 -50.5q0 -40 -29 -69.5t-70 -29.5q-40 0 -69.5 29.5t-29.5 69.5q0 27 13.5 50t36 36.5t49.5 13.5zM141 706q-20 0 -34 -14t-14 -34t14 -34t34 -14t34 14.5t14 33.5q0 20 -14 34t-34 14z" />
    <glyph glyph-name="ogonek" unicode="&#x2db;" horiz-adv-x="279" 
d="M254 -152q-28 -22 -62 -36t-71 -14q-40 0 -68 20.5t-28 63.5q0 29 19.5 53t49.5 43t61.5 31t55.5 16l20 -11q-15 -9 -36 -20.5t-41 -25.5t-33 -31.5t-13 -38.5q0 -22 13.5 -33.5t35.5 -11.5q19 0 41.5 11t38.5 21z" />
    <glyph glyph-name="tilde" unicode="&#x2dc;" horiz-adv-x="357" 
d="M337 701q-2 -22 -12.5 -45t-28.5 -38.5t-44 -15.5q-28 0 -52.5 10t-47.5 19.5t-49 9.5q-13 0 -21 -8t-13 -19h-49q3 25 15 47.5t32 37.5t47 15t51 -9.5t46.5 -19.5t42.5 -10q12 0 22 7.5t14 18.5h47z" />
    <glyph glyph-name="hungarumlaut" unicode="&#x2dd;" horiz-adv-x="380" 
d="M101 733h118l-137 -152h-62zM243 733h117l-137 -152h-61z" />
    <glyph glyph-name="gravecomb" unicode="&#x300;" 
d="M172 733l96 -152h-78l-140 152h122z" />
    <glyph glyph-name="acutecomb" unicode="&#x301;" 
d="M146 733h122l-140 -152h-78z" />
    <glyph glyph-name="uni0302" unicode="&#x302;" 
d="M193 661l-76 -81h-67l102 154h83l106 -155h-69z" />
    <glyph glyph-name="tildecomb" unicode="&#x303;" 
d="M367 701q-2 -22 -12.5 -45t-28.5 -38.5t-44 -15.5q-28 0 -52.5 10t-47.5 19.5t-49 9.5q-13 0 -21 -8t-13 -19h-49q3 25 15 47.5t32 37.5t47 15t51 -9.5t46.5 -19.5t42.5 -10q12 0 22 7.5t14 18.5h47z" />
    <glyph glyph-name="uni0304" unicode="&#x304;" 
d="M50 689h304v-64h-304v64z" />
    <glyph glyph-name="uni0306" unicode="&#x306;" 
d="M329 728q-4 -42 -20 -73.5t-45 -48.5t-74 -17q-65 0 -99 39t-41 100h50q8 -36 31 -53t59 -17t59 17.5t31 52.5h49z" />
    <glyph glyph-name="uni0307" unicode="&#x307;" 
d="M163 657q0 -23 -17 -40t-40 -17t-39.5 17t-16.5 40t16.5 40t39.5 17q24 0 40.5 -16.5t16.5 -40.5z" />
    <glyph glyph-name="uni0308" unicode="&#x308;" 
d="M163 657q0 -23 -17 -40t-40 -17t-39.5 17t-16.5 40t16.5 40t39.5 17q24 0 40.5 -16.5t16.5 -40.5zM326 657q0 -23 -17 -40t-40 -17t-39.5 17t-16.5 40t16.5 40t39.5 17q24 0 40.5 -16.5t16.5 -40.5z" />
    <glyph glyph-name="hookabovecomb" unicode="&#x309;" 
d="M107 543l-11 86q6 -1 13 -2t14 -1q18 0 32.5 8t14.5 31q0 17 -12 24.5t-29 7.5q-14 0 -29 -4.5t-28 -13.5l-22 42q22 15 46.5 22.5t48.5 7.5q41 0 70.5 -20.5t29.5 -58.5q0 -37 -25.5 -59t-68.5 -25l-8 -45h-36z" />
    <glyph glyph-name="uni030A" unicode="&#x30a;" 
d="M149 758q28 0 50 -13.5t35.5 -36t13.5 -50.5q0 -40 -29 -69.5t-70 -29.5q-40 0 -69.5 29.5t-29.5 69.5q0 27 13.5 50t36 36.5t49.5 13.5zM149 706q-20 0 -34 -14t-14 -34t14 -34t34 -14t34 14.5t14 33.5q0 20 -14 34t-34 14z" />
    <glyph glyph-name="uni030B" unicode="&#x30b;" 
d="M131 733h118l-137 -152h-62zM273 733h117l-137 -152h-61z" />
    <glyph glyph-name="uni030C" unicode="&#x30c;" 
d="M198 652l76 81h67l-102 -154h-83l-106 155h69z" />
    <glyph glyph-name="uni030F" unicode="&#x30f;" 
d="M309 733l81 -152h-62l-137 152h118zM167 733l81 -152h-61l-137 152h117z" />
    <glyph glyph-name="uni0311" unicode="&#x311;" 
d="M50 589q5 42 21.5 73.5t47 48.5t75.5 17q44 0 72 -17.5t43.5 -49t19.5 -72.5h-50q-7 36 -30.5 53t-59.5 17t-59 -17.5t-31 -52.5h-49z" />
    <glyph glyph-name="uni0312" unicode="&#x312;" 
d="M113 573q-30 0 -46.5 21.5t-16.5 49.5q0 43 25.5 78t59.5 60l29 -28q-10 -11 -25.5 -27t-15.5 -33q0 -11 10.5 -19.5t21 -19.5t10.5 -32q0 -22 -15.5 -36t-36.5 -14z" />
    <glyph glyph-name="uni0313" unicode="&#x313;" 
d="M102 782q30 0 46.5 -21t16.5 -50q0 -43 -25.5 -78t-59.5 -60l-29 28q11 11 26 27.5t15 32.5q0 11 -10.5 19.5t-21 20t-10.5 31.5q0 22 15.5 36t36.5 14z" />
    <glyph glyph-name="uni031B" unicode="&#x31b;" 
d="M50 496q38 -15 64 -3.5t38.5 42.5t7.5 73h99q2 -37 -11 -73t-39.5 -63t-66 -37t-92.5 3v58z" />
    <glyph glyph-name="dotbelowcomb" unicode="&#x323;" 
d="M163 -120q0 -23 -17 -40t-40 -17t-39.5 17t-16.5 40t16.5 40t39.5 17q24 0 40.5 -16.5t16.5 -40.5z" />
    <glyph glyph-name="uni0324" unicode="&#x324;" 
d="M163 -120q0 -23 -17 -40t-40 -17t-39.5 17t-16.5 40t16.5 40t39.5 17q24 0 40.5 -16.5t16.5 -40.5zM326 -120q0 -23 -17 -40t-40 -17t-39.5 17t-16.5 40t16.5 40t39.5 17q24 0 40.5 -16.5t16.5 -40.5z" />
    <glyph glyph-name="uni0326" unicode="&#x326;" 
d="M102 -77q30 0 46.5 -21t16.5 -50q0 -43 -25.5 -78t-59.5 -60l-29 28q11 11 26 27.5t15 32.5q0 11 -10.5 19.5t-21 20t-10.5 31.5q0 22 15.5 36t36.5 14z" />
    <glyph glyph-name="uni0327" unicode="&#x327;" 
d="M132 9h47l-29 -55q55 0 85 -21.5t30 -59.5q0 -46 -34.5 -69.5t-80.5 -23.5q-25 0 -51 7t-49 21l24 46q15 -11 31.5 -16.5t31.5 -5.5q19 0 32 9.5t13 28.5q0 21 -13 33t-42 12q-10 0 -22 -1.5t-26 -4.5z" />
    <glyph glyph-name="uni0328" unicode="&#x328;" 
d="M279 -152q-28 -22 -62 -36t-71 -14q-40 0 -68 20.5t-28 63.5q0 29 19.5 53t49.5 43t61.5 31t55.5 16l20 -11q-15 -9 -36 -20.5t-41 -25.5t-33 -31.5t-13 -38.5q0 -22 13.5 -33.5t35.5 -11.5q19 0 41.5 11t38.5 21z" />
    <glyph glyph-name="uni032E" unicode="&#x32e;" 
d="M329 -62q-4 -42 -20 -73t-45 -48.5t-74 -17.5q-65 0 -99 39t-41 100h50q8 -36 31 -53t59 -17t59 17.5t31 52.5h49z" />
    <glyph glyph-name="uni0331" unicode="&#x331;" 
d="M50 -91h304v-64h-304v64z" />
    <glyph glyph-name="uni0335" unicode="&#x335;" 
d="M-421 349h321v-65h-321v65z" />
    <glyph glyph-name="uni0336" unicode="&#x336;" 
d="M-651 349h611v-65h-611v65z" />
    <glyph glyph-name="uni0337" unicode="&#x337;" 
d="M11 265v69l225 105v-69z" />
    <glyph glyph-name="uni0338" unicode="&#x338;" 
d="M101 -69l-47 31l366 591l50 -27z" />
    <glyph glyph-name="uni0394" unicode="&#x394;" horiz-adv-x="631" 
d="M15 53l261 670h78l260 -670v-53h-599v53zM499 66q-19 51 -40.5 105.5t-43 110.5t-42 110t-39.5 104l-12.5 37.5t-12 38.5t-10.5 33q-6 -17 -13 -35t-13.5 -35.5t-13.5 -35.5q-20 -54 -40.5 -108t-40.5 -108.5t-40.5 -108.5t-40.5 -108h402z" />
    <glyph glyph-name="uni03A9" unicode="&#x3a9;" horiz-adv-x="782" 
d="M467 53q55 21 87.5 68t47 107t14.5 120q0 55 -11.5 110.5t-38 102.5t-69.5 75.5t-106 28.5t-106 -28.5t-69.5 -75.5t-38 -102.5t-11.5 -110.5q0 -60 14.5 -120t47 -107t86.5 -68v-53h-258v69h73l67 -5q-40 29 -68.5 76t-44 104t-15.5 117q0 77 20.5 144t61 119t101 81
t140.5 29t140.5 -29t101 -81t61 -119t20.5 -144q0 -60 -15.5 -117t-44 -104t-68.5 -76l67 5h72v-69h-258v53z" />
    <glyph glyph-name="uni03BC" unicode="&#x3bc;" horiz-adv-x="555" 
d="M551 21q-22 -8 -47 -19t-49 -11q-31 0 -48 20t-22 48q-28 -27 -70.5 -49.5t-82.5 -22.5q-33 0 -66 14v-188h-85v625q0 1 -3 14.5t-6 28t-4 16.5h95v-306q0 -29 5 -59.5t23 -50.5t55 -20q24 0 49.5 9.5t48.5 25t39 31.5v311q0 1 -3 14.5t-6 28t-4 16.5h95v-400
q0 -12 1.5 -20.5t6.5 -13t14 -4.5q1 0 11.5 3t22 6.5t13.5 4.5z" />
    <glyph glyph-name="pi" unicode="&#x3c0;" horiz-adv-x="669" 
d="M269 469v-50v-54.5v-44.5q0 -81 -4 -138.5t-19 -96.5t-46.5 -65t-85.5 -44l-21 39q35 19 54.5 40.5t29.5 53.5t12.5 81t2.5 124v45.5v57v52.5h77zM470 469q-3 -41 -5.5 -86.5t-4 -87t-1.5 -71.5q0 -79 14 -124t53 -45q18 0 45 12l22 -39q-18 -16 -41 -24.5t-50 -8.5
q-48 0 -74 26.5t-36 76t-10 117.5q0 32 1.5 75.5t4 90t4.5 88.5h78zM623 478q-20 -25 -50 -37t-64 -12h-327q-37 0 -63 -22.5t-34 -57.5l-47 13q3 40 23 70.5t55.5 47.5t83.5 17h300q27 0 50.5 4t47.5 18z" />
    <glyph glyph-name="uni1E24" unicode="&#x1e24;" horiz-adv-x="714" 
d="M534 344h-354v-344h-93v662q0 1 -3.5 16t-6.5 31t-4 19h107v-316h354v316h93v-728h-93v344zM411 -120q0 -23 -17 -40t-40 -17t-39.5 17t-16.5 40t16.5 40t39.5 17q24 0 40.5 -16.5t16.5 -40.5z" />
    <glyph glyph-name="uni1E25" unicode="&#x1e25;" horiz-adv-x="547" 
d="M164 762v-324q32 30 69 51t82 21q55 0 88 -23t48 -62.5t15 -91.5v-333h-82v306q0 31 -4.5 60.5t-21.5 49.5t-57 20q-25 0 -49.5 -10t-46.5 -25t-41 -31v-370h-82v703l-13 59h95zM324 -120q0 -23 -17 -40t-40 -17t-39.5 17t-16.5 40t16.5 40t39.5 17q24 0 40.5 -16.5
t16.5 -40.5z" />
    <glyph glyph-name="uni1E62" unicode="&#x1e62;" horiz-adv-x="516" 
d="M280 738q50 0 97.5 -14t90.5 -40l-46 -67q-31 23 -67.5 36.5t-75.5 13.5q-53 0 -90 -26.5t-37 -84.5q0 -32 17.5 -54.5t46.5 -39.5t63 -33q35 -16 71.5 -35t67 -44.5t49 -62t18.5 -89.5q0 -72 -35 -118.5t-92 -69t-123 -22.5q-54 0 -104.5 14.5t-98.5 39.5l36 82
q33 -28 80 -46t90 -18q33 0 67 12.5t57 40.5t23 72t-21 72.5t-55 48t-72 37.5q-33 16 -66 33t-60 40t-43 55t-16 77q0 63 33.5 105t86 63.5t108.5 21.5zM323 -120q0 -23 -17 -40t-40 -17t-39.5 17t-16.5 40t16.5 40t39.5 17q24 0 40.5 -16.5t16.5 -40.5z" />
    <glyph glyph-name="uni1E6C" unicode="&#x1e6c;" horiz-adv-x="578" 
d="M240 659h-216v69h530v-69h-219v-659h-95v659zM343 -120q0 -23 -17 -40t-40 -17t-39.5 17t-16.5 40t16.5 40t39.5 17q24 0 40.5 -16.5t16.5 -40.5z" />
    <glyph glyph-name="uni1E6D" unicode="&#x1e6d;" horiz-adv-x="327" 
d="M197 639q-7 -34 -12.5 -70.5t-7.5 -71.5h130l-17 -63h-113v-318q0 -19 4.5 -33.5t16 -22t32.5 -7.5q16 0 32 3t31 7l14 -56q-25 -7 -47.5 -12.5t-51.5 -5.5q-64 0 -89 34t-25 95v316h-74v50q30 1 50 16t33 38.5t21 50t12 50.5h61zM228 -120q0 -23 -17 -40t-40 -17
t-39.5 17t-16.5 40t16.5 40t39.5 17q24 0 40.5 -16.5t16.5 -40.5z" />
    <glyph glyph-name="Wgrave" unicode="&#x1e80;" horiz-adv-x="894" 
d="M119 728l122 -451q8 -27 15 -54.5t14 -62.5q7 32 13 57.5t13 50.5l124 460h74l122 -455q7 -25 14 -52.5t14 -60.5q7 32 13 57t13 49l125 462h78l-199 -733h-77l-127 465q-5 20 -11 41.5t-11 49.5q-6 -28 -11.5 -50.5t-11.5 -43.5l-125 -462h-77l-202 733h98zM404 905
l96 -131h-78l-140 131h122z" />
    <glyph glyph-name="wgrave" unicode="&#x1e81;" horiz-adv-x="658" 
d="M99 497l86 -289q4 -13 7.5 -27t7.5 -34q4 20 7.5 33.5t7.5 25.5l91 291h59l87 -289q4 -13 7.5 -27t7.5 -34q4 20 8 34t8 27l89 289h74l-157 -503h-60q-17 58 -34 111.5t-33 110.5t-34 127q-18 -70 -35.5 -127t-35 -110.5t-36.5 -111.5h-61l-147 503h86zM280 733l96 -152
h-78l-140 152h122z" />
    <glyph glyph-name="Wacute" unicode="&#x1e82;" horiz-adv-x="894" 
d="M119 728l122 -451q8 -27 15 -54.5t14 -62.5q7 32 13 57.5t13 50.5l124 460h74l122 -455q7 -25 14 -52.5t14 -60.5q7 32 13 57t13 49l125 462h78l-199 -733h-77l-127 465q-5 20 -11 41.5t-11 49.5q-6 -28 -11.5 -50.5t-11.5 -43.5l-125 -462h-77l-202 733h98zM515 905h122
l-140 -131h-78z" />
    <glyph glyph-name="wacute" unicode="&#x1e83;" horiz-adv-x="658" 
d="M99 497l86 -289q4 -13 7.5 -27t7.5 -34q4 20 7.5 33.5t7.5 25.5l91 291h59l87 -289q4 -13 7.5 -27t7.5 -34q4 20 8 34t8 27l89 289h74l-157 -503h-60q-17 58 -34 111.5t-33 110.5t-34 127q-18 -70 -35.5 -127t-35 -110.5t-36.5 -111.5h-61l-147 503h86zM388 733h122
l-140 -152h-78z" />
    <glyph glyph-name="Wdieresis" unicode="&#x1e84;" horiz-adv-x="894" 
d="M119 728l122 -451q8 -27 15 -54.5t14 -62.5q7 32 13 57.5t13 50.5l124 460h74l122 -455q7 -25 14 -52.5t14 -60.5q7 32 13 57t13 49l125 462h78l-199 -733h-77l-127 465q-5 20 -11 41.5t-11 49.5q-6 -28 -11.5 -50.5t-11.5 -43.5l-125 -462h-77l-202 733h98zM432 838
q0 -23 -17 -40t-40 -17t-39.5 17t-16.5 40t16.5 40t39.5 17q24 0 40.5 -16.5t16.5 -40.5zM595 838q0 -23 -17 -40t-40 -17t-39.5 17t-16.5 40t16.5 40t39.5 17q24 0 40.5 -16.5t16.5 -40.5z" />
    <glyph glyph-name="wdieresis" unicode="&#x1e85;" horiz-adv-x="658" 
d="M99 497l86 -289q4 -13 7.5 -27t7.5 -34q4 20 7.5 33.5t7.5 25.5l91 291h59l87 -289q4 -13 7.5 -27t7.5 -34q4 20 8 34t8 27l89 289h74l-157 -503h-60q-17 58 -34 111.5t-33 110.5t-34 127q-18 -70 -35.5 -127t-35 -110.5t-36.5 -111.5h-61l-147 503h86zM310 655
q0 -23 -17 -40t-40 -17t-39.5 17t-16.5 40t16.5 40t39.5 17q24 0 40.5 -16.5t16.5 -40.5zM473 655q0 -23 -17 -40t-40 -17t-39.5 17t-16.5 40t16.5 40t39.5 17q24 0 40.5 -16.5t16.5 -40.5z" />
    <glyph glyph-name="uni1E9E" unicode="&#x1e9e;" horiz-adv-x="646" 
d="M72 728h469v-69h-362v-659h-93v662zM294 328l247 400l52 -56l-215 -333zM388 398q40 1 85.5 -7.5t86 -31t66 -62t25.5 -99.5q0 -67 -33.5 -114t-89 -71.5t-120.5 -24.5q-47 0 -96 13t-94 41l36 82q29 -32 69 -48t80 -16q39 0 72.5 14t54.5 42t21 69q0 46 -18 78.5
t-61.5 49.5t-119.5 17q-13 0 -27.5 -0.5t-30.5 -1.5z" />
    <glyph glyph-name="uni1EA0" unicode="&#x1ea0;" horiz-adv-x="631" 
d="M362 728l252 -728h-103l-84 250h-240l-85 -250h-84l253 728h91zM308 606l-98 -288h194zM366 -120q0 -23 -17 -40t-40 -17t-39.5 17t-16.5 40t16.5 40t39.5 17q24 0 40.5 -16.5t16.5 -40.5z" />
    <glyph glyph-name="uni1EA1" unicode="&#x1ea1;" horiz-adv-x="494" 
d="M253 509q79 0 119 -43t40 -121v-249q0 -21 8 -28.5t19 -7.5q9 0 19 2.5t19 6.5l18 -54q-16 -9 -40.5 -16.5t-50.5 -7.5t-47 14.5t-26 53.5q-29 -31 -68 -50.5t-82 -19.5q-59 0 -98 35t-39 96q0 57 27.5 91t71.5 51t93.5 23t92.5 6v53q0 28 -7 50.5t-25 36t-51 13.5
q-38 0 -73 -15t-70 -44l-41 59q41 33 90 49t101 16zM329 226q-27 0 -61 -2.5t-66 -12t-52.5 -30.5t-20.5 -58q0 -33 22.5 -48.5t56.5 -15.5q36 0 63 20t42.5 51t15.5 64v32zM288 -120q0 -23 -17 -40t-40 -17t-39.5 17t-16.5 40t16.5 40t39.5 17q24 0 40.5 -16.5t16.5 -40.5z
" />
    <glyph glyph-name="uni1EA2" unicode="&#x1ea2;" horiz-adv-x="631" 
d="M362 728l252 -728h-103l-84 250h-240l-85 -250h-84l253 728h91zM308 606l-98 -288h194zM298 764l-11 86q6 -1 13 -2t14 -1q18 0 32.5 8t14.5 31q0 17 -12 24.5t-29 7.5q-14 0 -29 -4.5t-28 -13.5l-22 42q22 15 46.5 22.5t48.5 7.5q41 0 70.5 -20.5t29.5 -58.5
q0 -37 -25.5 -59t-68.5 -25l-8 -45h-36z" />
    <glyph glyph-name="uni1EA3" unicode="&#x1ea3;" horiz-adv-x="494" 
d="M253 509q79 0 119 -43t40 -121v-249q0 -21 8 -28.5t19 -7.5q9 0 19 2.5t19 6.5l18 -54q-16 -9 -40.5 -16.5t-50.5 -7.5t-47 14.5t-26 53.5q-29 -31 -68 -50.5t-82 -19.5q-59 0 -98 35t-39 96q0 57 27.5 91t71.5 51t93.5 23t92.5 6v53q0 28 -7 50.5t-25 36t-51 13.5
q-38 0 -73 -15t-70 -44l-41 59q41 33 90 49t101 16zM329 226q-27 0 -61 -2.5t-66 -12t-52.5 -30.5t-20.5 -58q0 -33 22.5 -48.5t56.5 -15.5q36 0 63 20t42.5 51t15.5 64v32zM224 543l-11 86q6 -1 13 -2t14 -1q18 0 32.5 8t14.5 31q0 17 -12 24.5t-29 7.5q-14 0 -29 -4.5
t-28 -13.5l-22 42q22 15 46.5 22.5t48.5 7.5q41 0 70.5 -20.5t29.5 -58.5q0 -37 -25.5 -59t-68.5 -25l-8 -45h-36z" />
    <glyph glyph-name="uni1EA4" unicode="&#x1ea4;" horiz-adv-x="631" 
d="M362 728l252 -728h-103l-84 250h-240l-85 -250h-84l253 728h91zM308 606l-98 -288h194zM316 834l-76 -61h-67l102 134h83l106 -135h-69zM337 1035h102l-85 -101h-70z" />
    <glyph glyph-name="uni1EA5" unicode="&#x1ea5;" horiz-adv-x="494" 
d="M253 509q79 0 119 -43t40 -121v-249q0 -21 8 -28.5t19 -7.5q9 0 19 2.5t19 6.5l18 -54q-16 -9 -40.5 -16.5t-50.5 -7.5t-47 14.5t-26 53.5q-29 -31 -68 -50.5t-82 -19.5q-59 0 -98 35t-39 96q0 57 27.5 91t71.5 51t93.5 23t92.5 6v53q0 28 -7 50.5t-25 36t-51 13.5
q-38 0 -73 -15t-70 -44l-41 59q41 33 90 49t101 16zM329 226q-27 0 -61 -2.5t-66 -12t-52.5 -30.5t-20.5 -58q0 -33 22.5 -48.5t56.5 -15.5q36 0 63 20t42.5 51t15.5 64v32zM242 661l-76 -81h-67l102 154h83l106 -155h-69zM263 886h112l-100 -112h-68z" />
    <glyph glyph-name="uni1EA6" unicode="&#x1ea6;" horiz-adv-x="631" 
d="M362 728l252 -728h-103l-84 250h-240l-85 -250h-84l253 728h91zM308 606l-98 -288h194zM316 834l-79 -62h-69l106 135h83l102 -134h-67zM295 1035l53 -101h-70l-85 101h102z" />
    <glyph glyph-name="uni1EA7" unicode="&#x1ea7;" horiz-adv-x="494" 
d="M253 509q79 0 119 -43t40 -121v-249q0 -21 8 -28.5t19 -7.5q9 0 19 2.5t19 6.5l18 -54q-16 -9 -40.5 -16.5t-50.5 -7.5t-47 14.5t-26 53.5q-29 -31 -68 -50.5t-82 -19.5q-59 0 -98 35t-39 96q0 57 27.5 91t71.5 51t93.5 23t92.5 6v53q0 28 -7 50.5t-25 36t-51 13.5
q-38 0 -73 -15t-70 -44l-41 59q41 33 90 49t101 16zM329 226q-27 0 -61 -2.5t-66 -12t-52.5 -30.5t-20.5 -58q0 -33 22.5 -48.5t56.5 -15.5q36 0 63 20t42.5 51t15.5 64v32zM242 661l-79 -82h-69l106 155h83l102 -154h-67zM221 886l56 -112h-68l-100 112h112z" />
    <glyph glyph-name="uni1EA8" unicode="&#x1ea8;" horiz-adv-x="631" 
d="M362 728l252 -728h-103l-84 250h-240l-85 -250h-84l253 728h91zM308 606l-98 -288h194zM316 834l-76 -61h-67l102 134h83l106 -135h-69zM300 927l-10 78q5 -1 11.5 -2t13.5 -1q16 0 29 7t13 29q0 15 -10.5 22t-26.5 7q-13 0 -26.5 -4.5t-25.5 -12.5l-20 38q20 14 42.5 21
t44.5 7q37 0 63.5 -18.5t26.5 -53.5q0 -34 -23 -54t-62 -22l-7 -41h-33z" />
    <glyph glyph-name="uni1EA9" unicode="&#x1ea9;" horiz-adv-x="494" 
d="M253 509q79 0 119 -43t40 -121v-249q0 -21 8 -28.5t19 -7.5q9 0 19 2.5t19 6.5l18 -54q-16 -9 -40.5 -16.5t-50.5 -7.5t-47 14.5t-26 53.5q-29 -31 -68 -50.5t-82 -19.5q-59 0 -98 35t-39 96q0 57 27.5 91t71.5 51t93.5 23t92.5 6v53q0 28 -7 50.5t-25 36t-51 13.5
q-38 0 -73 -15t-70 -44l-41 59q41 33 90 49t101 16zM329 226q-27 0 -61 -2.5t-66 -12t-52.5 -30.5t-20.5 -58q0 -33 22.5 -48.5t56.5 -15.5q36 0 63 20t42.5 51t15.5 64v32zM242 661l-76 -81h-67l102 154h83l106 -155h-69zM226 764l-10 78q5 -1 11.5 -2t13.5 -1q16 0 29 7
t13 29q0 15 -10.5 22t-26.5 7q-13 0 -26.5 -4.5t-25.5 -12.5l-20 38q40 28 87 28q37 0 63.5 -18.5t26.5 -53.5q0 -34 -23 -54t-62 -22l-7 -41h-33z" />
    <glyph glyph-name="uni1EAA" unicode="&#x1eaa;" horiz-adv-x="631" 
d="M362 728l252 -728h-103l-84 250h-240l-85 -250h-84l253 728h91zM308 606l-98 -288h194zM316 834l-76 -61h-67l102 134h83l106 -135h-69zM455 1031q-1 -37 -21 -68t-59 -31q-28 0 -45.5 10t-33.5 19.5t-42 9.5q-13 0 -20 -8.5t-9 -18.5h-49q2 41 25 70.5t64 29.5
q27 0 44 -9.5t32.5 -19.5t35.5 -10q12 0 19.5 7.5t11.5 18.5h47z" />
    <glyph glyph-name="uni1EAB" unicode="&#x1eab;" horiz-adv-x="494" 
d="M253 509q79 0 119 -43t40 -121v-249q0 -21 8 -28.5t19 -7.5q9 0 19 2.5t19 6.5l18 -54q-16 -9 -40.5 -16.5t-50.5 -7.5t-47 14.5t-26 53.5q-29 -31 -68 -50.5t-82 -19.5q-59 0 -98 35t-39 96q0 57 27.5 91t71.5 51t93.5 23t92.5 6v53q0 28 -7 50.5t-25 36t-51 13.5
q-38 0 -73 -15t-70 -44l-41 59q41 33 90 49t101 16zM329 226q-27 0 -61 -2.5t-66 -12t-52.5 -30.5t-20.5 -58q0 -33 22.5 -48.5t56.5 -15.5q36 0 63 20t42.5 51t15.5 64v32zM242 661l-76 -81h-67l102 154h83l106 -155h-69zM386 860q-1 -37 -21 -68t-59 -31q-28 0 -45.5 10
t-33.5 19.5t-42 9.5q-13 0 -20 -8.5t-9 -18.5h-49q2 41 25 70.5t64 29.5q27 0 44 -9.5t32.5 -19.5t35.5 -10q12 0 19.5 7.5t11.5 18.5h47z" />
    <glyph glyph-name="uni1EAC" unicode="&#x1eac;" horiz-adv-x="631" 
d="M362 728l252 -728h-103l-84 250h-240l-85 -250h-84l253 728h91zM308 606l-98 -288h194zM317 834l-79 -62h-69l106 135h83l102 -134h-67zM366 -120q0 -23 -17 -40t-40 -17t-39.5 17t-16.5 40t16.5 40t39.5 17q24 0 40.5 -16.5t16.5 -40.5z" />
    <glyph glyph-name="uni1EAD" unicode="&#x1ead;" horiz-adv-x="494" 
d="M253 509q79 0 119 -43t40 -121v-249q0 -21 8 -28.5t19 -7.5q9 0 19 2.5t19 6.5l18 -54q-16 -9 -40.5 -16.5t-50.5 -7.5t-47 14.5t-26 53.5q-29 -31 -68 -50.5t-82 -19.5q-59 0 -98 35t-39 96q0 57 27.5 91t71.5 51t93.5 23t92.5 6v53q0 28 -7 50.5t-25 36t-51 13.5
q-38 0 -73 -15t-70 -44l-41 59q41 33 90 49t101 16zM329 226q-27 0 -61 -2.5t-66 -12t-52.5 -30.5t-20.5 -58q0 -33 22.5 -48.5t56.5 -15.5q36 0 63 20t42.5 51t15.5 64v32zM243 661l-76 -81h-67l102 154h83l106 -155h-69zM288 -120q0 -23 -17 -40t-40 -17t-39.5 17
t-16.5 40t16.5 40t39.5 17q24 0 40.5 -16.5t16.5 -40.5z" />
    <glyph glyph-name="uni1EAE" unicode="&#x1eae;" horiz-adv-x="631" 
d="M362 728l252 -728h-103l-84 250h-240l-85 -250h-84l253 728h91zM308 606l-98 -288h194zM455 899q-4 -34 -20.5 -61t-46 -42.5t-74.5 -15.5q-43 0 -72.5 15.5t-45.5 42.5t-20 61h50q6 -24 30 -37t60 -13t59 13t31 37h49zM361 1009h102l-120 -111h-58z" />
    <glyph glyph-name="uni1EAF" unicode="&#x1eaf;" horiz-adv-x="494" 
d="M253 509q79 0 119 -43t40 -121v-249q0 -21 8 -28.5t19 -7.5q9 0 19 2.5t19 6.5l18 -54q-16 -9 -40.5 -16.5t-50.5 -7.5t-47 14.5t-26 53.5q-29 -31 -68 -50.5t-82 -19.5q-59 0 -98 35t-39 96q0 57 27.5 91t71.5 51t93.5 23t92.5 6v53q0 28 -7 50.5t-25 36t-51 13.5
q-38 0 -73 -15t-70 -44l-41 59q41 33 90 49t101 16zM329 226q-27 0 -61 -2.5t-66 -12t-52.5 -30.5t-20.5 -58q0 -33 22.5 -48.5t56.5 -15.5q36 0 63 20t42.5 51t15.5 64v32zM386 728q-4 -42 -20 -73.5t-45 -48.5t-74 -17q-65 0 -99 39t-41 100h50q8 -36 31 -53t59 -17
t59 17.5t31 52.5h49zM287 859h112l-120 -132h-68z" />
    <glyph glyph-name="uni1EB0" unicode="&#x1eb0;" horiz-adv-x="631" 
d="M362 728l252 -728h-103l-84 250h-240l-85 -250h-84l253 728h91zM308 606l-98 -288h194zM177 899h49q8 -24 31 -37t59 -13t60 13t30 37h50q-3 -34 -19.5 -61t-45.5 -42.5t-73 -15.5q-45 0 -74.5 15.5t-45.5 42.5t-21 61zM271 1009l76 -111h-58l-120 111h102z" />
    <glyph glyph-name="uni1EB1" unicode="&#x1eb1;" horiz-adv-x="494" 
d="M253 509q79 0 119 -43t40 -121v-249q0 -21 8 -28.5t19 -7.5q9 0 19 2.5t19 6.5l18 -54q-16 -9 -40.5 -16.5t-50.5 -7.5t-47 14.5t-26 53.5q-29 -31 -68 -50.5t-82 -19.5q-59 0 -98 35t-39 96q0 57 27.5 91t71.5 51t93.5 23t92.5 6v53q0 28 -7 50.5t-25 36t-51 13.5
q-38 0 -73 -15t-70 -44l-41 59q41 33 90 49t101 16zM329 226q-27 0 -61 -2.5t-66 -12t-52.5 -30.5t-20.5 -58q0 -33 22.5 -48.5t56.5 -15.5q36 0 63 20t42.5 51t15.5 64v32zM103 728h49q8 -35 31 -52.5t59 -17.5t59.5 17t30.5 53h50q-7 -61 -41 -100t-99 -39q-45 0 -74 17
t-44.5 48.5t-20.5 73.5zM202 859l76 -132h-68l-120 132h112z" />
    <glyph glyph-name="uni1EB2" unicode="&#x1eb2;" horiz-adv-x="631" 
d="M362 728l252 -728h-103l-84 250h-240l-85 -250h-84l253 728h91zM308 606l-98 -288h194zM455 899q-4 -34 -20.5 -61t-46 -42.5t-74.5 -15.5q-43 0 -72.5 15.5t-45.5 42.5t-20 61h50q6 -24 30 -37t60 -13t59 13t31 37h49zM300 899l-10 78q5 -1 11.5 -2t13.5 -1q16 0 29 7
t13 29q0 15 -10.5 22t-26.5 7q-13 0 -26.5 -4.5t-25.5 -12.5l-20 38q20 14 42.5 21t44.5 7q37 0 63.5 -18.5t26.5 -53.5q0 -34 -23 -54t-62 -22l-7 -41h-33z" />
    <glyph glyph-name="uni1EB3" unicode="&#x1eb3;" horiz-adv-x="494" 
d="M253 509q79 0 119 -43t40 -121v-249q0 -21 8 -28.5t19 -7.5q9 0 19 2.5t19 6.5l18 -54q-16 -9 -40.5 -16.5t-50.5 -7.5t-47 14.5t-26 53.5q-29 -31 -68 -50.5t-82 -19.5q-59 0 -98 35t-39 96q0 57 27.5 91t71.5 51t93.5 23t92.5 6v53q0 28 -7 50.5t-25 36t-51 13.5
q-38 0 -73 -15t-70 -44l-41 59q41 33 90 49t101 16zM329 226q-27 0 -61 -2.5t-66 -12t-52.5 -30.5t-20.5 -58q0 -33 22.5 -48.5t56.5 -15.5q36 0 63 20t42.5 51t15.5 64v32zM381 728q-4 -42 -20 -73.5t-45 -48.5t-74 -17q-65 0 -99 39t-41 100h50q8 -36 31 -53t59 -17
t59 17.5t31 52.5h49zM225 726l-10 78q5 -1 11.5 -2t13.5 -1q16 0 29 7t13 29q0 15 -10.5 22t-26.5 7q-13 0 -26.5 -4.5t-25.5 -12.5l-20 38q40 28 87 28q37 0 63.5 -18.5t26.5 -53.5q0 -34 -23 -54t-62 -22l-7 -41h-33z" />
    <glyph glyph-name="uni1EB4" unicode="&#x1eb4;" horiz-adv-x="631" 
d="M362 728l252 -728h-103l-84 250h-240l-85 -250h-84l253 728h91zM308 606l-98 -288h194zM454 899q-4 -34 -20.5 -61t-46 -42.5t-74.5 -15.5q-43 0 -72.5 15.5t-45.5 42.5t-20 61h50q6 -24 30 -37t60 -13t59 13t31 37h49zM453 1031q-1 -37 -21 -68t-59 -31q-28 0 -45.5 10
t-33.5 19.5t-42 9.5q-13 0 -20 -8.5t-9 -18.5h-49q2 41 25 70.5t64 29.5q27 0 44 -9.5t32.5 -19.5t35.5 -10q12 0 19.5 7.5t11.5 18.5h47z" />
    <glyph glyph-name="uni1EB5" unicode="&#x1eb5;" horiz-adv-x="494" 
d="M253 509q79 0 119 -43t40 -121v-249q0 -21 8 -28.5t19 -7.5q9 0 19 2.5t19 6.5l18 -54q-16 -9 -40.5 -16.5t-50.5 -7.5t-47 14.5t-26 53.5q-29 -31 -68 -50.5t-82 -19.5q-59 0 -98 35t-39 96q0 57 27.5 91t71.5 51t93.5 23t92.5 6v53q0 28 -7 50.5t-25 36t-51 13.5
q-38 0 -73 -15t-70 -44l-41 59q41 33 90 49t101 16zM329 226q-27 0 -61 -2.5t-66 -12t-52.5 -30.5t-20.5 -58q0 -33 22.5 -48.5t56.5 -15.5q36 0 63 20t42.5 51t15.5 64v32zM381 728q-4 -42 -20 -73.5t-45 -48.5t-74 -17q-65 0 -99 39t-41 100h50q8 -36 31 -53t59 -17
t59 17.5t31 52.5h49zM381 860q-1 -37 -21 -68t-59 -31q-28 0 -45.5 10t-33.5 19.5t-42 9.5q-13 0 -20 -8.5t-9 -18.5h-49q2 41 25 70.5t64 29.5q27 0 44 -9.5t32.5 -19.5t35.5 -10q12 0 19.5 7.5t11.5 18.5h47z" />
    <glyph glyph-name="uni1EB6" unicode="&#x1eb6;" horiz-adv-x="631" 
d="M362 728l252 -728h-103l-84 250h-240l-85 -250h-84l253 728h91zM308 606l-98 -288h194zM460 899q-4 -34 -20.5 -61t-46 -42.5t-74.5 -15.5q-43 0 -72.5 15.5t-45.5 42.5t-20 61h50q6 -24 30 -37t60 -13t59 13t31 37h49zM366 -120q0 -23 -17 -40t-40 -17t-39.5 17
t-16.5 40t16.5 40t39.5 17q24 0 40.5 -16.5t16.5 -40.5z" />
    <glyph glyph-name="uni1EB7" unicode="&#x1eb7;" horiz-adv-x="494" 
d="M253 509q79 0 119 -43t40 -121v-249q0 -21 8 -28.5t19 -7.5q9 0 19 2.5t19 6.5l18 -54q-16 -9 -40.5 -16.5t-50.5 -7.5t-47 14.5t-26 53.5q-29 -31 -68 -50.5t-82 -19.5q-59 0 -98 35t-39 96q0 57 27.5 91t71.5 51t93.5 23t92.5 6v53q0 28 -7 50.5t-25 36t-51 13.5
q-38 0 -73 -15t-70 -44l-41 59q41 33 90 49t101 16zM329 226q-27 0 -61 -2.5t-66 -12t-52.5 -30.5t-20.5 -58q0 -33 22.5 -48.5t56.5 -15.5q36 0 63 20t42.5 51t15.5 64v32zM386 728q-4 -42 -20 -73.5t-45 -48.5t-74 -17q-65 0 -99 39t-41 100h50q8 -36 31 -53t59 -17
t59 17.5t31 52.5h49zM288 -120q0 -23 -17 -40t-40 -17t-39.5 17t-16.5 40t16.5 40t39.5 17q24 0 40.5 -16.5t16.5 -40.5z" />
    <glyph glyph-name="uni1EB8" unicode="&#x1eb8;" horiz-adv-x="549" 
d="M72 728h437v-69h-330v-251h256v-68h-256v-271h330v-69h-423v662zM366 -120q0 -23 -17 -40t-40 -17t-39.5 17t-16.5 40t16.5 40t39.5 17q24 0 40.5 -16.5t16.5 -40.5z" />
    <glyph glyph-name="uni1EB9" unicode="&#x1eb9;" horiz-adv-x="494" 
d="M270 509q60 0 101 -24.5t61.5 -68t20.5 -101.5q0 -14 -1.5 -28.5t-3.5 -30.5h-316q0 -95 42 -147t112 -52q29 0 60.5 9t65.5 27l31 -50q-35 -28 -79 -42t-89 -14q-59 0 -102.5 21.5t-72 58t-42.5 82.5t-14 94q0 50 14 97t42.5 85.5t70.5 61t99 22.5zM262 446
q-34 0 -60 -19t-42 -48.5t-22 -60.5h228q1 42 -11.5 70.5t-36 43t-56.5 14.5zM316 -120q0 -23 -17 -40t-40 -17t-39.5 17t-16.5 40t16.5 40t39.5 17q24 0 40.5 -16.5t16.5 -40.5z" />
    <glyph glyph-name="uni1EBA" unicode="&#x1eba;" horiz-adv-x="549" 
d="M72 728h437v-69h-330v-251h256v-68h-256v-271h330v-69h-423v662zM283 764l-11 86q6 -1 13 -2t14 -1q18 0 32.5 8t14.5 31q0 17 -12 24.5t-29 7.5q-14 0 -29 -4.5t-28 -13.5l-22 42q22 15 46.5 22.5t48.5 7.5q41 0 70.5 -20.5t29.5 -58.5q0 -37 -25.5 -59t-68.5 -25
l-8 -45h-36z" />
    <glyph glyph-name="uni1EBB" unicode="&#x1ebb;" horiz-adv-x="494" 
d="M270 509q60 0 101 -24.5t61.5 -68t20.5 -101.5q0 -14 -1.5 -28.5t-3.5 -30.5h-316q0 -95 42 -147t112 -52q29 0 60.5 9t65.5 27l31 -50q-35 -28 -79 -42t-89 -14q-59 0 -102.5 21.5t-72 58t-42.5 82.5t-14 94q0 50 14 97t42.5 85.5t70.5 61t99 22.5zM262 446
q-34 0 -60 -19t-42 -48.5t-22 -60.5h228q1 42 -11.5 70.5t-36 43t-56.5 14.5zM248 543l-11 86q6 -1 13 -2t14 -1q18 0 32.5 8t14.5 31q0 17 -12 24.5t-29 7.5q-14 0 -29 -4.5t-28 -13.5l-22 42q22 15 46.5 22.5t48.5 7.5q41 0 70.5 -20.5t29.5 -58.5q0 -37 -25.5 -59
t-68.5 -25l-8 -45h-36z" />
    <glyph glyph-name="uni1EBC" unicode="&#x1ebc;" horiz-adv-x="549" 
d="M72 728h437v-69h-330v-251h256v-68h-256v-271h330v-69h-423v662zM456 882q-2 -22 -12.5 -45t-28.5 -38.5t-44 -15.5q-28 0 -52.5 10t-47.5 19.5t-49 9.5q-13 0 -21 -8t-13 -19h-49q3 25 15 47.5t32 37.5t47 15t51 -9.5t46.5 -19.5t42.5 -10q12 0 22 7.5t14 18.5h47z" />
    <glyph glyph-name="uni1EBD" unicode="&#x1ebd;" horiz-adv-x="494" 
d="M270 509q60 0 101 -24.5t61.5 -68t20.5 -101.5q0 -14 -1.5 -28.5t-3.5 -30.5h-316q0 -95 42 -147t112 -52q29 0 60.5 9t65.5 27l31 -50q-35 -28 -79 -42t-89 -14q-59 0 -102.5 21.5t-72 58t-42.5 82.5t-14 94q0 50 14 97t42.5 85.5t70.5 61t99 22.5zM262 446
q-34 0 -60 -19t-42 -48.5t-22 -60.5h228q1 42 -11.5 70.5t-36 43t-56.5 14.5zM421 701q-2 -22 -12.5 -45t-28.5 -38.5t-44 -15.5q-28 0 -52.5 10t-47.5 19.5t-49 9.5q-13 0 -21 -8t-13 -19h-49q3 25 15 47.5t32 37.5t47 15t51 -9.5t46.5 -19.5t42.5 -10q12 0 22 7.5t14 18.5
h47z" />
    <glyph glyph-name="uni1EBE" unicode="&#x1ebe;" horiz-adv-x="549" 
d="M72 728h437v-69h-330v-251h256v-68h-256v-271h330v-69h-423v662zM301 834l-76 -61h-67l102 134h83l106 -135h-69zM322 1035h102l-85 -101h-70z" />
    <glyph glyph-name="uni1EBF" unicode="&#x1ebf;" horiz-adv-x="494" 
d="M270 509q60 0 101 -24.5t61.5 -68t20.5 -101.5q0 -14 -1.5 -28.5t-3.5 -30.5h-316q0 -95 42 -147t112 -52q29 0 60.5 9t65.5 27l31 -50q-35 -28 -79 -42t-89 -14q-59 0 -102.5 21.5t-72 58t-42.5 82.5t-14 94q0 50 14 97t42.5 85.5t70.5 61t99 22.5zM262 446
q-34 0 -60 -19t-42 -48.5t-22 -60.5h228q1 42 -11.5 70.5t-36 43t-56.5 14.5zM266 661l-76 -81h-67l102 154h83l106 -155h-69zM287 886h112l-100 -112h-68z" />
    <glyph glyph-name="uni1EC0" unicode="&#x1ec0;" horiz-adv-x="549" 
d="M72 728h437v-69h-330v-251h256v-68h-256v-271h330v-69h-423v662zM301 834l-79 -62h-69l106 135h83l102 -134h-67zM280 1035l53 -101h-70l-85 101h102z" />
    <glyph glyph-name="uni1EC1" unicode="&#x1ec1;" horiz-adv-x="494" 
d="M270 509q60 0 101 -24.5t61.5 -68t20.5 -101.5q0 -14 -1.5 -28.5t-3.5 -30.5h-316q0 -95 42 -147t112 -52q29 0 60.5 9t65.5 27l31 -50q-35 -28 -79 -42t-89 -14q-59 0 -102.5 21.5t-72 58t-42.5 82.5t-14 94q0 50 14 97t42.5 85.5t70.5 61t99 22.5zM262 446
q-34 0 -60 -19t-42 -48.5t-22 -60.5h228q1 42 -11.5 70.5t-36 43t-56.5 14.5zM266 661l-79 -82h-69l106 155h83l102 -154h-67zM245 886l56 -112h-68l-100 112h112z" />
    <glyph glyph-name="uni1EC2" unicode="&#x1ec2;" horiz-adv-x="549" 
d="M72 728h437v-69h-330v-251h256v-68h-256v-271h330v-69h-423v662zM301 834l-76 -61h-67l102 134h83l106 -135h-69zM285 927l-10 78q5 -1 11.5 -2t13.5 -1q16 0 29 7t13 29q0 15 -10.5 22t-26.5 7q-13 0 -26.5 -4.5t-25.5 -12.5l-20 38q20 14 42.5 21t44.5 7
q37 0 63.5 -18.5t26.5 -53.5q0 -34 -23 -54t-62 -22l-7 -41h-33z" />
    <glyph glyph-name="uni1EC3" unicode="&#x1ec3;" horiz-adv-x="494" 
d="M270 509q60 0 101 -24.5t61.5 -68t20.5 -101.5q0 -14 -1.5 -28.5t-3.5 -30.5h-316q0 -95 42 -147t112 -52q29 0 60.5 9t65.5 27l31 -50q-35 -28 -79 -42t-89 -14q-59 0 -102.5 21.5t-72 58t-42.5 82.5t-14 94q0 50 14 97t42.5 85.5t70.5 61t99 22.5zM262 446
q-34 0 -60 -19t-42 -48.5t-22 -60.5h228q1 42 -11.5 70.5t-36 43t-56.5 14.5zM266 661l-76 -81h-67l102 154h83l106 -155h-69zM250 764l-10 78q5 -1 11.5 -2t13.5 -1q16 0 29 7t13 29q0 15 -10.5 22t-26.5 7q-13 0 -26.5 -4.5t-25.5 -12.5l-20 38q40 28 87 28
q37 0 63.5 -18.5t26.5 -53.5q0 -34 -23 -54t-62 -22l-7 -41h-33z" />
    <glyph glyph-name="uni1EC4" unicode="&#x1ec4;" horiz-adv-x="549" 
d="M72 728h437v-69h-330v-251h256v-68h-256v-271h330v-69h-423v662zM301 834l-76 -61h-67l102 134h83l106 -135h-69zM440 1031q-1 -37 -21 -68t-59 -31q-28 0 -45.5 10t-33.5 19.5t-42 9.5q-13 0 -20 -8.5t-9 -18.5h-49q2 41 25 70.5t64 29.5q27 0 44 -9.5t32.5 -19.5
t35.5 -10q12 0 19.5 7.5t11.5 18.5h47z" />
    <glyph glyph-name="uni1EC5" unicode="&#x1ec5;" horiz-adv-x="494" 
d="M270 509q60 0 101 -24.5t61.5 -68t20.5 -101.5q0 -14 -1.5 -28.5t-3.5 -30.5h-316q0 -95 42 -147t112 -52q29 0 60.5 9t65.5 27l31 -50q-35 -28 -79 -42t-89 -14q-59 0 -102.5 21.5t-72 58t-42.5 82.5t-14 94q0 50 14 97t42.5 85.5t70.5 61t99 22.5zM262 446
q-34 0 -60 -19t-42 -48.5t-22 -60.5h228q1 42 -11.5 70.5t-36 43t-56.5 14.5zM266 661l-76 -81h-67l102 154h83l106 -155h-69zM410 860q-1 -37 -21 -68t-59 -31q-28 0 -45.5 10t-33.5 19.5t-42 9.5q-13 0 -20 -8.5t-9 -18.5h-49q2 41 25 70.5t64 29.5q27 0 44 -9.5
t32.5 -19.5t35.5 -10q12 0 19.5 7.5t11.5 18.5h47z" />
    <glyph glyph-name="uni1EC6" unicode="&#x1ec6;" horiz-adv-x="549" 
d="M72 728h437v-69h-330v-251h256v-68h-256v-271h330v-69h-423v662zM302 834l-79 -62h-69l106 135h83l102 -134h-67zM366 -120q0 -23 -17 -40t-40 -17t-39.5 17t-16.5 40t16.5 40t39.5 17q24 0 40.5 -16.5t16.5 -40.5z" />
    <glyph glyph-name="uni1EC7" unicode="&#x1ec7;" horiz-adv-x="494" 
d="M270 509q60 0 101 -24.5t61.5 -68t20.5 -101.5q0 -14 -1.5 -28.5t-3.5 -30.5h-316q0 -95 42 -147t112 -52q29 0 60.5 9t65.5 27l31 -50q-35 -28 -79 -42t-89 -14q-59 0 -102.5 21.5t-72 58t-42.5 82.5t-14 94q0 50 14 97t42.5 85.5t70.5 61t99 22.5zM262 446
q-34 0 -60 -19t-42 -48.5t-22 -60.5h228q1 42 -11.5 70.5t-36 43t-56.5 14.5zM267 661l-76 -81h-67l102 154h83l106 -155h-69zM316 -120q0 -23 -17 -40t-40 -17t-39.5 17t-16.5 40t16.5 40t39.5 17q24 0 40.5 -16.5t16.5 -40.5z" />
    <glyph glyph-name="uni1EC8" unicode="&#x1ec8;" horiz-adv-x="268" 
d="M73 728h107v-728h-93v662q0 1 -3.5 16t-6.5 31t-4 19zM115 764l-11 86q6 -1 13 -2t14 -1q18 0 32.5 8t14.5 31q0 17 -12 24.5t-29 7.5q-14 0 -29 -4.5t-28 -13.5l-22 42q22 15 46.5 22.5t48.5 7.5q41 0 70.5 -20.5t29.5 -58.5q0 -37 -25.5 -59t-68.5 -25l-8 -45h-36z" />
    <glyph glyph-name="uni1EC9" unicode="&#x1ec9;" horiz-adv-x="252" 
d="M84 438q0 1 -3 14.5t-5.5 27.5t-3.5 17h95v-497h-83v438zM107 543l-11 86q6 -1 13 -2t14 -1q18 0 32.5 8t14.5 31q0 17 -12 24.5t-29 7.5q-14 0 -29 -4.5t-28 -13.5l-22 42q22 15 46.5 22.5t48.5 7.5q41 0 70.5 -20.5t29.5 -58.5q0 -37 -25.5 -59t-68.5 -25l-8 -45h-36z
" />
    <glyph glyph-name="uni1ECA" unicode="&#x1eca;" horiz-adv-x="268" 
d="M73 728h107v-728h-93v662q0 1 -3.5 16t-6.5 31t-4 19zM193 -120q0 -23 -17 -40t-40 -17t-39.5 17t-16.5 40t16.5 40t39.5 17q24 0 40.5 -16.5t16.5 -40.5z" />
    <glyph glyph-name="uni1ECB" unicode="&#x1ecb;" horiz-adv-x="251" 
d="M185 664q0 -25 -17.5 -43t-43.5 -18q-25 0 -42.5 18t-17.5 43t17.5 43t42.5 18t43 -18t18 -43zM167 497v-497h-83v438l-12 59h95zM182 -120q0 -23 -17 -40t-40 -17t-39.5 17t-16.5 40t16.5 40t39.5 17q24 0 40.5 -16.5t16.5 -40.5z" />
    <glyph glyph-name="uni1ECC" unicode="&#x1ecc;" horiz-adv-x="737" 
d="M368 -11q-81 0 -141.5 30t-100.5 82.5t-60 119.5t-20 142t19.5 142.5t59.5 120t101 82.5t143 30t142.5 -30t100.5 -82.5t59.5 -120t19.5 -142.5t-20 -142.5t-60 -119.5t-100.5 -82t-142.5 -30zM369 57q64 0 107 27t69 72t37.5 99t11.5 108t-11.5 108t-37.5 98.5
t-69.5 71.5t-106.5 27t-106.5 -27t-69 -72t-37 -99t-11.5 -108t11.5 -107.5t37 -98.5t69 -72t106.5 -27zM439 -120q0 -23 -17 -40t-40 -17t-39.5 17t-16.5 40t16.5 40t39.5 17q24 0 40.5 -16.5t16.5 -40.5z" />
    <glyph glyph-name="uni1ECD" unicode="&#x1ecd;" horiz-adv-x="537" 
d="M265 -13q-73 0 -122.5 36.5t-74 95.5t-24.5 126q0 50 15 97.5t44 85t71.5 59.5t96.5 22q74 0 123.5 -36t74 -95t24.5 -127q0 -51 -15 -98.5t-43.5 -84.5t-71 -59t-98.5 -22zM266 50q39 0 65.5 18.5t43 48.5t23.5 64.5t7 66.5q0 33 -6.5 67.5t-21.5 64t-41.5 48
t-65.5 18.5t-65.5 -18.5t-42.5 -48.5t-23 -64.5t-7 -66.5q0 -31 7 -65.5t22.5 -64.5t41.5 -49t63 -19zM323 -120q0 -23 -17 -40t-40 -17t-39.5 17t-16.5 40t16.5 40t39.5 17q24 0 40.5 -16.5t16.5 -40.5z" />
    <glyph glyph-name="uni1ECE" unicode="&#x1ece;" horiz-adv-x="737" 
d="M368 -11q-81 0 -141.5 30t-100.5 82.5t-60 119.5t-20 142t19.5 142.5t59.5 120t101 82.5t143 30t142.5 -30t100.5 -82.5t59.5 -120t19.5 -142.5t-20 -142.5t-60 -119.5t-100.5 -82t-142.5 -30zM369 57q64 0 107 27t69 72t37.5 99t11.5 108t-11.5 108t-37.5 98.5
t-69.5 71.5t-106.5 27t-106.5 -27t-69 -72t-37 -99t-11.5 -108t11.5 -107.5t37 -98.5t69 -72t106.5 -27zM351 764l-11 86q6 -1 13 -2t14 -1q18 0 32.5 8t14.5 31q0 17 -12 24.5t-29 7.5q-14 0 -29 -4.5t-28 -13.5l-22 42q22 15 46.5 22.5t48.5 7.5q41 0 70.5 -20.5
t29.5 -58.5q0 -37 -25.5 -59t-68.5 -25l-8 -45h-36z" />
    <glyph glyph-name="uni1ECF" unicode="&#x1ecf;" horiz-adv-x="537" 
d="M265 -13q-73 0 -122.5 36.5t-74 95.5t-24.5 126q0 50 15 97.5t44 85t71.5 59.5t96.5 22q74 0 123.5 -36t74 -95t24.5 -127q0 -51 -15 -98.5t-43.5 -84.5t-71 -59t-98.5 -22zM266 50q39 0 65.5 18.5t43 48.5t23.5 64.5t7 66.5q0 33 -6.5 67.5t-21.5 64t-41.5 48
t-65.5 18.5t-65.5 -18.5t-42.5 -48.5t-23 -64.5t-7 -66.5q0 -31 7 -65.5t22.5 -64.5t41.5 -49t63 -19zM247 543l-11 86q6 -1 13 -2t14 -1q18 0 32.5 8t14.5 31q0 17 -12 24.5t-29 7.5q-14 0 -29 -4.5t-28 -13.5l-22 42q22 15 46.5 22.5t48.5 7.5q41 0 70.5 -20.5t29.5 -58.5
q0 -37 -25.5 -59t-68.5 -25l-8 -45h-36z" />
    <glyph glyph-name="uni1ED0" unicode="&#x1ed0;" horiz-adv-x="737" 
d="M368 -11q-81 0 -141.5 30t-100.5 82.5t-60 119.5t-20 142t19.5 142.5t59.5 120t101 82.5t143 30t142.5 -30t100.5 -82.5t59.5 -120t19.5 -142.5t-20 -142.5t-60 -119.5t-100.5 -82t-142.5 -30zM369 57q64 0 107 27t69 72t37.5 99t11.5 108t-11.5 108t-37.5 98.5
t-69.5 71.5t-106.5 27t-106.5 -27t-69 -72t-37 -99t-11.5 -108t11.5 -107.5t37 -98.5t69 -72t106.5 -27zM369 834l-76 -61h-67l102 134h83l106 -135h-69zM390 1035h102l-85 -101h-70z" />
    <glyph glyph-name="uni1ED1" unicode="&#x1ed1;" horiz-adv-x="537" 
d="M265 -13q-73 0 -122.5 36.5t-74 95.5t-24.5 126q0 50 15 97.5t44 85t71.5 59.5t96.5 22q74 0 123.5 -36t74 -95t24.5 -127q0 -51 -15 -98.5t-43.5 -84.5t-71 -59t-98.5 -22zM266 50q39 0 65.5 18.5t43 48.5t23.5 64.5t7 66.5q0 33 -6.5 67.5t-21.5 64t-41.5 48
t-65.5 18.5t-65.5 -18.5t-42.5 -48.5t-23 -64.5t-7 -66.5q0 -31 7 -65.5t22.5 -64.5t41.5 -49t63 -19zM265 661l-76 -81h-67l102 154h83l106 -155h-69zM286 886h112l-100 -112h-68z" />
    <glyph glyph-name="uni1ED2" unicode="&#x1ed2;" horiz-adv-x="737" 
d="M368 -11q-81 0 -141.5 30t-100.5 82.5t-60 119.5t-20 142t19.5 142.5t59.5 120t101 82.5t143 30t142.5 -30t100.5 -82.5t59.5 -120t19.5 -142.5t-20 -142.5t-60 -119.5t-100.5 -82t-142.5 -30zM369 57q64 0 107 27t69 72t37.5 99t11.5 108t-11.5 108t-37.5 98.5
t-69.5 71.5t-106.5 27t-106.5 -27t-69 -72t-37 -99t-11.5 -108t11.5 -107.5t37 -98.5t69 -72t106.5 -27zM369 834l-79 -62h-69l106 135h83l102 -134h-67zM348 1035l53 -101h-70l-85 101h102z" />
    <glyph glyph-name="uni1ED3" unicode="&#x1ed3;" horiz-adv-x="537" 
d="M265 -13q-73 0 -122.5 36.5t-74 95.5t-24.5 126q0 50 15 97.5t44 85t71.5 59.5t96.5 22q74 0 123.5 -36t74 -95t24.5 -127q0 -51 -15 -98.5t-43.5 -84.5t-71 -59t-98.5 -22zM266 50q39 0 65.5 18.5t43 48.5t23.5 64.5t7 66.5q0 33 -6.5 67.5t-21.5 64t-41.5 48
t-65.5 18.5t-65.5 -18.5t-42.5 -48.5t-23 -64.5t-7 -66.5q0 -31 7 -65.5t22.5 -64.5t41.5 -49t63 -19zM265 661l-79 -82h-69l106 155h83l102 -154h-67zM244 886l56 -112h-68l-100 112h112z" />
    <glyph glyph-name="uni1ED4" unicode="&#x1ed4;" horiz-adv-x="737" 
d="M368 -11q-81 0 -141.5 30t-100.5 82.5t-60 119.5t-20 142t19.5 142.5t59.5 120t101 82.5t143 30t142.5 -30t100.5 -82.5t59.5 -120t19.5 -142.5t-20 -142.5t-60 -119.5t-100.5 -82t-142.5 -30zM369 57q64 0 107 27t69 72t37.5 99t11.5 108t-11.5 108t-37.5 98.5
t-69.5 71.5t-106.5 27t-106.5 -27t-69 -72t-37 -99t-11.5 -108t11.5 -107.5t37 -98.5t69 -72t106.5 -27zM369 834l-76 -61h-67l102 134h83l106 -135h-69zM353 927l-10 78q5 -1 11.5 -2t13.5 -1q16 0 29 7t13 29q0 15 -10.5 22t-26.5 7q-13 0 -26.5 -4.5t-25.5 -12.5l-20 38
q20 14 42.5 21t44.5 7q37 0 63.5 -18.5t26.5 -53.5q0 -34 -23 -54t-62 -22l-7 -41h-33z" />
    <glyph glyph-name="uni1ED5" unicode="&#x1ed5;" horiz-adv-x="537" 
d="M265 -13q-73 0 -122.5 36.5t-74 95.5t-24.5 126q0 50 15 97.5t44 85t71.5 59.5t96.5 22q74 0 123.5 -36t74 -95t24.5 -127q0 -51 -15 -98.5t-43.5 -84.5t-71 -59t-98.5 -22zM266 50q39 0 65.5 18.5t43 48.5t23.5 64.5t7 66.5q0 33 -6.5 67.5t-21.5 64t-41.5 48
t-65.5 18.5t-65.5 -18.5t-42.5 -48.5t-23 -64.5t-7 -66.5q0 -31 7 -65.5t22.5 -64.5t41.5 -49t63 -19zM265 661l-76 -81h-67l102 154h83l106 -155h-69zM249 764l-10 78q5 -1 11.5 -2t13.5 -1q16 0 29 7t13 29q0 15 -10.5 22t-26.5 7q-13 0 -26.5 -4.5t-25.5 -12.5l-20 38
q40 28 87 28q37 0 63.5 -18.5t26.5 -53.5q0 -34 -23 -54t-62 -22l-7 -41h-33z" />
    <glyph glyph-name="uni1ED6" unicode="&#x1ed6;" horiz-adv-x="737" 
d="M368 -11q-81 0 -141.5 30t-100.5 82.5t-60 119.5t-20 142t19.5 142.5t59.5 120t101 82.5t143 30t142.5 -30t100.5 -82.5t59.5 -120t19.5 -142.5t-20 -142.5t-60 -119.5t-100.5 -82t-142.5 -30zM369 57q64 0 107 27t69 72t37.5 99t11.5 108t-11.5 108t-37.5 98.5
t-69.5 71.5t-106.5 27t-106.5 -27t-69 -72t-37 -99t-11.5 -108t11.5 -107.5t37 -98.5t69 -72t106.5 -27zM369 834l-76 -61h-67l102 134h83l106 -135h-69zM508 1031q-1 -37 -21 -68t-59 -31q-28 0 -45.5 10t-33.5 19.5t-42 9.5q-13 0 -20 -8.5t-9 -18.5h-49q2 41 25 70.5
t64 29.5q27 0 44 -9.5t32.5 -19.5t35.5 -10q12 0 19.5 7.5t11.5 18.5h47z" />
    <glyph glyph-name="uni1ED7" unicode="&#x1ed7;" horiz-adv-x="537" 
d="M265 -13q-73 0 -122.5 36.5t-74 95.5t-24.5 126q0 50 15 97.5t44 85t71.5 59.5t96.5 22q74 0 123.5 -36t74 -95t24.5 -127q0 -51 -15 -98.5t-43.5 -84.5t-71 -59t-98.5 -22zM266 50q39 0 65.5 18.5t43 48.5t23.5 64.5t7 66.5q0 33 -6.5 67.5t-21.5 64t-41.5 48
t-65.5 18.5t-65.5 -18.5t-42.5 -48.5t-23 -64.5t-7 -66.5q0 -31 7 -65.5t22.5 -64.5t41.5 -49t63 -19zM265 661l-76 -81h-67l102 154h83l106 -155h-69zM409 860q-1 -37 -21 -68t-59 -31q-28 0 -45.5 10t-33.5 19.5t-42 9.5q-13 0 -20 -8.5t-9 -18.5h-49q2 41 25 70.5
t64 29.5q27 0 44 -9.5t32.5 -19.5t35.5 -10q12 0 19.5 7.5t11.5 18.5h47z" />
    <glyph glyph-name="uni1ED8" unicode="&#x1ed8;" horiz-adv-x="737" 
d="M368 -11q-81 0 -141.5 30t-100.5 82.5t-60 119.5t-20 142t19.5 142.5t59.5 120t101 82.5t143 30t142.5 -30t100.5 -82.5t59.5 -120t19.5 -142.5t-20 -142.5t-60 -119.5t-100.5 -82t-142.5 -30zM369 57q64 0 107 27t69 72t37.5 99t11.5 108t-11.5 108t-37.5 98.5
t-69.5 71.5t-106.5 27t-106.5 -27t-69 -72t-37 -99t-11.5 -108t11.5 -107.5t37 -98.5t69 -72t106.5 -27zM370 834l-79 -62h-69l106 135h83l102 -134h-67zM439 -120q0 -23 -17 -40t-40 -17t-39.5 17t-16.5 40t16.5 40t39.5 17q24 0 40.5 -16.5t16.5 -40.5z" />
    <glyph glyph-name="uni1ED9" unicode="&#x1ed9;" horiz-adv-x="537" 
d="M265 -13q-73 0 -122.5 36.5t-74 95.5t-24.5 126q0 50 15 97.5t44 85t71.5 59.5t96.5 22q74 0 123.5 -36t74 -95t24.5 -127q0 -51 -15 -98.5t-43.5 -84.5t-71 -59t-98.5 -22zM266 50q39 0 65.5 18.5t43 48.5t23.5 64.5t7 66.5q0 33 -6.5 67.5t-21.5 64t-41.5 48
t-65.5 18.5t-65.5 -18.5t-42.5 -48.5t-23 -64.5t-7 -66.5q0 -31 7 -65.5t22.5 -64.5t41.5 -49t63 -19zM266 661l-76 -81h-67l102 154h83l106 -155h-69zM323 -120q0 -23 -17 -40t-40 -17t-39.5 17t-16.5 40t16.5 40t39.5 17q24 0 40.5 -16.5t16.5 -40.5z" />
    <glyph glyph-name="uni1EDA" unicode="&#x1eda;" horiz-adv-x="737" 
d="M368 -11q-81 0 -141.5 30t-100.5 82.5t-60 119.5t-20 142t19.5 142.5t59.5 120t101 82.5t143 30t142.5 -30t100.5 -82.5t59.5 -120t19.5 -142.5t-20 -142.5t-60 -119.5t-100.5 -82t-142.5 -30zM369 57q64 0 107 27t69 72t37.5 99t11.5 108t-11.5 108t-37.5 98.5
t-69.5 71.5t-106.5 27t-106.5 -27t-69 -72t-37 -99t-11.5 -108t11.5 -107.5t37 -98.5t69 -72t106.5 -27zM478 721q43 -15 71.5 -1t41 47.5t7.5 75.5h99q3 -37 -9 -75t-39 -67.5t-69.5 -41.5t-101.5 1v61zM427 905h122l-140 -131h-78z" />
    <glyph glyph-name="uni1EDB" unicode="&#x1edb;" horiz-adv-x="537" 
d="M265 -13q-73 0 -122.5 36.5t-74 95.5t-24.5 126q0 50 15 97.5t44 85t71.5 59.5t96.5 22q74 0 123.5 -36t74 -95t24.5 -127q0 -51 -15 -98.5t-43.5 -84.5t-71 -59t-98.5 -22zM266 50q39 0 65.5 18.5t43 48.5t23.5 64.5t7 66.5q0 33 -6.5 67.5t-21.5 64t-41.5 48
t-65.5 18.5t-65.5 -18.5t-42.5 -48.5t-23 -64.5t-7 -66.5q0 -31 7 -65.5t22.5 -64.5t41.5 -49t63 -19zM345 496q38 -15 64 -3.5t38.5 42.5t7.5 73h99q2 -37 -11 -73t-39.5 -63t-66 -37t-92.5 3v58zM319 733h122l-140 -152h-78z" />
    <glyph glyph-name="uni1EDC" unicode="&#x1edc;" horiz-adv-x="737" 
d="M368 -11q-81 0 -141.5 30t-100.5 82.5t-60 119.5t-20 142t19.5 142.5t59.5 120t101 82.5t143 30t142.5 -30t100.5 -82.5t59.5 -120t19.5 -142.5t-20 -142.5t-60 -119.5t-100.5 -82t-142.5 -30zM369 57q64 0 107 27t69 72t37.5 99t11.5 108t-11.5 108t-37.5 98.5
t-69.5 71.5t-106.5 27t-106.5 -27t-69 -72t-37 -99t-11.5 -108t11.5 -107.5t37 -98.5t69 -72t106.5 -27zM478 721q43 -15 71.5 -1t41 47.5t7.5 75.5h99q3 -37 -9 -75t-39 -67.5t-69.5 -41.5t-101.5 1v61zM316 905l96 -131h-78l-140 131h122z" />
    <glyph glyph-name="uni1EDD" unicode="&#x1edd;" horiz-adv-x="537" 
d="M265 -13q-73 0 -122.5 36.5t-74 95.5t-24.5 126q0 50 15 97.5t44 85t71.5 59.5t96.5 22q74 0 123.5 -36t74 -95t24.5 -127q0 -51 -15 -98.5t-43.5 -84.5t-71 -59t-98.5 -22zM266 50q39 0 65.5 18.5t43 48.5t23.5 64.5t7 66.5q0 33 -6.5 67.5t-21.5 64t-41.5 48
t-65.5 18.5t-65.5 -18.5t-42.5 -48.5t-23 -64.5t-7 -66.5q0 -31 7 -65.5t22.5 -64.5t41.5 -49t63 -19zM345 496q38 -15 64 -3.5t38.5 42.5t7.5 73h99q2 -37 -11 -73t-39.5 -63t-66 -37t-92.5 3v58zM211 733l96 -152h-78l-140 152h122z" />
    <glyph glyph-name="uni1EDE" unicode="&#x1ede;" horiz-adv-x="737" 
d="M368 -11q-81 0 -141.5 30t-100.5 82.5t-60 119.5t-20 142t19.5 142.5t59.5 120t101 82.5t143 30t142.5 -30t100.5 -82.5t59.5 -120t19.5 -142.5t-20 -142.5t-60 -119.5t-100.5 -82t-142.5 -30zM369 57q64 0 107 27t69 72t37.5 99t11.5 108t-11.5 108t-37.5 98.5
t-69.5 71.5t-106.5 27t-106.5 -27t-69 -72t-37 -99t-11.5 -108t11.5 -107.5t37 -98.5t69 -72t106.5 -27zM478 721q43 -15 71.5 -1t41 47.5t7.5 75.5h99q3 -37 -9 -75t-39 -67.5t-69.5 -41.5t-101.5 1v61zM351 764l-11 86q6 -1 13 -2t14 -1q18 0 32.5 8t14.5 31
q0 17 -12 24.5t-29 7.5q-14 0 -29 -4.5t-28 -13.5l-22 42q22 15 46.5 22.5t48.5 7.5q41 0 70.5 -20.5t29.5 -58.5q0 -37 -25.5 -59t-68.5 -25l-8 -45h-36z" />
    <glyph glyph-name="uni1EDF" unicode="&#x1edf;" horiz-adv-x="537" 
d="M265 -13q-73 0 -122.5 36.5t-74 95.5t-24.5 126q0 50 15 97.5t44 85t71.5 59.5t96.5 22q74 0 123.5 -36t74 -95t24.5 -127q0 -51 -15 -98.5t-43.5 -84.5t-71 -59t-98.5 -22zM266 50q39 0 65.5 18.5t43 48.5t23.5 64.5t7 66.5q0 33 -6.5 67.5t-21.5 64t-41.5 48
t-65.5 18.5t-65.5 -18.5t-42.5 -48.5t-23 -64.5t-7 -66.5q0 -31 7 -65.5t22.5 -64.5t41.5 -49t63 -19zM345 496q38 -15 64 -3.5t38.5 42.5t7.5 73h99q2 -37 -11 -73t-39.5 -63t-66 -37t-92.5 3v58zM247 543l-11 86q6 -1 13 -2t14 -1q18 0 32.5 8t14.5 31q0 17 -12 24.5
t-29 7.5q-14 0 -29 -4.5t-28 -13.5l-22 42q22 15 46.5 22.5t48.5 7.5q41 0 70.5 -20.5t29.5 -58.5q0 -37 -25.5 -59t-68.5 -25l-8 -45h-36z" />
    <glyph glyph-name="uni1EE0" unicode="&#x1ee0;" horiz-adv-x="737" 
d="M368 -11q-81 0 -141.5 30t-100.5 82.5t-60 119.5t-20 142t19.5 142.5t59.5 120t101 82.5t143 30t142.5 -30t100.5 -82.5t59.5 -120t19.5 -142.5t-20 -142.5t-60 -119.5t-100.5 -82t-142.5 -30zM369 57q64 0 107 27t69 72t37.5 99t11.5 108t-11.5 108t-37.5 98.5
t-69.5 71.5t-106.5 27t-106.5 -27t-69 -72t-37 -99t-11.5 -108t11.5 -107.5t37 -98.5t69 -72t106.5 -27zM478 721q43 -15 71.5 -1t41 47.5t7.5 75.5h99q3 -37 -9 -75t-39 -67.5t-69.5 -41.5t-101.5 1v61zM524 882q-2 -22 -12.5 -45t-28.5 -38.5t-44 -15.5q-28 0 -52.5 10
t-47.5 19.5t-49 9.5q-13 0 -21 -8t-13 -19h-49q3 25 15 47.5t32 37.5t47 15t51 -9.5t46.5 -19.5t42.5 -10q12 0 22 7.5t14 18.5h47z" />
    <glyph glyph-name="uni1EE1" unicode="&#x1ee1;" horiz-adv-x="537" 
d="M265 -13q-73 0 -122.5 36.5t-74 95.5t-24.5 126q0 50 15 97.5t44 85t71.5 59.5t96.5 22q74 0 123.5 -36t74 -95t24.5 -127q0 -51 -15 -98.5t-43.5 -84.5t-71 -59t-98.5 -22zM266 50q39 0 65.5 18.5t43 48.5t23.5 64.5t7 66.5q0 33 -6.5 67.5t-21.5 64t-41.5 48
t-65.5 18.5t-65.5 -18.5t-42.5 -48.5t-23 -64.5t-7 -66.5q0 -31 7 -65.5t22.5 -64.5t41.5 -49t63 -19zM345 496q38 -15 64 -3.5t38.5 42.5t7.5 73h99q2 -37 -11 -73t-39.5 -63t-66 -37t-92.5 3v58zM420 701q-2 -22 -12.5 -45t-28.5 -38.5t-44 -15.5q-28 0 -52.5 10
t-47.5 19.5t-49 9.5q-13 0 -21 -8t-13 -19h-49q3 25 15 47.5t32 37.5t47 15t51 -9.5t46.5 -19.5t42.5 -10q12 0 22 7.5t14 18.5h47z" />
    <glyph glyph-name="uni1EE2" unicode="&#x1ee2;" horiz-adv-x="737" 
d="M368 -11q-81 0 -141.5 30t-100.5 82.5t-60 119.5t-20 142t19.5 142.5t59.5 120t101 82.5t143 30t142.5 -30t100.5 -82.5t59.5 -120t19.5 -142.5t-20 -142.5t-60 -119.5t-100.5 -82t-142.5 -30zM369 57q64 0 107 27t69 72t37.5 99t11.5 108t-11.5 108t-37.5 98.5
t-69.5 71.5t-106.5 27t-106.5 -27t-69 -72t-37 -99t-11.5 -108t11.5 -107.5t37 -98.5t69 -72t106.5 -27zM478 721q43 -15 71.5 -1t41 47.5t7.5 75.5h99q3 -37 -9 -75t-39 -67.5t-69.5 -41.5t-101.5 1v61zM439 -120q0 -23 -17 -40t-40 -17t-39.5 17t-16.5 40t16.5 40t39.5 17
q24 0 40.5 -16.5t16.5 -40.5z" />
    <glyph glyph-name="uni1EE3" unicode="&#x1ee3;" horiz-adv-x="537" 
d="M265 -13q-73 0 -122.5 36.5t-74 95.5t-24.5 126q0 50 15 97.5t44 85t71.5 59.5t96.5 22q74 0 123.5 -36t74 -95t24.5 -127q0 -51 -15 -98.5t-43.5 -84.5t-71 -59t-98.5 -22zM266 50q39 0 65.5 18.5t43 48.5t23.5 64.5t7 66.5q0 33 -6.5 67.5t-21.5 64t-41.5 48
t-65.5 18.5t-65.5 -18.5t-42.5 -48.5t-23 -64.5t-7 -66.5q0 -31 7 -65.5t22.5 -64.5t41.5 -49t63 -19zM345 496q38 -15 64 -3.5t38.5 42.5t7.5 73h99q2 -37 -11 -73t-39.5 -63t-66 -37t-92.5 3v58zM323 -120q0 -23 -17 -40t-40 -17t-39.5 17t-16.5 40t16.5 40t39.5 17
q24 0 40.5 -16.5t16.5 -40.5z" />
    <glyph glyph-name="uni1EE4" unicode="&#x1ee4;" horiz-adv-x="707" 
d="M181 728v-484q0 -85 42 -136t132 -51q62 0 104 25.5t63 71t21 104.5v470h77v-470q0 -84 -31.5 -144.5t-91.5 -93t-146 -32.5q-125 0 -195 65t-70 191v418l-15 66h110zM408 -120q0 -23 -17 -40t-40 -17t-39.5 17t-16.5 40t16.5 40t39.5 17q24 0 40.5 -16.5t16.5 -40.5z
" />
    <glyph glyph-name="uni1EE5" unicode="&#x1ee5;" horiz-adv-x="553" 
d="M163 497v-306q0 -29 5 -59.5t22.5 -50.5t55.5 -20q37 0 67.5 16t49.5 44.5t19 66.5v250q0 1 -3 14.5t-6 28t-4 16.5h96v-400q0 -19 6.5 -28t20.5 -9t38 9l18 -54q-20 -11 -44.5 -17.5t-46.5 -6.5q-26 0 -46 15t-26 53q-29 -30 -69.5 -51t-83.5 -21q-55 0 -88.5 23
t-48.5 62.5t-15 91.5v274l-13 59h96zM332 -120q0 -23 -17 -40t-40 -17t-39.5 17t-16.5 40t16.5 40t39.5 17q24 0 40.5 -16.5t16.5 -40.5z" />
    <glyph glyph-name="uni1EE6" unicode="&#x1ee6;" horiz-adv-x="707" 
d="M181 728v-484q0 -85 42 -136t132 -51q62 0 104 25.5t63 71t21 104.5v470h77v-470q0 -84 -31.5 -144.5t-91.5 -93t-146 -32.5q-125 0 -195 65t-70 191v418l-15 66h110zM341 764l-11 86q6 -1 13 -2t14 -1q18 0 32.5 8t14.5 31q0 17 -12 24.5t-29 7.5q-14 0 -29 -4.5
t-28 -13.5l-22 42q22 15 46.5 22.5t48.5 7.5q41 0 70.5 -20.5t29.5 -58.5q0 -37 -25.5 -59t-68.5 -25l-8 -45h-36z" />
    <glyph glyph-name="uni1EE7" unicode="&#x1ee7;" horiz-adv-x="553" 
d="M163 497v-306q0 -29 5 -59.5t22.5 -50.5t55.5 -20q37 0 67.5 16t49.5 44.5t19 66.5v250q0 1 -3 14.5t-6 28t-4 16.5h96v-400q0 -19 6.5 -28t20.5 -9t38 9l18 -54q-20 -11 -44.5 -17.5t-46.5 -6.5q-26 0 -46 15t-26 53q-29 -30 -69.5 -51t-83.5 -21q-55 0 -88.5 23
t-48.5 62.5t-15 91.5v274l-13 59h96zM256 543l-11 86q6 -1 13 -2t14 -1q18 0 32.5 8t14.5 31q0 17 -12 24.5t-29 7.5q-14 0 -29 -4.5t-28 -13.5l-22 42q22 15 46.5 22.5t48.5 7.5q41 0 70.5 -20.5t29.5 -58.5q0 -37 -25.5 -59t-68.5 -25l-8 -45h-36z" />
    <glyph glyph-name="uni1EE8" unicode="&#x1ee8;" horiz-adv-x="707" 
d="M181 728v-484q0 -85 42 -136t132 -51q62 0 104 25.5t63 71t21 104.5v470h77v-470q0 -84 -31.5 -144.5t-91.5 -93t-146 -32.5q-125 0 -195 65t-70 191v418l-15 66h110zM543 736q43 -15 71.5 -1t41 47.5t7.5 75.5h99q3 -37 -9 -75t-39 -67.5t-69.5 -41.5t-101.5 1v61z
M417 905h122l-140 -131h-78z" />
    <glyph glyph-name="uni1EE9" unicode="&#x1ee9;" horiz-adv-x="553" 
d="M232 -13q-55 0 -88.5 23t-48.5 62.5t-15 91.5v274l-13 59h96v-306q0 -29 5 -59.5t22.5 -50.5t55.5 -20q37 0 67.5 16t49.5 44.5t19 66.5v250l-13 59h96v-400q0 -12 1.5 -20.5t6.5 -13t14 -4.5q1 0 11.5 3t22 6.5t13.5 4.5l17 -52q-22 -8 -47 -19t-49 -11q-31 0 -48 20
t-22 48q-29 -30 -69.5 -51t-83.5 -21zM381 448l39 49q38 0 57.5 34.5t13.5 86.5h99q2 -37 -11 -73t-39.5 -63t-66 -37t-92.5 3zM334 733h122l-140 -152h-78z" />
    <glyph glyph-name="uni1EEA" unicode="&#x1eea;" horiz-adv-x="707" 
d="M181 728v-484q0 -85 42 -136t132 -51q62 0 104 25.5t63 71t21 104.5v470h77v-470q0 -84 -31.5 -144.5t-91.5 -93t-146 -32.5q-125 0 -195 65t-70 191v418l-15 66h110zM543 736q43 -15 71.5 -1t41 47.5t7.5 75.5h99q3 -37 -9 -75t-39 -67.5t-69.5 -41.5t-101.5 1v61z
M306 905l96 -131h-78l-140 131h122z" />
    <glyph glyph-name="uni1EEB" unicode="&#x1eeb;" horiz-adv-x="553" 
d="M232 -13q-55 0 -88.5 23t-48.5 62.5t-15 91.5v274l-13 59h96v-306q0 -29 5 -59.5t22.5 -50.5t55.5 -20q37 0 67.5 16t49.5 44.5t19 66.5v250l-13 59h96v-400q0 -12 1.5 -20.5t6.5 -13t14 -4.5q1 0 11.5 3t22 6.5t13.5 4.5l17 -52q-22 -8 -47 -19t-49 -11q-31 0 -48 20
t-22 48q-29 -30 -69.5 -51t-83.5 -21zM381 448l39 49q38 0 57.5 34.5t13.5 86.5h99q2 -37 -11 -73t-39.5 -63t-66 -37t-92.5 3zM226 733l96 -152h-78l-140 152h122z" />
    <glyph glyph-name="uni1EEC" unicode="&#x1eec;" horiz-adv-x="707" 
d="M181 728v-484q0 -85 42 -136t132 -51q62 0 104 25.5t63 71t21 104.5v470h77v-470q0 -84 -31.5 -144.5t-91.5 -93t-146 -32.5q-125 0 -195 65t-70 191v418l-15 66h110zM543 736q43 -15 71.5 -1t41 47.5t7.5 75.5h99q3 -37 -9 -75t-39 -67.5t-69.5 -41.5t-101.5 1v61z
M341 764l-11 86q6 -1 13 -2t14 -1q18 0 32.5 8t14.5 31q0 17 -12 24.5t-29 7.5q-14 0 -29 -4.5t-28 -13.5l-22 42q22 15 46.5 22.5t48.5 7.5q41 0 70.5 -20.5t29.5 -58.5q0 -37 -25.5 -59t-68.5 -25l-8 -45h-36z" />
    <glyph glyph-name="uni1EED" unicode="&#x1eed;" horiz-adv-x="553" 
d="M232 -13q-55 0 -88.5 23t-48.5 62.5t-15 91.5v274l-13 59h96v-306q0 -29 5 -59.5t22.5 -50.5t55.5 -20q37 0 67.5 16t49.5 44.5t19 66.5v250l-13 59h96v-400q0 -12 1.5 -20.5t6.5 -13t14 -4.5q1 0 11.5 3t22 6.5t13.5 4.5l17 -52q-22 -8 -47 -19t-49 -11q-31 0 -48 20
t-22 48q-29 -30 -69.5 -51t-83.5 -21zM381 448l39 49q38 0 57.5 34.5t13.5 86.5h99q2 -37 -11 -73t-39.5 -63t-66 -37t-92.5 3zM262 543l-11 86q6 -1 13 -2t14 -1q18 0 32.5 8t14.5 31q0 17 -12 24.5t-29 7.5q-14 0 -29 -4.5t-28 -13.5l-22 42q22 15 46.5 22.5t48.5 7.5
q41 0 70.5 -20.5t29.5 -58.5q0 -37 -25.5 -59t-68.5 -25l-8 -45h-36z" />
    <glyph glyph-name="uni1EEE" unicode="&#x1eee;" horiz-adv-x="707" 
d="M181 728v-484q0 -85 42 -136t132 -51q62 0 104 25.5t63 71t21 104.5v470h77v-470q0 -84 -31.5 -144.5t-91.5 -93t-146 -32.5q-125 0 -195 65t-70 191v418l-15 66h110zM543 736q43 -15 71.5 -1t41 47.5t7.5 75.5h99q3 -37 -9 -75t-39 -67.5t-69.5 -41.5t-101.5 1v61z
M514 882q-2 -22 -12.5 -45t-28.5 -38.5t-44 -15.5q-28 0 -52.5 10t-47.5 19.5t-49 9.5q-13 0 -21 -8t-13 -19h-49q3 25 15 47.5t32 37.5t47 15t51 -9.5t46.5 -19.5t42.5 -10q12 0 22 7.5t14 18.5h47z" />
    <glyph glyph-name="uni1EEF" unicode="&#x1eef;" horiz-adv-x="553" 
d="M232 -13q-55 0 -88.5 23t-48.5 62.5t-15 91.5v274l-13 59h96v-306q0 -29 5 -59.5t22.5 -50.5t55.5 -20q37 0 67.5 16t49.5 44.5t19 66.5v250l-13 59h96v-400q0 -12 1.5 -20.5t6.5 -13t14 -4.5q1 0 11.5 3t22 6.5t13.5 4.5l17 -52q-22 -8 -47 -19t-49 -11q-31 0 -48 20
t-22 48q-29 -30 -69.5 -51t-83.5 -21zM381 448l39 49q38 0 57.5 34.5t13.5 86.5h99q2 -37 -11 -73t-39.5 -63t-66 -37t-92.5 3zM435 701q-2 -22 -12.5 -45t-28.5 -38.5t-44 -15.5q-28 0 -52.5 10t-47.5 19.5t-49 9.5q-13 0 -21 -8t-13 -19h-49q3 25 15 47.5t32 37.5t47 15
t51 -9.5t46.5 -19.5t42.5 -10q12 0 22 7.5t14 18.5h47z" />
    <glyph glyph-name="uni1EF0" unicode="&#x1ef0;" horiz-adv-x="707" 
d="M181 728v-484q0 -85 42 -136t132 -51q62 0 104 25.5t63 71t21 104.5v470h77v-470q0 -84 -31.5 -144.5t-91.5 -93t-146 -32.5q-125 0 -195 65t-70 191v418l-15 66h110zM543 736q43 -15 71.5 -1t41 47.5t7.5 75.5h99q3 -37 -9 -75t-39 -67.5t-69.5 -41.5t-101.5 1v61z
M408 -120q0 -23 -17 -40t-40 -17t-39.5 17t-16.5 40t16.5 40t39.5 17q24 0 40.5 -16.5t16.5 -40.5z" />
    <glyph glyph-name="uni1EF1" unicode="&#x1ef1;" horiz-adv-x="553" 
d="M232 -13q-55 0 -88.5 23t-48.5 62.5t-15 91.5v274l-13 59h96v-306q0 -29 5 -59.5t22.5 -50.5t55.5 -20q37 0 67.5 16t49.5 44.5t19 66.5v250l-13 59h96v-400q0 -12 1.5 -20.5t6.5 -13t14 -4.5q1 0 11.5 3t22 6.5t13.5 4.5l17 -52q-22 -8 -47 -19t-49 -11q-31 0 -48 20
t-22 48q-29 -30 -69.5 -51t-83.5 -21zM381 448l39 49q38 0 57.5 34.5t13.5 86.5h99q2 -37 -11 -73t-39.5 -63t-66 -37t-92.5 3zM332 -120q0 -23 -17 -40t-40 -17t-39.5 17t-16.5 40t16.5 40t39.5 17q24 0 40.5 -16.5t16.5 -40.5z" />
    <glyph glyph-name="Ygrave" unicode="&#x1ef2;" horiz-adv-x="584" 
d="M140 728l169 -283l157 283h87l-209 -368v-360h-95v360l-217 368h108zM246 905l96 -131h-78l-140 131h122z" />
    <glyph glyph-name="ygrave" unicode="&#x1ef3;" horiz-adv-x="456" 
d="M102 497q22 -62 43.5 -124t43.5 -127q11 -34 22.5 -68.5t22.5 -68.5q11 35 22.5 69t22.5 68q22 65 43.5 127t43.5 124h78l-176 -499q-11 -31 -28 -68.5t-40 -70.5t-54 -54.5t-70 -21.5h-38v67h5.5h5.5q42 0 69.5 25t45.5 60.5t30 68.5l-182 493h90zM178 733l96 -152h-78
l-140 152h122z" />
    </font>
</defs>
</svg>
