<?xml version="1.0" standalone="no"?>
<!DOCTYPE svg PUBLIC "-//W3C//DTD SVG 1.1//EN" "http://www.w3.org/Graphics/SVG/1.1/DTD/svg11.dtd" >
<svg xmlns="http://www.w3.org/2000/svg" xmlns:xlink="http://www.w3.org/1999/xlink" version="1.1">
<metadata>
Created by FontForge 20170731 at Wed Sep 15 23:24:54 2021
 By Aleksey,,,
Copyright 2019 The Rosario Project Authors (https://github.com/Omnibus-Type/Rosario)
</metadata>
<defs>
<font id="Rosario-SemiBold" horiz-adv-x="0" >
  <font-face 
    font-family="Rosario SemiBold"
    font-weight="600"
    font-stretch="normal"
    units-per-em="1000"
    panose-1="0 0 0 0 0 0 0 0 0 0"
    ascent="800"
    descent="-200"
    x-height="497"
    cap-height="730"
    bbox="-647 -289 1304 1151"
    underline-thickness="62"
    underline-position="-293"
    unicode-range="U+000D-FEFF"
  />
<missing-glyph horiz-adv-x="641" 
d="M581 728v-728h-521v728h521zM143 676l177 -264l178 264h-355zM289 365l-177 264v-530zM529 629l-177 -264l177 -266v530zM320 318l-177 -266h355z" />
    <glyph glyph-name="fi" unicode="fi" horiz-adv-x="549" 
d="M304 772q59 0 106 -30t71 -97l-96 -27q-6 39 -27.5 61.5t-52.5 22.5q-39 0 -61.5 -17t-34.5 -46.5t-15.5 -66t-4.5 -75.5h293v-498h-98v428h-194v-428h-99v428h-78v59q33 2 50 9.5t24 21t10 34t9 47.5q17 81 63 127.5t135 46.5z" />
    <glyph glyph-name="fl" unicode="fl" horiz-adv-x="567" 
d="M307 771q19 0 38.5 -4t37 -10.5t30.5 -15.5l79 29v-771h-99v628q0 22 -12 38.5t-31.5 26.5t-42.5 10q-31 0 -52 -11t-34 -30.5t-20.5 -45t-9.5 -56t-2 -62.5h134l-20 -70h-114v-428h-98v428h-78v59q30 2 46.5 8.5t24.5 19t11.5 33.5t9.5 51q12 52 35.5 91t64 60.5
t102.5 21.5z" />
    <glyph glyph-name="f_f" unicode="ff" horiz-adv-x="568" 
d="M306 773q25 0 50 -5.5t47 -19.5l-26 -70q-13 11 -32 17.5t-36 6.5q-31 0 -52 -11t-34.5 -30t-21 -45t-10 -56.5t-2.5 -62.5h218l-104 -70h-114v-427h-98v427h-78v60q15 2 32 3.5t30.5 10t17.5 28.5q9 44 14.5 74.5t17 55.5t37.5 54q26 28 63 44t81 16zM586 773
q26 0 51 -5.5t47 -19.5l-27 -70q-13 11 -32 17.5t-36 6.5q-31 0 -52 -11t-34.5 -30t-21 -45t-10 -56.5t-2.5 -62.5h134l-20 -70h-114v-427h-98v427h-92l14 70q17 0 33.5 1.5t29.5 9.5t17 27q8 34 12.5 58t10 43t16.5 37.5t31 39.5q25 28 62.5 44t80.5 16z" />
    <glyph glyph-name="f_f_i" unicode="ffi" horiz-adv-x="829" 
d="M306 773q25 0 50 -5.5t47 -19.5l-26 -70q-13 11 -32 17.5t-36 6.5q-31 0 -52 -11t-34.5 -30t-21 -45t-10 -56.5t-2.5 -62.5h218l-39 -70h-179v-427h-98v427h-78v60q15 2 32 3.5t30.5 10t17.5 28.5q9 44 14.5 74.5t17 55.5t37.5 54q26 28 63 44t81 16zM584 772
q58 0 105.5 -30t71.5 -97l-96 -27q-6 39 -28 61.5t-53 22.5q-38 0 -61 -17t-35 -46.5t-15.5 -66t-3.5 -75.5h293v-498h-98v428h-195v-428h-99v428h-78v70q31 0 47.5 5.5t24.5 17.5t12 31.5t9 46.5q18 81 64 127.5t135 46.5z" />
    <glyph glyph-name="f_f_l" unicode="ffl" horiz-adv-x="848" 
d="M306 773q25 0 50 -5.5t47 -19.5l-26 -70q-13 11 -32 17.5t-36 6.5q-31 0 -52 -11t-34.5 -30t-21 -45t-10 -56.5t-2.5 -62.5h218l-45 -70h-173v-427h-98v427h-78v60q15 2 32 3.5t30.5 10t17.5 28.5q9 44 14.5 74.5t17 55.5t37.5 54q26 28 63 44t81 16zM587 771
q19 0 38.5 -4t37 -10.5t31.5 -15.5l78 29v-771h-99v628q0 22 -11.5 38.5t-31 26.5t-42.5 10q-31 0 -52.5 -11t-34.5 -30.5t-20 -45t-9.5 -56t-2.5 -62.5h134l-20 -70h-114v-428h-98v428h-78v70q33 0 50.5 8.5t26 30.5t16.5 62q11 52 34.5 91t64.5 60.5t102 21.5z" />
    <glyph glyph-name=".notdef" horiz-adv-x="641" 
d="M581 728v-728h-521v728h521zM143 676l177 -264l178 264h-355zM289 365l-177 264v-530zM529 629l-177 -264l177 -266v530zM320 318l-177 -266h355z" />
    <glyph glyph-name=".null" 
 />
    <glyph glyph-name="nonmarkingreturn" horiz-adv-x="333" 
 />
    <glyph glyph-name="CR" unicode="&#xd;" horiz-adv-x="600" 
 />
    <glyph glyph-name="space" unicode=" " horiz-adv-x="230" 
 />
    <glyph glyph-name="exclam" unicode="!" horiz-adv-x="329" 
d="M103 730h131l-29 -512h-73zM239 57q0 -29 -21 -49.5t-49 -20.5t-49 20.5t-21 49.5t20.5 49t49.5 20q28 0 49 -20.5t21 -48.5z" />
    <glyph glyph-name="quotedbl" unicode="&#x22;" horiz-adv-x="367" 
d="M98 444q-1 3 -6 21t-10.5 39t-10.5 37l-5 16v176h88v-176l-31 -113h-25zM244 444l-31 113v176h88v-176l-31 -113h-26z" />
    <glyph glyph-name="numbersign" unicode="#" horiz-adv-x="640" 
d="M289 499h104l30 227h79l-31 -227h114v-76h-123l-18 -124h117v-75h-127l-31 -227h-79l31 227h-103l-32 -227h-78l31 227h-118v75h128l17 124h-119v76h129l30 227h80zM279 423l-17 -124h104l17 124h-104z" />
    <glyph glyph-name="dollar" unicode="$" horiz-adv-x="536" 
d="M480 644l-56 -75q-32 25 -68 37.5t-70 12.5q-46 0 -78 -24.5t-32 -75.5q0 -28 15 -46.5t40 -31t55 -24.5q35 -13 71 -28t67.5 -37.5t51 -57.5t19.5 -89q0 -71 -34 -119.5t-90.5 -73t-124.5 -24.5q-51 0 -105.5 13.5t-105.5 42.5l41 94q38 -33 82.5 -50t85.5 -17
q36 0 66 13t47.5 39t17.5 64q0 37 -18.5 59.5t-49 37.5t-65.5 28q-32 12 -65 26.5t-60 35t-43.5 51.5t-16.5 78q0 64 32 108.5t84.5 67t114.5 22.5q48 0 97.5 -14t94.5 -43zM281 26l-16 -160h-80l42 160h54zM254 671l14 150h82l-39 -150h-57z" />
    <glyph glyph-name="percent" unicode="%" horiz-adv-x="941" 
d="M619 731h78l-374 -735h-76zM222 731q60 0 96.5 -28t53.5 -75.5t17 -107.5q0 -58 -20 -106t-58.5 -76.5t-97.5 -28.5q-58 0 -95 28.5t-54.5 76.5t-17.5 106q0 60 19.5 107.5t59 75.5t97.5 28zM218 670q-39 0 -59 -23.5t-27 -58t-7 -68.5q0 -35 6.5 -69.5t26.5 -57.5
t60 -23t59.5 23t26 57.5t6.5 69.5t-6.5 69t-26 57.5t-59.5 23.5zM728 412q59 0 95.5 -28t53.5 -75.5t17 -106.5q0 -58 -19.5 -106t-58.5 -77t-97 -29t-95 29t-54.5 77t-17.5 106q0 60 19.5 107.5t58.5 75t98 27.5zM723 350q-38 0 -58.5 -23t-27.5 -57.5t-7 -67.5
q0 -35 6.5 -69.5t26.5 -57.5t60 -23q41 0 60.5 23t26 57.5t6.5 69.5q0 34 -7 68.5t-26.5 57t-59.5 22.5zM222 731h412v-61h-416z" />
    <glyph glyph-name="ampersand" unicode="&#x26;" horiz-adv-x="661" 
d="M591 323q-46 -163 -136.5 -247.5t-218.5 -84.5q-69 0 -117 26.5t-73 70.5t-25 97q0 74 47.5 135t138.5 95l24 -66q-49 -18 -77 -55.5t-28 -91.5q0 -37 15 -69.5t43.5 -52t68.5 -19.5q53 0 105.5 31t93.5 93t57 156zM670 -2q-20 -4 -38.5 -5.5t-36.5 -1.5q-66 0 -122.5 17
t-102.5 50q-66 48 -121 122t-87.5 163.5t-32.5 181.5q0 50 12.5 89t35 67.5t54.5 43.5t71 15q63 0 99 -35t36 -93q0 -47 -22.5 -97t-67.5 -93.5t-112 -71.5l-20 67q46 18 73.5 51t40 69.5t12.5 66.5q0 31 -11 48.5t-34 17.5q-32 0 -48 -33t-16 -95q0 -85 29 -166t77 -147
t105 -107q38 -26 77 -39.5t80 -13.5q15 0 29.5 1.5t29.5 4.5z" />
    <glyph glyph-name="quotesingle" unicode="'" horiz-adv-x="226" 
d="M99 447q-1 3 -5.5 20.5t-10.5 38.5t-10.5 37t-4.5 17v175h88v-175l-32 -113h-25z" />
    <glyph glyph-name="parenleft" unicode="(" horiz-adv-x="306" 
d="M221 -141q-81 92 -131 204.5t-50 236.5q0 125 50 238t131 205l79 -13q-54 -65 -89 -132t-52 -140.5t-17 -157.5q0 -83 17 -156.5t52 -140.5t89 -132z" />
    <glyph glyph-name="parenright" unicode=")" horiz-adv-x="306" 
d="M277 300q0 -124 -49.5 -236.5t-131.5 -204.5l-79 12q54 65 89 131.5t52.5 140.5t17.5 157q0 85 -17.5 158t-52.5 140t-89 132l79 13q82 -92 131.5 -205t49.5 -238z" />
    <glyph glyph-name="asterisk" unicode="*" horiz-adv-x="510" 
d="M206 735h92l-20 -147h-49zM286 584l126 70l34 -90l-145 -28zM90 650l133 -67l-15 -43l-143 21zM210 530l40 -30l-69 -130l-72 53zM258 500l39 27l105 -102l-74 -57z" />
    <glyph glyph-name="plus" unicode="+" horiz-adv-x="642" 
d="M355 0h-77v210h-210v77h210v210h77v-210h211v-76h-211v-211z" />
    <glyph glyph-name="comma" unicode="," horiz-adv-x="235" 
d="M105 130q38 0 58 -26.5t20 -61.5q0 -54 -31.5 -98t-73.5 -74l-18.5 18.5t-17.5 18.5q9 9 20 21t19.5 25.5t8.5 25.5q0 13 -12.5 22.5t-24.5 24t-12 40.5q0 27 19 45.5t45 18.5z" />
    <glyph glyph-name="hyphen" unicode="-" horiz-adv-x="313" 
d="M44 302h227v-84h-227v84z" />
    <glyph glyph-name="period" unicode="." horiz-adv-x="228" 
d="M178 60q0 -29 -21 -50t-50 -21t-49.5 21t-20.5 50t20 50t50 21q29 0 50 -21t21 -50z" />
    <glyph glyph-name="slash" unicode="/" horiz-adv-x="326" 
d="M259 729h78l-268 -734h-79z" />
    <glyph glyph-name="zero" unicode="0" horiz-adv-x="573" 
d="M292 509q78 0 131 -33.5t80.5 -92.5t27.5 -135q0 -74 -30.5 -133t-86 -93.5t-133.5 -34.5q-77 0 -130.5 34.5t-81 93.5t-27.5 133q0 77 30 136t86 92t134 33zM287 439q-40 0 -66.5 -17t-42.5 -45t-22.5 -61.5t-6.5 -67.5t6.5 -68t21.5 -61t42 -44t68 -17t67.5 17t41.5 44
t21 61t6 68t-6 68t-21 61.5t-42 44.5t-67 17z" />
    <glyph glyph-name="one" unicode="1" horiz-adv-x="388" 
d="M45 80h114v313l-115 -34l-20 55l172 83h62v-417h109v-81h-322v81z" />
    <glyph glyph-name="two" unicode="2" horiz-adv-x="468" 
d="M251 510q43 0 79 -13.5t58 -42t22 -73.5q0 -58 -31 -109.5t-83.5 -98.5t-116.5 -92h256l-20 -82h-385v66q73 49 124.5 91t83.5 79.5t46.5 70.5t14.5 61q0 36 -18 51.5t-46 15.5q-33 0 -72.5 -18t-68.5 -46l-52 65q50 39 103 57t106 18z" />
    <glyph glyph-name="three" unicode="3" horiz-adv-x="409" 
d="M222 511q66 0 103.5 -28.5t37.5 -81.5q0 -39 -17.5 -75t-50.5 -67t-77 -58q36 0 71.5 -15.5t59 -46.5t23.5 -80q0 -46 -16.5 -83t-46 -65.5t-69 -49t-86 -33.5t-97 -19t-101.5 -6l-5 50q57 4 112.5 15t100 34t71 60.5t26.5 92.5q0 48 -28 71t-69 23q-14 0 -29.5 -3
t-31.5 -8l-26 52q34 14 66 36t58 48t41 54t15 56q0 24 -13 37.5t-41 13.5q-32 0 -70 -18t-62 -46l-50 67q44 36 98 54.5t103 18.5z" />
    <glyph glyph-name="four" unicode="4" horiz-adv-x="476" 
d="M258 498h112v-416h103l-22 -82h-81v-185h-101v185h-272v47zM269 378l-167 -296h167v296z" />
    <glyph glyph-name="five" unicode="5" horiz-adv-x="382" 
d="M122 497h263l-28 -100h-195l-39 -94q88 -33 142.5 -87t54.5 -136q0 -62 -26.5 -112t-71.5 -86t-103 -59t-120 -31l-14 49q66 17 116.5 45.5t79 74t28.5 111.5q0 47 -24.5 84t-66 64.5t-92.5 44.5z" />
    <glyph glyph-name="six" unicode="6" horiz-adv-x="539" 
d="M455 731l23 -54q-88 -39 -150.5 -92t-101.5 -112.5t-57 -120t-18 -115.5q0 -54 15 -94t42 -62t62 -22q39 0 65.5 21.5t39.5 55t13 69.5q0 34 -12 64t-37.5 49t-64.5 19q-30 0 -63.5 -12t-66.5 -37l13 72q35 27 73.5 39.5t75.5 12.5q65 0 108 -27.5t64 -71t21 -93.5
q0 -42 -15 -83.5t-44.5 -75t-73.5 -54t-102 -20.5t-109.5 27.5t-83 83t-31.5 140.5q0 88 34.5 166.5t93.5 143.5t133 112t154 71z" />
    <glyph glyph-name="seven" unicode="7" horiz-adv-x="433" 
d="M35 497h384v-51l-281 -633h-118l301 594h-311z" />
    <glyph glyph-name="eight" unicode="8" horiz-adv-x="491" 
d="M254 730q44 0 83.5 -17t64 -51.5t24.5 -87.5q0 -51 -30 -101t-92 -90l-52 46q42 25 62.5 62.5t20.5 74.5q0 33 -11 54.5t-29 32t-40 10.5t-41.5 -11.5t-31.5 -34.5t-12 -57q0 -35 15.5 -59t41.5 -43.5t55 -41.5q30 -20 59.5 -42t54.5 -48.5t40.5 -61.5t15.5 -81
q0 -65 -31 -108.5t-80 -64.5t-103 -21q-51 0 -96.5 20t-74 60t-28.5 99q0 42 16 78.5t48.5 69t79.5 62.5l49 -48q-40 -24 -61.5 -51.5t-29.5 -54.5t-8 -53q0 -38 14.5 -63.5t38 -38t49.5 -12.5q28 0 52 13t39 39.5t15 64.5q0 39 -22.5 67t-56.5 52t-70 51q-34 25 -63.5 53.5
t-48 65.5t-18.5 86q0 59 28.5 99.5t72.5 61t91 20.5z" />
    <glyph glyph-name="nine" unicode="9" horiz-adv-x="537" 
d="M273 510q59 0 110.5 -27.5t83 -82.5t31.5 -141q0 -87 -34.5 -164t-93.5 -139t-133.5 -105.5t-153.5 -64.5l-24 55q89 35 151.5 84.5t101.5 106t57 115.5t18 113q0 55 -15.5 95t-42 61.5t-62.5 21.5q-38 0 -64.5 -21.5t-40 -55t-13.5 -69.5q0 -33 12.5 -63t38 -49
t63.5 -19q30 0 63.5 12t66.5 36l-13 -72q-34 -26 -72.5 -38.5t-75.5 -12.5q-65 0 -108.5 27t-64.5 71t-21 93q0 42 15 83.5t44.5 75.5t73.5 54t102 20z" />
    <glyph glyph-name="colon" unicode=":" horiz-adv-x="331" 
d="M234 362q0 -29 -20.5 -50t-49.5 -21t-50 21t-21 50t20.5 50t49.5 21t50 -21t21 -50zM234 58q0 -29 -20.5 -50t-49.5 -21t-50 21t-21 50t20.5 50t49.5 21t50 -21t21 -50z" />
    <glyph glyph-name="semicolon" unicode=";" horiz-adv-x="334" 
d="M164 433q29 0 50 -21t21 -50q0 -30 -20.5 -50.5t-50.5 -20.5q-29 0 -50 21t-21 50t21 50t50 21zM157 130q37 0 57 -26.5t20 -61.5q0 -54 -31 -98t-74 -74l-36 37q9 9 20 21t19.5 25.5t8.5 25.5q0 13 -12.5 22.5t-24.5 24t-12 40.5q0 27 19 45.5t46 18.5z" />
    <glyph glyph-name="less" unicode="&#x3c;" horiz-adv-x="630" 
d="M66 282l498 224v-83l-389 -174l389 -175v-81l-498 225v64z" />
    <glyph glyph-name="equal" unicode="=" horiz-adv-x="630" 
d="M68 382h498v-78h-498v78zM68 189h498v-78h-498v78z" />
    <glyph glyph-name="greater" unicode="&#x3e;" horiz-adv-x="630" 
d="M66 74l389 175l-389 174v83l498 -224v-64l-498 -225v81z" />
    <glyph glyph-name="question" unicode="?" horiz-adv-x="438" 
d="M191 723q52 0 98 -19t75.5 -57.5t29.5 -96.5q0 -51 -22 -88t-59 -63t-84 -43v-139h-83v199q33 5 66 20.5t54.5 42t21.5 64.5q0 49 -35 73t-81 24q-26 0 -52 -9t-47 -24l-35 76q29 18 72 29t81 11zM185 129q29 0 50 -21t21 -50t-21 -50t-50 -21t-49.5 21t-20.5 50
q0 30 20 50.5t50 20.5z" />
    <glyph glyph-name="at" unicode="@" horiz-adv-x="1029" 
d="M554 731q87 0 164 -26.5t136.5 -78t93 -126t33.5 -169.5q0 -61 -17 -121t-49.5 -109t-78.5 -78t-104 -29q-30 0 -57 5t-48 21t-33 48h-4q-26 -40 -65.5 -60.5t-76.5 -20.5q-56 0 -90.5 29t-50.5 76.5t-16 103.5t15.5 111t46.5 100t78 72t111 27q27 0 58 -10t57 -36l24 37
h52q-15 -100 -25.5 -167.5t-17 -109t-9.5 -65t-4 -35.5t-1 -20q0 -19 13 -31t47 -12q40 0 72 23.5t54.5 63t34.5 88t12 99.5q0 81 -28 143.5t-77 106t-113 66.5t-137 23q-107 0 -188.5 -41t-136 -109t-82 -151t-27.5 -168q0 -75 21.5 -143.5t63.5 -122.5t106 -85.5
t150 -31.5q52 0 106 14l17 -59q-29 -8 -60 -12.5t-63 -4.5q-104 0 -181 37.5t-129 100.5t-77.5 143.5t-25.5 166.5q0 77 20 153t61 143.5t102 119.5t141.5 81.5t181.5 29.5zM546 435q-40 0 -70 -19t-49.5 -53t-29 -76t-9.5 -89q0 -56 18.5 -97.5t60.5 -41.5q33 0 57 22
t42 59t30 83t18 95l13 92q-41 25 -81 25z" />
    <glyph glyph-name="A" unicode="A" horiz-adv-x="631" 
d="M365 730l255 -730h-122l-79 233h-230l-80 -233h-98l256 730h98zM305 586l-89 -272h176z" />
    <glyph glyph-name="B" unicode="B" horiz-adv-x="614" 
d="M542 560q0 -40 -16.5 -74.5t-47 -58t-70.5 -29.5q50 -8 87.5 -35t59 -68t21.5 -91q0 -62 -23.5 -101.5t-63.5 -62t-89 -31.5t-100 -9h-223v666q0 1 -3.5 15.5t-6.5 30t-4 18.5h251q43 0 83.5 -7.5t73.5 -26.5t52 -52t19 -84zM425 551q0 36 -15.5 57.5t-42 30.5t-59.5 9
h-119v-213h106q39 0 68 12t45.5 37.5t16.5 66.5zM457 219q0 48 -25 78t-64 43t-82 13h-97v-271h111q46 0 81.5 13t55.5 43.5t20 80.5z" />
    <glyph glyph-name="C" unicode="C" horiz-adv-x="624" 
d="M375 -12q-87 0 -150.5 29.5t-106 81t-63 118.5t-20.5 142q0 77 23 146t66.5 122t108 83.5t147.5 30.5q36 0 78.5 -8t82.5 -24.5t65 -42.5l-60 -73q-19 22 -47 36.5t-59 22.5t-59 8q-58 0 -100 -25t-69.5 -68t-41 -96t-13.5 -108q0 -90 27.5 -155t78.5 -100t121 -35
q42 0 90 11.5t100 38.5l35 -64q-25 -18 -53 -31t-58.5 -22t-61.5 -13.5t-61 -4.5z" />
    <glyph glyph-name="D" unicode="D" horiz-adv-x="699" 
d="M664 363q0 -105 -38.5 -187t-114 -129t-186.5 -47h-247v666q0 1 -3.5 15.5t-7 30t-4.5 18.5h225q88 0 157.5 -23t118.5 -69t74.5 -114.5t25.5 -160.5zM546 363q0 67 -16 120t-49 90t-83 56t-118 19h-90v-566h125q85 0 135.5 39t73 103t22.5 139z" />
    <glyph glyph-name="E" unicode="E" horiz-adv-x="549" 
d="M64 730h446v-82h-320v-232h247v-81h-247v-253h320v-82h-432v666z" />
    <glyph glyph-name="F" unicode="F" horiz-adv-x="510" 
d="M64 730h414v-82h-288v-232h226v-81h-226v-335h-112v666z" />
    <glyph glyph-name="G" unicode="G" horiz-adv-x="707" 
d="M386 741q39 0 85 -8.5t89.5 -26.5t71.5 -47l-61 -70q-31 24 -57.5 39.5t-56 23t-71.5 7.5q-64 0 -108.5 -24t-71.5 -66t-39.5 -94.5t-12.5 -108.5q0 -52 11.5 -103.5t37 -95t67.5 -69.5t102 -26q51 0 88 21.5t58 59.5t21 88v64h-168l13 76h268l-1 -198q-1 -46 2 -92
t5 -91h-59l-33 76q-46 -47 -96 -67.5t-117 -20.5q-80 0 -139.5 29.5t-99 80.5t-59 117.5t-19.5 141.5q0 82 22.5 152t66.5 122t109.5 81t151.5 29z" />
    <glyph glyph-name="H" unicode="H" horiz-adv-x="714" 
d="M525 337h-334v-337h-112v666q0 1 -3.5 15.5t-6.5 30t-4 18.5h126v-312h334v312h112v-730h-112v337z" />
    <glyph glyph-name="I" unicode="I" horiz-adv-x="268" 
d="M64 730h126v-730h-112v666q0 1 -3.5 15.5t-6.5 30t-4 18.5z" />
    <glyph glyph-name="J" unicode="J" horiz-adv-x="268" 
d="M65 730h126v-653q0 -57 -7.5 -107t-29 -89t-61.5 -62.5t-107 -28.5l-15 66q38 5 60 24.5t32.5 47.5t13 60.5t2.5 63.5v614z" />
    <glyph glyph-name="K" unicode="K" horiz-adv-x="583" 
d="M64 730h126v-326l270 326h110l-267 -323l286 -407h-135l-264 376v-376h-112v666z" />
    <glyph glyph-name="L" unicode="L" horiz-adv-x="514" 
d="M64 730h126v-648h298v-82h-410v666z" />
    <glyph glyph-name="M" unicode="M" horiz-adv-x="838" 
d="M224 730l168 -451q10 -27 17.5 -53.5t15.5 -57.5q8 31 14.5 56t15.5 52l167 454h144v-730h-110v514q0 18 1 36t2 37q-6 -17 -12 -34.5t-13 -34.5l-189 -519h-63l-192 522q-6 16 -12.5 33t-11.5 33q1 -18 2.5 -35t1.5 -35v-517h-90v666l-15 64h159z" />
    <glyph glyph-name="N" unicode="N" horiz-adv-x="714" 
d="M205 729l305 -467q10 -15 20 -31t20 -31q-1 18 -2.5 36t-1.5 36v457h91v-734h-80l-353 540q-9 15 -19 30.5t-20 29.5q2 -16 3 -32.5t1 -33.5v-529h-91v665l-14 64h141z" />
    <glyph glyph-name="O" unicode="O" horiz-adv-x="737" 
d="M367 -11q-83 0 -145 29.5t-103.5 81.5t-62.5 120t-21 145t20.5 145t62.5 119.5t104.5 81t145.5 29.5t146 -29t104.5 -81t62.5 -120t21 -146t-21.5 -146t-64 -119.5t-105 -80.5t-144.5 -29zM369 68q61 0 102.5 26t66 69t35.5 95t11 104t-10.5 104.5t-35.5 96t-67 70.5
t-103 27t-102.5 -26t-65.5 -69.5t-35 -95.5t-11 -103q0 -52 11 -104.5t35 -96t66 -70.5t103 -27z" />
    <glyph glyph-name="P" unicode="P" horiz-adv-x="575" 
d="M63 730h223q73 0 130.5 -22t90.5 -69.5t33 -128.5q0 -74 -34.5 -123t-92 -72.5t-125.5 -23.5h-99v-291h-111v666zM190 648v-277h98q64 0 99.5 38.5t35.5 100.5q0 64 -34 101t-100 37h-99z" />
    <glyph glyph-name="Q" unicode="Q" horiz-adv-x="737" 
d="M1167 -170q-34 -12 -61 -21.5t-53 -15.5t-54.5 -9t-63.5 -3q-45 0 -98 13t-108.5 33.5t-109.5 45t-101.5 47t-83.5 38.5q-30 14 -63.5 21.5t-66.5 14.5q-96 21 -155.5 75t-86.5 130.5t-27 163.5q0 75 20 142.5t61.5 121t104.5 84t148 30.5t147.5 -31t104 -84t61.5 -121
t20 -142q0 -68 -19 -134.5t-61.5 -121.5t-111.5 -88q3 -1 7 -2.5t8 -3.5q26 -13 66 -32.5t88.5 -41t100.5 -40t101 -30.5t91 -12q21 0 51.5 5t64 12.5t60.5 15.5zM369 69q60 0 101 25.5t66.5 68t36.5 95t11 105.5q0 54 -11 106.5t-36.5 95.5t-66.5 69t-101 26t-101 -26
t-66 -69.5t-36.5 -96t-11.5 -106.5q0 -52 11.5 -104.5t36.5 -95t66 -68t101 -25.5z" />
    <glyph glyph-name="R" unicode="R" horiz-adv-x="591" 
d="M63 730h231q68 0 124 -18t89 -62t33 -121q0 -41 -20 -78.5t-53.5 -65t-72.5 -39.5l213 -346h-129l-194 327h-95v-327h-112v666zM189 648v-241h73q45 0 81.5 11t58 38t21.5 77q0 39 -19 64t-49.5 38t-66.5 13h-99z" />
    <glyph glyph-name="S" unicode="S" horiz-adv-x="516" 
d="M279 741q53 0 103 -15t93 -42l-56 -75q-29 23 -66.5 36.5t-74.5 13.5q-47 0 -82 -24t-35 -76q0 -30 16.5 -52t43.5 -38.5t59 -31.5q35 -17 72 -35.5t68 -44t50.5 -62t19.5 -90.5q0 -72 -35.5 -120.5t-93 -72.5t-124.5 -24q-57 0 -112 14t-105 42l41 94q34 -30 80.5 -49
t91.5 -19q33 0 64 12.5t52 38.5t21 66q0 41 -20.5 67.5t-53.5 45t-71 36.5q-33 15 -65.5 32.5t-59 40.5t-42.5 55.5t-16 78.5q0 67 34.5 110.5t89 65.5t113.5 22z" />
    <glyph glyph-name="T" unicode="T" horiz-adv-x="578" 
d="M230 648h-211v82h540v-82h-214v-648h-115v648z" />
    <glyph glyph-name="U" unicode="U" horiz-adv-x="707" 
d="M193 730v-486q0 -80 42.5 -128t125.5 -48q57 0 96.5 23t60 64.5t20.5 97.5v477h92v-464q0 -92 -34 -154t-96.5 -93t-146.5 -31q-131 0 -203 69.5t-72 200.5v408l-15 64h130z" />
    <glyph glyph-name="V" unicode="V" horiz-adv-x="603" 
d="M131 729l152 -451q8 -26 15 -51.5t14 -54.5q8 30 15.5 57t17.5 54l153 447h93l-253 -733h-74l-252 732h119z" />
    <glyph glyph-name="W" unicode="W" horiz-adv-x="894" 
d="M121 730l120 -440q8 -28 14 -57.5t12 -63.5q7 36 14.5 68.5t15.5 63.5l116 429h92l119 -443q8 -27 14 -56t11 -62q7 36 14 68t16 63l117 430h92l-201 -734h-97l-121 445q-6 23 -11.5 47t-9.5 52q-6 -33 -13 -63.5t-15 -59.5l-114 -421h-98l-202 734h115z" />
    <glyph glyph-name="X" unicode="X" horiz-adv-x="585" 
d="M148 730l435 -730h-130l-434 730h129zM445 730h116l-443 -730h-116z" />
    <glyph glyph-name="Y" unicode="Y" horiz-adv-x="584" 
d="M148 730l159 -279l154 279h101l-213 -381v-349h-111v349l-215 381h125z" />
    <glyph glyph-name="Z" unicode="Z" horiz-adv-x="571" 
d="M49 730h482v-70l-370 -578h385l-10 -82h-510v73l366 575h-343v82z" />
    <glyph glyph-name="bracketleft" unicode="[" horiz-adv-x="351" 
d="M81 731h212v-53h-115v-754h115v-54h-212v861z" />
    <glyph glyph-name="backslash" unicode="\" horiz-adv-x="326" 
d="M-9 730h79l266 -730h-79z" />
    <glyph glyph-name="bracketright" unicode="]" horiz-adv-x="350" 
d="M59 -76h114v754h-115v53h212v-860h-211v53z" />
    <glyph glyph-name="asciicircum" unicode="^" horiz-adv-x="618" 
d="M318 389l-175 -389h-82l224 497h65l224 -497h-82z" />
    <glyph glyph-name="underscore" unicode="_" horiz-adv-x="499" 
d="M-7 -58h514v-75h-514v75z" />
    <glyph glyph-name="grave" unicode="`" horiz-adv-x="281" 
d="M155 734l102 -158h-89l-145 158h132z" />
    <glyph glyph-name="a" unicode="a" horiz-adv-x="494" 
d="M253 509q80 0 121.5 -42t41.5 -121v-237q0 -24 8.5 -32.5t20.5 -8.5q9 0 19 2.5t19 6.5l19 -60q-19 -11 -45 -18.5t-50 -7.5q-31 0 -52.5 15t-27.5 53q-29 -34 -67.5 -52t-82.5 -18q-59 0 -99 34.5t-40 95.5q0 55 26.5 89.5t69.5 52t91.5 24t91.5 6.5v58q0 28 -7 47
t-24.5 29.5t-46.5 10.5q-36 0 -71 -16.5t-66 -41.5l-44 67q42 32 92.5 48t102.5 16zM317 219q-24 0 -54.5 -2.5t-58.5 -11t-46 -27.5t-18 -52q0 -29 21 -43.5t49 -14.5q33 0 56.5 18.5t37 46.5t13.5 58v28z" />
    <glyph glyph-name="b" unicode="b" horiz-adv-x="558" 
d="M314 507q52 0 90.5 -22t64 -60t38.5 -83t13 -91q0 -51 -14.5 -98.5t-43 -84.5t-70.5 -59t-98 -22q-44 0 -81.5 16.5t-65.5 50.5l-19 -55h-55l2 34t1 34v641l-14 57h113v-262q0 -18 -1 -29.5t-1 -19.5q32 28 65.5 40.5t75.5 12.5zM285 428q-31 0 -60 -15t-50 -37v-174
q0 -39 11 -71.5t36.5 -52.5t68.5 -20q35 0 59 18.5t37.5 48t19.5 62t6 60.5q0 29 -7 60.5t-22 59t-39.5 44.5t-59.5 17z" />
    <glyph glyph-name="c" unicode="c" horiz-adv-x="450" 
d="M278 509q37 0 77 -12.5t74 -36.5l-51 -66q-26 21 -51.5 31.5t-53.5 10.5q-31 0 -55 -15.5t-40.5 -41.5t-25 -59.5t-8.5 -69.5q0 -90 39 -139t103 -49q28 0 55 9t58 26l28 -61q-40 -24 -77 -36.5t-84 -12.5q-70 0 -121.5 33t-80 92.5t-28.5 138.5q0 78 32 136t86.5 90
t123.5 32z" />
    <glyph glyph-name="d" unicode="d" horiz-adv-x="558" 
d="M264 508q31 0 64 -9.5t56 -29.5q-1 16 -1 29v28v182l-15 57h113v-622q0 -21 2.5 -47t9 -50.5t16.5 -43.5l-102 -11q-6 16 -10.5 32t-6.5 33q-24 -33 -63.5 -51t-79.5 -18q-53 0 -92 22t-65 59.5t-39 83t-13 92.5q0 53 14 100.5t42 84.5t70.5 58t99.5 21zM270 433
q-37 0 -61 -17t-38.5 -44.5t-20.5 -59.5t-6 -62q0 -31 6.5 -63t22 -59.5t41 -44t62.5 -16.5q31 0 59.5 18.5t47.5 41.5v166q0 37 -11 69t-36 51.5t-66 19.5z" />
    <glyph glyph-name="e" unicode="e" horiz-adv-x="494" 
d="M268 510q64 0 106.5 -27t63 -72t20.5 -101q0 -15 -1.5 -31t-4.5 -32h-311q0 -89 40 -137t107 -48q29 0 61 9.5t67 28.5l32 -57q-35 -28 -82 -41.5t-91 -13.5q-58 0 -103 20t-75 55.5t-45.5 82t-15.5 98.5q0 51 15 98.5t44.5 85.5t72.5 60t100 22zM261 439
q-33 0 -57.5 -18.5t-39 -47t-18.5 -57.5h209q3 36 -7.5 64t-32.5 43.5t-54 15.5z" />
    <glyph glyph-name="f" unicode="f" horiz-adv-x="288" 
d="M306 773q25 0 50 -5.5t47 -19.5l-26 -70q-13 11 -32 17.5t-36 6.5q-31 0 -52 -11t-34.5 -30t-21 -45t-10 -56.5t-2.5 -62.5h134l-20 -70h-114v-427h-98v427h-78v60q15 2 32 3.5t30.5 10t17.5 28.5q9 44 14.5 74.5t17 55.5t37.5 54q26 28 63 44t81 16z" />
    <glyph glyph-name="g" unicode="g" horiz-adv-x="477" 
d="M219 510q30 0 55.5 -7t53.5 -7q40 0 82 4t85 9l-20 -76h-82q-6 0 -13 1t-13 2q16 -22 24.5 -45.5t8.5 -49.5q0 -51 -24 -90.5t-67 -61.5t-100 -22q-22 0 -39 -13t-17 -37q0 -16 10.5 -23.5t26.5 -9t33 -1.5h75q28 0 57.5 -3t53.5 -14t39.5 -32.5t15.5 -58.5
q0 -54 -23.5 -93t-61.5 -64t-85 -36.5t-94 -11.5q-29 0 -61.5 6t-61.5 20t-47 38t-18 62q0 40 25 71t57 50v3q-20 9 -33 28.5t-13 41.5q0 12 10.5 23t26.5 29.5t35 51.5q-38 23 -60 60.5t-22 83.5q0 50 24.5 89t66.5 61t90 22zM219 444q-22 0 -40 -14.5t-28 -38.5t-10 -54
t10 -54t27.5 -38.5t40.5 -14.5q36 0 57.5 30t21.5 76q0 31 -10.5 55t-28 38.5t-40.5 14.5zM163 -1q-19 -12 -34.5 -36t-15.5 -48q0 -23 17 -39t40.5 -23t44.5 -7q25 0 52.5 4.5t51 16t38 31.5t14.5 49q0 25 -16 36t-39.5 13.5t-44.5 2.5h-108z" />
    <glyph glyph-name="h" unicode="h" horiz-adv-x="547" 
d="M175 765v-322q30 28 67.5 47.5t80.5 19.5q56 0 88.5 -22.5t46.5 -62t14 -91.5v-334h-98v314q0 27 -4 53t-19.5 43.5t-51.5 17.5q-20 0 -43.5 -10t-44.5 -23.5t-36 -28.5v-366h-98v708l-13 57h111z" />
    <glyph glyph-name="i" unicode="i" horiz-adv-x="251" 
d="M192 670q0 -28 -19 -48t-48 -20q-28 0 -47.5 20t-19.5 48t19.5 47.5t47.5 19.5t47.5 -19.5t19.5 -47.5zM175 497v-497h-99v440l-12 57h111z" />
    <glyph glyph-name="j" unicode="j" horiz-adv-x="251" 
d="M193 670q0 -28 -19.5 -48t-47.5 -20t-48 20t-20 48t20 47.5t48 19.5t47.5 -19.5t19.5 -47.5zM175 497v-455q0 -42 -5.5 -86.5t-21 -83.5t-46.5 -65.5t-83 -32.5l-17 46q37 20 52.5 54t18.5 74t3 76v417l-13 56h112z" />
    <glyph glyph-name="k" unicode="k" horiz-adv-x="464" 
d="M175 765v-473l173 205h101l-179 -209l207 -288h-115l-187 264v-264h-99v708l-13 57h112z" />
    <glyph glyph-name="l" unicode="l" horiz-adv-x="251" 
d="M175 765v-765h-100v709l-12 56h112z" />
    <glyph glyph-name="m" unicode="m" horiz-adv-x="829" 
d="M152 506q7 -16 11.5 -33.5t6.5 -33.5q20 19 43.5 35t50 25.5t55.5 9.5q45 0 78.5 -18t52.5 -60q21 21 46 38.5t53.5 28.5t58.5 11q55 0 87.5 -22.5t46 -61.5t13.5 -90v-335h-99v316q0 21 -2.5 40.5t-10 36t-22.5 25.5t-40 9q-31 0 -63 -21t-52 -41v-365h-99v318
q0 20 -2.5 39.5t-10 35t-22.5 25t-40 9.5q-20 0 -41.5 -9.5t-40.5 -24t-34 -27.5v-366h-98v359q0 20 -3 45t-10 49t-19 41z" />
    <glyph glyph-name="n" unicode="n" horiz-adv-x="547" 
d="M151 506q7 -16 11.5 -33.5t6.5 -34.5q30 29 71 50.5t83 21.5q56 0 89 -22.5t47 -62t14 -91.5v-334h-98v313q0 28 -4 54t-20 43t-51 17q-21 0 -44.5 -9.5t-44 -23t-36.5 -28.5v-366h-98v354q0 19 -2.5 45.5t-9.5 52t-20 41.5z" />
    <glyph glyph-name="o" unicode="o" horiz-adv-x="537" 
d="M265 -13q-74 0 -125 36t-77.5 94.5t-26.5 127.5q0 52 16 99.5t46.5 84.5t74 58.5t98.5 21.5q75 0 126 -35t77 -94t26 -129q0 -52 -16 -99.5t-45.5 -84t-73.5 -58.5t-100 -22zM266 58q37 0 62 18t39.5 47t20.5 62t6 63q0 31 -5.5 64t-18.5 62t-37.5 46.5t-62.5 17.5
q-37 0 -61.5 -18t-39 -47t-20.5 -62.5t-6 -62.5t5.5 -62t19.5 -62.5t38 -47.5t60 -18z" />
    <glyph glyph-name="p" unicode="p" horiz-adv-x="556" 
d="M149 506q6 -15 10.5 -32t6.5 -33q24 32 63.5 50t78.5 18q54 0 93.5 -21.5t65.5 -59t38.5 -83t12.5 -93.5q0 -52 -14 -99.5t-42.5 -84.5t-71 -58.5t-99.5 -21.5q-30 0 -63 10t-56 30q2 -14 2 -29v-25v-133l14 -57h-113v570q0 20 -2.5 46t-9 51t-18.5 42zM280 430
q-31 0 -59.5 -18t-46.5 -43v-165q0 -37 10.5 -69t35.5 -52t66 -20q36 0 60.5 17t39.5 45t20.5 60t5.5 62q0 31 -6.5 63t-22 59.5t-41 44t-62.5 16.5z" />
    <glyph glyph-name="q" unicode="q" horiz-adv-x="556" 
d="M262 509q42 0 81 -16.5t66 -49.5l19 54h55q-1 -17 -2 -33.5t-1 -33.5v-589q0 -1 3 -14t6.5 -26.5t3.5 -16.5h-112v185q0 17 0.5 29t1 22.5t1.5 22.5q-30 -27 -65.5 -41t-76.5 -14q-52 0 -90.5 23t-64 60.5t-38 83t-12.5 90.5q0 52 14 99.5t42 84.5t70.5 58.5t98.5 21.5z
M266 438q-35 0 -59 -18.5t-38 -47.5t-20 -62.5t-6 -63.5q0 -29 7 -60.5t22 -58.5t39.5 -43.5t59.5 -16.5q30 0 60.5 14.5t49.5 37.5v176q0 38 -11 70.5t-36 52.5t-68 20z" />
    <glyph glyph-name="r" unicode="r" horiz-adv-x="349" 
d="M149 506q20 -46 24 -98q25 42 69.5 70t93.5 28l-20 -101q-46 0 -80 -24t-62 -65v-316h-98v361q0 20 -3 45t-10 49t-19 41z" />
    <glyph glyph-name="s" unicode="s" horiz-adv-x="430" 
d="M242 509q35 0 71.5 -8t65.5 -25l-35 -72q-21 17 -47.5 26t-52.5 9q-32 0 -57 -15t-25 -47q0 -21 10 -35t27.5 -24t37.5 -19q25 -11 50.5 -23t47.5 -29t36 -42t14 -63q0 -52 -26 -86.5t-67.5 -51.5t-89.5 -17q-40 0 -82.5 11t-76.5 31l38 70q25 -17 54.5 -28.5t58.5 -11.5
q34 0 60 17t26 51q0 24 -13.5 39.5t-35.5 27t-47 21.5q-30 14 -59 30.5t-48 43.5t-19 71q0 50 26.5 83t69 49.5t88.5 16.5z" />
    <glyph glyph-name="t" unicode="t" horiz-adv-x="327" 
d="M208 640q-7 -34 -12 -71t-7 -72h126l-17 -70h-109v-300q0 -15 3.5 -30.5t14 -24.5t31.5 -9q16 0 32 3t31 7l14 -64q-25 -8 -51.5 -14t-55.5 -6q-64 0 -91 32.5t-27 95.5v310h-78v57q31 1 52 16t35.5 38.5t23.5 50t14 51.5h71z" />
    <glyph glyph-name="u" unicode="u" horiz-adv-x="553" 
d="M174 497v-310q0 -26 4.5 -53.5t20.5 -45.5t50 -18q33 0 61 14t45 40t17 60v256q0 1 -3 14t-5.5 27t-3.5 16h112v-387q0 -22 7 -32t22 -10q14 0 38 9l19 -60q-21 -11 -46.5 -18.5t-49.5 -7.5q-28 0 -50.5 15t-29.5 53q-30 -31 -71 -51.5t-86 -20.5q-56 0 -89 22.5
t-47.5 62t-14.5 91.5v277l-12 57h112z" />
    <glyph glyph-name="v" unicode="v" horiz-adv-x="455" 
d="M111 497l101 -289q8 -19 13 -38.5t11 -42.5q5 22 9.5 41.5t10.5 37.5l102 291h91l-177 -502h-90l-176 502h105z" />
    <glyph glyph-name="w" unicode="w" horiz-adv-x="658" 
d="M105 497l78 -262q6 -18 9 -36.5t7 -40.5q4 22 7 40t9 36l83 263h80l79 -262q6 -18 8.5 -36t6.5 -41q4 23 7.5 41t8.5 36l82 262h86l-157 -502h-74q-17 57 -34.5 111t-33 110.5t-29.5 120.5q-15 -64 -31.5 -120.5t-34.5 -110.5l-37 -111h-75l-148 502h103z" />
    <glyph glyph-name="x" unicode="x" horiz-adv-x="446" 
d="M127 497l319 -498h-111l-319 498h111zM327 497h103l-328 -498h-102z" />
    <glyph glyph-name="y" unicode="y" horiz-adv-x="456" 
d="M113 497q22 -65 45.5 -129.5t45.5 -132.5q8 -26 16 -54.5t16 -55.5q7 27 15 55.5t17 54.5q22 68 45 132.5t45 129.5h92l-177 -499q-11 -34 -29 -72t-42.5 -70.5t-57 -53.5t-73.5 -21h-38v75q5 -1 9 -1h9q40 0 66 24t43 58t27 66l-181 494h107z" />
    <glyph glyph-name="z" unicode="z" horiz-adv-x="445" 
d="M50 497h356v-54l-249 -372h262l-12 -71h-381v53l247 372h-223v72z" />
    <glyph glyph-name="braceleft" unicode="{" horiz-adv-x="349" 
d="M271 -140q-82 0 -116.5 44.5t-34.5 121.5v162q0 31 -14 58t-51 27v52q28 0 41.5 14t18 36t4.5 43v153q0 50 14.5 87.5t47 58t86.5 20.5h38v-53q-36 0 -55.5 -7t-26.5 -25.5t-7 -53.5v-169q0 -25 -4.5 -51.5t-17 -47t-39.5 -32.5q27 -11 39.5 -31.5t17 -46.5t4.5 -52v-173
q0 -34 7.5 -52t27.5 -23.5t54 -5.5v-54h-34z" />
    <glyph glyph-name="bar" unicode="|" horiz-adv-x="235" 
d="M77 747h82v-858h-82v858z" />
    <glyph glyph-name="braceright" unicode="}" horiz-adv-x="349" 
d="M79 737q81 0 116 -44.5t35 -121.5v-162q0 -30 14 -57.5t50 -27.5v-51q-27 0 -41 -14.5t-18.5 -36.5t-4.5 -43v-153q0 -49 -14.5 -87t-47 -58.5t-85.5 -20.5h-38v53q36 0 55 7t26.5 26t7.5 54v168q0 26 4 52t17.5 47t39.5 32q-26 11 -39.5 32t-17.5 46.5t-4 51.5v173
q0 35 -8 52.5t-27 23.5t-54 6v53h34z" />
    <glyph glyph-name="asciitilde" unicode="~" horiz-adv-x="663" 
d="M584 298q-14 -22 -38 -45.5t-52 -38.5t-57 -15q-30 0 -57 10.5t-52.5 24t-51.5 24t-54 10.5q-19 0 -35 -11.5t-28 -28t-20 -32.5l-58 49q12 26 33.5 50t49 39t58.5 15q33 0 63 -10.5t57 -24t50.5 -24t44.5 -10.5q30 0 53.5 22.5t36.5 47.5z" />
    <glyph glyph-name="uni00A0" unicode="&#xa0;" horiz-adv-x="230" 
 />
    <glyph glyph-name="exclamdown" unicode="&#xa1;" horiz-adv-x="329" 
d="M229 -233h-130l29 512h72zM94 440q0 29 20.5 49t49.5 20q28 0 49 -20t21 -49t-20.5 -49t-49.5 -20t-49.5 20t-20.5 49z" />
    <glyph glyph-name="cent" unicode="&#xa2;" horiz-adv-x="490" 
d="M284 485q34 0 70 -11t68 -33l-47 -65q-24 18 -46.5 28t-48.5 10q-37 0 -62.5 -22.5t-38 -59.5t-12.5 -82q0 -81 33.5 -123t89.5 -42q48 0 106 31l32 -61q-39 -22 -75 -33t-79 -11q-64 0 -111 30t-72.5 84t-25.5 126q0 71 28.5 123.5t78.5 81.5t112 29zM272 37l-15 -159
h-81l43 159h53zM253 465l14 151h82l-39 -151h-57z" />
    <glyph glyph-name="sterling" unicode="&#xa3;" horiz-adv-x="581" 
d="M47 82h93v420q0 64 26.5 108.5t73.5 67.5t109 23q59 0 105.5 -27.5t77.5 -77.5l-84 -47q-15 29 -40 50t-60 21q-32 0 -54 -15t-32.5 -40t-10.5 -56v-427h292v-82h-496v82zM63 292l10 71h340l-10 -71h-340z" />
    <glyph glyph-name="currency" unicode="&#xa4;" horiz-adv-x="536" 
d="M266 460q63 0 112 -38l54 54l58 -58l-58 -57q14 -24 22 -51.5t8 -57.5t-8 -57.5t-22 -51.5l58 -56l-58 -57l-53 52q-24 -18 -53 -28.5t-60 -10.5q-32 0 -60.5 10.5t-53.5 28.5l-52 -52l-57 57l56 56q-13 23 -21 51t-8 58t8 57.5t21 51.5l-56 57l57 58l53 -55
q24 19 52.5 29t60.5 10zM266 389q-32 0 -58 -18t-40.5 -49t-14.5 -70q0 -43 16.5 -74t42.5 -47.5t54 -16.5q29 0 55.5 16t42.5 47t16 76q0 37 -14.5 68.5t-40 49.5t-59.5 18z" />
    <glyph glyph-name="yen" unicode="&#xa5;" horiz-adv-x="604" 
d="M158 701l159 -279l154 279h101l-213 -381v-320h-111v320l-215 381h125zM71 389h478l-11 -70h-478zM72 251h478l-12 -70h-478z" />
    <glyph glyph-name="brokenbar" unicode="&#xa6;" horiz-adv-x="238" 
d="M78 743h81v-350h-81v350zM78 235h81v-350h-81v350z" />
    <glyph glyph-name="section" unicode="&#xa7;" horiz-adv-x="498" 
d="M43 332q0 53 26.5 87t66.5 51q-17 21 -27.5 47t-10.5 58q0 49 27.5 85.5t73 56.5t98.5 20q38 0 77 -11t75 -34l-34 -73q-28 24 -58.5 35t-58.5 11q-40 0 -68 -20t-28 -52q0 -31 19 -53.5t48.5 -42t63 -39t63 -44t48.5 -57.5t19 -79q0 -52 -26.5 -86.5t-67.5 -51.5
q18 -20 28.5 -46t10.5 -59q0 -49 -27.5 -85t-73 -56t-98.5 -20q-38 0 -77 11t-75 34l34 72q28 -24 58.5 -34.5t58.5 -10.5q40 0 68 20t28 52q0 30 -19 52.5t-48.5 42t-63 39t-63 44t-48.5 57.5t-19 79zM147 347q0 -35 23.5 -59t59 -45t71.5 -44q24 5 40.5 21t16.5 44
q0 34 -23 58.5t-58 45t-72 44.5q-24 -6 -41 -22t-17 -43z" />
    <glyph glyph-name="dieresis" unicode="&#xa8;" horiz-adv-x="285" 
d="M118 655q0 -24 -17.5 -42t-41.5 -18t-41.5 18t-17.5 42t17.5 41.5t41.5 17.5q25 0 42 -17t17 -42zM285 655q0 -24 -18 -42t-42 -18t-41.5 18t-17.5 42t17.5 41.5t41.5 17.5q25 0 42.5 -17t17.5 -42z" />
    <glyph glyph-name="copyright" unicode="&#xa9;" horiz-adv-x="636" 
d="M592 250q0 -56 -21.5 -105.5t-59.5 -87.5t-87.5 -59.5t-105.5 -21.5q-57 0 -106.5 21t-87.5 59t-59 88t-21 106t21 106t59 88t87.5 59t106.5 21q56 0 105.5 -21.5t87.5 -59.5t59.5 -87t21.5 -106zM553 250q0 65 -32 118t-85 85t-118 32t-118.5 -32t-85 -85t-31.5 -118
q0 -64 31.5 -117.5t85 -85.5t118.5 -32t118 32t85 85.5t32 117.5zM438 116q-30 -16 -53 -23.5t-59 -7.5q-48 0 -82.5 22t-51.5 59.5t-17 84.5q0 73 43 119.5t117 46.5q25 0 51 -9.5t47 -24.5l-36 -45q-17 13 -32.5 20t-37.5 7q-27 0 -44.5 -18t-25.5 -44t-8 -49
q0 -25 8.5 -52t27 -45.5t48.5 -18.5q23 0 40 8t34 22z" />
    <glyph glyph-name="ordfeminine" unicode="&#xaa;" horiz-adv-x="315" 
d="M314 408q-17 -9 -34 -14.5t-33 -5.5q-18 0 -32.5 9.5t-21.5 30.5q-19 -20 -43 -30.5t-51 -10.5q-41 0 -67.5 24.5t-26.5 64.5q0 36 16.5 59t43.5 35t59 17t62 5v31q0 25 -11 38.5t-38 13.5q-22 0 -47 -12t-41 -28l-33 51q28 21 60.5 32.5t68.5 11.5q53 0 81 -27.5
t28 -81.5v-149q0 -16 6 -22.5t15 -6.5q5 0 11.5 2t13.5 4zM186 537q-20 0 -45.5 -3t-44.5 -14.5t-19 -38.5q0 -16 12 -26t29 -10q19 0 34.5 11.5t24.5 28.5t9 35v17zM26 329h247v-53h-247v53z" />
    <glyph glyph-name="guillemotleft" unicode="&#xab;" horiz-adv-x="466" 
d="M47 334l147 167l68 -12l-117 -155l120 -156l-67 -10zM203 334l148 167l69 -12l-118 -155l120 -156l-67 -10z" />
    <glyph glyph-name="logicalnot" unicode="&#xac;" horiz-adv-x="638" 
d="M495 274h-424v70h495v-259h-71v189z" />
    <glyph glyph-name="uni00AD" unicode="&#xad;" horiz-adv-x="313" 
d="M44 302h227v-84h-227v84z" />
    <glyph glyph-name="registered" unicode="&#xae;" horiz-adv-x="466" 
d="M437 606q0 -56 -28 -102.5t-74 -74t-102 -27.5q-57 0 -103 27.5t-73 74t-27 102.5t27 102.5t73 73.5t103 27q56 0 102 -27t74 -73.5t28 -102.5zM403 606q0 47 -23 85t-61.5 61t-85.5 23t-85 -23t-61.5 -61t-23.5 -85q0 -46 23.5 -84.5t61.5 -61.5t85 -23t85.5 23
t61.5 61.5t23 84.5zM150 723h90q32 0 56 -13.5t24 -52.5q0 -21 -13 -35.5t-32 -22.5l74 -105h-65l-65 96h-15v-96h-54v229zM204 682v-51h22q19 0 29.5 6.5t10.5 21.5q0 12 -9.5 17.5t-23.5 5.5h-29z" />
    <glyph glyph-name="macron" unicode="&#xaf;" horiz-adv-x="300" 
d="M0 689h300v-68h-300v68z" />
    <glyph glyph-name="degree" unicode="&#xb0;" horiz-adv-x="388" 
d="M193 741q42 0 75.5 -20t53.5 -53t20 -75q0 -41 -20 -75t-53.5 -53.5t-74.5 -19.5t-75 20t-53.5 54t-19.5 74q0 41 19.5 74.5t53.5 53.5t74 20zM193 679q-35 0 -59 -25.5t-24 -60.5t24 -60.5t59 -25.5q37 0 60.5 25.5t23.5 60.5t-24 60.5t-60 25.5z" />
    <glyph glyph-name="plusminus" unicode="&#xb1;" horiz-adv-x="632" 
d="M355 107h-77v157h-210v76h210v156h77v-156h211v-76h-211v-157zM68 77h498v-77h-498v77z" />
    <glyph glyph-name="uni00B2" unicode="&#xb2;" horiz-adv-x="455" 
d="M52 479l17.5 15t46 40t60 57t59.5 67.5t46 70.5t18 66q0 30 -19 49.5t-53 19.5q-24 0 -47 -8.5t-40.5 -19t-27.5 -19l-10 -8.5l-37 55l12.5 10t36 23.5t56.5 23.5t75 10q55 0 88.5 -18.5t48.5 -48.5t15 -62q0 -44 -21.5 -86t-53 -78.5t-63.5 -64t-53.5 -43l-21.5 -15.5
h229l-23 -79h-338v43z" />
    <glyph glyph-name="uni00B3" unicode="&#xb3;" horiz-adv-x="455" 
d="M57 482q120 6 184 40.5t64 86.5q0 31 -18 45t-43 18t-49 4q-14 0 -24.5 -1l-10.5 -1l-9 52q28 6 59.5 16.5t54 30t22.5 49.5q0 21 -17.5 31.5t-44.5 10.5q-32 0 -68 -15t-59 -35l-37 52q35 28 85.5 46.5t96.5 18.5q32 0 62.5 -8t51 -28t20.5 -56q0 -27 -13 -48
t-33.5 -35.5t-44.5 -23.5q32 -4 57.5 -18.5t40.5 -38t15 -58.5q0 -26 -13.5 -58t-48.5 -61t-100.5 -50t-167.5 -24z" />
    <glyph glyph-name="acute" unicode="&#xb4;" horiz-adv-x="281" 
d="M133 734h132l-145 -158h-88z" />
    <glyph glyph-name="uni00B5" unicode="&#xb5;" horiz-adv-x="552" 
d="M561 20q-25 -7 -52 -18t-53 -11q-31 0 -49.5 20t-24.5 48q-25 -27 -63.5 -49t-76.5 -22q-33 0 -65 15v-190h-102v628q0 1 -2.5 14t-5.5 26.5t-4 15.5h111v-308q0 -26 4.5 -54t21 -46t49.5 -18q23 0 45.5 7.5t43 21.5t35.5 29v312q0 1 -3 14t-6 26.5t-4 15.5h111v-385
q0 -11 1.5 -21t6.5 -16.5t16 -6.5q4 0 13 2.5t19.5 6t14.5 4.5z" />
    <glyph glyph-name="paragraph" unicode="&#xb6;" horiz-adv-x="508" 
d="M161 -109q36 -8 56 13.5t20 52.5v341q-56 0 -100.5 25.5t-70.5 71.5t-26 108q0 77 29.5 124t80 69t113.5 22h200v-60h-56v-648q0 -33 -16 -60t-43.5 -40.5t-61.5 -8.5q-9 -24 -30 -40t-48.5 -20t-56.5 5zM297 658v-701q29 0 40.5 17.5t11.5 39.5v644h-52z" />
    <glyph glyph-name="periodcentered" unicode="&#xb7;" horiz-adv-x="293" 
d="M217 259q0 -29 -21 -49t-49 -20q-29 0 -49.5 20t-20.5 49t20 50t50 21q29 0 49.5 -21t20.5 -50z" />
    <glyph glyph-name="cedilla" unicode="&#xb8;" horiz-adv-x="280" 
d="M113 9h52l-30 -55q55 -1 84.5 -22t29.5 -59q0 -46 -35.5 -69.5t-82.5 -23.5q-25 0 -52 7t-50 22l26 48q15 -11 31.5 -16.5t31.5 -5.5q19 0 31.5 9.5t12.5 28.5q0 18 -13 29.5t-42 11.5q-10 0 -22.5 -1.5t-27.5 -5.5z" />
    <glyph glyph-name="uni00B9" unicode="&#xb9;" horiz-adv-x="455" 
d="M79 503h128v327l-123 -35l-21 58l173 68h65v-418h103v-67h-325v67z" />
    <glyph glyph-name="ordmasculine" unicode="&#xba;" horiz-adv-x="332" 
d="M172 736q50 0 84 -23t51.5 -62.5t17.5 -87.5q0 -47 -20 -86.5t-56 -62.5t-87 -23q-50 0 -84 23t-51.5 62.5t-17.5 86.5q0 48 20 87t56 62.5t87 23.5zM167 683q-31 0 -48.5 -19.5t-24.5 -47t-7 -53.5q0 -24 7.5 -52t25 -47.5t47.5 -19.5q32 0 49 19.5t24 47.5t7 52
q0 26 -7 53.5t-24.5 47t-48.5 19.5zM43 329h248v-53h-248v53z" />
    <glyph glyph-name="guillemotright" unicode="&#xbb;" horiz-adv-x="466" 
d="M266 333l-152 -166l-67 9l120 157l-118 154l69 13zM422 333l-151 -166l-67 9l120 157l-117 154l68 13z" />
    <glyph glyph-name="onequarter" unicode="&#xbc;" horiz-adv-x="1121" 
d="M708 731h78l-374 -735h-76zM79 313h128v327l-123 -35l-21 58l173 68h65v-418h103v-67h-325v67zM927 106h-227v45l227 333h94v-310h74l-20 -68h-54v-106h-94v106zM932 374l-135 -200h130z" />
    <glyph glyph-name="onehalf" unicode="&#xbd;" horiz-adv-x="1121" 
d="M708 731h78l-374 -735h-76zM79 313h128v327l-123 -35l-21 58l173 68h65v-418h103v-67h-325v67zM718 43l18 15t46 40t59.5 57t60 67.5t46 70.5t17.5 66t-19 50t-53 19q-24 0 -46.5 -8t-40 -19t-28 -19.5l-10.5 -8.5l-37 55l12.5 10t36 23.5t57 23.5t75.5 10q55 0 88 -18.5
t48.5 -48t15.5 -61.5q0 -45 -21.5 -87t-53 -78.5t-63.5 -64t-53.5 -43l-21.5 -15.5h228l-22 -79h-339v43z" />
    <glyph glyph-name="threequarters" unicode="&#xbe;" horiz-adv-x="1121" 
d="M708 731h78l-374 -735h-76zM57 292q120 6 184 40.5t64 86.5q0 31 -18 45t-43 18t-49 4q-14 0 -24.5 -1l-10.5 -1l-9 52q28 6 59.5 16.5t54 30t22.5 49.5q0 21 -17.5 31.5t-44.5 10.5q-32 0 -68 -15t-59 -35l-37 52q35 28 85.5 46.5t96.5 18.5q32 0 62.5 -8t51 -28
t20.5 -56q0 -27 -13 -48t-33.5 -35.5t-44.5 -23.5q32 -4 57.5 -18.5t40.5 -38t15 -58.5q0 -26 -13.5 -58t-48.5 -61t-100.5 -50t-167.5 -24zM927 106h-227v45l227 333h94v-310h74l-20 -68h-54v-106h-94v106zM932 374l-135 -200h130z" />
    <glyph glyph-name="questiondown" unicode="&#xbf;" horiz-adv-x="431" 
d="M241 -226q-51 0 -98 19t-76 57.5t-29 96.5q0 51 22 88t59 62.5t84 43.5v139h83v-199q-33 -5 -66 -20.5t-55 -42t-22 -65.5q0 -48 35.5 -72t80.5 -24q27 0 52.5 9t47.5 23l35 -75q-29 -18 -72 -29t-81 -11zM247 368q-30 0 -50.5 21t-20.5 50t20.5 49.5t50.5 20.5
q29 0 49.5 -20.5t20.5 -49.5q0 -30 -20.5 -50.5t-49.5 -20.5z" />
    <glyph glyph-name="Agrave" unicode="&#xc0;" horiz-adv-x="631" 
d="M365 730l255 -730h-122l-79 233h-230l-80 -233h-98l256 730h98zM305 586l-89 -272h176zM259 913l102 -137h-89l-145 137h132z" />
    <glyph glyph-name="Aacute" unicode="&#xc1;" horiz-adv-x="631" 
d="M365 730l255 -730h-122l-79 233h-230l-80 -233h-98l256 730h98zM305 586l-89 -272h176zM371 913h133l-145 -137h-89z" />
    <glyph glyph-name="Acircumflex" unicode="&#xc2;" horiz-adv-x="631" 
d="M365 730l255 -730h-122l-79 233h-230l-80 -233h-98l256 730h98zM305 586l-89 -272h176zM314 833l-71 -54h-76l102 131h89l101 -131h-76z" />
    <glyph glyph-name="Atilde" unicode="&#xc3;" horiz-adv-x="631" 
d="M365 730l255 -730h-122l-79 233h-230l-80 -233h-98l256 730h98zM305 586l-89 -272h176zM474 892q-1 -27 -12.5 -51t-31.5 -40t-50 -16q-27 0 -51 10t-45.5 20t-44.5 10q-13 0 -23 -8t-13 -21h-56q2 28 14 52.5t33.5 39.5t51.5 15q27 0 50.5 -9.5t44.5 -19.5t41 -10
q12 0 23.5 7.5t14.5 20.5h54z" />
    <glyph glyph-name="Adieresis" unicode="&#xc4;" horiz-adv-x="631" 
d="M365 730l255 -730h-122l-79 233h-230l-80 -233h-98l256 730h98zM305 586l-89 -272h176zM289 844q0 -24 -17.5 -42t-41.5 -18t-41.5 18t-17.5 42t17.5 41.5t41.5 17.5q25 0 42 -17t17 -42zM456 844q0 -24 -18 -42t-42 -18t-41.5 18t-17.5 42t17.5 41.5t41.5 17.5
q25 0 42.5 -17t17.5 -42z" />
    <glyph glyph-name="Aring" unicode="&#xc5;" horiz-adv-x="631" 
d="M365 730l255 -730h-122l-79 233h-230l-80 -233h-98l256 730h98zM305 586l-89 -272h176zM314 995q29 0 52 -14t37 -37t14 -52q0 -41 -30 -71.5t-73 -30.5q-41 0 -71.5 30.5t-30.5 71.5q0 28 14 52t37 37.5t51 13.5zM314 937q-19 0 -32 -13t-13 -32t13 -32t32 -13t32 13.5
t13 31.5q0 19 -13 32t-32 13z" />
    <glyph glyph-name="AE" unicode="&#xc6;" horiz-adv-x="849" 
d="M412 232h-194l-111 -232h-101l317 666l-14 64h497v-81h-283v-232h235v-84h-235v-250h283v-83h-394v232zM258 315h154v323z" />
    <glyph glyph-name="Ccedilla" unicode="&#xc7;" horiz-adv-x="624" 
d="M375 -12q-87 0 -150.5 29.5t-106 81t-63 118.5t-20.5 142q0 77 23 146t66.5 122t108 83.5t147.5 30.5q36 0 78.5 -8t82.5 -24.5t65 -42.5l-60 -73q-19 22 -47 36.5t-59 22.5t-59 8q-58 0 -100 -25t-69.5 -68t-41 -96t-13.5 -108q0 -90 27.5 -155t78.5 -100t121 -35
q42 0 90 11.5t100 38.5l35 -64q-25 -18 -53 -31t-58.5 -22t-61.5 -13.5t-61 -4.5zM338 9h52l-30 -55q55 -1 84.5 -22t29.5 -59q0 -46 -35.5 -69.5t-82.5 -23.5q-25 0 -52 7t-50 22l26 48q15 -11 31.5 -16.5t31.5 -5.5q19 0 31.5 9.5t12.5 28.5q0 18 -13 29.5t-42 11.5
q-10 0 -22.5 -1.5t-27.5 -5.5z" />
    <glyph glyph-name="Egrave" unicode="&#xc8;" horiz-adv-x="549" 
d="M64 730h446v-82h-320v-232h247v-81h-247v-253h320v-82h-432v666zM245 913l102 -137h-89l-145 137h132z" />
    <glyph glyph-name="Eacute" unicode="&#xc9;" horiz-adv-x="549" 
d="M64 730h446v-82h-320v-232h247v-81h-247v-253h320v-82h-432v666zM356 913h133l-145 -137h-89z" />
    <glyph glyph-name="Ecircumflex" unicode="&#xca;" horiz-adv-x="549" 
d="M64 730h446v-82h-320v-232h247v-81h-247v-253h320v-82h-432v666zM299 833l-71 -54h-76l102 131h89l101 -131h-76z" />
    <glyph glyph-name="Edieresis" unicode="&#xcb;" horiz-adv-x="549" 
d="M64 730h446v-82h-320v-232h247v-81h-247v-253h320v-82h-432v666zM275 844q0 -24 -17.5 -42t-41.5 -18t-41.5 18t-17.5 42t17.5 41.5t41.5 17.5q25 0 42 -17t17 -42zM442 844q0 -24 -18 -42t-42 -18t-41.5 18t-17.5 42t17.5 41.5t41.5 17.5q25 0 42.5 -17t17.5 -42z" />
    <glyph glyph-name="Igrave" unicode="&#xcc;" horiz-adv-x="268" 
d="M64 730h126v-730h-112v666q0 1 -3.5 15.5t-6.5 30t-4 18.5zM79 913l102 -137h-89l-145 137h132z" />
    <glyph glyph-name="Iacute" unicode="&#xcd;" horiz-adv-x="268" 
d="M64 730h126v-730h-112v666q0 1 -3.5 15.5t-6.5 30t-4 18.5zM191 913h133l-145 -137h-89z" />
    <glyph glyph-name="Icircumflex" unicode="&#xce;" horiz-adv-x="268" 
d="M64 730h126v-730h-112v666q0 1 -3.5 15.5t-6.5 30t-4 18.5zM134 833l-71 -54h-76l102 131h89l101 -131h-76z" />
    <glyph glyph-name="Idieresis" unicode="&#xcf;" horiz-adv-x="268" 
d="M64 730h126v-730h-112v666q0 1 -3.5 15.5t-6.5 30t-4 18.5zM109 844q0 -24 -17.5 -42t-41.5 -18t-41.5 18t-17.5 42t17.5 41.5t41.5 17.5q25 0 42 -17t17 -42zM276 844q0 -24 -18 -42t-42 -18t-41.5 18t-17.5 42t17.5 41.5t41.5 17.5q25 0 42.5 -17t17.5 -42z" />
    <glyph glyph-name="Eth" unicode="&#xd0;" horiz-adv-x="699" 
d="M664 363q0 -105 -38.5 -187t-114 -129t-186.5 -47h-247v666q0 1 -3.5 15.5t-7 30t-4.5 18.5h225q88 0 157.5 -23t118.5 -69t74.5 -114.5t25.5 -160.5zM546 363q0 67 -16 120t-49 90t-83 56t-118 19h-90v-566h125q85 0 135.5 39t73 103t22.5 139zM22 405h325v-74h-325v74z
" />
    <glyph glyph-name="Ntilde" unicode="&#xd1;" horiz-adv-x="714" 
d="M205 729l305 -467q10 -15 20 -31t20 -31q-1 18 -2.5 36t-1.5 36v457h91v-734h-80l-353 540q-9 15 -19 30.5t-20 29.5q2 -16 3 -32.5t1 -33.5v-529h-91v665l-14 64h141zM517 892q-1 -27 -12.5 -51t-31.5 -40t-50 -16q-27 0 -51 10t-45.5 20t-44.5 10q-13 0 -23 -8t-13 -21
h-56q2 28 14 52.5t33.5 39.5t51.5 15q27 0 50.5 -9.5t44.5 -19.5t41 -10q12 0 23.5 7.5t14.5 20.5h54z" />
    <glyph glyph-name="Ograve" unicode="&#xd2;" horiz-adv-x="737" 
d="M367 -11q-83 0 -145 29.5t-103.5 81.5t-62.5 120t-21 145t20.5 145t62.5 119.5t104.5 81t145.5 29.5t146 -29t104.5 -81t62.5 -120t21 -146t-21.5 -146t-64 -119.5t-105 -80.5t-144.5 -29zM369 68q61 0 102.5 26t66 69t35.5 95t11 104t-10.5 104.5t-35.5 96t-67 70.5
t-103 27t-102.5 -26t-65.5 -69.5t-35 -95.5t-11 -103q0 -52 11 -104.5t35 -96t66 -70.5t103 -27zM314 913l102 -137h-89l-145 137h132z" />
    <glyph glyph-name="Oacute" unicode="&#xd3;" horiz-adv-x="737" 
d="M367 -11q-83 0 -145 29.5t-103.5 81.5t-62.5 120t-21 145t20.5 145t62.5 119.5t104.5 81t145.5 29.5t146 -29t104.5 -81t62.5 -120t21 -146t-21.5 -146t-64 -119.5t-105 -80.5t-144.5 -29zM369 68q61 0 102.5 26t66 69t35.5 95t11 104t-10.5 104.5t-35.5 96t-67 70.5
t-103 27t-102.5 -26t-65.5 -69.5t-35 -95.5t-11 -103q0 -52 11 -104.5t35 -96t66 -70.5t103 -27zM426 913h133l-145 -137h-89z" />
    <glyph glyph-name="Ocircumflex" unicode="&#xd4;" horiz-adv-x="737" 
d="M367 -11q-83 0 -145 29.5t-103.5 81.5t-62.5 120t-21 145t20.5 145t62.5 119.5t104.5 81t145.5 29.5t146 -29t104.5 -81t62.5 -120t21 -146t-21.5 -146t-64 -119.5t-105 -80.5t-144.5 -29zM369 68q61 0 102.5 26t66 69t35.5 95t11 104t-10.5 104.5t-35.5 96t-67 70.5
t-103 27t-102.5 -26t-65.5 -69.5t-35 -95.5t-11 -103q0 -52 11 -104.5t35 -96t66 -70.5t103 -27zM369 833l-71 -54h-76l102 131h89l101 -131h-76z" />
    <glyph glyph-name="Otilde" unicode="&#xd5;" horiz-adv-x="737" 
d="M367 -11q-83 0 -145 29.5t-103.5 81.5t-62.5 120t-21 145t20.5 145t62.5 119.5t104.5 81t145.5 29.5t146 -29t104.5 -81t62.5 -120t21 -146t-21.5 -146t-64 -119.5t-105 -80.5t-144.5 -29zM369 68q61 0 102.5 26t66 69t35.5 95t11 104t-10.5 104.5t-35.5 96t-67 70.5
t-103 27t-102.5 -26t-65.5 -69.5t-35 -95.5t-11 -103q0 -52 11 -104.5t35 -96t66 -70.5t103 -27zM529 892q-1 -27 -12.5 -51t-31.5 -40t-50 -16q-27 0 -51 10t-45.5 20t-44.5 10q-13 0 -23 -8t-13 -21h-56q2 28 14 52.5t33.5 39.5t51.5 15q27 0 50.5 -9.5t44.5 -19.5t41 -10
q12 0 23.5 7.5t14.5 20.5h54z" />
    <glyph glyph-name="Odieresis" unicode="&#xd6;" horiz-adv-x="737" 
d="M367 -11q-83 0 -145 29.5t-103.5 81.5t-62.5 120t-21 145t20.5 145t62.5 119.5t104.5 81t145.5 29.5t146 -29t104.5 -81t62.5 -120t21 -146t-21.5 -146t-64 -119.5t-105 -80.5t-144.5 -29zM369 68q61 0 102.5 26t66 69t35.5 95t11 104t-10.5 104.5t-35.5 96t-67 70.5
t-103 27t-102.5 -26t-65.5 -69.5t-35 -95.5t-11 -103q0 -52 11 -104.5t35 -96t66 -70.5t103 -27zM344 844q0 -24 -17.5 -42t-41.5 -18t-41.5 18t-17.5 42t17.5 41.5t41.5 17.5q25 0 42 -17t17 -42zM511 844q0 -24 -18 -42t-42 -18t-41.5 18t-17.5 42t17.5 41.5t41.5 17.5
q25 0 42.5 -17t17.5 -42z" />
    <glyph glyph-name="multiply" unicode="&#xd7;" horiz-adv-x="534" 
d="M267 195l-149 -148l-52 51l150 149l-150 149l52 51l149 -148l149 148l52 -51l-150 -149l150 -149l-52 -51z" />
    <glyph glyph-name="Oslash" unicode="&#xd8;" horiz-adv-x="737" 
d="M367 -11q-83 0 -145 29.5t-103.5 81.5t-62.5 120t-21 145t20.5 145t62.5 119.5t104.5 81t145.5 29.5t146 -29t104.5 -81t62.5 -120t21 -146t-21.5 -146t-64 -119.5t-105 -80.5t-144.5 -29zM369 68q61 0 102.5 26t66 69t35.5 95t11 104t-10.5 104.5t-35.5 96t-67 70.5
t-103 27t-102.5 -26t-65.5 -69.5t-35 -95.5t-11 -103q0 -52 11 -104.5t35 -96t66 -70.5t103 -27zM137 -55l-59 37l518 795l60 -36z" />
    <glyph glyph-name="Ugrave" unicode="&#xd9;" horiz-adv-x="707" 
d="M193 730v-486q0 -80 42.5 -128t125.5 -48q57 0 96.5 23t60 64.5t20.5 97.5v477h92v-464q0 -92 -34 -154t-96.5 -93t-146.5 -31q-131 0 -203 69.5t-72 200.5v408l-15 64h130zM307 913l102 -137h-89l-145 137h132z" />
    <glyph glyph-name="Uacute" unicode="&#xda;" horiz-adv-x="707" 
d="M193 730v-486q0 -80 42.5 -128t125.5 -48q57 0 96.5 23t60 64.5t20.5 97.5v477h92v-464q0 -92 -34 -154t-96.5 -93t-146.5 -31q-131 0 -203 69.5t-72 200.5v408l-15 64h130zM419 913h133l-145 -137h-89z" />
    <glyph glyph-name="Ucircumflex" unicode="&#xdb;" horiz-adv-x="707" 
d="M193 730v-486q0 -80 42.5 -128t125.5 -48q57 0 96.5 23t60 64.5t20.5 97.5v477h92v-464q0 -92 -34 -154t-96.5 -93t-146.5 -31q-131 0 -203 69.5t-72 200.5v408l-15 64h130zM362 833l-71 -54h-76l102 131h89l101 -131h-76z" />
    <glyph glyph-name="Udieresis" unicode="&#xdc;" horiz-adv-x="707" 
d="M193 730v-486q0 -80 42.5 -128t125.5 -48q57 0 96.5 23t60 64.5t20.5 97.5v477h92v-464q0 -92 -34 -154t-96.5 -93t-146.5 -31q-131 0 -203 69.5t-72 200.5v408l-15 64h130zM337 844q0 -24 -17.5 -42t-41.5 -18t-41.5 18t-17.5 42t17.5 41.5t41.5 17.5q25 0 42 -17
t17 -42zM504 844q0 -24 -18 -42t-42 -18t-41.5 18t-17.5 42t17.5 41.5t41.5 17.5q25 0 42.5 -17t17.5 -42z" />
    <glyph glyph-name="Yacute" unicode="&#xdd;" horiz-adv-x="584" 
d="M148 730l159 -279l154 279h101l-213 -381v-349h-111v349l-215 381h125zM357 913h133l-145 -137h-89z" />
    <glyph glyph-name="Thorn" unicode="&#xde;" horiz-adv-x="575" 
d="M192 730v-116h90q72 0 130.5 -20.5t93 -67.5t34.5 -127q0 -75 -36 -123.5t-94.5 -71.5t-125.5 -23h-93v-180h-112v665l-14 64h127zM289 262q63 0 98 38.5t35 98.5q0 62 -33.5 97.5t-98.5 35.5h-99v-270h98z" />
    <glyph glyph-name="germandbls" unicode="&#xdf;" horiz-adv-x="568" 
d="M16 426v68q24 0 41 5.5t28 19t16 37.5q13 56 38.5 97.5t67.5 65.5t102 24q51 0 92 -15.5t65 -44.5t24 -73q0 -40 -15.5 -69t-37 -51.5t-43.5 -40.5t-37 -36t-15 -39q0 -25 15.5 -40.5t39 -27t50 -23.5t50 -28.5t39 -43.5t15.5 -69q0 -59 -31 -95.5t-79.5 -51t-103 -6
t-103.5 39.5l39 70q26 -22 55.5 -31.5t56.5 -7t44 19t17 47.5q0 26 -15 43t-38.5 29.5t-50 24.5t-50.5 28t-39 40.5t-15 62.5q0 33 14.5 57t36 44t42.5 39.5t36 42.5t15 53q0 20 -9 36t-25.5 25t-41.5 9q-38 0 -61 -18.5t-35 -48t-16 -62.5t-4 -62v-470h-99v426h-75z" />
    <glyph glyph-name="agrave" unicode="&#xe0;" horiz-adv-x="494" 
d="M253 509q80 0 121.5 -42t41.5 -121v-237q0 -24 8.5 -32.5t20.5 -8.5q9 0 19 2.5t19 6.5l19 -60q-19 -11 -45 -18.5t-50 -7.5q-31 0 -52.5 15t-27.5 53q-29 -34 -67.5 -52t-82.5 -18q-59 0 -99 34.5t-40 95.5q0 55 26.5 89.5t69.5 52t91.5 24t91.5 6.5v58q0 28 -7 47
t-24.5 29.5t-46.5 10.5q-36 0 -71 -16.5t-66 -41.5l-44 67q42 32 92.5 48t102.5 16zM317 219q-24 0 -54.5 -2.5t-58.5 -11t-46 -27.5t-18 -52q0 -29 21 -43.5t49 -14.5q33 0 56.5 18.5t37 46.5t13.5 58v28zM189 734l101 -158h-88l-145 158h132z" />
    <glyph glyph-name="aacute" unicode="&#xe1;" horiz-adv-x="494" 
d="M253 509q80 0 121.5 -42t41.5 -121v-237q0 -24 8.5 -32.5t20.5 -8.5q9 0 19 2.5t19 6.5l19 -60q-19 -11 -45 -18.5t-50 -7.5q-31 0 -52.5 15t-27.5 53q-29 -34 -67.5 -52t-82.5 -18q-59 0 -99 34.5t-40 95.5q0 55 26.5 89.5t69.5 52t91.5 24t91.5 6.5v58q0 28 -7 47
t-24.5 29.5t-46.5 10.5q-36 0 -71 -16.5t-66 -41.5l-44 67q42 32 92.5 48t102.5 16zM317 219q-24 0 -54.5 -2.5t-58.5 -11t-46 -27.5t-18 -52q0 -29 21 -43.5t49 -14.5q33 0 56.5 18.5t37 46.5t13.5 58v28zM300 734h132l-144 -158h-89z" />
    <glyph glyph-name="acircumflex" unicode="&#xe2;" horiz-adv-x="494" 
d="M253 509q80 0 121.5 -42t41.5 -121v-237q0 -24 8.5 -32.5t20.5 -8.5q9 0 19 2.5t19 6.5l19 -60q-19 -11 -45 -18.5t-50 -7.5q-31 0 -52.5 15t-27.5 53q-29 -34 -67.5 -52t-82.5 -18q-59 0 -99 34.5t-40 95.5q0 55 26.5 89.5t69.5 52t91.5 24t91.5 6.5v58q0 28 -7 47
t-24.5 29.5t-46.5 10.5q-36 0 -71 -16.5t-66 -41.5l-44 67q42 32 92.5 48t102.5 16zM317 219q-24 0 -54.5 -2.5t-58.5 -11t-46 -27.5t-18 -52q0 -29 21 -43.5t49 -14.5q33 0 56.5 18.5t37 46.5t13.5 58v28zM247 653l-69 -73h-75l99 150h90l103 -151h-77z" />
    <glyph glyph-name="atilde" unicode="&#xe3;" horiz-adv-x="494" 
d="M253 509q80 0 121.5 -42t41.5 -121v-237q0 -24 8.5 -32.5t20.5 -8.5q9 0 19 2.5t19 6.5l19 -60q-19 -11 -45 -18.5t-50 -7.5q-31 0 -52.5 15t-27.5 53q-29 -34 -67.5 -52t-82.5 -18q-59 0 -99 34.5t-40 95.5q0 55 26.5 89.5t69.5 52t91.5 24t91.5 6.5v58q0 28 -7 47
t-24.5 29.5t-46.5 10.5q-36 0 -71 -16.5t-66 -41.5l-44 67q42 32 92.5 48t102.5 16zM317 219q-24 0 -54.5 -2.5t-58.5 -11t-46 -27.5t-18 -52q0 -29 21 -43.5t49 -14.5q33 0 56.5 18.5t37 46.5t13.5 58v28zM404 703q-1 -26 -12.5 -50.5t-31.5 -40t-50 -15.5q-27 0 -51 10
t-45.5 19.5t-44.5 9.5q-13 0 -23 -8t-13 -20h-56q2 28 14 52t33.5 39.5t51.5 15.5q27 0 50.5 -10t44.5 -20t41 -10q12 0 23.5 7.5t14.5 20.5h54z" />
    <glyph glyph-name="adieresis" unicode="&#xe4;" horiz-adv-x="494" 
d="M253 509q80 0 121.5 -42t41.5 -121v-237q0 -24 8.5 -32.5t20.5 -8.5q9 0 19 2.5t19 6.5l19 -60q-19 -11 -45 -18.5t-50 -7.5q-31 0 -52.5 15t-27.5 53q-29 -34 -67.5 -52t-82.5 -18q-59 0 -99 34.5t-40 95.5q0 55 26.5 89.5t69.5 52t91.5 24t91.5 6.5v58q0 28 -7 47
t-24.5 29.5t-46.5 10.5q-36 0 -71 -16.5t-66 -41.5l-44 67q42 32 92.5 48t102.5 16zM317 219q-24 0 -54.5 -2.5t-58.5 -11t-46 -27.5t-18 -52q0 -29 21 -43.5t49 -14.5q33 0 56.5 18.5t37 46.5t13.5 58v28zM221 651q0 -24 -17.5 -42t-41.5 -18t-41.5 18t-17.5 42t17.5 41.5
t41.5 17.5q25 0 42 -17t17 -42zM388 651q0 -24 -18 -42t-42 -18t-41.5 18t-17.5 42t17.5 41.5t41.5 17.5q25 0 42.5 -17t17.5 -42z" />
    <glyph glyph-name="aring" unicode="&#xe5;" horiz-adv-x="494" 
d="M253 509q80 0 121.5 -42t41.5 -121v-237q0 -24 8.5 -32.5t20.5 -8.5q9 0 19 2.5t19 6.5l19 -60q-19 -11 -45 -18.5t-50 -7.5q-31 0 -52.5 15t-27.5 53q-29 -34 -67.5 -52t-82.5 -18q-59 0 -99 34.5t-40 95.5q0 55 26.5 89.5t69.5 52t91.5 24t91.5 6.5v58q0 28 -7 47
t-24.5 29.5t-46.5 10.5q-36 0 -71 -16.5t-66 -41.5l-44 67q42 32 92.5 48t102.5 16zM317 219q-24 0 -54.5 -2.5t-58.5 -11t-46 -27.5t-18 -52q0 -29 21 -43.5t49 -14.5q33 0 56.5 18.5t37 46.5t13.5 58v28zM244 763q29 0 52 -14t37 -37.5t14 -51.5q0 -42 -30 -72.5
t-73 -30.5q-41 0 -71.5 30.5t-30.5 72.5q0 28 14 51.5t37 37.5t51 14zM244 704q-19 0 -32 -13t-13 -32q0 -18 13 -31t32 -13t32 13t13 31q0 19 -13 32t-32 13z" />
    <glyph glyph-name="ae" unicode="&#xe6;" horiz-adv-x="774" 
d="M38 119q0 55 26.5 89.5t69.5 52t91.5 24t91.5 6.5v58q0 28 -7 47t-24.5 29.5t-46.5 10.5q-24 0 -49 -7.5t-47.5 -20.5t-40.5 -30l-44 67q42 32 92.5 48t102.5 16q47 0 84.5 -15.5t58.5 -44.5q29 28 67 44.5t85 16.5q64 0 106 -27t63.5 -72t21.5 -101q0 -15 -2 -31t-5 -32
h-311q0 -51 17 -93t48 -67t73 -25q32 0 67 14t59 35l43 -68q-23 -19 -52.5 -31.5t-60 -18t-59.5 -5.5q-70 0 -119.5 28t-79.5 76q-34 -59 -81 -81t-99 -22q-59 0 -99 34.5t-40 95.5zM140 126q0 -29 21 -43.5t49 -14.5q33 0 56.5 18.5t37 46.5t13.5 58v28q-24 0 -54.5 -2.5
t-58.5 -11t-46 -27.5t-18 -52zM426 316h210q3 56 -22 89.5t-72 33.5q-34 0 -58.5 -18.5t-39 -47t-18.5 -57.5z" />
    <glyph glyph-name="ccedilla" unicode="&#xe7;" horiz-adv-x="450" 
d="M278 509q37 0 77 -12.5t74 -36.5l-51 -66q-26 21 -51.5 31.5t-53.5 10.5q-31 0 -55 -15.5t-40.5 -41.5t-25 -59.5t-8.5 -69.5q0 -90 39 -139t103 -49q28 0 55 9t58 26l28 -61q-40 -24 -77 -36.5t-84 -12.5q-70 0 -121.5 33t-80 92.5t-28.5 138.5q0 78 32 136t86.5 90
t123.5 32zM237 9h52l-30 -55q55 -1 84.5 -22t29.5 -59q0 -46 -35.5 -69.5t-82.5 -23.5q-25 0 -52 7t-50 22l26 48q15 -11 31.5 -16.5t31.5 -5.5q19 0 31.5 9.5t12.5 28.5q0 18 -13 29.5t-42 11.5q-10 0 -22.5 -1.5t-27.5 -5.5z" />
    <glyph glyph-name="egrave" unicode="&#xe8;" horiz-adv-x="494" 
d="M268 510q64 0 106.5 -27t63 -72t20.5 -101q0 -15 -1.5 -31t-4.5 -32h-311q0 -89 40 -137t107 -48q29 0 61 9.5t67 28.5l32 -57q-35 -28 -82 -41.5t-91 -13.5q-58 0 -103 20t-75 55.5t-45.5 82t-15.5 98.5q0 51 15 98.5t44.5 85.5t72.5 60t100 22zM261 439
q-33 0 -57.5 -18.5t-39 -47t-18.5 -57.5h209q3 36 -7.5 64t-32.5 43.5t-54 15.5zM210 734l101 -158h-88l-145 158h132z" />
    <glyph glyph-name="eacute" unicode="&#xe9;" horiz-adv-x="494" 
d="M268 510q64 0 106.5 -27t63 -72t20.5 -101q0 -15 -1.5 -31t-4.5 -32h-311q0 -89 40 -137t107 -48q29 0 61 9.5t67 28.5l32 -57q-35 -28 -82 -41.5t-91 -13.5q-58 0 -103 20t-75 55.5t-45.5 82t-15.5 98.5q0 51 15 98.5t44.5 85.5t72.5 60t100 22zM261 439
q-33 0 -57.5 -18.5t-39 -47t-18.5 -57.5h209q3 36 -7.5 64t-32.5 43.5t-54 15.5zM321 734h132l-144 -158h-89z" />
    <glyph glyph-name="ecircumflex" unicode="&#xea;" horiz-adv-x="494" 
d="M268 510q64 0 106.5 -27t63 -72t20.5 -101q0 -15 -1.5 -31t-4.5 -32h-311q0 -89 40 -137t107 -48q29 0 61 9.5t67 28.5l32 -57q-35 -28 -82 -41.5t-91 -13.5q-58 0 -103 20t-75 55.5t-45.5 82t-15.5 98.5q0 51 15 98.5t44.5 85.5t72.5 60t100 22zM261 439
q-33 0 -57.5 -18.5t-39 -47t-18.5 -57.5h209q3 36 -7.5 64t-32.5 43.5t-54 15.5zM268 653l-69 -73h-75l99 150h90l103 -151h-77z" />
    <glyph glyph-name="edieresis" unicode="&#xeb;" horiz-adv-x="494" 
d="M268 510q64 0 106.5 -27t63 -72t20.5 -101q0 -15 -1.5 -31t-4.5 -32h-311q0 -89 40 -137t107 -48q29 0 61 9.5t67 28.5l32 -57q-35 -28 -82 -41.5t-91 -13.5q-58 0 -103 20t-75 55.5t-45.5 82t-15.5 98.5q0 51 15 98.5t44.5 85.5t72.5 60t100 22zM261 439
q-33 0 -57.5 -18.5t-39 -47t-18.5 -57.5h209q3 36 -7.5 64t-32.5 43.5t-54 15.5zM242 651q0 -24 -17.5 -42t-41.5 -18t-41.5 18t-17.5 42t17.5 41.5t41.5 17.5q25 0 42 -17t17 -42zM409 651q0 -24 -18 -42t-42 -18t-41.5 18t-17.5 42t17.5 41.5t41.5 17.5q25 0 42.5 -17
t17.5 -42z" />
    <glyph glyph-name="igrave" unicode="&#xec;" horiz-adv-x="252" 
d="M76 440q0 1 -3 14t-5.5 26.5t-3.5 16.5h111v-497h-99v440zM69 734l101 -158h-88l-145 158h132z" />
    <glyph glyph-name="iacute" unicode="&#xed;" horiz-adv-x="252" 
d="M76 440q0 1 -3 14t-5.5 26.5t-3.5 16.5h111v-497h-99v440zM181 734h132l-144 -158h-89z" />
    <glyph glyph-name="icircumflex" unicode="&#xee;" horiz-adv-x="252" 
d="M76 440q0 1 -3 14t-5.5 26.5t-3.5 16.5h111v-497h-99v440zM127 653l-69 -73h-75l99 150h90l103 -151h-77z" />
    <glyph glyph-name="idieresis" unicode="&#xef;" horiz-adv-x="252" 
d="M76 440q0 1 -3 14t-5.5 26.5t-3.5 16.5h111v-497h-99v440zM101 651q0 -24 -17.5 -42t-41.5 -18t-41.5 18t-17.5 42t17.5 41.5t41.5 17.5q25 0 42 -17t17 -42zM268 651q0 -24 -18 -42t-42 -18t-41.5 18t-17.5 42t17.5 41.5t41.5 17.5q25 0 42.5 -17t17.5 -42z" />
    <glyph glyph-name="eth" unicode="&#xf0;" horiz-adv-x="536" 
d="M268 507q14 0 27.5 -2t24.5 -6q-19 36 -40.5 69.5t-45.5 62.5l-100 -55l-36 48l98 55q-14 16 -28 30.5t-26 26.5l68 41q13 -12 28 -26.5t31 -31.5l104 57l33 -50l-97 -53q35 -42 68.5 -91t61 -103.5t44 -113t16.5 -117.5q0 -70 -27.5 -129t-78.5 -94t-125 -35
q-73 0 -124.5 35t-79 94t-27.5 129t27.5 129t79.5 94.5t124 35.5zM268 438q-37 0 -61 -19t-38 -48.5t-19.5 -62t-5.5 -61.5q0 -28 5.5 -60.5t19.5 -61.5t38 -47.5t61 -18.5t62 18.5t38.5 47t18.5 61.5t5 61q0 29 -5 62.5t-18.5 62.5t-38.5 47.5t-62 18.5z" />
    <glyph glyph-name="ntilde" unicode="&#xf1;" horiz-adv-x="547" 
d="M151 506q7 -16 11.5 -33.5t6.5 -34.5q30 29 71 50.5t83 21.5q56 0 89 -22.5t47 -62t14 -91.5v-334h-98v313q0 28 -4 54t-20 43t-51 17q-21 0 -44.5 -9.5t-44 -23t-36.5 -28.5v-366h-98v354q0 19 -2.5 45.5t-9.5 52t-20 41.5zM441 703q-1 -26 -12.5 -50.5t-31.5 -40
t-50 -15.5q-27 0 -51 10t-45.5 19.5t-44.5 9.5q-13 0 -23 -8t-13 -20h-56q2 28 14 52t33.5 39.5t51.5 15.5q27 0 50.5 -10t44.5 -20t41 -10q12 0 23.5 7.5t14.5 20.5h54z" />
    <glyph glyph-name="ograve" unicode="&#xf2;" horiz-adv-x="537" 
d="M265 -13q-74 0 -125 36t-77.5 94.5t-26.5 127.5q0 52 16 99.5t46.5 84.5t74 58.5t98.5 21.5q75 0 126 -35t77 -94t26 -129q0 -52 -16 -99.5t-45.5 -84t-73.5 -58.5t-100 -22zM266 58q37 0 62 18t39.5 47t20.5 62t6 63q0 31 -5.5 64t-18.5 62t-37.5 46.5t-62.5 17.5
q-37 0 -61.5 -18t-39 -47t-20.5 -62.5t-6 -62.5t5.5 -62t19.5 -62.5t38 -47.5t60 -18zM210 734l101 -158h-88l-145 158h132z" />
    <glyph glyph-name="oacute" unicode="&#xf3;" horiz-adv-x="537" 
d="M265 -13q-74 0 -125 36t-77.5 94.5t-26.5 127.5q0 52 16 99.5t46.5 84.5t74 58.5t98.5 21.5q75 0 126 -35t77 -94t26 -129q0 -52 -16 -99.5t-45.5 -84t-73.5 -58.5t-100 -22zM266 58q37 0 62 18t39.5 47t20.5 62t6 63q0 31 -5.5 64t-18.5 62t-37.5 46.5t-62.5 17.5
q-37 0 -61.5 -18t-39 -47t-20.5 -62.5t-6 -62.5t5.5 -62t19.5 -62.5t38 -47.5t60 -18zM322 734h132l-144 -158h-89z" />
    <glyph glyph-name="ocircumflex" unicode="&#xf4;" horiz-adv-x="537" 
d="M265 -13q-74 0 -125 36t-77.5 94.5t-26.5 127.5q0 52 16 99.5t46.5 84.5t74 58.5t98.5 21.5q75 0 126 -35t77 -94t26 -129q0 -52 -16 -99.5t-45.5 -84t-73.5 -58.5t-100 -22zM266 58q37 0 62 18t39.5 47t20.5 62t6 63q0 31 -5.5 64t-18.5 62t-37.5 46.5t-62.5 17.5
q-37 0 -61.5 -18t-39 -47t-20.5 -62.5t-6 -62.5t5.5 -62t19.5 -62.5t38 -47.5t60 -18zM268 653l-69 -73h-75l99 150h90l103 -151h-77z" />
    <glyph glyph-name="otilde" unicode="&#xf5;" horiz-adv-x="537" 
d="M265 -13q-74 0 -125 36t-77.5 94.5t-26.5 127.5q0 52 16 99.5t46.5 84.5t74 58.5t98.5 21.5q75 0 126 -35t77 -94t26 -129q0 -52 -16 -99.5t-45.5 -84t-73.5 -58.5t-100 -22zM266 58q37 0 62 18t39.5 47t20.5 62t6 63q0 31 -5.5 64t-18.5 62t-37.5 46.5t-62.5 17.5
q-37 0 -61.5 -18t-39 -47t-20.5 -62.5t-6 -62.5t5.5 -62t19.5 -62.5t38 -47.5t60 -18zM426 703q-1 -26 -12.5 -50.5t-31.5 -40t-50 -15.5q-27 0 -51 10t-45.5 19.5t-44.5 9.5q-13 0 -23 -8t-13 -20h-56q2 28 14 52t33.5 39.5t51.5 15.5q27 0 50.5 -10t44.5 -20t41 -10
q12 0 23.5 7.5t14.5 20.5h54z" />
    <glyph glyph-name="odieresis" unicode="&#xf6;" horiz-adv-x="537" 
d="M265 -13q-74 0 -125 36t-77.5 94.5t-26.5 127.5q0 52 16 99.5t46.5 84.5t74 58.5t98.5 21.5q75 0 126 -35t77 -94t26 -129q0 -52 -16 -99.5t-45.5 -84t-73.5 -58.5t-100 -22zM266 58q37 0 62 18t39.5 47t20.5 62t6 63q0 31 -5.5 64t-18.5 62t-37.5 46.5t-62.5 17.5
q-37 0 -61.5 -18t-39 -47t-20.5 -62.5t-6 -62.5t5.5 -62t19.5 -62.5t38 -47.5t60 -18zM243 651q0 -24 -17.5 -42t-41.5 -18t-41.5 18t-17.5 42t17.5 41.5t41.5 17.5q25 0 42 -17t17 -42zM410 651q0 -24 -18 -42t-42 -18t-41.5 18t-17.5 42t17.5 41.5t41.5 17.5
q25 0 42.5 -17t17.5 -42z" />
    <glyph glyph-name="divide" unicode="&#xf7;" horiz-adv-x="630" 
d="M383 421q0 -28 -19.5 -48t-47.5 -20t-48 20t-20 48t20 48t48 20t47.5 -20t19.5 -48zM67 286h499v-78h-499v78zM383 74q0 -28 -19.5 -47.5t-47.5 -19.5t-48 19.5t-20 47.5t20 47.5t48 19.5t47.5 -19.5t19.5 -47.5z" />
    <glyph glyph-name="oslash" unicode="&#xf8;" horiz-adv-x="537" 
d="M265 -13q-74 0 -125 36t-77.5 94.5t-26.5 127.5q0 52 16 99.5t46.5 84.5t74 58.5t98.5 21.5q75 0 126 -35t77 -94t26 -129q0 -52 -16 -99.5t-45.5 -84t-73.5 -58.5t-100 -22zM266 58q37 0 62 18t39.5 47t20.5 62t6 63q0 31 -5.5 64t-18.5 62t-37.5 46.5t-62.5 17.5
q-37 0 -61.5 -18t-39 -47t-20.5 -62.5t-6 -62.5t5.5 -62t19.5 -62.5t38 -47.5t60 -18zM106 -70l-54 35l377 608l57 -31z" />
    <glyph glyph-name="ugrave" unicode="&#xf9;" horiz-adv-x="553" 
d="M174 497v-310q0 -26 4.5 -53.5t20.5 -45.5t50 -18q33 0 61 14t45 40t17 60v256q0 1 -3 14t-5.5 27t-3.5 16h112v-387q0 -22 7 -32t22 -10q14 0 38 9l19 -60q-21 -11 -46.5 -18.5t-49.5 -7.5q-28 0 -50.5 15t-29.5 53q-30 -31 -71 -51.5t-86 -20.5q-56 0 -89 22.5
t-47.5 62t-14.5 91.5v277l-12 57h112zM218 734l101 -158h-88l-145 158h132z" />
    <glyph glyph-name="uacute" unicode="&#xfa;" horiz-adv-x="553" 
d="M174 497v-310q0 -26 4.5 -53.5t20.5 -45.5t50 -18q33 0 61 14t45 40t17 60v256q0 1 -3 14t-5.5 27t-3.5 16h112v-387q0 -22 7 -32t22 -10q14 0 38 9l19 -60q-21 -11 -46.5 -18.5t-49.5 -7.5q-28 0 -50.5 15t-29.5 53q-30 -31 -71 -51.5t-86 -20.5q-56 0 -89 22.5
t-47.5 62t-14.5 91.5v277l-12 57h112zM329 734h132l-144 -158h-89z" />
    <glyph glyph-name="ucircumflex" unicode="&#xfb;" horiz-adv-x="553" 
d="M174 497v-310q0 -26 4.5 -53.5t20.5 -45.5t50 -18q33 0 61 14t45 40t17 60v256q0 1 -3 14t-5.5 27t-3.5 16h112v-387q0 -22 7 -32t22 -10q14 0 38 9l19 -60q-21 -11 -46.5 -18.5t-49.5 -7.5q-28 0 -50.5 15t-29.5 53q-30 -31 -71 -51.5t-86 -20.5q-56 0 -89 22.5
t-47.5 62t-14.5 91.5v277l-12 57h112zM276 653l-69 -73h-75l99 150h90l103 -151h-77z" />
    <glyph glyph-name="udieresis" unicode="&#xfc;" horiz-adv-x="553" 
d="M174 497v-310q0 -26 4.5 -53.5t20.5 -45.5t50 -18q33 0 61 14t45 40t17 60v256q0 1 -3 14t-5.5 27t-3.5 16h112v-387q0 -22 7 -32t22 -10q14 0 38 9l19 -60q-21 -11 -46.5 -18.5t-49.5 -7.5q-28 0 -50.5 15t-29.5 53q-30 -31 -71 -51.5t-86 -20.5q-56 0 -89 22.5
t-47.5 62t-14.5 91.5v277l-12 57h112zM250 651q0 -24 -17.5 -42t-41.5 -18t-41.5 18t-17.5 42t17.5 41.5t41.5 17.5q25 0 42 -17t17 -42zM417 651q0 -24 -18 -42t-42 -18t-41.5 18t-17.5 42t17.5 41.5t41.5 17.5q25 0 42.5 -17t17.5 -42z" />
    <glyph glyph-name="yacute" unicode="&#xfd;" horiz-adv-x="456" 
d="M113 497q22 -65 45.5 -129.5t45.5 -132.5q8 -26 16 -54.5t16 -55.5q7 27 15 55.5t17 54.5q22 68 45 132.5t45 129.5h92l-177 -499q-11 -34 -29 -72t-42.5 -70.5t-57 -53.5t-73.5 -21h-38v75q5 -1 9 -1h9q40 0 66 24t43 58t27 66l-181 494h107zM289 734h132l-144 -158h-89
z" />
    <glyph glyph-name="thorn" unicode="&#xfe;" horiz-adv-x="556" 
d="M308 509q54 0 93.5 -21.5t65.5 -59t38.5 -83t12.5 -93.5q0 -52 -14 -99.5t-42.5 -84.5t-71 -58.5t-99.5 -21.5q-30 0 -63 10t-56 30q2 -14 2 -29v-25v-133l14 -57h-113v925l-13 56h112v-314q25 27 61.5 42.5t72.5 15.5zM280 430q-31 0 -59.5 -18t-46.5 -43v-165
q0 -37 10.5 -69t35.5 -52t66 -20q36 0 60.5 17t39.5 45t20.5 60t5.5 62q0 31 -6.5 63t-22 59.5t-41 44t-62.5 16.5z" />
    <glyph glyph-name="ydieresis" unicode="&#xff;" horiz-adv-x="456" 
d="M113 497q22 -65 45.5 -129.5t45.5 -132.5q8 -26 16 -54.5t16 -55.5q7 27 15 55.5t17 54.5q22 68 45 132.5t45 129.5h92l-177 -499q-11 -34 -29 -72t-42.5 -70.5t-57 -53.5t-73.5 -21h-38v75q5 -1 9 -1h9q40 0 66 24t43 58t27 66l-181 494h107zM210 651q0 -24 -17.5 -42
t-41.5 -18t-41.5 18t-17.5 42t17.5 41.5t41.5 17.5q25 0 42 -17t17 -42zM377 651q0 -24 -18 -42t-42 -18t-41.5 18t-17.5 42t17.5 41.5t41.5 17.5q25 0 42.5 -17t17.5 -42z" />
    <glyph glyph-name="Amacron" unicode="&#x100;" horiz-adv-x="631" 
d="M365 730l255 -730h-122l-79 233h-230l-80 -233h-98l256 730h98zM305 586l-89 -272h176zM163 879h300v-69h-300v69z" />
    <glyph glyph-name="amacron" unicode="&#x101;" horiz-adv-x="494" 
d="M253 509q80 0 121.5 -42t41.5 -121v-237q0 -24 8.5 -32.5t20.5 -8.5q9 0 19 2.5t19 6.5l19 -60q-19 -11 -45 -18.5t-50 -7.5q-31 0 -52.5 15t-27.5 53q-29 -34 -67.5 -52t-82.5 -18q-59 0 -99 34.5t-40 95.5q0 55 26.5 89.5t69.5 52t91.5 24t91.5 6.5v58q0 28 -7 47
t-24.5 29.5t-46.5 10.5q-36 0 -71 -16.5t-66 -41.5l-44 67q42 32 92.5 48t102.5 16zM317 219q-24 0 -54.5 -2.5t-58.5 -11t-46 -27.5t-18 -52q0 -29 21 -43.5t49 -14.5q33 0 56.5 18.5t37 46.5t13.5 58v28zM89 689h300v-68h-300v68z" />
    <glyph glyph-name="Abreve" unicode="&#x102;" horiz-adv-x="631" 
d="M365 730l255 -730h-122l-79 233h-230l-80 -233h-98l256 730h98zM305 586l-89 -272h176zM461 909q-5 -35 -21.5 -64t-46.5 -46.5t-78 -17.5q-46 0 -76 17.5t-46 46.5t-20 64h57q7 -22 29 -36t58 -14t57.5 14t29.5 36h57z" />
    <glyph glyph-name="abreve" unicode="&#x103;" horiz-adv-x="494" 
d="M253 509q80 0 121.5 -42t41.5 -121v-237q0 -24 8.5 -32.5t20.5 -8.5q9 0 19 2.5t19 6.5l19 -60q-19 -11 -45 -18.5t-50 -7.5q-31 0 -52.5 15t-27.5 53q-29 -34 -67.5 -52t-82.5 -18q-59 0 -99 34.5t-40 95.5q0 55 26.5 89.5t69.5 52t91.5 24t91.5 6.5v58q0 28 -7 47
t-24.5 29.5t-46.5 10.5q-36 0 -71 -16.5t-66 -41.5l-44 67q42 32 92.5 48t102.5 16zM317 219q-24 0 -54.5 -2.5t-58.5 -11t-46 -27.5t-18 -52q0 -29 21 -43.5t49 -14.5q33 0 56.5 18.5t37 46.5t13.5 58v28zM391 730q-5 -44 -20.5 -77.5t-45.5 -52t-78 -18.5q-68 0 -102.5 42
t-41.5 106h57q8 -35 29.5 -52.5t57.5 -17.5t57.5 17.5t29.5 52.5h57z" />
    <glyph glyph-name="Aogonek" unicode="&#x104;" horiz-adv-x="631" 
d="M365 730l255 -730h-122l-79 233h-230l-80 -233h-98l256 730h98zM305 586l-89 -272h176zM622 -153q-28 -23 -63 -38t-73 -15q-42 0 -71 22t-29 66q0 29 20 54t50.5 44.5t63 31.5t56.5 16l26 -14q-16 -8 -38 -19.5t-42 -26t-33 -32t-13 -38.5t12.5 -31.5t33.5 -10.5
q19 0 42 12t39 22z" />
    <glyph glyph-name="aogonek" unicode="&#x105;" horiz-adv-x="494" 
d="M253 509q80 0 121.5 -42t41.5 -121v-237q0 -24 8.5 -32.5t20.5 -8.5q9 0 19 2.5t19 6.5l19 -60q-19 -11 -45 -18.5t-50 -7.5q-31 0 -52.5 15t-27.5 53q-29 -34 -67.5 -52t-82.5 -18q-59 0 -99 34.5t-40 95.5q0 55 26.5 89.5t69.5 52t91.5 24t91.5 6.5v58q0 28 -7 47
t-24.5 29.5t-46.5 10.5q-36 0 -71 -16.5t-66 -41.5l-44 67q42 32 92.5 48t102.5 16zM317 219q-24 0 -54.5 -2.5t-58.5 -11t-46 -27.5t-18 -52q0 -29 21 -43.5t49 -14.5q33 0 56.5 18.5t37 46.5t13.5 58v28zM508 -153q-28 -23 -63 -38t-73 -15q-42 0 -71 22t-29 66
q0 29 20 54t50.5 44.5t63 31.5t56.5 16l26 -14q-16 -8 -38 -19.5t-42 -26t-33 -32t-13 -38.5t12.5 -31.5t33.5 -10.5q19 0 42 12t39 22z" />
    <glyph glyph-name="Cacute" unicode="&#x106;" horiz-adv-x="624" 
d="M375 -12q-87 0 -150.5 29.5t-106 81t-63 118.5t-20.5 142q0 77 23 146t66.5 122t108 83.5t147.5 30.5q36 0 78.5 -8t82.5 -24.5t65 -42.5l-60 -73q-19 22 -47 36.5t-59 22.5t-59 8q-58 0 -100 -25t-69.5 -68t-41 -96t-13.5 -108q0 -90 27.5 -155t78.5 -100t121 -35
q42 0 90 11.5t100 38.5l35 -64q-25 -18 -53 -31t-58.5 -22t-61.5 -13.5t-61 -4.5zM413 913h133l-145 -137h-89z" />
    <glyph glyph-name="cacute" unicode="&#x107;" horiz-adv-x="450" 
d="M278 509q37 0 77 -12.5t74 -36.5l-51 -66q-26 21 -51.5 31.5t-53.5 10.5q-31 0 -55 -15.5t-40.5 -41.5t-25 -59.5t-8.5 -69.5q0 -90 39 -139t103 -49q28 0 55 9t58 26l28 -61q-40 -24 -77 -36.5t-84 -12.5q-70 0 -121.5 33t-80 92.5t-28.5 138.5q0 78 32 136t86.5 90
t123.5 32zM316 734h132l-144 -158h-89z" />
    <glyph glyph-name="Ccircumflex" unicode="&#x108;" horiz-adv-x="624" 
d="M375 -12q-87 0 -150.5 29.5t-106 81t-63 118.5t-20.5 142q0 77 23 146t66.5 122t108 83.5t147.5 30.5q36 0 78.5 -8t82.5 -24.5t65 -42.5l-60 -73q-19 22 -47 36.5t-59 22.5t-59 8q-58 0 -100 -25t-69.5 -68t-41 -96t-13.5 -108q0 -90 27.5 -155t78.5 -100t121 -35
q42 0 90 11.5t100 38.5l35 -64q-25 -18 -53 -31t-58.5 -22t-61.5 -13.5t-61 -4.5zM356 833l-71 -54h-76l102 131h89l101 -131h-76z" />
    <glyph glyph-name="ccircumflex" unicode="&#x109;" horiz-adv-x="450" 
d="M278 509q37 0 77 -12.5t74 -36.5l-51 -66q-26 21 -51.5 31.5t-53.5 10.5q-31 0 -55 -15.5t-40.5 -41.5t-25 -59.5t-8.5 -69.5q0 -90 39 -139t103 -49q28 0 55 9t58 26l28 -61q-40 -24 -77 -36.5t-84 -12.5q-70 0 -121.5 33t-80 92.5t-28.5 138.5q0 78 32 136t86.5 90
t123.5 32zM263 653l-69 -73h-75l99 150h90l103 -151h-77z" />
    <glyph glyph-name="Cdotaccent" unicode="&#x10a;" horiz-adv-x="624" 
d="M375 -12q-87 0 -150.5 29.5t-106 81t-63 118.5t-20.5 142q0 77 23 146t66.5 122t108 83.5t147.5 30.5q36 0 78.5 -8t82.5 -24.5t65 -42.5l-60 -73q-19 22 -47 36.5t-59 22.5t-59 8q-58 0 -100 -25t-69.5 -68t-41 -96t-13.5 -108q0 -90 27.5 -155t78.5 -100t121 -35
q42 0 90 11.5t100 38.5l35 -64q-25 -18 -53 -31t-58.5 -22t-61.5 -13.5t-61 -4.5zM415 844q0 -24 -18 -42t-42 -18t-41.5 18t-17.5 42t17.5 41.5t41.5 17.5q25 0 42.5 -17t17.5 -42z" />
    <glyph glyph-name="cdotaccent" unicode="&#x10b;" horiz-adv-x="450" 
d="M278 509q37 0 77 -12.5t74 -36.5l-51 -66q-26 21 -51.5 31.5t-53.5 10.5q-31 0 -55 -15.5t-40.5 -41.5t-25 -59.5t-8.5 -69.5q0 -90 39 -139t103 -49q28 0 55 9t58 26l28 -61q-40 -24 -77 -36.5t-84 -12.5q-70 0 -121.5 33t-80 92.5t-28.5 138.5q0 78 32 136t86.5 90
t123.5 32zM320 655q0 -24 -18 -42t-42 -18t-41.5 18t-17.5 42t17.5 41.5t41.5 17.5q25 0 42.5 -17t17.5 -42z" />
    <glyph glyph-name="Ccaron" unicode="&#x10c;" horiz-adv-x="624" 
d="M375 -12q-87 0 -150.5 29.5t-106 81t-63 118.5t-20.5 142q0 77 23 146t66.5 122t108 83.5t147.5 30.5q36 0 78.5 -8t82.5 -24.5t65 -42.5l-60 -73q-19 22 -47 36.5t-59 22.5t-59 8q-58 0 -100 -25t-69.5 -68t-41 -96t-13.5 -108q0 -90 27.5 -155t78.5 -100t121 -35
q42 0 90 11.5t100 38.5l35 -64q-25 -18 -53 -31t-58.5 -22t-61.5 -13.5t-61 -4.5zM357 855l69 54h75l-100 -130h-89l-103 131h77z" />
    <glyph glyph-name="ccaron" unicode="&#x10d;" horiz-adv-x="450" 
d="M278 509q37 0 77 -12.5t74 -36.5l-51 -66q-26 21 -51.5 31.5t-53.5 10.5q-31 0 -55 -15.5t-40.5 -41.5t-25 -59.5t-8.5 -69.5q0 -90 39 -139t103 -49q28 0 55 9t58 26l28 -61q-40 -24 -77 -36.5t-84 -12.5q-70 0 -121.5 33t-80 92.5t-28.5 138.5q0 78 32 136t86.5 90
t123.5 32zM267 655l69 74h75l-100 -150h-89l-103 151h77z" />
    <glyph glyph-name="Dcaron" unicode="&#x10e;" horiz-adv-x="699" 
d="M664 363q0 -105 -38.5 -187t-114 -129t-186.5 -47h-247v666q0 1 -3.5 15.5t-7 30t-4.5 18.5h225q88 0 157.5 -23t118.5 -69t74.5 -114.5t25.5 -160.5zM546 363q0 67 -16 120t-49 90t-83 56t-118 19h-90v-566h125q85 0 135.5 39t73 103t22.5 139zM343 855l69 54h75
l-100 -130h-89l-103 131h77z" />
    <glyph glyph-name="dcaron" unicode="&#x10f;" horiz-adv-x="626" 
d="M264 508q31 0 64 -9.5t56 -29.5q-1 16 -1 29v28v182l-15 57h113v-622q0 -21 2.5 -47t9 -50.5t16.5 -43.5l-102 -11q-6 16 -10.5 32t-6.5 33q-24 -33 -63.5 -51t-79.5 -18q-53 0 -92 22t-65 59.5t-39 83t-13 92.5q0 53 14 100.5t42 84.5t70.5 58t99.5 21zM270 433
q-37 0 -61 -17t-38.5 -44.5t-20.5 -59.5t-6 -62q0 -31 6.5 -63t22 -59.5t41 -44t62.5 -16.5q31 0 59.5 18.5t47.5 41.5v166q0 37 -11 69t-36 51.5t-66 19.5zM547 764h121l-48 -158h-83z" />
    <glyph glyph-name="Dcroat" unicode="&#x110;" horiz-adv-x="699" 
d="M664 363q0 -105 -38.5 -187t-114 -129t-186.5 -47h-247v666q0 1 -3.5 15.5t-7 30t-4.5 18.5h225q88 0 157.5 -23t118.5 -69t74.5 -114.5t25.5 -160.5zM546 363q0 67 -16 120t-49 90t-83 56t-118 19h-90v-566h125q85 0 135.5 39t73 103t22.5 139zM22 405h325v-74h-325v74z
" />
    <glyph glyph-name="dcroat" unicode="&#x111;" horiz-adv-x="558" 
d="M264 508q31 0 64 -9.5t56 -29.5q-1 16 -1 29v28v182l-15 57h113v-622q0 -21 2.5 -47t9 -50.5t16.5 -43.5l-102 -11q-6 16 -10.5 32t-6.5 33q-24 -33 -63.5 -51t-79.5 -18q-53 0 -92 22t-65 59.5t-39 83t-13 92.5q0 53 14 100.5t42 84.5t70.5 58t99.5 21zM270 433
q-37 0 -61 -17t-38.5 -44.5t-20.5 -59.5t-6 -62q0 -31 6.5 -63t22 -59.5t41 -44t62.5 -16.5q31 0 59.5 18.5t47.5 41.5v166q0 37 -11 69t-36 51.5t-66 19.5zM223 668h325v-74h-325v74z" />
    <glyph glyph-name="Emacron" unicode="&#x112;" horiz-adv-x="549" 
d="M64 730h446v-82h-320v-232h247v-81h-247v-253h320v-82h-432v666zM148 879h300v-69h-300v69z" />
    <glyph glyph-name="emacron" unicode="&#x113;" horiz-adv-x="494" 
d="M268 510q64 0 106.5 -27t63 -72t20.5 -101q0 -15 -1.5 -31t-4.5 -32h-311q0 -89 40 -137t107 -48q29 0 61 9.5t67 28.5l32 -57q-35 -28 -82 -41.5t-91 -13.5q-58 0 -103 20t-75 55.5t-45.5 82t-15.5 98.5q0 51 15 98.5t44.5 85.5t72.5 60t100 22zM261 439
q-33 0 -57.5 -18.5t-39 -47t-18.5 -57.5h209q3 36 -7.5 64t-32.5 43.5t-54 15.5zM110 689h300v-68h-300v68z" />
    <glyph glyph-name="Ebreve" unicode="&#x114;" horiz-adv-x="549" 
d="M64 730h446v-82h-320v-232h247v-81h-247v-253h320v-82h-432v666zM446 909q-5 -35 -21.5 -64t-46.5 -46.5t-78 -17.5q-46 0 -76 17.5t-46 46.5t-20 64h57q7 -22 29 -36t58 -14t57.5 14t29.5 36h57z" />
    <glyph glyph-name="ebreve" unicode="&#x115;" horiz-adv-x="494" 
d="M268 510q64 0 106.5 -27t63 -72t20.5 -101q0 -15 -1.5 -31t-4.5 -32h-311q0 -89 40 -137t107 -48q29 0 61 9.5t67 28.5l32 -57q-35 -28 -82 -41.5t-91 -13.5q-58 0 -103 20t-75 55.5t-45.5 82t-15.5 98.5q0 51 15 98.5t44.5 85.5t72.5 60t100 22zM261 439
q-33 0 -57.5 -18.5t-39 -47t-18.5 -57.5h209q3 36 -7.5 64t-32.5 43.5t-54 15.5zM412 730q-5 -44 -20.5 -77.5t-45.5 -52t-78 -18.5q-68 0 -102.5 42t-41.5 106h57q8 -35 29.5 -52.5t57.5 -17.5t57.5 17.5t29.5 52.5h57z" />
    <glyph glyph-name="Edotaccent" unicode="&#x116;" horiz-adv-x="549" 
d="M64 730h446v-82h-320v-232h247v-81h-247v-253h320v-82h-432v666zM359 844q0 -24 -18 -42t-42 -18t-41.5 18t-17.5 42t17.5 41.5t41.5 17.5q25 0 42.5 -17t17.5 -42z" />
    <glyph glyph-name="edotaccent" unicode="&#x117;" horiz-adv-x="494" 
d="M268 510q64 0 106.5 -27t63 -72t20.5 -101q0 -15 -1.5 -31t-4.5 -32h-311q0 -89 40 -137t107 -48q29 0 61 9.5t67 28.5l32 -57q-35 -28 -82 -41.5t-91 -13.5q-58 0 -103 20t-75 55.5t-45.5 82t-15.5 98.5q0 51 15 98.5t44.5 85.5t72.5 60t100 22zM261 439
q-33 0 -57.5 -18.5t-39 -47t-18.5 -57.5h209q3 36 -7.5 64t-32.5 43.5t-54 15.5zM325 655q0 -24 -18 -42t-42 -18t-41.5 18t-17.5 42t17.5 41.5t41.5 17.5q25 0 42.5 -17t17.5 -42z" />
    <glyph glyph-name="Eogonek" unicode="&#x118;" horiz-adv-x="549" 
d="M64 730h446v-82h-320v-232h247v-81h-247v-253h320v-82h-432v666zM521 -153q-28 -23 -63 -38t-73 -15q-42 0 -71 22t-29 66q0 29 20 54t50.5 44.5t63 31.5t56.5 16l26 -14q-16 -8 -38 -19.5t-42 -26t-33 -32t-13 -38.5t12.5 -31.5t33.5 -10.5q19 0 42 12t39 22z" />
    <glyph glyph-name="eogonek" unicode="&#x119;" horiz-adv-x="494" 
d="M268 510q64 0 106.5 -27t63 -72t20.5 -101q0 -15 -1.5 -31t-4.5 -32h-311q0 -89 40 -137t107 -48q29 0 61 9.5t67 28.5l32 -57q-35 -28 -82 -41.5t-91 -13.5q-58 0 -103 20t-75 55.5t-45.5 82t-15.5 98.5q0 51 15 98.5t44.5 85.5t72.5 60t100 22zM261 439
q-33 0 -57.5 -18.5t-39 -47t-18.5 -57.5h209q3 36 -7.5 64t-32.5 43.5t-54 15.5zM420 -153q-28 -23 -63 -38t-73 -15q-42 0 -71 22t-29 66q0 29 20 54t50.5 44.5t63 31.5t56.5 16l26 -14q-16 -8 -38 -19.5t-42 -26t-33 -32t-13 -38.5t12.5 -31.5t33.5 -10.5q19 0 42 12
t39 22z" />
    <glyph glyph-name="Ecaron" unicode="&#x11a;" horiz-adv-x="549" 
d="M64 730h446v-82h-320v-232h247v-81h-247v-253h320v-82h-432v666zM300 855l69 54h75l-100 -130h-89l-103 131h77z" />
    <glyph glyph-name="ecaron" unicode="&#x11b;" horiz-adv-x="494" 
d="M268 510q64 0 106.5 -27t63 -72t20.5 -101q0 -15 -1.5 -31t-4.5 -32h-311q0 -89 40 -137t107 -48q29 0 61 9.5t67 28.5l32 -57q-35 -28 -82 -41.5t-91 -13.5q-58 0 -103 20t-75 55.5t-45.5 82t-15.5 98.5q0 51 15 98.5t44.5 85.5t72.5 60t100 22zM261 439
q-33 0 -57.5 -18.5t-39 -47t-18.5 -57.5h209q3 36 -7.5 64t-32.5 43.5t-54 15.5zM272 655l69 74h75l-100 -150h-89l-103 151h77z" />
    <glyph glyph-name="Gcircumflex" unicode="&#x11c;" horiz-adv-x="707" 
d="M386 741q39 0 85 -8.5t89.5 -26.5t71.5 -47l-61 -70q-31 24 -57.5 39.5t-56 23t-71.5 7.5q-64 0 -108.5 -24t-71.5 -66t-39.5 -94.5t-12.5 -108.5q0 -52 11.5 -103.5t37 -95t67.5 -69.5t102 -26q51 0 88 21.5t58 59.5t21 88v64h-168l13 76h268l-1 -198q-1 -46 2 -92
t5 -91h-59l-33 76q-46 -47 -96 -67.5t-117 -20.5q-80 0 -139.5 29.5t-99 80.5t-59 117.5t-19.5 141.5q0 82 22.5 152t66.5 122t109.5 81t151.5 29zM362 833l-71 -54h-76l102 131h89l101 -131h-76z" />
    <glyph glyph-name="gcircumflex" unicode="&#x11d;" horiz-adv-x="477" 
d="M219 510q30 0 55.5 -7t53.5 -7q40 0 82 4t85 9l-20 -76h-82q-6 0 -13 1t-13 2q16 -22 24.5 -45.5t8.5 -49.5q0 -51 -24 -90.5t-67 -61.5t-100 -22q-22 0 -39 -13t-17 -37q0 -16 10.5 -23.5t26.5 -9t33 -1.5h75q28 0 57.5 -3t53.5 -14t39.5 -32.5t15.5 -58.5
q0 -54 -23.5 -93t-61.5 -64t-85 -36.5t-94 -11.5q-29 0 -61.5 6t-61.5 20t-47 38t-18 62q0 40 25 71t57 50v3q-20 9 -33 28.5t-13 41.5q0 12 10.5 23t26.5 29.5t35 51.5q-38 23 -60 60.5t-22 83.5q0 50 24.5 89t66.5 61t90 22zM219 444q-22 0 -40 -14.5t-28 -38.5t-10 -54
t10 -54t27.5 -38.5t40.5 -14.5q36 0 57.5 30t21.5 76q0 31 -10.5 55t-28 38.5t-40.5 14.5zM163 -1q-19 -12 -34.5 -36t-15.5 -48q0 -23 17 -39t40.5 -23t44.5 -7q25 0 52.5 4.5t51 16t38 31.5t14.5 49q0 25 -16 36t-39.5 13.5t-44.5 2.5h-108zM235 653l-69 -73h-75l99 150
h90l103 -151h-77z" />
    <glyph glyph-name="Gbreve" unicode="&#x11e;" horiz-adv-x="707" 
d="M386 741q39 0 85 -8.5t89.5 -26.5t71.5 -47l-61 -70q-31 24 -57.5 39.5t-56 23t-71.5 7.5q-64 0 -108.5 -24t-71.5 -66t-39.5 -94.5t-12.5 -108.5q0 -52 11.5 -103.5t37 -95t67.5 -69.5t102 -26q51 0 88 21.5t58 59.5t21 88v64h-168l13 76h268l-1 -198q-1 -46 2 -92
t5 -91h-59l-33 76q-46 -47 -96 -67.5t-117 -20.5q-80 0 -139.5 29.5t-99 80.5t-59 117.5t-19.5 141.5q0 82 22.5 152t66.5 122t109.5 81t151.5 29zM509 909q-5 -35 -21.5 -64t-46.5 -46.5t-78 -17.5q-46 0 -76 17.5t-46 46.5t-20 64h57q7 -22 29 -36t58 -14t57.5 14t29.5 36
h57z" />
    <glyph glyph-name="gbreve" unicode="&#x11f;" horiz-adv-x="477" 
d="M219 510q30 0 55.5 -7t53.5 -7q40 0 82 4t85 9l-20 -76h-82q-6 0 -13 1t-13 2q16 -22 24.5 -45.5t8.5 -49.5q0 -51 -24 -90.5t-67 -61.5t-100 -22q-22 0 -39 -13t-17 -37q0 -16 10.5 -23.5t26.5 -9t33 -1.5h75q28 0 57.5 -3t53.5 -14t39.5 -32.5t15.5 -58.5
q0 -54 -23.5 -93t-61.5 -64t-85 -36.5t-94 -11.5q-29 0 -61.5 6t-61.5 20t-47 38t-18 62q0 40 25 71t57 50v3q-20 9 -33 28.5t-13 41.5q0 12 10.5 23t26.5 29.5t35 51.5q-38 23 -60 60.5t-22 83.5q0 50 24.5 89t66.5 61t90 22zM219 444q-22 0 -40 -14.5t-28 -38.5t-10 -54
t10 -54t27.5 -38.5t40.5 -14.5q36 0 57.5 30t21.5 76q0 31 -10.5 55t-28 38.5t-40.5 14.5zM163 -1q-19 -12 -34.5 -36t-15.5 -48q0 -23 17 -39t40.5 -23t44.5 -7q25 0 52.5 4.5t51 16t38 31.5t14.5 49q0 25 -16 36t-39.5 13.5t-44.5 2.5h-108zM380 730q-5 -44 -20.5 -77.5
t-45.5 -52t-78 -18.5q-68 0 -102.5 42t-41.5 106h57q8 -35 29.5 -52.5t57.5 -17.5t57.5 17.5t29.5 52.5h57z" />
    <glyph glyph-name="Gdotaccent" unicode="&#x120;" horiz-adv-x="707" 
d="M386 741q39 0 85 -8.5t89.5 -26.5t71.5 -47l-61 -70q-31 24 -57.5 39.5t-56 23t-71.5 7.5q-64 0 -108.5 -24t-71.5 -66t-39.5 -94.5t-12.5 -108.5q0 -52 11.5 -103.5t37 -95t67.5 -69.5t102 -26q51 0 88 21.5t58 59.5t21 88v64h-168l13 76h268l-1 -198q-1 -46 2 -92
t5 -91h-59l-33 76q-46 -47 -96 -67.5t-117 -20.5q-80 0 -139.5 29.5t-99 80.5t-59 117.5t-19.5 141.5q0 82 22.5 152t66.5 122t109.5 81t151.5 29zM422 844q0 -24 -18 -42t-42 -18t-41.5 18t-17.5 42t17.5 41.5t41.5 17.5q25 0 42.5 -17t17.5 -42z" />
    <glyph glyph-name="gdotaccent" unicode="&#x121;" horiz-adv-x="477" 
d="M219 510q30 0 55.5 -7t53.5 -7q40 0 82 4t85 9l-20 -76h-82q-6 0 -13 1t-13 2q16 -22 24.5 -45.5t8.5 -49.5q0 -51 -24 -90.5t-67 -61.5t-100 -22q-22 0 -39 -13t-17 -37q0 -16 10.5 -23.5t26.5 -9t33 -1.5h75q28 0 57.5 -3t53.5 -14t39.5 -32.5t15.5 -58.5
q0 -54 -23.5 -93t-61.5 -64t-85 -36.5t-94 -11.5q-29 0 -61.5 6t-61.5 20t-47 38t-18 62q0 40 25 71t57 50v3q-20 9 -33 28.5t-13 41.5q0 12 10.5 23t26.5 29.5t35 51.5q-38 23 -60 60.5t-22 83.5q0 50 24.5 89t66.5 61t90 22zM219 444q-22 0 -40 -14.5t-28 -38.5t-10 -54
t10 -54t27.5 -38.5t40.5 -14.5q36 0 57.5 30t21.5 76q0 31 -10.5 55t-28 38.5t-40.5 14.5zM163 -1q-19 -12 -34.5 -36t-15.5 -48q0 -23 17 -39t40.5 -23t44.5 -7q25 0 52.5 4.5t51 16t38 31.5t14.5 49q0 25 -16 36t-39.5 13.5t-44.5 2.5h-108zM293 655q0 -24 -18 -42
t-42 -18t-41.5 18t-17.5 42t17.5 41.5t41.5 17.5q25 0 42.5 -17t17.5 -42z" />
    <glyph glyph-name="uni0122" unicode="&#x122;" horiz-adv-x="707" 
d="M386 741q39 0 85 -8.5t89.5 -26.5t71.5 -47l-61 -70q-31 24 -57.5 39.5t-56 23t-71.5 7.5q-64 0 -108.5 -24t-71.5 -66t-39.5 -94.5t-12.5 -108.5q0 -52 11.5 -103.5t37 -95t67.5 -69.5t102 -26q51 0 88 21.5t58 59.5t21 88v64h-168l13 76h268l-1 -198q-1 -46 2 -92
t5 -91h-59l-33 76q-46 -47 -96 -67.5t-117 -20.5q-80 0 -139.5 29.5t-99 80.5t-59 117.5t-19.5 141.5q0 82 22.5 152t66.5 122t109.5 81t151.5 29zM356 -72q31 0 48 -22t17 -51q0 -45 -26 -81.5t-61 -62.5l-31 31q11 11 25.5 28.5t14.5 31.5q0 11 -10 19.5t-20.5 20.5
t-10.5 33q0 23 16 38t38 15z" />
    <glyph glyph-name="uni0123" unicode="&#x123;" horiz-adv-x="477" 
d="M219 510q30 0 55.5 -7t53.5 -7q40 0 82 4t85 9l-20 -76h-82q-6 0 -13 1t-13 2q16 -22 24.5 -45.5t8.5 -49.5q0 -51 -24 -90.5t-67 -61.5t-100 -22q-22 0 -39 -13t-17 -37q0 -16 10.5 -23.5t26.5 -9t33 -1.5h75q28 0 57.5 -3t53.5 -14t39.5 -32.5t15.5 -58.5
q0 -54 -23.5 -93t-61.5 -64t-85 -36.5t-94 -11.5q-29 0 -61.5 6t-61.5 20t-47 38t-18 62q0 40 25 71t57 50v3q-20 9 -33 28.5t-13 41.5q0 12 10.5 23t26.5 29.5t35 51.5q-38 23 -60 60.5t-22 83.5q0 50 24.5 89t66.5 61t90 22zM219 444q-22 0 -40 -14.5t-28 -38.5t-10 -54
t10 -54t27.5 -38.5t40.5 -14.5q36 0 57.5 30t21.5 76q0 31 -10.5 55t-28 38.5t-40.5 14.5zM163 -1q-19 -12 -34.5 -36t-15.5 -48q0 -23 17 -39t40.5 -23t44.5 -7q25 0 52.5 4.5t51 16t38 31.5t14.5 49q0 25 -16 36t-39.5 13.5t-44.5 2.5h-108zM237 571q-31 0 -48 22.5
t-17 51.5q0 45 26.5 81t61.5 62l30 -31q-10 -10 -25 -27.5t-15 -32.5q0 -11 10.5 -19.5t20.5 -19.5t10 -33q0 -23 -16 -38.5t-38 -15.5z" />
    <glyph glyph-name="Hcircumflex" unicode="&#x124;" horiz-adv-x="714" 
d="M525 337h-334v-337h-112v666q0 1 -3.5 15.5t-6.5 30t-4 18.5h126v-312h334v312h112v-730h-112v337zM357 833l-71 -54h-76l102 131h89l101 -131h-76z" />
    <glyph glyph-name="hcircumflex" unicode="&#x125;" horiz-adv-x="547" 
d="M175 765v-322q30 28 67.5 47.5t80.5 19.5q56 0 88.5 -22.5t46.5 -62t14 -91.5v-334h-98v314q0 27 -4 53t-19.5 43.5t-51.5 17.5q-20 0 -43.5 -10t-44.5 -23.5t-36 -28.5v-366h-98v708l-13 57h111zM125 833l-71 -54h-76l102 131h89l101 -131h-76z" />
    <glyph glyph-name="Hbar" unicode="&#x126;" horiz-adv-x="714" 
d="M525 337h-334v-337h-112v666q0 1 -3.5 15.5t-6.5 30t-4 18.5h126v-312h334v312h112v-730h-112v337zM21 595h679v-74h-679v74z" />
    <glyph glyph-name="hbar" unicode="&#x127;" horiz-adv-x="547" 
d="M175 765v-322q30 28 67.5 47.5t80.5 19.5q56 0 88.5 -22.5t46.5 -62t14 -91.5v-334h-98v314q0 27 -4 53t-19.5 43.5t-51.5 17.5q-20 0 -43.5 -10t-44.5 -23.5t-36 -28.5v-366h-98v708l-13 57h111zM16 644h325v-74h-325v74z" />
    <glyph glyph-name="Itilde" unicode="&#x128;" horiz-adv-x="268" 
d="M64 730h126v-730h-112v666q0 1 -3.5 15.5t-6.5 30t-4 18.5zM294 892q-1 -27 -12.5 -51t-31.5 -40t-50 -16q-27 0 -51 10t-45.5 20t-44.5 10q-13 0 -23 -8t-13 -21h-56q2 28 14 52.5t33.5 39.5t51.5 15q27 0 50.5 -9.5t44.5 -19.5t41 -10q12 0 23.5 7.5t14.5 20.5h54z" />
    <glyph glyph-name="itilde" unicode="&#x129;" horiz-adv-x="252" 
d="M76 440q0 1 -3 14t-5.5 26.5t-3.5 16.5h111v-497h-99v440zM285 703q-1 -26 -12.5 -50.5t-31.5 -40t-50 -15.5q-27 0 -51 10t-45.5 19.5t-44.5 9.5q-13 0 -23 -8t-13 -20h-56q2 28 14 52t33.5 39.5t51.5 15.5q27 0 50.5 -10t44.5 -20t41 -10q12 0 23.5 7.5t14.5 20.5h54z
" />
    <glyph glyph-name="Imacron" unicode="&#x12a;" horiz-adv-x="268" 
d="M64 730h126v-730h-112v666q0 1 -3.5 15.5t-6.5 30t-4 18.5zM-17 879h300v-69h-300v69z" />
    <glyph glyph-name="imacron" unicode="&#x12b;" horiz-adv-x="252" 
d="M76 440q0 1 -3 14t-5.5 26.5t-3.5 16.5h111v-497h-99v440zM-31 689h300v-68h-300v68z" />
    <glyph glyph-name="Ibreve" unicode="&#x12c;" horiz-adv-x="268" 
d="M64 730h126v-730h-112v666q0 1 -3.5 15.5t-6.5 30t-4 18.5zM281 909q-5 -35 -21.5 -64t-46.5 -46.5t-78 -17.5q-46 0 -76 17.5t-46 46.5t-20 64h57q7 -22 29 -36t58 -14t57.5 14t29.5 36h57z" />
    <glyph glyph-name="ibreve" unicode="&#x12d;" horiz-adv-x="252" 
d="M76 440q0 1 -3 14t-5.5 26.5t-3.5 16.5h111v-497h-99v440zM272 730q-5 -44 -20.5 -77.5t-45.5 -52t-78 -18.5q-68 0 -102.5 42t-41.5 106h57q8 -35 29.5 -52.5t57.5 -17.5t57.5 17.5t29.5 52.5h57z" />
    <glyph glyph-name="Iogonek" unicode="&#x12e;" horiz-adv-x="268" 
d="M64 730h126v-730h-112v666q0 1 -3.5 15.5t-6.5 30t-4 18.5zM205 -153q-28 -23 -63 -38t-73 -15q-42 0 -71 22t-29 66q0 29 20 54t50.5 44.5t63 31.5t56.5 16l26 -14q-16 -8 -38 -19.5t-42 -26t-33 -32t-13 -38.5t12.5 -31.5t33.5 -10.5q19 0 42 12t39 22z" />
    <glyph glyph-name="iogonek" unicode="&#x12f;" horiz-adv-x="251" 
d="M192 670q0 -28 -19 -48t-48 -20q-28 0 -47.5 20t-19.5 48t19.5 47.5t47.5 19.5t47.5 -19.5t19.5 -47.5zM175 497v-497h-99v440l-12 57h111zM206 -153q-29 -23 -64 -38t-73 -15q-41 0 -70 22t-29 66q0 29 20 54t50 44.5t62.5 31.5t57.5 16l8 -23q-23 -11 -48 -27t-43 -36
t-18 -44q0 -21 12.5 -31.5t33.5 -10.5q19 0 42 12t39 22z" />
    <glyph glyph-name="Idotaccent" unicode="&#x130;" horiz-adv-x="268" 
d="M64 730h126v-730h-112v666q0 1 -3.5 15.5t-6.5 30t-4 18.5zM193 844q0 -24 -18 -42t-42 -18t-41.5 18t-17.5 42t17.5 41.5t41.5 17.5q25 0 42.5 -17t17.5 -42z" />
    <glyph glyph-name="dotlessi" unicode="&#x131;" horiz-adv-x="252" 
d="M76 440q0 1 -3 14t-5.5 26.5t-3.5 16.5h111v-497h-99v440z" />
    <glyph glyph-name="IJ" unicode="&#x132;" horiz-adv-x="536" 
d="M64 730h126v-730h-112v666q0 1 -3.5 15.5t-6.5 30t-4 18.5zM333 730h126v-653q0 -57 -7.5 -107t-29 -89t-61.5 -62.5t-107 -28.5l-15 66q38 5 60 24.5t32.5 47.5t13 60.5t2.5 63.5v614z" />
    <glyph glyph-name="ij" unicode="&#x133;" horiz-adv-x="502" 
d="M192 670q0 -28 -19 -48t-48 -20q-28 0 -47.5 20t-19.5 48t19.5 47.5t47.5 19.5t47.5 -19.5t19.5 -47.5zM175 497v-497h-99v440l-12 57h111zM444 670q0 -28 -19.5 -48t-47.5 -20t-48 20t-20 48t20 47.5t48 19.5t47.5 -19.5t19.5 -47.5zM426 497v-455q0 -42 -5.5 -86.5
t-21 -83.5t-46.5 -65.5t-83 -32.5l-17 46q37 20 52.5 54t18.5 74t3 76v417l-13 56h112z" />
    <glyph glyph-name="Jcircumflex" unicode="&#x134;" horiz-adv-x="268" 
d="M65 730h126v-653q0 -57 -7.5 -107t-29 -89t-61.5 -62.5t-107 -28.5l-15 66q38 5 60 24.5t32.5 47.5t13 60.5t2.5 63.5v614zM131 833l-71 -54h-76l102 131h89l101 -131h-76z" />
    <glyph glyph-name="jcircumflex" unicode="&#x135;" horiz-adv-x="251" 
d="M175 497v-455q0 -42 -5.5 -86.5t-21 -83.5t-46.5 -65.5t-83 -32.5l-17 46q37 20 52.5 54t18.5 74t3 76v417l-13 56h112zM124 653l-69 -73h-75l99 150h90l103 -151h-77z" />
    <glyph glyph-name="uni0136" unicode="&#x136;" horiz-adv-x="583" 
d="M64 730h126v-326l270 326h110l-267 -323l286 -407h-135l-264 376v-376h-112v666zM312 -72q31 0 48 -22t17 -51q0 -45 -26 -81.5t-61 -62.5l-31 31q11 11 25.5 28.5t14.5 31.5q0 11 -10 19.5t-20.5 20.5t-10.5 33q0 23 16 38t38 15z" />
    <glyph glyph-name="uni0137" unicode="&#x137;" horiz-adv-x="464" 
d="M175 765v-473l173 205h101l-179 -209l207 -288h-115l-187 264v-264h-99v708l-13 57h112zM251 -72q31 0 48 -22t17 -51q0 -45 -26 -81.5t-61 -62.5l-31 31q11 11 25.5 28.5t14.5 31.5q0 11 -10 19.5t-20.5 20.5t-10.5 33q0 23 16 38t38 15z" />
    <glyph glyph-name="kgreenlandic" unicode="&#x138;" horiz-adv-x="464" 
d="M175 497v-235l173 235h101l-179 -236l207 -261h-115l-187 234v-234h-99v497h99z" />
    <glyph glyph-name="Lacute" unicode="&#x139;" horiz-adv-x="514" 
d="M64 730h126v-648h298v-82h-410v666zM192 913h133l-145 -137h-89z" />
    <glyph glyph-name="lacute" unicode="&#x13a;" horiz-adv-x="251" 
d="M175 765v-765h-100v709l-12 56h112zM178 967h132l-144 -158h-89z" />
    <glyph glyph-name="uni013B" unicode="&#x13b;" horiz-adv-x="514" 
d="M64 730h126v-648h298v-82h-410v666zM289 -72q31 0 48 -22t17 -51q0 -45 -26 -81.5t-61 -62.5l-31 31q11 11 25.5 28.5t14.5 31.5q0 11 -10 19.5t-20.5 20.5t-10.5 33q0 23 16 38t38 15z" />
    <glyph glyph-name="uni013C" unicode="&#x13c;" horiz-adv-x="251" 
d="M175 765v-765h-100v709l-12 56h112zM121 -72q31 0 48 -22t17 -51q0 -45 -26 -81.5t-61 -62.5l-31 31q11 11 25.5 28.5t14.5 31.5q0 11 -10 19.5t-20.5 20.5t-10.5 33q0 23 16 38t38 15z" />
    <glyph glyph-name="Lcaron" unicode="&#x13d;" horiz-adv-x="514" 
d="M64 730h126v-648h298v-82h-410v666zM366 730h122l-48 -158h-84z" />
    <glyph glyph-name="lcaron" unicode="&#x13e;" horiz-adv-x="318" 
d="M175 765v-765h-100v709l-12 56h112zM228 765h121l-48 -157h-83z" />
    <glyph glyph-name="Ldot" unicode="&#x13f;" horiz-adv-x="514" 
d="M64 730h126v-648h298v-82h-410v666zM455 388q0 -29 -20.5 -49t-49.5 -20t-49.5 20t-20.5 49t20 50t50 21q29 0 49.5 -21t20.5 -50z" />
    <glyph glyph-name="ldot" unicode="&#x140;" horiz-adv-x="345" 
d="M175 765v-765h-100v709l-12 56h112zM371 309q0 -29 -20.5 -49t-49.5 -20q-28 0 -49 20t-21 49t20.5 50t49.5 21t49.5 -21t20.5 -50z" />
    <glyph glyph-name="Lslash" unicode="&#x141;" horiz-adv-x="514" 
d="M64 730h126v-648h298v-82h-410v666zM-4 258v81l387 179v-81z" />
    <glyph glyph-name="lslash" unicode="&#x142;" horiz-adv-x="251" 
d="M175 765v-765h-100v709l-12 56h112zM10 275v81l233 109v-81z" />
    <glyph glyph-name="Nacute" unicode="&#x143;" horiz-adv-x="714" 
d="M205 729l305 -467q10 -15 20 -31t20 -31q-1 18 -2.5 36t-1.5 36v457h91v-734h-80l-353 540q-9 15 -19 30.5t-20 29.5q2 -16 3 -32.5t1 -33.5v-529h-91v665l-14 64h141zM414 913h133l-145 -137h-89z" />
    <glyph glyph-name="nacute" unicode="&#x144;" horiz-adv-x="547" 
d="M151 506q7 -16 11.5 -33.5t6.5 -34.5q30 29 71 50.5t83 21.5q56 0 89 -22.5t47 -62t14 -91.5v-334h-98v313q0 28 -4 54t-20 43t-51 17q-21 0 -44.5 -9.5t-44 -23t-36.5 -28.5v-366h-98v354q0 19 -2.5 45.5t-9.5 52t-20 41.5zM337 734h132l-144 -158h-89z" />
    <glyph glyph-name="uni0145" unicode="&#x145;" horiz-adv-x="714" 
d="M205 729l305 -467q10 -15 20 -31t20 -31q-1 18 -2.5 36t-1.5 36v457h91v-734h-80l-353 540q-9 15 -19 30.5t-20 29.5q2 -16 3 -32.5t1 -33.5v-529h-91v665l-14 64h141zM358 -72q31 0 48 -22t17 -51q0 -45 -26 -81.5t-61 -62.5l-31 31q11 11 25.5 28.5t14.5 31.5
q0 11 -10 19.5t-20.5 20.5t-10.5 33q0 23 16 38t38 15z" />
    <glyph glyph-name="uni0146" unicode="&#x146;" horiz-adv-x="547" 
d="M151 506q7 -16 11.5 -33.5t6.5 -34.5q30 29 71 50.5t83 21.5q56 0 89 -22.5t47 -62t14 -91.5v-334h-98v313q0 28 -4 54t-20 43t-51 17q-21 0 -44.5 -9.5t-44 -23t-36.5 -28.5v-366h-98v354q0 19 -2.5 45.5t-9.5 52t-20 41.5zM271 -72q31 0 48 -22t17 -51q0 -45 -26 -81.5
t-61 -62.5l-31 31q11 11 25.5 28.5t14.5 31.5q0 11 -10 19.5t-20.5 20.5t-10.5 33q0 23 16 38t38 15z" />
    <glyph glyph-name="Ncaron" unicode="&#x147;" horiz-adv-x="714" 
d="M205 729l305 -467q10 -15 20 -31t20 -31q-1 18 -2.5 36t-1.5 36v457h91v-734h-80l-353 540q-9 15 -19 30.5t-20 29.5q2 -16 3 -32.5t1 -33.5v-529h-91v665l-14 64h141zM358 855l69 54h75l-100 -130h-89l-103 131h77z" />
    <glyph glyph-name="ncaron" unicode="&#x148;" horiz-adv-x="547" 
d="M151 506q7 -16 11.5 -33.5t6.5 -34.5q30 29 71 50.5t83 21.5q56 0 89 -22.5t47 -62t14 -91.5v-334h-98v313q0 28 -4 54t-20 43t-51 17q-21 0 -44.5 -9.5t-44 -23t-36.5 -28.5v-366h-98v354q0 19 -2.5 45.5t-9.5 52t-20 41.5zM287 655l69 74h75l-100 -150h-89l-103 151h77
z" />
    <glyph glyph-name="napostrophe" unicode="&#x149;" horiz-adv-x="547" 
d="M151 506q7 -16 11.5 -33.5t6.5 -34.5q30 29 71 50.5t83 21.5q56 0 89 -22.5t47 -62t14 -91.5v-334h-98v313q0 28 -4 54t-20 43t-51 17q-21 0 -44.5 -9.5t-44 -23t-36.5 -28.5v-366h-98v354q0 19 -2.5 45.5t-9.5 52t-20 41.5zM35 766q31 0 48 -22t17 -51q0 -45 -26.5 -82
t-60.5 -61q-8 6 -15.5 14t-15.5 16q11 10 25.5 27.5t14.5 32.5q0 12 -10 20t-20.5 19.5t-10.5 33.5t16 37.5t38 15.5z" />
    <glyph glyph-name="Eng" unicode="&#x14a;" horiz-adv-x="714" 
d="M64 729h141l305 -467q10 -15 20 -31t20 -31q-1 18 -2.5 36t-1.5 36v457h91v-652q0 -57 -7.5 -107t-29 -89t-62 -62.5t-106.5 -28.5l-16 63q37 5 59 24t33 46.5t14 59t3 61.5l-321 491q-9 15 -19 30.5t-20 29.5q2 -16 3 -32.5t1 -33.5v-529h-91v665z" />
    <glyph glyph-name="eng" unicode="&#x14b;" horiz-adv-x="547" 
d="M45 493l106 13q7 -16 11.5 -33.5t6.5 -34.5q30 29 71 50.5t83 21.5q56 0 89 -22.5t47 -62t14 -91.5v-292q0 -42 -5 -86.5t-21 -83.5t-47 -65.5t-82 -32.5l-18 46q38 20 53 54t18.5 74t3.5 76v290q0 27 -4 53t-20 43t-51 17q-21 0 -44.5 -9.5t-44 -23t-36.5 -28.5v-366
h-98v354q0 19 -2.5 45.5t-9.5 52t-20 41.5z" />
    <glyph glyph-name="Omacron" unicode="&#x14c;" horiz-adv-x="737" 
d="M367 -11q-83 0 -145 29.5t-103.5 81.5t-62.5 120t-21 145t20.5 145t62.5 119.5t104.5 81t145.5 29.5t146 -29t104.5 -81t62.5 -120t21 -146t-21.5 -146t-64 -119.5t-105 -80.5t-144.5 -29zM369 68q61 0 102.5 26t66 69t35.5 95t11 104t-10.5 104.5t-35.5 96t-67 70.5
t-103 27t-102.5 -26t-65.5 -69.5t-35 -95.5t-11 -103q0 -52 11 -104.5t35 -96t66 -70.5t103 -27zM218 879h300v-69h-300v69z" />
    <glyph glyph-name="omacron" unicode="&#x14d;" horiz-adv-x="537" 
d="M265 -13q-74 0 -125 36t-77.5 94.5t-26.5 127.5q0 52 16 99.5t46.5 84.5t74 58.5t98.5 21.5q75 0 126 -35t77 -94t26 -129q0 -52 -16 -99.5t-45.5 -84t-73.5 -58.5t-100 -22zM266 58q37 0 62 18t39.5 47t20.5 62t6 63q0 31 -5.5 64t-18.5 62t-37.5 46.5t-62.5 17.5
q-37 0 -61.5 -18t-39 -47t-20.5 -62.5t-6 -62.5t5.5 -62t19.5 -62.5t38 -47.5t60 -18zM110 689h300v-68h-300v68z" />
    <glyph glyph-name="Obreve" unicode="&#x14e;" horiz-adv-x="737" 
d="M367 -11q-83 0 -145 29.5t-103.5 81.5t-62.5 120t-21 145t20.5 145t62.5 119.5t104.5 81t145.5 29.5t146 -29t104.5 -81t62.5 -120t21 -146t-21.5 -146t-64 -119.5t-105 -80.5t-144.5 -29zM369 68q61 0 102.5 26t66 69t35.5 95t11 104t-10.5 104.5t-35.5 96t-67 70.5
t-103 27t-102.5 -26t-65.5 -69.5t-35 -95.5t-11 -103q0 -52 11 -104.5t35 -96t66 -70.5t103 -27zM516 909q-5 -35 -21.5 -64t-46.5 -46.5t-78 -17.5q-46 0 -76 17.5t-46 46.5t-20 64h57q7 -22 29 -36t58 -14t57.5 14t29.5 36h57z" />
    <glyph glyph-name="obreve" unicode="&#x14f;" horiz-adv-x="537" 
d="M265 -13q-74 0 -125 36t-77.5 94.5t-26.5 127.5q0 52 16 99.5t46.5 84.5t74 58.5t98.5 21.5q75 0 126 -35t77 -94t26 -129q0 -52 -16 -99.5t-45.5 -84t-73.5 -58.5t-100 -22zM266 58q37 0 62 18t39.5 47t20.5 62t6 63q0 31 -5.5 64t-18.5 62t-37.5 46.5t-62.5 17.5
q-37 0 -61.5 -18t-39 -47t-20.5 -62.5t-6 -62.5t5.5 -62t19.5 -62.5t38 -47.5t60 -18zM413 730q-5 -44 -20.5 -77.5t-45.5 -52t-78 -18.5q-68 0 -102.5 42t-41.5 106h57q8 -35 29.5 -52.5t57.5 -17.5t57.5 17.5t29.5 52.5h57z" />
    <glyph glyph-name="Ohungarumlaut" unicode="&#x150;" horiz-adv-x="737" 
d="M367 -11q-83 0 -145 29.5t-103.5 81.5t-62.5 120t-21 145t20.5 145t62.5 119.5t104.5 81t145.5 29.5t146 -29t104.5 -81t62.5 -120t21 -146t-21.5 -146t-64 -119.5t-105 -80.5t-144.5 -29zM369 68q61 0 102.5 26t66 69t35.5 95t11 104t-10.5 104.5t-35.5 96t-67 70.5
t-103 27t-102.5 -26t-65.5 -69.5t-35 -95.5t-11 -103q0 -52 11 -104.5t35 -96t66 -70.5t103 -27zM332 913h125l-126 -137h-75zM480 913h125l-126 -137h-75z" />
    <glyph glyph-name="ohungarumlaut" unicode="&#x151;" horiz-adv-x="537" 
d="M265 -13q-74 0 -125 36t-77.5 94.5t-26.5 127.5q0 52 16 99.5t46.5 84.5t74 58.5t98.5 21.5q75 0 126 -35t77 -94t26 -129q0 -52 -16 -99.5t-45.5 -84t-73.5 -58.5t-100 -22zM266 58q37 0 62 18t39.5 47t20.5 62t6 63q0 31 -5.5 64t-18.5 62t-37.5 46.5t-62.5 17.5
q-37 0 -61.5 -18t-39 -47t-20.5 -62.5t-6 -62.5t5.5 -62t19.5 -62.5t38 -47.5t60 -18zM229 734h125l-126 -158h-75zM377 734h125l-126 -158h-75z" />
    <glyph glyph-name="OE" unicode="&#x152;" horiz-adv-x="1051" 
d="M593 77q-45 -45 -101 -67t-121 -22q-83 0 -145 30t-103.5 82t-62 120.5t-20.5 144.5q0 78 21 146t63.5 119t105 80.5t145.5 29.5q65 0 120.5 -21t97.5 -66v77h432v-83h-320v-230h247v-84h-247v-250h320v-83h-432v77zM373 71q61 0 102.5 26t66.5 69t35.5 95t10.5 104
t-10.5 104t-35 95t-66.5 68.5t-103 25.5t-102.5 -26t-66 -69t-35.5 -95t-11 -104t11 -103.5t35 -94.5t66 -69t103 -26z" />
    <glyph glyph-name="oe" unicode="&#x153;" horiz-adv-x="851" 
d="M36 248q0 52 16 99t45.5 83.5t72.5 57.5t98 21q60 0 105.5 -24t74.5 -65q29 40 73.5 65t103.5 25q64 0 106 -27t63.5 -72t21.5 -101q0 -15 -2 -31t-5 -32h-311q0 -51 17 -93t48 -67t73 -25q32 0 67 14t59 35l43 -68q-23 -19 -52.5 -31.5t-60 -18t-59.5 -5.5
q-63 0 -110 24t-77 63q-29 -40 -74 -64t-104 -24q-56 0 -99 21.5t-72.5 57.5t-45 83t-15.5 99zM143 248q0 -28 6 -61t21 -62.5t39 -48t59 -18.5q37 0 62 18t38.5 47t19.5 62t6 63t-6 63t-20 62t-38.5 47t-61.5 18t-61 -18t-38 -47t-20 -62.5t-6 -62.5zM503 316h210
q3 56 -22 89.5t-73 33.5q-33 0 -57.5 -18.5t-39 -47t-18.5 -57.5z" />
    <glyph glyph-name="Racute" unicode="&#x154;" horiz-adv-x="591" 
d="M63 730h231q68 0 124 -18t89 -62t33 -121q0 -41 -20 -78.5t-53.5 -65t-72.5 -39.5l213 -346h-129l-194 327h-95v-327h-112v666zM189 648v-241h73q45 0 81.5 11t58 38t21.5 77q0 39 -19 64t-49.5 38t-66.5 13h-99zM347 913h133l-145 -137h-89z" />
    <glyph glyph-name="racute" unicode="&#x155;" horiz-adv-x="349" 
d="M149 506q20 -46 24 -98q25 42 69.5 70t93.5 28l-20 -101q-46 0 -80 -24t-62 -65v-316h-98v361q0 20 -3 45t-10 49t-19 41zM231 734h132l-144 -158h-89z" />
    <glyph glyph-name="uni0156" unicode="&#x156;" horiz-adv-x="591" 
d="M63 730h231q68 0 124 -18t89 -62t33 -121q0 -41 -20 -78.5t-53.5 -65t-72.5 -39.5l213 -346h-129l-194 327h-95v-327h-112v666zM189 648v-241h73q45 0 81.5 11t58 38t21.5 77q0 39 -19 64t-49.5 38t-66.5 13h-99zM305 -72q31 0 48 -22t17 -51q0 -45 -26 -81.5t-61 -62.5
l-31 31q11 11 25.5 28.5t14.5 31.5q0 11 -10 19.5t-20.5 20.5t-10.5 33q0 23 16 38t38 15z" />
    <glyph glyph-name="uni0157" unicode="&#x157;" horiz-adv-x="349" 
d="M149 506q20 -46 24 -98q25 42 69.5 70t93.5 28l-20 -101q-46 0 -80 -24t-62 -65v-316h-98v361q0 20 -3 45t-10 49t-19 41zM121 -72q31 0 48 -22t17 -51q0 -45 -26 -81.5t-61 -62.5l-31 31q11 11 25.5 28.5t14.5 31.5q0 11 -10 19.5t-20.5 20.5t-10.5 33q0 23 16 38t38 15
z" />
    <glyph glyph-name="Rcaron" unicode="&#x158;" horiz-adv-x="591" 
d="M63 730h231q68 0 124 -18t89 -62t33 -121q0 -41 -20 -78.5t-53.5 -65t-72.5 -39.5l213 -346h-129l-194 327h-95v-327h-112v666zM189 648v-241h73q45 0 81.5 11t58 38t21.5 77q0 39 -19 64t-49.5 38t-66.5 13h-99zM291 855l69 54h75l-100 -130h-89l-103 131h77z" />
    <glyph glyph-name="rcaron" unicode="&#x159;" horiz-adv-x="349" 
d="M149 506q20 -46 24 -98q25 42 69.5 70t93.5 28l-20 -101q-46 0 -80 -24t-62 -65v-316h-98v361q0 20 -3 45t-10 49t-19 41zM181 655l69 74h75l-100 -150h-89l-103 151h77z" />
    <glyph glyph-name="Sacute" unicode="&#x15a;" horiz-adv-x="516" 
d="M279 741q53 0 103 -15t93 -42l-56 -75q-29 23 -66.5 36.5t-74.5 13.5q-47 0 -82 -24t-35 -76q0 -30 16.5 -52t43.5 -38.5t59 -31.5q35 -17 72 -35.5t68 -44t50.5 -62t19.5 -90.5q0 -72 -35.5 -120.5t-93 -72.5t-124.5 -24q-57 0 -112 14t-105 42l41 94q34 -30 80.5 -49
t91.5 -19q33 0 64 12.5t52 38.5t21 66q0 41 -20.5 67.5t-53.5 45t-71 36.5q-33 15 -65.5 32.5t-59 40.5t-42.5 55.5t-16 78.5q0 67 34.5 110.5t89 65.5t113.5 22zM319 913h133l-145 -137h-89z" />
    <glyph glyph-name="sacute" unicode="&#x15b;" horiz-adv-x="430" 
d="M242 509q35 0 71.5 -8t65.5 -25l-35 -72q-21 17 -47.5 26t-52.5 9q-32 0 -57 -15t-25 -47q0 -21 10 -35t27.5 -24t37.5 -19q25 -11 50.5 -23t47.5 -29t36 -42t14 -63q0 -52 -26 -86.5t-67.5 -51.5t-89.5 -17q-40 0 -82.5 11t-76.5 31l38 70q25 -17 54.5 -28.5t58.5 -11.5
q34 0 60 17t26 51q0 24 -13.5 39.5t-35.5 27t-47 21.5q-30 14 -59 30.5t-48 43.5t-19 71q0 50 26.5 83t69 49.5t88.5 16.5zM273 734h132l-144 -158h-89z" />
    <glyph glyph-name="Scircumflex" unicode="&#x15c;" horiz-adv-x="516" 
d="M279 741q53 0 103 -15t93 -42l-56 -75q-29 23 -66.5 36.5t-74.5 13.5q-47 0 -82 -24t-35 -76q0 -30 16.5 -52t43.5 -38.5t59 -31.5q35 -17 72 -35.5t68 -44t50.5 -62t19.5 -90.5q0 -72 -35.5 -120.5t-93 -72.5t-124.5 -24q-57 0 -112 14t-105 42l41 94q34 -30 80.5 -49
t91.5 -19q33 0 64 12.5t52 38.5t21 66q0 41 -20.5 67.5t-53.5 45t-71 36.5q-33 15 -65.5 32.5t-59 40.5t-42.5 55.5t-16 78.5q0 67 34.5 110.5t89 65.5t113.5 22zM262 833l-71 -54h-76l102 131h89l101 -131h-76z" />
    <glyph glyph-name="scircumflex" unicode="&#x15d;" horiz-adv-x="430" 
d="M242 509q35 0 71.5 -8t65.5 -25l-35 -72q-21 17 -47.5 26t-52.5 9q-32 0 -57 -15t-25 -47q0 -21 10 -35t27.5 -24t37.5 -19q25 -11 50.5 -23t47.5 -29t36 -42t14 -63q0 -52 -26 -86.5t-67.5 -51.5t-89.5 -17q-40 0 -82.5 11t-76.5 31l38 70q25 -17 54.5 -28.5t58.5 -11.5
q34 0 60 17t26 51q0 24 -13.5 39.5t-35.5 27t-47 21.5q-30 14 -59 30.5t-48 43.5t-19 71q0 50 26.5 83t69 49.5t88.5 16.5zM220 653l-69 -73h-75l99 150h90l103 -151h-77z" />
    <glyph glyph-name="Scedilla" unicode="&#x15e;" horiz-adv-x="516" 
d="M279 741q53 0 103 -15t93 -42l-56 -75q-29 23 -66.5 36.5t-74.5 13.5q-47 0 -82 -24t-35 -76q0 -30 16.5 -52t43.5 -38.5t59 -31.5q35 -17 72 -35.5t68 -44t50.5 -62t19.5 -90.5q0 -72 -35.5 -120.5t-93 -72.5t-124.5 -24q-57 0 -112 14t-105 42l41 94q34 -30 80.5 -49
t91.5 -19q33 0 64 12.5t52 38.5t21 66q0 41 -20.5 67.5t-53.5 45t-71 36.5q-33 15 -65.5 32.5t-59 40.5t-42.5 55.5t-16 78.5q0 67 34.5 110.5t89 65.5t113.5 22zM246 9h52l-30 -55q55 -1 84.5 -22t29.5 -59q0 -46 -35.5 -69.5t-82.5 -23.5q-25 0 -52 7t-50 22l26 48
q15 -11 31.5 -16.5t31.5 -5.5q19 0 31.5 9.5t12.5 28.5q0 18 -13 29.5t-42 11.5q-10 0 -22.5 -1.5t-27.5 -5.5z" />
    <glyph glyph-name="scedilla" unicode="&#x15f;" horiz-adv-x="430" 
d="M242 509q35 0 71.5 -8t65.5 -25l-35 -72q-21 17 -47.5 26t-52.5 9q-32 0 -57 -15t-25 -47q0 -21 10 -35t27.5 -24t37.5 -19q25 -11 50.5 -23t47.5 -29t36 -42t14 -63q0 -52 -26 -86.5t-67.5 -51.5t-89.5 -17q-40 0 -82.5 11t-76.5 31l38 70q25 -17 54.5 -28.5t58.5 -11.5
q34 0 60 17t26 51q0 24 -13.5 39.5t-35.5 27t-47 21.5q-30 14 -59 30.5t-48 43.5t-19 71q0 50 26.5 83t69 49.5t88.5 16.5zM203 9h52l-30 -55q55 -1 84.5 -22t29.5 -59q0 -46 -35.5 -69.5t-82.5 -23.5q-25 0 -52 7t-50 22l26 48q15 -11 31.5 -16.5t31.5 -5.5q19 0 31.5 9.5
t12.5 28.5q0 18 -13 29.5t-42 11.5q-10 0 -22.5 -1.5t-27.5 -5.5z" />
    <glyph glyph-name="Scaron" unicode="&#x160;" horiz-adv-x="516" 
d="M279 741q53 0 103 -15t93 -42l-56 -75q-29 23 -66.5 36.5t-74.5 13.5q-47 0 -82 -24t-35 -76q0 -30 16.5 -52t43.5 -38.5t59 -31.5q35 -17 72 -35.5t68 -44t50.5 -62t19.5 -90.5q0 -72 -35.5 -120.5t-93 -72.5t-124.5 -24q-57 0 -112 14t-105 42l41 94q34 -30 80.5 -49
t91.5 -19q33 0 64 12.5t52 38.5t21 66q0 41 -20.5 67.5t-53.5 45t-71 36.5q-33 15 -65.5 32.5t-59 40.5t-42.5 55.5t-16 78.5q0 67 34.5 110.5t89 65.5t113.5 22zM263 855l69 54h75l-100 -130h-89l-103 131h77z" />
    <glyph glyph-name="scaron" unicode="&#x161;" horiz-adv-x="430" 
d="M242 509q35 0 71.5 -8t65.5 -25l-35 -72q-21 17 -47.5 26t-52.5 9q-32 0 -57 -15t-25 -47q0 -21 10 -35t27.5 -24t37.5 -19q25 -11 50.5 -23t47.5 -29t36 -42t14 -63q0 -52 -26 -86.5t-67.5 -51.5t-89.5 -17q-40 0 -82.5 11t-76.5 31l38 70q25 -17 54.5 -28.5t58.5 -11.5
q34 0 60 17t26 51q0 24 -13.5 39.5t-35.5 27t-47 21.5q-30 14 -59 30.5t-48 43.5t-19 71q0 50 26.5 83t69 49.5t88.5 16.5zM224 655l69 74h75l-100 -150h-89l-103 151h77z" />
    <glyph glyph-name="uni0162" unicode="&#x162;" horiz-adv-x="578" 
d="M230 648h-211v82h540v-82h-214v-648h-115v648zM266 9h52l-30 -55q55 -1 84.5 -22t29.5 -59q0 -46 -35.5 -69.5t-82.5 -23.5q-25 0 -52 7t-50 22l26 48q15 -11 31.5 -16.5t31.5 -5.5q19 0 31.5 9.5t12.5 28.5q0 18 -13 29.5t-42 11.5q-10 0 -22.5 -1.5t-27.5 -5.5z" />
    <glyph glyph-name="uni0163" unicode="&#x163;" horiz-adv-x="327" 
d="M208 640q-7 -34 -12 -71t-7 -72h126l-17 -70h-109v-300q0 -15 3.5 -30.5t14 -24.5t31.5 -9q16 0 32 3t31 7l14 -64q-25 -8 -51.5 -14t-55.5 -6q-64 0 -91 32.5t-27 95.5v310h-78v57q31 1 52 16t35.5 38.5t23.5 50t14 51.5h71zM155 9h52l-30 -55q55 -1 84.5 -22t29.5 -59
q0 -46 -35.5 -69.5t-82.5 -23.5q-25 0 -52 7t-50 22l26 48q15 -11 31.5 -16.5t31.5 -5.5q19 0 31.5 9.5t12.5 28.5q0 18 -13 29.5t-42 11.5q-10 0 -22.5 -1.5t-27.5 -5.5z" />
    <glyph glyph-name="Tcaron" unicode="&#x164;" horiz-adv-x="578" 
d="M230 648h-211v82h540v-82h-214v-648h-115v648zM288 855l69 54h75l-100 -130h-89l-103 131h77z" />
    <glyph glyph-name="tcaron" unicode="&#x165;" horiz-adv-x="327" 
d="M208 640q-7 -34 -12 -71t-7 -72h126l-17 -70h-109v-300q0 -15 3.5 -30.5t14 -24.5t31.5 -9q16 0 32 3t31 7l14 -64q-25 -8 -51.5 -14t-55.5 -6q-64 0 -91 32.5t-27 95.5v310h-78v57q31 1 52 16t35.5 38.5t23.5 50t14 51.5h71zM260 734h122l-48 -158h-84z" />
    <glyph glyph-name="Tbar" unicode="&#x166;" horiz-adv-x="578" 
d="M230 648h-211v82h540v-82h-214v-648h-115v648zM125 403h325v-74h-325v74z" />
    <glyph glyph-name="tbar" unicode="&#x167;" horiz-adv-x="327" 
d="M208 640q-7 -34 -12 -71t-7 -72h126l-17 -70h-109v-300q0 -15 3.5 -30.5t14 -24.5t31.5 -9q16 0 32 3t31 7l14 -64q-25 -8 -51.5 -14t-55.5 -6q-64 0 -91 32.5t-27 95.5v310h-78v57q31 1 52 16t35.5 38.5t23.5 50t14 51.5h71zM14 301h291v-74h-291v74z" />
    <glyph glyph-name="Utilde" unicode="&#x168;" horiz-adv-x="707" 
d="M193 730v-486q0 -80 42.5 -128t125.5 -48q57 0 96.5 23t60 64.5t20.5 97.5v477h92v-464q0 -92 -34 -154t-96.5 -93t-146.5 -31q-131 0 -203 69.5t-72 200.5v408l-15 64h130zM522 892q-1 -27 -12.5 -51t-31.5 -40t-50 -16q-27 0 -51 10t-45.5 20t-44.5 10q-13 0 -23 -8
t-13 -21h-56q2 28 14 52.5t33.5 39.5t51.5 15q27 0 50.5 -9.5t44.5 -19.5t41 -10q12 0 23.5 7.5t14.5 20.5h54z" />
    <glyph glyph-name="utilde" unicode="&#x169;" horiz-adv-x="553" 
d="M174 497v-310q0 -26 4.5 -53.5t20.5 -45.5t50 -18q33 0 61 14t45 40t17 60v256q0 1 -3 14t-5.5 27t-3.5 16h112v-387q0 -22 7 -32t22 -10q14 0 38 9l19 -60q-21 -11 -46.5 -18.5t-49.5 -7.5q-28 0 -50.5 15t-29.5 53q-30 -31 -71 -51.5t-86 -20.5q-56 0 -89 22.5
t-47.5 62t-14.5 91.5v277l-12 57h112zM434 703q-1 -26 -12.5 -50.5t-31.5 -40t-50 -15.5q-27 0 -51 10t-45.5 19.5t-44.5 9.5q-13 0 -23 -8t-13 -20h-56q2 28 14 52t33.5 39.5t51.5 15.5q27 0 50.5 -10t44.5 -20t41 -10q12 0 23.5 7.5t14.5 20.5h54z" />
    <glyph glyph-name="Umacron" unicode="&#x16a;" horiz-adv-x="707" 
d="M193 730v-486q0 -80 42.5 -128t125.5 -48q57 0 96.5 23t60 64.5t20.5 97.5v477h92v-464q0 -92 -34 -154t-96.5 -93t-146.5 -31q-131 0 -203 69.5t-72 200.5v408l-15 64h130zM211 879h300v-69h-300v69z" />
    <glyph glyph-name="umacron" unicode="&#x16b;" horiz-adv-x="553" 
d="M174 497v-310q0 -26 4.5 -53.5t20.5 -45.5t50 -18q33 0 61 14t45 40t17 60v256q0 1 -3 14t-5.5 27t-3.5 16h112v-387q0 -22 7 -32t22 -10q14 0 38 9l19 -60q-21 -11 -46.5 -18.5t-49.5 -7.5q-28 0 -50.5 15t-29.5 53q-30 -31 -71 -51.5t-86 -20.5q-56 0 -89 22.5
t-47.5 62t-14.5 91.5v277l-12 57h112zM118 689h300v-68h-300v68z" />
    <glyph glyph-name="Ubreve" unicode="&#x16c;" horiz-adv-x="707" 
d="M193 730v-486q0 -80 42.5 -128t125.5 -48q57 0 96.5 23t60 64.5t20.5 97.5v477h92v-464q0 -92 -34 -154t-96.5 -93t-146.5 -31q-131 0 -203 69.5t-72 200.5v408l-15 64h130zM509 909q-5 -35 -21.5 -64t-46.5 -46.5t-78 -17.5q-46 0 -76 17.5t-46 46.5t-20 64h57
q7 -22 29 -36t58 -14t57.5 14t29.5 36h57z" />
    <glyph glyph-name="ubreve" unicode="&#x16d;" horiz-adv-x="553" 
d="M174 497v-310q0 -26 4.5 -53.5t20.5 -45.5t50 -18q33 0 61 14t45 40t17 60v256q0 1 -3 14t-5.5 27t-3.5 16h112v-387q0 -22 7 -32t22 -10q14 0 38 9l19 -60q-21 -11 -46.5 -18.5t-49.5 -7.5q-28 0 -50.5 15t-29.5 53q-30 -31 -71 -51.5t-86 -20.5q-56 0 -89 22.5
t-47.5 62t-14.5 91.5v277l-12 57h112zM420 730q-5 -44 -20.5 -77.5t-45.5 -52t-78 -18.5q-68 0 -102.5 42t-41.5 106h57q8 -35 29.5 -52.5t57.5 -17.5t57.5 17.5t29.5 52.5h57z" />
    <glyph glyph-name="Uring" unicode="&#x16e;" horiz-adv-x="707" 
d="M193 730v-486q0 -80 42.5 -128t125.5 -48q57 0 96.5 23t60 64.5t20.5 97.5v477h92v-464q0 -92 -34 -154t-96.5 -93t-146.5 -31q-131 0 -203 69.5t-72 200.5v408l-15 64h130zM362 995q29 0 52 -14t37 -37t14 -52q0 -41 -30 -71.5t-73 -30.5q-41 0 -71.5 30.5t-30.5 71.5
q0 28 14 52t37 37.5t51 13.5zM362 937q-19 0 -32 -13t-13 -32t13 -32t32 -13t32 13.5t13 31.5q0 19 -13 32t-32 13z" />
    <glyph glyph-name="uring" unicode="&#x16f;" horiz-adv-x="553" 
d="M174 497v-310q0 -26 4.5 -53.5t20.5 -45.5t50 -18q33 0 61 14t45 40t17 60v256q0 1 -3 14t-5.5 27t-3.5 16h112v-387q0 -22 7 -32t22 -10q14 0 38 9l19 -60q-21 -11 -46.5 -18.5t-49.5 -7.5q-28 0 -50.5 15t-29.5 53q-30 -31 -71 -51.5t-86 -20.5q-56 0 -89 22.5
t-47.5 62t-14.5 91.5v277l-12 57h112zM273 763q29 0 52 -14t37 -37.5t14 -51.5q0 -42 -30 -72.5t-73 -30.5q-41 0 -71.5 30.5t-30.5 72.5q0 28 14 51.5t37 37.5t51 14zM273 704q-19 0 -32 -13t-13 -32q0 -18 13 -31t32 -13t32 13t13 31q0 19 -13 32t-32 13z" />
    <glyph glyph-name="Uhungarumlaut" unicode="&#x170;" horiz-adv-x="707" 
d="M193 730v-486q0 -80 42.5 -128t125.5 -48q57 0 96.5 23t60 64.5t20.5 97.5v477h92v-464q0 -92 -34 -154t-96.5 -93t-146.5 -31q-131 0 -203 69.5t-72 200.5v408l-15 64h130zM325 913h125l-126 -137h-75zM473 913h125l-126 -137h-75z" />
    <glyph glyph-name="uhungarumlaut" unicode="&#x171;" horiz-adv-x="553" 
d="M174 497v-310q0 -26 4.5 -53.5t20.5 -45.5t50 -18q33 0 61 14t45 40t17 60v256q0 1 -3 14t-5.5 27t-3.5 16h112v-387q0 -22 7 -32t22 -10q14 0 38 9l19 -60q-21 -11 -46.5 -18.5t-49.5 -7.5q-28 0 -50.5 15t-29.5 53q-30 -31 -71 -51.5t-86 -20.5q-56 0 -89 22.5
t-47.5 62t-14.5 91.5v277l-12 57h112zM236 734h125l-126 -158h-75zM384 734h125l-126 -158h-75z" />
    <glyph glyph-name="Uogonek" unicode="&#x172;" horiz-adv-x="707" 
d="M193 730v-486q0 -80 42.5 -128t125.5 -48q57 0 96.5 23t60 64.5t20.5 97.5v477h92v-464q0 -92 -34 -154t-96.5 -93t-146.5 -31q-131 0 -203 69.5t-72 200.5v408l-15 64h130zM508 -153q-28 -23 -63 -38t-73 -15q-42 0 -71 22t-29 66q0 29 20 54t50.5 44.5t63 31.5t56.5 16
l26 -14q-16 -8 -38 -19.5t-42 -26t-33 -32t-13 -38.5t12.5 -31.5t33.5 -10.5q19 0 42 12t39 22z" />
    <glyph glyph-name="uogonek" unicode="&#x173;" horiz-adv-x="553" 
d="M174 497v-310q0 -26 4.5 -53.5t20.5 -45.5t50 -18q33 0 61 14t45 40t17 60v256q0 1 -3 14t-5.5 27t-3.5 16h112v-387q0 -22 7 -32t22 -10q14 0 38 9l19 -60q-21 -11 -46.5 -18.5t-49.5 -7.5q-28 0 -50.5 15t-29.5 53q-30 -31 -71 -51.5t-86 -20.5q-56 0 -89 22.5
t-47.5 62t-14.5 91.5v277l-12 57h112zM570 -151q-28 -23 -63 -38t-73 -15q-42 0 -71 22t-29 66q0 29 20 54t50.5 44.5t63 31.5t56.5 16l26 -14q-16 -8 -38 -19.5t-42 -26t-33 -32t-13 -38.5t12.5 -31.5t33.5 -10.5q19 0 42 12t39 22z" />
    <glyph glyph-name="Wcircumflex" unicode="&#x174;" horiz-adv-x="894" 
d="M121 730l120 -440q8 -28 14 -57.5t12 -63.5q7 36 14.5 68.5t15.5 63.5l116 429h92l119 -443q8 -27 14 -56t11 -62q7 36 14 68t16 63l117 430h92l-201 -734h-97l-121 445q-6 23 -11.5 47t-9.5 52q-6 -33 -13 -63.5t-15 -59.5l-114 -421h-98l-202 734h115zM457 833l-71 -54
h-76l102 131h89l101 -131h-76z" />
    <glyph glyph-name="wcircumflex" unicode="&#x175;" horiz-adv-x="658" 
d="M105 497l78 -262q6 -18 9 -36.5t7 -40.5q4 22 7 40t9 36l83 263h80l79 -262q6 -18 8.5 -36t6.5 -41q4 23 7.5 41t8.5 36l82 262h86l-157 -502h-74q-17 57 -34.5 111t-33 110.5t-29.5 120.5q-15 -64 -31.5 -120.5t-34.5 -110.5l-37 -111h-75l-148 502h103zM340 653
l-69 -73h-75l99 150h90l103 -151h-77z" />
    <glyph glyph-name="Ycircumflex" unicode="&#x176;" horiz-adv-x="584" 
d="M148 730l159 -279l154 279h101l-213 -381v-349h-111v349l-215 381h125zM299 833l-71 -54h-76l102 131h89l101 -131h-76z" />
    <glyph glyph-name="ycircumflex" unicode="&#x177;" horiz-adv-x="456" 
d="M113 497q22 -65 45.5 -129.5t45.5 -132.5q8 -26 16 -54.5t16 -55.5q7 27 15 55.5t17 54.5q22 68 45 132.5t45 129.5h92l-177 -499q-11 -34 -29 -72t-42.5 -70.5t-57 -53.5t-73.5 -21h-38v75q5 -1 9 -1h9q40 0 66 24t43 58t27 66l-181 494h107zM236 653l-69 -73h-75
l99 150h90l103 -151h-77z" />
    <glyph glyph-name="Ydieresis" unicode="&#x178;" horiz-adv-x="584" 
d="M148 730l159 -279l154 279h101l-213 -381v-349h-111v349l-215 381h125zM275 844q0 -24 -17.5 -42t-41.5 -18t-41.5 18t-17.5 42t17.5 41.5t41.5 17.5q25 0 42 -17t17 -42zM442 844q0 -24 -18 -42t-42 -18t-41.5 18t-17.5 42t17.5 41.5t41.5 17.5q25 0 42.5 -17t17.5 -42z
" />
    <glyph glyph-name="Zacute" unicode="&#x179;" horiz-adv-x="571" 
d="M49 730h482v-70l-370 -578h385l-10 -82h-510v73l366 575h-343v82zM343 913h133l-145 -137h-89z" />
    <glyph glyph-name="zacute" unicode="&#x17a;" horiz-adv-x="445" 
d="M50 497h356v-54l-249 -372h262l-12 -71h-381v53l247 372h-223v72zM281 734h132l-144 -158h-89z" />
    <glyph glyph-name="Zdotaccent" unicode="&#x17b;" horiz-adv-x="571" 
d="M49 730h482v-70l-370 -578h385l-10 -82h-510v73l366 575h-343v82zM346 844q0 -24 -18 -42t-42 -18t-41.5 18t-17.5 42t17.5 41.5t41.5 17.5q25 0 42.5 -17t17.5 -42z" />
    <glyph glyph-name="zdotaccent" unicode="&#x17c;" horiz-adv-x="445" 
d="M50 497h356v-54l-249 -372h262l-12 -71h-381v53l247 372h-223v72zM285 655q0 -24 -18 -42t-42 -18t-41.5 18t-17.5 42t17.5 41.5t41.5 17.5q25 0 42.5 -17t17.5 -42z" />
    <glyph glyph-name="Zcaron" unicode="&#x17d;" horiz-adv-x="571" 
d="M49 730h482v-70l-370 -578h385l-10 -82h-510v73l366 575h-343v82zM287 855l69 54h75l-100 -130h-89l-103 131h77z" />
    <glyph glyph-name="zcaron" unicode="&#x17e;" horiz-adv-x="445" 
d="M50 497h356v-54l-249 -372h262l-12 -71h-381v53l247 372h-223v72zM231 655l69 74h75l-100 -150h-89l-103 151h77z" />
    <glyph glyph-name="longs" unicode="&#x17f;" horiz-adv-x="288" 
d="M306 773q25 0 50 -5.5t47 -19.5l-26 -70q-13 11 -32 17.5t-36 6.5q-31 0 -52 -11t-34.5 -30t-21 -45t-10 -56.5t-2.5 -62.5v-497h-98v427h-78v60q15 2 32 3.5t30.5 10t17.5 28.5q9 44 14.5 74.5t17 55.5t37.5 54q26 28 63 44t81 16z" />
    <glyph glyph-name="uni018F" unicode="&#x18f;" horiz-adv-x="729" 
d="M174 364q-2 -15 -3.5 -31t-1.5 -33q0 -59 19.5 -112t61.5 -86.5t111 -33.5q62 0 103 26t66 69t35.5 95t10.5 104q0 103 -29.5 168.5t-78.5 97.5t-106 32q-51 0 -104 -26.5t-97 -76.5l-71 70q59 56 131 84.5t145 28.5q64 0 123 -22.5t105.5 -69t73.5 -117.5t27 -167
q0 -78 -22 -146t-64 -119.5t-104.5 -80.5t-145.5 -29q-101 0 -169.5 44t-102.5 119t-34 166q0 12 0.5 23.5t1.5 23.5zM55 365h588v-78h-554z" />
    <glyph glyph-name="uni0191" unicode="&#x191;" horiz-adv-x="510" 
d="M-30 -147q37 5 59 25t32.5 48.5t13.5 61.5t3 64v614l-15 64h415v-82h-288v-232h226v-81h-226v-258q0 -57 -7.5 -107t-29 -89t-62 -62.5t-106.5 -28.5z" />
    <glyph glyph-name="florin" unicode="&#x192;" horiz-adv-x="377" 
d="M336 701q26 0 52.5 -7.5t49.5 -23.5l-26 -70q-42 29 -74 29q-30 0 -50 -24t-32 -62.5t-20 -84.5h143l-21 -70h-133l-68 -406q-16 -91 -58.5 -141.5t-115.5 -50.5q-11 0 -23 1.5t-25 3.5l20 67q26 0 44.5 8t30 27t17.5 50l77 441h-76v60q24 1 41.5 2.5t30.5 9.5t21 28
q10 23 17 49.5t18.5 54.5t31.5 51q22 28 56 43t72 15z" />
    <glyph glyph-name="uni019D" unicode="&#x19d;" horiz-adv-x="714" 
d="M-30 -148q40 6 62 26t32 48.5t12 61t2 64.5v613l-14 64l1 -1l-1 1h141l305 -467q10 -15 20 -31t20 -31q-1 18 -2.5 36t-1.5 36v457h91v-734h-80l-353 540q-9 15 -19 30.5t-20 29.5q2 -16 3 -32.5t1 -33.5v-452q0 -57 -4 -107t-20.5 -89t-54 -62.5t-105.5 -28.5z" />
    <glyph glyph-name="Ohorn" unicode="&#x1a0;" horiz-adv-x="737" 
d="M367 -11q-83 0 -145 29.5t-103.5 81.5t-62.5 120t-21 145t20.5 145t62.5 119.5t104.5 81t145.5 29.5t146 -29t104.5 -81t62.5 -120t21 -146t-21.5 -146t-64 -119.5t-105 -80.5t-144.5 -29zM369 68q61 0 102.5 26t66 69t35.5 95t11 104t-10.5 104.5t-35.5 96t-67 70.5
t-103 27t-102.5 -26t-65.5 -69.5t-35 -95.5t-11 -103q0 -52 11 -104.5t35 -96t66 -70.5t103 -27zM485 722q48 -15 77.5 1t41 51t6.5 77h106q4 -37 -7 -76.5t-38.5 -70.5t-73 -44.5t-112.5 -0.5v63z" />
    <glyph glyph-name="ohorn" unicode="&#x1a1;" horiz-adv-x="537" 
d="M265 -13q-74 0 -125 36t-77.5 94.5t-26.5 127.5q0 52 16 99.5t46.5 84.5t74 58.5t98.5 21.5q75 0 126 -35t77 -94t26 -129q0 -52 -16 -99.5t-45.5 -84t-73.5 -58.5t-100 -22zM266 58q37 0 62 18t39.5 47t20.5 62t6 63q0 31 -5.5 64t-18.5 62t-37.5 46.5t-62.5 17.5
q-37 0 -61.5 -18t-39 -47t-20.5 -62.5t-6 -62.5t5.5 -62t19.5 -62.5t38 -47.5t60 -18zM348 496q38 -15 63 -2t36 45t6 74h106q2 -37 -9.5 -74t-37.5 -65.5t-66.5 -39.5t-97.5 2v60z" />
    <glyph glyph-name="Uhorn" unicode="&#x1af;" horiz-adv-x="707" 
d="M193 730v-486q0 -80 42.5 -128t125.5 -48q57 0 96.5 23t60 64.5t20.5 97.5v477h92v-464q0 -92 -34 -154t-96.5 -93t-146.5 -31q-131 0 -203 69.5t-72 200.5v408l-15 64h130zM538 737q48 -15 77.5 1t41 51t6.5 77h106q4 -37 -7 -76.5t-38.5 -70.5t-73 -44.5t-112.5 -0.5
v63z" />
    <glyph glyph-name="uhorn" unicode="&#x1b0;" horiz-adv-x="553" 
d="M225 -13q-56 0 -89 22.5t-47.5 62t-14.5 91.5v277l-12 57h112v-310q0 -26 4.5 -53.5t20.5 -45.5t50 -18q33 0 61 14t45 40t17 60v256l-12 57h112v-385q0 -11 1 -21t6.5 -16.5t15.5 -6.5q4 0 13.5 2.5t19.5 6t14 4.5l19 -61q-25 -7 -52 -18t-53 -11q-31 0 -49.5 20
t-24.5 48q-30 -31 -71 -51.5t-86 -20.5zM373 446l36 51q38 0 56.5 36.5t11.5 88.5h106q3 -37 -8.5 -74t-37.5 -65t-66.5 -39t-97.5 2z" />
    <glyph glyph-name="uni01C4" unicode="&#x1c4;" horiz-adv-x="1270" 
d="M664 363q0 -105 -38.5 -187t-114 -129t-186.5 -47h-247v666q0 1 -3.5 15.5t-7 30t-4.5 18.5h225q88 0 157.5 -23t118.5 -69t74.5 -114.5t25.5 -160.5zM546 363q0 67 -16 120t-49 90t-83 56t-118 19h-90v-566h125q85 0 135.5 39t73 103t22.5 139zM748 730h482v-70
l-370 -578h385l-10 -82h-510v73l366 575h-343v82zM986 855l69 54h75l-100 -130h-89l-103 131h77z" />
    <glyph glyph-name="uni01C5" unicode="&#x1c5;" horiz-adv-x="1144" 
d="M664 363q0 -105 -38.5 -187t-114 -129t-186.5 -47h-247v666q0 1 -3.5 15.5t-7 30t-4.5 18.5h225q88 0 157.5 -23t118.5 -69t74.5 -114.5t25.5 -160.5zM546 363q0 67 -16 120t-49 90t-83 56t-118 19h-90v-566h125q85 0 135.5 39t73 103t22.5 139zM749 497h356v-54
l-249 -372h262l-12 -71h-381v53l247 372h-223v72zM930 655l69 74h75l-100 -150h-89l-103 151h77z" />
    <glyph glyph-name="uni01C6" unicode="&#x1c6;" horiz-adv-x="1003" 
d="M264 508q31 0 64 -9.5t56 -29.5q-1 16 -1 29v28v182l-15 57h113v-622q0 -21 2.5 -47t9 -50.5t16.5 -43.5l-102 -11q-6 16 -10.5 32t-6.5 33q-24 -33 -63.5 -51t-79.5 -18q-53 0 -92 22t-65 59.5t-39 83t-13 92.5q0 53 14 100.5t42 84.5t70.5 58t99.5 21zM270 433
q-37 0 -61 -17t-38.5 -44.5t-20.5 -59.5t-6 -62q0 -31 6.5 -63t22 -59.5t41 -44t62.5 -16.5q31 0 59.5 18.5t47.5 41.5v166q0 37 -11 69t-36 51.5t-66 19.5zM608 497h356v-54l-249 -372h262l-12 -71h-381v53l247 372h-223v72zM789 655l69 74h75l-100 -150h-89l-103 151h77z
" />
    <glyph glyph-name="uni01C7" unicode="&#x1c7;" horiz-adv-x="782" 
d="M64 730h126v-648h298v-82h-410v666zM579 730h126v-653q0 -57 -7.5 -107t-29 -89t-61.5 -62.5t-107 -28.5l-15 66q38 5 60 24.5t32.5 47.5t13 60.5t2.5 63.5v614z" />
    <glyph glyph-name="uni01C8" unicode="&#x1c8;" horiz-adv-x="765" 
d="M64 730h126v-648h298v-82h-410v666zM707 670q0 -28 -19.5 -48t-47.5 -20t-48 20t-20 48t20 47.5t48 19.5t47.5 -19.5t19.5 -47.5zM689 497v-455q0 -42 -5.5 -86.5t-21 -83.5t-46.5 -65.5t-83 -32.5l-17 46q37 20 52.5 54t18.5 74t3 76v417l-13 56h112z" />
    <glyph glyph-name="uni01C9" unicode="&#x1c9;" horiz-adv-x="502" 
d="M175 765v-765h-100v709l-12 56h112zM444 670q0 -28 -19.5 -48t-47.5 -20t-48 20t-20 48t20 47.5t48 19.5t47.5 -19.5t19.5 -47.5zM426 497v-455q0 -42 -5.5 -86.5t-21 -83.5t-46.5 -65.5t-83 -32.5l-17 46q37 20 52.5 54t18.5 74t3 76v417l-13 56h112z" />
    <glyph glyph-name="uni01CA" unicode="&#x1ca;" horiz-adv-x="982" 
d="M205 729l305 -467q10 -15 20 -31t20 -31q-1 18 -2.5 36t-1.5 36v457h91v-734h-80l-353 540q-9 15 -19 30.5t-20 29.5q2 -16 3 -32.5t1 -33.5v-529h-91v665l-14 64h141zM779 730h126v-653q0 -57 -7.5 -107t-29 -89t-61.5 -62.5t-107 -28.5l-15 66q38 5 60 24.5t32.5 47.5
t13 60.5t2.5 63.5v614z" />
    <glyph glyph-name="uni01CB" unicode="&#x1cb;" horiz-adv-x="965" 
d="M205 729l305 -467q10 -15 20 -31t20 -31q-1 18 -2.5 36t-1.5 36v457h91v-734h-80l-353 540q-9 15 -19 30.5t-20 29.5q2 -16 3 -32.5t1 -33.5v-529h-91v665l-14 64h141zM907 670q0 -28 -19.5 -48t-47.5 -20t-48 20t-20 48t20 47.5t48 19.5t47.5 -19.5t19.5 -47.5zM889 497
v-455q0 -42 -5.5 -86.5t-21 -83.5t-46.5 -65.5t-83 -32.5l-17 46q37 20 52.5 54t18.5 74t3 76v417l-13 56h112z" />
    <glyph glyph-name="uni01CC" unicode="&#x1cc;" horiz-adv-x="798" 
d="M151 506q7 -16 11.5 -33.5t6.5 -34.5q30 29 71 50.5t83 21.5q56 0 89 -22.5t47 -62t14 -91.5v-334h-98v313q0 28 -4 54t-20 43t-51 17q-21 0 -44.5 -9.5t-44 -23t-36.5 -28.5v-366h-98v354q0 19 -2.5 45.5t-9.5 52t-20 41.5zM740 670q0 -28 -19.5 -48t-47.5 -20t-48 20
t-20 48t20 47.5t48 19.5t47.5 -19.5t19.5 -47.5zM722 497v-455q0 -42 -5.5 -86.5t-21 -83.5t-46.5 -65.5t-83 -32.5l-17 46q37 20 52.5 54t18.5 74t3 76v417l-13 56h112z" />
    <glyph glyph-name="uni01CD" unicode="&#x1cd;" horiz-adv-x="631" 
d="M365 730l255 -730h-122l-79 233h-230l-80 -233h-98l256 730h98zM305 586l-89 -272h176zM315 855l69 54h75l-100 -130h-89l-103 131h77z" />
    <glyph glyph-name="uni01CE" unicode="&#x1ce;" horiz-adv-x="494" 
d="M253 509q80 0 121.5 -42t41.5 -121v-237q0 -24 8.5 -32.5t20.5 -8.5q9 0 19 2.5t19 6.5l19 -60q-19 -11 -45 -18.5t-50 -7.5q-31 0 -52.5 15t-27.5 53q-29 -34 -67.5 -52t-82.5 -18q-59 0 -99 34.5t-40 95.5q0 55 26.5 89.5t69.5 52t91.5 24t91.5 6.5v58q0 28 -7 47
t-24.5 29.5t-46.5 10.5q-36 0 -71 -16.5t-66 -41.5l-44 67q42 32 92.5 48t102.5 16zM317 219q-24 0 -54.5 -2.5t-58.5 -11t-46 -27.5t-18 -52q0 -29 21 -43.5t49 -14.5q33 0 56.5 18.5t37 46.5t13.5 58v28zM251 655l69 74h75l-100 -150h-89l-103 151h77z" />
    <glyph glyph-name="uni01CF" unicode="&#x1cf;" horiz-adv-x="268" 
d="M64 730h126v-730h-112v666q0 1 -3.5 15.5t-6.5 30t-4 18.5zM135 855l69 54h75l-100 -130h-89l-103 131h77z" />
    <glyph glyph-name="uni01D0" unicode="&#x1d0;" horiz-adv-x="252" 
d="M76 440q0 1 -3 14t-5.5 26.5t-3.5 16.5h111v-497h-99v440zM131 655l69 74h75l-100 -150h-89l-103 151h77z" />
    <glyph glyph-name="uni01D1" unicode="&#x1d1;" horiz-adv-x="737" 
d="M367 -11q-83 0 -145 29.5t-103.5 81.5t-62.5 120t-21 145t20.5 145t62.5 119.5t104.5 81t145.5 29.5t146 -29t104.5 -81t62.5 -120t21 -146t-21.5 -146t-64 -119.5t-105 -80.5t-144.5 -29zM369 68q61 0 102.5 26t66 69t35.5 95t11 104t-10.5 104.5t-35.5 96t-67 70.5
t-103 27t-102.5 -26t-65.5 -69.5t-35 -95.5t-11 -103q0 -52 11 -104.5t35 -96t66 -70.5t103 -27zM370 855l69 54h75l-100 -130h-89l-103 131h77z" />
    <glyph glyph-name="uni01D2" unicode="&#x1d2;" horiz-adv-x="537" 
d="M265 -13q-74 0 -125 36t-77.5 94.5t-26.5 127.5q0 52 16 99.5t46.5 84.5t74 58.5t98.5 21.5q75 0 126 -35t77 -94t26 -129q0 -52 -16 -99.5t-45.5 -84t-73.5 -58.5t-100 -22zM266 58q37 0 62 18t39.5 47t20.5 62t6 63q0 31 -5.5 64t-18.5 62t-37.5 46.5t-62.5 17.5
q-37 0 -61.5 -18t-39 -47t-20.5 -62.5t-6 -62.5t5.5 -62t19.5 -62.5t38 -47.5t60 -18zM272 655l69 74h75l-100 -150h-89l-103 151h77z" />
    <glyph glyph-name="uni01D3" unicode="&#x1d3;" horiz-adv-x="707" 
d="M193 730v-486q0 -80 42.5 -128t125.5 -48q57 0 96.5 23t60 64.5t20.5 97.5v477h92v-464q0 -92 -34 -154t-96.5 -93t-146.5 -31q-131 0 -203 69.5t-72 200.5v408l-15 64h130zM363 855l69 54h75l-100 -130h-89l-103 131h77z" />
    <glyph glyph-name="uni01D4" unicode="&#x1d4;" horiz-adv-x="553" 
d="M174 497v-310q0 -26 4.5 -53.5t20.5 -45.5t50 -18q33 0 61 14t45 40t17 60v256q0 1 -3 14t-5.5 27t-3.5 16h112v-387q0 -22 7 -32t22 -10q14 0 38 9l19 -60q-21 -11 -46.5 -18.5t-49.5 -7.5q-28 0 -50.5 15t-29.5 53q-30 -31 -71 -51.5t-86 -20.5q-56 0 -89 22.5
t-47.5 62t-14.5 91.5v277l-12 57h112zM280 655l69 74h75l-100 -150h-89l-103 151h77z" />
    <glyph glyph-name="uni01D5" unicode="&#x1d5;" horiz-adv-x="707" 
d="M193 730v-486q0 -80 42.5 -128t125.5 -48q57 0 96.5 23t60 64.5t20.5 97.5v477h92v-464q0 -92 -34 -154t-96.5 -93t-146.5 -31q-131 0 -203 69.5t-72 200.5v408l-15 64h130zM213 1020h300v-68h-300v68zM338 844q0 -24 -17.5 -41.5t-41.5 -17.5q-25 0 -42 17.5t-17 41.5
q0 25 17 42.5t41 17.5q25 0 42.5 -17.5t17.5 -42.5zM504 844q0 -24 -17.5 -41.5t-42.5 -17.5q-23 0 -41 18t-18 42t18 41.5t41 17.5q25 0 42.5 -17.5t17.5 -42.5z" />
    <glyph glyph-name="uni01D6" unicode="&#x1d6;" horiz-adv-x="553" 
d="M174 497v-310q0 -26 4.5 -53.5t20.5 -45.5t50 -18q33 0 61 14t45 40t17 60v256q0 1 -3 14t-5.5 27t-3.5 16h112v-387q0 -22 7 -32t22 -10q14 0 38 9l19 -60q-21 -11 -46.5 -18.5t-49.5 -7.5q-28 0 -50.5 15t-29.5 53q-30 -31 -71 -51.5t-86 -20.5q-56 0 -89 22.5
t-47.5 62t-14.5 91.5v277l-12 57h112zM124 831h300v-68h-300v68zM249 655q0 -24 -17.5 -42t-41.5 -18q-25 0 -42 18t-17 42t17 41.5t41 17.5q25 0 42.5 -17t17.5 -42zM415 655q0 -24 -17.5 -42t-42.5 -18q-23 0 -41 18t-18 42t18 41.5t41 17.5q25 0 42.5 -17t17.5 -42z" />
    <glyph glyph-name="uni01D7" unicode="&#x1d7;" horiz-adv-x="707" 
d="M193 730v-486q0 -80 42.5 -128t125.5 -48q57 0 96.5 23t60 64.5t20.5 97.5v477h92v-464q0 -92 -34 -154t-96.5 -93t-146.5 -31q-131 0 -203 69.5t-72 200.5v408l-15 64h130zM383 1060h121l-104 -118h-79zM337 844q0 -24 -17.5 -42t-41.5 -18t-41.5 18t-17.5 42t17.5 41.5
t41.5 17.5q25 0 42 -17t17 -42zM504 844q0 -24 -18 -42t-42 -18t-41.5 18t-17.5 42t17.5 41.5t41.5 17.5q25 0 42.5 -17t17.5 -42z" />
    <glyph glyph-name="uni01D8" unicode="&#x1d8;" horiz-adv-x="553" 
d="M174 497v-310q0 -26 4.5 -53.5t20.5 -45.5t50 -18q33 0 61 14t45 40t17 60v256q0 1 -3 14t-5.5 27t-3.5 16h112v-387q0 -22 7 -32t22 -10q14 0 38 9l19 -60q-21 -11 -46.5 -18.5t-49.5 -7.5q-28 0 -50.5 15t-29.5 53q-30 -31 -71 -51.5t-86 -20.5q-56 0 -89 22.5
t-47.5 62t-14.5 91.5v277l-12 57h112zM300 872h122l-105 -118h-78zM249 655q0 -24 -17.5 -42t-41.5 -18t-41.5 18t-17.5 42t17.5 41.5t41.5 17.5q25 0 42 -17t17 -42zM416 655q0 -24 -18 -42t-42 -18t-41.5 18t-17.5 42t17.5 41.5t41.5 17.5q25 0 42.5 -17t17.5 -42z" />
    <glyph glyph-name="uni01D9" unicode="&#x1d9;" horiz-adv-x="707" 
d="M193 730v-486q0 -80 42.5 -128t125.5 -48q57 0 96.5 23t60 64.5t20.5 97.5v477h92v-464q0 -92 -34 -154t-96.5 -93t-146.5 -31q-131 0 -203 69.5t-72 200.5v408l-15 64h130zM338 844q0 -24 -18 -42t-42 -18t-41.5 18t-17.5 42t17.5 41.5t41.5 17.5q25 0 42.5 -17
t17.5 -42zM504 844q0 -24 -18 -42t-42 -18t-41.5 18t-17.5 42t17.5 41.5t41.5 17.5q25 0 42.5 -17t17.5 -42zM364 1012l69 54h75l-99 -130h-90l-103 130h77z" />
    <glyph glyph-name="uni01DA" unicode="&#x1da;" horiz-adv-x="553" 
d="M174 497v-310q0 -26 4.5 -53.5t20.5 -45.5t50 -18q33 0 61 14t45 40t17 60v256q0 1 -3 14t-5.5 27t-3.5 16h112v-387q0 -22 7 -32t22 -10q14 0 38 9l19 -60q-21 -11 -46.5 -18.5t-49.5 -7.5q-28 0 -50.5 15t-29.5 53q-30 -31 -71 -51.5t-86 -20.5q-56 0 -89 22.5
t-47.5 62t-14.5 91.5v277l-12 57h112zM276 835l69 74h75l-100 -150h-89l-103 151h77zM250 655q0 -24 -18 -42t-42 -18t-41.5 18t-17.5 42t17.5 41.5t41.5 17.5q25 0 42.5 -17t17.5 -42zM416 655q0 -24 -18 -42t-42 -18t-41.5 18t-17.5 42t17.5 41.5t41.5 17.5q25 0 42.5 -17
t17.5 -42z" />
    <glyph glyph-name="uni01DB" unicode="&#x1db;" horiz-adv-x="707" 
d="M193 730v-486q0 -80 42.5 -128t125.5 -48q57 0 96.5 23t60 64.5t20.5 97.5v477h92v-464q0 -92 -34 -154t-96.5 -93t-146.5 -31q-131 0 -203 69.5t-72 200.5v408l-15 64h130zM341 1060l61 -118h-78l-105 118h122zM386 844q0 25 17 42t42 17t42 -17.5t17 -41.5t-17.5 -42
t-41.5 -18t-41.5 18t-17.5 42zM219 844q0 25 17.5 42t42.5 17t42 -17.5t17 -41.5t-17 -42t-42 -18q-24 0 -42 18t-18 42z" />
    <glyph glyph-name="uni01DC" unicode="&#x1dc;" horiz-adv-x="553" 
d="M174 497v-310q0 -26 4.5 -53.5t20.5 -45.5t50 -18q33 0 61 14t45 40t17 60v256q0 1 -3 14t-5.5 27t-3.5 16h112v-387q0 -22 7 -32t22 -10q14 0 38 9l19 -60q-21 -11 -46.5 -18.5t-49.5 -7.5q-28 0 -50.5 15t-29.5 53q-30 -31 -71 -51.5t-86 -20.5q-56 0 -89 22.5
t-47.5 62t-14.5 91.5v277l-12 57h112zM247 872l61 -118h-78l-105 118h122zM297 655q0 25 17.5 42t42.5 17q24 0 41.5 -17.5t17.5 -41.5t-17.5 -42t-41.5 -18t-42 18t-18 42zM131 655q0 25 17.5 42t42.5 17q24 0 41.5 -17.5t17.5 -41.5t-17.5 -42t-41.5 -18t-42 18t-18 42z
" />
    <glyph glyph-name="Gcaron" unicode="&#x1e6;" horiz-adv-x="707" 
d="M386 741q39 0 85 -8.5t89.5 -26.5t71.5 -47l-61 -70q-31 24 -57.5 39.5t-56 23t-71.5 7.5q-64 0 -108.5 -24t-71.5 -66t-39.5 -94.5t-12.5 -108.5q0 -52 11.5 -103.5t37 -95t67.5 -69.5t102 -26q51 0 88 21.5t58 59.5t21 88v64h-168l13 76h268l-1 -198q-1 -46 2 -92
t5 -91h-59l-33 76q-46 -47 -96 -67.5t-117 -20.5q-80 0 -139.5 29.5t-99 80.5t-59 117.5t-19.5 141.5q0 82 22.5 152t66.5 122t109.5 81t151.5 29zM363 855l69 54h75l-100 -130h-89l-103 131h77z" />
    <glyph glyph-name="gcaron" unicode="&#x1e7;" horiz-adv-x="477" 
d="M219 510q30 0 55.5 -7t53.5 -7q40 0 82 4t85 9l-20 -76h-82q-6 0 -13 1t-13 2q16 -22 24.5 -45.5t8.5 -49.5q0 -51 -24 -90.5t-67 -61.5t-100 -22q-22 0 -39 -13t-17 -37q0 -16 10.5 -23.5t26.5 -9t33 -1.5h75q28 0 57.5 -3t53.5 -14t39.5 -32.5t15.5 -58.5
q0 -54 -23.5 -93t-61.5 -64t-85 -36.5t-94 -11.5q-29 0 -61.5 6t-61.5 20t-47 38t-18 62q0 40 25 71t57 50v3q-20 9 -33 28.5t-13 41.5q0 12 10.5 23t26.5 29.5t35 51.5q-38 23 -60 60.5t-22 83.5q0 50 24.5 89t66.5 61t90 22zM219 444q-22 0 -40 -14.5t-28 -38.5t-10 -54
t10 -54t27.5 -38.5t40.5 -14.5q36 0 57.5 30t21.5 76q0 31 -10.5 55t-28 38.5t-40.5 14.5zM163 -1q-19 -12 -34.5 -36t-15.5 -48q0 -23 17 -39t40.5 -23t44.5 -7q25 0 52.5 4.5t51 16t38 31.5t14.5 49q0 25 -16 36t-39.5 13.5t-44.5 2.5h-108zM239 655l69 74h75l-100 -150
h-89l-103 151h77z" />
    <glyph glyph-name="uni01EA" unicode="&#x1ea;" horiz-adv-x="737" 
d="M367 -11q-83 0 -145 29.5t-103.5 81.5t-62.5 120t-21 145t20.5 145t62.5 119.5t104.5 81t145.5 29.5t146 -29t104.5 -81t62.5 -120t21 -146t-21.5 -146t-64 -119.5t-105 -80.5t-144.5 -29zM369 68q61 0 102.5 26t66 69t35.5 95t11 104t-10.5 104.5t-35.5 96t-67 70.5
t-103 27t-102.5 -26t-65.5 -69.5t-35 -95.5t-11 -103q0 -52 11 -104.5t35 -96t66 -70.5t103 -27zM521 -153q-29 -23 -63.5 -38t-73.5 -15q-41 0 -70 22t-29 66q0 29 20 54t50.5 44.5t62.5 31.5t57 16l26 -14q-17 -8 -38.5 -19.5t-41.5 -26t-33.5 -32t-13.5 -38.5t13 -31.5
t33 -10.5q19 0 42.5 12t39.5 22z" />
    <glyph glyph-name="uni01EB" unicode="&#x1eb;" horiz-adv-x="537" 
d="M265 -13q-74 0 -125 36t-77.5 94.5t-26.5 127.5q0 52 16 99.5t46.5 84.5t74 58.5t98.5 21.5q75 0 126 -35t77 -94t26 -129q0 -52 -16 -99.5t-45.5 -84t-73.5 -58.5t-100 -22zM266 58q37 0 62 18t39.5 47t20.5 62t6 63q0 31 -5.5 64t-18.5 62t-37.5 46.5t-62.5 17.5
q-37 0 -61.5 -18t-39 -47t-20.5 -62.5t-6 -62.5t5.5 -62t19.5 -62.5t38 -47.5t60 -18zM397 -153q-29 -23 -63.5 -38t-73.5 -15q-41 0 -70 22t-29 66q0 29 20 54t50.5 44.5t62.5 31.5t57 16l26 -14q-17 -8 -38.5 -19.5t-41.5 -26t-33.5 -32t-13.5 -38.5t13 -31.5t33 -10.5
q19 0 42.5 12t39.5 22z" />
    <glyph glyph-name="Aringacute" unicode="&#x1fa;" horiz-adv-x="631" 
d="M365 730l255 -730h-122l-79 233h-230l-80 -233h-98l256 730h98zM305 586l-89 -272h176zM314 995q29 0 52 -14t37 -37t14 -52q0 -41 -30 -71.5t-73 -30.5q-41 0 -71.5 30.5t-30.5 71.5q0 28 14 52t37 37.5t51 13.5zM314 937q-19 0 -32 -13t-13 -32t13 -32t32 -13t32 13.5
t13 31.5q0 19 -13 32t-32 13zM365 1151h101l-122 -117h-60z" />
    <glyph glyph-name="aringacute" unicode="&#x1fb;" horiz-adv-x="494" 
d="M253 509q80 0 121.5 -42t41.5 -121v-237q0 -24 8.5 -32.5t20.5 -8.5q9 0 19 2.5t19 6.5l19 -60q-19 -11 -45 -18.5t-50 -7.5q-31 0 -52.5 15t-27.5 53q-29 -34 -67.5 -52t-82.5 -18q-59 0 -99 34.5t-40 95.5q0 55 26.5 89.5t69.5 52t91.5 24t91.5 6.5v58q0 28 -7 47
t-24.5 29.5t-46.5 10.5q-36 0 -71 -16.5t-66 -41.5l-44 67q42 32 92.5 48t102.5 16zM317 219q-24 0 -54.5 -2.5t-58.5 -11t-46 -27.5t-18 -52q0 -29 21 -43.5t49 -14.5q33 0 56.5 18.5t37 46.5t13.5 58v28zM244 763q29 0 52 -14t37 -37.5t14 -51.5q0 -42 -30 -72.5
t-73 -30.5q-41 0 -71.5 30.5t-30.5 72.5q0 28 14 51.5t37 37.5t51 14zM244 704q-19 0 -32 -13t-13 -32q0 -18 13 -31t32 -13t32 13t13 31q0 19 -13 32t-32 13zM291 949h108l-124 -137h-65z" />
    <glyph glyph-name="AEacute" unicode="&#x1fc;" horiz-adv-x="849" 
d="M412 232h-194l-111 -232h-101l317 666l-14 64h497v-81h-283v-232h235v-84h-235v-250h283v-83h-394v232zM258 315h154v323zM524 967h132l-145 -158h-88z" />
    <glyph glyph-name="aeacute" unicode="&#x1fd;" horiz-adv-x="774" 
d="M38 119q0 55 26.5 89.5t69.5 52t91.5 24t91.5 6.5v58q0 28 -7 47t-24.5 29.5t-46.5 10.5q-24 0 -49 -7.5t-47.5 -20.5t-40.5 -30l-44 67q42 32 92.5 48t102.5 16q47 0 84.5 -15.5t58.5 -44.5q29 28 67 44.5t85 16.5q64 0 106 -27t63.5 -72t21.5 -101q0 -15 -2 -31t-5 -32
h-311q0 -51 17 -93t48 -67t73 -25q32 0 67 14t59 35l43 -68q-23 -19 -52.5 -31.5t-60 -18t-59.5 -5.5q-70 0 -119.5 28t-79.5 76q-34 -59 -81 -81t-99 -22q-59 0 -99 34.5t-40 95.5zM140 126q0 -29 21 -43.5t49 -14.5q33 0 56.5 18.5t37 46.5t13.5 58v28q-24 0 -54.5 -2.5
t-58.5 -11t-46 -27.5t-18 -52zM426 316h210q3 56 -22 89.5t-72 33.5q-34 0 -58.5 -18.5t-39 -47t-18.5 -57.5zM450 734h132l-144 -158h-89z" />
    <glyph glyph-name="Oslashacute" unicode="&#x1fe;" horiz-adv-x="737" 
d="M367 -11q-83 0 -145 29.5t-103.5 81.5t-62.5 120t-21 145t20.5 145t62.5 119.5t104.5 81t145.5 29.5t146 -29t104.5 -81t62.5 -120t21 -146t-21.5 -146t-64 -119.5t-105 -80.5t-144.5 -29zM369 68q61 0 102.5 26t66 69t35.5 95t11 104t-10.5 104.5t-35.5 96t-67 70.5
t-103 27t-102.5 -26t-65.5 -69.5t-35 -95.5t-11 -103q0 -52 11 -104.5t35 -96t66 -70.5t103 -27zM137 -55l-59 37l518 795l60 -36zM426 913h133l-145 -137h-89z" />
    <glyph glyph-name="oslashacute" unicode="&#x1ff;" horiz-adv-x="537" 
d="M265 -13q-74 0 -125 36t-77.5 94.5t-26.5 127.5q0 52 16 99.5t46.5 84.5t74 58.5t98.5 21.5q75 0 126 -35t77 -94t26 -129q0 -52 -16 -99.5t-45.5 -84t-73.5 -58.5t-100 -22zM266 58q37 0 62 18t39.5 47t20.5 62t6 63q0 31 -5.5 64t-18.5 62t-37.5 46.5t-62.5 17.5
q-37 0 -61.5 -18t-39 -47t-20.5 -62.5t-6 -62.5t5.5 -62t19.5 -62.5t38 -47.5t60 -18zM106 -70l-54 35l377 608l57 -31zM322 734h132l-144 -158h-89z" />
    <glyph glyph-name="uni0200" unicode="&#x200;" horiz-adv-x="631" 
d="M365 730l255 -730h-122l-79 233h-230l-80 -233h-98l256 730h98zM305 586l-89 -272h176zM351 913l76 -137h-75l-126 137h125zM203 913l76 -137h-75l-126 137h125z" />
    <glyph glyph-name="uni0201" unicode="&#x201;" horiz-adv-x="494" 
d="M253 509q80 0 121.5 -42t41.5 -121v-237q0 -24 8.5 -32.5t20.5 -8.5q9 0 19 2.5t19 6.5l19 -60q-19 -11 -45 -18.5t-50 -7.5q-31 0 -52.5 15t-27.5 53q-29 -34 -67.5 -52t-82.5 -18q-59 0 -99 34.5t-40 95.5q0 55 26.5 89.5t69.5 52t91.5 24t91.5 6.5v58q0 28 -7 47
t-24.5 29.5t-46.5 10.5q-36 0 -71 -16.5t-66 -41.5l-44 67q42 32 92.5 48t102.5 16zM317 219q-24 0 -54.5 -2.5t-58.5 -11t-46 -27.5t-18 -52q0 -29 21 -43.5t49 -14.5q33 0 56.5 18.5t37 46.5t13.5 58v28zM281 734l76 -158h-75l-126 158h125zM133 734l76 -158h-75l-126 158
h125z" />
    <glyph glyph-name="uni0202" unicode="&#x202;" horiz-adv-x="631" 
d="M365 730l255 -730h-122l-79 233h-230l-80 -233h-98l256 730h98zM305 586l-89 -272h176zM170 781q5 36 21.5 64.5t47 46t77.5 17.5t76.5 -17.5t46 -46.5t19.5 -64h-57q-7 22 -29 36t-58 14t-57.5 -14t-29.5 -36h-57z" />
    <glyph glyph-name="uni0203" unicode="&#x203;" horiz-adv-x="494" 
d="M253 509q80 0 121.5 -42t41.5 -121v-237q0 -24 8.5 -32.5t20.5 -8.5q9 0 19 2.5t19 6.5l19 -60q-19 -11 -45 -18.5t-50 -7.5q-31 0 -52.5 15t-27.5 53q-29 -34 -67.5 -52t-82.5 -18q-59 0 -99 34.5t-40 95.5q0 55 26.5 89.5t69.5 52t91.5 24t91.5 6.5v58q0 28 -7 47
t-24.5 29.5t-46.5 10.5q-36 0 -71 -16.5t-66 -41.5l-44 67q42 32 92.5 48t102.5 16zM317 219q-24 0 -54.5 -2.5t-58.5 -11t-46 -27.5t-18 -52q0 -29 21 -43.5t49 -14.5q33 0 56.5 18.5t37 46.5t13.5 58v28zM100 582q5 44 22 77.5t48 52t79 18.5q46 0 75 -19t44.5 -52.5
t19.5 -76.5h-57q-7 35 -29 52.5t-58 17.5t-57.5 -18t-29.5 -52h-57z" />
    <glyph glyph-name="uni0204" unicode="&#x204;" horiz-adv-x="549" 
d="M64 730h446v-82h-320v-232h247v-81h-247v-253h320v-82h-432v666zM337 913l76 -137h-75l-126 137h125zM189 913l76 -137h-75l-126 137h125z" />
    <glyph glyph-name="uni0205" unicode="&#x205;" horiz-adv-x="494" 
d="M268 510q64 0 106.5 -27t63 -72t20.5 -101q0 -15 -1.5 -31t-4.5 -32h-311q0 -89 40 -137t107 -48q29 0 61 9.5t67 28.5l32 -57q-35 -28 -82 -41.5t-91 -13.5q-58 0 -103 20t-75 55.5t-45.5 82t-15.5 98.5q0 51 15 98.5t44.5 85.5t72.5 60t100 22zM261 439
q-33 0 -57.5 -18.5t-39 -47t-18.5 -57.5h209q3 36 -7.5 64t-32.5 43.5t-54 15.5zM302 734l76 -158h-75l-126 158h125zM154 734l76 -158h-75l-126 158h125z" />
    <glyph glyph-name="uni0206" unicode="&#x206;" horiz-adv-x="549" 
d="M64 730h446v-82h-320v-232h247v-81h-247v-253h320v-82h-432v666zM155 781q5 36 21.5 64.5t47 46t77.5 17.5t76.5 -17.5t46 -46.5t19.5 -64h-57q-7 22 -29 36t-58 14t-57.5 -14t-29.5 -36h-57z" />
    <glyph glyph-name="uni0207" unicode="&#x207;" horiz-adv-x="494" 
d="M268 510q64 0 106.5 -27t63 -72t20.5 -101q0 -15 -1.5 -31t-4.5 -32h-311q0 -89 40 -137t107 -48q29 0 61 9.5t67 28.5l32 -57q-35 -28 -82 -41.5t-91 -13.5q-58 0 -103 20t-75 55.5t-45.5 82t-15.5 98.5q0 51 15 98.5t44.5 85.5t72.5 60t100 22zM261 439
q-33 0 -57.5 -18.5t-39 -47t-18.5 -57.5h209q3 36 -7.5 64t-32.5 43.5t-54 15.5zM121 582q5 44 22 77.5t48 52t79 18.5q46 0 75 -19t44.5 -52.5t19.5 -76.5h-57q-7 35 -29 52.5t-58 17.5t-57.5 -18t-29.5 -52h-57z" />
    <glyph glyph-name="uni0208" unicode="&#x208;" horiz-adv-x="268" 
d="M64 730h126v-730h-112v666q0 1 -3.5 15.5t-6.5 30t-4 18.5zM171 913l76 -137h-75l-126 137h125zM23 913l76 -137h-75l-126 137h125z" />
    <glyph glyph-name="uni0209" unicode="&#x209;" horiz-adv-x="252" 
d="M76 440q0 1 -3 14t-5.5 26.5t-3.5 16.5h111v-497h-99v440zM161 734l76 -158h-75l-126 158h125zM13 734l76 -158h-75l-126 158h125z" />
    <glyph glyph-name="uni020A" unicode="&#x20a;" horiz-adv-x="268" 
d="M64 730h126v-730h-112v666q0 1 -3.5 15.5t-6.5 30t-4 18.5zM-10 781q5 36 21.5 64.5t47 46t77.5 17.5t76.5 -17.5t46 -46.5t19.5 -64h-57q-7 22 -29 36t-58 14t-57.5 -14t-29.5 -36h-57z" />
    <glyph glyph-name="uni020B" unicode="&#x20b;" horiz-adv-x="252" 
d="M76 440q0 1 -3 14t-5.5 26.5t-3.5 16.5h111v-497h-99v440zM-19 582q5 44 22 77.5t48 52t79 18.5q46 0 75 -19t44.5 -52.5t19.5 -76.5h-57q-7 35 -29 52.5t-58 17.5t-57.5 -18t-29.5 -52h-57z" />
    <glyph glyph-name="uni020C" unicode="&#x20c;" horiz-adv-x="737" 
d="M367 -11q-83 0 -145 29.5t-103.5 81.5t-62.5 120t-21 145t20.5 145t62.5 119.5t104.5 81t145.5 29.5t146 -29t104.5 -81t62.5 -120t21 -146t-21.5 -146t-64 -119.5t-105 -80.5t-144.5 -29zM369 68q61 0 102.5 26t66 69t35.5 95t11 104t-10.5 104.5t-35.5 96t-67 70.5
t-103 27t-102.5 -26t-65.5 -69.5t-35 -95.5t-11 -103q0 -52 11 -104.5t35 -96t66 -70.5t103 -27zM406 913l76 -137h-75l-126 137h125zM258 913l76 -137h-75l-126 137h125z" />
    <glyph glyph-name="uni020D" unicode="&#x20d;" horiz-adv-x="537" 
d="M265 -13q-74 0 -125 36t-77.5 94.5t-26.5 127.5q0 52 16 99.5t46.5 84.5t74 58.5t98.5 21.5q75 0 126 -35t77 -94t26 -129q0 -52 -16 -99.5t-45.5 -84t-73.5 -58.5t-100 -22zM266 58q37 0 62 18t39.5 47t20.5 62t6 63q0 31 -5.5 64t-18.5 62t-37.5 46.5t-62.5 17.5
q-37 0 -61.5 -18t-39 -47t-20.5 -62.5t-6 -62.5t5.5 -62t19.5 -62.5t38 -47.5t60 -18zM302 734l76 -158h-75l-126 158h125zM154 734l76 -158h-75l-126 158h125z" />
    <glyph glyph-name="uni020E" unicode="&#x20e;" horiz-adv-x="737" 
d="M367 -11q-83 0 -145 29.5t-103.5 81.5t-62.5 120t-21 145t20.5 145t62.5 119.5t104.5 81t145.5 29.5t146 -29t104.5 -81t62.5 -120t21 -146t-21.5 -146t-64 -119.5t-105 -80.5t-144.5 -29zM369 68q61 0 102.5 26t66 69t35.5 95t11 104t-10.5 104.5t-35.5 96t-67 70.5
t-103 27t-102.5 -26t-65.5 -69.5t-35 -95.5t-11 -103q0 -52 11 -104.5t35 -96t66 -70.5t103 -27zM225 781q5 36 21.5 64.5t47 46t77.5 17.5t76.5 -17.5t46 -46.5t19.5 -64h-57q-7 22 -29 36t-58 14t-57.5 -14t-29.5 -36h-57z" />
    <glyph glyph-name="uni020F" unicode="&#x20f;" horiz-adv-x="537" 
d="M265 -13q-74 0 -125 36t-77.5 94.5t-26.5 127.5q0 52 16 99.5t46.5 84.5t74 58.5t98.5 21.5q75 0 126 -35t77 -94t26 -129q0 -52 -16 -99.5t-45.5 -84t-73.5 -58.5t-100 -22zM266 58q37 0 62 18t39.5 47t20.5 62t6 63q0 31 -5.5 64t-18.5 62t-37.5 46.5t-62.5 17.5
q-37 0 -61.5 -18t-39 -47t-20.5 -62.5t-6 -62.5t5.5 -62t19.5 -62.5t38 -47.5t60 -18zM122 582q5 44 22 77.5t48 52t79 18.5q46 0 75 -19t44.5 -52.5t19.5 -76.5h-57q-7 35 -29 52.5t-58 17.5t-57.5 -18t-29.5 -52h-57z" />
    <glyph glyph-name="uni0210" unicode="&#x210;" horiz-adv-x="591" 
d="M63 730h231q68 0 124 -18t89 -62t33 -121q0 -41 -20 -78.5t-53.5 -65t-72.5 -39.5l213 -346h-129l-194 327h-95v-327h-112v666zM189 648v-241h73q45 0 81.5 11t58 38t21.5 77q0 39 -19 64t-49.5 38t-66.5 13h-99zM327 913l76 -137h-75l-126 137h125zM179 913l76 -137h-75
l-126 137h125z" />
    <glyph glyph-name="uni0211" unicode="&#x211;" horiz-adv-x="349" 
d="M149 506q20 -46 24 -98q25 42 69.5 70t93.5 28l-20 -101q-46 0 -80 -24t-62 -65v-316h-98v361q0 20 -3 45t-10 49t-19 41zM211 734l76 -158h-75l-126 158h125zM63 734l76 -158h-75l-126 158h125z" />
    <glyph glyph-name="uni0212" unicode="&#x212;" horiz-adv-x="591" 
d="M63 730h231q68 0 124 -18t89 -62t33 -121q0 -41 -20 -78.5t-53.5 -65t-72.5 -39.5l213 -346h-129l-194 327h-95v-327h-112v666zM189 648v-241h73q45 0 81.5 11t58 38t21.5 77q0 39 -19 64t-49.5 38t-66.5 13h-99zM146 781q5 36 21.5 64.5t47 46t77.5 17.5t76.5 -17.5
t46 -46.5t19.5 -64h-57q-7 22 -29 36t-58 14t-57.5 -14t-29.5 -36h-57z" />
    <glyph glyph-name="uni0213" unicode="&#x213;" horiz-adv-x="349" 
d="M149 506q20 -46 24 -98q25 42 69.5 70t93.5 28l-20 -101q-46 0 -80 -24t-62 -65v-316h-98v361q0 20 -3 45t-10 49t-19 41zM31 582q5 44 22 77.5t48 52t79 18.5q46 0 75 -19t44.5 -52.5t19.5 -76.5h-57q-7 35 -29 52.5t-58 17.5t-57.5 -18t-29.5 -52h-57z" />
    <glyph glyph-name="uni0214" unicode="&#x214;" horiz-adv-x="707" 
d="M193 730v-486q0 -80 42.5 -128t125.5 -48q57 0 96.5 23t60 64.5t20.5 97.5v477h92v-464q0 -92 -34 -154t-96.5 -93t-146.5 -31q-131 0 -203 69.5t-72 200.5v408l-15 64h130zM399 913l76 -137h-75l-126 137h125zM251 913l76 -137h-75l-126 137h125z" />
    <glyph glyph-name="uni0215" unicode="&#x215;" horiz-adv-x="553" 
d="M174 497v-310q0 -26 4.5 -53.5t20.5 -45.5t50 -18q33 0 61 14t45 40t17 60v256q0 1 -3 14t-5.5 27t-3.5 16h112v-387q0 -22 7 -32t22 -10q14 0 38 9l19 -60q-21 -11 -46.5 -18.5t-49.5 -7.5q-28 0 -50.5 15t-29.5 53q-30 -31 -71 -51.5t-86 -20.5q-56 0 -89 22.5
t-47.5 62t-14.5 91.5v277l-12 57h112zM310 734l76 -158h-75l-126 158h125zM162 734l76 -158h-75l-126 158h125z" />
    <glyph glyph-name="uni0216" unicode="&#x216;" horiz-adv-x="707" 
d="M193 730v-486q0 -80 42.5 -128t125.5 -48q57 0 96.5 23t60 64.5t20.5 97.5v477h92v-464q0 -92 -34 -154t-96.5 -93t-146.5 -31q-131 0 -203 69.5t-72 200.5v408l-15 64h130zM218 781q5 36 21.5 64.5t47 46t77.5 17.5t76.5 -17.5t46 -46.5t19.5 -64h-57q-7 22 -29 36
t-58 14t-57.5 -14t-29.5 -36h-57z" />
    <glyph glyph-name="uni0217" unicode="&#x217;" horiz-adv-x="553" 
d="M174 497v-310q0 -26 4.5 -53.5t20.5 -45.5t50 -18q33 0 61 14t45 40t17 60v256q0 1 -3 14t-5.5 27t-3.5 16h112v-387q0 -22 7 -32t22 -10q14 0 38 9l19 -60q-21 -11 -46.5 -18.5t-49.5 -7.5q-28 0 -50.5 15t-29.5 53q-30 -31 -71 -51.5t-86 -20.5q-56 0 -89 22.5
t-47.5 62t-14.5 91.5v277l-12 57h112zM129 582q5 44 22 77.5t48 52t79 18.5q46 0 75 -19t44.5 -52.5t19.5 -76.5h-57q-7 35 -29 52.5t-58 17.5t-57.5 -18t-29.5 -52h-57z" />
    <glyph glyph-name="uni0218" unicode="&#x218;" horiz-adv-x="516" 
d="M279 741q53 0 103 -15t93 -42l-56 -75q-29 23 -66.5 36.5t-74.5 13.5q-47 0 -82 -24t-35 -76q0 -30 16.5 -52t43.5 -38.5t59 -31.5q35 -17 72 -35.5t68 -44t50.5 -62t19.5 -90.5q0 -72 -35.5 -120.5t-93 -72.5t-124.5 -24q-57 0 -112 14t-105 42l41 94q34 -30 80.5 -49
t91.5 -19q33 0 64 12.5t52 38.5t21 66q0 41 -20.5 67.5t-53.5 45t-71 36.5q-33 15 -65.5 32.5t-59 40.5t-42.5 55.5t-16 78.5q0 67 34.5 110.5t89 65.5t113.5 22zM262 -72q31 0 48 -22t17 -51q0 -45 -26 -81.5t-61 -62.5l-31 31q11 11 25.5 28.5t14.5 31.5q0 11 -10 19.5
t-20.5 20.5t-10.5 33q0 23 16 38t38 15z" />
    <glyph glyph-name="uni0219" unicode="&#x219;" horiz-adv-x="430" 
d="M242 509q35 0 71.5 -8t65.5 -25l-35 -72q-21 17 -47.5 26t-52.5 9q-32 0 -57 -15t-25 -47q0 -21 10 -35t27.5 -24t37.5 -19q25 -11 50.5 -23t47.5 -29t36 -42t14 -63q0 -52 -26 -86.5t-67.5 -51.5t-89.5 -17q-40 0 -82.5 11t-76.5 31l38 70q25 -17 54.5 -28.5t58.5 -11.5
q34 0 60 17t26 51q0 24 -13.5 39.5t-35.5 27t-47 21.5q-30 14 -59 30.5t-48 43.5t-19 71q0 50 26.5 83t69 49.5t88.5 16.5zM220 -72q31 0 48 -22t17 -51q0 -45 -26 -81.5t-61 -62.5l-31 31q11 11 25.5 28.5t14.5 31.5q0 11 -10 19.5t-20.5 20.5t-10.5 33q0 23 16 38t38 15z
" />
    <glyph glyph-name="uni021A" unicode="&#x21a;" horiz-adv-x="578" 
d="M230 648h-211v82h540v-82h-214v-648h-115v648zM282 -72q31 0 48 -22t17 -51q0 -45 -26 -81.5t-61 -62.5l-31 31q11 11 25.5 28.5t14.5 31.5q0 11 -10 19.5t-20.5 20.5t-10.5 33q0 23 16 38t38 15z" />
    <glyph glyph-name="uni021B" unicode="&#x21b;" horiz-adv-x="327" 
d="M208 640q-7 -34 -12 -71t-7 -72h126l-17 -70h-109v-300q0 -15 3.5 -30.5t14 -24.5t31.5 -9q16 0 32 3t31 7l14 -64q-25 -8 -51.5 -14t-55.5 -6q-64 0 -91 32.5t-27 95.5v310h-78v57q31 1 52 16t35.5 38.5t23.5 50t14 51.5h71zM171 -72q31 0 48 -22t17 -51
q0 -45 -26 -81.5t-61 -62.5l-31 31q11 11 25.5 28.5t14.5 31.5q0 11 -10 19.5t-20.5 20.5t-10.5 33q0 23 16 38t38 15z" />
    <glyph glyph-name="uni022A" unicode="&#x22a;" horiz-adv-x="737" 
d="M367 -11q-83 0 -145 29.5t-103.5 81.5t-62.5 120t-21 145t20.5 145t62.5 119.5t104.5 81t145.5 29.5t146 -29t104.5 -81t62.5 -120t21 -146t-21.5 -146t-64 -119.5t-105 -80.5t-144.5 -29zM369 68q61 0 102.5 26t66 69t35.5 95t11 104t-10.5 104.5t-35.5 96t-67 70.5
t-103 27t-102.5 -26t-65.5 -69.5t-35 -95.5t-11 -103q0 -52 11 -104.5t35 -96t66 -70.5t103 -27zM220 1020h300v-68h-300v68zM345 844q0 -24 -17.5 -41.5t-41.5 -17.5q-25 0 -42 17.5t-17 41.5q0 25 17 42.5t41 17.5q25 0 42.5 -17.5t17.5 -42.5zM511 844q0 -24 -17.5 -41.5
t-42.5 -17.5q-23 0 -41 18t-18 42t18 41.5t41 17.5q25 0 42.5 -17.5t17.5 -42.5z" />
    <glyph glyph-name="uni022B" unicode="&#x22b;" horiz-adv-x="537" 
d="M265 -13q-74 0 -125 36t-77.5 94.5t-26.5 127.5q0 52 16 99.5t46.5 84.5t74 58.5t98.5 21.5q75 0 126 -35t77 -94t26 -129q0 -52 -16 -99.5t-45.5 -84t-73.5 -58.5t-100 -22zM266 58q37 0 62 18t39.5 47t20.5 62t6 63q0 31 -5.5 64t-18.5 62t-37.5 46.5t-62.5 17.5
q-37 0 -61.5 -18t-39 -47t-20.5 -62.5t-6 -62.5t5.5 -62t19.5 -62.5t38 -47.5t60 -18zM117 831h300v-68h-300v68zM242 655q0 -24 -17.5 -42t-41.5 -18q-25 0 -42 18t-17 42t17 41.5t41 17.5q25 0 42.5 -17t17.5 -42zM408 655q0 -24 -17.5 -42t-42.5 -18q-23 0 -41 18t-18 42
t18 41.5t41 17.5q25 0 42.5 -17t17.5 -42z" />
    <glyph glyph-name="uni022C" unicode="&#x22c;" horiz-adv-x="737" 
d="M367 -11q-83 0 -145 29.5t-103.5 81.5t-62.5 120t-21 145t20.5 145t62.5 119.5t104.5 81t145.5 29.5t146 -29t104.5 -81t62.5 -120t21 -146t-21.5 -146t-64 -119.5t-105 -80.5t-144.5 -29zM369 68q61 0 102.5 26t66 69t35.5 95t11 104t-10.5 104.5t-35.5 96t-67 70.5
t-103 27t-102.5 -26t-65.5 -69.5t-35 -95.5t-11 -103q0 -52 11 -104.5t35 -96t66 -70.5t103 -27zM530 892q-1 -26 -12.5 -50.5t-31.5 -40t-50 -15.5q-27 0 -51 10t-45.5 19.5t-44.5 9.5q-13 0 -23 -8t-13 -20h-56q2 28 14 52t33.5 39.5t51.5 15.5q27 0 50.5 -10t44.5 -20
t41 -10q12 0 23.5 7.5t14.5 20.5h54zM212 1020h309v-69h-309v69z" />
    <glyph glyph-name="uni022D" unicode="&#x22d;" horiz-adv-x="537" 
d="M265 -13q-74 0 -125 36t-77.5 94.5t-26.5 127.5q0 52 16 99.5t46.5 84.5t74 58.5t98.5 21.5q75 0 126 -35t77 -94t26 -129q0 -52 -16 -99.5t-45.5 -84t-73.5 -58.5t-100 -22zM266 58q37 0 62 18t39.5 47t20.5 62t6 63q0 31 -5.5 64t-18.5 62t-37.5 46.5t-62.5 17.5
q-37 0 -61.5 -18t-39 -47t-20.5 -62.5t-6 -62.5t5.5 -62t19.5 -62.5t38 -47.5t60 -18zM428 703q-1 -26 -12.5 -50.5t-31.5 -40t-50 -15.5q-27 0 -51 10t-45.5 19.5t-44.5 9.5q-13 0 -23 -8t-13 -20h-56q2 28 14 52t33.5 39.5t51.5 15.5q27 0 50.5 -10t44.5 -20t41 -10
q12 0 23.5 7.5t14.5 20.5h54zM110 831h309v-68h-309v68z" />
    <glyph glyph-name="uni0230" unicode="&#x230;" horiz-adv-x="737" 
d="M367 -11q-83 0 -145 29.5t-103.5 81.5t-62.5 120t-21 145t20.5 145t62.5 119.5t104.5 81t145.5 29.5t146 -29t104.5 -81t62.5 -120t21 -146t-21.5 -146t-64 -119.5t-105 -80.5t-144.5 -29zM369 68q61 0 102.5 26t66 69t35.5 95t11 104t-10.5 104.5t-35.5 96t-67 70.5
t-103 27t-102.5 -26t-65.5 -69.5t-35 -95.5t-11 -103q0 -52 11 -104.5t35 -96t66 -70.5t103 -27zM220 1020h300v-68h-300v68zM428 844q0 -24 -17.5 -41.5t-42.5 -17.5q-24 0 -41.5 18t-17.5 42t17.5 41.5t41.5 17.5q25 0 42.5 -17.5t17.5 -42.5z" />
    <glyph glyph-name="uni0231" unicode="&#x231;" horiz-adv-x="537" 
d="M265 -13q-74 0 -125 36t-77.5 94.5t-26.5 127.5q0 52 16 99.5t46.5 84.5t74 58.5t98.5 21.5q75 0 126 -35t77 -94t26 -129q0 -52 -16 -99.5t-45.5 -84t-73.5 -58.5t-100 -22zM266 58q37 0 62 18t39.5 47t20.5 62t6 63q0 31 -5.5 64t-18.5 62t-37.5 46.5t-62.5 17.5
q-37 0 -61.5 -18t-39 -47t-20.5 -62.5t-6 -62.5t5.5 -62t19.5 -62.5t38 -47.5t60 -18zM117 831h300v-68h-300v68zM325 655q0 -24 -17.5 -42t-42.5 -18q-24 0 -41.5 18t-17.5 42t17.5 41.5t41.5 17.5q25 0 42.5 -17t17.5 -42z" />
    <glyph glyph-name="uni0232" unicode="&#x232;" horiz-adv-x="584" 
d="M148 730l159 -279l154 279h101l-213 -381v-349h-111v349l-215 381h125zM149 879h300v-69h-300v69z" />
    <glyph glyph-name="uni0233" unicode="&#x233;" horiz-adv-x="456" 
d="M113 497q22 -65 45.5 -129.5t45.5 -132.5q8 -26 16 -54.5t16 -55.5q7 27 15 55.5t17 54.5q22 68 45 132.5t45 129.5h92l-177 -499q-11 -34 -29 -72t-42.5 -70.5t-57 -53.5t-73.5 -21h-38v75q5 -1 9 -1h9q40 0 66 24t43 58t27 66l-181 494h107zM78 689h300v-68h-300v68z
" />
    <glyph glyph-name="uni0237" unicode="&#x237;" horiz-adv-x="251" 
d="M175 497v-455q0 -42 -5.5 -86.5t-21 -83.5t-46.5 -65.5t-83 -32.5l-17 46q37 20 52.5 54t18.5 74t3 76v417l-13 56h112z" />
    <glyph glyph-name="uni0259" unicode="&#x259;" horiz-adv-x="494" 
d="M226 -13q-64 0 -106.5 27t-63 72.5t-20.5 100.5q0 16 1.5 31.5t4.5 31.5h311q0 51 -17 93t-47.5 67t-73.5 25q-32 0 -67 -13.5t-59 -35.5l-43 68q24 19 53 31.5t60 18t60 5.5q59 0 103.5 -20t74.5 -55.5t45.5 -82t15.5 -98.5q0 -50 -15 -98t-44.5 -86t-72.5 -60t-100 -22
zM233 58q33 0 57.5 18.5t39.5 47t18 57.5h-209q-3 -56 22 -89.5t72 -33.5z" />
    <glyph glyph-name="uni0272" unicode="&#x272;" horiz-adv-x="546" 
d="M2 -180q37 20 52.5 54t18.5 74t3 76v330q0 19 -3 45.5t-10 52t-19 41.5l106 13q7 -16 11.5 -33.5t6.5 -34.5q30 29 70.5 50.5t82.5 21.5q57 0 89.5 -22.5t47 -62t14.5 -91.5v-334h-99v313q0 28 -4 54t-19.5 43t-51.5 17q-20 0 -43.5 -9.5t-44.5 -23t-36 -28.5v-324
q0 -42 -5 -86.5t-20.5 -83.5t-46.5 -65.5t-83 -32.5z" />
    <glyph glyph-name="uni02B9" unicode="&#x2b9;" horiz-adv-x="273" 
d="M96 754h132l-85 -178h-88z" />
    <glyph glyph-name="uni02BA" unicode="&#x2ba;" horiz-adv-x="455" 
d="M96 754h132l-85 -178h-88zM279 754h132l-85 -178h-89z" />
    <glyph glyph-name="uni02BC" unicode="&#x2bc;" horiz-adv-x="286" 
d="M142 766q31 0 48 -22t17 -51q0 -45 -26.5 -82t-60.5 -61q-8 6 -15.5 14t-15.5 16q11 10 25.5 27.5t14.5 32.5q0 12 -10 20t-20.5 19.5t-10.5 33.5t16 37.5t38 15.5z" />
    <glyph glyph-name="circumflex" unicode="&#x2c6;" horiz-adv-x="292" 
d="M144 653l-69 -73h-75l99 150h90l103 -151h-77z" />
    <glyph glyph-name="caron" unicode="&#x2c7;" horiz-adv-x="292" 
d="M148 655l69 74h75l-100 -150h-89l-103 151h77z" />
    <glyph glyph-name="uni02C9" unicode="&#x2c9;" horiz-adv-x="380" 
d="M40 689h300v-68h-300v68z" />
    <glyph glyph-name="breve" unicode="&#x2d8;" horiz-adv-x="288" 
d="M288 730q-5 -44 -20.5 -77.5t-45.5 -52t-78 -18.5q-68 0 -102.5 42t-41.5 106h57q8 -35 29.5 -52.5t57.5 -17.5t57.5 17.5t29.5 52.5h57z" />
    <glyph glyph-name="dotaccent" unicode="&#x2d9;" horiz-adv-x="285" 
d="M202 655q0 -24 -18 -42t-42 -18t-41.5 18t-17.5 42t17.5 41.5t41.5 17.5t42 -17t18 -42z" />
    <glyph glyph-name="ring" unicode="&#x2da;" horiz-adv-x="282" 
d="M141 763q29 0 52 -14t37 -37.5t14 -51.5q0 -42 -30.5 -72.5t-72.5 -30.5t-72 30.5t-30 72.5q0 28 14 51.5t37 37.5t51 14zM141 704q-19 0 -32 -13t-13 -32q0 -18 13 -31t32 -13q18 0 31.5 13t13.5 31q0 19 -13.5 32t-31.5 13z" />
    <glyph glyph-name="ogonek" unicode="&#x2db;" horiz-adv-x="279" 
d="M262 -153q-28 -23 -63 -38t-73 -15q-42 0 -71 22t-29 66q0 29 20 54t50.5 44.5t63 31.5t56.5 16l26 -14q-16 -8 -38 -19.5t-42 -26t-33 -32t-13 -38.5t12.5 -31.5t33.5 -10.5q19 0 42 12t39 22z" />
    <glyph glyph-name="tilde" unicode="&#x2dc;" horiz-adv-x="357" 
d="M342 703q-1 -26 -12.5 -50.5t-31.5 -40t-50 -15.5q-27 0 -51 10t-45.5 19.5t-44.5 9.5q-13 0 -23 -8t-13 -20h-56q2 28 14 52t33.5 39.5t51.5 15.5q27 0 50.5 -10t44.5 -20t41 -10q12 0 23.5 7.5t14.5 20.5h54z" />
    <glyph glyph-name="hungarumlaut" unicode="&#x2dd;" horiz-adv-x="380" 
d="M92 734h125l-126 -158h-75zM240 734h125l-126 -158h-75z" />
    <glyph glyph-name="gravecomb" unicode="&#x300;" 
d="M182 734l101 -158h-88l-145 158h132z" />
    <glyph glyph-name="acutecomb" unicode="&#x301;" 
d="M151 734h132l-144 -158h-89z" />
    <glyph glyph-name="uni0302" unicode="&#x302;" 
d="M194 653l-69 -73h-75l99 150h90l103 -151h-77z" />
    <glyph glyph-name="tildecomb" unicode="&#x303;" 
d="M377 703q-1 -26 -12.5 -50.5t-31.5 -40t-50 -15.5q-27 0 -51 10t-45.5 19.5t-44.5 9.5q-13 0 -23 -8t-13 -20h-56q2 28 14 52t33.5 39.5t51.5 15.5q27 0 50.5 -10t44.5 -20t41 -10q12 0 23.5 7.5t14.5 20.5h54z" />
    <glyph glyph-name="uni0304" unicode="&#x304;" 
d="M50 689h300v-68h-300v68z" />
    <glyph glyph-name="uni0306" unicode="&#x306;" 
d="M338 730q-5 -44 -20.5 -77.5t-45.5 -52t-78 -18.5q-68 0 -102.5 42t-41.5 106h57q8 -35 29.5 -52.5t57.5 -17.5t57.5 17.5t29.5 52.5h57z" />
    <glyph glyph-name="uni0307" unicode="&#x307;" 
d="M169 655q0 -24 -18 -42t-42 -18t-41.5 18t-17.5 42t17.5 41.5t41.5 17.5q25 0 42.5 -17t17.5 -42z" />
    <glyph glyph-name="uni0308" unicode="&#x308;" 
d="M168 655q0 -24 -17.5 -42t-41.5 -18t-41.5 18t-17.5 42t17.5 41.5t41.5 17.5q25 0 42 -17t17 -42zM335 655q0 -24 -18 -42t-42 -18t-41.5 18t-17.5 42t17.5 41.5t41.5 17.5q25 0 42.5 -17t17.5 -42z" />
    <glyph glyph-name="hookabovecomb" unicode="&#x309;" 
d="M107 547l-12 88q7 -2 14.5 -3t15.5 -1q17 0 30.5 7.5t13.5 28.5q0 16 -11.5 23t-27.5 7q-14 0 -28.5 -4.5t-27.5 -12.5l-24 46q22 15 47.5 22.5t50.5 7.5q41 0 71.5 -20t30.5 -58q0 -40 -26.5 -61.5t-66.5 -23.5l-8 -46h-42z" />
    <glyph glyph-name="uni030A" unicode="&#x30a;" 
d="M152 763q29 0 52 -14t37 -37.5t14 -51.5q0 -42 -30 -72.5t-73 -30.5q-41 0 -71.5 30.5t-30.5 72.5q0 28 14 51.5t37 37.5t51 14zM152 704q-19 0 -32 -13t-13 -32q0 -18 13 -31t32 -13t32 13t13 31q0 19 -13 32t-32 13z" />
    <glyph glyph-name="uni030B" unicode="&#x30b;" 
d="M126 734h125l-126 -158h-75zM274 734h125l-126 -158h-75z" />
    <glyph glyph-name="uni030C" unicode="&#x30c;" 
d="M198 655l69 74h75l-100 -150h-89l-103 151h77z" />
    <glyph glyph-name="uni030F" unicode="&#x30f;" 
d="M323 734l76 -158h-75l-126 158h125zM175 734l76 -158h-75l-126 158h125z" />
    <glyph glyph-name="uni0311" unicode="&#x311;" 
d="M50 582q5 44 22 77.5t48 52t79 18.5q46 0 75 -19t44.5 -52.5t19.5 -76.5h-57q-7 35 -29 52.5t-58 17.5t-57.5 -18t-29.5 -52h-57z" />
    <glyph glyph-name="uni0312" unicode="&#x312;" 
d="M115 571q-31 0 -48 22.5t-17 51.5q0 45 26.5 81t61.5 62l30 -31q-10 -10 -25 -27.5t-15 -32.5q0 -11 10.5 -19.5t20.5 -19.5t10 -33q0 -23 -16 -38.5t-38 -15.5z" />
    <glyph glyph-name="uni0313" unicode="&#x313;" 
d="M104 788q31 0 48 -22.5t17 -51.5q0 -44 -26 -81t-61 -62l-31 30q11 11 25.5 28.5t14.5 32.5q0 11 -10 19t-20.5 20t-10.5 33q0 23 16 38.5t38 15.5z" />
    <glyph glyph-name="uni031B" unicode="&#x31b;" 
d="M50 496q38 -15 63 -2t36 45t6 74h106q2 -37 -9.5 -74t-37.5 -65.5t-66.5 -39.5t-97.5 2v60z" />
    <glyph glyph-name="dotbelowcomb" unicode="&#x323;" 
d="M169 -125q0 -24 -18 -42t-42 -18t-41.5 18t-17.5 42t17.5 41.5t41.5 17.5q25 0 42.5 -17t17.5 -42z" />
    <glyph glyph-name="uni0324" unicode="&#x324;" 
d="M168 -125q0 -24 -17.5 -42t-41.5 -18t-41.5 18t-17.5 42t17.5 41.5t41.5 17.5q25 0 42 -17t17 -42zM335 -125q0 -24 -18 -42t-42 -18t-41.5 18t-17.5 42t17.5 41.5t41.5 17.5q25 0 42.5 -17t17.5 -42z" />
    <glyph glyph-name="uni0326" unicode="&#x326;" 
d="M104 -72q31 0 48 -22t17 -51q0 -45 -26 -81.5t-61 -62.5l-31 31q11 11 25.5 28.5t14.5 31.5q0 11 -10 19.5t-20.5 20.5t-10.5 33q0 23 16 38t38 15z" />
    <glyph glyph-name="uni0327" unicode="&#x327;" 
d="M134 9h52l-30 -55q55 -1 84.5 -22t29.5 -59q0 -46 -35.5 -69.5t-82.5 -23.5q-25 0 -52 7t-50 22l26 48q15 -11 31.5 -16.5t31.5 -5.5q19 0 31.5 9.5t12.5 28.5q0 18 -13 29.5t-42 11.5q-10 0 -22.5 -1.5t-27.5 -5.5z" />
    <glyph glyph-name="uni0328" unicode="&#x328;" 
d="M286 -153q-29 -23 -63.5 -38t-73.5 -15q-41 0 -70 22t-29 66q0 29 20 54t50.5 44.5t62.5 31.5t57 16l26 -14q-17 -8 -38.5 -19.5t-41.5 -26t-33.5 -32t-13.5 -38.5t13 -31.5t33 -10.5q19 0 42.5 12t39.5 22z" />
    <glyph glyph-name="uni032E" unicode="&#x32e;" 
d="M338 -65q-5 -44 -20.5 -77t-45.5 -52t-78 -19q-68 0 -102.5 42t-41.5 106h57q8 -35 29.5 -52.5t57.5 -17.5t57.5 17.5t29.5 52.5h57z" />
    <glyph glyph-name="uni0331" unicode="&#x331;" 
d="M50 -99h300v-69h-300v69z" />
    <glyph glyph-name="uni0335" unicode="&#x335;" 
d="M-417 352h325v-74h-325v74z" />
    <glyph glyph-name="uni0336" unicode="&#x336;" 
d="M-647 352h607v-74h-607v74z" />
    <glyph glyph-name="uni0337" unicode="&#x337;" 
d="M8 257v81l233 109v-81z" />
    <glyph glyph-name="uni0338" unicode="&#x338;" 
d="M100 -78l-54 35l377 608l57 -31z" />
    <glyph glyph-name="uni0394" unicode="&#x394;" horiz-adv-x="631" 
d="M10 59l260 668h91l259 -668v-59h-610v59zM486 80q-18 47 -38.5 100t-41 108t-40 107t-36.5 97q-6 17 -12 37t-10.5 38.5t-8.5 29.5q-4 -13 -9.5 -30.5t-11.5 -36.5t-13 -36q-17 -48 -36.5 -100t-39.5 -106.5t-40 -107t-38 -100.5h375z" />
    <glyph glyph-name="uni03A9" unicode="&#x3a9;" horiz-adv-x="782" 
d="M462 63q54 20 85 65.5t44.5 104t13.5 115.5q0 52 -10.5 106.5t-35.5 100t-66 73.5t-102 28t-102 -28t-66 -73.5t-35.5 -100t-10.5 -106.5q0 -57 13.5 -115.5t44.5 -104t84 -65.5v-63h-274v82h71l69 -6q-39 27 -67.5 72.5t-44 101.5t-15.5 114q0 78 21.5 145.5t63.5 119
t104 80.5t144 29t144 -29t104 -80.5t63.5 -119t21.5 -145.5q0 -58 -15.5 -114t-44 -101.5t-67.5 -72.5l69 6h70v-82h-274v63z" />
    <glyph glyph-name="uni03BC" unicode="&#x3bc;" horiz-adv-x="552" 
d="M561 20q-25 -7 -52 -18t-53 -11q-31 0 -49.5 20t-24.5 48q-25 -27 -63.5 -49t-76.5 -22q-33 0 -65 15v-190h-102v628q0 1 -2.5 14t-5.5 26.5t-4 15.5h111v-308q0 -26 4.5 -54t21 -46t49.5 -18q23 0 45.5 7.5t43 21.5t35.5 29v312q0 1 -3 14t-6 26.5t-4 15.5h111v-385
q0 -11 1.5 -21t6.5 -16.5t16 -6.5q4 0 13 2.5t19.5 6t14.5 4.5z" />
    <glyph glyph-name="pi" unicode="&#x3c0;" horiz-adv-x="669" 
d="M280 456v-42v-44.5v-38.5q0 -84 -4 -144t-19.5 -100.5t-48.5 -67.5t-91 -46l-27 47q34 19 53 40t28.5 49.5t12.5 71.5t3 109v48.5t-0.5 58t-0.5 59.5h94zM488 456q-4 -41 -7 -84t-5 -82t-2 -69q0 -71 14 -112.5t52 -41.5q18 0 42 10l24 -49q-18 -15 -43 -24t-52 -9
q-51 0 -79.5 26.5t-39.5 76t-11 117.5q0 32 2 72t4.5 83.5t5.5 85.5h95zM636 471q-20 -27 -52.5 -39t-66.5 -12h-342q-36 0 -59.5 -23t-31.5 -58l-56 15q3 40 23.5 72.5t56.5 51.5t84 19h316q27 0 50.5 4t47.5 18z" />
    <glyph glyph-name="uni1E24" unicode="&#x1e24;" horiz-adv-x="714" 
d="M525 337h-334v-337h-112v666q0 1 -3.5 15.5t-6.5 30t-4 18.5h126v-312h334v312h112v-730h-112v337zM414 -125q0 -24 -18 -42t-42 -18t-41.5 18t-17.5 42t17.5 41.5t41.5 17.5q25 0 42.5 -17t17.5 -42z" />
    <glyph glyph-name="uni1E25" unicode="&#x1e25;" horiz-adv-x="547" 
d="M175 765v-322q30 28 67.5 47.5t80.5 19.5q56 0 88.5 -22.5t46.5 -62t14 -91.5v-334h-98v314q0 27 -4 53t-19.5 43.5t-51.5 17.5q-20 0 -43.5 -10t-44.5 -23.5t-36 -28.5v-366h-98v708l-13 57h111zM331 -125q0 -24 -18 -42t-42 -18t-41.5 18t-17.5 42t17.5 41.5t41.5 17.5
q25 0 42.5 -17t17.5 -42z" />
    <glyph glyph-name="uni1E62" unicode="&#x1e62;" horiz-adv-x="516" 
d="M279 741q53 0 103 -15t93 -42l-56 -75q-29 23 -66.5 36.5t-74.5 13.5q-47 0 -82 -24t-35 -76q0 -30 16.5 -52t43.5 -38.5t59 -31.5q35 -17 72 -35.5t68 -44t50.5 -62t19.5 -90.5q0 -72 -35.5 -120.5t-93 -72.5t-124.5 -24q-57 0 -112 14t-105 42l41 94q34 -30 80.5 -49
t91.5 -19q33 0 64 12.5t52 38.5t21 66q0 41 -20.5 67.5t-53.5 45t-71 36.5q-33 15 -65.5 32.5t-59 40.5t-42.5 55.5t-16 78.5q0 67 34.5 110.5t89 65.5t113.5 22zM326 -125q0 -24 -18 -42t-42 -18t-41.5 18t-17.5 42t17.5 41.5t41.5 17.5q25 0 42.5 -17t17.5 -42z" />
    <glyph glyph-name="uni1E6C" unicode="&#x1e6c;" horiz-adv-x="578" 
d="M230 648h-211v82h540v-82h-214v-648h-115v648zM346 -125q0 -24 -18 -42t-42 -18t-41.5 18t-17.5 42t17.5 41.5t41.5 17.5q25 0 42.5 -17t17.5 -42z" />
    <glyph glyph-name="uni1E6D" unicode="&#x1e6d;" horiz-adv-x="327" 
d="M208 640q-7 -34 -12 -71t-7 -72h126l-17 -70h-109v-300q0 -15 3.5 -30.5t14 -24.5t31.5 -9q16 0 32 3t31 7l14 -64q-25 -8 -51.5 -14t-55.5 -6q-64 0 -91 32.5t-27 95.5v310h-78v57q31 1 52 16t35.5 38.5t23.5 50t14 51.5h71zM235 -125q0 -24 -18 -42t-42 -18t-41.5 18
t-17.5 42t17.5 41.5t41.5 17.5q25 0 42.5 -17t17.5 -42z" />
    <glyph glyph-name="Wgrave" unicode="&#x1e80;" horiz-adv-x="894" 
d="M121 730l120 -440q8 -28 14 -57.5t12 -63.5q7 36 14.5 68.5t15.5 63.5l116 429h92l119 -443q8 -27 14 -56t11 -62q7 36 14 68t16 63l117 430h92l-201 -734h-97l-121 445q-6 23 -11.5 47t-9.5 52q-6 -33 -13 -63.5t-15 -59.5l-114 -421h-98l-202 734h115zM402 913
l102 -137h-89l-145 137h132z" />
    <glyph glyph-name="wgrave" unicode="&#x1e81;" horiz-adv-x="658" 
d="M105 497l78 -262q6 -18 9 -36.5t7 -40.5q4 22 7 40t9 36l83 263h80l79 -262q6 -18 8.5 -36t6.5 -41q4 23 7.5 41t8.5 36l82 262h86l-157 -502h-74q-17 57 -34.5 111t-33 110.5t-29.5 120.5q-15 -64 -31.5 -120.5t-34.5 -110.5l-37 -111h-75l-148 502h103zM282 734
l101 -158h-88l-145 158h132z" />
    <glyph glyph-name="Wacute" unicode="&#x1e82;" horiz-adv-x="894" 
d="M121 730l120 -440q8 -28 14 -57.5t12 -63.5q7 36 14.5 68.5t15.5 63.5l116 429h92l119 -443q8 -27 14 -56t11 -62q7 36 14 68t16 63l117 430h92l-201 -734h-97l-121 445q-6 23 -11.5 47t-9.5 52q-6 -33 -13 -63.5t-15 -59.5l-114 -421h-98l-202 734h115zM514 913h133
l-145 -137h-89z" />
    <glyph glyph-name="wacute" unicode="&#x1e83;" horiz-adv-x="658" 
d="M105 497l78 -262q6 -18 9 -36.5t7 -40.5q4 22 7 40t9 36l83 263h80l79 -262q6 -18 8.5 -36t6.5 -41q4 23 7.5 41t8.5 36l82 262h86l-157 -502h-74q-17 57 -34.5 111t-33 110.5t-29.5 120.5q-15 -64 -31.5 -120.5t-34.5 -110.5l-37 -111h-75l-148 502h103zM393 734h132
l-144 -158h-89z" />
    <glyph glyph-name="Wdieresis" unicode="&#x1e84;" horiz-adv-x="894" 
d="M121 730l120 -440q8 -28 14 -57.5t12 -63.5q7 36 14.5 68.5t15.5 63.5l116 429h92l119 -443q8 -27 14 -56t11 -62q7 36 14 68t16 63l117 430h92l-201 -734h-97l-121 445q-6 23 -11.5 47t-9.5 52q-6 -33 -13 -63.5t-15 -59.5l-114 -421h-98l-202 734h115zM432 844
q0 -24 -17.5 -42t-41.5 -18t-41.5 18t-17.5 42t17.5 41.5t41.5 17.5q25 0 42 -17t17 -42zM599 844q0 -24 -18 -42t-42 -18t-41.5 18t-17.5 42t17.5 41.5t41.5 17.5q25 0 42.5 -17t17.5 -42z" />
    <glyph glyph-name="wdieresis" unicode="&#x1e85;" horiz-adv-x="658" 
d="M105 497l78 -262q6 -18 9 -36.5t7 -40.5q4 22 7 40t9 36l83 263h80l79 -262q6 -18 8.5 -36t6.5 -41q4 23 7.5 41t8.5 36l82 262h86l-157 -502h-74q-17 57 -34.5 111t-33 110.5t-29.5 120.5q-15 -64 -31.5 -120.5t-34.5 -110.5l-37 -111h-75l-148 502h103zM314 651
q0 -24 -17.5 -42t-41.5 -18t-41.5 18t-17.5 42t17.5 41.5t41.5 17.5q25 0 42 -17t17 -42zM481 651q0 -24 -18 -42t-42 -18t-41.5 18t-17.5 42t17.5 41.5t41.5 17.5q25 0 42.5 -17t17.5 -42z" />
    <glyph glyph-name="uni1E9E" unicode="&#x1e9e;" horiz-adv-x="665" 
d="M64 730h483v-82h-357v-648h-112v666zM300 328l247 402l62 -66l-208 -325zM403 410q42 0 87.5 -10t85.5 -34t65.5 -63.5t25.5 -97.5q0 -70 -34.5 -119t-91 -74t-122.5 -25q-48 0 -98 13.5t-95 43.5l40 94q30 -33 70.5 -50t79.5 -17q35 0 65 12.5t48 39t18 64.5
q0 41 -17 73t-59.5 51t-117.5 19q-11 0 -24.5 -0.5t-28.5 -1.5z" />
    <glyph glyph-name="uni1EA0" unicode="&#x1ea0;" horiz-adv-x="631" 
d="M365 730l255 -730h-122l-79 233h-230l-80 -233h-98l256 730h98zM305 586l-89 -272h176zM370 -125q0 -24 -18 -42t-42 -18t-41.5 18t-17.5 42t17.5 41.5t41.5 17.5q25 0 42.5 -17t17.5 -42z" />
    <glyph glyph-name="uni1EA1" unicode="&#x1ea1;" horiz-adv-x="494" 
d="M253 509q80 0 121.5 -42t41.5 -121v-237q0 -24 8.5 -32.5t20.5 -8.5q9 0 19 2.5t19 6.5l19 -60q-19 -11 -45 -18.5t-50 -7.5q-31 0 -52.5 15t-27.5 53q-29 -34 -67.5 -52t-82.5 -18q-59 0 -99 34.5t-40 95.5q0 55 26.5 89.5t69.5 52t91.5 24t91.5 6.5v58q0 28 -7 47
t-24.5 29.5t-46.5 10.5q-36 0 -71 -16.5t-66 -41.5l-44 67q42 32 92.5 48t102.5 16zM317 219q-24 0 -54.5 -2.5t-58.5 -11t-46 -27.5t-18 -52q0 -29 21 -43.5t49 -14.5q33 0 56.5 18.5t37 46.5t13.5 58v28zM293 -125q0 -24 -18 -42t-42 -18t-41.5 18t-17.5 42t17.5 41.5
t41.5 17.5q25 0 42.5 -17t17.5 -42z" />
    <glyph glyph-name="uni1EA2" unicode="&#x1ea2;" horiz-adv-x="631" 
d="M365 730l255 -730h-122l-79 233h-230l-80 -233h-98l256 730h98zM305 586l-89 -272h176zM294 770l-12 88q7 -1 14.5 -2.5t15.5 -1.5q17 0 30.5 7.5t13.5 28.5q0 16 -11.5 23t-27.5 7q-14 0 -28.5 -4t-27.5 -13l-24 47q22 15 47.5 22.5t50.5 7.5q41 0 71.5 -20.5
t30.5 -58.5q0 -40 -26.5 -61.5t-66.5 -23.5l-8 -46h-42z" />
    <glyph glyph-name="uni1EA3" unicode="&#x1ea3;" horiz-adv-x="494" 
d="M253 509q80 0 121.5 -42t41.5 -121v-237q0 -24 8.5 -32.5t20.5 -8.5q9 0 19 2.5t19 6.5l19 -60q-19 -11 -45 -18.5t-50 -7.5q-31 0 -52.5 15t-27.5 53q-29 -34 -67.5 -52t-82.5 -18q-59 0 -99 34.5t-40 95.5q0 55 26.5 89.5t69.5 52t91.5 24t91.5 6.5v58q0 28 -7 47
t-24.5 29.5t-46.5 10.5q-36 0 -71 -16.5t-66 -41.5l-44 67q42 32 92.5 48t102.5 16zM317 219q-24 0 -54.5 -2.5t-58.5 -11t-46 -27.5t-18 -52q0 -29 21 -43.5t49 -14.5q33 0 56.5 18.5t37 46.5t13.5 58v28zM224 547l-12 88q7 -2 14.5 -3t15.5 -1q17 0 30.5 7.5t13.5 28.5
q0 16 -11.5 23t-27.5 7q-14 0 -28.5 -4.5t-27.5 -12.5l-24 46q22 15 47.5 22.5t50.5 7.5q41 0 71.5 -20t30.5 -58q0 -40 -26.5 -61.5t-66.5 -23.5l-8 -46h-42z" />
    <glyph glyph-name="uni1EA4" unicode="&#x1ea4;" horiz-adv-x="631" 
d="M365 730l255 -730h-122l-79 233h-230l-80 -233h-98l256 730h98zM305 586l-89 -272h176zM314 833l-69 -54h-75l99 131h90l103 -131h-77zM332 1041h114l-91 -102h-78z" />
    <glyph glyph-name="uni1EA5" unicode="&#x1ea5;" horiz-adv-x="494" 
d="M253 509q80 0 121.5 -42t41.5 -121v-237q0 -24 8.5 -32.5t20.5 -8.5q9 0 19 2.5t19 6.5l19 -60q-19 -11 -45 -18.5t-50 -7.5q-31 0 -52.5 15t-27.5 53q-29 -34 -67.5 -52t-82.5 -18q-59 0 -99 34.5t-40 95.5q0 55 26.5 89.5t69.5 52t91.5 24t91.5 6.5v58q0 28 -7 47
t-24.5 29.5t-46.5 10.5q-36 0 -71 -16.5t-66 -41.5l-44 67q42 32 92.5 48t102.5 16zM317 219q-24 0 -54.5 -2.5t-58.5 -11t-46 -27.5t-18 -52q0 -29 21 -43.5t49 -14.5q33 0 56.5 18.5t37 46.5t13.5 58v28zM245 653l-69 -73h-75l99 150h90l103 -151h-77zM266 888h122
l-105 -117h-78z" />
    <glyph glyph-name="uni1EA6" unicode="&#x1ea6;" horiz-adv-x="631" 
d="M365 730l255 -730h-122l-79 233h-230l-80 -233h-98l256 730h98zM305 586l-89 -272h176zM314 833l-71 -54h-77l103 131h89l100 -131h-75zM296 1041l55 -102h-78l-91 102h114z" />
    <glyph glyph-name="uni1EA7" unicode="&#x1ea7;" horiz-adv-x="494" 
d="M253 509q80 0 121.5 -42t41.5 -121v-237q0 -24 8.5 -32.5t20.5 -8.5q9 0 19 2.5t19 6.5l19 -60q-19 -11 -45 -18.5t-50 -7.5q-31 0 -52.5 15t-27.5 53q-29 -34 -67.5 -52t-82.5 -18q-59 0 -99 34.5t-40 95.5q0 55 26.5 89.5t69.5 52t91.5 24t91.5 6.5v58q0 28 -7 47
t-24.5 29.5t-46.5 10.5q-36 0 -71 -16.5t-66 -41.5l-44 67q42 32 92.5 48t102.5 16zM317 219q-24 0 -54.5 -2.5t-58.5 -11t-46 -27.5t-18 -52q0 -29 21 -43.5t49 -14.5q33 0 56.5 18.5t37 46.5t13.5 58v28zM245 653l-71 -74h-77l103 151h89l100 -150h-75zM223 889l62 -118
h-79l-104 118h121z" />
    <glyph glyph-name="uni1EA8" unicode="&#x1ea8;" horiz-adv-x="631" 
d="M365 730l255 -730h-122l-79 233h-230l-80 -233h-98l256 730h98zM305 586l-89 -272h176zM313 833l-69 -54h-75l99 131h90l103 -131h-77zM293 930l-11 79q6 -1 13 -2.5t14 -1.5q15 0 27 7t12 26q0 15 -9.5 21.5t-25.5 6.5q-12 0 -25.5 -4.5t-25.5 -11.5l-21 42q20 14 43 21
t46 7q38 0 65 -18.5t27 -53.5q0 -36 -24 -55.5t-60 -21.5l-7 -41h-38z" />
    <glyph glyph-name="uni1EA9" unicode="&#x1ea9;" horiz-adv-x="494" 
d="M253 509q80 0 121.5 -42t41.5 -121v-237q0 -24 8.5 -32.5t20.5 -8.5q9 0 19 2.5t19 6.5l19 -60q-19 -11 -45 -18.5t-50 -7.5q-31 0 -52.5 15t-27.5 53q-29 -34 -67.5 -52t-82.5 -18q-59 0 -99 34.5t-40 95.5q0 55 26.5 89.5t69.5 52t91.5 24t91.5 6.5v58q0 28 -7 47
t-24.5 29.5t-46.5 10.5q-36 0 -71 -16.5t-66 -41.5l-44 67q42 32 92.5 48t102.5 16zM317 219q-24 0 -54.5 -2.5t-58.5 -11t-46 -27.5t-18 -52q0 -29 21 -43.5t49 -14.5q33 0 56.5 18.5t37 46.5t13.5 58v28zM245 653l-69 -73h-75l99 150h90l103 -151h-77zM225 760l-11 79
q6 -1 13 -2t14 -1q15 0 27.5 6.5t12.5 25.5q0 15 -10 21.5t-26 6.5q-12 0 -25.5 -4.5t-25.5 -11.5l-21 42q41 28 90 28q37 0 64.5 -18.5t27.5 -53.5q0 -36 -24 -55.5t-60 -21.5l-7 -41h-39z" />
    <glyph glyph-name="uni1EAA" unicode="&#x1eaa;" horiz-adv-x="631" 
d="M365 730l255 -730h-122l-79 233h-230l-80 -233h-98l256 730h98zM305 586l-89 -272h176zM314 833l-69 -54h-75l100 131h89l103 -131h-77zM460 1049q-1 -42 -22 -74.5t-65 -32.5q-27 0 -44.5 10t-33 20t-38.5 10q-13 0 -20.5 -8.5t-9.5 -20.5h-55q1 44 23.5 75.5t68.5 31.5
q27 0 44 -9.5t32 -19.5t35 -10q12 0 20 7.5t11 20.5h54z" />
    <glyph glyph-name="uni1EAB" unicode="&#x1eab;" horiz-adv-x="494" 
d="M253 509q80 0 121.5 -42t41.5 -121v-237q0 -24 8.5 -32.5t20.5 -8.5q9 0 19 2.5t19 6.5l19 -60q-19 -11 -45 -18.5t-50 -7.5q-31 0 -52.5 15t-27.5 53q-29 -34 -67.5 -52t-82.5 -18q-59 0 -99 34.5t-40 95.5q0 55 26.5 89.5t69.5 52t91.5 24t91.5 6.5v58q0 28 -7 47
t-24.5 29.5t-46.5 10.5q-36 0 -71 -16.5t-66 -41.5l-44 67q42 32 92.5 48t102.5 16zM317 219q-24 0 -54.5 -2.5t-58.5 -11t-46 -27.5t-18 -52q0 -29 21 -43.5t49 -14.5q33 0 56.5 18.5t37 46.5t13.5 58v28zM244 653l-69 -73h-75l100 150h89l103 -151h-77zM393 869
q-1 -41 -22 -73.5t-65 -32.5q-27 0 -44.5 10t-33 19.5t-38.5 9.5q-13 0 -20.5 -8t-9.5 -20h-55q1 44 23.5 75.5t68.5 31.5q27 0 44 -9.5t32 -19.5t35 -10q12 0 20 7.5t11 19.5h54z" />
    <glyph glyph-name="uni1EAC" unicode="&#x1eac;" horiz-adv-x="631" 
d="M365 730l255 -730h-122l-79 233h-230l-80 -233h-98l256 730h98zM305 586l-89 -272h176zM314 833l-71 -54h-76l102 131h89l101 -131h-76zM370 -125q0 -24 -18 -42t-42 -18t-41.5 18t-17.5 42t17.5 41.5t41.5 17.5q25 0 42.5 -17t17.5 -42z" />
    <glyph glyph-name="uni1EAD" unicode="&#x1ead;" horiz-adv-x="494" 
d="M253 509q80 0 121.5 -42t41.5 -121v-237q0 -24 8.5 -32.5t20.5 -8.5q9 0 19 2.5t19 6.5l19 -60q-19 -11 -45 -18.5t-50 -7.5q-31 0 -52.5 15t-27.5 53q-29 -34 -67.5 -52t-82.5 -18q-59 0 -99 34.5t-40 95.5q0 55 26.5 89.5t69.5 52t91.5 24t91.5 6.5v58q0 28 -7 47
t-24.5 29.5t-46.5 10.5q-36 0 -71 -16.5t-66 -41.5l-44 67q42 32 92.5 48t102.5 16zM317 219q-24 0 -54.5 -2.5t-58.5 -11t-46 -27.5t-18 -52q0 -29 21 -43.5t49 -14.5q33 0 56.5 18.5t37 46.5t13.5 58v28zM247 653l-69 -73h-75l99 150h90l103 -151h-77zM293 -125
q0 -24 -18 -42t-42 -18t-41.5 18t-17.5 42t17.5 41.5t41.5 17.5q25 0 42.5 -17t17.5 -42z" />
    <glyph glyph-name="uni1EAE" unicode="&#x1eae;" horiz-adv-x="631" 
d="M365 730l255 -730h-122l-79 233h-230l-80 -233h-98l256 730h98zM305 586l-89 -272h176zM458 909q-5 -35 -21.5 -64t-46.5 -46.5t-78 -17.5q-46 0 -76 17.5t-46 46.5t-20 64h57q7 -22 29 -36t58 -14t57.5 14t29.5 36h57zM359 1025h112l-125 -117h-69z" />
    <glyph glyph-name="uni1EAF" unicode="&#x1eaf;" horiz-adv-x="494" 
d="M253 509q80 0 121.5 -42t41.5 -121v-237q0 -24 8.5 -32.5t20.5 -8.5q9 0 19 2.5t19 6.5l19 -60q-19 -11 -45 -18.5t-50 -7.5q-31 0 -52.5 15t-27.5 53q-29 -34 -67.5 -52t-82.5 -18q-59 0 -99 34.5t-40 95.5q0 55 26.5 89.5t69.5 52t91.5 24t91.5 6.5v58q0 28 -7 47
t-24.5 29.5t-46.5 10.5q-36 0 -71 -16.5t-66 -41.5l-44 67q42 32 92.5 48t102.5 16zM317 219q-24 0 -54.5 -2.5t-58.5 -11t-46 -27.5t-18 -52q0 -29 21 -43.5t49 -14.5q33 0 56.5 18.5t37 46.5t13.5 58v28zM398 730q-5 -44 -20.5 -77.5t-45.5 -52t-78 -18.5q-68 0 -102.5 42
t-41.5 106h57q8 -35 29.5 -52.5t57.5 -17.5t57.5 17.5t29.5 52.5h57zM294 866h121l-124 -137h-79z" />
    <glyph glyph-name="uni1EB0" unicode="&#x1eb0;" horiz-adv-x="631" 
d="M365 730l255 -730h-122l-79 233h-230l-80 -233h-98l256 730h98zM305 586l-89 -272h176zM170 909h57q8 -22 29.5 -36t57.5 -14t58 14t29 36h57q-4 -35 -20 -64t-46 -46.5t-76 -17.5q-48 0 -78.5 17.5t-46.5 46.5t-21 64zM269 1025l82 -117h-69l-125 117h112z" />
    <glyph glyph-name="uni1EB1" unicode="&#x1eb1;" horiz-adv-x="494" 
d="M253 509q80 0 121.5 -42t41.5 -121v-237q0 -24 8.5 -32.5t20.5 -8.5q9 0 19 2.5t19 6.5l19 -60q-19 -11 -45 -18.5t-50 -7.5q-31 0 -52.5 15t-27.5 53q-29 -34 -67.5 -52t-82.5 -18q-59 0 -99 34.5t-40 95.5q0 55 26.5 89.5t69.5 52t91.5 24t91.5 6.5v58q0 28 -7 47
t-24.5 29.5t-46.5 10.5q-36 0 -71 -16.5t-66 -41.5l-44 67q42 32 92.5 48t102.5 16zM317 219q-24 0 -54.5 -2.5t-58.5 -11t-46 -27.5t-18 -52q0 -29 21 -43.5t49 -14.5q33 0 56.5 18.5t37 46.5t13.5 58v28zM100 730h58q8 -35 29 -52.5t57 -17.5q37 0 58.5 17.5t28.5 52.5h57
q-6 -64 -40.5 -106t-103.5 -42q-48 0 -77.5 18.5t-45 52t-21.5 77.5zM205 866l81 -137h-78l-125 137h122z" />
    <glyph glyph-name="uni1EB2" unicode="&#x1eb2;" horiz-adv-x="631" 
d="M365 730l255 -730h-122l-79 233h-230l-80 -233h-98l256 730h98zM305 586l-89 -272h176zM458 909q-5 -35 -21.5 -64t-46.5 -46.5t-78 -17.5q-46 0 -76 17.5t-46 46.5t-20 64h57q7 -22 29 -36t58 -14t57.5 14t29.5 36h57zM296 909l-12 79q6 -1 13.5 -2t14.5 -1q15 0 27 6.5
t12 25.5q0 15 -10 21.5t-25 6.5q-12 0 -25.5 -4.5t-25.5 -11.5l-22 42q20 14 43.5 21t46.5 7q37 0 64.5 -18.5t27.5 -53.5q0 -36 -24 -55.5t-60 -21.5l-7 -41h-38z" />
    <glyph glyph-name="uni1EB3" unicode="&#x1eb3;" horiz-adv-x="494" 
d="M253 509q80 0 121.5 -42t41.5 -121v-237q0 -24 8.5 -32.5t20.5 -8.5q9 0 19 2.5t19 6.5l19 -60q-19 -11 -45 -18.5t-50 -7.5q-31 0 -52.5 15t-27.5 53q-29 -34 -67.5 -52t-82.5 -18q-59 0 -99 34.5t-40 95.5q0 55 26.5 89.5t69.5 52t91.5 24t91.5 6.5v58q0 28 -7 47
t-24.5 29.5t-46.5 10.5q-36 0 -71 -16.5t-66 -41.5l-44 67q42 32 92.5 48t102.5 16zM317 219q-24 0 -54.5 -2.5t-58.5 -11t-46 -27.5t-18 -52q0 -29 21 -43.5t49 -14.5q33 0 56.5 18.5t37 46.5t13.5 58v28zM388 730q-5 -44 -20.5 -77.5t-45.5 -52t-78 -18.5q-68 0 -102.5 42
t-41.5 106h57q8 -35 29.5 -52.5t57.5 -17.5t57.5 17.5t29.5 52.5h57zM225 729l-11 79q6 -1 13 -2.5t14 -1.5q15 0 27 7t12 26q0 15 -9.5 21.5t-25.5 6.5q-12 0 -25.5 -4.5t-25.5 -11.5l-21 42q41 28 89 28q38 0 65 -18.5t27 -53.5q0 -36 -24 -55.5t-60 -21.5l-7 -41h-38z
" />
    <glyph glyph-name="uni1EB4" unicode="&#x1eb4;" horiz-adv-x="631" 
d="M365 730l255 -730h-122l-79 233h-230l-80 -233h-98l256 730h98zM305 586l-89 -272h176zM457 909q-5 -35 -21.5 -64t-46.5 -46.5t-78 -17.5q-46 0 -76 17.5t-46 46.5t-20 64h57q7 -22 29 -36t58 -14t57.5 14t29.5 36h57zM456 1049q0 -42 -21 -74.5t-65 -32.5
q-28 0 -45.5 10t-33 20t-38.5 10q-13 0 -20.5 -8.5t-8.5 -20.5h-56q1 44 24 75.5t68 31.5q27 0 44 -9.5t32.5 -19.5t34.5 -10q13 0 20.5 7.5t10.5 20.5h54z" />
    <glyph glyph-name="uni1EB5" unicode="&#x1eb5;" horiz-adv-x="494" 
d="M253 509q80 0 121.5 -42t41.5 -121v-237q0 -24 8.5 -32.5t20.5 -8.5q9 0 19 2.5t19 6.5l19 -60q-19 -11 -45 -18.5t-50 -7.5q-31 0 -52.5 15t-27.5 53q-29 -34 -67.5 -52t-82.5 -18q-59 0 -99 34.5t-40 95.5q0 55 26.5 89.5t69.5 52t91.5 24t91.5 6.5v58q0 28 -7 47
t-24.5 29.5t-46.5 10.5q-36 0 -71 -16.5t-66 -41.5l-44 67q42 32 92.5 48t102.5 16zM317 219q-24 0 -54.5 -2.5t-58.5 -11t-46 -27.5t-18 -52q0 -29 21 -43.5t49 -14.5q33 0 56.5 18.5t37 46.5t13.5 58v28zM389 730q-5 -44 -21 -77.5t-45.5 -52t-77.5 -18.5q-69 0 -103.5 42
t-41.5 106h58q8 -35 29 -52.5t58 -17.5q36 0 57.5 17.5t28.5 52.5h58zM388 869q0 -41 -21 -73.5t-65 -32.5q-28 0 -45.5 10t-33 19.5t-38.5 9.5q-13 0 -20.5 -8t-8.5 -20h-56q1 44 24 75.5t68 31.5q27 0 44 -9.5t32.5 -19.5t34.5 -10q13 0 20.5 7.5t10.5 19.5h54z" />
    <glyph glyph-name="uni1EB6" unicode="&#x1eb6;" horiz-adv-x="631" 
d="M365 730l255 -730h-122l-79 233h-230l-80 -233h-98l256 730h98zM305 586l-89 -272h176zM461 909q-5 -35 -21.5 -64t-46.5 -46.5t-78 -17.5q-46 0 -76 17.5t-46 46.5t-20 64h57q7 -22 29 -36t58 -14t57.5 14t29.5 36h57zM370 -125q0 -24 -18 -42t-42 -18t-41.5 18
t-17.5 42t17.5 41.5t41.5 17.5q25 0 42.5 -17t17.5 -42z" />
    <glyph glyph-name="uni1EB7" unicode="&#x1eb7;" horiz-adv-x="494" 
d="M253 509q80 0 121.5 -42t41.5 -121v-237q0 -24 8.5 -32.5t20.5 -8.5q9 0 19 2.5t19 6.5l19 -60q-19 -11 -45 -18.5t-50 -7.5q-31 0 -52.5 15t-27.5 53q-29 -34 -67.5 -52t-82.5 -18q-59 0 -99 34.5t-40 95.5q0 55 26.5 89.5t69.5 52t91.5 24t91.5 6.5v58q0 28 -7 47
t-24.5 29.5t-46.5 10.5q-36 0 -71 -16.5t-66 -41.5l-44 67q42 32 92.5 48t102.5 16zM317 219q-24 0 -54.5 -2.5t-58.5 -11t-46 -27.5t-18 -52q0 -29 21 -43.5t49 -14.5q33 0 56.5 18.5t37 46.5t13.5 58v28zM391 730q-5 -44 -20.5 -77.5t-45.5 -52t-78 -18.5q-68 0 -102.5 42
t-41.5 106h57q8 -35 29.5 -52.5t57.5 -17.5t57.5 17.5t29.5 52.5h57zM293 -125q0 -24 -18 -42t-42 -18t-41.5 18t-17.5 42t17.5 41.5t41.5 17.5q25 0 42.5 -17t17.5 -42z" />
    <glyph glyph-name="uni1EB8" unicode="&#x1eb8;" horiz-adv-x="549" 
d="M64 730h446v-82h-320v-232h247v-81h-247v-253h320v-82h-432v666zM370 -125q0 -24 -18 -42t-42 -18t-41.5 18t-17.5 42t17.5 41.5t41.5 17.5q25 0 42.5 -17t17.5 -42z" />
    <glyph glyph-name="uni1EB9" unicode="&#x1eb9;" horiz-adv-x="494" 
d="M268 510q64 0 106.5 -27t63 -72t20.5 -101q0 -15 -1.5 -31t-4.5 -32h-311q0 -89 40 -137t107 -48q29 0 61 9.5t67 28.5l32 -57q-35 -28 -82 -41.5t-91 -13.5q-58 0 -103 20t-75 55.5t-45.5 82t-15.5 98.5q0 51 15 98.5t44.5 85.5t72.5 60t100 22zM261 439
q-33 0 -57.5 -18.5t-39 -47t-18.5 -57.5h209q3 36 -7.5 64t-32.5 43.5t-54 15.5zM319 -125q0 -24 -18 -42t-42 -18t-41.5 18t-17.5 42t17.5 41.5t41.5 17.5q25 0 42.5 -17t17.5 -42z" />
    <glyph glyph-name="uni1EBA" unicode="&#x1eba;" horiz-adv-x="549" 
d="M64 730h446v-82h-320v-232h247v-81h-247v-253h320v-82h-432v666zM279 770l-12 88q7 -1 14.5 -2.5t15.5 -1.5q17 0 30.5 7.5t13.5 28.5q0 16 -11.5 23t-27.5 7q-14 0 -28.5 -4t-27.5 -13l-24 47q22 15 47.5 22.5t50.5 7.5q41 0 71.5 -20.5t30.5 -58.5q0 -40 -26.5 -61.5
t-66.5 -23.5l-8 -46h-42z" />
    <glyph glyph-name="uni1EBB" unicode="&#x1ebb;" horiz-adv-x="494" 
d="M268 510q64 0 106.5 -27t63 -72t20.5 -101q0 -15 -1.5 -31t-4.5 -32h-311q0 -89 40 -137t107 -48q29 0 61 9.5t67 28.5l32 -57q-35 -28 -82 -41.5t-91 -13.5q-58 0 -103 20t-75 55.5t-45.5 82t-15.5 98.5q0 51 15 98.5t44.5 85.5t72.5 60t100 22zM261 439
q-33 0 -57.5 -18.5t-39 -47t-18.5 -57.5h209q3 36 -7.5 64t-32.5 43.5t-54 15.5zM245 547l-12 88q7 -2 14.5 -3t15.5 -1q17 0 30.5 7.5t13.5 28.5q0 16 -11.5 23t-27.5 7q-14 0 -28.5 -4.5t-27.5 -12.5l-24 46q22 15 47.5 22.5t50.5 7.5q41 0 71.5 -20t30.5 -58
q0 -40 -26.5 -61.5t-66.5 -23.5l-8 -46h-42z" />
    <glyph glyph-name="uni1EBC" unicode="&#x1ebc;" horiz-adv-x="549" 
d="M64 730h446v-82h-320v-232h247v-81h-247v-253h320v-82h-432v666zM459 892q-1 -27 -12.5 -51t-31.5 -40t-50 -16q-27 0 -51 10t-45.5 20t-44.5 10q-13 0 -23 -8t-13 -21h-56q2 28 14 52.5t33.5 39.5t51.5 15q27 0 50.5 -9.5t44.5 -19.5t41 -10q12 0 23.5 7.5t14.5 20.5h54
z" />
    <glyph glyph-name="uni1EBD" unicode="&#x1ebd;" horiz-adv-x="494" 
d="M268 510q64 0 106.5 -27t63 -72t20.5 -101q0 -15 -1.5 -31t-4.5 -32h-311q0 -89 40 -137t107 -48q29 0 61 9.5t67 28.5l32 -57q-35 -28 -82 -41.5t-91 -13.5q-58 0 -103 20t-75 55.5t-45.5 82t-15.5 98.5q0 51 15 98.5t44.5 85.5t72.5 60t100 22zM261 439
q-33 0 -57.5 -18.5t-39 -47t-18.5 -57.5h209q3 36 -7.5 64t-32.5 43.5t-54 15.5zM426 703q-1 -26 -12.5 -50.5t-31.5 -40t-50 -15.5q-27 0 -51 10t-45.5 19.5t-44.5 9.5q-13 0 -23 -8t-13 -20h-56q2 28 14 52t33.5 39.5t51.5 15.5q27 0 50.5 -10t44.5 -20t41 -10
q12 0 23.5 7.5t14.5 20.5h54z" />
    <glyph glyph-name="uni1EBE" unicode="&#x1ebe;" horiz-adv-x="549" 
d="M64 730h446v-82h-320v-232h247v-81h-247v-253h320v-82h-432v666zM299 833l-69 -54h-75l99 131h90l103 -131h-77zM317 1041h114l-91 -102h-78z" />
    <glyph glyph-name="uni1EBF" unicode="&#x1ebf;" horiz-adv-x="494" 
d="M268 510q64 0 106.5 -27t63 -72t20.5 -101q0 -15 -1.5 -31t-4.5 -32h-311q0 -89 40 -137t107 -48q29 0 61 9.5t67 28.5l32 -57q-35 -28 -82 -41.5t-91 -13.5q-58 0 -103 20t-75 55.5t-45.5 82t-15.5 98.5q0 51 15 98.5t44.5 85.5t72.5 60t100 22zM261 439
q-33 0 -57.5 -18.5t-39 -47t-18.5 -57.5h209q3 36 -7.5 64t-32.5 43.5t-54 15.5zM266 653l-69 -73h-75l99 150h90l103 -151h-77zM287 888h122l-105 -117h-78z" />
    <glyph glyph-name="uni1EC0" unicode="&#x1ec0;" horiz-adv-x="549" 
d="M64 730h446v-82h-320v-232h247v-81h-247v-253h320v-82h-432v666zM299 833l-71 -54h-77l103 131h89l100 -131h-75zM281 1041l55 -102h-78l-91 102h114z" />
    <glyph glyph-name="uni1EC1" unicode="&#x1ec1;" horiz-adv-x="494" 
d="M268 510q64 0 106.5 -27t63 -72t20.5 -101q0 -15 -1.5 -31t-4.5 -32h-311q0 -89 40 -137t107 -48q29 0 61 9.5t67 28.5l32 -57q-35 -28 -82 -41.5t-91 -13.5q-58 0 -103 20t-75 55.5t-45.5 82t-15.5 98.5q0 51 15 98.5t44.5 85.5t72.5 60t100 22zM261 439
q-33 0 -57.5 -18.5t-39 -47t-18.5 -57.5h209q3 36 -7.5 64t-32.5 43.5t-54 15.5zM266 653l-71 -74h-77l103 151h89l100 -150h-75zM244 889l62 -118h-79l-104 118h121z" />
    <glyph glyph-name="uni1EC2" unicode="&#x1ec2;" horiz-adv-x="549" 
d="M64 730h446v-82h-320v-232h247v-81h-247v-253h320v-82h-432v666zM299 833l-69 -54h-75l99 131h90l103 -131h-77zM279 930l-11 79q6 -1 13 -2.5t14 -1.5q15 0 27 7t12 26q0 15 -9.5 21.5t-25.5 6.5q-12 0 -25.5 -4.5t-25.5 -11.5l-21 42q20 14 43 21t46 7q38 0 65 -18.5
t27 -53.5q0 -36 -24 -55.5t-60 -21.5l-7 -41h-38z" />
    <glyph glyph-name="uni1EC3" unicode="&#x1ec3;" horiz-adv-x="494" 
d="M268 510q64 0 106.5 -27t63 -72t20.5 -101q0 -15 -1.5 -31t-4.5 -32h-311q0 -89 40 -137t107 -48q29 0 61 9.5t67 28.5l32 -57q-35 -28 -82 -41.5t-91 -13.5q-58 0 -103 20t-75 55.5t-45.5 82t-15.5 98.5q0 51 15 98.5t44.5 85.5t72.5 60t100 22zM261 439
q-33 0 -57.5 -18.5t-39 -47t-18.5 -57.5h209q3 36 -7.5 64t-32.5 43.5t-54 15.5zM266 653l-69 -73h-75l99 150h90l103 -151h-77zM246 760l-11 79q6 -1 13 -2t14 -1q15 0 27.5 6.5t12.5 25.5q0 15 -10 21.5t-26 6.5q-12 0 -25.5 -4.5t-25.5 -11.5l-21 42q41 28 90 28
q37 0 64.5 -18.5t27.5 -53.5q0 -36 -24 -55.5t-60 -21.5l-7 -41h-39z" />
    <glyph glyph-name="uni1EC4" unicode="&#x1ec4;" horiz-adv-x="549" 
d="M64 730h446v-82h-320v-232h247v-81h-247v-253h320v-82h-432v666zM299 833l-69 -54h-75l100 131h89l103 -131h-77zM445 1049q-1 -42 -22 -74.5t-65 -32.5q-27 0 -44.5 10t-33 20t-38.5 10q-13 0 -20.5 -8.5t-9.5 -20.5h-55q1 44 23.5 75.5t68.5 31.5q27 0 44 -9.5
t32 -19.5t35 -10q12 0 20 7.5t11 20.5h54z" />
    <glyph glyph-name="uni1EC5" unicode="&#x1ec5;" horiz-adv-x="494" 
d="M268 510q64 0 106.5 -27t63 -72t20.5 -101q0 -15 -1.5 -31t-4.5 -32h-311q0 -89 40 -137t107 -48q29 0 61 9.5t67 28.5l32 -57q-35 -28 -82 -41.5t-91 -13.5q-58 0 -103 20t-75 55.5t-45.5 82t-15.5 98.5q0 51 15 98.5t44.5 85.5t72.5 60t100 22zM261 439
q-33 0 -57.5 -18.5t-39 -47t-18.5 -57.5h209q3 36 -7.5 64t-32.5 43.5t-54 15.5zM265 653l-69 -73h-75l100 150h89l103 -151h-77zM414 869q-1 -41 -22 -73.5t-65 -32.5q-27 0 -44.5 10t-33 19.5t-38.5 9.5q-13 0 -20.5 -8t-9.5 -20h-55q1 44 23.5 75.5t68.5 31.5
q27 0 44 -9.5t32 -19.5t35 -10q12 0 20 7.5t11 19.5h54z" />
    <glyph glyph-name="uni1EC6" unicode="&#x1ec6;" horiz-adv-x="549" 
d="M64 730h446v-82h-320v-232h247v-81h-247v-253h320v-82h-432v666zM299 833l-71 -54h-76l102 131h89l101 -131h-76zM370 -125q0 -24 -18 -42t-42 -18t-41.5 18t-17.5 42t17.5 41.5t41.5 17.5q25 0 42.5 -17t17.5 -42z" />
    <glyph glyph-name="uni1EC7" unicode="&#x1ec7;" horiz-adv-x="494" 
d="M268 510q64 0 106.5 -27t63 -72t20.5 -101q0 -15 -1.5 -31t-4.5 -32h-311q0 -89 40 -137t107 -48q29 0 61 9.5t67 28.5l32 -57q-35 -28 -82 -41.5t-91 -13.5q-58 0 -103 20t-75 55.5t-45.5 82t-15.5 98.5q0 51 15 98.5t44.5 85.5t72.5 60t100 22zM261 439
q-33 0 -57.5 -18.5t-39 -47t-18.5 -57.5h209q3 36 -7.5 64t-32.5 43.5t-54 15.5zM268 653l-69 -73h-75l99 150h90l103 -151h-77zM319 -125q0 -24 -18 -42t-42 -18t-41.5 18t-17.5 42t17.5 41.5t41.5 17.5q25 0 42.5 -17t17.5 -42z" />
    <glyph glyph-name="uni1EC8" unicode="&#x1ec8;" horiz-adv-x="268" 
d="M64 730h126v-730h-112v666q0 1 -3.5 15.5t-6.5 30t-4 18.5zM114 770l-12 88q7 -1 14.5 -2.5t15.5 -1.5q17 0 30.5 7.5t13.5 28.5q0 16 -11.5 23t-27.5 7q-14 0 -28.5 -4t-27.5 -13l-24 47q22 15 47.5 22.5t50.5 7.5q41 0 71.5 -20.5t30.5 -58.5q0 -40 -26.5 -61.5
t-66.5 -23.5l-8 -46h-42z" />
    <glyph glyph-name="uni1EC9" unicode="&#x1ec9;" horiz-adv-x="252" 
d="M76 440q0 1 -3 14t-5.5 26.5t-3.5 16.5h111v-497h-99v440zM105 547l-12 88q7 -2 14.5 -3t15.5 -1q17 0 30.5 7.5t13.5 28.5q0 16 -11.5 23t-27.5 7q-14 0 -28.5 -4.5t-27.5 -12.5l-24 46q22 15 47.5 22.5t50.5 7.5q41 0 71.5 -20t30.5 -58q0 -40 -26.5 -61.5t-66.5 -23.5
l-8 -46h-42z" />
    <glyph glyph-name="uni1ECA" unicode="&#x1eca;" horiz-adv-x="268" 
d="M64 730h126v-730h-112v666q0 1 -3.5 15.5t-6.5 30t-4 18.5zM196 -125q0 -24 -18 -42t-42 -18t-41.5 18t-17.5 42t17.5 41.5t41.5 17.5q25 0 42.5 -17t17.5 -42z" />
    <glyph glyph-name="uni1ECB" unicode="&#x1ecb;" horiz-adv-x="251" 
d="M192 670q0 -28 -19 -48t-48 -20q-28 0 -47.5 20t-19.5 48t19.5 47.5t47.5 19.5t47.5 -19.5t19.5 -47.5zM175 497v-497h-99v440l-12 57h111zM185 -125q0 -24 -18 -42t-42 -18t-41.5 18t-17.5 42t17.5 41.5t41.5 17.5q25 0 42.5 -17t17.5 -42z" />
    <glyph glyph-name="uni1ECC" unicode="&#x1ecc;" horiz-adv-x="737" 
d="M367 -11q-83 0 -145 29.5t-103.5 81.5t-62.5 120t-21 145t20.5 145t62.5 119.5t104.5 81t145.5 29.5t146 -29t104.5 -81t62.5 -120t21 -146t-21.5 -146t-64 -119.5t-105 -80.5t-144.5 -29zM369 68q61 0 102.5 26t66 69t35.5 95t11 104t-10.5 104.5t-35.5 96t-67 70.5
t-103 27t-102.5 -26t-65.5 -69.5t-35 -95.5t-11 -103q0 -52 11 -104.5t35 -96t66 -70.5t103 -27zM442 -125q0 -24 -18 -42t-42 -18t-41.5 18t-17.5 42t17.5 41.5t41.5 17.5q25 0 42.5 -17t17.5 -42z" />
    <glyph glyph-name="uni1ECD" unicode="&#x1ecd;" horiz-adv-x="537" 
d="M265 -13q-74 0 -125 36t-77.5 94.5t-26.5 127.5q0 52 16 99.5t46.5 84.5t74 58.5t98.5 21.5q75 0 126 -35t77 -94t26 -129q0 -52 -16 -99.5t-45.5 -84t-73.5 -58.5t-100 -22zM266 58q37 0 62 18t39.5 47t20.5 62t6 63q0 31 -5.5 64t-18.5 62t-37.5 46.5t-62.5 17.5
q-37 0 -61.5 -18t-39 -47t-20.5 -62.5t-6 -62.5t5.5 -62t19.5 -62.5t38 -47.5t60 -18zM328 -125q0 -24 -18 -42t-42 -18t-41.5 18t-17.5 42t17.5 41.5t41.5 17.5q25 0 42.5 -17t17.5 -42z" />
    <glyph glyph-name="uni1ECE" unicode="&#x1ece;" horiz-adv-x="737" 
d="M367 -11q-83 0 -145 29.5t-103.5 81.5t-62.5 120t-21 145t20.5 145t62.5 119.5t104.5 81t145.5 29.5t146 -29t104.5 -81t62.5 -120t21 -146t-21.5 -146t-64 -119.5t-105 -80.5t-144.5 -29zM369 68q61 0 102.5 26t66 69t35.5 95t11 104t-10.5 104.5t-35.5 96t-67 70.5
t-103 27t-102.5 -26t-65.5 -69.5t-35 -95.5t-11 -103q0 -52 11 -104.5t35 -96t66 -70.5t103 -27zM349 770l-12 88q7 -1 14.5 -2.5t15.5 -1.5q17 0 30.5 7.5t13.5 28.5q0 16 -11.5 23t-27.5 7q-14 0 -28.5 -4t-27.5 -13l-24 47q22 15 47.5 22.5t50.5 7.5q41 0 71.5 -20.5
t30.5 -58.5q0 -40 -26.5 -61.5t-66.5 -23.5l-8 -46h-42z" />
    <glyph glyph-name="uni1ECF" unicode="&#x1ecf;" horiz-adv-x="537" 
d="M265 -13q-74 0 -125 36t-77.5 94.5t-26.5 127.5q0 52 16 99.5t46.5 84.5t74 58.5t98.5 21.5q75 0 126 -35t77 -94t26 -129q0 -52 -16 -99.5t-45.5 -84t-73.5 -58.5t-100 -22zM266 58q37 0 62 18t39.5 47t20.5 62t6 63q0 31 -5.5 64t-18.5 62t-37.5 46.5t-62.5 17.5
q-37 0 -61.5 -18t-39 -47t-20.5 -62.5t-6 -62.5t5.5 -62t19.5 -62.5t38 -47.5t60 -18zM246 547l-12 88q7 -2 14.5 -3t15.5 -1q17 0 30.5 7.5t13.5 28.5q0 16 -11.5 23t-27.5 7q-14 0 -28.5 -4.5t-27.5 -12.5l-24 46q22 15 47.5 22.5t50.5 7.5q41 0 71.5 -20t30.5 -58
q0 -40 -26.5 -61.5t-66.5 -23.5l-8 -46h-42z" />
    <glyph glyph-name="uni1ED0" unicode="&#x1ed0;" horiz-adv-x="737" 
d="M367 -11q-83 0 -145 29.5t-103.5 81.5t-62.5 120t-21 145t20.5 145t62.5 119.5t104.5 81t145.5 29.5t146 -29t104.5 -81t62.5 -120t21 -146t-21.5 -146t-64 -119.5t-105 -80.5t-144.5 -29zM369 68q61 0 102.5 26t66 69t35.5 95t11 104t-10.5 104.5t-35.5 96t-67 70.5
t-103 27t-102.5 -26t-65.5 -69.5t-35 -95.5t-11 -103q0 -52 11 -104.5t35 -96t66 -70.5t103 -27zM369 833l-69 -54h-75l99 131h90l103 -131h-77zM387 1041h114l-91 -102h-78z" />
    <glyph glyph-name="uni1ED1" unicode="&#x1ed1;" horiz-adv-x="537" 
d="M265 -13q-74 0 -125 36t-77.5 94.5t-26.5 127.5q0 52 16 99.5t46.5 84.5t74 58.5t98.5 21.5q75 0 126 -35t77 -94t26 -129q0 -52 -16 -99.5t-45.5 -84t-73.5 -58.5t-100 -22zM266 58q37 0 62 18t39.5 47t20.5 62t6 63q0 31 -5.5 64t-18.5 62t-37.5 46.5t-62.5 17.5
q-37 0 -61.5 -18t-39 -47t-20.5 -62.5t-6 -62.5t5.5 -62t19.5 -62.5t38 -47.5t60 -18zM266 653l-69 -73h-75l99 150h90l103 -151h-77zM287 888h122l-105 -117h-78z" />
    <glyph glyph-name="uni1ED2" unicode="&#x1ed2;" horiz-adv-x="737" 
d="M367 -11q-83 0 -145 29.5t-103.5 81.5t-62.5 120t-21 145t20.5 145t62.5 119.5t104.5 81t145.5 29.5t146 -29t104.5 -81t62.5 -120t21 -146t-21.5 -146t-64 -119.5t-105 -80.5t-144.5 -29zM369 68q61 0 102.5 26t66 69t35.5 95t11 104t-10.5 104.5t-35.5 96t-67 70.5
t-103 27t-102.5 -26t-65.5 -69.5t-35 -95.5t-11 -103q0 -52 11 -104.5t35 -96t66 -70.5t103 -27zM369 833l-71 -54h-77l103 131h89l100 -131h-75zM351 1041l55 -102h-78l-91 102h114z" />
    <glyph glyph-name="uni1ED3" unicode="&#x1ed3;" horiz-adv-x="537" 
d="M265 -13q-74 0 -125 36t-77.5 94.5t-26.5 127.5q0 52 16 99.5t46.5 84.5t74 58.5t98.5 21.5q75 0 126 -35t77 -94t26 -129q0 -52 -16 -99.5t-45.5 -84t-73.5 -58.5t-100 -22zM266 58q37 0 62 18t39.5 47t20.5 62t6 63q0 31 -5.5 64t-18.5 62t-37.5 46.5t-62.5 17.5
q-37 0 -61.5 -18t-39 -47t-20.5 -62.5t-6 -62.5t5.5 -62t19.5 -62.5t38 -47.5t60 -18zM266 653l-71 -74h-77l103 151h89l100 -150h-75zM244 889l62 -118h-79l-104 118h121z" />
    <glyph glyph-name="uni1ED4" unicode="&#x1ed4;" horiz-adv-x="737" 
d="M367 -11q-83 0 -145 29.5t-103.5 81.5t-62.5 120t-21 145t20.5 145t62.5 119.5t104.5 81t145.5 29.5t146 -29t104.5 -81t62.5 -120t21 -146t-21.5 -146t-64 -119.5t-105 -80.5t-144.5 -29zM369 68q61 0 102.5 26t66 69t35.5 95t11 104t-10.5 104.5t-35.5 96t-67 70.5
t-103 27t-102.5 -26t-65.5 -69.5t-35 -95.5t-11 -103q0 -52 11 -104.5t35 -96t66 -70.5t103 -27zM368 833l-69 -54h-75l99 131h90l103 -131h-77zM348 930l-11 79q6 -1 13 -2.5t14 -1.5q15 0 27 7t12 26q0 15 -9.5 21.5t-25.5 6.5q-12 0 -25.5 -4.5t-25.5 -11.5l-21 42
q20 14 43 21t46 7q38 0 65 -18.5t27 -53.5q0 -36 -24 -55.5t-60 -21.5l-7 -41h-38z" />
    <glyph glyph-name="uni1ED5" unicode="&#x1ed5;" horiz-adv-x="537" 
d="M265 -13q-74 0 -125 36t-77.5 94.5t-26.5 127.5q0 52 16 99.5t46.5 84.5t74 58.5t98.5 21.5q75 0 126 -35t77 -94t26 -129q0 -52 -16 -99.5t-45.5 -84t-73.5 -58.5t-100 -22zM266 58q37 0 62 18t39.5 47t20.5 62t6 63q0 31 -5.5 64t-18.5 62t-37.5 46.5t-62.5 17.5
q-37 0 -61.5 -18t-39 -47t-20.5 -62.5t-6 -62.5t5.5 -62t19.5 -62.5t38 -47.5t60 -18zM266 653l-69 -73h-75l99 150h90l103 -151h-77zM246 760l-11 79q6 -1 13 -2t14 -1q15 0 27.5 6.5t12.5 25.5q0 15 -10 21.5t-26 6.5q-12 0 -25.5 -4.5t-25.5 -11.5l-21 42q41 28 90 28
q37 0 64.5 -18.5t27.5 -53.5q0 -36 -24 -55.5t-60 -21.5l-7 -41h-39z" />
    <glyph glyph-name="uni1ED6" unicode="&#x1ed6;" horiz-adv-x="737" 
d="M367 -11q-83 0 -145 29.5t-103.5 81.5t-62.5 120t-21 145t20.5 145t62.5 119.5t104.5 81t145.5 29.5t146 -29t104.5 -81t62.5 -120t21 -146t-21.5 -146t-64 -119.5t-105 -80.5t-144.5 -29zM369 68q61 0 102.5 26t66 69t35.5 95t11 104t-10.5 104.5t-35.5 96t-67 70.5
t-103 27t-102.5 -26t-65.5 -69.5t-35 -95.5t-11 -103q0 -52 11 -104.5t35 -96t66 -70.5t103 -27zM369 833l-69 -54h-75l100 131h89l103 -131h-77zM515 1049q-1 -42 -22 -74.5t-65 -32.5q-27 0 -44.5 10t-33 20t-38.5 10q-13 0 -20.5 -8.5t-9.5 -20.5h-55q1 44 23.5 75.5
t68.5 31.5q27 0 44 -9.5t32 -19.5t35 -10q12 0 20 7.5t11 20.5h54z" />
    <glyph glyph-name="uni1ED7" unicode="&#x1ed7;" horiz-adv-x="537" 
d="M265 -13q-74 0 -125 36t-77.5 94.5t-26.5 127.5q0 52 16 99.5t46.5 84.5t74 58.5t98.5 21.5q75 0 126 -35t77 -94t26 -129q0 -52 -16 -99.5t-45.5 -84t-73.5 -58.5t-100 -22zM266 58q37 0 62 18t39.5 47t20.5 62t6 63q0 31 -5.5 64t-18.5 62t-37.5 46.5t-62.5 17.5
q-37 0 -61.5 -18t-39 -47t-20.5 -62.5t-6 -62.5t5.5 -62t19.5 -62.5t38 -47.5t60 -18zM266 653l-69 -73h-75l100 150h89l103 -151h-77zM415 869q-1 -41 -22 -73.5t-65 -32.5q-27 0 -44.5 10t-33 19.5t-38.5 9.5q-13 0 -20.5 -8t-9.5 -20h-55q1 44 23.5 75.5t68.5 31.5
q27 0 44 -9.5t32 -19.5t35 -10q12 0 20 7.5t11 19.5h54z" />
    <glyph glyph-name="uni1ED8" unicode="&#x1ed8;" horiz-adv-x="737" 
d="M367 -11q-83 0 -145 29.5t-103.5 81.5t-62.5 120t-21 145t20.5 145t62.5 119.5t104.5 81t145.5 29.5t146 -29t104.5 -81t62.5 -120t21 -146t-21.5 -146t-64 -119.5t-105 -80.5t-144.5 -29zM369 68q61 0 102.5 26t66 69t35.5 95t11 104t-10.5 104.5t-35.5 96t-67 70.5
t-103 27t-102.5 -26t-65.5 -69.5t-35 -95.5t-11 -103q0 -52 11 -104.5t35 -96t66 -70.5t103 -27zM369 833l-71 -54h-76l102 131h89l101 -131h-76zM442 -125q0 -24 -18 -42t-42 -18t-41.5 18t-17.5 42t17.5 41.5t41.5 17.5q25 0 42.5 -17t17.5 -42z" />
    <glyph glyph-name="uni1ED9" unicode="&#x1ed9;" horiz-adv-x="537" 
d="M265 -13q-74 0 -125 36t-77.5 94.5t-26.5 127.5q0 52 16 99.5t46.5 84.5t74 58.5t98.5 21.5q75 0 126 -35t77 -94t26 -129q0 -52 -16 -99.5t-45.5 -84t-73.5 -58.5t-100 -22zM266 58q37 0 62 18t39.5 47t20.5 62t6 63q0 31 -5.5 64t-18.5 62t-37.5 46.5t-62.5 17.5
q-37 0 -61.5 -18t-39 -47t-20.5 -62.5t-6 -62.5t5.5 -62t19.5 -62.5t38 -47.5t60 -18zM268 653l-69 -73h-75l99 150h90l103 -151h-77zM328 -125q0 -24 -18 -42t-42 -18t-41.5 18t-17.5 42t17.5 41.5t41.5 17.5q25 0 42.5 -17t17.5 -42z" />
    <glyph glyph-name="uni1EDA" unicode="&#x1eda;" horiz-adv-x="737" 
d="M367 -11q-83 0 -145 29.5t-103.5 81.5t-62.5 120t-21 145t20.5 145t62.5 119.5t104.5 81t145.5 29.5t146 -29t104.5 -81t62.5 -120t21 -146t-21.5 -146t-64 -119.5t-105 -80.5t-144.5 -29zM369 68q61 0 102.5 26t66 69t35.5 95t11 104t-10.5 104.5t-35.5 96t-67 70.5
t-103 27t-102.5 -26t-65.5 -69.5t-35 -95.5t-11 -103q0 -52 11 -104.5t35 -96t66 -70.5t103 -27zM485 722q48 -15 77.5 1t41 51t6.5 77h106q4 -37 -7 -76.5t-38.5 -70.5t-73 -44.5t-112.5 -0.5v63zM426 913h133l-145 -137h-89z" />
    <glyph glyph-name="uni1EDB" unicode="&#x1edb;" horiz-adv-x="537" 
d="M265 -13q-74 0 -125 36t-77.5 94.5t-26.5 127.5q0 52 16 99.5t46.5 84.5t74 58.5t98.5 21.5q75 0 126 -35t77 -94t26 -129q0 -52 -16 -99.5t-45.5 -84t-73.5 -58.5t-100 -22zM266 58q37 0 62 18t39.5 47t20.5 62t6 63q0 31 -5.5 64t-18.5 62t-37.5 46.5t-62.5 17.5
q-37 0 -61.5 -18t-39 -47t-20.5 -62.5t-6 -62.5t5.5 -62t19.5 -62.5t38 -47.5t60 -18zM348 496q38 -15 63 -2t36 45t6 74h106q2 -37 -9.5 -74t-37.5 -65.5t-66.5 -39.5t-97.5 2v60zM322 734h132l-144 -158h-89z" />
    <glyph glyph-name="uni1EDC" unicode="&#x1edc;" horiz-adv-x="737" 
d="M367 -11q-83 0 -145 29.5t-103.5 81.5t-62.5 120t-21 145t20.5 145t62.5 119.5t104.5 81t145.5 29.5t146 -29t104.5 -81t62.5 -120t21 -146t-21.5 -146t-64 -119.5t-105 -80.5t-144.5 -29zM369 68q61 0 102.5 26t66 69t35.5 95t11 104t-10.5 104.5t-35.5 96t-67 70.5
t-103 27t-102.5 -26t-65.5 -69.5t-35 -95.5t-11 -103q0 -52 11 -104.5t35 -96t66 -70.5t103 -27zM485 722q48 -15 77.5 1t41 51t6.5 77h106q4 -37 -7 -76.5t-38.5 -70.5t-73 -44.5t-112.5 -0.5v63zM314 913l102 -137h-89l-145 137h132z" />
    <glyph glyph-name="uni1EDD" unicode="&#x1edd;" horiz-adv-x="537" 
d="M265 -13q-74 0 -125 36t-77.5 94.5t-26.5 127.5q0 52 16 99.5t46.5 84.5t74 58.5t98.5 21.5q75 0 126 -35t77 -94t26 -129q0 -52 -16 -99.5t-45.5 -84t-73.5 -58.5t-100 -22zM266 58q37 0 62 18t39.5 47t20.5 62t6 63q0 31 -5.5 64t-18.5 62t-37.5 46.5t-62.5 17.5
q-37 0 -61.5 -18t-39 -47t-20.5 -62.5t-6 -62.5t5.5 -62t19.5 -62.5t38 -47.5t60 -18zM348 496q38 -15 63 -2t36 45t6 74h106q2 -37 -9.5 -74t-37.5 -65.5t-66.5 -39.5t-97.5 2v60zM210 734l101 -158h-88l-145 158h132z" />
    <glyph glyph-name="uni1EDE" unicode="&#x1ede;" horiz-adv-x="737" 
d="M367 -11q-83 0 -145 29.5t-103.5 81.5t-62.5 120t-21 145t20.5 145t62.5 119.5t104.5 81t145.5 29.5t146 -29t104.5 -81t62.5 -120t21 -146t-21.5 -146t-64 -119.5t-105 -80.5t-144.5 -29zM369 68q61 0 102.5 26t66 69t35.5 95t11 104t-10.5 104.5t-35.5 96t-67 70.5
t-103 27t-102.5 -26t-65.5 -69.5t-35 -95.5t-11 -103q0 -52 11 -104.5t35 -96t66 -70.5t103 -27zM485 722q48 -15 77.5 1t41 51t6.5 77h106q4 -37 -7 -76.5t-38.5 -70.5t-73 -44.5t-112.5 -0.5v63zM349 770l-12 88q7 -1 14.5 -2.5t15.5 -1.5q17 0 30.5 7.5t13.5 28.5
q0 16 -11.5 23t-27.5 7q-14 0 -28.5 -4t-27.5 -13l-24 47q22 15 47.5 22.5t50.5 7.5q41 0 71.5 -20.5t30.5 -58.5q0 -40 -26.5 -61.5t-66.5 -23.5l-8 -46h-42z" />
    <glyph glyph-name="uni1EDF" unicode="&#x1edf;" horiz-adv-x="537" 
d="M265 -13q-74 0 -125 36t-77.5 94.5t-26.5 127.5q0 52 16 99.5t46.5 84.5t74 58.5t98.5 21.5q75 0 126 -35t77 -94t26 -129q0 -52 -16 -99.5t-45.5 -84t-73.5 -58.5t-100 -22zM266 58q37 0 62 18t39.5 47t20.5 62t6 63q0 31 -5.5 64t-18.5 62t-37.5 46.5t-62.5 17.5
q-37 0 -61.5 -18t-39 -47t-20.5 -62.5t-6 -62.5t5.5 -62t19.5 -62.5t38 -47.5t60 -18zM348 496q38 -15 63 -2t36 45t6 74h106q2 -37 -9.5 -74t-37.5 -65.5t-66.5 -39.5t-97.5 2v60zM246 547l-12 88q7 -2 14.5 -3t15.5 -1q17 0 30.5 7.5t13.5 28.5q0 16 -11.5 23t-27.5 7
q-14 0 -28.5 -4.5t-27.5 -12.5l-24 46q22 15 47.5 22.5t50.5 7.5q41 0 71.5 -20t30.5 -58q0 -40 -26.5 -61.5t-66.5 -23.5l-8 -46h-42z" />
    <glyph glyph-name="uni1EE0" unicode="&#x1ee0;" horiz-adv-x="737" 
d="M367 -11q-83 0 -145 29.5t-103.5 81.5t-62.5 120t-21 145t20.5 145t62.5 119.5t104.5 81t145.5 29.5t146 -29t104.5 -81t62.5 -120t21 -146t-21.5 -146t-64 -119.5t-105 -80.5t-144.5 -29zM369 68q61 0 102.5 26t66 69t35.5 95t11 104t-10.5 104.5t-35.5 96t-67 70.5
t-103 27t-102.5 -26t-65.5 -69.5t-35 -95.5t-11 -103q0 -52 11 -104.5t35 -96t66 -70.5t103 -27zM485 722q48 -15 77.5 1t41 51t6.5 77h106q4 -37 -7 -76.5t-38.5 -70.5t-73 -44.5t-112.5 -0.5v63zM529 892q-1 -27 -12.5 -51t-31.5 -40t-50 -16q-27 0 -51 10t-45.5 20
t-44.5 10q-13 0 -23 -8t-13 -21h-56q2 28 14 52.5t33.5 39.5t51.5 15q27 0 50.5 -9.5t44.5 -19.5t41 -10q12 0 23.5 7.5t14.5 20.5h54z" />
    <glyph glyph-name="uni1EE1" unicode="&#x1ee1;" horiz-adv-x="537" 
d="M265 -13q-74 0 -125 36t-77.5 94.5t-26.5 127.5q0 52 16 99.5t46.5 84.5t74 58.5t98.5 21.5q75 0 126 -35t77 -94t26 -129q0 -52 -16 -99.5t-45.5 -84t-73.5 -58.5t-100 -22zM266 58q37 0 62 18t39.5 47t20.5 62t6 63q0 31 -5.5 64t-18.5 62t-37.5 46.5t-62.5 17.5
q-37 0 -61.5 -18t-39 -47t-20.5 -62.5t-6 -62.5t5.5 -62t19.5 -62.5t38 -47.5t60 -18zM348 496q38 -15 63 -2t36 45t6 74h106q2 -37 -9.5 -74t-37.5 -65.5t-66.5 -39.5t-97.5 2v60zM426 703q-1 -26 -12.5 -50.5t-31.5 -40t-50 -15.5q-27 0 -51 10t-45.5 19.5t-44.5 9.5
q-13 0 -23 -8t-13 -20h-56q2 28 14 52t33.5 39.5t51.5 15.5q27 0 50.5 -10t44.5 -20t41 -10q12 0 23.5 7.5t14.5 20.5h54z" />
    <glyph glyph-name="uni1EE2" unicode="&#x1ee2;" horiz-adv-x="737" 
d="M367 -11q-83 0 -145 29.5t-103.5 81.5t-62.5 120t-21 145t20.5 145t62.5 119.5t104.5 81t145.5 29.5t146 -29t104.5 -81t62.5 -120t21 -146t-21.5 -146t-64 -119.5t-105 -80.5t-144.5 -29zM369 68q61 0 102.5 26t66 69t35.5 95t11 104t-10.5 104.5t-35.5 96t-67 70.5
t-103 27t-102.5 -26t-65.5 -69.5t-35 -95.5t-11 -103q0 -52 11 -104.5t35 -96t66 -70.5t103 -27zM485 722q48 -15 77.5 1t41 51t6.5 77h106q4 -37 -7 -76.5t-38.5 -70.5t-73 -44.5t-112.5 -0.5v63zM442 -125q0 -24 -18 -42t-42 -18t-41.5 18t-17.5 42t17.5 41.5t41.5 17.5
q25 0 42.5 -17t17.5 -42z" />
    <glyph glyph-name="uni1EE3" unicode="&#x1ee3;" horiz-adv-x="537" 
d="M265 -13q-74 0 -125 36t-77.5 94.5t-26.5 127.5q0 52 16 99.5t46.5 84.5t74 58.5t98.5 21.5q75 0 126 -35t77 -94t26 -129q0 -52 -16 -99.5t-45.5 -84t-73.5 -58.5t-100 -22zM266 58q37 0 62 18t39.5 47t20.5 62t6 63q0 31 -5.5 64t-18.5 62t-37.5 46.5t-62.5 17.5
q-37 0 -61.5 -18t-39 -47t-20.5 -62.5t-6 -62.5t5.5 -62t19.5 -62.5t38 -47.5t60 -18zM348 496q38 -15 63 -2t36 45t6 74h106q2 -37 -9.5 -74t-37.5 -65.5t-66.5 -39.5t-97.5 2v60zM328 -125q0 -24 -18 -42t-42 -18t-41.5 18t-17.5 42t17.5 41.5t41.5 17.5q25 0 42.5 -17
t17.5 -42z" />
    <glyph glyph-name="uni1EE4" unicode="&#x1ee4;" horiz-adv-x="707" 
d="M193 730v-486q0 -80 42.5 -128t125.5 -48q57 0 96.5 23t60 64.5t20.5 97.5v477h92v-464q0 -92 -34 -154t-96.5 -93t-146.5 -31q-131 0 -203 69.5t-72 200.5v408l-15 64h130zM416 -125q0 -24 -18 -42t-42 -18t-41.5 18t-17.5 42t17.5 41.5t41.5 17.5q25 0 42.5 -17
t17.5 -42z" />
    <glyph glyph-name="uni1EE5" unicode="&#x1ee5;" horiz-adv-x="553" 
d="M174 497v-310q0 -26 4.5 -53.5t20.5 -45.5t50 -18q33 0 61 14t45 40t17 60v256q0 1 -3 14t-5.5 27t-3.5 16h112v-387q0 -22 7 -32t22 -10q14 0 38 9l19 -60q-21 -11 -46.5 -18.5t-49.5 -7.5q-28 0 -50.5 15t-29.5 53q-30 -31 -71 -51.5t-86 -20.5q-56 0 -89 22.5
t-47.5 62t-14.5 91.5v277l-12 57h112zM335 -125q0 -24 -18 -42t-42 -18t-41.5 18t-17.5 42t17.5 41.5t41.5 17.5q25 0 42.5 -17t17.5 -42z" />
    <glyph glyph-name="uni1EE6" unicode="&#x1ee6;" horiz-adv-x="707" 
d="M193 730v-486q0 -80 42.5 -128t125.5 -48q57 0 96.5 23t60 64.5t20.5 97.5v477h92v-464q0 -92 -34 -154t-96.5 -93t-146.5 -31q-131 0 -203 69.5t-72 200.5v408l-15 64h130zM342 770l-12 88q7 -1 14.5 -2.5t15.5 -1.5q17 0 30.5 7.5t13.5 28.5q0 16 -11.5 23t-27.5 7
q-14 0 -28.5 -4t-27.5 -13l-24 47q22 15 47.5 22.5t50.5 7.5q41 0 71.5 -20.5t30.5 -58.5q0 -40 -26.5 -61.5t-66.5 -23.5l-8 -46h-42z" />
    <glyph glyph-name="uni1EE7" unicode="&#x1ee7;" horiz-adv-x="553" 
d="M174 497v-310q0 -26 4.5 -53.5t20.5 -45.5t50 -18q33 0 61 14t45 40t17 60v256q0 1 -3 14t-5.5 27t-3.5 16h112v-387q0 -22 7 -32t22 -10q14 0 38 9l19 -60q-21 -11 -46.5 -18.5t-49.5 -7.5q-28 0 -50.5 15t-29.5 53q-30 -31 -71 -51.5t-86 -20.5q-56 0 -89 22.5
t-47.5 62t-14.5 91.5v277l-12 57h112zM253 547l-12 88q7 -2 14.5 -3t15.5 -1q17 0 30.5 7.5t13.5 28.5q0 16 -11.5 23t-27.5 7q-14 0 -28.5 -4.5t-27.5 -12.5l-24 46q22 15 47.5 22.5t50.5 7.5q41 0 71.5 -20t30.5 -58q0 -40 -26.5 -61.5t-66.5 -23.5l-8 -46h-42z" />
    <glyph glyph-name="uni1EE8" unicode="&#x1ee8;" horiz-adv-x="707" 
d="M193 730v-486q0 -80 42.5 -128t125.5 -48q57 0 96.5 23t60 64.5t20.5 97.5v477h92v-464q0 -92 -34 -154t-96.5 -93t-146.5 -31q-131 0 -203 69.5t-72 200.5v408l-15 64h130zM538 737q48 -15 77.5 1t41 51t6.5 77h106q4 -37 -7 -76.5t-38.5 -70.5t-73 -44.5t-112.5 -0.5
v63zM419 913h133l-145 -137h-89z" />
    <glyph glyph-name="uni1EE9" unicode="&#x1ee9;" horiz-adv-x="553" 
d="M225 -13q-56 0 -89 22.5t-47.5 62t-14.5 91.5v277l-12 57h112v-310q0 -26 4.5 -53.5t20.5 -45.5t50 -18q33 0 61 14t45 40t17 60v256l-12 57h112v-385q0 -11 1 -21t6.5 -16.5t15.5 -6.5q4 0 13.5 2.5t19.5 6t14 4.5l19 -61q-25 -7 -52 -18t-53 -11q-31 0 -49.5 20
t-24.5 48q-30 -31 -71 -51.5t-86 -20.5zM373 446l36 51q38 0 56.5 36.5t11.5 88.5h106q3 -37 -8.5 -74t-37.5 -65t-66.5 -39t-97.5 2zM333 734h132l-144 -158h-89z" />
    <glyph glyph-name="uni1EEA" unicode="&#x1eea;" horiz-adv-x="707" 
d="M193 730v-486q0 -80 42.5 -128t125.5 -48q57 0 96.5 23t60 64.5t20.5 97.5v477h92v-464q0 -92 -34 -154t-96.5 -93t-146.5 -31q-131 0 -203 69.5t-72 200.5v408l-15 64h130zM538 737q48 -15 77.5 1t41 51t6.5 77h106q4 -37 -7 -76.5t-38.5 -70.5t-73 -44.5t-112.5 -0.5
v63zM307 913l102 -137h-89l-145 137h132z" />
    <glyph glyph-name="uni1EEB" unicode="&#x1eeb;" horiz-adv-x="553" 
d="M225 -13q-56 0 -89 22.5t-47.5 62t-14.5 91.5v277l-12 57h112v-310q0 -26 4.5 -53.5t20.5 -45.5t50 -18q33 0 61 14t45 40t17 60v256l-12 57h112v-385q0 -11 1 -21t6.5 -16.5t15.5 -6.5q4 0 13.5 2.5t19.5 6t14 4.5l19 -61q-25 -7 -52 -18t-53 -11q-31 0 -49.5 20
t-24.5 48q-30 -31 -71 -51.5t-86 -20.5zM373 446l36 51q38 0 56.5 36.5t11.5 88.5h106q3 -37 -8.5 -74t-37.5 -65t-66.5 -39t-97.5 2zM221 734l101 -158h-88l-145 158h132z" />
    <glyph glyph-name="uni1EEC" unicode="&#x1eec;" horiz-adv-x="707" 
d="M193 730v-486q0 -80 42.5 -128t125.5 -48q57 0 96.5 23t60 64.5t20.5 97.5v477h92v-464q0 -92 -34 -154t-96.5 -93t-146.5 -31q-131 0 -203 69.5t-72 200.5v408l-15 64h130zM538 737q48 -15 77.5 1t41 51t6.5 77h106q4 -37 -7 -76.5t-38.5 -70.5t-73 -44.5t-112.5 -0.5
v63zM342 770l-12 88q7 -1 14.5 -2.5t15.5 -1.5q17 0 30.5 7.5t13.5 28.5q0 16 -11.5 23t-27.5 7q-14 0 -28.5 -4t-27.5 -13l-24 47q22 15 47.5 22.5t50.5 7.5q41 0 71.5 -20.5t30.5 -58.5q0 -40 -26.5 -61.5t-66.5 -23.5l-8 -46h-42z" />
    <glyph glyph-name="uni1EED" unicode="&#x1eed;" horiz-adv-x="553" 
d="M225 -13q-56 0 -89 22.5t-47.5 62t-14.5 91.5v277l-12 57h112v-310q0 -26 4.5 -53.5t20.5 -45.5t50 -18q33 0 61 14t45 40t17 60v256l-12 57h112v-385q0 -11 1 -21t6.5 -16.5t15.5 -6.5q4 0 13.5 2.5t19.5 6t14 4.5l19 -61q-25 -7 -52 -18t-53 -11q-31 0 -49.5 20
t-24.5 48q-30 -31 -71 -51.5t-86 -20.5zM373 446l36 51q38 0 56.5 36.5t11.5 88.5h106q3 -37 -8.5 -74t-37.5 -65t-66.5 -39t-97.5 2zM257 547l-12 88q7 -2 14.5 -3t15.5 -1q17 0 30.5 7.5t13.5 28.5q0 16 -11.5 23t-27.5 7q-14 0 -28.5 -4.5t-27.5 -12.5l-24 46
q22 15 47.5 22.5t50.5 7.5q41 0 71.5 -20t30.5 -58q0 -40 -26.5 -61.5t-66.5 -23.5l-8 -46h-42z" />
    <glyph glyph-name="uni1EEE" unicode="&#x1eee;" horiz-adv-x="707" 
d="M193 730v-486q0 -80 42.5 -128t125.5 -48q57 0 96.5 23t60 64.5t20.5 97.5v477h92v-464q0 -92 -34 -154t-96.5 -93t-146.5 -31q-131 0 -203 69.5t-72 200.5v408l-15 64h130zM538 737q48 -15 77.5 1t41 51t6.5 77h106q4 -37 -7 -76.5t-38.5 -70.5t-73 -44.5t-112.5 -0.5
v63zM522 892q-1 -27 -12.5 -51t-31.5 -40t-50 -16q-27 0 -51 10t-45.5 20t-44.5 10q-13 0 -23 -8t-13 -21h-56q2 28 14 52.5t33.5 39.5t51.5 15q27 0 50.5 -9.5t44.5 -19.5t41 -10q12 0 23.5 7.5t14.5 20.5h54z" />
    <glyph glyph-name="uni1EEF" unicode="&#x1eef;" horiz-adv-x="553" 
d="M225 -13q-56 0 -89 22.5t-47.5 62t-14.5 91.5v277l-12 57h112v-310q0 -26 4.5 -53.5t20.5 -45.5t50 -18q33 0 61 14t45 40t17 60v256l-12 57h112v-385q0 -11 1 -21t6.5 -16.5t15.5 -6.5q4 0 13.5 2.5t19.5 6t14 4.5l19 -61q-25 -7 -52 -18t-53 -11q-31 0 -49.5 20
t-24.5 48q-30 -31 -71 -51.5t-86 -20.5zM373 446l36 51q38 0 56.5 36.5t11.5 88.5h106q3 -37 -8.5 -74t-37.5 -65t-66.5 -39t-97.5 2zM437 703q-1 -26 -12.5 -50.5t-31.5 -40t-50 -15.5q-27 0 -51 10t-45.5 19.5t-44.5 9.5q-13 0 -23 -8t-13 -20h-56q2 28 14 52t33.5 39.5
t51.5 15.5q27 0 50.5 -10t44.5 -20t41 -10q12 0 23.5 7.5t14.5 20.5h54z" />
    <glyph glyph-name="uni1EF0" unicode="&#x1ef0;" horiz-adv-x="707" 
d="M193 730v-486q0 -80 42.5 -128t125.5 -48q57 0 96.5 23t60 64.5t20.5 97.5v477h92v-464q0 -92 -34 -154t-96.5 -93t-146.5 -31q-131 0 -203 69.5t-72 200.5v408l-15 64h130zM538 737q48 -15 77.5 1t41 51t6.5 77h106q4 -37 -7 -76.5t-38.5 -70.5t-73 -44.5t-112.5 -0.5
v63zM416 -125q0 -24 -18 -42t-42 -18t-41.5 18t-17.5 42t17.5 41.5t41.5 17.5q25 0 42.5 -17t17.5 -42z" />
    </font>
</defs>
</svg>
