<?xml version="1.0" standalone="no"?>
<!DOCTYPE svg PUBLIC "-//W3C//DTD SVG 1.1//EN" "http://www.w3.org/Graphics/SVG/1.1/DTD/svg11.dtd" >
<svg xmlns="http://www.w3.org/2000/svg" xmlns:xlink="http://www.w3.org/1999/xlink" version="1.1">
<metadata>
Created by FontForge 20170731 at Wed Sep 15 23:24:54 2021
 By Aleksey,,,
Copyright 2019 The Rosario Project Authors (https://github.com/Omnibus-Type/Rosario)
</metadata>
<defs>
<font id="Rosario-LightItalic" horiz-adv-x="0" >
  <font-face 
    font-family="Rosario Light"
    font-weight="300"
    font-style="italic"
    font-stretch="normal"
    units-per-em="1000"
    panose-1="0 0 0 0 0 0 0 0 0 0"
    ascent="800"
    descent="-200"
    x-height="486"
    cap-height="720"
    bbox="-650 -283 1225 1124"
    underline-thickness="62"
    underline-position="-293"
    slope="-8.05"
    unicode-range="U+000D-FEFF"
  />
<missing-glyph horiz-adv-x="642" 
d="M649 728l-102 -728h-521l102 728h521zM204 676l140 -264l215 264h-355zM306 365l-140 264l-74 -530zM583 629l-214 -264l140 -266zM331 318l-215 -266h355z" />
    <glyph glyph-name="fi" unicode="fi" horiz-adv-x="484" 
d="M-87 -172q61 -11 94 18.5t41 92.5l67 495h-66l7 52q9 0 23 1t26.5 9t16.5 29q11 50 27 93.5t40 77.5t59 53t85 19q35 0 60 -7.5t41.5 -20.5t25.5 -30.5t13 -37.5l-58 -18q-4 25 -15.5 38t-28.5 17.5t-39 4.5q-39 0 -68 -18.5t-48.5 -67.5t-28.5 -142h247l-54 -420l-1 -66
h-71l58 434h-189l-69 -504q-12 -93 -69 -133.5t-139 -21.5z" />
    <glyph glyph-name="fl" unicode="fl" horiz-adv-x="514" 
d="M-87 -172q56 -13 91.5 15.5t43.5 95.5l67 495h-66l7 52q9 0 23 1t26.5 9t16.5 28q11 50 26.5 94.5t40 78.5t60.5 53.5t87 19.5q37 0 59.5 -7.5t33.5 -15.5t12 -10l54 27l-92 -696l-2 -68h-70q1 10 6.5 49.5t14 97t17.5 123.5t18.5 131.5t17 120.5t12 90.5t4.5 40.5
q0 25 -23 44.5t-58 19.5q-31 0 -56 -9t-43 -33.5t-31.5 -70t-22.5 -118.5h109l-8 -52h-109l-71 -504q-13 -94 -71.5 -134.5t-136.5 -20.5z" />
    <glyph glyph-name="f_f" unicode="ff" horiz-adv-x="506" 
d="M-87 -172q40 -7 68 3.5t45 37.5t22 70l67 495h-66l7 52q9 0 23.5 1t27 9t15.5 29q7 50 18.5 94t31 77t51 52t79.5 19q30 0 54.5 -11.5t42.5 -25.5l-34 -48q-11 14 -25.5 23t-29.5 9q-39 0 -62 -18.5t-35 -50.5t-18 -73t-11 -86h262l-7 -52h-262l-69 -502
q-13 -94 -70 -135t-138 -22zM166 -172q40 -7 68 3.5t45 37.5t22 70l67 495h-66l7 52q9 0 23 1t26.5 9t16.5 29q11 50 26.5 94t39.5 77t59.5 52t84.5 19q44 0 64.5 -11t42.5 -26l-34 -48q-11 14 -29 23t-33 9q-48 0 -77.5 -18.5t-45.5 -50.5t-23.5 -73t-12.5 -86h109l-7 -52
h-109l-69 -502q-13 -94 -70 -135t-138 -22z" />
    <glyph glyph-name="f_f_i" unicode="ffi" horiz-adv-x="737" 
d="M-87 -172q40 -7 68 3.5t45 37.5t22 70l67 495h-66l7 52q9 0 23.5 1t27 9t15.5 29q7 50 18.5 94t31 77t51 52t79.5 19q30 0 54.5 -11.5t42.5 -25.5l-34 -48q-11 14 -25.5 23t-29.5 9q-39 0 -62 -18.5t-35 -50.5t-18 -73t-11 -86h262l-7 -52h-262l-69 -502
q-13 -94 -70 -135t-138 -22zM166 -172q61 -11 94 18.5t41 92.5l67 495h-66l7 52q9 0 23 1t26.5 9t16.5 29q11 50 27 93.5t40 77.5t59 53t85 19q35 0 60 -7.5t41.5 -20.5t25.5 -30.5t13 -37.5l-58 -18q-4 25 -15.5 38t-28.5 17.5t-39 4.5q-38 0 -67.5 -18.5t-48.5 -67.5
t-29 -142h247l-54 -420l-1 -66h-71l58 434h-189l-69 -504q-12 -93 -69 -133.5t-139 -21.5z" />
    <glyph glyph-name="f_f_l" unicode="ffl" horiz-adv-x="765" 
d="M-87 -172q40 -7 68 3.5t45 37.5t22 70l67 495h-66l7 52q9 0 23.5 1t27 9t15.5 29q7 50 18.5 94t31 77t51 52t79.5 19q30 0 54.5 -11.5t42.5 -25.5l-34 -48q-11 14 -25.5 23t-29.5 9q-39 0 -62 -18.5t-35 -50.5t-18 -73t-11 -86h262l-7 -52h-262l-69 -502
q-13 -94 -70 -135t-138 -22zM164 -172q56 -13 91.5 15.5t44.5 95.5l67 495h-67l7 52q10 0 23.5 1t26 9t16.5 28q11 50 27 94.5t40.5 78.5t60 53.5t86.5 19.5q37 0 60 -7.5t34 -15.5t12 -10l54 27l-93 -696l-1 -68h-71q2 10 7.5 49.5t13.5 97t17.5 123.5t19 131.5t17 120.5
t12 90.5t4.5 40.5q0 25 -23.5 44.5t-57.5 19.5q-32 0 -56.5 -9t-43 -33.5t-32 -70t-22.5 -118.5h109l-8 -52h-109l-71 -504q-8 -62 -38 -101.5t-74 -53t-96 -0.5z" />
    <glyph glyph-name=".notdef" horiz-adv-x="642" 
d="M649 728l-102 -728h-521l102 728h521zM204 676l140 -264l215 264h-355zM306 365l-140 264l-74 -530zM583 629l-214 -264l140 -266zM331 318l-215 -266h355z" />
    <glyph glyph-name=".null" 
 />
    <glyph glyph-name="nonmarkingreturn" horiz-adv-x="333" 
 />
    <glyph glyph-name="NULL" 
 />
    <glyph glyph-name="NULL" 
 />
    <glyph glyph-name="CR" unicode="&#xd;" horiz-adv-x="234" 
 />
    <glyph glyph-name="space" unicode=" " horiz-adv-x="234" 
 />
    <glyph glyph-name="exclam" unicode="!" horiz-adv-x="246" 
d="M148 726h100l-101 -510h-42zM165 56q0 -28 -22 -49t-48 -21q-23 0 -39 16t-16 38q0 20 10 35.5t26 25t35 9.5q23 0 38.5 -15.5t15.5 -38.5z" />
    <glyph glyph-name="quotedbl" unicode="&#x22;" horiz-adv-x="300" 
d="M114 429h-32l-2 116l25 175h73l-26 -178zM249 429h-32l-3 116l26 175h72l-25 -178z" />
    <glyph glyph-name="numbersign" unicode="#" horiz-adv-x="640" 
d="M427 295h134v-37h-138l-37 -258h-47l36 258h-135l-37 -258h-45l36 258h-139v37h144l17 132h-135v40h141l32 241h48l-34 -241h137l32 241h44l-32 -241h136v-40h-140zM246 295h135l18 132h-137z" />
    <glyph glyph-name="dollar" unicode="$" horiz-adv-x="534" 
d="M346 691q30 0 54 -3.5t47.5 -12.5t49.5 -24l-33 -56q-23 17 -39 25.5t-33 12t-43 3.5q-39 0 -75.5 -14.5t-59.5 -42t-23 -67.5q0 -30 19.5 -51.5t50.5 -39t65.5 -35t65.5 -40.5t50.5 -55.5t19.5 -79.5q0 -67 -32.5 -116.5t-86 -76.5t-118.5 -27q-46 0 -92 14t-91 36
l31 58q33 -20 54.5 -31.5t44 -16.5t58.5 -5q43 0 80 24t60.5 61.5t23.5 78.5q0 36 -19.5 60t-50 41.5t-64.5 34t-64.5 37.5t-50 50.5t-19.5 74.5q0 58 31.5 99t82 62.5t106.5 21.5zM227 -3l-34 -140h-61l59 140h36zM324 665l33 135h63l-59 -135h-37z" />
    <glyph glyph-name="percent" unicode="%" horiz-adv-x="866" 
d="M674 729h51l-481 -740h-49zM272 729q48 0 76 -20.5t40.5 -54.5t12.5 -77q0 -73 -22.5 -133.5t-67 -97t-109.5 -36.5q-48 0 -76 20t-40.5 54.5t-12.5 77.5q0 72 23 132.5t67.5 97.5t108.5 37zM261 689q-48 0 -78.5 -32t-44.5 -83.5t-14 -110.5q0 -46 18.5 -79t70.5 -33
q50 0 80 32.5t43.5 85.5t13.5 114q0 44 -18 75t-71 31zM696 409q48 0 76.5 -20.5t40.5 -55t12 -78.5q0 -71 -23 -131.5t-67.5 -97t-108.5 -36.5q-48 0 -76 20t-40 54t-12 77q0 72 22.5 133t66.5 98t109 37zM685 368q-48 0 -78.5 -32t-45 -84t-14.5 -111q0 -44 19 -76.5
t71 -32.5q50 0 79.5 32t43 84.5t13.5 113.5q0 44 -17.5 75t-70.5 31zM272 729h431l-5 -40h-437z" />
    <glyph glyph-name="ampersand" unicode="&#x26;" horiz-adv-x="624" 
d="M231 415l19 -54q-55 -6 -91.5 -33.5t-54.5 -66t-18 -77.5q0 -32 15.5 -63.5t48.5 -52t85 -20.5q65 0 104.5 20.5t57.5 55.5t18 78q0 38 -12.5 76.5t-35.5 75.5l47 35q30 -34 45.5 -77t15.5 -88q0 -44 -14.5 -85.5t-46 -75t-81.5 -53t-121 -19.5q-72 0 -116 25t-64 64.5
t-20 80.5q0 49 23.5 100.5t72 93t123.5 60.5zM384 729q33 0 63 -9.5t55 -32.5l-41 -47q-37 34 -73 34q-37 0 -65.5 -32t-44.5 -87t-16 -125q0 -73 20 -140t57.5 -119.5t87.5 -82.5q26 -16 67.5 -27.5t81.5 -11.5q12 0 22.5 1t19.5 4l7 -59q-13 -3 -26.5 -3.5t-24.5 -0.5
q-30 0 -68.5 7.5t-75 20t-61.5 28.5q-58 39 -99 99t-62.5 137.5t-21.5 167.5q0 96 29.5 157.5t75 91t93.5 29.5zM375 411h224l-20 -57h-212z" />
    <glyph glyph-name="quotesingle" unicode="'" horiz-adv-x="157" 
d="M143 542l-38 -113h-32l-3 116l26 175h72z" />
    <glyph glyph-name="parenleft" unicode="(" horiz-adv-x="323" 
d="M344 727q-105 -117 -158 -258t-53 -285q0 -80 19.5 -159t65.5 -155l-51 -7q-51 78 -76 164.5t-25 176.5q0 98 28.5 192t79.5 180t119 158z" />
    <glyph glyph-name="parenright" unicode=")" horiz-adv-x="328" 
d="M289 392q0 -98 -28 -192t-78.5 -179t-119.5 -158l-52 7q105 116 158 257.5t53 284.5q0 81 -19 160t-66 155l51 7q51 -78 76 -165t25 -177z" />
    <glyph glyph-name="asterisk" unicode="*" horiz-adv-x="459" 
d="M269 726h60l-32 -132h-32zM317 582l122 56l14 -62l-130 -28zM132 635l115 -55l-14 -26l-125 21zM234 529l25 -22l-82 -113l-42 36zM282 507l28 18l76 -96l-54 -36z" />
    <glyph glyph-name="plus" unicode="+" horiz-adv-x="642" 
d="M314 0h-60l29 215h-219l9 59h219l29 212h60l-29 -213h221l-9 -59h-221z" />
    <glyph glyph-name="comma" unicode="," horiz-adv-x="259" 
d="M166 44q0 -34 -16.5 -64t-42 -55.5t-54.5 -44.5l-28 29q27 22 39.5 35t16 21t3.5 16q0 10 -10.5 19.5t-21 21.5t-10.5 29q0 32 19.5 45.5t44.5 13.5q31 0 45.5 -19.5t14.5 -46.5z" />
    <glyph glyph-name="hyphen" unicode="-" horiz-adv-x="330" 
d="M29 228l10 59h252l-10 -59h-252z" />
    <glyph glyph-name="period" unicode="." horiz-adv-x="264" 
d="M173 56q0 -28 -21 -49t-47 -21q-24 0 -39 15.5t-15 38.5q0 18 9.5 33.5t25 25t33.5 9.5q23 0 38.5 -14.5t15.5 -37.5z" />
    <glyph glyph-name="slash" unicode="/" horiz-adv-x="293" 
d="M-12 -12l248 732h51l-244 -732h-55z" />
    <glyph glyph-name="zero" unicode="0" horiz-adv-x="509" 
d="M281 499q68 0 111.5 -30t64 -80.5t20.5 -113.5q0 -56 -18 -107.5t-51 -92.5t-79 -65t-102 -24q-66 0 -109.5 31t-65 82.5t-21.5 111.5q0 48 16 98.5t47.5 93.5t78 69.5t108.5 26.5zM278 447q-51 0 -86 -22t-56 -58t-30.5 -80.5t-9.5 -89.5q0 -70 31 -114.5t104 -44.5
q53 0 87.5 22.5t55.5 60.5t29.5 83t8.5 90q0 46 -13 80.5t-42.5 53.5t-78.5 19z" />
    <glyph glyph-name="one" unicode="1" horiz-adv-x="368" 
d="M274 490l-60 -440h112l-7 -50h-287l6 50h115l50 363l-113 -32l-2 38l152 71h34z" />
    <glyph glyph-name="two" unicode="2" horiz-adv-x="417" 
d="M265 507q53 0 89 -25.5t36 -79.5q0 -49 -26 -96t-69.5 -90.5t-98 -84.5t-111.5 -79h303l-28 -54h-360l7 48q63 45 122 87.5t105.5 85t73.5 85t27 87.5q0 36 -23 52t-57 16q-37 0 -79 -16.5t-71 -47.5l-32 37q43 36 94.5 55.5t97.5 19.5z" />
    <glyph glyph-name="three" unicode="3" horiz-adv-x="364" 
d="M226 509q54 0 87.5 -23t33.5 -76q0 -41 -22 -81t-59 -73.5t-83 -57.5q32 -2 60 -16t45 -40.5t17 -68.5q0 -61 -28 -107.5t-75 -78t-104.5 -51t-117 -27t-112.5 -4.5l2 36q60 3 122.5 17.5t115.5 42t86 68.5t33 96q0 47 -24.5 67.5t-62.5 20.5q-14 0 -30.5 -2.5
t-34.5 -7.5l-13 43q32 15 69.5 36.5t70.5 49t54 59.5t21 68q0 28 -16.5 44.5t-45.5 16.5q-36 0 -77.5 -18t-68.5 -46l-29 44q41 33 91 51t95 18z" />
    <glyph glyph-name="four" unicode="4" horiz-adv-x="466" 
d="M316 498h80l-62 -445h98l-21 -52h-85l-26 -187h-60l26 187h-272l4 30zM325 425l-248 -372h196z" />
    <glyph glyph-name="five" unicode="5" horiz-adv-x="340" 
d="M165 496h224l-27 -65h-178l-65 -122q71 -34 112 -85.5t41 -123.5q0 -63 -25.5 -115.5t-70.5 -92t-103.5 -65.5t-125.5 -37l-5 37q80 20 136.5 53.5t86.5 85t30 125.5q0 63 -42.5 113t-111.5 79z" />
    <glyph glyph-name="six" unicode="6" horiz-adv-x="499" 
d="M500 733l13 -37q-81 -30 -152 -82.5t-124 -120.5t-83 -144t-30 -153q0 -42 12.5 -78t37 -57.5t61.5 -21.5q45 0 77.5 28t50 70t17.5 84q0 47 -24 82t-77 35q-37 0 -79.5 -15.5t-84.5 -47.5l18 53q37 35 81.5 52t84.5 17q59 0 94 -23.5t51 -60.5t16 -79q0 -49 -19 -93.5
t-52 -79.5t-77 -55t-94 -20q-46 0 -85.5 21t-63.5 64t-24 110q0 73 24 142.5t67 132.5t100.5 116.5t124.5 94.5t139 66z" />
    <glyph glyph-name="seven" unicode="7" horiz-adv-x="382" 
d="M55 497h353l-4 -31l-366 -649h-81l382 624h-306z" />
    <glyph glyph-name="eight" unicode="8" horiz-adv-x="461" 
d="M314 727q36 0 66.5 -14t49.5 -42.5t19 -72.5q0 -58 -38 -120t-115 -106l-35 30q64 38 96 90t32 98q0 45 -26.5 68t-57.5 23q-35 0 -62.5 -20.5t-42.5 -53t-15 -69.5q0 -49 30 -80.5t70 -60.5q31 -21 61.5 -47t51 -60.5t20.5 -82.5q0 -61 -31.5 -110.5t-83 -78
t-111.5 -28.5q-43 0 -79 15.5t-58 47t-22 78.5q0 64 27 109.5t69.5 80.5t86.5 64l26 -28q-64 -40 -102 -90.5t-38 -122.5q0 -52 30 -78.5t69 -26.5q38 0 69 20t50 53.5t19 73.5q0 38 -19.5 65.5t-49 51t-60.5 48.5q-26 22 -49 45t-37 53t-14 71q0 45 18 83t48 66t66 43
t72 15z" />
    <glyph glyph-name="nine" unicode="9" horiz-adv-x="509" 
d="M294 508q46 0 85.5 -21t63.5 -64t24 -110q0 -73 -23.5 -140t-65.5 -125.5t-99 -108.5t-124 -89.5t-141 -68.5l-11 38q81 33 151 83.5t122.5 113.5t82 134.5t29.5 146.5q0 44 -12.5 80t-37 57.5t-62.5 21.5q-44 0 -77 -27.5t-51 -69t-18 -83.5q0 -48 25 -83.5t78 -35.5
q37 0 78.5 16t84.5 47l-19 -54q-35 -34 -80 -51t-85 -17q-55 0 -91 22t-53 58t-17 78q0 50 19 95.5t52 80.5t77 55.5t95 20.5z" />
    <glyph glyph-name="colon" unicode=":" horiz-adv-x="247" 
d="M208 389q2 -28 -19.5 -50.5t-50.5 -22.5q-21 0 -36 13t-17 33q-2 29 20 51.5t50 22.5q20 0 35.5 -13.5t17.5 -33.5zM162 60q2 -29 -20 -51.5t-50 -22.5q-21 0 -36 13.5t-17 33.5q-2 29 19.5 51t49.5 22q21 0 36.5 -13t17.5 -33z" />
    <glyph glyph-name="semicolon" unicode=";" horiz-adv-x="250" 
d="M210 374q0 -18 -9.5 -34t-25.5 -25.5t-34 -9.5q-23 0 -38 15.5t-15 38.5q0 27 21 47t46 20q24 0 39.5 -14.5t15.5 -37.5zM106 110q31 0 45.5 -19.5t14.5 -46.5q0 -34 -16.5 -64t-42 -55.5t-54.5 -44.5l-28 29q27 22 39.5 35t16 21t3.5 16q0 10 -10.5 19.5t-21 21.5
t-10.5 29q0 32 19.5 45.5t44.5 13.5z" />
    <glyph glyph-name="less" unicode="&#x3c;" horiz-adv-x="630" 
d="M75 284l526 202l-8 -69l-451 -177l400 -176l-9 -68l-469 204z" />
    <glyph glyph-name="equal" unicode="=" horiz-adv-x="630" 
d="M86 364h500l-7 -57h-500zM61 177h499l-8 -59h-500z" />
    <glyph glyph-name="greater" unicode="&#x3e;" horiz-adv-x="630" 
d="M44 64l450 176l-399 177l8 69l470 -202l-11 -84l-527 -204z" />
    <glyph glyph-name="question" unicode="?" horiz-adv-x="421" 
d="M271 720q37 0 69.5 -15t53.5 -44.5t21 -73.5q0 -48 -16.5 -81t-41.5 -54.5t-53 -35.5q-46 -23 -79 -45.5t-33 -60.5q0 -12 6.5 -22.5t20 -17.5t35.5 -7l-17 -54q-29 -3 -53 10t-37.5 35t-13.5 47q0 44 21 72.5t52 48t61 35.5q38 20 59 44t21 76q0 50 -24.5 70t-58.5 20
q-50 0 -92 -36l-7 52q23 19 50.5 28t55.5 9zM176 106q22 0 37.5 -15t15.5 -35q0 -27 -22.5 -48.5t-48.5 -21.5q-22 0 -37 15.5t-15 37.5q0 28 21 47.5t49 19.5z" />
    <glyph glyph-name="at" unicode="@" horiz-adv-x="1013" 
d="M550 724q85 0 161 -26t134 -76.5t91 -123.5t33 -167q0 -61 -16.5 -121t-48 -108.5t-76 -77.5t-100.5 -29q-32 0 -59.5 7t-45 26t-20.5 54h-4q-19 -43 -59 -69.5t-85 -26.5q-52 0 -84 27.5t-46.5 74t-14.5 101.5q0 56 15 111.5t46 100.5t78 72t111 27q29 0 54 -9.5
t50 -33.5l20 35h34q-15 -98 -25.5 -165.5t-17.5 -111t-10.5 -69t-5 -39t-1.5 -21.5q0 -21 16.5 -32.5t54.5 -11.5q44 0 78.5 25t58 66.5t36 93t12.5 104.5q0 83 -28.5 147t-78.5 108.5t-116 67.5t-141 23q-109 0 -192 -41t-138.5 -110t-83.5 -153.5t-28 -170.5
q0 -75 21.5 -145t65 -125.5t109 -88t153.5 -32.5q50 0 101 14l14 -45q-28 -7 -57 -11t-58 -4q-102 0 -177.5 36.5t-126 98.5t-75.5 140.5t-25 163.5q0 76 20 151t60 141.5t100 117.5t139 80.5t178 29.5zM559 448q-54 0 -89.5 -25.5t-56.5 -65t-29.5 -84.5t-8.5 -84
q0 -61 22 -104.5t70 -43.5q34 0 61 21t47 56.5t33 80.5t19 94l18 130q-41 25 -86 25z" />
    <glyph glyph-name="A" unicode="A" horiz-adv-x="616" 
d="M431 720l138 -720h-74l-51 270h-241l-125 -270h-58l335 720h76zM373 625l-144 -305h204z" />
    <glyph glyph-name="B" unicode="B" horiz-adv-x="587" 
d="M551 566q0 -43 -17.5 -77t-48 -58t-70.5 -38q56 -17 88 -53t32 -102q0 -75 -25 -122t-68.5 -72t-100 -34.5t-118.5 -9.5h-160l88 653l4 67h208q40 0 74.5 -8t60 -25.5t39.5 -47t14 -73.5zM481 576q0 36 -17.5 55.5t-45.5 27.5t-60 8h-137l-33 -250h100q58 0 101 15
t67.5 49.5t24.5 94.5zM464 242q0 45 -23.5 70.5t-61 36t-78.5 10.5h-123l-39 -306h104q66 0 115.5 17.5t77.5 58.5t28 113z" />
    <glyph glyph-name="C" unicode="C" horiz-adv-x="584" 
d="M324 -9q-67 0 -116.5 25.5t-82.5 69t-49 100t-16 117.5q0 75 24 150t71 137.5t116.5 100t160.5 37.5q34 0 67.5 -7.5t64.5 -25t55 -48.5l-43 -40q-34 36 -73 51t-82 15q-68 0 -121.5 -33.5t-91 -88t-57 -120t-19.5 -129.5q0 -66 22 -122t67 -90t114 -34q49 0 96.5 11
t89.5 36l19 -46q-27 -21 -64 -36t-76.5 -22.5t-75.5 -7.5z" />
    <glyph glyph-name="D" unicode="D" horiz-adv-x="687" 
d="M635 433q0 -78 -19.5 -155t-61.5 -140t-108.5 -100.5t-161.5 -37.5h-221l88 653l4 67h234q68 0 115 -23.5t76 -64t42 -92t13 -107.5zM566 434q0 43 -8.5 84.5t-29 75t-55 53.5t-86.5 20h-166l-82 -614h150q59 0 104 24.5t78 65t54 90.5t31 102.5t10 98.5z" />
    <glyph glyph-name="E" unicode="E" horiz-adv-x="496" 
d="M154 720h396l-8 -53h-324l-34 -273h252l-9 -52h-251l-39 -289h324l-7 -53h-391l87 653z" />
    <glyph glyph-name="F" unicode="F" horiz-adv-x="469" 
d="M152 720h365l-7 -53h-292l-34 -272h233l-8 -51h-234l-47 -344h-67l87 653z" />
    <glyph glyph-name="G" unicode="G" horiz-adv-x="666" 
d="M422 729q33 0 72 -8.5t76 -27t62 -49.5l-45 -47q-23 27 -49.5 43.5t-56.5 24.5t-66 8q-75 0 -128.5 -36t-88.5 -94t-51.5 -126t-16.5 -133q0 -49 11 -91t34 -73.5t60.5 -48.5t91.5 -17q52 0 94 24t69 66.5t34 95.5l8 67h-182l8 57h251q-14 -94 -23 -182t-17 -181h-37
l-18 74q-42 -42 -95 -63t-110 -21q-88 0 -143 40t-80.5 106t-25.5 142q0 79 22.5 158.5t67 145.5t113 106t159.5 40z" />
    <glyph glyph-name="H" unicode="H" horiz-adv-x="671" 
d="M487 0l47 350h-357l-47 -350h-69l89 653l3 67h75l-42 -318h356l43 318h67l-98 -720h-67z" />
    <glyph glyph-name="I" unicode="I" horiz-adv-x="252" 
d="M158 720h75l-99 -720h-68l89 653z" />
    <glyph glyph-name="J" unicode="J" horiz-adv-x="252" 
d="M160 720h75l-99 -698q-6 -46 -18 -88.5t-33.5 -76.5t-57.5 -56.5t-91 -29.5l-11 38q42 6 69 31.5t43.5 61t25 73.5t12.5 70l82 606z" />
    <glyph glyph-name="K" unicode="K" horiz-adv-x="558" 
d="M228 720l-98 -720h-69l89 653l3 67h75zM532 720h61l-300 -309l220 -411h-84l-215 397z" />
    <glyph glyph-name="L" unicode="L" horiz-adv-x="478" 
d="M231 720l-90 -667h298l-9 -53h-367l88 653l3 67h77z" />
    <glyph glyph-name="M" unicode="M" horiz-adv-x="767" 
d="M240 720l118 -530q2 -11 6.5 -24t8.5 -36q10 22 19 36.5t16 27.5l259 526h82l-98 -720h-69l68 504q3 23 5.5 49.5t5.5 61.5q-12 -35 -25 -61.5t-24 -49.5l-247 -507h-34l-108 504q-7 31 -11.5 56.5t-11.5 59.5q-4 -37 -8.5 -64t-7.5 -52l-69 -501h-54l88 654l3 66h88z
" />
    <glyph glyph-name="N" unicode="N" horiz-adv-x="670" 
d="M245 720l236 -490q10 -20 18.5 -39t16.5 -47q2 27 5.5 43.5t5.5 32.5l70 500h53l-98 -725h-30l-285 583q-7 16 -14.5 32t-15.5 43q-3 -28 -6.5 -47t-5.5 -36l-76 -570h-56l89 653l3 67h90z" />
    <glyph glyph-name="O" unicode="O" horiz-adv-x="709" 
d="M306 -9q-67 0 -114 24t-76 65.5t-42.5 94.5t-13.5 111q0 77 21 155t64.5 143.5t109 105t155.5 39.5t144 -40.5t78 -107t24 -144.5q0 -81 -21.5 -160.5t-64.5 -144t-109 -103t-155 -38.5zM318 46q58 0 102 23.5t76 64t52 90.5t29.5 104t9.5 104q0 63 -17 118t-57.5 89.5
t-110.5 34.5q-58 0 -102 -24t-76 -64t-52.5 -90.5t-30.5 -104.5t-10 -104q0 -61 17.5 -116.5t58.5 -90t111 -34.5z" />
    <glyph glyph-name="P" unicode="P" horiz-adv-x="539" 
d="M156 720h184q58 0 104.5 -16.5t74 -55t27.5 -104.5q0 -75 -31.5 -134t-89 -93.5t-135.5 -34.5h-118l-38 -282h-69l88 653zM224 667l-44 -334h110q58 0 99.5 26.5t63.5 71t22 98.5q0 68 -37.5 103t-105.5 35h-108z" />
    <glyph glyph-name="Q" unicode="Q" horiz-adv-x="709" 
d="M1091 -183q-59 -19 -105.5 -30.5t-105.5 -11.5q-62 0 -124 21t-122 52t-116 63t-106 53q-22 9 -42.5 14t-31.5 3q-103 2 -164 44t-87.5 111t-26.5 152q0 77 21 155t64 143t108.5 104t154.5 39q90 0 144.5 -39.5t79 -104.5t24.5 -144q0 -92 -26 -180t-77.5 -154.5
t-127.5 -96.5q15 -6 33 -13.5t31 -16.5q41 -24 95 -51t112.5 -51.5t115 -39.5t104.5 -15q29 0 55 3t53 9.5t57 14.5zM317 45q58 0 102.5 24t76.5 64.5t51.5 91t29 105t9.5 104.5q0 47 -9.5 90t-30.5 77t-56.5 53.5t-88.5 19.5q-58 0 -103 -23.5t-77 -63.5t-52 -90
t-29.5 -104t-9.5 -105q0 -62 17 -117.5t58 -90.5t112 -35z" />
    <glyph glyph-name="R" unicode="R" horiz-adv-x="570" 
d="M131 0h-70l89 653l3 67h203q50 0 94.5 -18t72.5 -55t28 -96q0 -50 -20.5 -96t-64.5 -79.5t-116 -47.5l183 -328h-85l-206 366h17q102 0 161.5 45t59.5 127q0 66 -37 97.5t-100 31.5h-122z" />
    <glyph glyph-name="S" unicode="S" horiz-adv-x="513" 
d="M341 729q30 0 54 -3.5t47.5 -12.5t49.5 -24l-33 -56q-23 17 -39 25.5t-33 12t-43 3.5q-39 0 -75.5 -14.5t-59.5 -42t-23 -67.5q0 -35 19.5 -60t50.5 -44.5t65.5 -39.5t65.5 -45.5t50.5 -61.5t19.5 -88q0 -67 -32.5 -116.5t-86 -76.5t-118.5 -27q-46 0 -92 14t-91 36
l31 58q33 -20 54.5 -31.5t44 -16.5t58.5 -5q43 0 80 24t60.5 61.5t23.5 78.5t-19.5 68.5t-50 47.5t-64.5 39t-64.5 42t-50 56t-19.5 83q0 58 31.5 99t82 62.5t106.5 21.5z" />
    <glyph glyph-name="T" unicode="T" horiz-adv-x="509" 
d="M54 720h499l-7 -53h-216l-90 -667h-67l90 667h-218z" />
    <glyph glyph-name="U" unicode="U" horiz-adv-x="627" 
d="M191 720l-65 -477q-1 -15 -2 -27t-1 -24q0 -39 12.5 -72.5t44 -53.5t89.5 -20q69 0 115 26t72.5 75t35.5 118l61 455h57l-66 -474q-9 -66 -40 -124.5t-89.5 -94.5t-149.5 -36q-66 0 -107.5 16.5t-64.5 44.5t-32 61t-9 66q0 11 1.5 23t2.5 24l57 428l4 66h74z" />
    <glyph glyph-name="V" unicode="V" horiz-adv-x="495" 
d="M120 720q28 -148 54.5 -296t54.5 -296q48 99 93.5 197.5t91.5 197.5t92 197h52l-337 -724h-31l-141 724h71z" />
    <glyph glyph-name="W" unicode="W" horiz-adv-x="753" 
d="M120 720q5 -38 11.5 -88.5t13.5 -109.5t15 -122.5t16 -128t15 -126.5q25 59 51 122t51 126.5t48 123.5t42.5 111.5t34.5 91.5h44q5 -38 11.5 -88.5t13.5 -109t15 -122t16 -128.5t15 -127q23 57 48 120.5t50.5 127.5t49 124t44 112t35.5 91h54l-289 -724h-41
q-5 36 -11.5 87t-14 110.5t-15.5 123.5t-16.5 126.5t-16.5 117.5q-22 -55 -46 -116.5t-49 -124.5t-48.5 -122.5t-44 -111.5t-35.5 -90h-42l-96 724h71z" />
    <glyph glyph-name="X" unicode="X" horiz-adv-x="534" 
d="M482 720h76l-508 -720h-74zM166 720l317 -720h-79l-314 720h76z" />
    <glyph glyph-name="Y" unicode="Y" horiz-adv-x="453" 
d="M126 720l136 -291l195 291h60l-240 -346l-50 -374h-71l51 374l-161 346h80z" />
    <glyph glyph-name="Z" unicode="Z" horiz-adv-x="525" 
d="M105 720h433l-14 -64l-459 -603h392l-17 -53h-457l14 59l461 608h-360z" />
    <glyph glyph-name="bracketleft" unicode="[" horiz-adv-x="341" 
d="M230 676l-109 -761h134l-8 -44h-193l123 849h194l-7 -44h-134z" />
    <glyph glyph-name="backslash" unicode="\" horiz-adv-x="359" 
d="M17 720h53l238 -720h-48z" />
    <glyph glyph-name="bracketright" unicode="]" horiz-adv-x="335" 
d="M-9 -126l8 44h134l110 760h-136l8 42h193l-124 -846h-193z" />
    <glyph glyph-name="asciicircum" unicode="^" horiz-adv-x="618" 
d="M335 417l-239 -417h-71l276 487h84l139 -487h-68z" />
    <glyph glyph-name="underscore" unicode="_" horiz-adv-x="445" 
d="M-26 -120l7 33h484l-7 -33h-484z" />
    <glyph glyph-name="grave" unicode="`" horiz-adv-x="273" 
d="M217 732l68 -145h-65l-113 145h110z" />
    <glyph glyph-name="a" unicode="a" horiz-adv-x="507" 
d="M416 492h34q-15 -98 -25.5 -165.5t-17 -111t-10 -69t-5 -39t-1.5 -21.5q0 -21 8.5 -31.5t29.5 -10.5q10 0 18.5 1.5t16.5 4.5l8 -43q-13 -7 -28 -13t-30 -6q-40 0 -60 27t-18 67h-4q-20 -43 -60 -69.5t-84 -26.5q-52 0 -84 27.5t-47 74t-15 101.5q0 56 15 111.5t46 100.5
t78 72t111 27q34 0 61.5 -12t54.5 -41v-45q-29 25 -56.5 35.5t-59.5 10.5q-54 0 -90 -25.5t-56.5 -65t-29.5 -84.5t-9 -84q0 -61 22.5 -104.5t70.5 -43.5q33 0 60 21t47.5 56.5t33.5 80.5t19 94l17 132z" />
    <glyph glyph-name="b" unicode="b" horiz-adv-x="485" 
d="M46 29l86 675l3 58h67l-45 -338q11 11 33 28.5t51.5 32t62.5 14.5q50 0 80.5 -26t44 -71t13.5 -101q0 -70 -18 -128t-51 -100t-77.5 -64.5t-96.5 -22.5q-40 0 -81 10.5t-72 32.5l23 43q41 -24 66.5 -29t56.5 -5q50 0 85 22t57 58.5t32.5 81t10.5 88.5q0 65 -19 107
t-63 42q-30 0 -59 -12.5t-51.5 -29t-35.5 -28.5l-45 -327z" />
    <glyph glyph-name="c" unicode="c" horiz-adv-x="419" 
d="M382 399q-27 25 -51 34.5t-45 9.5q-46 0 -79.5 -20.5t-55.5 -54.5t-33 -75t-11 -82q0 -87 31.5 -127.5t88.5 -40.5q27 0 59 8.5t68 24.5l23 -39q-40 -27 -83 -39t-80 -12q-43 0 -82.5 21.5t-64.5 69.5t-25 125q0 46 13 97.5t42 97t76.5 74t116.5 28.5q33 0 67 -11.5
t65 -40.5z" />
    <glyph glyph-name="d" unicode="d" horiz-adv-x="506" 
d="M415 708l3 53h66q-19 -137 -36 -255.5t-29.5 -209t-20 -144.5t-7.5 -63q0 -23 8.5 -34t29.5 -11q10 0 18.5 1.5t16.5 4.5l8 -43q-13 -7 -28 -13t-30 -6q-40 0 -60 27t-18 67h-4q-20 -43 -60 -69.5t-84 -26.5q-52 0 -84 27.5t-47 74t-15 101.5q0 56 15 111.5t46 100.5
t78 72t111 27q34 0 61.5 -12t54.5 -41v-45q-29 25 -56.5 35.5t-59.5 10.5q-54 0 -90 -25.5t-56.5 -65t-29.5 -84.5t-9 -84q0 -61 22.5 -104.5t70.5 -43.5q33 0 60 21t47.5 56.5t33.5 80.5t19 94z" />
    <glyph glyph-name="e" unicode="e" horiz-adv-x="448" 
d="M291 499q30 0 58.5 -9t47 -30t18.5 -56q0 -59 -29.5 -98t-77.5 -61.5t-103.5 -31t-107.5 -7.5v47q33 -7 76 -1t84 24.5t68 47.5t27 68q0 29 -22.5 43t-49.5 14q-42 0 -74 -21.5t-53.5 -57t-32.5 -78t-11 -83.5q0 -84 37 -123t98 -39q28 0 60 7t66 22l22 -39
q-28 -19 -52.5 -30t-45.5 -15t-36.5 -5t-25.5 -1q-66 0 -107.5 30.5t-61 81.5t-19.5 111q0 51 15 102t45.5 93.5t77 68.5t109.5 26z" />
    <glyph glyph-name="f" unicode="f" horiz-adv-x="253" 
d="M-87 -172q40 -7 68 3.5t45 37.5t22 70l67 495h-66l7 52q9 0 23 1t26.5 9t16.5 29q11 50 26.5 94t39.5 77t59.5 52t84.5 19q44 0 64.5 -11t42.5 -26l-34 -48q-11 14 -29 23t-34 9q-48 0 -77 -18.5t-45 -50.5t-23.5 -73t-12.5 -86h109l-7 -52h-109l-69 -502
q-13 -94 -70 -135t-138 -22z" />
    <glyph glyph-name="g" unicode="g" horiz-adv-x="483" 
d="M416 492h34l-70 -481q-6 -43 -18.5 -85.5t-37 -77.5t-65.5 -56.5t-105 -21.5q-34 0 -63.5 9t-49.5 19t-24 11l30 59q24 -25 53.5 -35.5t39.5 -10.5q58 0 94 23.5t55.5 63t25.5 85.5l10 68h-4q-14 -28 -51.5 -52t-81.5 -24q-52 0 -84 27.5t-47 74t-15 101.5q0 56 15 111.5
t46 100.5t78 72t111 27q34 0 61.5 -12t54.5 -41v-45q-29 25 -56.5 35.5t-59.5 10.5q-54 0 -90 -25.5t-56.5 -65t-29.5 -84.5t-9 -84q0 -61 22.5 -104.5t70.5 -43.5q33 0 60 21t47.5 56.5t33.5 80.5t19 94l17 132z" />
    <glyph glyph-name="h" unicode="h" horiz-adv-x="493" 
d="M204 761l-47 -338q28 27 67 51.5t87 24.5q33 0 62.5 -11t48 -40t18.5 -82q0 -18 -3 -42l-33 -264l1 -60h-72l37 290q2 14 3.5 30t1.5 31q0 22 -5 42.5t-20.5 33.5t-45.5 13q-28 0 -53.5 -10.5t-46.5 -24t-34.5 -25.5t-18.5 -15l-50 -365h-62l95 703l2 58h68z" />
    <glyph glyph-name="i" unicode="i" horiz-adv-x="226" 
d="M216 657q0 -22 -17 -38t-40 -16q-19 0 -32 11.5t-13 29.5q0 20 17 38t40 18q20 0 32.5 -13t12.5 -30zM175 486l-58 -426l-1 -60h-69l57 428l2 58h69z" />
    <glyph glyph-name="j" unicode="j" horiz-adv-x="230" 
d="M219 657q0 -21 -17 -38.5t-40 -17.5q-21 0 -32.5 13t-11.5 30q0 21 16 38t39 17q21 0 33.5 -12t12.5 -30zM178 486l-66 -482q-4 -33 -14.5 -71t-28.5 -73t-46 -59.5t-69 -30.5l-9 47q44 19 64.5 48t28 64t12.5 70l60 428l2 59h66z" />
    <glyph glyph-name="k" unicode="k" horiz-adv-x="477" 
d="M318 499q45 0 73.5 -16t42 -40t13.5 -50q0 -55 -42.5 -100.5t-132.5 -67.5q29 -52 62 -112t74 -113h-73q-46 61 -81.5 129.5t-70.5 126.5q55 3 101 19t73.5 43.5t27.5 62.5q0 28 -22.5 43.5t-51.5 15.5q-22 0 -48.5 -9.5t-55 -28.5t-59.5 -48v53q19 21 46 42t59 35.5
t65 14.5zM211 761l-105 -761h-61l97 703l3 58h66z" />
    <glyph glyph-name="l" unicode="l" horiz-adv-x="222" 
d="M210 761l-94 -701l-2 -60h-69l97 703l1 58h67z" />
    <glyph glyph-name="m" unicode="m" horiz-adv-x="764" 
d="M153 496q2 -3 4 -17t3.5 -30.5t1.5 -28.5q18 17 41 35t49 31t54 13q41 0 73.5 -17.5t51.5 -68.5q19 17 43 37t52.5 34.5t58.5 14.5q19 0 41.5 -4t43 -17t33.5 -40t13 -73v-18.5t-2 -22.5l-35 -263l-2 -61h-67l38 288q2 14 3.5 29.5t1.5 31.5q0 22 -5.5 42.5t-20.5 34.5
t-46 14q-37 0 -75 -24.5t-69 -50.5l-46 -365h-62l37 286q2 15 4 33t2 34q0 22 -5 41.5t-20.5 32.5t-45.5 13q-22 0 -46 -11t-45.5 -25t-35.5 -25.5t-16 -11.5l-49 -367h-61l47 361q3 18 3 35q0 54 -10.5 77t-5.5 15z" />
    <glyph glyph-name="n" unicode="n" horiz-adv-x="495" 
d="M153 496q1 -3 4.5 -26.5t4.5 -48.5q19 17 42.5 35t53 30.5t64.5 12.5q18 0 39.5 -4t41 -17.5t32 -40t12.5 -71.5q0 -17 -3 -41l-35 -265l-1 -60h-69l40 292q2 15 4 31t2 32q0 21 -5.5 40.5t-21 32t-46.5 12.5q-28 0 -53.5 -10.5t-46.5 -24t-34.5 -25.5t-18.5 -15
l-49 -365h-62l47 347q2 14 3 26.5t1 22.5q0 39 -5.5 61t-10 29.5t-1.5 1.5z" />
    <glyph glyph-name="o" unicode="o" horiz-adv-x="501" 
d="M218 -14q-60 0 -98.5 31t-57 81.5t-18.5 107.5q0 52 15 103.5t45 94.5t74.5 69t104.5 26t98.5 -31t57 -80.5t18.5 -107.5q0 -52 -15 -104t-45 -95t-75 -69t-104 -26zM222 38q43 0 75 20.5t53 55t31.5 76t10.5 82.5q0 46 -12 85.5t-37 64.5t-65 25q-43 0 -74.5 -20.5
t-52.5 -55t-31.5 -75.5t-10.5 -82q0 -45 12 -85.5t37 -65.5t64 -25z" />
    <glyph glyph-name="p" unicode="p" horiz-adv-x="489" 
d="M310 499q49 0 79 -26t44 -71t14 -101q0 -70 -18 -128t-51 -100t-77.5 -64.5t-96.5 -22.5q-32 0 -55.5 4.5t-43.5 11.5l-22 -170l-2 -55h-68l71 544q2 20 4.5 40t2.5 40t-3.5 40.5t-11.5 47.5l73 9q5 -31 6 -46.5t1 -33.5q17 18 40.5 37t52.5 31.5t61 12.5zM299 437
q-30 0 -58.5 -12.5t-51.5 -29t-36 -28.5l-39 -307q11 -8 34.5 -15t48.5 -7q49 0 84 22t57.5 58.5t33 81t10.5 88.5q0 65 -19.5 107t-63.5 42z" />
    <glyph glyph-name="q" unicode="q" horiz-adv-x="480" 
d="M416 492h34l-92 -658l-2 -56h-68l37 284h-4q-14 -28 -51.5 -52t-81.5 -24q-52 0 -84 27.5t-47 74t-15 101.5q0 56 15 111.5t46 100.5t78 72t111 27q34 0 61.5 -12t54.5 -41v-45q-29 25 -56.5 35.5t-59.5 10.5q-54 0 -90 -25.5t-56.5 -65t-29.5 -84.5t-9 -84
q0 -61 22.5 -104.5t70.5 -43.5q33 0 60 21t47.5 56.5t33.5 80.5t19 94l17 132z" />
    <glyph glyph-name="r" unicode="r" horiz-adv-x="333" 
d="M158 499q6 -19 8 -33.5t3 -49.5q20 24 48 42.5t61.5 29.5t69.5 11l-31 -72q-55 0 -91 -25.5t-62 -63.5l-45 -338h-67l45 355q2 14 2.5 24t0.5 22q0 15 -3.5 41.5t-14.5 45.5z" />
    <glyph glyph-name="s" unicode="s" horiz-adv-x="379" 
d="M327 418q-24 15 -46 23t-48 8t-50 -10.5t-39.5 -30t-15.5 -47.5q0 -25 19.5 -44t49 -36.5t58.5 -38t48.5 -49.5t19.5 -71q0 -44 -23 -74.5t-59.5 -46t-79.5 -15.5t-76.5 10.5t-67.5 29.5l38 50q22 -19 50 -29t51 -10q25 0 49.5 8.5t41 27t16.5 48.5t-19.5 51.5t-48 38.5
t-57.5 36t-48.5 44t-19.5 62q0 51 24.5 83t63 47.5t80.5 15.5q33 0 61 -9t52 -25z" />
    <glyph glyph-name="t" unicode="t" horiz-adv-x="272" 
d="M213 630q-13 -40 -22 -71t-18 -73h112l-17 -52h-103l-43 -339q0 3 -1 -5.5t-1 -12.5q0 -20 10 -30t32 -10q7 0 22 3t37 8l5 -44q10 3 0 -2t-31.5 -11t-44.5 -6q-16 0 -37.5 4.5t-37 24.5t-15.5 66q0 6 1 16t2 16.5t0 3.5l42 318h-69l8 52q21 0 41.5 12.5t40.5 44t39 87.5
h48z" />
    <glyph glyph-name="u" unicode="u" horiz-adv-x="516" 
d="M155 486l-43 -314q-1 -13 -2 -25.5t-1 -22.5q0 -52 20.5 -73t55.5 -21q11 0 28 1.5t37.5 11.5t40.5 34.5t37 69.5t27 117l24 157l3 65h67l-50 -370q-1 -8 -1.5 -15.5t-0.5 -12.5q0 -30 10 -38t20 -8q17 0 29.5 5.5t7.5 3.5l8 -46q8 5 -1 0t-25.5 -12t-31.5 -7t-34 8.5
t-32 28.5t-11 54h-4q-1 -3 -8 -17t-23.5 -31t-47 -30t-78.5 -13q-70 0 -99.5 39.5t-29.5 97.5q0 21 3 43l37 256l2 64h66z" />
    <glyph glyph-name="v" unicode="v" horiz-adv-x="417" 
d="M120 486q5 -27 14 -71t20.5 -99t23.5 -115.5t22 -121.5q24 55 51.5 114t54.5 114.5t50 102t38 76.5h53l-237 -492h-55l-99 492h64z" />
    <glyph glyph-name="w" unicode="w" horiz-adv-x="595" 
d="M117 486q4 -24 9.5 -62.5t12.5 -86.5t15.5 -101t18.5 -104l48 108t45.5 102t38.5 85.5t26 58.5h30q7 -41 14.5 -96t18 -120.5t24.5 -137.5q23 53 46 105t44.5 99t39 85.5t29.5 64.5h47l-212 -492h-37q-4 27 -9.5 67.5t-12 88.5t-14 98.5t-16.5 97.5q-24 -50 -47 -100.5
t-43.5 -97t-38 -86t-29.5 -68.5h-36l-73 492h61z" />
    <glyph glyph-name="x" unicode="x" horiz-adv-x="348" 
d="M95 486l238 -486h-68l-236 486h66zM320 486h68l-366 -486h-66z" />
    <glyph glyph-name="y" unicode="y" horiz-adv-x="404" 
d="M-22 -171q31 2 56.5 10.5t47 27.5t41.5 52.5t41 84.5l-103 482h65q8 -41 17 -90.5t18.5 -102.5t20 -105.5t22.5 -99.5q26 52 51 105.5t49 105.5t45.5 99.5t40.5 87.5h57l-256 -562q-19 -42 -53 -76t-77.5 -54.5t-91.5 -23.5z" />
    <glyph glyph-name="z" unicode="z" horiz-adv-x="441" 
d="M114 486h312v-39l-310 -395h265l-10 -52h-338v41l308 393h-235z" />
    <glyph glyph-name="braceleft" unicode="{" horiz-adv-x="350" 
d="M210 -129q-75 0 -100 42.5t-15 116.5l24 167q3 22 0.5 41.5t-14.5 32.5t-38 13l5 37q30 0 46 16t23 39.5t10 45.5l21 153q11 77 50 118t121 41h2l-5 -39q-38 0 -58.5 -7.5t-30 -26.5t-14.5 -56l-24 -172q-4 -28 -12.5 -55t-26.5 -47t-51 -29q30 -8 43 -28t14.5 -46.5
t-2.5 -55.5l-26 -184q-4 -32 3 -49t25.5 -23t48.5 -6l-5 -39h-14z" />
    <glyph glyph-name="bar" unicode="|" horiz-adv-x="237" 
d="M151 740h52l-119 -845h-52z" />
    <glyph glyph-name="braceright" unicode="}" horiz-adv-x="321" 
d="M144 734q76 0 101 -42t14 -116l-23 -167q-5 -33 4 -60.5t47 -27.5l-5 -36q-30 0 -46 -16t-22.5 -39t-9.5 -46l-21 -153q-11 -77 -50 -118.5t-121 -41.5h-3l5 39q39 0 59 7.5t29.5 27.5t14.5 56l24 172q5 29 13.5 55.5t26.5 46.5t50 29q-30 9 -43 28.5t-14 46t3 55.5
l25 184q4 32 -3 48.5t-25 23t-48 6.5l4 38h14z" />
    <glyph glyph-name="asciitilde" unicode="~" horiz-adv-x="559" 
d="M513 296q-16 -20 -39.5 -40.5t-50 -33.5t-52.5 -13q-28 0 -52 10t-46 23t-45.5 23t-51.5 10q-18 0 -35 -10t-31 -24.5t-24 -30.5l-41 39q14 24 36.5 44t49.5 32t54 12q31 0 58 -9.5t50.5 -22.5t45 -22.5t41.5 -9.5q28 0 54 20t42 43z" />
    <glyph glyph-name="uni00A0" unicode="&#xa0;" horiz-adv-x="234" 
 />
    <glyph glyph-name="exclamdown" unicode="&#xa1;" horiz-adv-x="245" 
d="M100 -231h-100l101 510h42zM83 439q0 28 22 48.5t48 20.5q23 0 39 -15t16 -38q0 -19 -10 -35t-26 -25.5t-35 -9.5q-23 0 -38.5 16t-15.5 38z" />
    <glyph glyph-name="cent" unicode="&#xa2;" horiz-adv-x="494" 
d="M314 484q34 0 66.5 -10.5t65.5 -36.5l-40 -50q-24 23 -49.5 33t-44.5 10q-52 0 -89 -32.5t-56.5 -84t-19.5 -107.5q0 -67 31.5 -101.5t84.5 -34.5t114 27l21 -40q-40 -25 -79.5 -36t-77.5 -11q-67 0 -112.5 50.5t-45.5 141.5q0 56 17.5 106.5t49 90t73.5 62.5t91 23z
M248 28l-34 -141h-61l59 141h36zM309 471l33 136h64l-59 -136h-38z" />
    <glyph glyph-name="sterling" unicode="&#xa3;" horiz-adv-x="581" 
d="M41 53h93l63 453q8 59 36.5 100.5t74 63.5t103.5 22q47 0 90 -24t62 -65l-68 -35q-10 29 -33.5 49.5t-58.5 20.5q-39 0 -67.5 -19t-45.5 -50t-22 -67l-62 -449h291l-8 -53h-456zM93 305l18 52h304l-18 -52h-304z" />
    <glyph glyph-name="currency" unicode="&#xa4;" horiz-adv-x="535" 
d="M295 455q69 0 113 -44l64 54l33 -38l-66 -57q10 -21 15.5 -43.5t5.5 -47.5q0 -43 -15.5 -79t-39.5 -68l50 -56l-44 -37l-46 54q-28 -22 -60.5 -34t-65.5 -12q-35 0 -64 12.5t-51 33.5l-63 -54l-33 39l65 56q-20 38 -20 89q0 41 16 80t39 67l-50 57l44 38l47 -56
q28 21 60 33.5t66 12.5zM288 407q-40 0 -75 -25t-57 -66.5t-22 -90.5q0 -55 30.5 -92t79.5 -37q41 0 78 26t60 69.5t20 97.5q-4 49 -35 83.5t-79 34.5z" />
    <glyph glyph-name="yen" unicode="&#xa5;" horiz-adv-x="604" 
d="M204 692l141 -289l201 289h69l-254 -351l-47 -341h-75l47 341l-169 351h87zM106 389h446l-16 -51h-446zM87 255h446l-16 -51h-446z" />
    <glyph glyph-name="brokenbar" unicode="&#xa6;" horiz-adv-x="238" 
d="M151 740h52l-48 -346h-53zM80 231h53l-49 -345h-52z" />
    <glyph glyph-name="section" unicode="&#xa7;" horiz-adv-x="454" 
d="M380 772q12 0 29 -4t28 -7.5t3 -0.5l-22 -60q-2 1 -12.5 6t-23.5 5l-9 2t-23 0.5t-28 -11t-23.5 -32t-9.5 -63.5q0 -29 2.5 -77t6.5 -105t9 -114t9 -106t6.5 -80.5t2.5 -35.5q0 -19 -3.5 -47.5t-15 -58t-35.5 -52.5t-65 -31q-8 -52 -33.5 -81.5t-57.5 -41.5t-62 -12
q-29 0 -47.5 8.5t-10.5 3.5l20 54q-1 1 7 -1.5t17.5 -5.5t12.5 -3q23 0 45 8t36 32.5t14 75.5q0 10 -2.5 46t-6.5 88t-9 111t-9 115t-6.5 100.5t-2.5 65.5q0 58 15.5 94.5t42 55.5t58.5 24q5 44 27.5 74t56 45.5t69.5 15.5zM228 574q-26 -7 -40 -31.5t-14 -71.5q0 -15 3 -57
t8 -99.5t10 -121.5t9 -124t5 -104q12 5 24 15t20 32.5t8 61.5q0 15 -3 59.5t-7 104.5t-8.5 124.5t-8.5 120.5t-6 91z" />
    <glyph glyph-name="dieresis" unicode="&#xa8;" horiz-adv-x="265" 
d="M164 667q0 -25 -18.5 -43t-42.5 -18q-19 0 -31.5 13.5t-12.5 32.5q0 25 18.5 43t40.5 18q21 0 33.5 -13t12.5 -33zM323 667q0 -25 -18 -43t-42 -18q-20 0 -32.5 13.5t-12.5 32.5q0 26 18.5 43.5t41.5 17.5q20 0 32.5 -13t12.5 -33z" />
    <glyph glyph-name="copyright" unicode="&#xa9;" horiz-adv-x="636" 
d="M588 250q0 -55 -21 -103.5t-58.5 -86t-86 -58.5t-103.5 -21t-104 21t-86 58t-58 86t-21 104q0 56 21 104.5t58 85.5t86 58t104 21t103.5 -21t86 -58.5t58.5 -86t21 -103.5zM550 250q0 63 -31.5 115.5t-84 84t-115.5 31.5t-115.5 -31.5t-84 -84t-31.5 -115.5t31.5 -115.5
t84 -84t115.5 -31.5t115.5 31.5t84 84t31.5 115.5zM430 123q-28 -17 -49 -24t-55 -7q-44 0 -76 22.5t-48.5 59t-16.5 78.5q0 68 39.5 113t109.5 45q25 0 47.5 -9.5t43.5 -22.5l-22 -28q-20 17 -36 22t-42 5q-31 0 -52.5 -18t-32.5 -45.5t-11 -54.5t10.5 -57t32 -51.5
t53.5 -21.5q27 0 44.5 6.5t41.5 19.5z" />
    <glyph glyph-name="ordfeminine" unicode="&#xaa;" horiz-adv-x="359" 
d="M251 724q19 0 37.5 -6t28.5 -22l17 24h27q-14 -73 -23 -121.5t-14.5 -78t-7.5 -43.5t-2 -19q0 -13 5.5 -20t18.5 -7q7 0 12 1t11 3l4 -29q-8 -3 -17 -7.5t-19 -4.5q-23 0 -37 12t-17 36h-4q-16 -24 -39 -36t-52 -12q-33 0 -54.5 16t-31.5 42.5t-10 57.5q0 36 11.5 73.5
t33.5 69.5t53 51.5t69 19.5zM255 684q-38 0 -65.5 -27t-42 -66.5t-14.5 -77.5q0 -34 13 -57.5t41 -23.5q32 0 53.5 24.5t35 63.5t20.5 82l10 58q-8 12 -22 18t-29 6zM97 290l10 52h217l-8 -52h-219z" />
    <glyph glyph-name="guillemotleft" unicode="&#xab;" horiz-adv-x="454" 
d="M230 185l-49 -8l-124 155l162 155l52 -9l-135 -148zM368 185l-50 -8l-124 155l162 155l54 -9l-137 -148z" />
    <glyph glyph-name="logicalnot" unicode="&#xac;" horiz-adv-x="638" 
d="M526 285h-443l8 48h490l-35 -239h-48z" />
    <glyph glyph-name="uni00AD" unicode="&#xad;" horiz-adv-x="330" 
d="M29 228l10 59h252l-10 -59h-252z" />
    <glyph glyph-name="registered" unicode="&#xae;" horiz-adv-x="472" 
d="M479 600q0 -54 -26 -97.5t-69.5 -69t-96.5 -25.5t-97 25.5t-69.5 69t-25.5 96.5q0 54 25.5 97t69.5 68.5t97 25.5t96.5 -25.5t69.5 -68.5t26 -96zM447 599q0 45 -22 81t-58 57.5t-80 21.5q-45 0 -81 -21.5t-57.5 -58t-21.5 -80.5t21.5 -80t57.5 -57.5t81 -21.5
q44 0 80 21.5t58 58t22 79.5zM208 709h85q31 0 53 -12t22 -49q0 -21 -13.5 -35.5t-33.5 -20.5l72 -103h-54l-64 96h-23v-96h-44v220zM252 677v-60h27q20 0 32.5 7t12.5 26q0 14 -12 20.5t-26 6.5h-34z" />
    <glyph glyph-name="macron" unicode="&#xaf;" horiz-adv-x="310" 
d="M64 689h308l-7 -59h-308z" />
    <glyph glyph-name="degree" unicode="&#xb0;" horiz-adv-x="394" 
d="M403 615q0 -48 -25 -88t-65.5 -63.5t-86.5 -23.5q-58 0 -97 37.5t-39 93.5q0 47 25.5 87t66 64t85.5 24q59 0 97.5 -37.5t38.5 -93.5zM341 607q0 35 -22.5 58t-57.5 23q-27 0 -51.5 -15t-40.5 -39.5t-16 -54.5q0 -36 22.5 -58.5t56.5 -22.5q27 0 52 14.5t41 39.5t16 55z
" />
    <glyph glyph-name="plusminus" unicode="&#xb1;" horiz-adv-x="632" 
d="M322 59h-60l26 184h-219l9 61h219l24 182h60l-24 -183h220l-9 -60h-220zM42 58h500l-7 -59h-500z" />
    <glyph glyph-name="uni00B2" unicode="&#xb2;" horiz-adv-x="455" 
d="M104 468q13 10 39.5 30.5t59.5 48.5t66.5 60.5t62 67.5t46 69t17.5 64t-19 49.5t-56 19.5q-25 0 -48 -7.5t-40.5 -17.5t-27.5 -17.5l-10 -7.5l-21 37l11.5 9t33.5 21t52.5 21t68.5 9q46 0 71 -15.5t35.5 -39t10.5 -48.5q0 -43 -20.5 -85t-53 -81t-69 -72t-69.5 -58
t-54 -39h230l-21 -54h-295v36z" />
    <glyph glyph-name="uni00B3" unicode="&#xb3;" horiz-adv-x="455" 
d="M113 463q125 6 193.5 49t68.5 104q0 29 -15.5 43.5t-39 19t-48.5 4.5q-13 0 -24 -1t-12 -1l1 41q22 4 47.5 12.5t48.5 21.5t38 32t15 45q0 22 -18.5 33t-52.5 11q-28 0 -64.5 -15.5t-59.5 -34.5l-21 38q35 26 83.5 42.5t88.5 16.5q25 0 48 -7t38.5 -22.5t15.5 -43.5
q0 -36 -18.5 -61.5t-44.5 -41.5t-47 -25q41 -4 71 -30t30 -69q0 -24 -10 -50.5t-32 -52t-59 -47t-91 -35.5t-128 -17z" />
    <glyph glyph-name="acute" unicode="&#xb4;" horiz-adv-x="276" 
d="M190 732h109l-155 -145h-64z" />
    <glyph glyph-name="uni00B5" unicode="&#xb5;" horiz-adv-x="584" 
d="M213 486q-14 -105 -23 -169t-13.5 -98.5t-6.5 -49.5t-2 -20.5v-11.5q0 -35 14.5 -61.5t57.5 -26.5q27 0 54 11.5t50 26.5t37 26.5l14 11.5l40 302l-4 59h74q-1 -4 -5.5 -36.5t-11 -81t-14 -102t-14 -101.5t-10.5 -79.5t-4 -35.5t3 -3t4 1q12 0 25 3.5t22 7t5 1.5l10 -39
q7 2 -0.5 -3t-23.5 -12.5t-34.5 -13.5t-34.5 -6q-25 0 -34 19.5t-8 53.5q-13 -11 -40.5 -28.5t-61.5 -31t-67 -13.5q-30 0 -61 13l-26 -184h-64l83 612l-5 59h75z" />
    <glyph glyph-name="paragraph" unicode="&#xb6;" horiz-adv-x="489" 
d="M92 -111q6 -2 11.5 -2.5t10.5 -0.5q26 0 42 18t20 44l60 426q-43 0 -78.5 20.5t-56 55t-20.5 74.5q0 62 34.5 105.5t91 66t123.5 22.5h181l-7 -46h-56l-93 -662q-4 -31 -24 -55.5t-49 -39.5t-60 -15h-8.5t-9.5 1q-15 -28 -38.5 -44.5t-52.5 -16.5q-17 0 -37 6zM328 672
l-102 -724q29 0 53 17.5t27 39.5l94 667h-72z" />
    <glyph glyph-name="periodcentered" unicode="&#xb7;" horiz-adv-x="281" 
d="M211 263q0 -28 -21.5 -49t-48.5 -21q-24 0 -39 15.5t-15 39.5q0 27 20.5 47.5t47.5 20.5q24 0 40 -15t16 -38z" />
    <glyph glyph-name="cedilla" unicode="&#xb8;" horiz-adv-x="188" 
d="M101 -120q0 -27 -17.5 -48.5t-46.5 -34t-62 -14.5l-4 31q17 2 33 10t27 22t11 34q0 23 -14 36.5t-27 18.5l36 70h28l-27 -53q7 -1 22 -7.5t28 -22t13 -42.5z" />
    <glyph glyph-name="uni00B9" unicode="&#xb9;" horiz-adv-x="455" 
d="M135 480h113l49 368l-118 -35l-7 37l165 65h29l-59 -435h91l-7 -48h-263z" />
    <glyph glyph-name="ordmasculine" unicode="&#xba;" horiz-adv-x="355" 
d="M358 587q0 -33 -10.5 -67t-30.5 -63t-49.5 -47t-67.5 -18q-41 0 -66.5 20t-37.5 51.5t-12 65.5q0 33 10.5 67.5t31.5 64t50.5 47.5t66.5 18q41 0 66 -20t37 -52t12 -67zM310 581q0 23 -6.5 46t-22 38.5t-43.5 15.5q-25 0 -44.5 -13t-33 -34t-20.5 -45t-7 -47
q0 -22 6.5 -47t22.5 -42t42 -17t46 13.5t33.5 35.5t20 47.5t6.5 48.5zM77 290l8 52h220l-10 -52h-218z" />
    <glyph glyph-name="guillemotright" unicode="&#xbb;" horiz-adv-x="454" 
d="M61 188l136 147l-98 147l51 5l127 -153l-162 -157zM200 188l135 147l-97 147l50 5l126 -153l-162 -157z" />
    <glyph glyph-name="onequarter" unicode="&#xbc;" horiz-adv-x="1188" 
d="M825 729h51l-481 -740h-49zM108 290h113l49 368l-118 -35l-7 37l165 65h29l-59 -435h91l-7 -48h-263zM986 115h-231l6 33l283 333h63l-50 -318h77l-22 -48h-64l-17 -115h-62zM1033 403l-200 -240h162z" />
    <glyph glyph-name="onehalf" unicode="&#xbd;" horiz-adv-x="1188" 
d="M825 729h51l-481 -740h-49zM108 290h113l49 368l-118 -35l-7 37l165 65h29l-59 -435h91l-7 -48h-263zM776 36q13 10 39.5 30.5t59.5 48.5t66.5 60.5t62 67.5t46 69t17.5 64t-19 50t-56 20q-25 0 -48 -7.5t-40.5 -18t-27.5 -18l-10 -7.5l-21 37l11.5 9t33.5 21t52.5 21
t68.5 9q46 0 71 -15.5t35.5 -39t10.5 -47.5q0 -43 -20.5 -85.5t-53 -81t-69 -72t-69.5 -58.5t-54 -39h231l-22 -54h-295v36z" />
    <glyph glyph-name="threequarters" unicode="&#xbe;" horiz-adv-x="1188" 
d="M825 729h51l-481 -740h-49zM86 273q125 6 193.5 49t68.5 104q0 29 -15.5 43.5t-39 19t-48.5 4.5q-13 0 -24 -1t-12 -1l1 41q22 4 47.5 12.5t48.5 21.5t38 32t15 45q0 22 -18.5 33t-52.5 11q-28 0 -64.5 -15.5t-59.5 -34.5l-21 38q35 26 83.5 42.5t88.5 16.5q25 0 48 -7
t38.5 -22.5t15.5 -43.5q0 -36 -18.5 -61.5t-44.5 -41.5t-47 -25q41 -4 71 -30t30 -69q0 -24 -10 -50.5t-32 -52t-59 -47t-91 -35.5t-128 -17zM986 115h-231l6 33l283 333h63l-50 -318h77l-22 -48h-64l-17 -115h-62zM1033 403l-200 -240h162z" />
    <glyph glyph-name="questiondown" unicode="&#xbf;" horiz-adv-x="430" 
d="M181 -234q-36 0 -69 15t-54 44.5t-21 73.5q0 48 16.5 81t42 54.5t52.5 34.5q47 24 80 46.5t33 59.5q0 13 -6.5 23.5t-20 17.5t-36.5 7l18 54q30 3 53.5 -10t37 -35t13.5 -47q0 -44 -21 -73t-51.5 -48.5t-61.5 -35.5q-38 -19 -59.5 -43t-21.5 -76q0 -49 25 -69.5t59 -20.5
q50 0 91 36l7 -53q-22 -19 -49.5 -27.5t-56.5 -8.5zM277 379q-22 0 -37.5 15t-15.5 36q0 27 22.5 48t47.5 21q23 0 37.5 -15t14.5 -37q0 -28 -21 -48t-48 -20z" />
    <glyph glyph-name="Agrave" unicode="&#xc0;" horiz-adv-x="616" 
d="M431 720l138 -720h-74l-51 270h-241l-125 -270h-58l335 720h76zM373 625l-144 -305h204zM365 895l72 -124h-64l-117 124h109z" />
    <glyph glyph-name="Aacute" unicode="&#xc1;" horiz-adv-x="616" 
d="M431 720l138 -720h-74l-51 270h-241l-125 -270h-58l335 720h76zM373 625l-144 -305h204zM467 895h109l-151 -124h-64z" />
    <glyph glyph-name="Acircumflex" unicode="&#xc2;" horiz-adv-x="616" 
d="M431 720l138 -720h-74l-51 270h-241l-125 -270h-58l335 720h76zM373 625l-144 -305h204zM406 835l-93 -70h-57l124 139h75l91 -140h-59z" />
    <glyph glyph-name="Atilde" unicode="&#xc3;" horiz-adv-x="616" 
d="M431 720l138 -720h-74l-51 270h-241l-125 -270h-58l335 720h76zM373 625l-144 -305h204zM562 870q-6 -17 -18.5 -38.5t-29.5 -36.5t-39 -15q-29 0 -52.5 10t-47.5 19.5t-53 9.5q-13 0 -19.5 -9t-14.5 -17h-41q8 21 22 42t34 35t44 14q26 0 50.5 -9.5t47 -19t42.5 -9.5
q11 0 20.5 7t16.5 17h38z" />
    <glyph glyph-name="Adieresis" unicode="&#xc4;" horiz-adv-x="616" 
d="M431 720l138 -720h-74l-51 270h-241l-125 -270h-58l335 720h76zM373 625l-144 -305h204zM379 838q0 -25 -18.5 -43t-42.5 -18q-19 0 -31.5 13.5t-12.5 32.5q0 25 18.5 43t40.5 18q21 0 33.5 -13t12.5 -33zM538 838q0 -25 -18.5 -43t-41.5 -18q-20 0 -32.5 13.5
t-12.5 32.5q0 26 18.5 43.5t41.5 17.5q20 0 32.5 -13t12.5 -33z" />
    <glyph glyph-name="Aring" unicode="&#xc5;" horiz-adv-x="616" 
d="M431 720l138 -720h-74l-51 270h-241l-125 -270h-58l335 720h76zM373 625l-144 -305h204zM427 981q36 0 60 -24.5t24 -59.5q0 -29 -15 -53.5t-39.5 -39t-52.5 -14.5q-34 0 -59 24.5t-25 58.5q0 29 15 53.5t39.5 39.5t52.5 15zM422 937q-24 0 -42 -16.5t-18 -40.5
q0 -19 14.5 -33t34.5 -14q22 0 40 17.5t18 40.5q0 18 -14 32t-33 14z" />
    <glyph glyph-name="AE" unicode="&#xc6;" horiz-adv-x="798" 
d="M421 267h-196l-173 -267h-63l423 655l-5 65h445l-8 -53h-307l-33 -272h254l-8 -51h-256l-36 -291h309l-7 -53h-373zM262 323h168l41 316z" />
    <glyph glyph-name="Ccedilla" unicode="&#xc7;" horiz-adv-x="584" 
d="M324 -9q-67 0 -116.5 25.5t-82.5 69t-49 100t-16 117.5q0 75 24 150t71 137.5t116.5 100t160.5 37.5q34 0 67.5 -7.5t64.5 -25t55 -48.5l-43 -40q-34 36 -73 51t-82 15q-68 0 -121.5 -33.5t-91 -88t-57 -120t-19.5 -129.5q0 -66 22 -122t67 -90t114 -34q49 0 96.5 11
t89.5 36l19 -46q-27 -21 -64 -36t-76.5 -22.5t-75.5 -7.5zM347 -120q0 -27 -17.5 -48.5t-46.5 -34t-62 -14.5l-4 31q17 2 33 10t27 22t11 34q0 23 -14 36.5t-27 18.5l36 70h28l-27 -53q7 -1 22 -7.5t28 -22t13 -42.5z" />
    <glyph glyph-name="Egrave" unicode="&#xc8;" horiz-adv-x="496" 
d="M154 720h396l-8 -53h-324l-34 -273h252l-9 -52h-251l-39 -289h324l-7 -53h-391l87 653zM326 895l72 -124h-64l-117 124h109z" />
    <glyph glyph-name="Eacute" unicode="&#xc9;" horiz-adv-x="496" 
d="M154 720h396l-8 -53h-324l-34 -273h252l-9 -52h-251l-39 -289h324l-7 -53h-391l87 653zM428 895h109l-151 -124h-64z" />
    <glyph glyph-name="Ecircumflex" unicode="&#xca;" horiz-adv-x="496" 
d="M154 720h396l-8 -53h-324l-34 -273h252l-9 -52h-251l-39 -289h324l-7 -53h-391l87 653zM367 835l-93 -70h-57l124 139h75l91 -140h-59z" />
    <glyph glyph-name="Edieresis" unicode="&#xcb;" horiz-adv-x="496" 
d="M154 720h396l-8 -53h-324l-34 -273h252l-9 -52h-251l-39 -289h324l-7 -53h-391l87 653zM340 838q0 -25 -18.5 -43t-42.5 -18q-19 0 -31.5 13.5t-12.5 32.5q0 25 18.5 43t40.5 18q21 0 33.5 -13t12.5 -33zM499 838q0 -25 -18.5 -43t-41.5 -18q-20 0 -32.5 13.5t-12.5 32.5
q0 26 18.5 43.5t41.5 17.5q20 0 32.5 -13t12.5 -33z" />
    <glyph glyph-name="Igrave" unicode="&#xcc;" horiz-adv-x="252" 
d="M158 720h75l-99 -720h-68l89 653zM164 895l72 -124h-64l-117 124h109z" />
    <glyph glyph-name="Iacute" unicode="&#xcd;" horiz-adv-x="252" 
d="M158 720h75l-99 -720h-68l89 653zM266 895h109l-151 -124h-64z" />
    <glyph glyph-name="Icircumflex" unicode="&#xce;" horiz-adv-x="252" 
d="M158 720h75l-99 -720h-68l89 653zM205 835l-93 -70h-57l124 139h75l91 -140h-59z" />
    <glyph glyph-name="Idieresis" unicode="&#xcf;" horiz-adv-x="252" 
d="M158 720h75l-99 -720h-68l89 653zM178 838q0 -25 -18.5 -43t-42.5 -18q-19 0 -31.5 13.5t-12.5 32.5q0 25 18.5 43t40.5 18q21 0 33.5 -13t12.5 -33zM337 838q0 -25 -18.5 -43t-41.5 -18q-20 0 -32.5 13.5t-12.5 32.5q0 26 18.5 43.5t41.5 17.5q20 0 32.5 -13t12.5 -33z
" />
    <glyph glyph-name="Eth" unicode="&#xd0;" horiz-adv-x="687" 
d="M635 433q0 -78 -19.5 -155t-61.5 -140t-108.5 -100.5t-161.5 -37.5h-221l88 653l4 67h234q68 0 115 -23.5t76 -64t42 -92t13 -107.5zM566 434q0 43 -8.5 84.5t-29 75t-55 53.5t-86.5 20h-166l-82 -614h150q59 0 104 24.5t78 65t54 90.5t31 102.5t10 98.5zM64 384h315
l-9 -55h-315z" />
    <glyph glyph-name="Ntilde" unicode="&#xd1;" horiz-adv-x="670" 
d="M245 720l236 -490q10 -20 18.5 -39t16.5 -47q2 27 5.5 43.5t5.5 32.5l70 500h53l-98 -725h-30l-285 583q-7 16 -14.5 32t-15.5 43q-3 -28 -6.5 -47t-5.5 -36l-76 -570h-56l89 653l3 67h90zM571 870q-6 -17 -18.5 -38.5t-29.5 -36.5t-39 -15q-29 0 -52.5 10t-47.5 19.5
t-53 9.5q-13 0 -19.5 -9t-14.5 -17h-41q8 21 22 42t34 35t44 14q26 0 50.5 -9.5t47 -19t42.5 -9.5q11 0 20.5 7t16.5 17h38z" />
    <glyph glyph-name="Ograve" unicode="&#xd2;" horiz-adv-x="709" 
d="M306 -9q-67 0 -114 24t-76 65.5t-42.5 94.5t-13.5 111q0 77 21 155t64.5 143.5t109 105t155.5 39.5t144 -40.5t78 -107t24 -144.5q0 -81 -21.5 -160.5t-64.5 -144t-109 -103t-155 -38.5zM318 46q58 0 102 23.5t76 64t52 90.5t29.5 104t9.5 104q0 63 -17 118t-57.5 89.5
t-110.5 34.5q-58 0 -102 -24t-76 -64t-52.5 -90.5t-30.5 -104.5t-10 -104q0 -61 17.5 -116.5t58.5 -90t111 -34.5zM387 895l72 -124h-64l-117 124h109z" />
    <glyph glyph-name="Oacute" unicode="&#xd3;" horiz-adv-x="709" 
d="M306 -9q-67 0 -114 24t-76 65.5t-42.5 94.5t-13.5 111q0 77 21 155t64.5 143.5t109 105t155.5 39.5t144 -40.5t78 -107t24 -144.5q0 -81 -21.5 -160.5t-64.5 -144t-109 -103t-155 -38.5zM318 46q58 0 102 23.5t76 64t52 90.5t29.5 104t9.5 104q0 63 -17 118t-57.5 89.5
t-110.5 34.5q-58 0 -102 -24t-76 -64t-52.5 -90.5t-30.5 -104.5t-10 -104q0 -61 17.5 -116.5t58.5 -90t111 -34.5zM489 895h109l-151 -124h-64z" />
    <glyph glyph-name="Ocircumflex" unicode="&#xd4;" horiz-adv-x="709" 
d="M306 -9q-67 0 -114 24t-76 65.5t-42.5 94.5t-13.5 111q0 77 21 155t64.5 143.5t109 105t155.5 39.5t144 -40.5t78 -107t24 -144.5q0 -81 -21.5 -160.5t-64.5 -144t-109 -103t-155 -38.5zM318 46q58 0 102 23.5t76 64t52 90.5t29.5 104t9.5 104q0 63 -17 118t-57.5 89.5
t-110.5 34.5q-58 0 -102 -24t-76 -64t-52.5 -90.5t-30.5 -104.5t-10 -104q0 -61 17.5 -116.5t58.5 -90t111 -34.5zM428 835l-93 -70h-57l124 139h75l91 -140h-59z" />
    <glyph glyph-name="Otilde" unicode="&#xd5;" horiz-adv-x="709" 
d="M306 -9q-67 0 -114 24t-76 65.5t-42.5 94.5t-13.5 111q0 77 21 155t64.5 143.5t109 105t155.5 39.5t144 -40.5t78 -107t24 -144.5q0 -81 -21.5 -160.5t-64.5 -144t-109 -103t-155 -38.5zM318 46q58 0 102 23.5t76 64t52 90.5t29.5 104t9.5 104q0 63 -17 118t-57.5 89.5
t-110.5 34.5q-58 0 -102 -24t-76 -64t-52.5 -90.5t-30.5 -104.5t-10 -104q0 -61 17.5 -116.5t58.5 -90t111 -34.5zM584 870q-6 -17 -18.5 -38.5t-29.5 -36.5t-39 -15q-29 0 -52.5 10t-47.5 19.5t-53 9.5q-13 0 -19.5 -9t-14.5 -17h-41q8 21 22 42t34 35t44 14
q26 0 50.5 -9.5t47 -19t42.5 -9.5q11 0 20.5 7t16.5 17h38z" />
    <glyph glyph-name="Odieresis" unicode="&#xd6;" horiz-adv-x="709" 
d="M306 -9q-67 0 -114 24t-76 65.5t-42.5 94.5t-13.5 111q0 77 21 155t64.5 143.5t109 105t155.5 39.5t144 -40.5t78 -107t24 -144.5q0 -81 -21.5 -160.5t-64.5 -144t-109 -103t-155 -38.5zM318 46q58 0 102 23.5t76 64t52 90.5t29.5 104t9.5 104q0 63 -17 118t-57.5 89.5
t-110.5 34.5q-58 0 -102 -24t-76 -64t-52.5 -90.5t-30.5 -104.5t-10 -104q0 -61 17.5 -116.5t58.5 -90t111 -34.5zM401 838q0 -25 -18.5 -43t-42.5 -18q-19 0 -31.5 13.5t-12.5 32.5q0 25 18.5 43t40.5 18q21 0 33.5 -13t12.5 -33zM560 838q0 -25 -18.5 -43t-41.5 -18
q-20 0 -32.5 13.5t-12.5 32.5q0 26 18.5 43.5t41.5 17.5q20 0 32.5 -13t12.5 -33z" />
    <glyph glyph-name="multiply" unicode="&#xd7;" horiz-adv-x="534" 
d="M263 210l-179 -156l-29 35l179 156l-136 156l41 34l132 -156l179 156l29 -34l-179 -156l136 -156l-41 -35z" />
    <glyph glyph-name="Oslash" unicode="&#xd8;" horiz-adv-x="709" 
d="M306 -9q-67 0 -114 24t-76 65.5t-42.5 94.5t-13.5 111q0 77 21 155t64.5 143.5t109 105t155.5 39.5t144 -40.5t78 -107t24 -144.5q0 -81 -21.5 -160.5t-64.5 -144t-109 -103t-155 -38.5zM318 46q58 0 102 23.5t76 64t52 90.5t29.5 104t9.5 104q0 63 -17 118t-57.5 89.5
t-110.5 34.5q-58 0 -102 -24t-76 -64t-52.5 -90.5t-30.5 -104.5t-10 -104q0 -61 17.5 -116.5t58.5 -90t111 -34.5zM62 -56l-37 34l623 787l41 -31z" />
    <glyph glyph-name="Ugrave" unicode="&#xd9;" horiz-adv-x="627" 
d="M191 720l-65 -477q-1 -15 -2 -27t-1 -24q0 -39 12.5 -72.5t44 -53.5t89.5 -20q69 0 115 26t72.5 75t35.5 118l61 455h57l-66 -474q-9 -66 -40 -124.5t-89.5 -94.5t-149.5 -36q-66 0 -107.5 16.5t-64.5 44.5t-32 61t-9 66q0 11 1.5 23t2.5 24l57 428l4 66h74zM348 895
l72 -124h-64l-117 124h109z" />
    <glyph glyph-name="Uacute" unicode="&#xda;" horiz-adv-x="627" 
d="M191 720l-65 -477q-1 -15 -2 -27t-1 -24q0 -39 12.5 -72.5t44 -53.5t89.5 -20q69 0 115 26t72.5 75t35.5 118l61 455h57l-66 -474q-9 -66 -40 -124.5t-89.5 -94.5t-149.5 -36q-66 0 -107.5 16.5t-64.5 44.5t-32 61t-9 66q0 11 1.5 23t2.5 24l57 428l4 66h74zM450 895h109
l-151 -124h-64z" />
    <glyph glyph-name="Ucircumflex" unicode="&#xdb;" horiz-adv-x="627" 
d="M191 720l-65 -477q-1 -15 -2 -27t-1 -24q0 -39 12.5 -72.5t44 -53.5t89.5 -20q69 0 115 26t72.5 75t35.5 118l61 455h57l-66 -474q-9 -66 -40 -124.5t-89.5 -94.5t-149.5 -36q-66 0 -107.5 16.5t-64.5 44.5t-32 61t-9 66q0 11 1.5 23t2.5 24l57 428l4 66h74zM389 835
l-93 -70h-57l124 139h75l91 -140h-59z" />
    <glyph glyph-name="Udieresis" unicode="&#xdc;" horiz-adv-x="627" 
d="M191 720l-65 -477q-1 -15 -2 -27t-1 -24q0 -39 12.5 -72.5t44 -53.5t89.5 -20q69 0 115 26t72.5 75t35.5 118l61 455h57l-66 -474q-9 -66 -40 -124.5t-89.5 -94.5t-149.5 -36q-66 0 -107.5 16.5t-64.5 44.5t-32 61t-9 66q0 11 1.5 23t2.5 24l57 428l4 66h74zM362 838
q0 -25 -18.5 -43t-42.5 -18q-19 0 -31.5 13.5t-12.5 32.5q0 25 18.5 43t40.5 18q21 0 33.5 -13t12.5 -33zM521 838q0 -25 -18.5 -43t-41.5 -18q-20 0 -32.5 13.5t-12.5 32.5q0 26 18.5 43.5t41.5 17.5q20 0 32.5 -13t12.5 -33z" />
    <glyph glyph-name="Yacute" unicode="&#xdd;" horiz-adv-x="453" 
d="M126 720l136 -291l195 291h60l-240 -346l-50 -374h-71l51 374l-161 346h80zM366 895h109l-151 -124h-64z" />
    <glyph glyph-name="Thorn" unicode="&#xde;" horiz-adv-x="520" 
d="M224 720l-15 -114h108q56 0 102.5 -17.5t74 -57t27.5 -106.5q0 -54 -16.5 -100.5t-49 -81.5t-80 -55t-109.5 -20h-118l-23 -168h-70l89 653l3 67h77zM156 219h110q60 0 101.5 27.5t63 72.5t21.5 97q0 68 -38.5 102.5t-105.5 34.5h-108z" />
    <glyph glyph-name="germandbls" unicode="&#xdf;" horiz-adv-x="544" 
d="M-130 -205l37 43q21 -14 29.5 -17.5t15.5 -2t22 1.5q30 0 56 29.5t35 94.5l67 494h-72l6 48h34t26 8t18 32q17 55 38.5 100.5t60 73t105.5 27.5q38 0 66 -16t43.5 -42t15.5 -56q0 -41 -16 -71t-39.5 -53t-47 -43t-39.5 -40.5t-16 -44.5q0 -34 15.5 -55.5t39 -38.5
t46.5 -35t38.5 -43.5t15.5 -66.5q0 -43 -19.5 -73.5t-52.5 -46.5t-74 -16q-33 0 -67.5 9t-72.5 31l38 50q26 -23 52.5 -30t48.5 -7q37 0 62.5 20.5t25.5 61.5q0 31 -15.5 51t-38.5 36t-46 34t-38.5 44.5t-15.5 66.5q0 32 16 57t39 46.5t46 44t39 49t16 61.5q0 32 -17 48.5
t-52 16.5t-60.5 -15.5t-42.5 -40.5t-27 -56t-14 -63l-79 -572q-12 -87 -51 -123t-98 -36q-19 0 -34 0.5t-30.5 6t-37.5 18.5z" />
    <glyph glyph-name="agrave" unicode="&#xe0;" horiz-adv-x="507" 
d="M416 492h34q-15 -98 -25.5 -165.5t-17 -111t-10 -69t-5 -39t-1.5 -21.5q0 -21 8.5 -31.5t29.5 -10.5q10 0 18.5 1.5t16.5 4.5l8 -43q-13 -7 -28 -13t-30 -6q-40 0 -60 27t-18 67h-4q-20 -43 -60 -69.5t-84 -26.5q-52 0 -84 27.5t-47 74t-15 101.5q0 56 15 111.5t46 100.5
t78 72t111 27q34 0 61.5 -12t54.5 -41v-45q-29 25 -56.5 35.5t-59.5 10.5q-54 0 -90 -25.5t-56.5 -65t-29.5 -84.5t-9 -84q0 -61 22.5 -104.5t70.5 -43.5q33 0 60 21t47.5 56.5t33.5 80.5t19 94l17 132zM258 732l68 -145h-65l-113 145h110z" />
    <glyph glyph-name="aacute" unicode="&#xe1;" horiz-adv-x="507" 
d="M416 492h34q-15 -98 -25.5 -165.5t-17 -111t-10 -69t-5 -39t-1.5 -21.5q0 -21 8.5 -31.5t29.5 -10.5q10 0 18.5 1.5t16.5 4.5l8 -43q-13 -7 -28 -13t-30 -6q-40 0 -60 27t-18 67h-4q-20 -43 -60 -69.5t-84 -26.5q-52 0 -84 27.5t-47 74t-15 101.5q0 56 15 111.5t46 100.5
t78 72t111 27q34 0 61.5 -12t54.5 -41v-45q-29 25 -56.5 35.5t-59.5 10.5q-54 0 -90 -25.5t-56.5 -65t-29.5 -84.5t-9 -84q0 -61 22.5 -104.5t70.5 -43.5q33 0 60 21t47.5 56.5t33.5 80.5t19 94l17 132zM361 732h109l-155 -145h-64z" />
    <glyph glyph-name="acircumflex" unicode="&#xe2;" horiz-adv-x="507" 
d="M416 492h34q-15 -98 -25.5 -165.5t-17 -111t-10 -69t-5 -39t-1.5 -21.5q0 -21 8.5 -31.5t29.5 -10.5q10 0 18.5 1.5t16.5 4.5l8 -43q-13 -7 -28 -13t-30 -6q-40 0 -60 27t-18 67h-4q-20 -43 -60 -69.5t-84 -26.5q-52 0 -84 27.5t-47 74t-15 101.5q0 56 15 111.5t46 100.5
t78 72t111 27q34 0 61.5 -12t54.5 -41v-45q-29 25 -56.5 35.5t-59.5 10.5q-54 0 -90 -25.5t-56.5 -65t-29.5 -84.5t-9 -84q0 -61 22.5 -104.5t70.5 -43.5q33 0 60 21t47.5 56.5t33.5 80.5t19 94l17 132zM301 671l-98 -90h-57l128 158h75l87 -160h-59z" />
    <glyph glyph-name="atilde" unicode="&#xe3;" horiz-adv-x="507" 
d="M416 492h34q-15 -98 -25.5 -165.5t-17 -111t-10 -69t-5 -39t-1.5 -21.5q0 -21 8.5 -31.5t29.5 -10.5q10 0 18.5 1.5t16.5 4.5l8 -43q-13 -7 -28 -13t-30 -6q-40 0 -60 27t-18 67h-4q-20 -43 -60 -69.5t-84 -26.5q-52 0 -84 27.5t-47 74t-15 101.5q0 56 15 111.5t46 100.5
t78 72t111 27q34 0 61.5 -12t54.5 -41v-45q-29 25 -56.5 35.5t-59.5 10.5q-54 0 -90 -25.5t-56.5 -65t-29.5 -84.5t-9 -84q0 -61 22.5 -104.5t70.5 -43.5q33 0 60 21t47.5 56.5t33.5 80.5t19 94l17 132zM455 698q-6 -17 -18 -38t-29.5 -36t-39.5 -15q-29 0 -52.5 9.5
t-47.5 19t-53 9.5q-13 0 -19.5 -8.5t-14.5 -16.5h-41q8 21 22.5 42t34 35t43.5 14q26 0 50.5 -9.5t47 -19.5t42.5 -10q11 0 20.5 7.5t16.5 16.5h38z" />
    <glyph glyph-name="adieresis" unicode="&#xe4;" horiz-adv-x="507" 
d="M416 492h34q-15 -98 -25.5 -165.5t-17 -111t-10 -69t-5 -39t-1.5 -21.5q0 -21 8.5 -31.5t29.5 -10.5q10 0 18.5 1.5t16.5 4.5l8 -43q-13 -7 -28 -13t-30 -6q-40 0 -60 27t-18 67h-4q-20 -43 -60 -69.5t-84 -26.5q-52 0 -84 27.5t-47 74t-15 101.5q0 56 15 111.5t46 100.5
t78 72t111 27q34 0 61.5 -12t54.5 -41v-45q-29 25 -56.5 35.5t-59.5 10.5q-54 0 -90 -25.5t-56.5 -65t-29.5 -84.5t-9 -84q0 -61 22.5 -104.5t70.5 -43.5q33 0 60 21t47.5 56.5t33.5 80.5t19 94l17 132zM272 667q0 -25 -18.5 -43t-42.5 -18q-19 0 -31.5 13.5t-12.5 32.5
q0 25 18.5 43t40.5 18q21 0 33.5 -13t12.5 -33zM431 667q0 -25 -18 -43t-42 -18q-20 0 -32.5 13.5t-12.5 32.5q0 26 18.5 43.5t41.5 17.5q20 0 32.5 -13t12.5 -33z" />
    <glyph glyph-name="aring" unicode="&#xe5;" horiz-adv-x="507" 
d="M416 492h34q-15 -98 -25.5 -165.5t-17 -111t-10 -69t-5 -39t-1.5 -21.5q0 -21 8.5 -31.5t29.5 -10.5q10 0 18.5 1.5t16.5 4.5l8 -43q-13 -7 -28 -13t-30 -6q-40 0 -60 27t-18 67h-4q-20 -43 -60 -69.5t-84 -26.5q-52 0 -84 27.5t-47 74t-15 101.5q0 56 15 111.5t46 100.5
t78 72t111 27q34 0 61.5 -12t54.5 -41v-45q-29 25 -56.5 35.5t-59.5 10.5q-54 0 -90 -25.5t-56.5 -65t-29.5 -84.5t-9 -84q0 -61 22.5 -104.5t70.5 -43.5q33 0 60 21t47.5 56.5t33.5 80.5t19 94l17 132zM311 752q36 0 60 -24.5t24 -59.5q0 -28 -15 -52.5t-39 -39.5t-52 -15
q-35 0 -60 24.5t-25 58.5q0 29 15 53.5t39.5 39.5t52.5 15zM306 708q-24 0 -41.5 -16t-17.5 -41q0 -19 15 -33t34 -14q22 0 40 17.5t18 39.5q0 19 -14.5 33t-33.5 14z" />
    <glyph glyph-name="ae" unicode="&#xe6;" horiz-adv-x="756" 
d="M393 196q-20 -59 -46 -106.5t-64 -75.5t-95 -28q-52 0 -84 27.5t-47 74t-15 101.5q0 56 15 111.5t46 100.5t78 72t111 27q23 0 48 -4.5t51 -20t51 -49.5l-34 -24q-29 25 -56.5 35.5t-59.5 10.5q-54 0 -90 -25.5t-56.5 -65t-29.5 -84.5t-9 -84q0 -61 22.5 -104.5
t70.5 -43.5q43 0 74.5 32.5t52.5 84.5t31 111zM542 47q35 0 68.5 7t67.5 29l22 -46q-27 -19 -52 -30t-45.5 -15t-36.5 -5t-26 -1q-66 0 -107.5 30.5t-61 81.5t-19.5 111q0 51 15 102t45.5 93.5t77 68.5t109.5 26q30 0 58.5 -9t47.5 -30t19 -56q0 -59 -29.5 -98t-77.5 -61.5
t-103.5 -31t-107.5 -7.5v47q22 -6 54 -3.5t66.5 12.5t65 27.5t49.5 43.5t19 59q0 29 -22.5 43t-48.5 14q-42 0 -74.5 -21.5t-54 -57t-32.5 -78t-11 -83.5q0 -45 12 -81.5t39.5 -58.5t73.5 -22z" />
    <glyph glyph-name="ccedilla" unicode="&#xe7;" horiz-adv-x="419" 
d="M382 399q-27 25 -51 34.5t-45 9.5q-46 0 -79.5 -20.5t-55.5 -54.5t-33 -75t-11 -82q0 -87 31.5 -127.5t88.5 -40.5q27 0 59 8.5t68 24.5l23 -39q-40 -27 -83 -39t-80 -12q-43 0 -82.5 21.5t-64.5 69.5t-25 125q0 46 13 97.5t42 97t76.5 74t116.5 28.5q33 0 67 -11.5
t65 -40.5zM255 -120q0 -27 -17.5 -48.5t-46.5 -34t-62 -14.5l-4 31q17 2 33 10t27 22t11 34q0 23 -14 36.5t-27 18.5l36 70h28l-27 -53q7 -1 22 -7.5t28 -22t13 -42.5z" />
    <glyph glyph-name="egrave" unicode="&#xe8;" horiz-adv-x="448" 
d="M291 499q30 0 58.5 -9t47 -30t18.5 -56q0 -59 -29.5 -98t-77.5 -61.5t-103.5 -31t-107.5 -7.5v47q33 -7 76 -1t84 24.5t68 47.5t27 68q0 29 -22.5 43t-49.5 14q-42 0 -74 -21.5t-53.5 -57t-32.5 -78t-11 -83.5q0 -84 37 -123t98 -39q28 0 60 7t66 22l22 -39
q-28 -19 -52.5 -30t-45.5 -15t-36.5 -5t-25.5 -1q-66 0 -107.5 30.5t-61 81.5t-19.5 111q0 51 15 102t45.5 93.5t77 68.5t109.5 26zM271 732l68 -145h-65l-113 145h110z" />
    <glyph glyph-name="eacute" unicode="&#xe9;" horiz-adv-x="448" 
d="M291 499q30 0 58.5 -9t47 -30t18.5 -56q0 -59 -29.5 -98t-77.5 -61.5t-103.5 -31t-107.5 -7.5v47q33 -7 76 -1t84 24.5t68 47.5t27 68q0 29 -22.5 43t-49.5 14q-42 0 -74 -21.5t-53.5 -57t-32.5 -78t-11 -83.5q0 -84 37 -123t98 -39q28 0 60 7t66 22l22 -39
q-28 -19 -52.5 -30t-45.5 -15t-36.5 -5t-25.5 -1q-66 0 -107.5 30.5t-61 81.5t-19.5 111q0 51 15 102t45.5 93.5t77 68.5t109.5 26zM374 732h109l-155 -145h-64z" />
    <glyph glyph-name="ecircumflex" unicode="&#xea;" horiz-adv-x="448" 
d="M291 499q30 0 58.5 -9t47 -30t18.5 -56q0 -59 -29.5 -98t-77.5 -61.5t-103.5 -31t-107.5 -7.5v47q33 -7 76 -1t84 24.5t68 47.5t27 68q0 29 -22.5 43t-49.5 14q-42 0 -74 -21.5t-53.5 -57t-32.5 -78t-11 -83.5q0 -84 37 -123t98 -39q28 0 60 7t66 22l22 -39
q-28 -19 -52.5 -30t-45.5 -15t-36.5 -5t-25.5 -1q-66 0 -107.5 30.5t-61 81.5t-19.5 111q0 51 15 102t45.5 93.5t77 68.5t109.5 26zM314 671l-98 -90h-57l128 158h75l87 -160h-59z" />
    <glyph glyph-name="edieresis" unicode="&#xeb;" horiz-adv-x="448" 
d="M291 499q30 0 58.5 -9t47 -30t18.5 -56q0 -59 -29.5 -98t-77.5 -61.5t-103.5 -31t-107.5 -7.5v47q33 -7 76 -1t84 24.5t68 47.5t27 68q0 29 -22.5 43t-49.5 14q-42 0 -74 -21.5t-53.5 -57t-32.5 -78t-11 -83.5q0 -84 37 -123t98 -39q28 0 60 7t66 22l22 -39
q-28 -19 -52.5 -30t-45.5 -15t-36.5 -5t-25.5 -1q-66 0 -107.5 30.5t-61 81.5t-19.5 111q0 51 15 102t45.5 93.5t77 68.5t109.5 26zM285 667q0 -25 -18.5 -43t-42.5 -18q-19 0 -31.5 13.5t-12.5 32.5q0 25 18.5 43t40.5 18q21 0 33.5 -13t12.5 -33zM444 667q0 -25 -18 -43
t-42 -18q-20 0 -32.5 13.5t-12.5 32.5q0 26 18.5 43.5t41.5 17.5q20 0 32.5 -13t12.5 -33z" />
    <glyph glyph-name="igrave" unicode="&#xec;" horiz-adv-x="226" 
d="M116 0h-69l57 428l2 58h69l-58 -426zM122 732l68 -145h-65l-113 145h110z" />
    <glyph glyph-name="iacute" unicode="&#xed;" horiz-adv-x="226" 
d="M116 0h-69l57 428l2 58h69l-58 -426zM225 732h109l-155 -145h-64z" />
    <glyph glyph-name="icircumflex" unicode="&#xee;" horiz-adv-x="226" 
d="M116 0h-69l57 428l2 58h69l-58 -426zM165 671l-98 -90h-57l128 158h75l87 -160h-59z" />
    <glyph glyph-name="idieresis" unicode="&#xef;" horiz-adv-x="226" 
d="M116 0h-69l57 428l2 58h69l-58 -426zM136 667q0 -25 -18.5 -43t-42.5 -18q-19 0 -31.5 13.5t-12.5 32.5q0 25 18.5 43t40.5 18q21 0 33.5 -13t12.5 -33zM295 667q0 -25 -18 -43t-42 -18q-20 0 -32.5 13.5t-12.5 32.5q0 26 18.5 43.5t41.5 17.5q20 0 32.5 -13t12.5 -33z
" />
    <glyph glyph-name="eth" unicode="&#xf0;" horiz-adv-x="493" 
d="M290 502q24 0 43 -5t38 -13q-17 46 -38 88.5t-44 78.5l-115 -62l-20 31l116 62q-13 18 -26 33.5t-24 27.5l39 23q10 -10 24 -26t27 -36l114 61l16 -33l-107 -58q31 -47 61 -107.5t50.5 -128.5t20.5 -139q0 -57 -17 -111.5t-48.5 -99t-76 -71t-100.5 -26.5q-58 0 -97 28
t-58.5 74.5t-19.5 101.5q0 57 17 111.5t48.5 99t76 70.5t100.5 26zM284 454q-40 0 -69 -18.5t-49 -48.5t-32.5 -64.5t-18 -66.5t-5.5 -55q0 -38 11 -76t37 -62.5t70 -24.5q28 0 53.5 11.5t47.5 33t38 52t25 68.5t9 83q0 40 -10.5 78.5t-36 64t-70.5 25.5z" />
    <glyph glyph-name="ntilde" unicode="&#xf1;" horiz-adv-x="495" 
d="M153 496q1 -3 4.5 -26.5t4.5 -48.5q19 17 42.5 35t53 30.5t64.5 12.5q18 0 39.5 -4t41 -17.5t32 -40t12.5 -71.5q0 -17 -3 -41l-35 -265l-1 -60h-69l40 292q2 15 4 31t2 32q0 21 -5.5 40.5t-21 32t-46.5 12.5q-28 0 -53.5 -10.5t-46.5 -24t-34.5 -25.5t-18.5 -15
l-49 -365h-62l47 347q2 14 3 26.5t1 22.5q0 39 -5.5 61t-10 29.5t-1.5 1.5zM471 698q-6 -17 -18 -38t-29.5 -36t-39.5 -15q-29 0 -52.5 9.5t-47.5 19t-53 9.5q-13 0 -19.5 -8.5t-14.5 -16.5h-41q8 21 22.5 42t34 35t43.5 14q26 0 50.5 -9.5t47 -19.5t42.5 -10q11 0 20.5 7.5
t16.5 16.5h38z" />
    <glyph glyph-name="ograve" unicode="&#xf2;" horiz-adv-x="501" 
d="M218 -14q-60 0 -98.5 31t-57 81.5t-18.5 107.5q0 52 15 103.5t45 94.5t74.5 69t104.5 26t98.5 -31t57 -80.5t18.5 -107.5q0 -52 -15 -104t-45 -95t-75 -69t-104 -26zM222 38q43 0 75 20.5t53 55t31.5 76t10.5 82.5q0 46 -12 85.5t-37 64.5t-65 25q-43 0 -74.5 -20.5
t-52.5 -55t-31.5 -75.5t-10.5 -82q0 -45 12 -85.5t37 -65.5t64 -25zM266 732l68 -145h-65l-113 145h110z" />
    <glyph glyph-name="oacute" unicode="&#xf3;" horiz-adv-x="501" 
d="M218 -14q-60 0 -98.5 31t-57 81.5t-18.5 107.5q0 52 15 103.5t45 94.5t74.5 69t104.5 26t98.5 -31t57 -80.5t18.5 -107.5q0 -52 -15 -104t-45 -95t-75 -69t-104 -26zM222 38q43 0 75 20.5t53 55t31.5 76t10.5 82.5q0 46 -12 85.5t-37 64.5t-65 25q-43 0 -74.5 -20.5
t-52.5 -55t-31.5 -75.5t-10.5 -82q0 -45 12 -85.5t37 -65.5t64 -25zM369 732h109l-155 -145h-64z" />
    <glyph glyph-name="ocircumflex" unicode="&#xf4;" horiz-adv-x="501" 
d="M218 -14q-60 0 -98.5 31t-57 81.5t-18.5 107.5q0 52 15 103.5t45 94.5t74.5 69t104.5 26t98.5 -31t57 -80.5t18.5 -107.5q0 -52 -15 -104t-45 -95t-75 -69t-104 -26zM222 38q43 0 75 20.5t53 55t31.5 76t10.5 82.5q0 46 -12 85.5t-37 64.5t-65 25q-43 0 -74.5 -20.5
t-52.5 -55t-31.5 -75.5t-10.5 -82q0 -45 12 -85.5t37 -65.5t64 -25zM309 671l-98 -90h-57l128 158h75l87 -160h-59z" />
    <glyph glyph-name="otilde" unicode="&#xf5;" horiz-adv-x="501" 
d="M218 -14q-60 0 -98.5 31t-57 81.5t-18.5 107.5q0 52 15 103.5t45 94.5t74.5 69t104.5 26t98.5 -31t57 -80.5t18.5 -107.5q0 -52 -15 -104t-45 -95t-75 -69t-104 -26zM222 38q43 0 75 20.5t53 55t31.5 76t10.5 82.5q0 46 -12 85.5t-37 64.5t-65 25q-43 0 -74.5 -20.5
t-52.5 -55t-31.5 -75.5t-10.5 -82q0 -45 12 -85.5t37 -65.5t64 -25zM463 698q-6 -17 -18 -38t-29.5 -36t-39.5 -15q-29 0 -52.5 9.5t-47.5 19t-53 9.5q-13 0 -19.5 -8.5t-14.5 -16.5h-41q8 21 22.5 42t34 35t43.5 14q26 0 50.5 -9.5t47 -19.5t42.5 -10q11 0 20.5 7.5
t16.5 16.5h38z" />
    <glyph glyph-name="odieresis" unicode="&#xf6;" horiz-adv-x="501" 
d="M218 -14q-60 0 -98.5 31t-57 81.5t-18.5 107.5q0 52 15 103.5t45 94.5t74.5 69t104.5 26t98.5 -31t57 -80.5t18.5 -107.5q0 -52 -15 -104t-45 -95t-75 -69t-104 -26zM222 38q43 0 75 20.5t53 55t31.5 76t10.5 82.5q0 46 -12 85.5t-37 64.5t-65 25q-43 0 -74.5 -20.5
t-52.5 -55t-31.5 -75.5t-10.5 -82q0 -45 12 -85.5t37 -65.5t64 -25zM280 667q0 -25 -18.5 -43t-42.5 -18q-19 0 -31.5 13.5t-12.5 32.5q0 25 18.5 43t40.5 18q21 0 33.5 -13t12.5 -33zM439 667q0 -25 -18 -43t-42 -18q-20 0 -32.5 13.5t-12.5 32.5q0 26 18.5 43.5t41.5 17.5
q20 0 32.5 -13t12.5 -33z" />
    <glyph glyph-name="divide" unicode="&#xf7;" horiz-adv-x="630" 
d="M390 392q0 -25 -19.5 -42t-42.5 -17q-19 0 -32 12t-13 31q0 24 18 42t42 18q20 0 33.5 -12.5t13.5 -31.5zM72 268h500l-8 -55h-499zM350 106q0 -16 -8.5 -29.5t-22 -21t-29.5 -7.5q-20 0 -33.5 12t-13.5 30q0 25 18.5 42t41.5 17q20 0 33.5 -12t13.5 -31z" />
    <glyph glyph-name="oslash" unicode="&#xf8;" horiz-adv-x="501" 
d="M218 -14q-60 0 -98.5 31t-57 81.5t-18.5 107.5q0 52 15 103.5t45 94.5t74.5 69t104.5 26t98.5 -31t57 -80.5t18.5 -107.5q0 -52 -15 -104t-45 -95t-75 -69t-104 -26zM222 38q43 0 75 20.5t53 55t31.5 76t10.5 82.5q0 46 -12 85.5t-37 64.5t-65 25q-43 0 -74.5 -20.5
t-52.5 -55t-31.5 -75.5t-10.5 -82q0 -45 12 -85.5t37 -65.5t64 -25zM51 -49l-34 27l434 573l37 -27z" />
    <glyph glyph-name="ugrave" unicode="&#xf9;" horiz-adv-x="516" 
d="M155 486l-43 -314q-1 -13 -2 -25.5t-1 -22.5q0 -52 20.5 -73t55.5 -21q11 0 28 1.5t37.5 11.5t40.5 34.5t37 69.5t27 117l24 157l3 65h67l-50 -370q-1 -8 -1.5 -15.5t-0.5 -12.5q0 -30 10 -38t20 -8q17 0 29.5 5.5t7.5 3.5l8 -46q8 5 -1 0t-25.5 -12t-31.5 -7t-34 8.5
t-32 28.5t-11 54h-4q-1 -3 -8 -17t-23.5 -31t-47 -30t-78.5 -13q-70 0 -99.5 39.5t-29.5 97.5q0 21 3 43l37 256l2 64h66zM246 732l68 -145h-65l-113 145h110z" />
    <glyph glyph-name="uacute" unicode="&#xfa;" horiz-adv-x="516" 
d="M155 486l-43 -314q-1 -13 -2 -25.5t-1 -22.5q0 -52 20.5 -73t55.5 -21q11 0 28 1.5t37.5 11.5t40.5 34.5t37 69.5t27 117l24 157l3 65h67l-50 -370q-1 -8 -1.5 -15.5t-0.5 -12.5q0 -30 10 -38t20 -8q17 0 29.5 5.5t7.5 3.5l8 -46q8 5 -1 0t-25.5 -12t-31.5 -7t-34 8.5
t-32 28.5t-11 54h-4q-1 -3 -8 -17t-23.5 -31t-47 -30t-78.5 -13q-70 0 -99.5 39.5t-29.5 97.5q0 21 3 43l37 256l2 64h66zM349 732h109l-155 -145h-64z" />
    <glyph glyph-name="ucircumflex" unicode="&#xfb;" horiz-adv-x="516" 
d="M155 486l-43 -314q-1 -13 -2 -25.5t-1 -22.5q0 -52 20.5 -73t55.5 -21q11 0 28 1.5t37.5 11.5t40.5 34.5t37 69.5t27 117l24 157l3 65h67l-50 -370q-1 -8 -1.5 -15.5t-0.5 -12.5q0 -30 10 -38t20 -8q17 0 29.5 5.5t7.5 3.5l8 -46q8 5 -1 0t-25.5 -12t-31.5 -7t-34 8.5
t-32 28.5t-11 54h-4q-1 -3 -8 -17t-23.5 -31t-47 -30t-78.5 -13q-70 0 -99.5 39.5t-29.5 97.5q0 21 3 43l37 256l2 64h66zM289 671l-98 -90h-57l128 158h75l87 -160h-59z" />
    <glyph glyph-name="udieresis" unicode="&#xfc;" horiz-adv-x="516" 
d="M155 486l-43 -314q-1 -13 -2 -25.5t-1 -22.5q0 -52 20.5 -73t55.5 -21q11 0 28 1.5t37.5 11.5t40.5 34.5t37 69.5t27 117l24 157l3 65h67l-50 -370q-1 -8 -1.5 -15.5t-0.5 -12.5q0 -30 10 -38t20 -8q17 0 29.5 5.5t7.5 3.5l8 -46q8 5 -1 0t-25.5 -12t-31.5 -7t-34 8.5
t-32 28.5t-11 54h-4q-1 -3 -8 -17t-23.5 -31t-47 -30t-78.5 -13q-70 0 -99.5 39.5t-29.5 97.5q0 21 3 43l37 256l2 64h66zM260 667q0 -25 -18.5 -43t-42.5 -18q-19 0 -31.5 13.5t-12.5 32.5q0 25 18.5 43t40.5 18q21 0 33.5 -13t12.5 -33zM419 667q0 -25 -18 -43t-42 -18
q-20 0 -32.5 13.5t-12.5 32.5q0 26 18.5 43.5t41.5 17.5q20 0 32.5 -13t12.5 -33z" />
    <glyph glyph-name="yacute" unicode="&#xfd;" horiz-adv-x="404" 
d="M-22 -171q31 2 56.5 10.5t47 27.5t41.5 52.5t41 84.5l-103 482h65q8 -41 17 -90.5t18.5 -102.5t20 -105.5t22.5 -99.5q26 52 51 105.5t49 105.5t45.5 99.5t40.5 87.5h57l-256 -562q-19 -42 -53 -76t-77.5 -54.5t-91.5 -23.5zM333 732h109l-155 -145h-64z" />
    <glyph glyph-name="thorn" unicode="&#xfe;" horiz-adv-x="508" 
d="M308 499q53 0 87 -23.5t50 -62.5t16 -86q0 -70 -18 -132t-51.5 -109t-79 -73.5t-101.5 -26.5q-35 0 -59 11.5t-38 18.5l-23 -184l-3 -55h-67l123 926l2 58h67l-47 -344q26 39 59.5 60.5t82.5 21.5zM296 449q-36 0 -62 -20.5t-43.5 -52t-29 -67.5t-17.5 -67.5t-9 -50.5
q-4 -36 -7.5 -67t-5.5 -56q12 -16 41 -23.5t54 -7.5q41 0 73 21t54.5 60t34.5 94t12 123q0 27 -8.5 53.5t-29 43.5t-57.5 17z" />
    <glyph glyph-name="ydieresis" unicode="&#xff;" horiz-adv-x="404" 
d="M-22 -171q31 2 56.5 10.5t47 27.5t41.5 52.5t41 84.5l-103 482h65q8 -41 17 -90.5t18.5 -102.5t20 -105.5t22.5 -99.5q26 52 51 105.5t49 105.5t45.5 99.5t40.5 87.5h57l-256 -562q-19 -42 -53 -76t-77.5 -54.5t-91.5 -23.5zM244 667q0 -25 -18.5 -43t-42.5 -18
q-19 0 -31.5 13.5t-12.5 32.5q0 25 18.5 43t40.5 18q21 0 33.5 -13t12.5 -33zM403 667q0 -25 -18 -43t-42 -18q-20 0 -32.5 13.5t-12.5 32.5q0 26 18.5 43.5t41.5 17.5q20 0 32.5 -13t12.5 -33z" />
    <glyph glyph-name="Amacron" unicode="&#x100;" horiz-adv-x="616" 
d="M431 720l138 -720h-74l-51 270h-241l-125 -270h-58l335 720h76zM373 625l-144 -305h204zM255 861h309l-7 -58h-309z" />
    <glyph glyph-name="amacron" unicode="&#x101;" horiz-adv-x="507" 
d="M416 492h34q-15 -98 -25.5 -165.5t-17 -111t-10 -69t-5 -39t-1.5 -21.5q0 -21 8.5 -31.5t29.5 -10.5q10 0 18.5 1.5t16.5 4.5l8 -43q-13 -7 -28 -13t-30 -6q-40 0 -60 27t-18 67h-4q-20 -43 -60 -69.5t-84 -26.5q-52 0 -84 27.5t-47 74t-15 101.5q0 56 15 111.5t46 100.5
t78 72t111 27q34 0 61.5 -12t54.5 -41v-45q-29 25 -56.5 35.5t-59.5 10.5q-54 0 -90 -25.5t-56.5 -65t-29.5 -84.5t-9 -84q0 -61 22.5 -104.5t70.5 -43.5q33 0 60 21t47.5 56.5t33.5 80.5t19 94l17 132zM147 689h308l-7 -59h-308z" />
    <glyph glyph-name="Abreve" unicode="&#x102;" horiz-adv-x="616" 
d="M431 720l138 -720h-74l-51 270h-241l-125 -270h-58l335 720h76zM373 625l-144 -305h204zM547 887q-8 -33 -27 -57.5t-49.5 -37.5t-71.5 -13q-40 0 -67.5 13t-40.5 37t-12 58h41q2 -26 27 -38t60 -12q36 0 63 11.5t38 38.5h39z" />
    <glyph glyph-name="abreve" unicode="&#x103;" horiz-adv-x="507" 
d="M416 492h34q-15 -98 -25.5 -165.5t-17 -111t-10 -69t-5 -39t-1.5 -21.5q0 -21 8.5 -31.5t29.5 -10.5q10 0 18.5 1.5t16.5 4.5l8 -43q-13 -7 -28 -13t-30 -6q-40 0 -60 27t-18 67h-4q-20 -43 -60 -69.5t-84 -26.5q-52 0 -84 27.5t-47 74t-15 101.5q0 56 15 111.5t46 100.5
t78 72t111 27q34 0 61.5 -12t54.5 -41v-45q-29 25 -56.5 35.5t-59.5 10.5q-54 0 -90 -25.5t-56.5 -65t-29.5 -84.5t-9 -84q0 -61 22.5 -104.5t70.5 -43.5q33 0 60 21t47.5 56.5t33.5 80.5t19 94l17 132zM442 726q-9 -39 -29 -68t-50.5 -44.5t-71.5 -15.5q-61 0 -89 35
t-27 93h41q2 -37 25 -53.5t59 -16.5t63 17t41 53h38z" />
    <glyph glyph-name="Aogonek" unicode="&#x104;" horiz-adv-x="616" 
d="M431 720l138 -720h-74l-51 270h-241l-125 -270h-58l335 720h76zM373 625l-144 -305h204zM557 9q-13 -7 -34 -18t-42.5 -26t-36 -34.5t-14.5 -42.5q0 -16 10.5 -26.5t32.5 -10.5q14 0 35 9t43 21l8 -30q-6 -4 -24 -15.5t-44 -21.5t-57 -10q-44 0 -60 21t-16 44
q0 28 19.5 53t49 46t62 35.5t57.5 21.5z" />
    <glyph glyph-name="aogonek" unicode="&#x105;" horiz-adv-x="507" 
d="M416 492h34q-15 -98 -25.5 -165.5t-17 -111t-10 -69t-5 -39t-1.5 -21.5q0 -21 8.5 -31.5t29.5 -10.5q10 0 18.5 1.5t16.5 4.5l8 -43q-13 -7 -28 -13t-30 -6q-40 0 -60 27t-18 67h-4q-20 -43 -60 -69.5t-84 -26.5q-52 0 -84 27.5t-47 74t-15 101.5q0 56 15 111.5t46 100.5
t78 72t111 27q34 0 61.5 -12t54.5 -41v-45q-29 25 -56.5 35.5t-59.5 10.5q-54 0 -90 -25.5t-56.5 -65t-29.5 -84.5t-9 -84q0 -61 22.5 -104.5t70.5 -43.5q33 0 60 21t47.5 56.5t33.5 80.5t19 94l17 132zM481 9q-13 -7 -34 -18t-42.5 -26t-36 -34.5t-14.5 -42.5
q0 -16 10.5 -26.5t32.5 -10.5q14 0 35 9t43 21l8 -30q-6 -4 -24 -15.5t-44 -21.5t-57 -10q-44 0 -60 21t-16 44q0 28 19.5 53t49 46t62 35.5t57.5 21.5z" />
    <glyph glyph-name="Cacute" unicode="&#x106;" horiz-adv-x="584" 
d="M324 -9q-67 0 -116.5 25.5t-82.5 69t-49 100t-16 117.5q0 75 24 150t71 137.5t116.5 100t160.5 37.5q34 0 67.5 -7.5t64.5 -25t55 -48.5l-43 -40q-34 36 -73 51t-82 15q-68 0 -121.5 -33.5t-91 -88t-57 -120t-19.5 -129.5q0 -66 22 -122t67 -90t114 -34q49 0 96.5 11
t89.5 36l19 -46q-27 -21 -64 -36t-76.5 -22.5t-75.5 -7.5zM471 895h109l-151 -124h-64z" />
    <glyph glyph-name="cacute" unicode="&#x107;" horiz-adv-x="419" 
d="M382 399q-27 25 -51 34.5t-45 9.5q-46 0 -79.5 -20.5t-55.5 -54.5t-33 -75t-11 -82q0 -87 31.5 -127.5t88.5 -40.5q27 0 59 8.5t68 24.5l23 -39q-40 -27 -83 -39t-80 -12q-43 0 -82.5 21.5t-64.5 69.5t-25 125q0 46 13 97.5t42 97t76.5 74t116.5 28.5q33 0 67 -11.5
t65 -40.5zM360 732h109l-155 -145h-64z" />
    <glyph glyph-name="Ccircumflex" unicode="&#x108;" horiz-adv-x="584" 
d="M324 -9q-67 0 -116.5 25.5t-82.5 69t-49 100t-16 117.5q0 75 24 150t71 137.5t116.5 100t160.5 37.5q34 0 67.5 -7.5t64.5 -25t55 -48.5l-43 -40q-34 36 -73 51t-82 15q-68 0 -121.5 -33.5t-91 -88t-57 -120t-19.5 -129.5q0 -66 22 -122t67 -90t114 -34q49 0 96.5 11
t89.5 36l19 -46q-27 -21 -64 -36t-76.5 -22.5t-75.5 -7.5zM410 835l-93 -70h-57l124 139h75l91 -140h-59z" />
    <glyph glyph-name="ccircumflex" unicode="&#x109;" horiz-adv-x="419" 
d="M382 399q-27 25 -51 34.5t-45 9.5q-46 0 -79.5 -20.5t-55.5 -54.5t-33 -75t-11 -82q0 -87 31.5 -127.5t88.5 -40.5q27 0 59 8.5t68 24.5l23 -39q-40 -27 -83 -39t-80 -12q-43 0 -82.5 21.5t-64.5 69.5t-25 125q0 46 13 97.5t42 97t76.5 74t116.5 28.5q33 0 67 -11.5
t65 -40.5zM300 671l-98 -90h-57l128 158h75l87 -160h-59z" />
    <glyph glyph-name="Cdotaccent" unicode="&#x10a;" horiz-adv-x="584" 
d="M324 -9q-67 0 -116.5 25.5t-82.5 69t-49 100t-16 117.5q0 75 24 150t71 137.5t116.5 100t160.5 37.5q34 0 67.5 -7.5t64.5 -25t55 -48.5l-43 -40q-34 36 -73 51t-82 15q-68 0 -121.5 -33.5t-91 -88t-57 -120t-19.5 -129.5q0 -66 22 -122t67 -90t114 -34q49 0 96.5 11
t89.5 36l19 -46q-27 -21 -64 -36t-76.5 -22.5t-75.5 -7.5zM463 838q0 -25 -18 -43t-42 -18q-20 0 -32.5 13.5t-12.5 32.5q0 26 18.5 43.5t41.5 17.5q20 0 32.5 -13t12.5 -33z" />
    <glyph glyph-name="cdotaccent" unicode="&#x10b;" horiz-adv-x="419" 
d="M382 399q-27 25 -51 34.5t-45 9.5q-46 0 -79.5 -20.5t-55.5 -54.5t-33 -75t-11 -82q0 -87 31.5 -127.5t88.5 -40.5q27 0 59 8.5t68 24.5l23 -39q-40 -27 -83 -39t-80 -12q-43 0 -82.5 21.5t-64.5 69.5t-25 125q0 46 13 97.5t42 97t76.5 74t116.5 28.5q33 0 67 -11.5
t65 -40.5zM350 667q0 -25 -18 -43t-42 -18q-20 0 -32.5 13.5t-12.5 32.5q0 26 18.5 43.5t41.5 17.5q20 0 32.5 -13t12.5 -33z" />
    <glyph glyph-name="Ccaron" unicode="&#x10c;" horiz-adv-x="584" 
d="M324 -9q-67 0 -116.5 25.5t-82.5 69t-49 100t-16 117.5q0 75 24 150t71 137.5t116.5 100t160.5 37.5q34 0 67.5 -7.5t64.5 -25t55 -48.5l-43 -40q-34 36 -73 51t-82 15q-68 0 -121.5 -33.5t-91 -88t-57 -120t-19.5 -129.5q0 -66 22 -122t67 -90t114 -34q49 0 96.5 11
t89.5 36l19 -46q-27 -21 -64 -36t-76.5 -22.5t-75.5 -7.5zM419 832l93 70h57l-123 -138h-75l-92 140h59z" />
    <glyph glyph-name="ccaron" unicode="&#x10d;" horiz-adv-x="419" 
d="M382 399q-27 25 -51 34.5t-45 9.5q-46 0 -79.5 -20.5t-55.5 -54.5t-33 -75t-11 -82q0 -87 31.5 -127.5t88.5 -40.5q27 0 59 8.5t68 24.5l23 -39q-40 -27 -83 -39t-80 -12q-43 0 -82.5 21.5t-64.5 69.5t-25 125q0 46 13 97.5t42 97t76.5 74t116.5 28.5q33 0 67 -11.5
t65 -40.5zM303 648l98 90h57l-128 -159h-75l-87 160h59z" />
    <glyph glyph-name="Dcaron" unicode="&#x10e;" horiz-adv-x="687" 
d="M635 433q0 -78 -19.5 -155t-61.5 -140t-108.5 -100.5t-161.5 -37.5h-221l88 653l4 67h234q68 0 115 -23.5t76 -64t42 -92t13 -107.5zM566 434q0 43 -8.5 84.5t-29 75t-55 53.5t-86.5 20h-166l-82 -614h150q59 0 104 24.5t78 65t54 90.5t31 102.5t10 98.5zM401 832l93 70
h57l-123 -138h-75l-92 140h59z" />
    <glyph glyph-name="dcaron" unicode="&#x10f;" horiz-adv-x="560" 
d="M311 500q30 0 50.5 -10t33.5 -18l32 236l3 53h66q-23 -163 -39.5 -278.5t-27 -191t-16 -119.5t-8 -63t-2.5 -23q0 -21 8.5 -32t29.5 -11q10 0 18.5 2t16.5 4l8 -42q-13 -7 -28 -13t-30 -6q-40 0 -59.5 27t-18.5 67h-4q-25 -43 -63 -69.5t-86 -26.5q-51 0 -84 24.5
t-49.5 66.5t-16.5 92q0 57 18.5 115t53 107t84 79t110.5 30zM314 448q-46 0 -82 -24t-60 -64t-36.5 -90t-12.5 -101q0 -36 10 -66t29 -48t45 -18q34 0 61 20t47.5 55t34 79.5t20.5 92.5l20 137q-13 11 -33 19t-43 8zM577 761h100l-71 -145h-60z" />
    <glyph glyph-name="Dcroat" unicode="&#x110;" horiz-adv-x="687" 
d="M635 433q0 -78 -19.5 -155t-61.5 -140t-108.5 -100.5t-161.5 -37.5h-221l88 653l4 67h234q68 0 115 -23.5t76 -64t42 -92t13 -107.5zM566 434q0 43 -8.5 84.5t-29 75t-55 53.5t-86.5 20h-166l-82 -614h150q59 0 104 24.5t78 65t54 90.5t31 102.5t10 98.5zM64 384h315
l-9 -55h-315z" />
    <glyph glyph-name="dcroat" unicode="&#x111;" horiz-adv-x="506" 
d="M415 708l3 53h66q-19 -137 -36 -255.5t-29.5 -209t-20 -144.5t-7.5 -63q0 -23 8.5 -34t29.5 -11q10 0 18.5 1.5t16.5 4.5l8 -43q-13 -7 -28 -13t-30 -6q-40 0 -60 27t-18 67h-4q-20 -43 -60 -69.5t-84 -26.5q-52 0 -84 27.5t-47 74t-15 101.5q0 56 15 111.5t46 100.5
t78 72t111 27q34 0 61.5 -12t54.5 -41v-45q-29 25 -56.5 35.5t-59.5 10.5q-54 0 -90 -25.5t-56.5 -65t-29.5 -84.5t-9 -84q0 -61 22.5 -104.5t70.5 -43.5q33 0 60 21t47.5 56.5t33.5 80.5t19 94zM233 678h315l-9 -55h-315z" />
    <glyph glyph-name="Emacron" unicode="&#x112;" horiz-adv-x="496" 
d="M154 720h396l-8 -53h-324l-34 -273h252l-9 -52h-251l-39 -289h324l-7 -53h-391l87 653zM216 861h309l-7 -58h-309z" />
    <glyph glyph-name="emacron" unicode="&#x113;" horiz-adv-x="448" 
d="M291 499q30 0 58.5 -9t47 -30t18.5 -56q0 -59 -29.5 -98t-77.5 -61.5t-103.5 -31t-107.5 -7.5v47q33 -7 76 -1t84 24.5t68 47.5t27 68q0 29 -22.5 43t-49.5 14q-42 0 -74 -21.5t-53.5 -57t-32.5 -78t-11 -83.5q0 -84 37 -123t98 -39q28 0 60 7t66 22l22 -39
q-28 -19 -52.5 -30t-45.5 -15t-36.5 -5t-25.5 -1q-66 0 -107.5 30.5t-61 81.5t-19.5 111q0 51 15 102t45.5 93.5t77 68.5t109.5 26zM160 689h308l-7 -59h-308z" />
    <glyph glyph-name="Ebreve" unicode="&#x114;" horiz-adv-x="496" 
d="M154 720h396l-8 -53h-324l-34 -273h252l-9 -52h-251l-39 -289h324l-7 -53h-391l87 653zM508 887q-8 -33 -27 -57.5t-49.5 -37.5t-71.5 -13q-40 0 -67.5 13t-40.5 37t-12 58h41q2 -26 27 -38t60 -12q36 0 63 11.5t38 38.5h39z" />
    <glyph glyph-name="ebreve" unicode="&#x115;" horiz-adv-x="448" 
d="M291 499q30 0 58.5 -9t47 -30t18.5 -56q0 -59 -29.5 -98t-77.5 -61.5t-103.5 -31t-107.5 -7.5v47q33 -7 76 -1t84 24.5t68 47.5t27 68q0 29 -22.5 43t-49.5 14q-42 0 -74 -21.5t-53.5 -57t-32.5 -78t-11 -83.5q0 -84 37 -123t98 -39q28 0 60 7t66 22l22 -39
q-28 -19 -52.5 -30t-45.5 -15t-36.5 -5t-25.5 -1q-66 0 -107.5 30.5t-61 81.5t-19.5 111q0 51 15 102t45.5 93.5t77 68.5t109.5 26zM455 726q-9 -39 -29 -68t-50.5 -44.5t-71.5 -15.5q-61 0 -89 35t-27 93h41q2 -37 25 -53.5t59 -16.5t63 17t41 53h38z" />
    <glyph glyph-name="Edotaccent" unicode="&#x116;" horiz-adv-x="496" 
d="M154 720h396l-8 -53h-324l-34 -273h252l-9 -52h-251l-39 -289h324l-7 -53h-391l87 653zM420 838q0 -25 -18 -43t-42 -18q-20 0 -32.5 13.5t-12.5 32.5q0 26 18.5 43.5t41.5 17.5q20 0 32.5 -13t12.5 -33z" />
    <glyph glyph-name="edotaccent" unicode="&#x117;" horiz-adv-x="448" 
d="M291 499q30 0 58.5 -9t47 -30t18.5 -56q0 -59 -29.5 -98t-77.5 -61.5t-103.5 -31t-107.5 -7.5v47q33 -7 76 -1t84 24.5t68 47.5t27 68q0 29 -22.5 43t-49.5 14q-42 0 -74 -21.5t-53.5 -57t-32.5 -78t-11 -83.5q0 -84 37 -123t98 -39q28 0 60 7t66 22l22 -39
q-28 -19 -52.5 -30t-45.5 -15t-36.5 -5t-25.5 -1q-66 0 -107.5 30.5t-61 81.5t-19.5 111q0 51 15 102t45.5 93.5t77 68.5t109.5 26zM364 667q0 -25 -18 -43t-42 -18q-20 0 -32.5 13.5t-12.5 32.5q0 26 18.5 43.5t41.5 17.5q20 0 32.5 -13t12.5 -33z" />
    <glyph glyph-name="Eogonek" unicode="&#x118;" horiz-adv-x="496" 
d="M154 720h396l-8 -53h-324l-34 -273h252l-9 -52h-251l-39 -289h324l-7 -53h-391l87 653zM445 9q-13 -7 -34 -18t-42.5 -26t-36 -34.5t-14.5 -42.5q0 -16 10.5 -26.5t32.5 -10.5q14 0 35 9t43 21l8 -30q-6 -4 -24 -15.5t-44 -21.5t-57 -10q-44 0 -60 21t-16 44
q0 28 19.5 53t49 46t62 35.5t57.5 21.5z" />
    <glyph glyph-name="eogonek" unicode="&#x119;" horiz-adv-x="448" 
d="M291 499q30 0 58.5 -9t47 -30t18.5 -56q0 -59 -29.5 -98t-77.5 -61.5t-103.5 -31t-107.5 -7.5v47q33 -7 76 -1t84 24.5t68 47.5t27 68q0 29 -22.5 43t-49.5 14q-42 0 -74 -21.5t-53.5 -57t-32.5 -78t-11 -83.5q0 -84 37 -123t98 -39q28 0 60 7t66 22l22 -39
q-28 -19 -52.5 -30t-45.5 -15t-36.5 -5t-25.5 -1q-66 0 -107.5 30.5t-61 81.5t-19.5 111q0 51 15 102t45.5 93.5t77 68.5t109.5 26zM338 9q-13 -7 -34 -18t-42.5 -26t-36 -34.5t-14.5 -42.5q0 -16 10.5 -26.5t32.5 -10.5q14 0 35 9t43 21l8 -30q-6 -4 -24 -15.5t-44 -21.5
t-57 -10q-44 0 -60 21t-16 44q0 28 19.5 53t49 46t62 35.5t57.5 21.5z" />
    <glyph glyph-name="Ecaron" unicode="&#x11a;" horiz-adv-x="496" 
d="M154 720h396l-8 -53h-324l-34 -273h252l-9 -52h-251l-39 -289h324l-7 -53h-391l87 653zM376 832l93 70h57l-123 -138h-75l-92 140h59z" />
    <glyph glyph-name="ecaron" unicode="&#x11b;" horiz-adv-x="448" 
d="M291 499q30 0 58.5 -9t47 -30t18.5 -56q0 -59 -29.5 -98t-77.5 -61.5t-103.5 -31t-107.5 -7.5v47q33 -7 76 -1t84 24.5t68 47.5t27 68q0 29 -22.5 43t-49.5 14q-42 0 -74 -21.5t-53.5 -57t-32.5 -78t-11 -83.5q0 -84 37 -123t98 -39q28 0 60 7t66 22l22 -39
q-28 -19 -52.5 -30t-45.5 -15t-36.5 -5t-25.5 -1q-66 0 -107.5 30.5t-61 81.5t-19.5 111q0 51 15 102t45.5 93.5t77 68.5t109.5 26zM317 648l98 90h57l-128 -159h-75l-87 160h59z" />
    <glyph glyph-name="Gcircumflex" unicode="&#x11c;" horiz-adv-x="666" 
d="M422 729q33 0 72 -8.5t76 -27t62 -49.5l-45 -47q-23 27 -49.5 43.5t-56.5 24.5t-66 8q-75 0 -128.5 -36t-88.5 -94t-51.5 -126t-16.5 -133q0 -49 11 -91t34 -73.5t60.5 -48.5t91.5 -17q52 0 94 24t69 66.5t34 95.5l8 67h-182l8 57h251q-14 -94 -23 -182t-17 -181h-37
l-18 74q-42 -42 -95 -63t-110 -21q-88 0 -143 40t-80.5 106t-25.5 142q0 79 22.5 158.5t67 145.5t113 106t159.5 40zM412 835l-93 -70h-57l124 139h75l91 -140h-59z" />
    <glyph glyph-name="gcircumflex" unicode="&#x11d;" horiz-adv-x="483" 
d="M416 492h34l-70 -481q-6 -43 -18.5 -85.5t-37 -77.5t-65.5 -56.5t-105 -21.5q-34 0 -63.5 9t-49.5 19t-24 11l30 59q24 -25 53.5 -35.5t39.5 -10.5q58 0 94 23.5t55.5 63t25.5 85.5l10 68h-4q-14 -28 -51.5 -52t-81.5 -24q-52 0 -84 27.5t-47 74t-15 101.5q0 56 15 111.5
t46 100.5t78 72t111 27q34 0 61.5 -12t54.5 -41v-45q-29 25 -56.5 35.5t-59.5 10.5q-54 0 -90 -25.5t-56.5 -65t-29.5 -84.5t-9 -84q0 -61 22.5 -104.5t70.5 -43.5q33 0 60 21t47.5 56.5t33.5 80.5t19 94l17 132zM312 671l-98 -90h-57l128 158h75l87 -160h-59z" />
    <glyph glyph-name="Gbreve" unicode="&#x11e;" horiz-adv-x="666" 
d="M422 729q33 0 72 -8.5t76 -27t62 -49.5l-45 -47q-23 27 -49.5 43.5t-56.5 24.5t-66 8q-75 0 -128.5 -36t-88.5 -94t-51.5 -126t-16.5 -133q0 -49 11 -91t34 -73.5t60.5 -48.5t91.5 -17q52 0 94 24t69 66.5t34 95.5l8 67h-182l8 57h251q-14 -94 -23 -182t-17 -181h-37
l-18 74q-42 -42 -95 -63t-110 -21q-88 0 -143 40t-80.5 106t-25.5 142q0 79 22.5 158.5t67 145.5t113 106t159.5 40zM553 887q-8 -33 -27 -57.5t-49.5 -37.5t-71.5 -13q-40 0 -67.5 13t-40.5 37t-12 58h41q2 -26 27 -38t60 -12q36 0 63 11.5t38 38.5h39z" />
    <glyph glyph-name="gbreve" unicode="&#x11f;" horiz-adv-x="483" 
d="M416 492h34l-70 -481q-6 -43 -18.5 -85.5t-37 -77.5t-65.5 -56.5t-105 -21.5q-34 0 -63.5 9t-49.5 19t-24 11l30 59q24 -25 53.5 -35.5t39.5 -10.5q58 0 94 23.5t55.5 63t25.5 85.5l10 68h-4q-14 -28 -51.5 -52t-81.5 -24q-52 0 -84 27.5t-47 74t-15 101.5q0 56 15 111.5
t46 100.5t78 72t111 27q34 0 61.5 -12t54.5 -41v-45q-29 25 -56.5 35.5t-59.5 10.5q-54 0 -90 -25.5t-56.5 -65t-29.5 -84.5t-9 -84q0 -61 22.5 -104.5t70.5 -43.5q33 0 60 21t47.5 56.5t33.5 80.5t19 94l17 132zM453 726q-9 -39 -29 -68t-50.5 -44.5t-71.5 -15.5
q-61 0 -89 35t-27 93h41q2 -37 25 -53.5t59 -16.5t63 17t41 53h38z" />
    <glyph glyph-name="Gdotaccent" unicode="&#x120;" horiz-adv-x="666" 
d="M422 729q33 0 72 -8.5t76 -27t62 -49.5l-45 -47q-23 27 -49.5 43.5t-56.5 24.5t-66 8q-75 0 -128.5 -36t-88.5 -94t-51.5 -126t-16.5 -133q0 -49 11 -91t34 -73.5t60.5 -48.5t91.5 -17q52 0 94 24t69 66.5t34 95.5l8 67h-182l8 57h251q-14 -94 -23 -182t-17 -181h-37
l-18 74q-42 -42 -95 -63t-110 -21q-88 0 -143 40t-80.5 106t-25.5 142q0 79 22.5 158.5t67 145.5t113 106t159.5 40zM465 838q0 -25 -18 -43t-42 -18q-20 0 -32.5 13.5t-12.5 32.5q0 26 18.5 43.5t41.5 17.5q20 0 32.5 -13t12.5 -33z" />
    <glyph glyph-name="gdotaccent" unicode="&#x121;" horiz-adv-x="483" 
d="M416 492h34l-70 -481q-6 -43 -18.5 -85.5t-37 -77.5t-65.5 -56.5t-105 -21.5q-34 0 -63.5 9t-49.5 19t-24 11l30 59q24 -25 53.5 -35.5t39.5 -10.5q58 0 94 23.5t55.5 63t25.5 85.5l10 68h-4q-14 -28 -51.5 -52t-81.5 -24q-52 0 -84 27.5t-47 74t-15 101.5q0 56 15 111.5
t46 100.5t78 72t111 27q34 0 61.5 -12t54.5 -41v-45q-29 25 -56.5 35.5t-59.5 10.5q-54 0 -90 -25.5t-56.5 -65t-29.5 -84.5t-9 -84q0 -61 22.5 -104.5t70.5 -43.5q33 0 60 21t47.5 56.5t33.5 80.5t19 94l17 132zM362 667q0 -25 -18 -43t-42 -18q-20 0 -32.5 13.5
t-12.5 32.5q0 26 18.5 43.5t41.5 17.5q20 0 32.5 -13t12.5 -33z" />
    <glyph glyph-name="uni0122" unicode="&#x122;" horiz-adv-x="666" 
d="M422 729q33 0 72 -8.5t76 -27t62 -49.5l-45 -47q-23 27 -49.5 43.5t-56.5 24.5t-66 8q-75 0 -128.5 -36t-88.5 -94t-51.5 -126t-16.5 -133q0 -49 11 -91t34 -73.5t60.5 -48.5t91.5 -17q52 0 94 24t69 66.5t34 95.5l8 67h-182l8 57h251q-14 -94 -23 -182t-17 -181h-37
l-18 74q-42 -42 -95 -63t-110 -21q-88 0 -143 40t-80.5 106t-25.5 142q0 79 22.5 158.5t67 145.5t113 106t159.5 40zM278 -84q26 0 39 -16t13 -40q0 -30 -16 -57t-39.5 -48.5t-46.5 -37.5l-24 25q9 8 21 17.5t21.5 20.5t9.5 23q0 10 -8.5 18t-17.5 17.5t-9 25.5
q0 23 17.5 37.5t39.5 14.5z" />
    <glyph glyph-name="uni0123" unicode="&#x123;" horiz-adv-x="483" 
d="M416 492h34l-70 -481q-6 -43 -18.5 -85.5t-37 -77.5t-65.5 -56.5t-105 -21.5q-34 0 -63.5 9t-49.5 19t-24 11l30 59q24 -25 53.5 -35.5t39.5 -10.5q58 0 94 23.5t55.5 63t25.5 85.5l10 68h-4q-14 -28 -51.5 -52t-81.5 -24q-52 0 -84 27.5t-47 74t-15 101.5q0 56 15 111.5
t46 100.5t78 72t111 27q34 0 61.5 -12t54.5 -41v-45q-29 25 -56.5 35.5t-59.5 10.5q-54 0 -90 -25.5t-56.5 -65t-29.5 -84.5t-9 -84q0 -61 22.5 -104.5t70.5 -43.5q33 0 60 21t47.5 56.5t33.5 80.5t19 94l17 132zM305 576q-29 0 -42 19.5t-9 47.5q5 41 35 74.5t66 57.5
l24 -25q-12 -12 -30.5 -26.5t-21.5 -33.5q-1 -11 8.5 -19t19 -19t6.5 -31q-3 -21 -19.5 -33t-36.5 -12z" />
    <glyph glyph-name="Hcircumflex" unicode="&#x124;" horiz-adv-x="671" 
d="M487 0l47 350h-357l-47 -350h-69l89 653l3 67h75l-42 -318h356l43 318h67l-98 -720h-67zM421 835l-93 -70h-57l124 139h75l91 -140h-59z" />
    <glyph glyph-name="hcircumflex" unicode="&#x125;" horiz-adv-x="493" 
d="M204 761l-47 -338q28 27 67 51.5t87 24.5q33 0 62.5 -11t48 -40t18.5 -82q0 -18 -3 -42l-33 -264l1 -60h-72l37 290q2 14 3.5 30t1.5 31q0 22 -5 42.5t-20.5 33.5t-45.5 13q-28 0 -53.5 -10.5t-46.5 -24t-34.5 -25.5t-18.5 -15l-50 -365h-62l95 703l2 58h68zM184 835
l-93 -70h-57l124 139h75l91 -140h-59z" />
    <glyph glyph-name="Hbar" unicode="&#x126;" horiz-adv-x="671" 
d="M487 0l47 350h-357l-47 -350h-69l89 653l3 67h75l-42 -318h356l43 318h67l-98 -720h-67zM74 586h635l-9 -55h-635z" />
    <glyph glyph-name="hbar" unicode="&#x127;" horiz-adv-x="493" 
d="M204 761l-47 -338q28 27 67 51.5t87 24.5q33 0 62.5 -11t48 -40t18.5 -82q0 -18 -3 -42l-33 -264l1 -60h-72l37 290q2 14 3.5 30t1.5 31q0 22 -5 42.5t-20.5 33.5t-45.5 13q-28 0 -53.5 -10.5t-46.5 -24t-34.5 -25.5t-18.5 -15l-50 -365h-62l95 703l2 58h68zM58 635h315
l-9 -55h-315z" />
    <glyph glyph-name="Itilde" unicode="&#x128;" horiz-adv-x="252" 
d="M158 720h75l-99 -720h-68l89 653zM361 870q-6 -17 -18.5 -38.5t-29.5 -36.5t-39 -15q-29 0 -52.5 10t-47.5 19.5t-53 9.5q-13 0 -19.5 -9t-14.5 -17h-41q8 21 22 42t34 35t44 14q26 0 50.5 -9.5t47 -19t42.5 -9.5q11 0 20.5 7t16.5 17h38z" />
    <glyph glyph-name="itilde" unicode="&#x129;" horiz-adv-x="226" 
d="M116 0h-69l57 428l2 58h69l-58 -426zM319 698q-6 -17 -18 -38t-29.5 -36t-39.5 -15q-29 0 -52.5 9.5t-47.5 19t-53 9.5q-13 0 -19.5 -8.5t-14.5 -16.5h-41q8 21 22.5 42t34 35t43.5 14q26 0 50.5 -9.5t47 -19.5t42.5 -10q11 0 20.5 7.5t16.5 16.5h38z" />
    <glyph glyph-name="Imacron" unicode="&#x12a;" horiz-adv-x="252" 
d="M158 720h75l-99 -720h-68l89 653zM54 861h309l-7 -58h-309z" />
    <glyph glyph-name="imacron" unicode="&#x12b;" horiz-adv-x="226" 
d="M116 0h-69l57 428l2 58h69l-58 -426zM11 689h308l-7 -59h-308z" />
    <glyph glyph-name="Ibreve" unicode="&#x12c;" horiz-adv-x="252" 
d="M158 720h75l-99 -720h-68l89 653zM346 887q-8 -33 -27 -57.5t-49.5 -37.5t-71.5 -13q-40 0 -67.5 13t-40.5 37t-12 58h41q2 -26 27 -38t60 -12q36 0 63 11.5t38 38.5h39z" />
    <glyph glyph-name="ibreve" unicode="&#x12d;" horiz-adv-x="226" 
d="M116 0h-69l57 428l2 58h69l-58 -426zM306 726q-9 -39 -29 -68t-50.5 -44.5t-71.5 -15.5q-61 0 -89 35t-27 93h41q2 -37 25 -53.5t59 -16.5t63 17t41 53h38z" />
    <glyph glyph-name="Iogonek" unicode="&#x12e;" horiz-adv-x="252" 
d="M158 720h75l-99 -720h-68l89 653zM136 9q-13 -7 -34 -18t-42.5 -26t-36 -34.5t-14.5 -42.5q0 -16 10.5 -26.5t32.5 -10.5q14 0 35 9t43 21l8 -30q-6 -4 -24 -15.5t-44 -21.5t-57 -10q-44 0 -60 21t-16 44q0 28 19.5 53t49 46t62 35.5t57.5 21.5z" />
    <glyph glyph-name="iogonek" unicode="&#x12f;" horiz-adv-x="226" 
d="M216 657q0 -22 -17 -38t-40 -16q-19 0 -32 11.5t-13 29.5q0 20 17 38t40 18q20 0 32.5 -13t12.5 -30zM175 486l-58 -426l-1 -60h-69l57 428l2 58h69zM114 4q-20 -10 -48.5 -26t-49.5 -38.5t-21 -51.5q0 -16 10 -26.5t33 -10.5q14 0 34.5 9t42.5 21l8 -30
q-6 -4 -23.5 -15.5t-43.5 -21.5t-58 -10q-43 0 -59 21t-16 44q0 28 19 53t49 46t62 35.5t58 21.5z" />
    <glyph glyph-name="Idotaccent" unicode="&#x130;" horiz-adv-x="252" 
d="M158 720h75l-99 -720h-68l89 653zM258 838q0 -25 -18 -43t-42 -18q-20 0 -32.5 13.5t-12.5 32.5q0 26 18.5 43.5t41.5 17.5q20 0 32.5 -13t12.5 -33z" />
    <glyph glyph-name="dotlessi" unicode="&#x131;" horiz-adv-x="226" 
d="M116 0h-69l57 428l2 58h69l-58 -426z" />
    <glyph glyph-name="IJ" unicode="&#x132;" horiz-adv-x="504" 
d="M158 720h75l-99 -720h-68l89 653zM412 720h75l-99 -698q-6 -46 -18 -88.5t-33.5 -76.5t-57.5 -56.5t-91 -29.5l-11 38q42 6 69 31.5t43.5 61t25 73.5t12.5 70l82 606z" />
    <glyph glyph-name="ij" unicode="&#x133;" horiz-adv-x="456" 
d="M216 657q0 -22 -17 -38t-40 -16q-19 0 -32 11.5t-13 29.5q0 20 17 38t40 18q20 0 32.5 -13t12.5 -30zM175 486l-58 -426l-1 -60h-69l57 428l2 58h69zM445 657q0 -21 -17 -38.5t-40 -17.5q-21 0 -32.5 13t-11.5 30q0 21 16 38t39 17q21 0 33.5 -12t12.5 -30zM404 486
l-66 -482q-4 -33 -14.5 -71t-28.5 -73t-46 -59.5t-69 -30.5l-9 47q44 19 64.5 48t28 64t12.5 70l60 428l2 59h66z" />
    <glyph glyph-name="Jcircumflex" unicode="&#x134;" horiz-adv-x="252" 
d="M160 720h75l-99 -698q-6 -46 -18 -88.5t-33.5 -76.5t-57.5 -56.5t-91 -29.5l-11 38q42 6 69 31.5t43.5 61t25 73.5t12.5 70l82 606zM215 835l-93 -70h-57l124 139h75l91 -140h-59z" />
    <glyph glyph-name="jcircumflex" unicode="&#x135;" horiz-adv-x="230" 
d="M178 486l-66 -482q-4 -33 -14.5 -71t-28.5 -73t-46 -59.5t-69 -30.5l-4 32q38 18 57.5 51t28.5 72t14 74l60 428l2 59h66zM168 671l-98 -90h-57l128 158h75l87 -160h-59z" />
    <glyph glyph-name="uni0136" unicode="&#x136;" horiz-adv-x="558" 
d="M228 720l-98 -720h-69l89 653l3 67h75zM532 720h61l-300 -309l220 -411h-84l-215 397zM256 -84q26 0 39 -16t13 -40q0 -30 -16 -57t-39.5 -48.5t-46.5 -37.5l-24 25q9 8 21 17.5t21.5 20.5t9.5 23q0 10 -8.5 18t-17.5 17.5t-9 25.5q0 23 17.5 37.5t39.5 14.5z" />
    <glyph glyph-name="uni0137" unicode="&#x137;" horiz-adv-x="477" 
d="M318 499q45 0 73.5 -16t42 -40t13.5 -50q0 -55 -42.5 -100.5t-132.5 -67.5q29 -52 62 -112t74 -113h-73q-46 61 -81.5 129.5t-70.5 126.5q55 3 101 19t73.5 43.5t27.5 62.5q0 28 -22.5 43.5t-51.5 15.5q-22 0 -48.5 -9.5t-55 -28.5t-59.5 -48v53q19 21 46 42t59 35.5
t65 14.5zM211 761l-105 -761h-61l97 703l3 58h66zM195 -84q26 0 39 -16t13 -40q0 -30 -16 -57t-39.5 -48.5t-46.5 -37.5l-24 25q9 8 21 17.5t21.5 20.5t9.5 23q0 10 -8.5 18t-17.5 17.5t-9 25.5q0 23 17.5 37.5t39.5 14.5z" />
    <glyph glyph-name="kgreenlandic" unicode="&#x138;" horiz-adv-x="472" 
d="M331 499q50 0 83 -28t33 -76t-47 -92.5t-145 -76.5q29 -52 69.5 -112.5t83.5 -113.5h-73q-47 61 -88.5 125t-74.5 122q67 12 113 37t69.5 54.5t23.5 53.5q0 23 -17 35.5t-45 12.5q-33 0 -79.5 -23.5t-92.5 -91.5v50q25 45 57.5 72t66.5 39.5t63 12.5zM173 486l-67 -486
h-61l68 486h60z" />
    <glyph glyph-name="Lacute" unicode="&#x139;" horiz-adv-x="478" 
d="M231 720l-90 -667h298l-9 -53h-367l88 653l3 67h77zM260 895h109l-151 -124h-64z" />
    <glyph glyph-name="lacute" unicode="&#x13a;" horiz-adv-x="222" 
d="M210 761l-94 -701l-2 -60h-69l97 703l1 58h67zM256 974h109l-155 -145h-64z" />
    <glyph glyph-name="uni013B" unicode="&#x13b;" horiz-adv-x="478" 
d="M231 720l-90 -667h298l-9 -53h-367l88 653l3 67h77zM236 -84q26 0 39 -16t13 -40q0 -30 -16 -57t-39.5 -48.5t-46.5 -37.5l-24 25q9 8 21 17.5t21.5 20.5t9.5 23q0 10 -8.5 18t-17.5 17.5t-9 25.5q0 23 17.5 37.5t39.5 14.5z" />
    <glyph glyph-name="uni013C" unicode="&#x13c;" horiz-adv-x="222" 
d="M210 761l-94 -701l-2 -60h-69l97 703l1 58h67zM57 -84q26 0 39 -16t13 -40q0 -30 -16 -57t-39.5 -48.5t-46.5 -37.5l-24 25q9 8 21 17.5t21.5 20.5t9.5 23q0 10 -8.5 18t-17.5 17.5t-9 25.5q0 23 17.5 37.5t39.5 14.5z" />
    <glyph glyph-name="Lcaron" unicode="&#x13d;" horiz-adv-x="478" 
d="M231 720l-90 -667h298l-9 -53h-367l88 653l3 67h77zM445 737h100l-71 -145h-59z" />
    <glyph glyph-name="lcaron" unicode="&#x13e;" horiz-adv-x="257" 
d="M210 761l-94 -701l-2 -60h-69l97 703l1 58h67zM270 762h99l-71 -145h-59z" />
    <glyph glyph-name="Ldot" unicode="&#x13f;" horiz-adv-x="478" 
d="M231 720l-90 -667h298l-9 -53h-367l88 653l3 67h77zM466 377q0 -27 -21.5 -47t-48.5 -20q-23 0 -38.5 15t-15.5 37q0 28 21 49t49 21q23 0 38.5 -16t15.5 -39z" />
    <glyph glyph-name="ldot" unicode="&#x140;" horiz-adv-x="293" 
d="M210 761l-94 -701l-2 -60h-69l97 703l1 58h67zM330 319q0 -27 -21.5 -47t-48.5 -20q-23 0 -38.5 15t-15.5 37q0 28 21 49t49 21q23 0 38.5 -16t15.5 -39z" />
    <glyph glyph-name="Lslash" unicode="&#x141;" horiz-adv-x="478" 
d="M231 720l-90 -667h298l-9 -53h-367l88 653l3 67h77zM7 259l8 54l387 169l-8 -54z" />
    <glyph glyph-name="lslash" unicode="&#x142;" horiz-adv-x="222" 
d="M210 761l-94 -701l-2 -60h-69l97 703l1 58h67zM13 312l7 54l228 100l-6 -54z" />
    <glyph glyph-name="Nacute" unicode="&#x143;" horiz-adv-x="670" 
d="M245 720l236 -490q10 -20 18.5 -39t16.5 -47q2 27 5.5 43.5t5.5 32.5l70 500h53l-98 -725h-30l-285 583q-7 16 -14.5 32t-15.5 43q-3 -28 -6.5 -47t-5.5 -36l-76 -570h-56l89 653l3 67h90zM476 895h109l-151 -124h-64z" />
    <glyph glyph-name="nacute" unicode="&#x144;" horiz-adv-x="495" 
d="M153 496q1 -3 4.5 -26.5t4.5 -48.5q19 17 42.5 35t53 30.5t64.5 12.5q18 0 39.5 -4t41 -17.5t32 -40t12.5 -71.5q0 -17 -3 -41l-35 -265l-1 -60h-69l40 292q2 15 4 31t2 32q0 21 -5.5 40.5t-21 32t-46.5 12.5q-28 0 -53.5 -10.5t-46.5 -24t-34.5 -25.5t-18.5 -15
l-49 -365h-62l47 347q2 14 3 26.5t1 22.5q0 39 -5.5 61t-10 29.5t-1.5 1.5zM377 732h109l-155 -145h-64z" />
    <glyph glyph-name="uni0145" unicode="&#x145;" horiz-adv-x="670" 
d="M245 720l236 -490q10 -20 18.5 -39t16.5 -47q2 27 5.5 43.5t5.5 32.5l70 500h53l-98 -725h-30l-285 583q-7 16 -14.5 32t-15.5 43q-3 -28 -6.5 -47t-5.5 -36l-76 -570h-56l89 653l3 67h90zM285 -84q26 0 39 -16t13 -40q0 -30 -16 -57t-39.5 -48.5t-46.5 -37.5l-24 25
q9 8 21 17.5t21.5 20.5t9.5 23q0 10 -8.5 18t-17.5 17.5t-9 25.5q0 23 17.5 37.5t39.5 14.5z" />
    <glyph glyph-name="uni0146" unicode="&#x146;" horiz-adv-x="495" 
d="M153 496q1 -3 4.5 -26.5t4.5 -48.5q19 17 42.5 35t53 30.5t64.5 12.5q18 0 39.5 -4t41 -17.5t32 -40t12.5 -71.5q0 -17 -3 -41l-35 -265l-1 -60h-69l40 292q2 15 4 31t2 32q0 21 -5.5 40.5t-21 32t-46.5 12.5q-28 0 -53.5 -10.5t-46.5 -24t-34.5 -25.5t-18.5 -15
l-49 -365h-62l47 347q2 14 3 26.5t1 22.5q0 39 -5.5 61t-10 29.5t-1.5 1.5zM214 -84q26 0 39 -16t13 -40q0 -30 -16 -57t-39.5 -48.5t-46.5 -37.5l-24 25q9 8 21 17.5t21.5 20.5t9.5 23q0 10 -8.5 18t-17.5 17.5t-9 25.5q0 23 17.5 37.5t39.5 14.5z" />
    <glyph glyph-name="Ncaron" unicode="&#x147;" horiz-adv-x="670" 
d="M245 720l236 -490q10 -20 18.5 -39t16.5 -47q2 27 5.5 43.5t5.5 32.5l70 500h53l-98 -725h-30l-285 583q-7 16 -14.5 32t-15.5 43q-3 -28 -6.5 -47t-5.5 -36l-76 -570h-56l89 653l3 67h90zM424 832l93 70h57l-123 -138h-75l-92 140h59z" />
    <glyph glyph-name="ncaron" unicode="&#x148;" horiz-adv-x="495" 
d="M153 496q1 -3 4.5 -26.5t4.5 -48.5q19 17 42.5 35t53 30.5t64.5 12.5q18 0 39.5 -4t41 -17.5t32 -40t12.5 -71.5q0 -17 -3 -41l-35 -265l-1 -60h-69l40 292q2 15 4 31t2 32q0 21 -5.5 40.5t-21 32t-46.5 12.5q-28 0 -53.5 -10.5t-46.5 -24t-34.5 -25.5t-18.5 -15
l-49 -365h-62l47 347q2 14 3 26.5t1 22.5q0 39 -5.5 61t-10 29.5t-1.5 1.5zM320 648l98 90h57l-128 -159h-75l-87 160h59z" />
    <glyph glyph-name="napostrophe" unicode="&#x149;" horiz-adv-x="495" 
d="M153 496q1 -3 4.5 -26.5t4.5 -48.5q19 17 42.5 35t53 30.5t64.5 12.5q18 0 39.5 -4t41 -17.5t32 -40t12.5 -71.5q0 -17 -3 -41l-35 -265l-1 -60h-69l40 292q2 15 4 31t2 32q0 21 -5.5 40.5t-21 32t-46.5 12.5q-28 0 -53.5 -10.5t-46.5 -24t-34.5 -25.5t-18.5 -15
l-49 -365h-62l47 347q2 14 3 26.5t1 22.5q0 39 -5.5 61t-10 29.5t-1.5 1.5zM87 757q29 0 42 -20t9 -48q-5 -40 -34.5 -74.5t-66.5 -57.5q-7 5 -12.5 12.5t-11.5 12.5q13 13 31 27t21 31q2 12 -8 20.5t-19 19.5t-7 31q3 20 20 33t36 13z" />
    <glyph glyph-name="Eng" unicode="&#x14a;" horiz-adv-x="670" 
d="M63 0l89 653l3 67h90l236 -490q10 -20 18.5 -39t16.5 -47q2 27 5.5 43.5t5.5 32.5l70 500h53l-96 -698q-7 -46 -18.5 -88.5t-33.5 -76.5t-57.5 -56.5t-90.5 -29.5l-12 38q43 6 70.5 32.5t43.5 63t24.5 75.5t12.5 72l-256 526q-7 16 -14.5 32t-15.5 43q-3 -28 -6.5 -47
t-5.5 -36l-76 -570h-56z" />
    <glyph glyph-name="eng" unicode="&#x14b;" horiz-adv-x="495" 
d="M48 0l47 347q2 14 3 26.5t1 22.5q0 39 -5.5 61t-10 29.5t-1.5 1.5l71 8q1 -3 4.5 -26.5t4.5 -48.5q19 17 42.5 35t53 30.5t64.5 12.5q18 0 39.5 -4t41 -17.5t32 -40t12.5 -71.5q0 -17 -3 -41l-45 -321q-4 -33 -14 -71.5t-28 -73t-46 -59t-69 -30.5l-5 32q38 18 58 51
t29 72t14 74l41 293q2 15 4 31t2 32q0 21 -5.5 40.5t-21 32t-46.5 12.5q-28 0 -53.5 -10.5t-46.5 -24t-34.5 -25.5t-18.5 -15l-49 -365h-62z" />
    <glyph glyph-name="Omacron" unicode="&#x14c;" horiz-adv-x="709" 
d="M306 -9q-67 0 -114 24t-76 65.5t-42.5 94.5t-13.5 111q0 77 21 155t64.5 143.5t109 105t155.5 39.5t144 -40.5t78 -107t24 -144.5q0 -81 -21.5 -160.5t-64.5 -144t-109 -103t-155 -38.5zM318 46q58 0 102 23.5t76 64t52 90.5t29.5 104t9.5 104q0 63 -17 118t-57.5 89.5
t-110.5 34.5q-58 0 -102 -24t-76 -64t-52.5 -90.5t-30.5 -104.5t-10 -104q0 -61 17.5 -116.5t58.5 -90t111 -34.5zM277 861h309l-7 -58h-309z" />
    <glyph glyph-name="omacron" unicode="&#x14d;" horiz-adv-x="501" 
d="M218 -14q-60 0 -98.5 31t-57 81.5t-18.5 107.5q0 52 15 103.5t45 94.5t74.5 69t104.5 26t98.5 -31t57 -80.5t18.5 -107.5q0 -52 -15 -104t-45 -95t-75 -69t-104 -26zM222 38q43 0 75 20.5t53 55t31.5 76t10.5 82.5q0 46 -12 85.5t-37 64.5t-65 25q-43 0 -74.5 -20.5
t-52.5 -55t-31.5 -75.5t-10.5 -82q0 -45 12 -85.5t37 -65.5t64 -25zM155 689h308l-7 -59h-308z" />
    <glyph glyph-name="Obreve" unicode="&#x14e;" horiz-adv-x="709" 
d="M306 -9q-67 0 -114 24t-76 65.5t-42.5 94.5t-13.5 111q0 77 21 155t64.5 143.5t109 105t155.5 39.5t144 -40.5t78 -107t24 -144.5q0 -81 -21.5 -160.5t-64.5 -144t-109 -103t-155 -38.5zM318 46q58 0 102 23.5t76 64t52 90.5t29.5 104t9.5 104q0 63 -17 118t-57.5 89.5
t-110.5 34.5q-58 0 -102 -24t-76 -64t-52.5 -90.5t-30.5 -104.5t-10 -104q0 -61 17.5 -116.5t58.5 -90t111 -34.5zM569 887q-8 -33 -27 -57.5t-49.5 -37.5t-71.5 -13q-40 0 -67.5 13t-40.5 37t-12 58h41q2 -26 27 -38t60 -12q36 0 63 11.5t38 38.5h39z" />
    <glyph glyph-name="obreve" unicode="&#x14f;" horiz-adv-x="501" 
d="M218 -14q-60 0 -98.5 31t-57 81.5t-18.5 107.5q0 52 15 103.5t45 94.5t74.5 69t104.5 26t98.5 -31t57 -80.5t18.5 -107.5q0 -52 -15 -104t-45 -95t-75 -69t-104 -26zM222 38q43 0 75 20.5t53 55t31.5 76t10.5 82.5q0 46 -12 85.5t-37 64.5t-65 25q-43 0 -74.5 -20.5
t-52.5 -55t-31.5 -75.5t-10.5 -82q0 -45 12 -85.5t37 -65.5t64 -25zM450 726q-9 -39 -29 -68t-50.5 -44.5t-71.5 -15.5q-61 0 -89 35t-27 93h41q2 -37 25 -53.5t59 -16.5t63 17t41 53h38z" />
    <glyph glyph-name="Ohungarumlaut" unicode="&#x150;" horiz-adv-x="709" 
d="M306 -9q-67 0 -114 24t-76 65.5t-42.5 94.5t-13.5 111q0 77 21 155t64.5 143.5t109 105t155.5 39.5t144 -40.5t78 -107t24 -144.5q0 -81 -21.5 -160.5t-64.5 -144t-109 -103t-155 -38.5zM318 46q58 0 102 23.5t76 64t52 90.5t29.5 104t9.5 104q0 63 -17 118t-57.5 89.5
t-110.5 34.5q-58 0 -102 -24t-76 -64t-52.5 -90.5t-30.5 -104.5t-10 -104q0 -61 17.5 -116.5t58.5 -90t111 -34.5zM435 895h109l-168 -124h-46zM569 895h107l-168 -124h-44z" />
    <glyph glyph-name="ohungarumlaut" unicode="&#x151;" horiz-adv-x="501" 
d="M218 -14q-60 0 -98.5 31t-57 81.5t-18.5 107.5q0 52 15 103.5t45 94.5t74.5 69t104.5 26t98.5 -31t57 -80.5t18.5 -107.5q0 -52 -15 -104t-45 -95t-75 -69t-104 -26zM222 38q43 0 75 20.5t53 55t31.5 76t10.5 82.5q0 46 -12 85.5t-37 64.5t-65 25q-43 0 -74.5 -20.5
t-52.5 -55t-31.5 -75.5t-10.5 -82q0 -45 12 -85.5t37 -65.5t64 -25zM314 732h109l-172 -145h-45zM448 732h108l-172 -145h-44z" />
    <glyph glyph-name="OE" unicode="&#x152;" horiz-adv-x="970" 
d="M543 82q-41 -38 -101 -64.5t-136 -26.5q-67 0 -114 24t-76 65.5t-42.5 94.5t-13.5 111q0 77 21 155t64.5 143.5t109 105t155.5 39.5q74 0 126 -25.5t81 -65.5l10 82h393l-9 -53h-323l-35 -273h252l-8 -52h-252l-39 -289h324l-7 -53h-391zM318 46q58 0 102 23.5t76 64
t52 90.5t29.5 104t9.5 104q0 63 -17 118t-57.5 89.5t-110.5 34.5q-58 0 -102 -24t-76 -64t-52.5 -90.5t-30.5 -104.5t-10 -104q0 -61 17.5 -116.5t58.5 -90t111 -34.5z" />
    <glyph glyph-name="oe" unicode="&#x153;" horiz-adv-x="793" 
d="M218 -14q-60 0 -98.5 31t-57 81.5t-18.5 107.5q0 52 15 103.5t45 94.5t74.5 69t104.5 26t98.5 -31t57 -80.5t18.5 -107.5q0 -52 -15 -104t-45 -95t-75 -69t-104 -26zM222 38q43 0 75 20.5t53 55t31.5 76t10.5 82.5q0 46 -12 85.5t-37 64.5t-65 25q-43 0 -74.5 -20.5
t-52.5 -55t-31.5 -75.5t-10.5 -82q0 -45 12 -85.5t37 -65.5t64 -25zM578 47q36 0 69.5 7t67.5 29l22 -46q-28 -19 -52.5 -30t-45.5 -15t-36.5 -5t-25.5 -1q-67 0 -108 30.5t-60.5 81.5t-19.5 111q0 51 15 102t45.5 93.5t77 68.5t109.5 26q30 0 58.5 -9t47.5 -30t19 -56
q0 -59 -29.5 -98t-77.5 -61.5t-103.5 -31t-107.5 -7.5v47q21 -6 53 -3.5t67 12.5t65.5 27.5t49.5 43.5t19 59q0 29 -22.5 43t-48.5 14q-42 0 -74.5 -21.5t-54 -57t-32.5 -78t-11 -83.5q0 -45 12 -81.5t39.5 -58.5t72.5 -22z" />
    <glyph glyph-name="Racute" unicode="&#x154;" horiz-adv-x="570" 
d="M131 0h-70l89 653l3 67h203q50 0 94.5 -18t72.5 -55t28 -96q0 -50 -20.5 -96t-64.5 -79.5t-116 -47.5l183 -328h-85l-206 366h17q102 0 161.5 45t59.5 127q0 66 -37 97.5t-100 31.5h-122zM403 895h109l-151 -124h-64z" />
    <glyph glyph-name="racute" unicode="&#x155;" horiz-adv-x="333" 
d="M158 499q6 -19 8 -33.5t3 -49.5q20 24 48 42.5t61.5 29.5t69.5 11l-31 -72q-55 0 -91 -25.5t-62 -63.5l-45 -338h-67l45 355q2 14 2.5 24t0.5 22q0 15 -3.5 41.5t-14.5 45.5zM288 732h109l-155 -145h-64z" />
    <glyph glyph-name="uni0156" unicode="&#x156;" horiz-adv-x="570" 
d="M131 0h-70l89 653l3 67h203q50 0 94.5 -18t72.5 -55t28 -96q0 -50 -20.5 -96t-64.5 -79.5t-116 -47.5l183 -328h-85l-206 366h17q102 0 161.5 45t59.5 127q0 66 -37 97.5t-100 31.5h-122zM248 -84q26 0 39 -16t13 -40q0 -30 -16 -57t-39.5 -48.5t-46.5 -37.5l-24 25
q9 8 21 17.5t21.5 20.5t9.5 23q0 10 -8.5 18t-17.5 17.5t-9 25.5q0 23 17.5 37.5t39.5 14.5z" />
    <glyph glyph-name="uni0157" unicode="&#x157;" horiz-adv-x="333" 
d="M158 499q6 -19 8 -33.5t3 -49.5q20 24 48 42.5t61.5 29.5t69.5 11l-31 -72q-55 0 -91 -25.5t-62 -63.5l-45 -338h-67l45 355q2 14 2.5 24t0.5 22q0 15 -3.5 41.5t-14.5 45.5zM73 -84q26 0 39 -16t13 -40q0 -30 -16 -57t-39.5 -48.5t-46.5 -37.5l-24 25q9 8 21 17.5
t21.5 20.5t9.5 23q0 10 -8.5 18t-17.5 17.5t-9 25.5q0 23 17.5 37.5t39.5 14.5z" />
    <glyph glyph-name="Rcaron" unicode="&#x158;" horiz-adv-x="570" 
d="M131 0h-70l89 653l3 67h203q50 0 94.5 -18t72.5 -55t28 -96q0 -50 -20.5 -96t-64.5 -79.5t-116 -47.5l183 -328h-85l-206 366h17q102 0 161.5 45t59.5 127q0 66 -37 97.5t-100 31.5h-122zM351 832l93 70h57l-123 -138h-75l-92 140h59z" />
    <glyph glyph-name="rcaron" unicode="&#x159;" horiz-adv-x="333" 
d="M158 499q6 -19 8 -33.5t3 -49.5q20 24 48 42.5t61.5 29.5t69.5 11l-31 -72q-55 0 -91 -25.5t-62 -63.5l-45 -338h-67l45 355q2 14 2.5 24t0.5 22q0 15 -3.5 41.5t-14.5 45.5zM231 648l98 90h57l-128 -159h-75l-87 160h59z" />
    <glyph glyph-name="Sacute" unicode="&#x15a;" horiz-adv-x="513" 
d="M341 729q30 0 54 -3.5t47.5 -12.5t49.5 -24l-33 -56q-23 17 -39 25.5t-33 12t-43 3.5q-39 0 -75.5 -14.5t-59.5 -42t-23 -67.5q0 -35 19.5 -60t50.5 -44.5t65.5 -39.5t65.5 -45.5t50.5 -61.5t19.5 -88q0 -67 -32.5 -116.5t-86 -76.5t-118.5 -27q-46 0 -92 14t-91 36
l31 58q33 -20 54.5 -31.5t44 -16.5t58.5 -5q43 0 80 24t60.5 61.5t23.5 78.5t-19.5 68.5t-50 47.5t-64.5 39t-64.5 42t-50 56t-19.5 83q0 58 31.5 99t82 62.5t106.5 21.5zM389 895h109l-151 -124h-64z" />
    <glyph glyph-name="sacute" unicode="&#x15b;" horiz-adv-x="379" 
d="M327 418q-24 15 -46 23t-48 8t-50 -10.5t-39.5 -30t-15.5 -47.5q0 -25 19.5 -44t49 -36.5t58.5 -38t48.5 -49.5t19.5 -71q0 -44 -23 -74.5t-59.5 -46t-79.5 -15.5t-76.5 10.5t-67.5 29.5l38 50q22 -19 50 -29t51 -10q25 0 49.5 8.5t41 27t16.5 48.5t-19.5 51.5t-48 38.5
t-57.5 36t-48.5 44t-19.5 62q0 51 24.5 83t63 47.5t80.5 15.5q33 0 61 -9t52 -25zM305 732h109l-155 -145h-64z" />
    <glyph glyph-name="Scircumflex" unicode="&#x15c;" horiz-adv-x="513" 
d="M341 729q30 0 54 -3.5t47.5 -12.5t49.5 -24l-33 -56q-23 17 -39 25.5t-33 12t-43 3.5q-39 0 -75.5 -14.5t-59.5 -42t-23 -67.5q0 -35 19.5 -60t50.5 -44.5t65.5 -39.5t65.5 -45.5t50.5 -61.5t19.5 -88q0 -67 -32.5 -116.5t-86 -76.5t-118.5 -27q-46 0 -92 14t-91 36
l31 58q33 -20 54.5 -31.5t44 -16.5t58.5 -5q43 0 80 24t60.5 61.5t23.5 78.5t-19.5 68.5t-50 47.5t-64.5 39t-64.5 42t-50 56t-19.5 83q0 58 31.5 99t82 62.5t106.5 21.5zM328 835l-93 -70h-57l124 139h75l91 -140h-59z" />
    <glyph glyph-name="scircumflex" unicode="&#x15d;" horiz-adv-x="379" 
d="M327 418q-24 15 -46 23t-48 8t-50 -10.5t-39.5 -30t-15.5 -47.5q0 -25 19.5 -44t49 -36.5t58.5 -38t48.5 -49.5t19.5 -71q0 -44 -23 -74.5t-59.5 -46t-79.5 -15.5t-76.5 10.5t-67.5 29.5l38 50q22 -19 50 -29t51 -10q25 0 49.5 8.5t41 27t16.5 48.5t-19.5 51.5t-48 38.5
t-57.5 36t-48.5 44t-19.5 62q0 51 24.5 83t63 47.5t80.5 15.5q33 0 61 -9t52 -25zM245 671l-98 -90h-57l128 158h75l87 -160h-59z" />
    <glyph glyph-name="Scedilla" unicode="&#x15e;" horiz-adv-x="513" 
d="M341 729q30 0 54 -3.5t47.5 -12.5t49.5 -24l-33 -56q-23 17 -39 25.5t-33 12t-43 3.5q-39 0 -75.5 -14.5t-59.5 -42t-23 -67.5q0 -35 19.5 -60t50.5 -44.5t65.5 -39.5t65.5 -45.5t50.5 -61.5t19.5 -88q0 -67 -32.5 -116.5t-86 -76.5t-118.5 -27q-46 0 -92 14t-91 36
l31 58q33 -20 54.5 -31.5t44 -16.5t58.5 -5q43 0 80 24t60.5 61.5t23.5 78.5t-19.5 68.5t-50 47.5t-64.5 39t-64.5 42t-50 56t-19.5 83q0 58 31.5 99t82 62.5t106.5 21.5zM268 -120q0 -27 -17.5 -48.5t-46.5 -34t-62 -14.5l-4 31q17 2 33 10t27 22t11 34q0 23 -14 36.5
t-27 18.5l36 70h28l-27 -53q7 -1 22 -7.5t28 -22t13 -42.5z" />
    <glyph glyph-name="scedilla" unicode="&#x15f;" horiz-adv-x="379" 
d="M327 418q-24 15 -46 23t-48 8t-50 -10.5t-39.5 -30t-15.5 -47.5q0 -25 19.5 -44t49 -36.5t58.5 -38t48.5 -49.5t19.5 -71q0 -44 -23 -74.5t-59.5 -46t-79.5 -15.5t-76.5 10.5t-67.5 29.5l38 50q22 -19 50 -29t51 -10q25 0 49.5 8.5t41 27t16.5 48.5t-19.5 51.5t-48 38.5
t-57.5 36t-48.5 44t-19.5 62q0 51 24.5 83t63 47.5t80.5 15.5q33 0 61 -9t52 -25zM205 -120q0 -27 -17.5 -48.5t-46.5 -34t-62 -14.5l-4 31q17 2 33 10t27 22t11 34q0 23 -14 36.5t-27 18.5l36 70h28l-27 -53q7 -1 22 -7.5t28 -22t13 -42.5z" />
    <glyph glyph-name="Scaron" unicode="&#x160;" horiz-adv-x="513" 
d="M341 729q30 0 54 -3.5t47.5 -12.5t49.5 -24l-33 -56q-23 17 -39 25.5t-33 12t-43 3.5q-39 0 -75.5 -14.5t-59.5 -42t-23 -67.5q0 -35 19.5 -60t50.5 -44.5t65.5 -39.5t65.5 -45.5t50.5 -61.5t19.5 -88q0 -67 -32.5 -116.5t-86 -76.5t-118.5 -27q-46 0 -92 14t-91 36
l31 58q33 -20 54.5 -31.5t44 -16.5t58.5 -5q43 0 80 24t60.5 61.5t23.5 78.5t-19.5 68.5t-50 47.5t-64.5 39t-64.5 42t-50 56t-19.5 83q0 58 31.5 99t82 62.5t106.5 21.5zM337 832l93 70h57l-123 -138h-75l-92 140h59z" />
    <glyph glyph-name="scaron" unicode="&#x161;" horiz-adv-x="379" 
d="M327 418q-24 15 -46 23t-48 8t-50 -10.5t-39.5 -30t-15.5 -47.5q0 -25 19.5 -44t49 -36.5t58.5 -38t48.5 -49.5t19.5 -71q0 -44 -23 -74.5t-59.5 -46t-79.5 -15.5t-76.5 10.5t-67.5 29.5l38 50q22 -19 50 -29t51 -10q25 0 49.5 8.5t41 27t16.5 48.5t-19.5 51.5t-48 38.5
t-57.5 36t-48.5 44t-19.5 62q0 51 24.5 83t63 47.5t80.5 15.5q33 0 61 -9t52 -25zM248 648l98 90h57l-128 -159h-75l-87 160h59z" />
    <glyph glyph-name="uni0162" unicode="&#x162;" horiz-adv-x="509" 
d="M54 720h499l-7 -53h-216l-90 -667h-67l90 667h-218zM254 -120q0 -27 -17.5 -48.5t-46.5 -34t-62 -14.5l-4 31q17 2 33 10t27 22t11 34q0 23 -14 36.5t-27 18.5l36 70h28l-27 -53q7 -1 22 -7.5t28 -22t13 -42.5z" />
    <glyph glyph-name="uni0163" unicode="&#x163;" horiz-adv-x="272" 
d="M213 630q-13 -40 -22 -71t-18 -73h112l-17 -52h-103l-43 -339q0 3 -1 -5.5t-1 -12.5q0 -20 10 -30t32 -10q7 0 22 3t37 8l5 -44q10 3 0 -2t-31.5 -11t-44.5 -6q-16 0 -37.5 4.5t-37 24.5t-15.5 66q0 6 1 16t2 16.5t0 3.5l42 318h-69l8 52q21 0 41.5 12.5t40.5 44t39 87.5
h48zM165 -120q0 -27 -17.5 -48.5t-46.5 -34t-62 -14.5l-4 31q17 2 33 10t27 22t11 34q0 23 -14 36.5t-27 18.5l36 70h28l-27 -53q7 -1 22 -7.5t28 -22t13 -42.5z" />
    <glyph glyph-name="Tcaron" unicode="&#x164;" horiz-adv-x="509" 
d="M54 720h499l-7 -53h-216l-90 -667h-67l90 667h-218zM328 832l93 70h57l-123 -138h-75l-92 140h59z" />
    <glyph glyph-name="tcaron" unicode="&#x165;" horiz-adv-x="272" 
d="M213 630q-13 -40 -22 -71t-18 -73h112l-17 -52h-103l-43 -339q0 3 -1 -5.5t-1 -12.5q0 -20 10 -30t32 -10q7 0 22 3t37 8l5 -44q10 3 0 -2t-31.5 -11t-44.5 -6q-16 0 -37.5 4.5t-37 24.5t-15.5 66q0 6 1 16t2 16.5t0 3.5l42 318h-69l8 52q21 0 41.5 12.5t40.5 44t39 87.5
h48zM315 732h100l-71 -145h-59z" />
    <glyph glyph-name="Tbar" unicode="&#x166;" horiz-adv-x="509" 
d="M54 720h499l-7 -53h-216l-90 -667h-67l90 667h-218zM103 394h315l-9 -55h-315z" />
    <glyph glyph-name="tbar" unicode="&#x167;" horiz-adv-x="272" 
d="M213 630q-13 -40 -22 -71t-18 -73h112l-17 -52h-103l-43 -339q0 3 -1 -5.5t-1 -12.5q0 -20 10 -30t32 -10q7 0 22 3t37 8l5 -44q10 3 0 -2t-31.5 -11t-44.5 -6q-16 0 -37.5 4.5t-37 24.5t-15.5 66q0 6 1 16t2 16.5t0 3.5l42 318h-69l8 52q21 0 41.5 12.5t40.5 44t39 87.5
h48zM19 292h242l-9 -54h-242z" />
    <glyph glyph-name="Utilde" unicode="&#x168;" horiz-adv-x="627" 
d="M191 720l-65 -477q-1 -15 -2 -27t-1 -24q0 -39 12.5 -72.5t44 -53.5t89.5 -20q69 0 115 26t72.5 75t35.5 118l61 455h57l-66 -474q-9 -66 -40 -124.5t-89.5 -94.5t-149.5 -36q-66 0 -107.5 16.5t-64.5 44.5t-32 61t-9 66q0 11 1.5 23t2.5 24l57 428l4 66h74zM545 870
q-6 -17 -18.5 -38.5t-29.5 -36.5t-39 -15q-29 0 -52.5 10t-47.5 19.5t-53 9.5q-13 0 -19.5 -9t-14.5 -17h-41q8 21 22 42t34 35t44 14q26 0 50.5 -9.5t47 -19t42.5 -9.5q11 0 20.5 7t16.5 17h38z" />
    <glyph glyph-name="utilde" unicode="&#x169;" horiz-adv-x="516" 
d="M155 486l-43 -314q-1 -13 -2 -25.5t-1 -22.5q0 -52 20.5 -73t55.5 -21q11 0 28 1.5t37.5 11.5t40.5 34.5t37 69.5t27 117l24 157l3 65h67l-50 -370q-1 -8 -1.5 -15.5t-0.5 -12.5q0 -30 10 -38t20 -8q17 0 29.5 5.5t7.5 3.5l8 -46q8 5 -1 0t-25.5 -12t-31.5 -7t-34 8.5
t-32 28.5t-11 54h-4q-1 -3 -8 -17t-23.5 -31t-47 -30t-78.5 -13q-70 0 -99.5 39.5t-29.5 97.5q0 21 3 43l37 256l2 64h66zM443 698q-6 -17 -18 -38t-29.5 -36t-39.5 -15q-29 0 -52.5 9.5t-47.5 19t-53 9.5q-13 0 -19.5 -8.5t-14.5 -16.5h-41q8 21 22.5 42t34 35t43.5 14
q26 0 50.5 -9.5t47 -19.5t42.5 -10q11 0 20.5 7.5t16.5 16.5h38z" />
    <glyph glyph-name="Umacron" unicode="&#x16a;" horiz-adv-x="627" 
d="M191 720l-65 -477q-1 -15 -2 -27t-1 -24q0 -39 12.5 -72.5t44 -53.5t89.5 -20q69 0 115 26t72.5 75t35.5 118l61 455h57l-66 -474q-9 -66 -40 -124.5t-89.5 -94.5t-149.5 -36q-66 0 -107.5 16.5t-64.5 44.5t-32 61t-9 66q0 11 1.5 23t2.5 24l57 428l4 66h74zM238 861h309
l-7 -58h-309z" />
    <glyph glyph-name="umacron" unicode="&#x16b;" horiz-adv-x="516" 
d="M155 486l-43 -314q-1 -13 -2 -25.5t-1 -22.5q0 -52 20.5 -73t55.5 -21q11 0 28 1.5t37.5 11.5t40.5 34.5t37 69.5t27 117l24 157l3 65h67l-50 -370q-1 -8 -1.5 -15.5t-0.5 -12.5q0 -30 10 -38t20 -8q17 0 29.5 5.5t7.5 3.5l8 -46q8 5 -1 0t-25.5 -12t-31.5 -7t-34 8.5
t-32 28.5t-11 54h-4q-1 -3 -8 -17t-23.5 -31t-47 -30t-78.5 -13q-70 0 -99.5 39.5t-29.5 97.5q0 21 3 43l37 256l2 64h66zM135 689h308l-7 -59h-308z" />
    <glyph glyph-name="Ubreve" unicode="&#x16c;" horiz-adv-x="627" 
d="M191 720l-65 -477q-1 -15 -2 -27t-1 -24q0 -39 12.5 -72.5t44 -53.5t89.5 -20q69 0 115 26t72.5 75t35.5 118l61 455h57l-66 -474q-9 -66 -40 -124.5t-89.5 -94.5t-149.5 -36q-66 0 -107.5 16.5t-64.5 44.5t-32 61t-9 66q0 11 1.5 23t2.5 24l57 428l4 66h74zM530 887
q-8 -33 -27 -57.5t-49.5 -37.5t-71.5 -13q-40 0 -67.5 13t-40.5 37t-12 58h41q2 -26 27 -38t60 -12q36 0 63 11.5t38 38.5h39z" />
    <glyph glyph-name="ubreve" unicode="&#x16d;" horiz-adv-x="516" 
d="M155 486l-43 -314q-1 -13 -2 -25.5t-1 -22.5q0 -52 20.5 -73t55.5 -21q11 0 28 1.5t37.5 11.5t40.5 34.5t37 69.5t27 117l24 157l3 65h67l-50 -370q-1 -8 -1.5 -15.5t-0.5 -12.5q0 -30 10 -38t20 -8q17 0 29.5 5.5t7.5 3.5l8 -46q8 5 -1 0t-25.5 -12t-31.5 -7t-34 8.5
t-32 28.5t-11 54h-4q-1 -3 -8 -17t-23.5 -31t-47 -30t-78.5 -13q-70 0 -99.5 39.5t-29.5 97.5q0 21 3 43l37 256l2 64h66zM430 726q-9 -39 -29 -68t-50.5 -44.5t-71.5 -15.5q-61 0 -89 35t-27 93h41q2 -37 25 -53.5t59 -16.5t63 17t41 53h38z" />
    <glyph glyph-name="Uring" unicode="&#x16e;" horiz-adv-x="627" 
d="M191 720l-65 -477q-1 -15 -2 -27t-1 -24q0 -39 12.5 -72.5t44 -53.5t89.5 -20q69 0 115 26t72.5 75t35.5 118l61 455h57l-66 -474q-9 -66 -40 -124.5t-89.5 -94.5t-149.5 -36q-66 0 -107.5 16.5t-64.5 44.5t-32 61t-9 66q0 11 1.5 23t2.5 24l57 428l4 66h74zM410 981
q36 0 60 -24.5t24 -59.5q0 -29 -15 -53.5t-39.5 -39t-52.5 -14.5q-34 0 -59 24.5t-25 58.5q0 29 15 53.5t39.5 39.5t52.5 15zM405 937q-24 0 -42 -16.5t-18 -40.5q0 -19 14.5 -33t34.5 -14q22 0 40 17.5t18 40.5q0 18 -14 32t-33 14z" />
    <glyph glyph-name="uring" unicode="&#x16f;" horiz-adv-x="516" 
d="M155 486l-43 -314q-1 -13 -2 -25.5t-1 -22.5q0 -52 20.5 -73t55.5 -21q11 0 28 1.5t37.5 11.5t40.5 34.5t37 69.5t27 117l24 157l3 65h67l-50 -370q-1 -8 -1.5 -15.5t-0.5 -12.5q0 -30 10 -38t20 -8q17 0 29.5 5.5t7.5 3.5l8 -46q8 5 -1 0t-25.5 -12t-31.5 -7t-34 8.5
t-32 28.5t-11 54h-4q-1 -3 -8 -17t-23.5 -31t-47 -30t-78.5 -13q-70 0 -99.5 39.5t-29.5 97.5q0 21 3 43l37 256l2 64h66zM299 752q36 0 60 -24.5t24 -59.5q0 -28 -15 -52.5t-39 -39.5t-52 -15q-35 0 -60 24.5t-25 58.5q0 29 15 53.5t39.5 39.5t52.5 15zM294 708
q-24 0 -41.5 -16t-17.5 -41q0 -19 15 -33t34 -14q22 0 40 17.5t18 39.5q0 19 -14.5 33t-33.5 14z" />
    <glyph glyph-name="Uhungarumlaut" unicode="&#x170;" horiz-adv-x="627" 
d="M191 720l-65 -477q-1 -15 -2 -27t-1 -24q0 -39 12.5 -72.5t44 -53.5t89.5 -20q69 0 115 26t72.5 75t35.5 118l61 455h57l-66 -474q-9 -66 -40 -124.5t-89.5 -94.5t-149.5 -36q-66 0 -107.5 16.5t-64.5 44.5t-32 61t-9 66q0 11 1.5 23t2.5 24l57 428l4 66h74zM396 895h109
l-168 -124h-46zM530 895h107l-168 -124h-44z" />
    <glyph glyph-name="uhungarumlaut" unicode="&#x171;" horiz-adv-x="516" 
d="M155 486l-43 -314q-1 -13 -2 -25.5t-1 -22.5q0 -52 20.5 -73t55.5 -21q11 0 28 1.5t37.5 11.5t40.5 34.5t37 69.5t27 117l24 157l3 65h67l-50 -370q-1 -8 -1.5 -15.5t-0.5 -12.5q0 -30 10 -38t20 -8q17 0 29.5 5.5t7.5 3.5l8 -46q8 5 -1 0t-25.5 -12t-31.5 -7t-34 8.5
t-32 28.5t-11 54h-4q-1 -3 -8 -17t-23.5 -31t-47 -30t-78.5 -13q-70 0 -99.5 39.5t-29.5 97.5q0 21 3 43l37 256l2 64h66zM294 732h109l-172 -145h-45zM428 732h108l-172 -145h-44z" />
    <glyph glyph-name="Uogonek" unicode="&#x172;" horiz-adv-x="627" 
d="M191 720l-65 -477q-1 -15 -2 -27t-1 -24q0 -39 12.5 -72.5t44 -53.5t89.5 -20q69 0 115 26t72.5 75t35.5 118l61 455h57l-66 -474q-9 -66 -40 -124.5t-89.5 -94.5t-149.5 -36q-66 0 -107.5 16.5t-64.5 44.5t-32 61t-9 66q0 11 1.5 23t2.5 24l57 428l4 66h74zM377 9
q-13 -7 -34 -18t-42.5 -26t-36 -34.5t-14.5 -42.5q0 -16 10.5 -26.5t32.5 -10.5q14 0 35 9t43 21l8 -30q-6 -4 -24 -15.5t-44 -21.5t-57 -10q-44 0 -60 21t-16 44q0 28 19.5 53t49 46t62 35.5t57.5 21.5z" />
    <glyph glyph-name="uogonek" unicode="&#x173;" horiz-adv-x="516" 
d="M155 486l-43 -314q-1 -13 -2 -25.5t-1 -22.5q0 -52 20.5 -73t55.5 -21q11 0 28 1.5t37.5 11.5t40.5 34.5t37 69.5t27 117l24 157l3 65h67l-50 -370q-1 -8 -1.5 -15.5t-0.5 -12.5q0 -30 10 -38t20 -8q17 0 29.5 5.5t7.5 3.5l8 -46q8 5 -1 0t-25.5 -12t-31.5 -7t-34 8.5
t-32 28.5t-11 54h-4q-1 -3 -8 -17t-23.5 -31t-47 -30t-78.5 -13q-70 0 -99.5 39.5t-29.5 97.5q0 21 3 43l37 256l2 64h66zM479 9q-13 -7 -34 -18t-42.5 -26t-36 -34.5t-14.5 -42.5q0 -16 10.5 -26.5t32.5 -10.5q14 0 35 9t43 21l8 -30q-6 -4 -24 -15.5t-44 -21.5t-57 -10
q-44 0 -60 21t-16 44q0 28 19.5 53t49 46t62 35.5t57.5 21.5z" />
    <glyph glyph-name="Wcircumflex" unicode="&#x174;" horiz-adv-x="753" 
d="M120 720q5 -38 11.5 -88.5t13.5 -109.5t15 -122.5t16 -128t15 -126.5q25 59 51 122t51 126.5t48 123.5t42.5 111.5t34.5 91.5h44q5 -38 11.5 -88.5t13.5 -109t15 -122t16 -128.5t15 -127q23 57 48 120.5t50.5 127.5t49 124t44 112t35.5 91h54l-289 -724h-41
q-5 36 -11.5 87t-14 110.5t-15.5 123.5t-16.5 126.5t-16.5 117.5q-22 -55 -46 -116.5t-49 -124.5t-48.5 -122.5t-44 -111.5t-35.5 -90h-42l-96 724h71zM452 835l-93 -70h-57l124 139h75l91 -140h-59z" />
    <glyph glyph-name="wcircumflex" unicode="&#x175;" horiz-adv-x="595" 
d="M117 486q4 -24 9.5 -62.5t12.5 -86.5t15.5 -101t18.5 -104l48 108t45.5 102t38.5 85.5t26 58.5h30q7 -41 14.5 -96t18 -120.5t24.5 -137.5q23 53 46 105t44.5 99t39 85.5t29.5 64.5h47l-212 -492h-37q-4 27 -9.5 67.5t-12 88.5t-14 98.5t-16.5 97.5q-24 -50 -47 -100.5
t-43.5 -97t-38 -86t-29.5 -68.5h-36l-73 492h61zM364 671l-98 -90h-57l128 158h75l87 -160h-59z" />
    <glyph glyph-name="Ycircumflex" unicode="&#x176;" horiz-adv-x="453" 
d="M126 720l136 -291l195 291h60l-240 -346l-50 -374h-71l51 374l-161 346h80zM305 835l-93 -70h-57l124 139h75l91 -140h-59z" />
    <glyph glyph-name="ycircumflex" unicode="&#x177;" horiz-adv-x="404" 
d="M-22 -171q31 2 56.5 10.5t47 27.5t41.5 52.5t41 84.5l-103 482h65q8 -41 17 -90.5t18.5 -102.5t20 -105.5t22.5 -99.5q26 52 51 105.5t49 105.5t45.5 99.5t40.5 87.5h57l-256 -562q-19 -42 -53 -76t-77.5 -54.5t-91.5 -23.5zM273 671l-98 -90h-57l128 158h75l87 -160h-59
z" />
    <glyph glyph-name="Ydieresis" unicode="&#x178;" horiz-adv-x="453" 
d="M126 720l136 -291l195 291h60l-240 -346l-50 -374h-71l51 374l-161 346h80zM278 838q0 -25 -18.5 -43t-42.5 -18q-19 0 -31.5 13.5t-12.5 32.5q0 25 18.5 43t40.5 18q21 0 33.5 -13t12.5 -33zM437 838q0 -25 -18.5 -43t-41.5 -18q-20 0 -32.5 13.5t-12.5 32.5
q0 26 18.5 43.5t41.5 17.5q20 0 32.5 -13t12.5 -33z" />
    <glyph glyph-name="Zacute" unicode="&#x179;" horiz-adv-x="525" 
d="M105 720h433l-14 -64l-459 -603h392l-17 -53h-457l14 59l461 608h-360zM400 895h109l-151 -124h-64z" />
    <glyph glyph-name="zacute" unicode="&#x17a;" horiz-adv-x="441" 
d="M114 486h312v-39l-310 -395h265l-10 -52h-338v41l308 393h-235zM347 732h109l-155 -145h-64z" />
    <glyph glyph-name="Zdotaccent" unicode="&#x17b;" horiz-adv-x="525" 
d="M105 720h433l-14 -64l-459 -603h392l-17 -53h-457l14 59l461 608h-360zM392 838q0 -25 -18 -43t-42 -18q-20 0 -32.5 13.5t-12.5 32.5q0 26 18.5 43.5t41.5 17.5q20 0 32.5 -13t12.5 -33z" />
    <glyph glyph-name="zdotaccent" unicode="&#x17c;" horiz-adv-x="441" 
d="M114 486h312v-39l-310 -395h265l-10 -52h-338v41l308 393h-235zM337 667q0 -25 -18 -43t-42 -18q-20 0 -32.5 13.5t-12.5 32.5q0 26 18.5 43.5t41.5 17.5q20 0 32.5 -13t12.5 -33z" />
    <glyph glyph-name="Zcaron" unicode="&#x17d;" horiz-adv-x="525" 
d="M105 720h433l-14 -64l-459 -603h392l-17 -53h-457l14 59l461 608h-360zM348 832l93 70h57l-123 -138h-75l-92 140h59z" />
    <glyph glyph-name="zcaron" unicode="&#x17e;" horiz-adv-x="441" 
d="M114 486h312v-39l-310 -395h265l-10 -52h-338v41l308 393h-235zM290 648l98 90h57l-128 -159h-75l-87 160h59z" />
    <glyph glyph-name="longs" unicode="&#x17f;" horiz-adv-x="223" 
d="M326 767q44 0 65 -11t43 -26l-34 -48q-12 14 -30 23t-33 9q-43 0 -71 -18.5t-44 -50.5t-24.5 -73t-13.5 -86l-76 -554q-13 -89 -56.5 -125.5t-99.5 -36.5q-31 0 -47.5 4.5t-27 10.5t-24.5 11l36 52q16 -10 23.5 -14.5t16.5 -6t28 -1.5q18 0 36.5 7t33.5 31t21 75l67 495
h-66l7 52h68q6 53 17 103t33 90t59 64t93 24z" />
    <glyph glyph-name="uni018F" unicode="&#x18f;" horiz-adv-x="716" 
d="M146 630q70 51 145 75t130 24q44 0 87.5 -15.5t78.5 -50t56 -90.5t21 -136q0 -81 -21.5 -160.5t-64.5 -144t-109 -103t-156 -38.5q-75 0 -128.5 33t-81.5 91t-28 133q0 26 3.5 54.5t10.5 58.5h65q-7 -29 -11 -55.5t-4 -51.5q0 -93 49 -150.5t137 -57.5q58 0 102.5 23.5
t76 64t52 90.5t30 104t9.5 104q0 72 -16 119t-43 74t-58.5 38t-63.5 11q-46 0 -111.5 -24.5t-129.5 -72.5zM89 361h515l-9 -62h-482z" />
    <glyph glyph-name="uni0191" unicode="&#x191;" horiz-adv-x="469" 
d="M-84 -191q42 6 69 31.5t43 61t24.5 73.5t13.5 70l82 608l4 67h365l-7 -53h-291l-35 -272h233l-8 -51h-234l-43 -322q-6 -46 -18.5 -88.5t-35 -76.5t-59 -56.5t-91.5 -29.5z" />
    <glyph glyph-name="florin" unicode="&#x192;" horiz-adv-x="377" 
d="M371 692q21 0 38.5 -5t32.5 -16l-22 -70q-40 37 -71 37q-29 0 -49.5 -27t-36 -69t-29.5 -88h141l-22 -54h-134l-120 -448q-23 -89 -62 -139t-103 -50q-10 0 -20.5 1.5t-21.5 3.5l21 51q26 0 45.5 6.5t35 29t28.5 69.5l130 476h-80l6 44q36 2 51 1.5t22.5 5.5t19.5 26
q14 23 24.5 58t29 72.5t54.5 64.5q19 11 45 15.5t47 4.5z" />
    <glyph glyph-name="uni019D" unicode="&#x19d;" horiz-adv-x="670" 
d="M-81 -191q42 6 69 31.5t43.5 61t25 73.5t12.5 70l83 608l3 67h90l236 -490q10 -20 18.5 -39t16.5 -47q2 27 5.5 43.5t5.5 32.5l70 500h53l-98 -725h-30l-285 583q-7 16 -14.5 32t-15.5 43q-3 -28 -6.5 -47t-5.5 -36l-74 -548q-7 -46 -17 -88.5t-30 -76.5t-54 -56.5
t-89 -29.5z" />
    <glyph glyph-name="Ohorn" unicode="&#x1a0;" horiz-adv-x="709" 
d="M306 -9q-67 0 -114 24t-76 65.5t-42.5 94.5t-13.5 111q0 77 21 155t64.5 143.5t109 105t155.5 39.5t144 -40.5t78 -107t24 -144.5q0 -81 -21.5 -160.5t-64.5 -144t-109 -103t-155 -38.5zM318 46q58 0 102 23.5t76 64t52 90.5t29.5 104t9.5 104q0 63 -17 118t-57.5 89.5
t-110.5 34.5q-58 0 -102 -24t-76 -64t-52.5 -90.5t-30.5 -104.5t-10 -104q0 -61 17.5 -116.5t58.5 -90t111 -34.5zM504 714q34 -15 63 -3.5t47 42.5t19 73h90q-3 -37 -21 -73.5t-48.5 -63t-70 -37t-86.5 2.5z" />
    <glyph glyph-name="ohorn" unicode="&#x1a1;" horiz-adv-x="501" 
d="M218 -14q-60 0 -98.5 31t-57 81.5t-18.5 107.5q0 52 15 103.5t45 94.5t74.5 69t104.5 26t98.5 -31t57 -80.5t18.5 -107.5q0 -52 -15 -104t-45 -95t-75 -69t-104 -26zM222 38q43 0 75 20.5t53 55t31.5 76t10.5 82.5q0 46 -12 85.5t-37 64.5t-65 25q-43 0 -74.5 -20.5
t-52.5 -55t-31.5 -75.5t-10.5 -82q0 -45 12 -85.5t37 -65.5t64 -25zM362 482q35 -15 64.5 -5t47.5 39.5t19 71.5h90q-4 -37 -23.5 -72t-50 -60t-70 -34t-84.5 4z" />
    <glyph glyph-name="Uhorn" unicode="&#x1af;" horiz-adv-x="627" 
d="M191 720l-65 -477q-1 -15 -2 -27t-1 -24q0 -39 12.5 -72.5t44 -53.5t89.5 -20q69 0 115 26t72.5 75t35.5 118l61 455h57l-66 -474q-9 -66 -40 -124.5t-89.5 -94.5t-149.5 -36q-66 0 -107.5 16.5t-64.5 44.5t-32 61t-9 66q0 11 1.5 23t2.5 24l57 428l4 66h74zM554 728
q34 -15 63 -3.5t47 42.5t19 73h90q-3 -37 -21 -73.5t-48.5 -63t-70 -37t-86.5 2.5z" />
    <glyph glyph-name="uhorn" unicode="&#x1b0;" horiz-adv-x="516" 
d="M155 486l-43 -314q-1 -13 -2 -25.5t-1 -22.5q0 -52 20.5 -73t55.5 -21q11 0 28 1.5t37.5 11.5t40.5 34.5t37 69.5t27 117l24 157l3 65h67l-50 -370q-1 -8 -1.5 -15.5t-0.5 -12.5q0 -30 10 -38t20 -8q17 0 29.5 5.5t7.5 3.5l8 -46q8 5 -1 0t-25.5 -12t-31.5 -7t-34 8.5
t-32 28.5t-11 54h-4q-1 -3 -8 -17t-23.5 -31t-47 -30t-78.5 -13q-70 0 -99.5 39.5t-29.5 97.5q0 21 3 43l37 256l2 64h66zM425 486q39 0 65.5 31t27.5 83h90q-4 -37 -23.5 -72t-50 -60t-70 -34t-84.5 4z" />
    <glyph glyph-name="uni01C4" unicode="&#x1c4;" horiz-adv-x="1212" 
d="M635 433q0 -78 -19.5 -155t-61.5 -140t-108.5 -100.5t-161.5 -37.5h-221l88 653l4 67h234q68 0 115 -23.5t76 -64t42 -92t13 -107.5zM566 434q0 43 -8.5 84.5t-29 75t-55 53.5t-86.5 20h-166l-82 -614h150q59 0 104 24.5t78 65t54 90.5t31 102.5t10 98.5zM792 720h433
l-14 -64l-459 -603h392l-17 -53h-457l14 59l461 608h-360zM1035 832l93 70h57l-123 -138h-75l-92 140h59z" />
    <glyph glyph-name="uni01C5" unicode="&#x1c5;" horiz-adv-x="1105" 
d="M635 433q0 -78 -19.5 -155t-61.5 -140t-108.5 -100.5t-161.5 -37.5h-221l88 653l4 67h234q68 0 115 -23.5t76 -64t42 -92t13 -107.5zM566 434q0 43 -8.5 84.5t-29 75t-55 53.5t-86.5 20h-166l-82 -614h150q59 0 104 24.5t78 65t54 90.5t31 102.5t10 98.5zM778 486h312
v-39l-310 -395h265l-10 -52h-338v41l308 393h-235zM954 648l98 90h57l-128 -159h-75l-87 160h59z" />
    <glyph glyph-name="uni01C6" unicode="&#x1c6;" horiz-adv-x="947" 
d="M415 708l3 53h66q-19 -137 -36 -255.5t-29.5 -209t-20 -144.5t-7.5 -63q0 -23 8.5 -34t29.5 -11q10 0 18.5 1.5t16.5 4.5l8 -43q-13 -7 -28 -13t-30 -6q-40 0 -60 27t-18 67h-4q-20 -43 -60 -69.5t-84 -26.5q-52 0 -84 27.5t-47 74t-15 101.5q0 56 15 111.5t46 100.5
t78 72t111 27q34 0 61.5 -12t54.5 -41v-45q-29 25 -56.5 35.5t-59.5 10.5q-54 0 -90 -25.5t-56.5 -65t-29.5 -84.5t-9 -84q0 -61 22.5 -104.5t70.5 -43.5q33 0 60 21t47.5 56.5t33.5 80.5t19 94zM620 486h312v-39l-310 -395h265l-10 -52h-338v41l308 393h-235zM796 648
l98 90h57l-128 -159h-75l-87 160h59z" />
    <glyph glyph-name="uni01C7" unicode="&#x1c7;" horiz-adv-x="730" 
d="M231 720l-90 -667h298l-9 -53h-367l88 653l3 67h77zM638 720h75l-99 -698q-6 -46 -18 -88.5t-33.5 -76.5t-57.5 -56.5t-91 -29.5l-11 38q42 6 69 31.5t43.5 61t25 73.5t12.5 70l82 606z" />
    <glyph glyph-name="uni01C8" unicode="&#x1c8;" horiz-adv-x="708" 
d="M231 720l-90 -667h298l-9 -53h-367l88 653l3 67h77zM697 657q0 -21 -17 -38.5t-40 -17.5q-21 0 -32.5 13t-11.5 30q0 21 16 38t39 17q21 0 33.5 -12t12.5 -30zM656 486l-66 -482q-4 -33 -14.5 -71t-28.5 -73t-46 -59.5t-69 -30.5l-9 47q44 19 64.5 48t28 64t12.5 70
l60 428l2 59h66z" />
    <glyph glyph-name="uni01C9" unicode="&#x1c9;" horiz-adv-x="452" 
d="M210 761l-94 -701l-2 -60h-69l97 703l1 58h67zM441 657q0 -21 -17 -38.5t-40 -17.5q-21 0 -32.5 13t-11.5 30q0 21 16 38t39 17q21 0 33.5 -12t12.5 -30zM400 486l-66 -482q-4 -33 -14.5 -71t-28.5 -73t-46 -59.5t-69 -30.5l-9 47q44 19 64.5 48t28 64t12.5 70l60 428
l2 59h66z" />
    <glyph glyph-name="uni01CA" unicode="&#x1ca;" horiz-adv-x="922" 
d="M245 720l236 -490q10 -20 18.5 -39t16.5 -47q2 27 5.5 43.5t5.5 32.5l70 500h53l-98 -725h-30l-285 583q-7 16 -14.5 32t-15.5 43q-3 -28 -6.5 -47t-5.5 -36l-76 -570h-56l89 653l3 67h90zM830 720h75l-99 -698q-6 -46 -18 -88.5t-33.5 -76.5t-57.5 -56.5t-91 -29.5
l-11 38q42 6 69 31.5t43.5 61t25 73.5t12.5 70l82 606z" />
    <glyph glyph-name="uni01CB" unicode="&#x1cb;" horiz-adv-x="900" 
d="M245 720l236 -490q10 -20 18.5 -39t16.5 -47q2 27 5.5 43.5t5.5 32.5l70 500h53l-98 -725h-30l-285 583q-7 16 -14.5 32t-15.5 43q-3 -28 -6.5 -47t-5.5 -36l-76 -570h-56l89 653l3 67h90zM889 657q0 -21 -17 -38.5t-40 -17.5q-21 0 -32.5 13t-11.5 30q0 21 16 38t39 17
q21 0 33.5 -12t12.5 -30zM848 486l-66 -482q-4 -33 -14.5 -71t-28.5 -73t-46 -59.5t-69 -30.5l-9 47q44 19 64.5 48t28 64t12.5 70l60 428l2 59h66z" />
    <glyph glyph-name="uni01CC" unicode="&#x1cc;" horiz-adv-x="725" 
d="M153 496q1 -3 4.5 -26.5t4.5 -48.5q19 17 42.5 35t53 30.5t64.5 12.5q18 0 39.5 -4t41 -17.5t32 -40t12.5 -71.5q0 -17 -3 -41l-35 -265l-1 -60h-69l40 292q2 15 4 31t2 32q0 21 -5.5 40.5t-21 32t-46.5 12.5q-28 0 -53.5 -10.5t-46.5 -24t-34.5 -25.5t-18.5 -15
l-49 -365h-62l47 347q2 14 3 26.5t1 22.5q0 39 -5.5 61t-10 29.5t-1.5 1.5zM714 657q0 -21 -17 -38.5t-40 -17.5q-21 0 -32.5 13t-11.5 30q0 21 16 38t39 17q21 0 33.5 -12t12.5 -30zM673 486l-66 -482q-4 -33 -14.5 -71t-28.5 -73t-46 -59.5t-69 -30.5l-9 47q44 19 64.5 48
t28 64t12.5 70l60 428l2 59h66z" />
    <glyph glyph-name="uni01CD" unicode="&#x1cd;" horiz-adv-x="616" 
d="M431 720l138 -720h-74l-51 270h-241l-125 -270h-58l335 720h76zM373 625l-144 -305h204zM415 832l93 70h57l-123 -138h-75l-92 140h59z" />
    <glyph glyph-name="uni01CE" unicode="&#x1ce;" horiz-adv-x="507" 
d="M416 492h34q-15 -98 -25.5 -165.5t-17 -111t-10 -69t-5 -39t-1.5 -21.5q0 -21 8.5 -31.5t29.5 -10.5q10 0 18.5 1.5t16.5 4.5l8 -43q-13 -7 -28 -13t-30 -6q-40 0 -60 27t-18 67h-4q-20 -43 -60 -69.5t-84 -26.5q-52 0 -84 27.5t-47 74t-15 101.5q0 56 15 111.5t46 100.5
t78 72t111 27q34 0 61.5 -12t54.5 -41v-45q-29 25 -56.5 35.5t-59.5 10.5q-54 0 -90 -25.5t-56.5 -65t-29.5 -84.5t-9 -84q0 -61 22.5 -104.5t70.5 -43.5q33 0 60 21t47.5 56.5t33.5 80.5t19 94l17 132zM304 648l98 90h57l-128 -159h-75l-87 160h59z" />
    <glyph glyph-name="uni01CF" unicode="&#x1cf;" horiz-adv-x="252" 
d="M158 720h75l-99 -720h-68l89 653zM214 832l93 70h57l-123 -138h-75l-92 140h59z" />
    <glyph glyph-name="uni01D0" unicode="&#x1d0;" horiz-adv-x="226" 
d="M116 0h-69l57 428l2 58h69l-58 -426zM168 648l98 90h57l-128 -159h-75l-87 160h59z" />
    <glyph glyph-name="uni01D1" unicode="&#x1d1;" horiz-adv-x="709" 
d="M306 -9q-67 0 -114 24t-76 65.5t-42.5 94.5t-13.5 111q0 77 21 155t64.5 143.5t109 105t155.5 39.5t144 -40.5t78 -107t24 -144.5q0 -81 -21.5 -160.5t-64.5 -144t-109 -103t-155 -38.5zM318 46q58 0 102 23.5t76 64t52 90.5t29.5 104t9.5 104q0 63 -17 118t-57.5 89.5
t-110.5 34.5q-58 0 -102 -24t-76 -64t-52.5 -90.5t-30.5 -104.5t-10 -104q0 -61 17.5 -116.5t58.5 -90t111 -34.5zM437 832l93 70h57l-123 -138h-75l-92 140h59z" />
    <glyph glyph-name="uni01D2" unicode="&#x1d2;" horiz-adv-x="501" 
d="M218 -14q-60 0 -98.5 31t-57 81.5t-18.5 107.5q0 52 15 103.5t45 94.5t74.5 69t104.5 26t98.5 -31t57 -80.5t18.5 -107.5q0 -52 -15 -104t-45 -95t-75 -69t-104 -26zM222 38q43 0 75 20.5t53 55t31.5 76t10.5 82.5q0 46 -12 85.5t-37 64.5t-65 25q-43 0 -74.5 -20.5
t-52.5 -55t-31.5 -75.5t-10.5 -82q0 -45 12 -85.5t37 -65.5t64 -25zM312 648l98 90h57l-128 -159h-75l-87 160h59z" />
    <glyph glyph-name="uni01D3" unicode="&#x1d3;" horiz-adv-x="627" 
d="M191 720l-65 -477q-1 -15 -2 -27t-1 -24q0 -39 12.5 -72.5t44 -53.5t89.5 -20q69 0 115 26t72.5 75t35.5 118l61 455h57l-66 -474q-9 -66 -40 -124.5t-89.5 -94.5t-149.5 -36q-66 0 -107.5 16.5t-64.5 44.5t-32 61t-9 66q0 11 1.5 23t2.5 24l57 428l4 66h74zM398 832
l93 70h57l-123 -138h-75l-92 140h59z" />
    <glyph glyph-name="uni01D4" unicode="&#x1d4;" horiz-adv-x="516" 
d="M155 486l-43 -314q-1 -13 -2 -25.5t-1 -22.5q0 -52 20.5 -73t55.5 -21q11 0 28 1.5t37.5 11.5t40.5 34.5t37 69.5t27 117l24 157l3 65h67l-50 -370q-1 -8 -1.5 -15.5t-0.5 -12.5q0 -30 10 -38t20 -8q17 0 29.5 5.5t7.5 3.5l8 -46q8 5 -1 0t-25.5 -12t-31.5 -7t-34 8.5
t-32 28.5t-11 54h-4q-1 -3 -8 -17t-23.5 -31t-47 -30t-78.5 -13q-70 0 -99.5 39.5t-29.5 97.5q0 21 3 43l37 256l2 64h66zM292 648l98 90h57l-128 -159h-75l-87 160h59z" />
    <glyph glyph-name="uni01D5" unicode="&#x1d5;" horiz-adv-x="627" 
d="M191 720l-65 -477q-1 -15 -2 -27t-1 -24q0 -39 12.5 -72.5t44 -53.5t89.5 -20q69 0 115 26t72.5 75t35.5 118l61 455h57l-66 -474q-9 -66 -40 -124.5t-89.5 -94.5t-149.5 -36q-66 0 -107.5 16.5t-64.5 44.5t-32 61t-9 66q0 11 1.5 23t2.5 24l57 428l4 66h74zM260 1006
h309l-8 -59h-309zM363 840q0 -25 -18 -43.5t-42 -18.5q-19 0 -32.5 13t-13.5 32q0 25 18.5 44t42.5 19q20 0 32.5 -13t12.5 -33zM522 840q0 -25 -18 -43.5t-42 -18.5q-19 0 -32.5 13t-13.5 32q0 26 18.5 44.5t42.5 18.5q20 0 32.5 -13t12.5 -33z" />
    <glyph glyph-name="uni01D6" unicode="&#x1d6;" horiz-adv-x="516" 
d="M155 486l-43 -314q-1 -13 -2 -25.5t-1 -22.5q0 -52 20.5 -73t55.5 -21q11 0 28 1.5t37.5 11.5t40.5 34.5t37 69.5t27 117l24 157l3 65h67l-50 -370q-1 -8 -1.5 -15.5t-0.5 -12.5q0 -30 10 -38t20 -8q17 0 29.5 5.5t7.5 3.5l8 -46q8 5 -1 0t-25.5 -12t-31.5 -7t-34 8.5
t-32 28.5t-11 54h-4q-1 -3 -8 -17t-23.5 -31t-47 -30t-78.5 -13q-70 0 -99.5 39.5t-29.5 97.5q0 21 3 43l37 256l2 64h66zM158 834h309l-8 -59h-308zM262 667q0 -25 -18.5 -43t-42.5 -18q-19 0 -32.5 13t-13.5 32q0 25 18.5 43.5t42.5 18.5q20 0 33 -13t13 -33zM420 667
q0 -25 -18 -43t-42 -18q-19 0 -32.5 13t-13.5 32q0 25 18.5 43.5t42.5 18.5q20 0 32.5 -13t12.5 -33z" />
    <glyph glyph-name="uni01D7" unicode="&#x1d7;" horiz-adv-x="627" 
d="M191 720l-65 -477q-1 -15 -2 -27t-1 -24q0 -39 12.5 -72.5t44 -53.5t89.5 -20q69 0 115 26t72.5 75t35.5 118l61 455h57l-66 -474q-9 -66 -40 -124.5t-89.5 -94.5t-149.5 -36q-66 0 -107.5 16.5t-64.5 44.5t-32 61t-9 66q0 11 1.5 23t2.5 24l57 428l4 66h74zM440 1031
h100l-110 -105h-55zM364 840q0 -25 -19 -44t-43 -19q-19 0 -31.5 13.5t-12.5 32.5q0 25 18.5 43t40.5 18q21 0 34 -12t13 -32zM523 840q0 -25 -19 -44t-43 -19q-19 0 -31.5 13.5t-12.5 32.5q0 26 18.5 43.5t41.5 17.5q20 0 33 -12t13 -32z" />
    <glyph glyph-name="uni01D8" unicode="&#x1d8;" horiz-adv-x="516" 
d="M155 486l-43 -314q-1 -13 -2 -25.5t-1 -22.5q0 -52 20.5 -73t55.5 -21q11 0 28 1.5t37.5 11.5t40.5 34.5t37 69.5t27 117l24 157l3 65h67l-50 -370q-1 -8 -1.5 -15.5t-0.5 -12.5q0 -30 10 -38t20 -8q17 0 29.5 5.5t7.5 3.5l8 -46q8 5 -1 0t-25.5 -12t-31.5 -7t-34 8.5
t-32 28.5t-11 54h-4q-1 -3 -8 -17t-23.5 -31t-47 -30t-78.5 -13q-70 0 -99.5 39.5t-29.5 97.5q0 21 3 43l37 256l2 64h66zM342 861h99l-109 -105h-55zM262 669q0 -25 -19.5 -44t-43.5 -19q-19 0 -31.5 13.5t-12.5 32.5q0 25 18.5 43t41.5 18q20 0 33.5 -12t13.5 -32z
M421 670q0 -25 -19 -44.5t-43 -19.5q-20 0 -32.5 13.5t-12.5 32.5q0 26 18.5 43.5t41.5 17.5q20 0 33.5 -11.5t13.5 -31.5z" />
    <glyph glyph-name="uni01D9" unicode="&#x1d9;" horiz-adv-x="627" 
d="M191 720l-65 -477q-1 -15 -2 -27t-1 -24q0 -39 12.5 -72.5t44 -53.5t89.5 -20q69 0 115 26t72.5 75t35.5 118l61 455h57l-66 -474q-9 -66 -40 -124.5t-89.5 -94.5t-149.5 -36q-66 0 -107.5 16.5t-64.5 44.5t-32 61t-9 66q0 11 1.5 23t2.5 24l57 428l4 66h74zM364 834
q0 -25 -19 -44t-43 -19q-19 0 -32 13.5t-13 32.5q0 25 18.5 43t41.5 18q20 0 33.5 -12t13.5 -32zM523 834q0 -25 -19 -44t-43 -19q-19 0 -31.5 13.5t-12.5 32.5q0 26 18 43.5t41 17.5q20 0 33.5 -12t13.5 -32zM416 981l94 70h57l-125 -139h-75l-90 141h59z" />
    <glyph glyph-name="uni01DA" unicode="&#x1da;" horiz-adv-x="516" 
d="M155 486l-43 -314q-1 -13 -2 -25.5t-1 -22.5q0 -52 20.5 -73t55.5 -21q11 0 28 1.5t37.5 11.5t40.5 34.5t37 69.5t27 117l24 157l3 65h67l-50 -370q-1 -8 -1.5 -15.5t-0.5 -12.5q0 -30 10 -38t20 -8q17 0 29.5 5.5t7.5 3.5l8 -46q8 5 -1 0t-25.5 -12t-31.5 -7t-34 8.5
t-32 28.5t-11 54h-4q-1 -3 -8 -17t-23.5 -31t-47 -30t-78.5 -13q-70 0 -99.5 39.5t-29.5 97.5q0 21 3 43l37 256l2 64h66zM317 828l97 90h57l-129 -159h-75l-86 160h59zM262 667q0 -25 -18.5 -43t-42.5 -18q-19 0 -32 13.5t-13 32.5q0 25 18.5 43t41.5 18q20 0 33 -13
t13 -33zM420 667q0 -25 -18 -43t-42 -18q-19 0 -31.5 13.5t-12.5 32.5q0 26 18 43.5t41 17.5q20 0 32.5 -13t12.5 -33z" />
    <glyph glyph-name="uni01DB" unicode="&#x1db;" horiz-adv-x="627" 
d="M191 720l-65 -477q-1 -15 -2 -27t-1 -24q0 -39 12.5 -72.5t44 -53.5t89.5 -20q69 0 115 26t72.5 75t35.5 118l61 455h57l-66 -474q-9 -66 -40 -124.5t-89.5 -94.5t-149.5 -36q-66 0 -107.5 16.5t-64.5 44.5t-32 61t-9 66q0 11 1.5 23t2.5 24l57 428l4 66h74zM398 1031
l33 -105h-55l-78 105h100zM416 825q0 25 18.5 42t42.5 17q20 0 32.5 -13t12.5 -31q0 -25 -18.5 -44t-41.5 -19q-21 0 -33.5 14t-12.5 34zM257 825q0 25 18.5 42t42.5 17q20 0 33 -12t13 -31q0 -25 -18.5 -44.5t-43.5 -19.5q-20 0 -32.5 14t-12.5 34z" />
    <glyph glyph-name="uni01DC" unicode="&#x1dc;" horiz-adv-x="516" 
d="M155 486l-43 -314q-1 -13 -2 -25.5t-1 -22.5q0 -52 20.5 -73t55.5 -21q11 0 28 1.5t37.5 11.5t40.5 34.5t37 69.5t27 117l24 157l3 65h67l-50 -370q-1 -8 -1.5 -15.5t-0.5 -12.5q0 -30 10 -38t20 -8q17 0 29.5 5.5t7.5 3.5l8 -46q8 5 -1 0t-25.5 -12t-31.5 -7t-34 8.5
t-32 28.5t-11 54h-4q-1 -3 -8 -17t-23.5 -31t-47 -30t-78.5 -13q-70 0 -99.5 39.5t-29.5 97.5q0 21 3 43l37 256l2 64h66zM291 861l34 -105h-55l-79 105h100zM314 654q0 25 18.5 42t42.5 17q20 0 33 -12.5t13 -31.5q0 -25 -18.5 -44t-42.5 -19q-21 0 -33.5 14t-12.5 34z
M155 654q0 25 18.5 42t42.5 17q20 0 33 -12t13 -31q0 -25 -18.5 -44.5t-43.5 -19.5q-20 0 -32.5 14t-12.5 34z" />
    <glyph glyph-name="Gcaron" unicode="&#x1e6;" horiz-adv-x="666" 
d="M422 729q33 0 72 -8.5t76 -27t62 -49.5l-45 -47q-23 27 -49.5 43.5t-56.5 24.5t-66 8q-75 0 -128.5 -36t-88.5 -94t-51.5 -126t-16.5 -133q0 -49 11 -91t34 -73.5t60.5 -48.5t91.5 -17q52 0 94 24t69 66.5t34 95.5l8 67h-182l8 57h251q-14 -94 -23 -182t-17 -181h-37
l-18 74q-42 -42 -95 -63t-110 -21q-88 0 -143 40t-80.5 106t-25.5 142q0 79 22.5 158.5t67 145.5t113 106t159.5 40zM421 832l93 70h57l-123 -138h-75l-92 140h59z" />
    <glyph glyph-name="gcaron" unicode="&#x1e7;" horiz-adv-x="483" 
d="M416 492h34l-70 -481q-6 -43 -18.5 -85.5t-37 -77.5t-65.5 -56.5t-105 -21.5q-34 0 -63.5 9t-49.5 19t-24 11l30 59q24 -25 53.5 -35.5t39.5 -10.5q58 0 94 23.5t55.5 63t25.5 85.5l10 68h-4q-14 -28 -51.5 -52t-81.5 -24q-52 0 -84 27.5t-47 74t-15 101.5q0 56 15 111.5
t46 100.5t78 72t111 27q34 0 61.5 -12t54.5 -41v-45q-29 25 -56.5 35.5t-59.5 10.5q-54 0 -90 -25.5t-56.5 -65t-29.5 -84.5t-9 -84q0 -61 22.5 -104.5t70.5 -43.5q33 0 60 21t47.5 56.5t33.5 80.5t19 94l17 132zM315 648l98 90h57l-128 -159h-75l-87 160h59z" />
    <glyph glyph-name="uni01EA" unicode="&#x1ea;" horiz-adv-x="709" 
d="M306 -9q-67 0 -114 24t-76 65.5t-42.5 94.5t-13.5 111q0 77 21 155t64.5 143.5t109 105t155.5 39.5t144 -40.5t78 -107t24 -144.5q0 -81 -21.5 -160.5t-64.5 -144t-109 -103t-155 -38.5zM318 46q58 0 102 23.5t76 64t52 90.5t29.5 104t9.5 104q0 63 -17 118t-57.5 89.5
t-110.5 34.5q-58 0 -102 -24t-76 -64t-52.5 -90.5t-30.5 -104.5t-10 -104q0 -61 17.5 -116.5t58.5 -90t111 -34.5zM417 9q-13 -7 -34 -18t-42.5 -26t-36 -34.5t-14.5 -42.5q0 -16 10.5 -26.5t32.5 -10.5q14 0 35 9t43 21l8 -30q-6 -4 -24 -15.5t-44 -21.5t-57 -10
q-44 0 -60 21t-16 44q0 28 19.5 53t49 46t62 35.5t57.5 21.5z" />
    <glyph glyph-name="uni01EB" unicode="&#x1eb;" horiz-adv-x="501" 
d="M218 -14q-60 0 -98.5 31t-57 81.5t-18.5 107.5q0 52 15 103.5t45 94.5t74.5 69t104.5 26t98.5 -31t57 -80.5t18.5 -107.5q0 -52 -15 -104t-45 -95t-75 -69t-104 -26zM222 38q43 0 75 20.5t53 55t31.5 76t10.5 82.5q0 46 -12 85.5t-37 64.5t-65 25q-43 0 -74.5 -20.5
t-52.5 -55t-31.5 -75.5t-10.5 -82q0 -45 12 -85.5t37 -65.5t64 -25zM312 9q-13 -7 -34 -18t-42.5 -26t-36 -34.5t-14.5 -42.5q0 -16 10.5 -26.5t32.5 -10.5q14 0 35 9t43 21l8 -30q-6 -4 -24 -15.5t-44 -21.5t-57 -10q-44 0 -60 21t-16 44q0 28 19.5 53t49 46t62 35.5
t57.5 21.5z" />
    <glyph glyph-name="Aringacute" unicode="&#x1fa;" horiz-adv-x="616" 
d="M431 720l138 -720h-74l-51 270h-241l-125 -270h-58l335 720h76zM373 625l-144 -305h204zM497 1124h81l-122 -104h-44zM424 981q36 0 60 -24.5t24 -59.5q0 -29 -15 -53.5t-39.5 -39t-52.5 -14.5q-34 0 -59 24.5t-25 58.5q0 29 15 53.5t39.5 39.5t52.5 15zM419 937
q-24 0 -42 -16.5t-18 -40.5q0 -19 14.5 -33t34.5 -14q22 0 40 17.5t18 40.5q0 18 -14 32t-33 14z" />
    <glyph glyph-name="aringacute" unicode="&#x1fb;" horiz-adv-x="507" 
d="M416 492h34q-15 -98 -25.5 -165.5t-17 -111t-10 -69t-5 -39t-1.5 -21.5q0 -21 8.5 -31.5t29.5 -10.5q10 0 18.5 1.5t16.5 4.5l8 -43q-13 -7 -28 -13t-30 -6q-40 0 -60 27t-18 67h-4q-20 -43 -60 -69.5t-84 -26.5q-52 0 -84 27.5t-47 74t-15 101.5q0 56 15 111.5t46 100.5
t78 72t111 27q34 0 61.5 -12t54.5 -41v-45q-29 25 -56.5 35.5t-59.5 10.5q-54 0 -90 -25.5t-56.5 -65t-29.5 -84.5t-9 -84q0 -61 22.5 -104.5t70.5 -43.5q33 0 60 21t47.5 56.5t33.5 80.5t19 94l17 132zM379 926h94l-132 -125h-49zM309 752q36 0 60 -24.5t24 -59.5
q0 -28 -15 -52.5t-39 -39.5t-52 -15q-35 0 -60 24.5t-25 58.5q0 29 15 53.5t39.5 39.5t52.5 15zM304 708q-24 0 -41.5 -16t-17.5 -41q0 -19 15 -33t34 -14q22 0 40 17.5t18 39.5q0 19 -14.5 33t-33.5 14z" />
    <glyph glyph-name="AEacute" unicode="&#x1fc;" horiz-adv-x="798" 
d="M421 267h-196l-173 -267h-63l423 655l-5 65h445l-8 -53h-307l-33 -272h254l-8 -51h-256l-36 -291h309l-7 -53h-373zM262 323h168l41 316zM609 966h109l-155 -145h-64z" />
    <glyph glyph-name="aeacute" unicode="&#x1fd;" horiz-adv-x="756" 
d="M393 196q-20 -59 -46 -106.5t-64 -75.5t-95 -28q-52 0 -84 27.5t-47 74t-15 101.5q0 56 15 111.5t46 100.5t78 72t111 27q23 0 48 -4.5t51 -20t51 -49.5l-34 -24q-29 25 -56.5 35.5t-59.5 10.5q-54 0 -90 -25.5t-56.5 -65t-29.5 -84.5t-9 -84q0 -61 22.5 -104.5
t70.5 -43.5q43 0 74.5 32.5t52.5 84.5t31 111zM542 47q35 0 68.5 7t67.5 29l22 -46q-27 -19 -52 -30t-45.5 -15t-36.5 -5t-26 -1q-66 0 -107.5 30.5t-61 81.5t-19.5 111q0 51 15 102t45.5 93.5t77 68.5t109.5 26q30 0 58.5 -9t47.5 -30t19 -56q0 -59 -29.5 -98t-77.5 -61.5
t-103.5 -31t-107.5 -7.5v47q22 -6 54 -3.5t66.5 12.5t65 27.5t49.5 43.5t19 59q0 29 -22.5 43t-48.5 14q-42 0 -74.5 -21.5t-54 -57t-32.5 -78t-11 -83.5q0 -45 12 -81.5t39.5 -58.5t73.5 -22zM527 732h109l-155 -145h-64z" />
    <glyph glyph-name="Oslashacute" unicode="&#x1fe;" horiz-adv-x="709" 
d="M306 -9q-67 0 -114 24t-76 65.5t-42.5 94.5t-13.5 111q0 77 21 155t64.5 143.5t109 105t155.5 39.5t144 -40.5t78 -107t24 -144.5q0 -81 -21.5 -160.5t-64.5 -144t-109 -103t-155 -38.5zM318 46q58 0 102 23.5t76 64t52 90.5t29.5 104t9.5 104q0 63 -17 118t-57.5 89.5
t-110.5 34.5q-58 0 -102 -24t-76 -64t-52.5 -90.5t-30.5 -104.5t-10 -104q0 -61 17.5 -116.5t58.5 -90t111 -34.5zM62 -56l-37 34l623 787l41 -31zM489 895h109l-151 -124h-64z" />
    <glyph glyph-name="oslashacute" unicode="&#x1ff;" horiz-adv-x="501" 
d="M218 -14q-60 0 -98.5 31t-57 81.5t-18.5 107.5q0 52 15 103.5t45 94.5t74.5 69t104.5 26t98.5 -31t57 -80.5t18.5 -107.5q0 -52 -15 -104t-45 -95t-75 -69t-104 -26zM222 38q43 0 75 20.5t53 55t31.5 76t10.5 82.5q0 46 -12 85.5t-37 64.5t-65 25q-43 0 -74.5 -20.5
t-52.5 -55t-31.5 -75.5t-10.5 -82q0 -45 12 -85.5t37 -65.5t64 -25zM51 -49l-34 27l434 573l37 -27zM369 732h109l-155 -145h-64z" />
    <glyph glyph-name="uni0200" unicode="&#x200;" horiz-adv-x="616" 
d="M431 720l138 -720h-74l-51 270h-241l-125 -270h-58l335 720h76zM373 625l-144 -305h204zM419 895l70 -124h-45l-134 124h109zM285 895l70 -124h-44l-134 124h108z" />
    <glyph glyph-name="uni0201" unicode="&#x201;" horiz-adv-x="507" 
d="M416 492h34q-15 -98 -25.5 -165.5t-17 -111t-10 -69t-5 -39t-1.5 -21.5q0 -21 8.5 -31.5t29.5 -10.5q10 0 18.5 1.5t16.5 4.5l8 -43q-13 -7 -28 -13t-30 -6q-40 0 -60 27t-18 67h-4q-20 -43 -60 -69.5t-84 -26.5q-52 0 -84 27.5t-47 74t-15 101.5q0 56 15 111.5t46 100.5
t78 72t111 27q34 0 61.5 -12t54.5 -41v-45q-29 25 -56.5 35.5t-59.5 10.5q-54 0 -90 -25.5t-56.5 -65t-29.5 -84.5t-9 -84q0 -61 22.5 -104.5t70.5 -43.5q33 0 60 21t47.5 56.5t33.5 80.5t19 94l17 132zM313 732l66 -145h-45l-130 145h109zM179 732l66 -145h-44l-130 145
h108z" />
    <glyph glyph-name="uni0202" unicode="&#x202;" horiz-adv-x="616" 
d="M431 720l138 -720h-74l-51 270h-241l-125 -270h-58l335 720h76zM373 625l-144 -305h204zM266 779q8 34 27 58t49.5 37t71.5 13t67.5 -13t39.5 -37t12 -58h-41q-2 26 -26.5 38t-60.5 12t-63 -11.5t-38 -38.5h-38z" />
    <glyph glyph-name="uni0203" unicode="&#x203;" horiz-adv-x="507" 
d="M416 492h34q-15 -98 -25.5 -165.5t-17 -111t-10 -69t-5 -39t-1.5 -21.5q0 -21 8.5 -31.5t29.5 -10.5q10 0 18.5 1.5t16.5 4.5l8 -43q-13 -7 -28 -13t-30 -6q-40 0 -60 27t-18 67h-4q-20 -43 -60 -69.5t-84 -26.5q-52 0 -84 27.5t-47 74t-15 101.5q0 56 15 111.5t46 100.5
t78 72t111 27q34 0 61.5 -12t54.5 -41v-45q-29 25 -56.5 35.5t-59.5 10.5q-54 0 -90 -25.5t-56.5 -65t-29.5 -84.5t-9 -84q0 -61 22.5 -104.5t70.5 -43.5q33 0 60 21t47.5 56.5t33.5 80.5t19 94l17 132zM157 598q14 59 54.5 93.5t101.5 34.5q41 0 65.5 -16t35.5 -44.5
t10 -67.5h-41q-1 37 -24.5 53.5t-59.5 16.5t-63 -17t-41 -53h-38z" />
    <glyph glyph-name="uni0204" unicode="&#x204;" horiz-adv-x="496" 
d="M154 720h396l-8 -53h-324l-34 -273h252l-9 -52h-251l-39 -289h324l-7 -53h-391l87 653zM380 895l70 -124h-45l-134 124h109zM246 895l70 -124h-44l-134 124h108z" />
    <glyph glyph-name="uni0205" unicode="&#x205;" horiz-adv-x="448" 
d="M291 499q30 0 58.5 -9t47 -30t18.5 -56q0 -59 -29.5 -98t-77.5 -61.5t-103.5 -31t-107.5 -7.5v47q33 -7 76 -1t84 24.5t68 47.5t27 68q0 29 -22.5 43t-49.5 14q-42 0 -74 -21.5t-53.5 -57t-32.5 -78t-11 -83.5q0 -84 37 -123t98 -39q28 0 60 7t66 22l22 -39
q-28 -19 -52.5 -30t-45.5 -15t-36.5 -5t-25.5 -1q-66 0 -107.5 30.5t-61 81.5t-19.5 111q0 51 15 102t45.5 93.5t77 68.5t109.5 26zM326 732l66 -145h-45l-130 145h109zM192 732l66 -145h-44l-130 145h108z" />
    <glyph glyph-name="uni0206" unicode="&#x206;" horiz-adv-x="496" 
d="M154 720h396l-8 -53h-324l-34 -273h252l-9 -52h-251l-39 -289h324l-7 -53h-391l87 653zM227 779q8 34 27 58t49.5 37t71.5 13t67.5 -13t39.5 -37t12 -58h-41q-2 26 -26.5 38t-60.5 12t-63 -11.5t-38 -38.5h-38z" />
    <glyph glyph-name="uni0207" unicode="&#x207;" horiz-adv-x="448" 
d="M291 499q30 0 58.5 -9t47 -30t18.5 -56q0 -59 -29.5 -98t-77.5 -61.5t-103.5 -31t-107.5 -7.5v47q33 -7 76 -1t84 24.5t68 47.5t27 68q0 29 -22.5 43t-49.5 14q-42 0 -74 -21.5t-53.5 -57t-32.5 -78t-11 -83.5q0 -84 37 -123t98 -39q28 0 60 7t66 22l22 -39
q-28 -19 -52.5 -30t-45.5 -15t-36.5 -5t-25.5 -1q-66 0 -107.5 30.5t-61 81.5t-19.5 111q0 51 15 102t45.5 93.5t77 68.5t109.5 26zM170 598q14 59 54.5 93.5t101.5 34.5q41 0 65.5 -16t35.5 -44.5t10 -67.5h-41q-1 37 -24.5 53.5t-59.5 16.5t-63 -17t-41 -53h-38z" />
    <glyph glyph-name="uni0208" unicode="&#x208;" horiz-adv-x="252" 
d="M158 720h75l-99 -720h-68l89 653zM218 895l70 -124h-45l-134 124h109zM84 895l70 -124h-44l-134 124h108z" />
    <glyph glyph-name="uni0209" unicode="&#x209;" horiz-adv-x="226" 
d="M116 0h-69l57 428l2 58h69l-58 -426zM177 732l66 -145h-45l-130 145h109zM43 732l66 -145h-44l-130 145h108z" />
    <glyph glyph-name="uni020A" unicode="&#x20a;" horiz-adv-x="252" 
d="M158 720h75l-99 -720h-68l89 653zM65 779q8 34 27 58t49.5 37t71.5 13t67.5 -13t39.5 -37t12 -58h-41q-2 26 -26.5 38t-60.5 12t-63 -11.5t-38 -38.5h-38z" />
    <glyph glyph-name="uni020B" unicode="&#x20b;" horiz-adv-x="226" 
d="M116 0h-69l57 428l2 58h69l-58 -426zM21 598q14 59 54.5 93.5t101.5 34.5q41 0 65.5 -16t35.5 -44.5t10 -67.5h-41q-1 37 -24.5 53.5t-59.5 16.5t-63 -17t-41 -53h-38z" />
    <glyph glyph-name="uni020C" unicode="&#x20c;" horiz-adv-x="709" 
d="M306 -9q-67 0 -114 24t-76 65.5t-42.5 94.5t-13.5 111q0 77 21 155t64.5 143.5t109 105t155.5 39.5t144 -40.5t78 -107t24 -144.5q0 -81 -21.5 -160.5t-64.5 -144t-109 -103t-155 -38.5zM318 46q58 0 102 23.5t76 64t52 90.5t29.5 104t9.5 104q0 63 -17 118t-57.5 89.5
t-110.5 34.5q-58 0 -102 -24t-76 -64t-52.5 -90.5t-30.5 -104.5t-10 -104q0 -61 17.5 -116.5t58.5 -90t111 -34.5zM441 895l70 -124h-45l-134 124h109zM307 895l70 -124h-44l-134 124h108z" />
    <glyph glyph-name="uni020D" unicode="&#x20d;" horiz-adv-x="501" 
d="M218 -14q-60 0 -98.5 31t-57 81.5t-18.5 107.5q0 52 15 103.5t45 94.5t74.5 69t104.5 26t98.5 -31t57 -80.5t18.5 -107.5q0 -52 -15 -104t-45 -95t-75 -69t-104 -26zM222 38q43 0 75 20.5t53 55t31.5 76t10.5 82.5q0 46 -12 85.5t-37 64.5t-65 25q-43 0 -74.5 -20.5
t-52.5 -55t-31.5 -75.5t-10.5 -82q0 -45 12 -85.5t37 -65.5t64 -25zM321 732l66 -145h-45l-130 145h109zM187 732l66 -145h-44l-130 145h108z" />
    <glyph glyph-name="uni020E" unicode="&#x20e;" horiz-adv-x="709" 
d="M306 -9q-67 0 -114 24t-76 65.5t-42.5 94.5t-13.5 111q0 77 21 155t64.5 143.5t109 105t155.5 39.5t144 -40.5t78 -107t24 -144.5q0 -81 -21.5 -160.5t-64.5 -144t-109 -103t-155 -38.5zM318 46q58 0 102 23.5t76 64t52 90.5t29.5 104t9.5 104q0 63 -17 118t-57.5 89.5
t-110.5 34.5q-58 0 -102 -24t-76 -64t-52.5 -90.5t-30.5 -104.5t-10 -104q0 -61 17.5 -116.5t58.5 -90t111 -34.5zM288 779q8 34 27 58t49.5 37t71.5 13t67.5 -13t39.5 -37t12 -58h-41q-2 26 -26.5 38t-60.5 12t-63 -11.5t-38 -38.5h-38z" />
    <glyph glyph-name="uni020F" unicode="&#x20f;" horiz-adv-x="501" 
d="M218 -14q-60 0 -98.5 31t-57 81.5t-18.5 107.5q0 52 15 103.5t45 94.5t74.5 69t104.5 26t98.5 -31t57 -80.5t18.5 -107.5q0 -52 -15 -104t-45 -95t-75 -69t-104 -26zM222 38q43 0 75 20.5t53 55t31.5 76t10.5 82.5q0 46 -12 85.5t-37 64.5t-65 25q-43 0 -74.5 -20.5
t-52.5 -55t-31.5 -75.5t-10.5 -82q0 -45 12 -85.5t37 -65.5t64 -25zM165 598q14 59 54.5 93.5t101.5 34.5q41 0 65.5 -16t35.5 -44.5t10 -67.5h-41q-1 37 -24.5 53.5t-59.5 16.5t-63 -17t-41 -53h-38z" />
    <glyph glyph-name="uni0210" unicode="&#x210;" horiz-adv-x="570" 
d="M131 0h-70l89 653l3 67h203q50 0 94.5 -18t72.5 -55t28 -96q0 -50 -20.5 -96t-64.5 -79.5t-116 -47.5l183 -328h-85l-206 366h17q102 0 161.5 45t59.5 127q0 66 -37 97.5t-100 31.5h-122zM355 895l70 -124h-45l-134 124h109zM221 895l70 -124h-44l-134 124h108z" />
    <glyph glyph-name="uni0211" unicode="&#x211;" horiz-adv-x="333" 
d="M158 499q6 -19 8 -33.5t3 -49.5q20 24 48 42.5t61.5 29.5t69.5 11l-31 -72q-55 0 -91 -25.5t-62 -63.5l-45 -338h-67l45 355q2 14 2.5 24t0.5 22q0 15 -3.5 41.5t-14.5 45.5zM240 732l66 -145h-45l-130 145h109zM106 732l66 -145h-44l-130 145h108z" />
    <glyph glyph-name="uni0212" unicode="&#x212;" horiz-adv-x="570" 
d="M131 0h-70l89 653l3 67h203q50 0 94.5 -18t72.5 -55t28 -96q0 -50 -20.5 -96t-64.5 -79.5t-116 -47.5l183 -328h-85l-206 366h17q102 0 161.5 45t59.5 127q0 66 -37 97.5t-100 31.5h-122zM202 779q8 34 27 58t49.5 37t71.5 13t67.5 -13t39.5 -37t12 -58h-41
q-2 26 -26.5 38t-60.5 12t-63 -11.5t-38 -38.5h-38z" />
    <glyph glyph-name="uni0213" unicode="&#x213;" horiz-adv-x="333" 
d="M158 499q6 -19 8 -33.5t3 -49.5q20 24 48 42.5t61.5 29.5t69.5 11l-31 -72q-55 0 -91 -25.5t-62 -63.5l-45 -338h-67l45 355q2 14 2.5 24t0.5 22q0 15 -3.5 41.5t-14.5 45.5zM84 598q14 59 54.5 93.5t101.5 34.5q41 0 65.5 -16t35.5 -44.5t10 -67.5h-41q-1 37 -24.5 53.5
t-59.5 16.5t-63 -17t-41 -53h-38z" />
    <glyph glyph-name="uni0214" unicode="&#x214;" horiz-adv-x="627" 
d="M191 720l-65 -477q-1 -15 -2 -27t-1 -24q0 -39 12.5 -72.5t44 -53.5t89.5 -20q69 0 115 26t72.5 75t35.5 118l61 455h57l-66 -474q-9 -66 -40 -124.5t-89.5 -94.5t-149.5 -36q-66 0 -107.5 16.5t-64.5 44.5t-32 61t-9 66q0 11 1.5 23t2.5 24l57 428l4 66h74zM402 895
l70 -124h-45l-134 124h109zM268 895l70 -124h-44l-134 124h108z" />
    <glyph glyph-name="uni0215" unicode="&#x215;" horiz-adv-x="516" 
d="M155 486l-43 -314q-1 -13 -2 -25.5t-1 -22.5q0 -52 20.5 -73t55.5 -21q11 0 28 1.5t37.5 11.5t40.5 34.5t37 69.5t27 117l24 157l3 65h67l-50 -370q-1 -8 -1.5 -15.5t-0.5 -12.5q0 -30 10 -38t20 -8q17 0 29.5 5.5t7.5 3.5l8 -46q8 5 -1 0t-25.5 -12t-31.5 -7t-34 8.5
t-32 28.5t-11 54h-4q-1 -3 -8 -17t-23.5 -31t-47 -30t-78.5 -13q-70 0 -99.5 39.5t-29.5 97.5q0 21 3 43l37 256l2 64h66zM301 732l66 -145h-45l-130 145h109zM167 732l66 -145h-44l-130 145h108z" />
    <glyph glyph-name="uni0216" unicode="&#x216;" horiz-adv-x="627" 
d="M191 720l-65 -477q-1 -15 -2 -27t-1 -24q0 -39 12.5 -72.5t44 -53.5t89.5 -20q69 0 115 26t72.5 75t35.5 118l61 455h57l-66 -474q-9 -66 -40 -124.5t-89.5 -94.5t-149.5 -36q-66 0 -107.5 16.5t-64.5 44.5t-32 61t-9 66q0 11 1.5 23t2.5 24l57 428l4 66h74zM249 779
q8 34 27 58t49.5 37t71.5 13t67.5 -13t39.5 -37t12 -58h-41q-2 26 -26.5 38t-60.5 12t-63 -11.5t-38 -38.5h-38z" />
    <glyph glyph-name="uni0217" unicode="&#x217;" horiz-adv-x="516" 
d="M155 486l-43 -314q-1 -13 -2 -25.5t-1 -22.5q0 -52 20.5 -73t55.5 -21q11 0 28 1.5t37.5 11.5t40.5 34.5t37 69.5t27 117l24 157l3 65h67l-50 -370q-1 -8 -1.5 -15.5t-0.5 -12.5q0 -30 10 -38t20 -8q17 0 29.5 5.5t7.5 3.5l8 -46q8 5 -1 0t-25.5 -12t-31.5 -7t-34 8.5
t-32 28.5t-11 54h-4q-1 -3 -8 -17t-23.5 -31t-47 -30t-78.5 -13q-70 0 -99.5 39.5t-29.5 97.5q0 21 3 43l37 256l2 64h66zM145 598q14 59 54.5 93.5t101.5 34.5q41 0 65.5 -16t35.5 -44.5t10 -67.5h-41q-1 37 -24.5 53.5t-59.5 16.5t-63 -17t-41 -53h-38z" />
    <glyph glyph-name="uni0218" unicode="&#x218;" horiz-adv-x="513" 
d="M341 729q30 0 54 -3.5t47.5 -12.5t49.5 -24l-33 -56q-23 17 -39 25.5t-33 12t-43 3.5q-39 0 -75.5 -14.5t-59.5 -42t-23 -67.5q0 -35 19.5 -60t50.5 -44.5t65.5 -39.5t65.5 -45.5t50.5 -61.5t19.5 -88q0 -67 -32.5 -116.5t-86 -76.5t-118.5 -27q-46 0 -92 14t-91 36
l31 58q33 -20 54.5 -31.5t44 -16.5t58.5 -5q43 0 80 24t60.5 61.5t23.5 78.5t-19.5 68.5t-50 47.5t-64.5 39t-64.5 42t-50 56t-19.5 83q0 58 31.5 99t82 62.5t106.5 21.5zM201 -84q26 0 39 -16t13 -40q0 -30 -16 -57t-39.5 -48.5t-46.5 -37.5l-24 25q9 8 21 17.5t21.5 20.5
t9.5 23q0 10 -8.5 18t-17.5 17.5t-9 25.5q0 23 17.5 37.5t39.5 14.5z" />
    <glyph glyph-name="uni0219" unicode="&#x219;" horiz-adv-x="379" 
d="M327 418q-24 15 -46 23t-48 8t-50 -10.5t-39.5 -30t-15.5 -47.5q0 -25 19.5 -44t49 -36.5t58.5 -38t48.5 -49.5t19.5 -71q0 -44 -23 -74.5t-59.5 -46t-79.5 -15.5t-76.5 10.5t-67.5 29.5l38 50q22 -19 50 -29t51 -10q25 0 49.5 8.5t41 27t16.5 48.5t-19.5 51.5t-48 38.5
t-57.5 36t-48.5 44t-19.5 62q0 51 24.5 83t63 47.5t80.5 15.5q33 0 61 -9t52 -25zM138 -84q26 0 39 -16t13 -40q0 -30 -16 -57t-39.5 -48.5t-46.5 -37.5l-24 25q9 8 21 17.5t21.5 20.5t9.5 23q0 10 -8.5 18t-17.5 17.5t-9 25.5q0 23 17.5 37.5t39.5 14.5z" />
    <glyph glyph-name="uni021A" unicode="&#x21a;" horiz-adv-x="509" 
d="M54 720h499l-7 -53h-216l-90 -667h-67l90 667h-218zM187 -84q26 0 39 -16t13 -40q0 -30 -16 -57t-39.5 -48.5t-46.5 -37.5l-24 25q9 8 21 17.5t21.5 20.5t9.5 23q0 10 -8.5 18t-17.5 17.5t-9 25.5q0 23 17.5 37.5t39.5 14.5z" />
    <glyph glyph-name="uni021B" unicode="&#x21b;" horiz-adv-x="272" 
d="M213 630q-13 -40 -22 -71t-18 -73h112l-17 -52h-103l-43 -339q0 3 -1 -5.5t-1 -12.5q0 -20 10 -30t32 -10q7 0 22 3t37 8l5 -44q10 3 0 -2t-31.5 -11t-44.5 -6q-16 0 -37.5 4.5t-37 24.5t-15.5 66q0 6 1 16t2 16.5t0 3.5l42 318h-69l8 52q21 0 41.5 12.5t40.5 44t39 87.5
h48zM98 -84q26 0 39 -16t13 -40q0 -30 -16 -57t-39.5 -48.5t-46.5 -37.5l-24 25q9 8 21 17.5t21.5 20.5t9.5 23q0 10 -8.5 18t-17.5 17.5t-9 25.5q0 23 17.5 37.5t39.5 14.5z" />
    <glyph glyph-name="uni022A" unicode="&#x22a;" horiz-adv-x="709" 
d="M306 -9q-67 0 -114 24t-76 65.5t-42.5 94.5t-13.5 111q0 77 21 155t64.5 143.5t109 105t155.5 39.5t144 -40.5t78 -107t24 -144.5q0 -81 -21.5 -160.5t-64.5 -144t-109 -103t-155 -38.5zM318 46q58 0 102 23.5t76 64t52 90.5t29.5 104t9.5 104q0 63 -17 118t-57.5 89.5
t-110.5 34.5q-58 0 -102 -24t-76 -64t-52.5 -90.5t-30.5 -104.5t-10 -104q0 -61 17.5 -116.5t58.5 -90t111 -34.5zM299 1006h309l-8 -59h-309zM402 840q0 -25 -18 -43.5t-42 -18.5q-19 0 -32.5 13t-13.5 32q0 25 18.5 44t42.5 19q20 0 32.5 -13t12.5 -33zM561 840
q0 -25 -18 -43.5t-42 -18.5q-19 0 -32.5 13t-13.5 32q0 26 18.5 44.5t42.5 18.5q20 0 32.5 -13t12.5 -33z" />
    <glyph glyph-name="uni022B" unicode="&#x22b;" horiz-adv-x="501" 
d="M218 -14q-60 0 -98.5 31t-57 81.5t-18.5 107.5q0 52 15 103.5t45 94.5t74.5 69t104.5 26t98.5 -31t57 -80.5t18.5 -107.5q0 -52 -15 -104t-45 -95t-75 -69t-104 -26zM222 38q43 0 75 20.5t53 55t31.5 76t10.5 82.5q0 46 -12 85.5t-37 64.5t-65 25q-43 0 -74.5 -20.5
t-52.5 -55t-31.5 -75.5t-10.5 -82q0 -45 12 -85.5t37 -65.5t64 -25zM178 834h309l-8 -59h-308zM282 667q0 -25 -18.5 -43t-42.5 -18q-19 0 -32.5 13t-13.5 32q0 25 18.5 43.5t42.5 18.5q20 0 33 -13t13 -33zM440 667q0 -25 -18 -43t-42 -18q-19 0 -32.5 13t-13.5 32
q0 25 18.5 43.5t42.5 18.5q20 0 32.5 -13t12.5 -33z" />
    <glyph glyph-name="uni022C" unicode="&#x22c;" horiz-adv-x="709" 
d="M306 -9q-67 0 -114 24t-76 65.5t-42.5 94.5t-13.5 111q0 77 21 155t64.5 143.5t109 105t155.5 39.5t144 -40.5t78 -107t24 -144.5q0 -81 -21.5 -160.5t-64.5 -144t-109 -103t-155 -38.5zM318 46q58 0 102 23.5t76 64t52 90.5t29.5 104t9.5 104q0 63 -17 118t-57.5 89.5
t-110.5 34.5q-58 0 -102 -24t-76 -64t-52.5 -90.5t-30.5 -104.5t-10 -104q0 -61 17.5 -116.5t58.5 -90t111 -34.5zM584 869q-7 -17 -19 -38t-29 -36t-39 -15q-29 0 -53 9.5l-48 19t-53 9.5q-13 0 -19 -8.5t-14 -16.5h-41q7 21 21.5 42t34.5 35t44 14q26 0 50.5 -9.5
t47 -19.5t42.5 -10q11 0 20.5 7.5t16.5 16.5h38zM300 1002h298l-8 -58h-298z" />
    <glyph glyph-name="uni022D" unicode="&#x22d;" horiz-adv-x="501" 
d="M218 -14q-60 0 -98.5 31t-57 81.5t-18.5 107.5q0 52 15 103.5t45 94.5t74.5 69t104.5 26t98.5 -31t57 -80.5t18.5 -107.5q0 -52 -15 -104t-45 -95t-75 -69t-104 -26zM222 38q43 0 75 20.5t53 55t31.5 76t10.5 82.5q0 46 -12 85.5t-37 64.5t-65 25q-43 0 -74.5 -20.5
t-52.5 -55t-31.5 -75.5t-10.5 -82q0 -45 12 -85.5t37 -65.5t64 -25zM463 698q-7 -17 -19 -38t-29 -36t-39 -15q-29 0 -53 9.5l-48 19t-53 9.5q-13 0 -19.5 -8.5t-13.5 -16.5h-41q7 21 21.5 42t34.5 35t44 14q26 0 50.5 -9.5t47 -19.5t42.5 -10q11 0 20.5 7.5t16.5 16.5h38z
M179 833h298l-8 -59h-298z" />
    <glyph glyph-name="uni0230" unicode="&#x230;" horiz-adv-x="709" 
d="M306 -9q-67 0 -114 24t-76 65.5t-42.5 94.5t-13.5 111q0 77 21 155t64.5 143.5t109 105t155.5 39.5t144 -40.5t78 -107t24 -144.5q0 -81 -21.5 -160.5t-64.5 -144t-109 -103t-155 -38.5zM318 46q58 0 102 23.5t76 64t52 90.5t29.5 104t9.5 104q0 63 -17 118t-57.5 89.5
t-110.5 34.5q-58 0 -102 -24t-76 -64t-52.5 -90.5t-30.5 -104.5t-10 -104q0 -61 17.5 -116.5t58.5 -90t111 -34.5zM300 1006h309l-8 -59h-309zM481 840q0 -25 -18 -43.5t-42 -18.5q-19 0 -32.5 13t-13.5 32q0 26 18.5 44.5t42.5 18.5q20 0 32.5 -13t12.5 -33z" />
    <glyph glyph-name="uni0231" unicode="&#x231;" horiz-adv-x="501" 
d="M218 -14q-60 0 -98.5 31t-57 81.5t-18.5 107.5q0 52 15 103.5t45 94.5t74.5 69t104.5 26t98.5 -31t57 -80.5t18.5 -107.5q0 -52 -15 -104t-45 -95t-75 -69t-104 -26zM222 38q43 0 75 20.5t53 55t31.5 76t10.5 82.5q0 46 -12 85.5t-37 64.5t-65 25q-43 0 -74.5 -20.5
t-52.5 -55t-31.5 -75.5t-10.5 -82q0 -45 12 -85.5t37 -65.5t64 -25zM179 823h309l-8 -59h-309zM360 656q0 -25 -18 -43t-42 -18q-19 0 -32.5 13t-13.5 32q0 25 18.5 43.5t42.5 18.5q21 0 33 -13t12 -33z" />
    <glyph glyph-name="uni0232" unicode="&#x232;" horiz-adv-x="453" 
d="M126 720l136 -291l195 291h60l-240 -346l-50 -374h-71l51 374l-161 346h80zM154 861h309l-7 -58h-309z" />
    <glyph glyph-name="uni0233" unicode="&#x233;" horiz-adv-x="404" 
d="M-22 -171q31 2 56.5 10.5t47 27.5t41.5 52.5t41 84.5l-103 482h65q8 -41 17 -90.5t18.5 -102.5t20 -105.5t22.5 -99.5q26 52 51 105.5t49 105.5t45.5 99.5t40.5 87.5h57l-256 -562q-19 -42 -53 -76t-77.5 -54.5t-91.5 -23.5zM119 689h308l-7 -59h-308z" />
    <glyph glyph-name="uni0237" unicode="&#x237;" horiz-adv-x="230" 
d="M178 486l-66 -482q-4 -33 -14.5 -71t-28.5 -73t-46 -59.5t-69 -30.5l-4 32q38 18 57.5 51t28.5 72t14 74l60 428l2 59h66z" />
    <glyph glyph-name="uni0259" unicode="&#x259;" horiz-adv-x="465" 
d="M165 -13q-30 0 -56 9.5t-42.5 32t-16.5 59.5q0 48 21 82t55 56t75 34.5t81.5 16.5t74.5 3q2 71 -30.5 115t-94.5 44q-35 0 -69 -7t-67 -29l-23 46q28 20 53 30.5t45.5 14.5t36.5 5t25 1q61 0 102.5 -27t63 -72.5t21.5 -101.5q0 -59 -18 -115t-51.5 -100.5t-80.5 -70.5
t-105 -26zM113 97q0 -31 19.5 -45.5t47.5 -14.5q41 0 73.5 22.5t55 56t34 66.5t10.5 54q-39 1 -80.5 -7.5t-78 -26t-59 -44t-22.5 -61.5z" />
    <glyph glyph-name="uni0272" unicode="&#x272;" horiz-adv-x="498" 
d="M-50 -198q38 18 57.5 51t28.5 72t14 74l48 348q2 14 3 26.5t1 22.5q0 39 -5.5 61t-10 29.5t-1.5 1.5l71 8q1 -3 4.5 -26.5t4.5 -48.5q19 17 42.5 35t53 30.5t64.5 12.5q18 0 39.5 -4t41 -17.5t32 -40t12.5 -71.5q0 -17 -3 -41l-35 -265l-1 -60h-69l40 292q2 15 4 31t2 32
q0 21 -5.5 40.5t-21 32t-46.5 12.5q-28 0 -53.5 -10.5t-46.5 -24t-34.5 -25.5t-18.5 -15l-50 -361q-4 -33 -14.5 -71t-28.5 -73t-46 -59.5t-69 -30.5z" />
    <glyph glyph-name="uni02B9" unicode="&#x2b9;" horiz-adv-x="234" 
d="M146 752h110l-97 -165h-65z" />
    <glyph glyph-name="uni02BA" unicode="&#x2ba;" horiz-adv-x="393" 
d="M146 752h110l-97 -165h-65zM305 752h110l-97 -165h-65z" />
    <glyph glyph-name="uni02BC" unicode="&#x2bc;" horiz-adv-x="286" 
d="M205 757q29 0 42 -20t9 -48q-5 -40 -34.5 -74.5t-66.5 -57.5q-7 5 -12.5 12.5t-11.5 12.5q13 13 31 27t21 31q2 12 -8 20.5t-19 19.5t-7 31q3 20 20 33t36 13z" />
    <glyph glyph-name="circumflex" unicode="&#x2c6;" horiz-adv-x="290" 
d="M202 671l-98 -90h-57l128 158h75l87 -160h-59z" />
    <glyph glyph-name="caron" unicode="&#x2c7;" horiz-adv-x="290" 
d="M205 648l98 90h57l-128 -159h-75l-87 160h59z" />
    <glyph glyph-name="uni02C9" unicode="&#x2c9;" horiz-adv-x="390" 
d="M104 689h308l-7 -59h-308z" />
    <glyph glyph-name="breve" unicode="&#x2d8;" horiz-adv-x="267" 
d="M335 726q-9 -39 -29 -68t-50.5 -44.5t-71.5 -15.5q-61 0 -89 35t-27 93h41q2 -37 25 -53.5t59 -16.5t63 17t41 53h38z" />
    <glyph glyph-name="dotaccent" unicode="&#x2d9;" horiz-adv-x="260" 
d="M241 667q0 -25 -18 -43t-42 -18q-20 0 -32.5 13.5t-12.5 32.5q0 26 18.5 43.5t41.5 17.5q20 0 32.5 -13t12.5 -33z" />
    <glyph glyph-name="ring" unicode="&#x2da;" horiz-adv-x="281" 
d="M210 752q36 0 60 -24.5t24 -59.5q0 -28 -15 -52.5t-39 -39.5t-52 -15q-35 0 -60 24.5t-25 58.5q0 29 15 53.5t39.5 39.5t52.5 15zM205 708q-24 0 -41.5 -16t-17.5 -41q0 -19 15 -33t34 -14q22 0 40 17.5t18 39.5q0 19 -14.5 33t-33.5 14z" />
    <glyph glyph-name="ogonek" unicode="&#x2db;" horiz-adv-x="262" 
d="M169 9q-13 -7 -34 -18t-42.5 -26t-36 -34.5t-14.5 -42.5q0 -16 10.5 -26.5t32.5 -10.5q14 0 35 9t43 21l8 -30q-6 -4 -24 -15.5t-44 -21.5t-57 -10q-44 0 -60 21t-16 44q0 28 19.5 53t49 46t62 35.5t57.5 21.5z" />
    <glyph glyph-name="tilde" unicode="&#x2dc;" horiz-adv-x="356" 
d="M394 698q-6 -17 -18 -38t-29.5 -36t-39.5 -15q-29 0 -52.5 9.5t-47.5 19t-53 9.5q-13 0 -19.5 -8.5t-14.5 -16.5h-41q8 21 22.5 42t34 35t43.5 14q26 0 50.5 -9.5t47 -19.5t42.5 -10q11 0 20.5 7.5t16.5 16.5h38z" />
    <glyph glyph-name="hungarumlaut" unicode="&#x2dd;" horiz-adv-x="381" 
d="M183 732h109l-172 -145h-45zM317 732h108l-172 -145h-44z" />
    <glyph glyph-name="gravecomb" unicode="&#x300;" 
d="M229 732l68 -145h-65l-113 145h110z" />
    <glyph glyph-name="acutecomb" unicode="&#x301;" 
d="M209 732h109l-155 -145h-64z" />
    <glyph glyph-name="uni0302" unicode="&#x302;" 
d="M253 671l-98 -90h-57l128 158h75l87 -160h-59z" />
    <glyph glyph-name="tildecomb" unicode="&#x303;" 
d="M419 698q-6 -17 -18 -38t-29.5 -36t-39.5 -15q-29 0 -52.5 9.5t-47.5 19t-53 9.5q-13 0 -19.5 -8.5t-14.5 -16.5h-41q8 21 22.5 42t34 35t43.5 14q26 0 50.5 -9.5t47 -19.5t42.5 -10q11 0 20.5 7.5t16.5 16.5h38z" />
    <glyph glyph-name="uni0304" unicode="&#x304;" 
d="M113 689h308l-7 -59h-308z" />
    <glyph glyph-name="uni0306" unicode="&#x306;" 
d="M385 726q-9 -39 -29 -68t-50.5 -44.5t-71.5 -15.5q-61 0 -89 35t-27 93h41q2 -37 25 -53.5t59 -16.5t63 17t41 53h38z" />
    <glyph glyph-name="uni0307" unicode="&#x307;" 
d="M213 667q0 -25 -18 -43t-42 -18q-20 0 -32.5 13.5t-12.5 32.5q0 26 18.5 43.5t41.5 17.5q20 0 32.5 -13t12.5 -33z" />
    <glyph glyph-name="uni0308" unicode="&#x308;" 
d="M213 667q0 -25 -18.5 -43t-42.5 -18q-19 0 -31.5 13.5t-12.5 32.5q0 25 18.5 43t40.5 18q21 0 33.5 -13t12.5 -33zM372 667q0 -25 -18 -43t-42 -18q-20 0 -32.5 13.5t-12.5 32.5q0 26 18.5 43.5t41.5 17.5q20 0 32.5 -13t12.5 -33z" />
    <glyph glyph-name="hookabovecomb" unicode="&#x309;" 
d="M149 538l2 84q5 -1 11.5 -1.5t12.5 -0.5q29 0 43.5 14t14.5 34q0 14 -11.5 21.5t-28.5 7.5q-15 0 -31 -4.5t-30 -15.5l-15 37q24 15 49 22.5t47 7.5q37 0 62.5 -17.5t25.5 -50.5q0 -41 -32 -65.5t-77 -28.5l-15 -44h-28z" />
    <glyph glyph-name="uni030A" unicode="&#x30a;" 
d="M215 752q36 0 60 -24.5t24 -59.5q0 -28 -15 -52.5t-39 -39.5t-52 -15q-35 0 -60 24.5t-25 58.5q0 29 15 53.5t39.5 39.5t52.5 15zM210 708q-24 0 -41.5 -16t-17.5 -41q0 -19 15 -33t34 -14q22 0 40 17.5t18 39.5q0 19 -14.5 33t-33.5 14z" />
    <glyph glyph-name="uni030B" unicode="&#x30b;" 
d="M207 732h109l-172 -145h-45zM341 732h108l-172 -145h-44z" />
    <glyph glyph-name="uni030C" unicode="&#x30c;" 
d="M255 648l98 90h57l-128 -159h-75l-87 160h59z" />
    <glyph glyph-name="uni030F" unicode="&#x30f;" 
d="M361 732l66 -145h-45l-130 145h109zM227 732l66 -145h-44l-130 145h108z" />
    <glyph glyph-name="uni0311" unicode="&#x311;" 
d="M100 598q14 59 54.5 93.5t101.5 34.5q41 0 65.5 -16t35.5 -44.5t10 -67.5h-41q-1 37 -24.5 53.5t-59.5 16.5t-63 -17t-41 -53h-38z" />
    <glyph glyph-name="uni0312" unicode="&#x312;" 
d="M158 576q-29 0 -42 19.5t-9 47.5q5 41 35 74.5t66 57.5l24 -25q-12 -12 -30.5 -26.5t-21.5 -33.5q-1 -11 8.5 -19t19 -19t6.5 -31q-3 -21 -19.5 -33t-36.5 -12z" />
    <glyph glyph-name="uni0313" unicode="&#x313;" 
d="M175 775q29 0 41.5 -20t8.5 -48q-5 -40 -34.5 -73.5t-66.5 -57.5l-23 24q12 13 30.5 27t20.5 33q2 11 -8 19t-19 19.5t-6 30.5q3 21 20 33.5t36 12.5z" />
    <glyph glyph-name="uni031B" unicode="&#x31b;" 
d="M-196 482q35 -15 64.5 -5t47.5 39.5t19 71.5h90q-4 -37 -23.5 -72t-50 -60t-70 -34t-84.5 4z" />
    <glyph glyph-name="dotbelowcomb" unicode="&#x323;" 
d="M104 -106q0 -25 -18 -43t-42 -18q-20 0 -32.5 13.5t-12.5 32.5q0 25 18.5 43t41.5 18q20 0 32.5 -13t12.5 -33z" />
    <glyph glyph-name="uni0324" unicode="&#x324;" 
d="M104 -106q0 -25 -18.5 -43t-42.5 -18q-19 0 -31.5 13.5t-12.5 32.5q0 25 18 43t41 18q20 0 33 -13t13 -33zM262 -106q0 -25 -18 -43t-42 -18q-19 0 -31.5 13.5t-12.5 32.5q0 25 18 43t41 18q21 0 33 -13t12 -33z" />
    <glyph glyph-name="uni0326" unicode="&#x326;" 
d="M54 -84q26 0 39 -16t13 -40q0 -30 -16 -57t-39.5 -48.5t-46.5 -37.5l-24 25q9 8 21 17.5t21.5 20.5t9.5 23q0 10 -8.5 18t-17.5 17.5t-9 25.5q0 23 17.5 37.5t39.5 14.5z" />
    <glyph glyph-name="uni0327" unicode="&#x327;" 
d="M119 -120q0 -27 -17.5 -48.5t-46.5 -34t-62 -14.5l-4 31q17 2 33 10t27 22t11 34q0 23 -14 36.5t-27 18.5l36 70h28l-27 -53q7 -1 22 -7.5t28 -22t13 -42.5z" />
    <glyph glyph-name="uni0328" unicode="&#x328;" 
d="M197 9q-13 -7 -34 -18t-42.5 -26t-36 -34.5t-14.5 -42.5q0 -16 10.5 -26.5t32.5 -10.5q14 0 35 9t43 21l8 -30q-6 -4 -24 -15.5t-44 -21.5t-57 -10q-44 0 -60 21t-16 44q0 28 19.5 53t49 46t62 35.5t57.5 21.5z" />
    <glyph glyph-name="uni032E" unicode="&#x32e;" 
d="M274 -58q-9 -40 -29 -68.5t-50.5 -44t-71.5 -15.5q-61 0 -89 35t-27 93h41q2 -37 25 -53.5t59 -16.5t63 17t41 53h38z" />
    <glyph glyph-name="uni0331" unicode="&#x331;" 
d="M4 -80h308l-7 -59h-308z" />
    <glyph glyph-name="uni0335" unicode="&#x335;" 
d="M-411 346h315l-9 -55h-315z" />
    <glyph glyph-name="uni0336" unicode="&#x336;" 
d="M-641 346h616l-9 -55h-616z" />
    <glyph glyph-name="uni0337" unicode="&#x337;" 
d="M21 275l7 54l228 100l-6 -54z" />
    <glyph glyph-name="uni0338" unicode="&#x338;" 
d="M58 -57l-34 27l434 573l37 -27z" />
    <glyph glyph-name="uni0394" unicode="&#x394;" horiz-adv-x="631" 
d="M-12 46l341 672h60l160 -672l-6 -46h-561zM462 49q-13 56 -27 113t-27.5 113.5t-27.5 113t-27 112.5l-8 38t-7 38.5t-7 37.5q-12 -22 -22 -39.5t-18.5 -32.5t-17.5 -33l-230 -461h419z" />
    <glyph glyph-name="uni03A9" unicode="&#x3a9;" horiz-adv-x="698" 
d="M399 41q53 20 90 61.5t61 96t35 113t11 112.5q0 65 -18 123t-59.5 94.5t-112.5 36.5q-59 0 -104.5 -25.5t-78.5 -68.5t-54.5 -96t-31.5 -108.5t-10 -106.5t11.5 -97.5t36.5 -82t65 -52.5l-4 -41h-230l9 53h72l62 -4q-43 38 -65.5 101.5t-22.5 137.5q0 86 24 165t70 142
t111.5 99.5t148.5 36.5q88 0 143.5 -39.5t82 -107t26.5 -150.5q0 -58 -11.5 -114t-34 -107t-54 -93t-70.5 -71l63 4h71l-8 -53h-230z" />
    <glyph glyph-name="uni03BC" unicode="&#x3bc;" horiz-adv-x="584" 
d="M213 486q-14 -105 -23 -169t-13.5 -98.5t-6.5 -49.5t-2 -20.5v-11.5q0 -35 14.5 -61.5t57.5 -26.5q27 0 54 11.5t50 26.5t37 26.5l14 11.5l40 302l-4 59h74q-1 -4 -5.5 -36.5t-11 -81t-14 -102t-14 -101.5t-10.5 -79.5t-4 -35.5t3 -3t4 1q12 0 25 3.5t22 7t5 1.5l10 -39
q7 2 -0.5 -3t-23.5 -12.5t-34.5 -13.5t-34.5 -6q-25 0 -34 19.5t-8 53.5q-13 -11 -40.5 -28.5t-61.5 -31t-67 -13.5q-30 0 -61 13l-26 -184h-64l83 612l-5 59h75z" />
    <glyph glyph-name="pi" unicode="&#x3c0;" horiz-adv-x="669" 
d="M290 485l-25 -179q-10 -77 -22 -131.5t-31 -91.5t-52 -61.5t-86 -42.5l-10 30q39 18 63 41t38.5 59t25.5 92.5t23 142.5l21 141h55zM483 485q-8 -44 -17 -94.5t-17 -100t-13 -92t-5 -69.5q0 -43 11.5 -66t38.5 -23q9 0 22 3.5t29 10.5l15 -26q-20 -17 -41.5 -25t-48.5 -8
q-49 0 -67.5 32.5t-18.5 88.5q0 28 5.5 71.5t14 94.5t18 104t17.5 99h57zM641 486q-22 -22 -50.5 -33.5t-62.5 -11.5h-308q-37 0 -69.5 -22.5t-46.5 -57.5l-34 12q8 40 31.5 67.5t61 42t85.5 14.5h278q27 0 51 4t50 18z" />
    <glyph glyph-name="uni1E24" unicode="&#x1e24;" horiz-adv-x="671" 
d="M487 0l47 350h-357l-47 -350h-69l89 653l3 67h75l-42 -318h356l43 318h67l-98 -720h-67zM338 -106q0 -25 -18 -43t-42 -18q-20 0 -32.5 13.5t-12.5 32.5q0 25 18.5 43t41.5 18q20 0 32.5 -13t12.5 -33z" />
    <glyph glyph-name="uni1E25" unicode="&#x1e25;" horiz-adv-x="493" 
d="M204 761l-47 -338q28 27 67 51.5t87 24.5q33 0 62.5 -11t48 -40t18.5 -82q0 -18 -3 -42l-33 -264l1 -60h-72l37 290q2 14 3.5 30t1.5 31q0 22 -5 42.5t-20.5 33.5t-45.5 13q-28 0 -53.5 -10.5t-46.5 -24t-34.5 -25.5t-18.5 -15l-50 -365h-62l95 703l2 58h68zM243 -106
q0 -25 -18 -43t-42 -18q-20 0 -32.5 13.5t-12.5 32.5q0 25 18.5 43t41.5 18q20 0 32.5 -13t12.5 -33z" />
    <glyph glyph-name="uni1E62" unicode="&#x1e62;" horiz-adv-x="513" 
d="M341 729q30 0 54 -3.5t47.5 -12.5t49.5 -24l-33 -56q-23 17 -39 25.5t-33 12t-43 3.5q-39 0 -75.5 -14.5t-59.5 -42t-23 -67.5q0 -35 19.5 -60t50.5 -44.5t65.5 -39.5t65.5 -45.5t50.5 -61.5t19.5 -88q0 -67 -32.5 -116.5t-86 -76.5t-118.5 -27q-46 0 -92 14t-91 36
l31 58q33 -20 54.5 -31.5t44 -16.5t58.5 -5q43 0 80 24t60.5 61.5t23.5 78.5t-19.5 68.5t-50 47.5t-64.5 39t-64.5 42t-50 56t-19.5 83q0 58 31.5 99t82 62.5t106.5 21.5zM252 -106q0 -25 -18 -43t-42 -18q-20 0 -32.5 13.5t-12.5 32.5q0 25 18.5 43t41.5 18q20 0 32.5 -13
t12.5 -33z" />
    <glyph glyph-name="uni1E6C" unicode="&#x1e6c;" horiz-adv-x="509" 
d="M54 720h499l-7 -53h-216l-90 -667h-67l90 667h-218zM238 -106q0 -25 -18 -43t-42 -18q-20 0 -32.5 13.5t-12.5 32.5q0 25 18.5 43t41.5 18q20 0 32.5 -13t12.5 -33z" />
    <glyph glyph-name="uni1E6D" unicode="&#x1e6d;" horiz-adv-x="272" 
d="M213 630q-13 -40 -22 -71t-18 -73h112l-17 -52h-103l-43 -339q0 3 -1 -5.5t-1 -12.5q0 -20 10 -30t32 -10q7 0 22 3t37 8l5 -44q10 3 0 -2t-31.5 -11t-44.5 -6q-16 0 -37.5 4.5t-37 24.5t-15.5 66q0 6 1 16t2 16.5t0 3.5l42 318h-69l8 52q21 0 41.5 12.5t40.5 44t39 87.5
h48zM149 -106q0 -25 -18 -43t-42 -18q-20 0 -32.5 13.5t-12.5 32.5q0 25 18.5 43t41.5 18q20 0 32.5 -13t12.5 -33z" />
    <glyph glyph-name="Wgrave" unicode="&#x1e80;" horiz-adv-x="753" 
d="M120 720q5 -38 11.5 -88.5t13.5 -109.5t15 -122.5t16 -128t15 -126.5q25 59 51 122t51 126.5t48 123.5t42.5 111.5t34.5 91.5h44q5 -38 11.5 -88.5t13.5 -109t15 -122t16 -128.5t15 -127q23 57 48 120.5t50.5 127.5t49 124t44 112t35.5 91h54l-289 -724h-41
q-5 36 -11.5 87t-14 110.5t-15.5 123.5t-16.5 126.5t-16.5 117.5q-22 -55 -46 -116.5t-49 -124.5t-48.5 -122.5t-44 -111.5t-35.5 -90h-42l-96 724h71zM411 895l72 -124h-64l-117 124h109z" />
    <glyph glyph-name="wgrave" unicode="&#x1e81;" horiz-adv-x="595" 
d="M117 486q4 -24 9.5 -62.5t12.5 -86.5t15.5 -101t18.5 -104l48 108t45.5 102t38.5 85.5t26 58.5h30q7 -41 14.5 -96t18 -120.5t24.5 -137.5q23 53 46 105t44.5 99t39 85.5t29.5 64.5h47l-212 -492h-37q-4 27 -9.5 67.5t-12 88.5t-14 98.5t-16.5 97.5q-24 -50 -47 -100.5
t-43.5 -97t-38 -86t-29.5 -68.5h-36l-73 492h61zM321 732l68 -145h-65l-113 145h110z" />
    <glyph glyph-name="Wacute" unicode="&#x1e82;" horiz-adv-x="753" 
d="M120 720q5 -38 11.5 -88.5t13.5 -109.5t15 -122.5t16 -128t15 -126.5q25 59 51 122t51 126.5t48 123.5t42.5 111.5t34.5 91.5h44q5 -38 11.5 -88.5t13.5 -109t15 -122t16 -128.5t15 -127q23 57 48 120.5t50.5 127.5t49 124t44 112t35.5 91h54l-289 -724h-41
q-5 36 -11.5 87t-14 110.5t-15.5 123.5t-16.5 126.5t-16.5 117.5q-22 -55 -46 -116.5t-49 -124.5t-48.5 -122.5t-44 -111.5t-35.5 -90h-42l-96 724h71zM513 895h109l-151 -124h-64z" />
    <glyph glyph-name="wacute" unicode="&#x1e83;" horiz-adv-x="595" 
d="M117 486q4 -24 9.5 -62.5t12.5 -86.5t15.5 -101t18.5 -104l48 108t45.5 102t38.5 85.5t26 58.5h30q7 -41 14.5 -96t18 -120.5t24.5 -137.5q23 53 46 105t44.5 99t39 85.5t29.5 64.5h47l-212 -492h-37q-4 27 -9.5 67.5t-12 88.5t-14 98.5t-16.5 97.5q-24 -50 -47 -100.5
t-43.5 -97t-38 -86t-29.5 -68.5h-36l-73 492h61zM424 732h109l-155 -145h-64z" />
    <glyph glyph-name="Wdieresis" unicode="&#x1e84;" horiz-adv-x="753" 
d="M120 720q5 -38 11.5 -88.5t13.5 -109.5t15 -122.5t16 -128t15 -126.5q25 59 51 122t51 126.5t48 123.5t42.5 111.5t34.5 91.5h44q5 -38 11.5 -88.5t13.5 -109t15 -122t16 -128.5t15 -127q23 57 48 120.5t50.5 127.5t49 124t44 112t35.5 91h54l-289 -724h-41
q-5 36 -11.5 87t-14 110.5t-15.5 123.5t-16.5 126.5t-16.5 117.5q-22 -55 -46 -116.5t-49 -124.5t-48.5 -122.5t-44 -111.5t-35.5 -90h-42l-96 724h71zM425 838q0 -25 -18.5 -43t-42.5 -18q-19 0 -31.5 13.5t-12.5 32.5q0 25 18.5 43t40.5 18q21 0 33.5 -13t12.5 -33z
M584 838q0 -25 -18.5 -43t-41.5 -18q-20 0 -32.5 13.5t-12.5 32.5q0 26 18.5 43.5t41.5 17.5q20 0 32.5 -13t12.5 -33z" />
    <glyph glyph-name="wdieresis" unicode="&#x1e85;" horiz-adv-x="595" 
d="M117 486q4 -24 9.5 -62.5t12.5 -86.5t15.5 -101t18.5 -104l48 108t45.5 102t38.5 85.5t26 58.5h30q7 -41 14.5 -96t18 -120.5t24.5 -137.5q23 53 46 105t44.5 99t39 85.5t29.5 64.5h47l-212 -492h-37q-4 27 -9.5 67.5t-12 88.5t-14 98.5t-16.5 97.5q-24 -50 -47 -100.5
t-43.5 -97t-38 -86t-29.5 -68.5h-36l-73 492h61zM335 667q0 -25 -18.5 -43t-42.5 -18q-19 0 -31.5 13.5t-12.5 32.5q0 25 18.5 43t40.5 18q21 0 33.5 -13t12.5 -33zM494 667q0 -25 -18 -43t-42 -18q-20 0 -32.5 13.5t-12.5 32.5q0 26 18.5 43.5t41.5 17.5q20 0 32.5 -13
t12.5 -33z" />
    <glyph glyph-name="uni1E9E" unicode="&#x1e9e;" horiz-adv-x="652" 
d="M279 328l303 392l44 -37l-276 -344zM370 383q34 2 75 -4t78 -24.5t60.5 -53t23.5 -89.5q0 -77 -35.5 -126t-92 -72.5t-119.5 -23.5q-46 0 -93.5 12.5t-91.5 37.5l39 67q34 -33 74 -48t80 -15q41 0 78.5 17.5t61 54t23.5 93.5q0 45 -19.5 71.5t-61 38t-107.5 11.5
q-15 0 -30.5 -1t-33.5 -1zM160 720h422l-6 -53h-350l-89 -667h-67l87 653z" />
    <glyph glyph-name="uni1EA0" unicode="&#x1ea0;" horiz-adv-x="616" 
d="M431 720l138 -720h-74l-51 270h-241l-125 -270h-58l335 720h76zM373 625l-144 -305h204zM324 -106q0 -25 -18 -43t-42 -18q-20 0 -32.5 13.5t-12.5 32.5q0 25 18.5 43t41.5 18q20 0 32.5 -13t12.5 -33z" />
    <glyph glyph-name="uni1EA1" unicode="&#x1ea1;" horiz-adv-x="507" 
d="M416 492h34q-15 -98 -25.5 -165.5t-17 -111t-10 -69t-5 -39t-1.5 -21.5q0 -21 8.5 -31.5t29.5 -10.5q10 0 18.5 1.5t16.5 4.5l8 -43q-13 -7 -28 -13t-30 -6q-40 0 -60 27t-18 67h-4q-20 -43 -60 -69.5t-84 -26.5q-52 0 -84 27.5t-47 74t-15 101.5q0 56 15 111.5t46 100.5
t78 72t111 27q34 0 61.5 -12t54.5 -41v-45q-29 25 -56.5 35.5t-59.5 10.5q-54 0 -90 -25.5t-56.5 -65t-29.5 -84.5t-9 -84q0 -61 22.5 -104.5t70.5 -43.5q33 0 60 21t47.5 56.5t33.5 80.5t19 94l17 132zM232 -106q0 -25 -18 -43t-42 -18q-20 0 -32.5 13.5t-12.5 32.5
q0 25 18.5 43t41.5 18q20 0 32.5 -13t12.5 -33z" />
    <glyph glyph-name="uni1EA2" unicode="&#x1ea2;" horiz-adv-x="616" 
d="M431 720l138 -720h-74l-51 270h-241l-125 -270h-58l335 720h76zM373 625l-144 -305h204zM381 756l2 84q5 -1 11.5 -1.5t12.5 -0.5q30 0 44 15t14 35q0 14 -11.5 20.5t-28.5 6.5q-15 0 -31 -4.5t-30 -14.5l-15 36q24 15 49 22.5t47 7.5q37 0 62.5 -17.5t25.5 -50.5
q0 -41 -32 -65t-77 -28l-15 -45h-28z" />
    <glyph glyph-name="uni1EA3" unicode="&#x1ea3;" horiz-adv-x="507" 
d="M416 492h34q-15 -98 -25.5 -165.5t-17 -111t-10 -69t-5 -39t-1.5 -21.5q0 -21 8.5 -31.5t29.5 -10.5q10 0 18.5 1.5t16.5 4.5l8 -43q-13 -7 -28 -13t-30 -6q-40 0 -60 27t-18 67h-4q-20 -43 -60 -69.5t-84 -26.5q-52 0 -84 27.5t-47 74t-15 101.5q0 56 15 111.5t46 100.5
t78 72t111 27q34 0 61.5 -12t54.5 -41v-45q-29 25 -56.5 35.5t-59.5 10.5q-54 0 -90 -25.5t-56.5 -65t-29.5 -84.5t-9 -84q0 -61 22.5 -104.5t70.5 -43.5q33 0 60 21t47.5 56.5t33.5 80.5t19 94l17 132zM266 538l2 84q5 -1 11.5 -1.5t12.5 -0.5q29 0 43.5 14t14.5 34
q0 14 -11.5 21.5t-28.5 7.5q-15 0 -31 -4.5t-30 -15.5l-15 37q24 15 49 22.5t47 7.5q37 0 62.5 -17.5t25.5 -50.5q0 -41 -32 -65.5t-77 -28.5l-15 -44h-28z" />
    <glyph glyph-name="uni1EA4" unicode="&#x1ea4;" horiz-adv-x="616" 
d="M431 720l138 -720h-74l-51 270h-241l-125 -270h-58l335 720h76zM373 625l-144 -305h204zM407 835l-94 -70h-57l124 139h75l91 -140h-59zM459 1027h87l-91 -99h-61z" />
    <glyph glyph-name="uni1EA5" unicode="&#x1ea5;" horiz-adv-x="507" 
d="M416 492h34q-15 -98 -25.5 -165.5t-17 -111t-10 -69t-5 -39t-1.5 -21.5q0 -21 8.5 -31.5t29.5 -10.5q10 0 18.5 1.5t16.5 4.5l8 -43q-13 -7 -28 -13t-30 -6q-40 0 -60 27t-18 67h-4q-20 -43 -60 -69.5t-84 -26.5q-52 0 -84 27.5t-47 74t-15 101.5q0 56 15 111.5t46 100.5
t78 72t111 27q34 0 61.5 -12t54.5 -41v-45q-29 25 -56.5 35.5t-59.5 10.5q-54 0 -90 -25.5t-56.5 -65t-29.5 -84.5t-9 -84q0 -61 22.5 -104.5t70.5 -43.5q33 0 60 21t47.5 56.5t33.5 80.5t19 94l17 132zM300 671l-96 -90h-57l127 158h75l86 -160h-59zM352 883h100l-109 -105
h-55z" />
    <glyph glyph-name="uni1EA6" unicode="&#x1ea6;" horiz-adv-x="616" 
d="M431 720l138 -720h-74l-51 270h-241l-125 -270h-58l335 720h76zM373 625l-144 -305h204zM407 835l-98 -71h-59l129 140h75l86 -139h-57zM410 1027l37 -99h-61l-63 99h87z" />
    <glyph glyph-name="uni1EA7" unicode="&#x1ea7;" horiz-adv-x="507" 
d="M416 492h34q-15 -98 -25.5 -165.5t-17 -111t-10 -69t-5 -39t-1.5 -21.5q0 -21 8.5 -31.5t29.5 -10.5q10 0 18.5 1.5t16.5 4.5l8 -43q-13 -7 -28 -13t-30 -6q-40 0 -60 27t-18 67h-4q-20 -43 -60 -69.5t-84 -26.5q-52 0 -84 27.5t-47 74t-15 101.5q0 56 15 111.5t46 100.5
t78 72t111 27q34 0 61.5 -12t54.5 -41v-45q-29 25 -56.5 35.5t-59.5 10.5q-54 0 -90 -25.5t-56.5 -65t-29.5 -84.5t-9 -84q0 -61 22.5 -104.5t70.5 -43.5q33 0 60 21t47.5 56.5t33.5 80.5t19 94l17 132zM300 671l-102 -92h-59l133 160h75l84 -158h-57zM311 883l34 -105h-55
l-79 105h100z" />
    <glyph glyph-name="uni1EA8" unicode="&#x1ea8;" horiz-adv-x="616" 
d="M431 720l138 -720h-74l-51 270h-241l-125 -270h-58l335 720h76zM373 625l-144 -305h204zM407 835l-95 -70h-57l125 139h75l90 -140h-59zM409 924l2 76q4 -1 9.5 -1.5t11.5 -0.5q24 0 37.5 12.5t13.5 34.5q0 12 -10 18t-25 6q-13 0 -27.5 -4.5t-27.5 -14.5l-14 33
q23 15 44.5 21.5t43.5 6.5q32 0 55 -15.5t23 -43.5q0 -42 -28.5 -63.5t-69.5 -24.5l-12 -40h-26z" />
    <glyph glyph-name="uni1EA9" unicode="&#x1ea9;" horiz-adv-x="507" 
d="M416 492h34q-15 -98 -25.5 -165.5t-17 -111t-10 -69t-5 -39t-1.5 -21.5q0 -21 8.5 -31.5t29.5 -10.5q10 0 18.5 1.5t16.5 4.5l8 -43q-13 -7 -28 -13t-30 -6q-40 0 -60 27t-18 67h-4q-20 -43 -60 -69.5t-84 -26.5q-52 0 -84 27.5t-47 74t-15 101.5q0 56 15 111.5t46 100.5
t78 72t111 27q34 0 61.5 -12t54.5 -41v-45q-29 25 -56.5 35.5t-59.5 10.5q-54 0 -90 -25.5t-56.5 -65t-29.5 -84.5t-9 -84q0 -61 22.5 -104.5t70.5 -43.5q33 0 60 21t47.5 56.5t33.5 80.5t19 94l17 132zM301 671l-96 -90h-57l128 158h75l87 -160h-59zM305 769l2 76
q10 -2 21 -2q23 0 37 11.5t14 34.5q0 13 -10.5 19t-24.5 6q-13 0 -27 -4.5t-28 -14.5l-14 34q44 28 88 28q32 0 55 -15.5t23 -43.5q0 -43 -29.5 -64.5t-68.5 -23.5l-12 -41h-26z" />
    <glyph glyph-name="uni1EAA" unicode="&#x1eaa;" horiz-adv-x="616" 
d="M431 720l138 -720h-74l-51 270h-241l-125 -270h-58l335 720h76zM373 625l-144 -305h204zM406 835l-94 -70h-57l125 139h75l90 -140h-59zM561 1009q-7 -32 -29.5 -61t-54.5 -29q-22 0 -35.5 6t-25 13.5t-25 13.5t-35.5 6q-13 0 -20.5 -9t-11.5 -17h-40q9 37 35 64t62 27
q26 0 42.5 -9.5t31.5 -19t35 -9.5q11 0 18.5 7t14.5 17h38z" />
    <glyph glyph-name="uni1EAB" unicode="&#x1eab;" horiz-adv-x="507" 
d="M416 492h34q-15 -98 -25.5 -165.5t-17 -111t-10 -69t-5 -39t-1.5 -21.5q0 -21 8.5 -31.5t29.5 -10.5q10 0 18.5 1.5t16.5 4.5l8 -43q-13 -7 -28 -13t-30 -6q-40 0 -60 27t-18 67h-4q-20 -43 -60 -69.5t-84 -26.5q-52 0 -84 27.5t-47 74t-15 101.5q0 56 15 111.5t46 100.5
t78 72t111 27q34 0 61.5 -12t54.5 -41v-45q-29 25 -56.5 35.5t-59.5 10.5q-54 0 -90 -25.5t-56.5 -65t-29.5 -84.5t-9 -84q0 -61 22.5 -104.5t70.5 -43.5q33 0 60 21t47.5 56.5t33.5 80.5t19 94l17 132zM301 671l-98 -90h-57l128 158h75l87 -160h-59zM465 848
q-7 -31 -29.5 -60t-54.5 -29q-29 0 -45 9.5t-32.5 19t-45.5 9.5q-13 0 -20.5 -9t-10.5 -16h-40q8 37 35 64t63 27q26 0 42 -9.5t30.5 -19.5t34.5 -10q12 0 20 7.5t15 16.5h38z" />
    <glyph glyph-name="uni1EAC" unicode="&#x1eac;" horiz-adv-x="616" 
d="M431 720l138 -720h-74l-51 270h-241l-125 -270h-58l335 720h76zM373 625l-144 -305h204zM406 835l-93 -70h-57l124 139h75l91 -140h-59zM324 -106q0 -25 -18 -43t-42 -18q-20 0 -32.5 13.5t-12.5 32.5q0 25 18.5 43t41.5 18q20 0 32.5 -13t12.5 -33z" />
    <glyph glyph-name="uni1EAD" unicode="&#x1ead;" horiz-adv-x="507" 
d="M416 492h34q-15 -98 -25.5 -165.5t-17 -111t-10 -69t-5 -39t-1.5 -21.5q0 -21 8.5 -31.5t29.5 -10.5q10 0 18.5 1.5t16.5 4.5l8 -43q-13 -7 -28 -13t-30 -6q-40 0 -60 27t-18 67h-4q-20 -43 -60 -69.5t-84 -26.5q-52 0 -84 27.5t-47 74t-15 101.5q0 56 15 111.5t46 100.5
t78 72t111 27q34 0 61.5 -12t54.5 -41v-45q-29 25 -56.5 35.5t-59.5 10.5q-54 0 -90 -25.5t-56.5 -65t-29.5 -84.5t-9 -84q0 -61 22.5 -104.5t70.5 -43.5q33 0 60 21t47.5 56.5t33.5 80.5t19 94l17 132zM301 671l-98 -90h-57l128 158h75l87 -160h-59zM232 -106
q0 -25 -18 -43t-42 -18q-20 0 -32.5 13.5t-12.5 32.5q0 25 18.5 43t41.5 18q20 0 32.5 -13t12.5 -33z" />
    <glyph glyph-name="uni1EAE" unicode="&#x1eae;" horiz-adv-x="616" 
d="M431 720l138 -720h-74l-51 270h-241l-125 -270h-58l335 720h76zM373 625l-144 -305h204zM547 887q-9 -33 -28.5 -57.5t-49.5 -37.5t-72 -13q-40 0 -67 13t-39.5 37t-11.5 58h41q1 -26 26.5 -38t60.5 -12q36 0 62 11.5t39 38.5h39zM473 989h89l-129 -104h-44z" />
    <glyph glyph-name="uni1EAF" unicode="&#x1eaf;" horiz-adv-x="507" 
d="M416 492h34q-15 -98 -25.5 -165.5t-17 -111t-10 -69t-5 -39t-1.5 -21.5q0 -21 8.5 -31.5t29.5 -10.5q10 0 18.5 1.5t16.5 4.5l8 -43q-13 -7 -28 -13t-30 -6q-40 0 -60 27t-18 67h-4q-20 -43 -60 -69.5t-84 -26.5q-52 0 -84 27.5t-47 74t-15 101.5q0 56 15 111.5t46 100.5
t78 72t111 27q34 0 61.5 -12t54.5 -41v-45q-29 25 -56.5 35.5t-59.5 10.5q-54 0 -90 -25.5t-56.5 -65t-29.5 -84.5t-9 -84q0 -61 22.5 -104.5t70.5 -43.5q33 0 60 21t47.5 56.5t33.5 80.5t19 94l17 132zM442 726q-9 -39 -29 -68t-50.5 -44.5t-71.5 -15.5q-61 0 -89 35
t-27 93h41q2 -37 25 -53.5t59 -16.5t63 17t41 53h38zM367 850h100l-133 -125h-54z" />
    <glyph glyph-name="uni1EB0" unicode="&#x1eb0;" horiz-adv-x="616" 
d="M431 720l138 -720h-74l-51 270h-241l-125 -270h-58l335 720h76zM373 625l-144 -305h204zM282 887h38q5 -27 28.5 -38.5t59.5 -11.5q35 0 63 12t37 38h41q-8 -34 -27.5 -58t-49.5 -37t-71 -13t-68 13t-39.5 37.5t-11.5 57.5zM382 989l55 -104h-45l-99 104h89z" />
    <glyph glyph-name="uni1EB1" unicode="&#x1eb1;" horiz-adv-x="507" 
d="M416 492h34q-15 -98 -25.5 -165.5t-17 -111t-10 -69t-5 -39t-1.5 -21.5q0 -21 8.5 -31.5t29.5 -10.5q10 0 18.5 1.5t16.5 4.5l8 -43q-13 -7 -28 -13t-30 -6q-40 0 -60 27t-18 67h-4q-20 -43 -60 -69.5t-84 -26.5q-52 0 -84 27.5t-47 74t-15 101.5q0 56 15 111.5t46 100.5
t78 72t111 27q34 0 61.5 -12t54.5 -41v-45q-29 25 -56.5 35.5t-59.5 10.5q-54 0 -90 -25.5t-56.5 -65t-29.5 -84.5t-9 -84q0 -61 22.5 -104.5t70.5 -43.5q33 0 60 21t47.5 56.5t33.5 80.5t19 94l17 132zM177 726h38q3 -36 26 -53t59 -17q35 0 62.5 16.5t40.5 53.5h41
q-16 -58 -54 -93t-99 -35q-41 0 -67 15.5t-37.5 44.5t-9.5 68zM286 850l51 -125h-55l-96 125h100z" />
    <glyph glyph-name="uni1EB2" unicode="&#x1eb2;" horiz-adv-x="616" 
d="M431 720l138 -720h-74l-51 270h-241l-125 -270h-58l335 720h76zM373 625l-144 -305h204zM548 887q-9 -33 -28.5 -57.5t-50 -37.5t-71.5 -13q-40 0 -67 13t-39.5 37t-11.5 58h41q2 -26 27 -38t60 -12q36 0 62.5 11.5t38.5 38.5h39zM402 887l2 76q5 -1 11 -1.5t12 -0.5
q17 0 34 7.5t17 29.5q0 34 -35 34q-13 0 -28 -4.5t-29 -14.5l-12 33q21 15 43.5 21.5t44.5 6.5q33 0 55.5 -16t22.5 -46q0 -36 -27.5 -59t-70.5 -26l-13 -40h-27z" />
    <glyph glyph-name="uni1EB3" unicode="&#x1eb3;" horiz-adv-x="507" 
d="M416 492h34q-15 -98 -25.5 -165.5t-17 -111t-10 -69t-5 -39t-1.5 -21.5q0 -21 8.5 -31.5t29.5 -10.5q10 0 18.5 1.5t16.5 4.5l8 -43q-13 -7 -28 -13t-30 -6q-40 0 -60 27t-18 67h-4q-20 -43 -60 -69.5t-84 -26.5q-52 0 -84 27.5t-47 74t-15 101.5q0 56 15 111.5t46 100.5
t78 72t111 27q34 0 61.5 -12t54.5 -41v-45q-29 25 -56.5 35.5t-59.5 10.5q-54 0 -90 -25.5t-56.5 -65t-29.5 -84.5t-9 -84q0 -61 22.5 -104.5t70.5 -43.5q33 0 60 21t47.5 56.5t33.5 80.5t19 94l17 132zM442 726q-9 -39 -29 -68t-50 -44.5t-72 -15.5q-61 0 -89 35t-27 93h41
q2 -37 25 -53.5t59 -16.5t63 17t41 53h38zM294 723l2 76q5 -1 11 -1.5t12 -0.5q17 0 33.5 7.5t16.5 30.5q0 33 -35 33q-13 0 -27 -4.5t-28 -14.5l-14 33q23 15 45 21.5t44 6.5q32 0 55 -16t23 -45q0 -37 -27.5 -60t-71.5 -26l-13 -40h-26z" />
    <glyph glyph-name="uni1EB4" unicode="&#x1eb4;" horiz-adv-x="616" 
d="M431 720l138 -720h-74l-51 270h-241l-125 -270h-58l335 720h76zM373 625l-144 -305h204zM547 887q-8 -33 -27.5 -57.5t-50 -37.5t-71.5 -13q-40 0 -67 13t-40 37t-11 58h41q2 -26 27 -38t60 -12q36 0 62.5 11.5t38.5 38.5h38zM564 1009q-7 -32 -29 -61t-55 -29
q-22 0 -36 6t-25 13.5t-25 13.5t-36 6q-13 0 -21 -9t-12 -17h-40q9 37 36.5 64t63.5 27q26 0 42 -9.5t30 -19t34 -9.5q12 0 20.5 7t14.5 17h38z" />
    <glyph glyph-name="uni1EB5" unicode="&#x1eb5;" horiz-adv-x="507" 
d="M416 492h34q-15 -98 -25.5 -165.5t-17 -111t-10 -69t-5 -39t-1.5 -21.5q0 -21 8.5 -31.5t29.5 -10.5q10 0 18.5 1.5t16.5 4.5l8 -43q-13 -7 -28 -13t-30 -6q-40 0 -60 27t-18 67h-4q-20 -43 -60 -69.5t-84 -26.5q-52 0 -84 27.5t-47 74t-15 101.5q0 56 15 111.5t46 100.5
t78 72t111 27q34 0 61.5 -12t54.5 -41v-45q-29 25 -56.5 35.5t-59.5 10.5q-54 0 -90 -25.5t-56.5 -65t-29.5 -84.5t-9 -84q0 -61 22.5 -104.5t70.5 -43.5q33 0 60 21t47.5 56.5t33.5 80.5t19 94l17 132zM443 726q-9 -39 -29 -68t-50.5 -44.5t-71.5 -15.5q-61 0 -89 35
t-27 93h41q2 -37 25 -53.5t58 -16.5q36 0 63.5 17t41.5 53h38zM460 848q-7 -31 -29.5 -60t-54.5 -29q-22 0 -35.5 5.5t-25 13.5t-25 13.5t-35.5 5.5q-13 0 -21 -9t-11 -16h-41q8 37 35 64t64 27q26 0 41.5 -9.5t30 -19.5t34.5 -10q12 0 20 7.5t15 16.5h38z" />
    <glyph glyph-name="uni1EB6" unicode="&#x1eb6;" horiz-adv-x="616" 
d="M431 720l138 -720h-74l-51 270h-241l-125 -270h-58l335 720h76zM373 625l-144 -305h204zM547 887q-8 -33 -27 -57.5t-49.5 -37.5t-71.5 -13q-40 0 -67.5 13t-40.5 37t-12 58h41q2 -26 27 -38t60 -12q36 0 63 11.5t38 38.5h39zM324 -106q0 -25 -18 -43t-42 -18
q-20 0 -32.5 13.5t-12.5 32.5q0 25 18.5 43t41.5 18q20 0 32.5 -13t12.5 -33z" />
    <glyph glyph-name="uni1EB7" unicode="&#x1eb7;" horiz-adv-x="507" 
d="M416 492h34q-15 -98 -25.5 -165.5t-17 -111t-10 -69t-5 -39t-1.5 -21.5q0 -21 8.5 -31.5t29.5 -10.5q10 0 18.5 1.5t16.5 4.5l8 -43q-13 -7 -28 -13t-30 -6q-40 0 -60 27t-18 67h-4q-20 -43 -60 -69.5t-84 -26.5q-52 0 -84 27.5t-47 74t-15 101.5q0 56 15 111.5t46 100.5
t78 72t111 27q34 0 61.5 -12t54.5 -41v-45q-29 25 -56.5 35.5t-59.5 10.5q-54 0 -90 -25.5t-56.5 -65t-29.5 -84.5t-9 -84q0 -61 22.5 -104.5t70.5 -43.5q33 0 60 21t47.5 56.5t33.5 80.5t19 94l17 132zM442 726q-9 -39 -29 -68t-50.5 -44.5t-71.5 -15.5q-61 0 -89 35
t-27 93h41q2 -37 25 -53.5t59 -16.5t63 17t41 53h38zM232 -106q0 -25 -18 -43t-42 -18q-20 0 -32.5 13.5t-12.5 32.5q0 25 18.5 43t41.5 18q20 0 32.5 -13t12.5 -33z" />
    <glyph glyph-name="uni1EB8" unicode="&#x1eb8;" horiz-adv-x="496" 
d="M154 720h396l-8 -53h-324l-34 -273h252l-9 -52h-251l-39 -289h324l-7 -53h-391l87 653zM302 -106q0 -25 -18 -43t-42 -18q-20 0 -32.5 13.5t-12.5 32.5q0 25 18.5 43t41.5 18q20 0 32.5 -13t12.5 -33z" />
    <glyph glyph-name="uni1EB9" unicode="&#x1eb9;" horiz-adv-x="448" 
d="M291 499q30 0 58.5 -9t47 -30t18.5 -56q0 -59 -29.5 -98t-77.5 -61.5t-103.5 -31t-107.5 -7.5v47q33 -7 76 -1t84 24.5t68 47.5t27 68q0 29 -22.5 43t-49.5 14q-42 0 -74 -21.5t-53.5 -57t-32.5 -78t-11 -83.5q0 -84 37 -123t98 -39q28 0 60 7t66 22l22 -39
q-28 -19 -52.5 -30t-45.5 -15t-36.5 -5t-25.5 -1q-66 0 -107.5 30.5t-61 81.5t-19.5 111q0 51 15 102t45.5 93.5t77 68.5t109.5 26zM260 -106q0 -25 -18 -43t-42 -18q-20 0 -32.5 13.5t-12.5 32.5q0 25 18.5 43t41.5 18q20 0 32.5 -13t12.5 -33z" />
    <glyph glyph-name="uni1EBA" unicode="&#x1eba;" horiz-adv-x="496" 
d="M154 720h396l-8 -53h-324l-34 -273h252l-9 -52h-251l-39 -289h324l-7 -53h-391l87 653zM342 756l2 84q5 -1 11.5 -1.5t12.5 -0.5q30 0 44 15t14 35q0 14 -11.5 20.5t-28.5 6.5q-15 0 -31 -4.5t-30 -14.5l-15 36q24 15 49 22.5t47 7.5q37 0 62.5 -17.5t25.5 -50.5
q0 -41 -32 -65t-77 -28l-15 -45h-28z" />
    <glyph glyph-name="uni1EBB" unicode="&#x1ebb;" horiz-adv-x="448" 
d="M291 499q30 0 58.5 -9t47 -30t18.5 -56q0 -59 -29.5 -98t-77.5 -61.5t-103.5 -31t-107.5 -7.5v47q33 -7 76 -1t84 24.5t68 47.5t27 68q0 29 -22.5 43t-49.5 14q-42 0 -74 -21.5t-53.5 -57t-32.5 -78t-11 -83.5q0 -84 37 -123t98 -39q28 0 60 7t66 22l22 -39
q-28 -19 -52.5 -30t-45.5 -15t-36.5 -5t-25.5 -1q-66 0 -107.5 30.5t-61 81.5t-19.5 111q0 51 15 102t45.5 93.5t77 68.5t109.5 26zM279 538l2 84q5 -1 11.5 -1.5t12.5 -0.5q29 0 43.5 14t14.5 34q0 14 -11.5 21.5t-28.5 7.5q-15 0 -31 -4.5t-30 -15.5l-15 37q24 15 49 22.5
t47 7.5q37 0 62.5 -17.5t25.5 -50.5q0 -41 -32 -65.5t-77 -28.5l-15 -44h-28z" />
    <glyph glyph-name="uni1EBC" unicode="&#x1ebc;" horiz-adv-x="496" 
d="M154 720h396l-8 -53h-324l-34 -273h252l-9 -52h-251l-39 -289h324l-7 -53h-391l87 653zM523 870q-6 -17 -18.5 -38.5t-29.5 -36.5t-39 -15q-29 0 -52.5 10t-47.5 19.5t-53 9.5q-13 0 -19.5 -9t-14.5 -17h-41q8 21 22 42t34 35t44 14q26 0 50.5 -9.5t47 -19t42.5 -9.5
q11 0 20.5 7t16.5 17h38z" />
    <glyph glyph-name="uni1EBD" unicode="&#x1ebd;" horiz-adv-x="448" 
d="M291 499q30 0 58.5 -9t47 -30t18.5 -56q0 -59 -29.5 -98t-77.5 -61.5t-103.5 -31t-107.5 -7.5v47q33 -7 76 -1t84 24.5t68 47.5t27 68q0 29 -22.5 43t-49.5 14q-42 0 -74 -21.5t-53.5 -57t-32.5 -78t-11 -83.5q0 -84 37 -123t98 -39q28 0 60 7t66 22l22 -39
q-28 -19 -52.5 -30t-45.5 -15t-36.5 -5t-25.5 -1q-66 0 -107.5 30.5t-61 81.5t-19.5 111q0 51 15 102t45.5 93.5t77 68.5t109.5 26zM468 698q-6 -17 -18 -38t-29.5 -36t-39.5 -15q-29 0 -52.5 9.5t-47.5 19t-53 9.5q-13 0 -19.5 -8.5t-14.5 -16.5h-41q8 21 22.5 42t34 35
t43.5 14q26 0 50.5 -9.5t47 -19.5t42.5 -10q11 0 20.5 7.5t16.5 16.5h38z" />
    <glyph glyph-name="uni1EBE" unicode="&#x1ebe;" horiz-adv-x="496" 
d="M154 720h396l-8 -53h-324l-34 -273h252l-9 -52h-251l-39 -289h324l-7 -53h-391l87 653zM368 835l-94 -70h-57l124 139h75l91 -140h-59zM420 1027h87l-91 -99h-61z" />
    <glyph glyph-name="uni1EBF" unicode="&#x1ebf;" horiz-adv-x="448" 
d="M291 499q30 0 58.5 -9t47 -30t18.5 -56q0 -59 -29.5 -98t-77.5 -61.5t-103.5 -31t-107.5 -7.5v47q33 -7 76 -1t84 24.5t68 47.5t27 68q0 29 -22.5 43t-49.5 14q-42 0 -74 -21.5t-53.5 -57t-32.5 -78t-11 -83.5q0 -84 37 -123t98 -39q28 0 60 7t66 22l22 -39
q-28 -19 -52.5 -30t-45.5 -15t-36.5 -5t-25.5 -1q-66 0 -107.5 30.5t-61 81.5t-19.5 111q0 51 15 102t45.5 93.5t77 68.5t109.5 26zM313 671l-96 -90h-57l127 158h75l86 -160h-59zM365 883h100l-109 -105h-55z" />
    <glyph glyph-name="uni1EC0" unicode="&#x1ec0;" horiz-adv-x="496" 
d="M154 720h396l-8 -53h-324l-34 -273h252l-9 -52h-251l-39 -289h324l-7 -53h-391l87 653zM368 835l-98 -71h-59l129 140h75l86 -139h-57zM371 1027l37 -99h-61l-63 99h87z" />
    <glyph glyph-name="uni1EC1" unicode="&#x1ec1;" horiz-adv-x="448" 
d="M291 499q30 0 58.5 -9t47 -30t18.5 -56q0 -59 -29.5 -98t-77.5 -61.5t-103.5 -31t-107.5 -7.5v47q33 -7 76 -1t84 24.5t68 47.5t27 68q0 29 -22.5 43t-49.5 14q-42 0 -74 -21.5t-53.5 -57t-32.5 -78t-11 -83.5q0 -84 37 -123t98 -39q28 0 60 7t66 22l22 -39
q-28 -19 -52.5 -30t-45.5 -15t-36.5 -5t-25.5 -1q-66 0 -107.5 30.5t-61 81.5t-19.5 111q0 51 15 102t45.5 93.5t77 68.5t109.5 26zM313 671l-102 -92h-59l133 160h75l84 -158h-57zM324 883l34 -105h-55l-79 105h100z" />
    <glyph glyph-name="uni1EC2" unicode="&#x1ec2;" horiz-adv-x="496" 
d="M154 720h396l-8 -53h-324l-34 -273h252l-9 -52h-251l-39 -289h324l-7 -53h-391l87 653zM368 835l-95 -70h-57l125 139h75l90 -140h-59zM370 924l2 76q4 -1 9.5 -1.5t11.5 -0.5q24 0 37.5 12.5t13.5 34.5q0 12 -10 18t-25 6q-13 0 -27.5 -4.5t-27.5 -14.5l-14 33
q23 15 44.5 21.5t43.5 6.5q32 0 55 -15.5t23 -43.5q0 -42 -28.5 -63.5t-69.5 -24.5l-12 -40h-26z" />
    <glyph glyph-name="uni1EC3" unicode="&#x1ec3;" horiz-adv-x="448" 
d="M291 499q30 0 58.5 -9t47 -30t18.5 -56q0 -59 -29.5 -98t-77.5 -61.5t-103.5 -31t-107.5 -7.5v47q33 -7 76 -1t84 24.5t68 47.5t27 68q0 29 -22.5 43t-49.5 14q-42 0 -74 -21.5t-53.5 -57t-32.5 -78t-11 -83.5q0 -84 37 -123t98 -39q28 0 60 7t66 22l22 -39
q-28 -19 -52.5 -30t-45.5 -15t-36.5 -5t-25.5 -1q-66 0 -107.5 30.5t-61 81.5t-19.5 111q0 51 15 102t45.5 93.5t77 68.5t109.5 26zM314 671l-96 -90h-57l128 158h75l87 -160h-59zM318 769l2 76q10 -2 21 -2q23 0 37 11.5t14 34.5q0 13 -10.5 19t-24.5 6q-13 0 -27 -4.5
t-28 -14.5l-14 34q44 28 88 28q32 0 55 -15.5t23 -43.5q0 -43 -29.5 -64.5t-68.5 -23.5l-12 -41h-26z" />
    <glyph glyph-name="uni1EC4" unicode="&#x1ec4;" horiz-adv-x="496" 
d="M154 720h396l-8 -53h-324l-34 -273h252l-9 -52h-251l-39 -289h324l-7 -53h-391l87 653zM367 835l-94 -70h-57l125 139h75l90 -140h-59zM522 1009q-7 -32 -29.5 -61t-54.5 -29q-22 0 -35.5 6t-25 13.5t-25 13.5t-35.5 6q-13 0 -20.5 -9t-11.5 -17h-40q9 37 35 64t62 27
q26 0 42.5 -9.5t31.5 -19t35 -9.5q11 0 18.5 7t14.5 17h38z" />
    <glyph glyph-name="uni1EC5" unicode="&#x1ec5;" horiz-adv-x="448" 
d="M291 499q30 0 58.5 -9t47 -30t18.5 -56q0 -59 -29.5 -98t-77.5 -61.5t-103.5 -31t-107.5 -7.5v47q33 -7 76 -1t84 24.5t68 47.5t27 68q0 29 -22.5 43t-49.5 14q-42 0 -74 -21.5t-53.5 -57t-32.5 -78t-11 -83.5q0 -84 37 -123t98 -39q28 0 60 7t66 22l22 -39
q-28 -19 -52.5 -30t-45.5 -15t-36.5 -5t-25.5 -1q-66 0 -107.5 30.5t-61 81.5t-19.5 111q0 51 15 102t45.5 93.5t77 68.5t109.5 26zM314 671l-98 -90h-57l128 158h75l87 -160h-59zM478 848q-7 -31 -29.5 -60t-54.5 -29q-29 0 -45 9.5t-32.5 19t-45.5 9.5q-13 0 -20.5 -9
t-10.5 -16h-40q8 37 35 64t63 27q26 0 42 -9.5t30.5 -19.5t34.5 -10q12 0 20 7.5t15 16.5h38z" />
    <glyph glyph-name="uni1EC6" unicode="&#x1ec6;" horiz-adv-x="496" 
d="M154 720h396l-8 -53h-324l-34 -273h252l-9 -52h-251l-39 -289h324l-7 -53h-391l87 653zM367 835l-93 -70h-57l124 139h75l91 -140h-59zM302 -106q0 -25 -18 -43t-42 -18q-20 0 -32.5 13.5t-12.5 32.5q0 25 18.5 43t41.5 18q20 0 32.5 -13t12.5 -33z" />
    <glyph glyph-name="uni1EC7" unicode="&#x1ec7;" horiz-adv-x="448" 
d="M291 499q30 0 58.5 -9t47 -30t18.5 -56q0 -59 -29.5 -98t-77.5 -61.5t-103.5 -31t-107.5 -7.5v47q33 -7 76 -1t84 24.5t68 47.5t27 68q0 29 -22.5 43t-49.5 14q-42 0 -74 -21.5t-53.5 -57t-32.5 -78t-11 -83.5q0 -84 37 -123t98 -39q28 0 60 7t66 22l22 -39
q-28 -19 -52.5 -30t-45.5 -15t-36.5 -5t-25.5 -1q-66 0 -107.5 30.5t-61 81.5t-19.5 111q0 51 15 102t45.5 93.5t77 68.5t109.5 26zM314 671l-98 -90h-57l128 158h75l87 -160h-59zM260 -106q0 -25 -18 -43t-42 -18q-20 0 -32.5 13.5t-12.5 32.5q0 25 18.5 43t41.5 18
q20 0 32.5 -13t12.5 -33z" />
    <glyph glyph-name="uni1EC8" unicode="&#x1ec8;" horiz-adv-x="252" 
d="M158 720h75l-99 -720h-68l89 653zM180 756l2 84q5 -1 11.5 -1.5t12.5 -0.5q30 0 44 15t14 35q0 14 -11.5 20.5t-28.5 6.5q-15 0 -31 -4.5t-30 -14.5l-15 36q24 15 49 22.5t47 7.5q37 0 62.5 -17.5t25.5 -50.5q0 -41 -32 -65t-77 -28l-15 -45h-28z" />
    <glyph glyph-name="uni1EC9" unicode="&#x1ec9;" horiz-adv-x="226" 
d="M116 0h-69l57 428l2 58h69l-58 -426zM130 538l2 84q5 -1 11.5 -1.5t12.5 -0.5q29 0 43.5 14t14.5 34q0 14 -11.5 21.5t-28.5 7.5q-15 0 -31 -4.5t-30 -15.5l-15 37q24 15 49 22.5t47 7.5q37 0 62.5 -17.5t25.5 -50.5q0 -41 -32 -65.5t-77 -28.5l-15 -44h-28z" />
    <glyph glyph-name="uni1ECA" unicode="&#x1eca;" horiz-adv-x="252" 
d="M158 720h75l-99 -720h-68l89 653zM132 -106q0 -25 -18 -43t-42 -18q-20 0 -32.5 13.5t-12.5 32.5q0 25 18.5 43t41.5 18q20 0 32.5 -13t12.5 -33z" />
    <glyph glyph-name="uni1ECB" unicode="&#x1ecb;" horiz-adv-x="226" 
d="M216 657q0 -22 -17 -38t-40 -16q-19 0 -32 11.5t-13 29.5q0 20 17 38t40 18q20 0 32.5 -13t12.5 -30zM175 486l-58 -426l-1 -60h-69l57 428l2 58h69zM126 -106q0 -25 -18 -43t-42 -18q-20 0 -32.5 13.5t-12.5 32.5q0 25 18.5 43t41.5 18q20 0 32.5 -13t12.5 -33z" />
    <glyph glyph-name="uni1ECC" unicode="&#x1ecc;" horiz-adv-x="709" 
d="M306 -9q-67 0 -114 24t-76 65.5t-42.5 94.5t-13.5 111q0 77 21 155t64.5 143.5t109 105t155.5 39.5t144 -40.5t78 -107t24 -144.5q0 -81 -21.5 -160.5t-64.5 -144t-109 -103t-155 -38.5zM318 46q58 0 102 23.5t76 64t52 90.5t29.5 104t9.5 104q0 63 -17 118t-57.5 89.5
t-110.5 34.5q-58 0 -102 -24t-76 -64t-52.5 -90.5t-30.5 -104.5t-10 -104q0 -61 17.5 -116.5t58.5 -90t111 -34.5zM361 -106q0 -25 -18 -43t-42 -18q-20 0 -32.5 13.5t-12.5 32.5q0 25 18.5 43t41.5 18q20 0 32.5 -13t12.5 -33z" />
    <glyph glyph-name="uni1ECD" unicode="&#x1ecd;" horiz-adv-x="501" 
d="M218 -14q-60 0 -98.5 31t-57 81.5t-18.5 107.5q0 52 15 103.5t45 94.5t74.5 69t104.5 26t98.5 -31t57 -80.5t18.5 -107.5q0 -52 -15 -104t-45 -95t-75 -69t-104 -26zM222 38q43 0 75 20.5t53 55t31.5 76t10.5 82.5q0 46 -12 85.5t-37 64.5t-65 25q-43 0 -74.5 -20.5
t-52.5 -55t-31.5 -75.5t-10.5 -82q0 -45 12 -85.5t37 -65.5t64 -25zM253 -106q0 -25 -18 -43t-42 -18q-20 0 -32.5 13.5t-12.5 32.5q0 25 18.5 43t41.5 18q20 0 32.5 -13t12.5 -33z" />
    <glyph glyph-name="uni1ECE" unicode="&#x1ece;" horiz-adv-x="709" 
d="M306 -9q-67 0 -114 24t-76 65.5t-42.5 94.5t-13.5 111q0 77 21 155t64.5 143.5t109 105t155.5 39.5t144 -40.5t78 -107t24 -144.5q0 -81 -21.5 -160.5t-64.5 -144t-109 -103t-155 -38.5zM318 46q58 0 102 23.5t76 64t52 90.5t29.5 104t9.5 104q0 63 -17 118t-57.5 89.5
t-110.5 34.5q-58 0 -102 -24t-76 -64t-52.5 -90.5t-30.5 -104.5t-10 -104q0 -61 17.5 -116.5t58.5 -90t111 -34.5zM403 756l2 84q5 -1 11.5 -1.5t12.5 -0.5q30 0 44 15t14 35q0 14 -11.5 20.5t-28.5 6.5q-15 0 -31 -4.5t-30 -14.5l-15 36q24 15 49 22.5t47 7.5
q37 0 62.5 -17.5t25.5 -50.5q0 -41 -32 -65t-77 -28l-15 -45h-28z" />
    <glyph glyph-name="uni1ECF" unicode="&#x1ecf;" horiz-adv-x="501" 
d="M218 -14q-60 0 -98.5 31t-57 81.5t-18.5 107.5q0 52 15 103.5t45 94.5t74.5 69t104.5 26t98.5 -31t57 -80.5t18.5 -107.5q0 -52 -15 -104t-45 -95t-75 -69t-104 -26zM222 38q43 0 75 20.5t53 55t31.5 76t10.5 82.5q0 46 -12 85.5t-37 64.5t-65 25q-43 0 -74.5 -20.5
t-52.5 -55t-31.5 -75.5t-10.5 -82q0 -45 12 -85.5t37 -65.5t64 -25zM274 538l2 84q5 -1 11.5 -1.5t12.5 -0.5q29 0 43.5 14t14.5 34q0 14 -11.5 21.5t-28.5 7.5q-15 0 -31 -4.5t-30 -15.5l-15 37q24 15 49 22.5t47 7.5q37 0 62.5 -17.5t25.5 -50.5q0 -41 -32 -65.5
t-77 -28.5l-15 -44h-28z" />
    <glyph glyph-name="uni1ED0" unicode="&#x1ed0;" horiz-adv-x="709" 
d="M306 -9q-67 0 -114 24t-76 65.5t-42.5 94.5t-13.5 111q0 77 21 155t64.5 143.5t109 105t155.5 39.5t144 -40.5t78 -107t24 -144.5q0 -81 -21.5 -160.5t-64.5 -144t-109 -103t-155 -38.5zM318 46q58 0 102 23.5t76 64t52 90.5t29.5 104t9.5 104q0 63 -17 118t-57.5 89.5
t-110.5 34.5q-58 0 -102 -24t-76 -64t-52.5 -90.5t-30.5 -104.5t-10 -104q0 -61 17.5 -116.5t58.5 -90t111 -34.5zM429 835l-94 -70h-57l124 139h75l91 -140h-59zM481 1027h87l-91 -99h-61z" />
    <glyph glyph-name="uni1ED1" unicode="&#x1ed1;" horiz-adv-x="501" 
d="M218 -14q-60 0 -98.5 31t-57 81.5t-18.5 107.5q0 52 15 103.5t45 94.5t74.5 69t104.5 26t98.5 -31t57 -80.5t18.5 -107.5q0 -52 -15 -104t-45 -95t-75 -69t-104 -26zM222 38q43 0 75 20.5t53 55t31.5 76t10.5 82.5q0 46 -12 85.5t-37 64.5t-65 25q-43 0 -74.5 -20.5
t-52.5 -55t-31.5 -75.5t-10.5 -82q0 -45 12 -85.5t37 -65.5t64 -25zM308 671l-96 -90h-57l127 158h75l86 -160h-59zM360 883h100l-109 -105h-55z" />
    <glyph glyph-name="uni1ED2" unicode="&#x1ed2;" horiz-adv-x="709" 
d="M306 -9q-67 0 -114 24t-76 65.5t-42.5 94.5t-13.5 111q0 77 21 155t64.5 143.5t109 105t155.5 39.5t144 -40.5t78 -107t24 -144.5q0 -81 -21.5 -160.5t-64.5 -144t-109 -103t-155 -38.5zM318 46q58 0 102 23.5t76 64t52 90.5t29.5 104t9.5 104q0 63 -17 118t-57.5 89.5
t-110.5 34.5q-58 0 -102 -24t-76 -64t-52.5 -90.5t-30.5 -104.5t-10 -104q0 -61 17.5 -116.5t58.5 -90t111 -34.5zM429 835l-98 -71h-59l129 140h75l86 -139h-57zM432 1027l37 -99h-61l-63 99h87z" />
    <glyph glyph-name="uni1ED3" unicode="&#x1ed3;" horiz-adv-x="501" 
d="M218 -14q-60 0 -98.5 31t-57 81.5t-18.5 107.5q0 52 15 103.5t45 94.5t74.5 69t104.5 26t98.5 -31t57 -80.5t18.5 -107.5q0 -52 -15 -104t-45 -95t-75 -69t-104 -26zM222 38q43 0 75 20.5t53 55t31.5 76t10.5 82.5q0 46 -12 85.5t-37 64.5t-65 25q-43 0 -74.5 -20.5
t-52.5 -55t-31.5 -75.5t-10.5 -82q0 -45 12 -85.5t37 -65.5t64 -25zM308 671l-102 -92h-59l133 160h75l84 -158h-57zM319 883l34 -105h-55l-79 105h100z" />
    <glyph glyph-name="uni1ED4" unicode="&#x1ed4;" horiz-adv-x="709" 
d="M306 -9q-67 0 -114 24t-76 65.5t-42.5 94.5t-13.5 111q0 77 21 155t64.5 143.5t109 105t155.5 39.5t144 -40.5t78 -107t24 -144.5q0 -81 -21.5 -160.5t-64.5 -144t-109 -103t-155 -38.5zM318 46q58 0 102 23.5t76 64t52 90.5t29.5 104t9.5 104q0 63 -17 118t-57.5 89.5
t-110.5 34.5q-58 0 -102 -24t-76 -64t-52.5 -90.5t-30.5 -104.5t-10 -104q0 -61 17.5 -116.5t58.5 -90t111 -34.5zM429 835l-95 -70h-57l125 139h75l90 -140h-59zM431 924l2 76q4 -1 9.5 -1.5t11.5 -0.5q24 0 37.5 12.5t13.5 34.5q0 12 -10 18t-25 6q-13 0 -27.5 -4.5
t-27.5 -14.5l-14 33q23 15 44.5 21.5t43.5 6.5q32 0 55 -15.5t23 -43.5q0 -42 -28.5 -63.5t-69.5 -24.5l-12 -40h-26z" />
    <glyph glyph-name="uni1ED5" unicode="&#x1ed5;" horiz-adv-x="501" 
d="M218 -14q-60 0 -98.5 31t-57 81.5t-18.5 107.5q0 52 15 103.5t45 94.5t74.5 69t104.5 26t98.5 -31t57 -80.5t18.5 -107.5q0 -52 -15 -104t-45 -95t-75 -69t-104 -26zM222 38q43 0 75 20.5t53 55t31.5 76t10.5 82.5q0 46 -12 85.5t-37 64.5t-65 25q-43 0 -74.5 -20.5
t-52.5 -55t-31.5 -75.5t-10.5 -82q0 -45 12 -85.5t37 -65.5t64 -25zM309 671l-96 -90h-57l128 158h75l87 -160h-59zM313 769l2 76q10 -2 21 -2q23 0 37 11.5t14 34.5q0 13 -10.5 19t-24.5 6q-13 0 -27 -4.5t-28 -14.5l-14 34q44 28 88 28q32 0 55 -15.5t23 -43.5
q0 -43 -29.5 -64.5t-68.5 -23.5l-12 -41h-26z" />
    <glyph glyph-name="uni1ED6" unicode="&#x1ed6;" horiz-adv-x="709" 
d="M306 -9q-67 0 -114 24t-76 65.5t-42.5 94.5t-13.5 111q0 77 21 155t64.5 143.5t109 105t155.5 39.5t144 -40.5t78 -107t24 -144.5q0 -81 -21.5 -160.5t-64.5 -144t-109 -103t-155 -38.5zM318 46q58 0 102 23.5t76 64t52 90.5t29.5 104t9.5 104q0 63 -17 118t-57.5 89.5
t-110.5 34.5q-58 0 -102 -24t-76 -64t-52.5 -90.5t-30.5 -104.5t-10 -104q0 -61 17.5 -116.5t58.5 -90t111 -34.5zM428 835l-94 -70h-57l125 139h75l90 -140h-59zM583 1009q-7 -32 -29.5 -61t-54.5 -29q-22 0 -35.5 6t-25 13.5t-25 13.5t-35.5 6q-13 0 -20.5 -9t-11.5 -17
h-40q9 37 35 64t62 27q26 0 42.5 -9.5t31.5 -19t35 -9.5q11 0 18.5 7t14.5 17h38z" />
    <glyph glyph-name="uni1ED7" unicode="&#x1ed7;" horiz-adv-x="501" 
d="M218 -14q-60 0 -98.5 31t-57 81.5t-18.5 107.5q0 52 15 103.5t45 94.5t74.5 69t104.5 26t98.5 -31t57 -80.5t18.5 -107.5q0 -52 -15 -104t-45 -95t-75 -69t-104 -26zM222 38q43 0 75 20.5t53 55t31.5 76t10.5 82.5q0 46 -12 85.5t-37 64.5t-65 25q-43 0 -74.5 -20.5
t-52.5 -55t-31.5 -75.5t-10.5 -82q0 -45 12 -85.5t37 -65.5t64 -25zM309 671l-98 -90h-57l128 158h75l87 -160h-59zM473 848q-7 -31 -29.5 -60t-54.5 -29q-29 0 -45 9.5t-32.5 19t-45.5 9.5q-13 0 -20.5 -9t-10.5 -16h-40q8 37 35 64t63 27q26 0 42 -9.5t30.5 -19.5
t34.5 -10q12 0 20 7.5t15 16.5h38z" />
    <glyph glyph-name="uni1ED8" unicode="&#x1ed8;" horiz-adv-x="709" 
d="M306 -9q-67 0 -114 24t-76 65.5t-42.5 94.5t-13.5 111q0 77 21 155t64.5 143.5t109 105t155.5 39.5t144 -40.5t78 -107t24 -144.5q0 -81 -21.5 -160.5t-64.5 -144t-109 -103t-155 -38.5zM318 46q58 0 102 23.5t76 64t52 90.5t29.5 104t9.5 104q0 63 -17 118t-57.5 89.5
t-110.5 34.5q-58 0 -102 -24t-76 -64t-52.5 -90.5t-30.5 -104.5t-10 -104q0 -61 17.5 -116.5t58.5 -90t111 -34.5zM428 835l-93 -70h-57l124 139h75l91 -140h-59zM361 -106q0 -25 -18 -43t-42 -18q-20 0 -32.5 13.5t-12.5 32.5q0 25 18.5 43t41.5 18q20 0 32.5 -13t12.5 -33
z" />
    <glyph glyph-name="uni1ED9" unicode="&#x1ed9;" horiz-adv-x="501" 
d="M218 -14q-60 0 -98.5 31t-57 81.5t-18.5 107.5q0 52 15 103.5t45 94.5t74.5 69t104.5 26t98.5 -31t57 -80.5t18.5 -107.5q0 -52 -15 -104t-45 -95t-75 -69t-104 -26zM222 38q43 0 75 20.5t53 55t31.5 76t10.5 82.5q0 46 -12 85.5t-37 64.5t-65 25q-43 0 -74.5 -20.5
t-52.5 -55t-31.5 -75.5t-10.5 -82q0 -45 12 -85.5t37 -65.5t64 -25zM309 671l-98 -90h-57l128 158h75l87 -160h-59zM253 -106q0 -25 -18 -43t-42 -18q-20 0 -32.5 13.5t-12.5 32.5q0 25 18.5 43t41.5 18q20 0 32.5 -13t12.5 -33z" />
    <glyph glyph-name="uni1EDA" unicode="&#x1eda;" horiz-adv-x="709" 
d="M306 -9q-67 0 -114 24t-76 65.5t-42.5 94.5t-13.5 111q0 77 21 155t64.5 143.5t109 105t155.5 39.5t144 -40.5t78 -107t24 -144.5q0 -81 -21.5 -160.5t-64.5 -144t-109 -103t-155 -38.5zM318 46q58 0 102 23.5t76 64t52 90.5t29.5 104t9.5 104q0 63 -17 118t-57.5 89.5
t-110.5 34.5q-58 0 -102 -24t-76 -64t-52.5 -90.5t-30.5 -104.5t-10 -104q0 -61 17.5 -116.5t58.5 -90t111 -34.5zM504 714q34 -15 63 -3.5t47 42.5t19 73h90q-3 -37 -21 -73.5t-48.5 -63t-70 -37t-86.5 2.5zM489 895h109l-151 -124h-64z" />
    <glyph glyph-name="uni1EDB" unicode="&#x1edb;" horiz-adv-x="501" 
d="M218 -14q-60 0 -98.5 31t-57 81.5t-18.5 107.5q0 52 15 103.5t45 94.5t74.5 69t104.5 26t98.5 -31t57 -80.5t18.5 -107.5q0 -52 -15 -104t-45 -95t-75 -69t-104 -26zM222 38q43 0 75 20.5t53 55t31.5 76t10.5 82.5q0 46 -12 85.5t-37 64.5t-65 25q-43 0 -74.5 -20.5
t-52.5 -55t-31.5 -75.5t-10.5 -82q0 -45 12 -85.5t37 -65.5t64 -25zM362 482q35 -15 64.5 -5t47.5 39.5t19 71.5h90q-4 -37 -23.5 -72t-50 -60t-70 -34t-84.5 4zM369 732h109l-155 -145h-64z" />
    <glyph glyph-name="uni1EDC" unicode="&#x1edc;" horiz-adv-x="709" 
d="M306 -9q-67 0 -114 24t-76 65.5t-42.5 94.5t-13.5 111q0 77 21 155t64.5 143.5t109 105t155.5 39.5t144 -40.5t78 -107t24 -144.5q0 -81 -21.5 -160.5t-64.5 -144t-109 -103t-155 -38.5zM318 46q58 0 102 23.5t76 64t52 90.5t29.5 104t9.5 104q0 63 -17 118t-57.5 89.5
t-110.5 34.5q-58 0 -102 -24t-76 -64t-52.5 -90.5t-30.5 -104.5t-10 -104q0 -61 17.5 -116.5t58.5 -90t111 -34.5zM504 714q34 -15 63 -3.5t47 42.5t19 73h90q-3 -37 -21 -73.5t-48.5 -63t-70 -37t-86.5 2.5zM387 895l72 -124h-64l-117 124h109z" />
    <glyph glyph-name="uni1EDD" unicode="&#x1edd;" horiz-adv-x="501" 
d="M218 -14q-60 0 -98.5 31t-57 81.5t-18.5 107.5q0 52 15 103.5t45 94.5t74.5 69t104.5 26t98.5 -31t57 -80.5t18.5 -107.5q0 -52 -15 -104t-45 -95t-75 -69t-104 -26zM222 38q43 0 75 20.5t53 55t31.5 76t10.5 82.5q0 46 -12 85.5t-37 64.5t-65 25q-43 0 -74.5 -20.5
t-52.5 -55t-31.5 -75.5t-10.5 -82q0 -45 12 -85.5t37 -65.5t64 -25zM362 482q35 -15 64.5 -5t47.5 39.5t19 71.5h90q-4 -37 -23.5 -72t-50 -60t-70 -34t-84.5 4zM266 732l68 -145h-65l-113 145h110z" />
    <glyph glyph-name="uni1EDE" unicode="&#x1ede;" horiz-adv-x="709" 
d="M306 -9q-67 0 -114 24t-76 65.5t-42.5 94.5t-13.5 111q0 77 21 155t64.5 143.5t109 105t155.5 39.5t144 -40.5t78 -107t24 -144.5q0 -81 -21.5 -160.5t-64.5 -144t-109 -103t-155 -38.5zM318 46q58 0 102 23.5t76 64t52 90.5t29.5 104t9.5 104q0 63 -17 118t-57.5 89.5
t-110.5 34.5q-58 0 -102 -24t-76 -64t-52.5 -90.5t-30.5 -104.5t-10 -104q0 -61 17.5 -116.5t58.5 -90t111 -34.5zM504 714q34 -15 63 -3.5t47 42.5t19 73h90q-3 -37 -21 -73.5t-48.5 -63t-70 -37t-86.5 2.5zM403 756l2 84q5 -1 11.5 -1.5t12.5 -0.5q30 0 44 15t14 35
q0 14 -11.5 20.5t-28.5 6.5q-15 0 -31 -4.5t-30 -14.5l-15 36q24 15 49 22.5t47 7.5q37 0 62.5 -17.5t25.5 -50.5q0 -41 -32 -65t-77 -28l-15 -45h-28z" />
    <glyph glyph-name="uni1EDF" unicode="&#x1edf;" horiz-adv-x="501" 
d="M218 -14q-60 0 -98.5 31t-57 81.5t-18.5 107.5q0 52 15 103.5t45 94.5t74.5 69t104.5 26t98.5 -31t57 -80.5t18.5 -107.5q0 -52 -15 -104t-45 -95t-75 -69t-104 -26zM222 38q43 0 75 20.5t53 55t31.5 76t10.5 82.5q0 46 -12 85.5t-37 64.5t-65 25q-43 0 -74.5 -20.5
t-52.5 -55t-31.5 -75.5t-10.5 -82q0 -45 12 -85.5t37 -65.5t64 -25zM362 482q35 -15 64.5 -5t47.5 39.5t19 71.5h90q-4 -37 -23.5 -72t-50 -60t-70 -34t-84.5 4zM274 538l2 84q5 -1 11.5 -1.5t12.5 -0.5q29 0 43.5 14t14.5 34q0 14 -11.5 21.5t-28.5 7.5q-15 0 -31 -4.5
t-30 -15.5l-15 37q24 15 49 22.5t47 7.5q37 0 62.5 -17.5t25.5 -50.5q0 -41 -32 -65.5t-77 -28.5l-15 -44h-28z" />
    </font>
</defs>
</svg>
