<?xml version="1.0" standalone="no"?>
<!DOCTYPE svg PUBLIC "-//W3C//DTD SVG 1.1//EN" "http://www.w3.org/Graphics/SVG/1.1/DTD/svg11.dtd" >
<svg xmlns="http://www.w3.org/2000/svg" xmlns:xlink="http://www.w3.org/1999/xlink" version="1.1">
<metadata>
Created by FontForge 20170731 at Wed Sep 15 23:24:54 2021
 By Aleksey,,,
Copyright 2019 The Rosario Project Authors (https://github.com/Omnibus-Type/Rosario)
</metadata>
<defs>
<font id="Rosario-BoldItalic" horiz-adv-x="0" >
  <font-face 
    font-family="Rosario"
    font-weight="700"
    font-style="italic"
    font-stretch="normal"
    units-per-em="1000"
    panose-1="0 0 0 0 0 0 0 0 0 0"
    ascent="800"
    descent="-200"
    x-height="497"
    cap-height="732"
    bbox="-638 -292 1366 1167"
    underline-thickness="62"
    underline-position="-293"
    slope="-8.05"
    unicode-range="U+000D-FEFF"
  />
<missing-glyph horiz-adv-x="642" 
d="M649 728l-102 -728h-521l102 728h521zM204 676l140 -264l215 264h-355zM306 365l-140 264l-74 -530zM583 629l-214 -264l140 -266zM331 318l-215 -266h355z" />
    <glyph glyph-name="fi" unicode="fi" horiz-adv-x="530" 
d="M-104 -149q67 -18 98.5 13t41.5 101l61 449h-79l10 83q17 0 34.5 2t32.5 12t22 34q13 43 28.5 84t39.5 74.5t63.5 53t101.5 19.5q17 0 43 -6t53 -22t48.5 -44.5t30.5 -72.5l-112 -31q0 21 -8.5 42.5t-23.5 36.5t-37 15q-42 0 -67 -30t-37 -75t-18 -92h287l-59 -442l2 -55
h-124l56 414h-173l-62 -461q-16 -117 -90 -160t-179 -9z" />
    <glyph glyph-name="fl" unicode="fl" horiz-adv-x="529" 
d="M-104 -149q67 -19 98.5 13t41.5 101l61 449h-79l10 83q17 0 34.5 2t32.5 12t22 34q13 43 28.5 84t39.5 74.5t64 53t102 19.5q15 0 34 -4.5t37.5 -11.5t29.5 -15l97 24l-96 -715l3 -54h-127q15 114 27 201.5t20.5 153t15 112t10.5 77.5t6 49l3 27t1 13q0 29 -14.5 45
t-43.5 16q-37 0 -61 -20t-38 -50.5t-21 -64.5t-12 -62h118l-11 -83h-118l-62 -461q-16 -117 -89 -159.5t-180 -9.5z" />
    <glyph glyph-name="f_f" unicode="ff" horiz-adv-x="598" 
d="M-104 -149q47 -12 75.5 -0.5t43.5 41.5t21 73l61 449h-79l10 83q17 0 36 2t33.5 12t19.5 34q9 43 21.5 84t34 74.5t56.5 53t88 19.5q37 0 71.5 -11.5t62.5 -31.5l-49 -79q-22 20 -40.5 30t-43.5 10q-28 0 -45 -20.5t-27 -52t-15 -65t-9 -59.5h118l-11 -83h-118l-62 -461
q-16 -118 -89 -160t-180 -9zM195 -149q47 -12 75.5 -0.5t43.5 41.5t21 73l61 449h-79l10 83q17 0 34.5 2t32.5 12t22 34q13 43 28 84t39 74.5t63 53t100 19.5q35 0 75.5 -11.5t68.5 -31.5l-49 -79q-23 21 -44.5 30.5t-53.5 9.5q-33 0 -54.5 -20.5t-35 -52t-21 -65
t-11.5 -59.5h118l-11 -83h-118l-62 -461q-16 -118 -89 -160t-180 -9z" />
    <glyph glyph-name="f_f_i" unicode="ffi" horiz-adv-x="829" 
d="M-104 -149q47 -12 75.5 -0.5t43.5 41.5t21 73l61 449h-79l10 83q17 0 36 2t33.5 12t19.5 34q9 43 21.5 84t34 74.5t56.5 53t88 19.5q37 0 71.5 -11.5t62.5 -31.5l-49 -79q-22 20 -40.5 30t-43.5 10q-28 0 -45 -20.5t-27 -52t-15 -65t-9 -59.5h118l-11 -83h-118l-62 -461
q-16 -118 -89 -160t-180 -9zM195 -149q67 -18 98.5 13t41.5 101l61 449h-79l10 83q17 0 34.5 2t32.5 12t22 34q13 43 28.5 84t39.5 74.5t63.5 53t101.5 19.5q17 0 43 -6t53 -22t48.5 -44.5t30.5 -72.5l-112 -31q0 21 -8.5 42.5t-23.5 36.5t-37 15q-42 0 -67 -30t-37 -75
t-18 -92h287l-59 -442l2 -55h-124l56 414h-173l-62 -461q-16 -117 -90 -160t-179 -9z" />
    <glyph glyph-name="f_f_l" unicode="ffl" horiz-adv-x="828" 
d="M-104 -149q47 -12 75.5 -0.5t43.5 41.5t21 73l61 449h-79l10 83q17 0 36 2t33.5 12t19.5 34q9 43 21.5 84t34 74.5t56.5 53t88 19.5q37 0 71.5 -11.5t62.5 -31.5l-49 -79q-22 20 -40.5 30t-43.5 10q-28 0 -45 -20.5t-27 -52t-15 -65t-9 -59.5h118l-11 -83h-118l-62 -461
q-16 -118 -89 -160t-180 -9zM195 -149q67 -19 98.5 13t41.5 101l61 449h-79l10 83q17 0 34.5 2t32.5 12t22 34q13 43 28.5 84t39.5 74.5t64 53t102 19.5q15 0 34 -4.5t37.5 -11.5t29.5 -15l97 24l-96 -715l3 -54h-127q15 114 27 201.5t20.5 153t15 112t10.5 77.5t6 49l3 27
t1 13q0 29 -14.5 45t-43.5 16q-37 0 -61 -20t-38 -50.5t-21 -64.5t-12 -62h118l-11 -83h-118l-62 -461q-11 -78 -48 -123t-93.5 -56.5t-127.5 10.5z" />
    <glyph glyph-name=".notdef" horiz-adv-x="642" 
d="M649 728l-102 -728h-521l102 728h521zM204 676l140 -264l215 264h-355zM306 365l-140 264l-74 -530zM583 629l-214 -264l140 -266zM331 318l-215 -266h355z" />
    <glyph glyph-name=".null" 
 />
    <glyph glyph-name="nonmarkingreturn" horiz-adv-x="333" 
 />
    <glyph glyph-name="NULL" 
 />
    <glyph glyph-name="NULL" 
 />
    <glyph glyph-name="CR" unicode="&#xd;" horiz-adv-x="234" 
 />
    <glyph glyph-name="space" unicode=" " horiz-adv-x="234" 
 />
    <glyph glyph-name="exclam" unicode="!" horiz-adv-x="246" 
d="M120 732h148l-101 -513h-90zM176 73q0 -34 -26 -59.5t-60 -25.5q-28 0 -46.5 18.5t-18.5 45.5q0 22 12.5 41t32.5 31t41 12q28 0 46.5 -18t18.5 -45z" />
    <glyph glyph-name="quotedbl" unicode="&#x22;" horiz-adv-x="300" 
d="M94 449h-21l-21 110l24 173h94l-24 -173zM241 449h-22l-20 110l24 173h94l-24 -173z" />
    <glyph glyph-name="numbersign" unicode="#" horiz-adv-x="640" 
d="M450 297h106v-89h-118l-28 -208h-89l28 208h-94l-28 -208h-89l28 208h-106v89h118l18 128h-110v89h122l29 218h89l-29 -218h94l29 218h89l-29 -218h102v-89h-114zM267 297h94l18 128h-94z" />
    <glyph glyph-name="dollar" unicode="$" horiz-adv-x="536" 
d="M367 706q26 0 59.5 -7.5t65.5 -21t51 -31.5l-59 -92q-15 17 -40.5 29.5t-52.5 19.5t-50 7q-28 0 -53 -11.5t-40.5 -33.5t-15.5 -53q0 -27 19 -45.5t49 -34t63 -31.5t63 -37t49 -50.5t19 -73.5q0 -77 -38 -134t-101 -87.5t-138 -30.5q-56 0 -114 14.5t-105 46.5l63 108
q20 -22 45 -38.5t53.5 -25.5t58.5 -9q35 0 65 15t49 42t19 63q0 28 -19 47.5t-49 35.5t-63.5 32t-63.5 36.5t-49 49.5t-19 71q0 81 39 132t102.5 74.5t137.5 23.5zM261 43l-40 -171h-92l68 171h64zM307 674l36 160h94l-62 -160h-68z" />
    <glyph glyph-name="percent" unicode="%" horiz-adv-x="988" 
d="M697 732h94l-475 -732h-93zM303 732q51 0 84 -20t48.5 -56t15.5 -84q0 -71 -26 -131.5t-74 -96.5t-115 -36q-50 0 -83.5 22t-49.5 60t-16 86q0 71 26.5 129t75 92.5t114.5 34.5zM289 658q-36 0 -60 -28t-36 -70.5t-12 -87.5q0 -35 14 -62.5t55 -27.5q38 0 61 26.5
t34 69.5t11 90q0 35 -13.5 62.5t-53.5 27.5zM786 414q51 0 84 -20.5t49 -57t16 -84.5q0 -69 -26.5 -129t-74.5 -96.5t-115 -36.5q-50 0 -83 21.5t-49 59t-16 85.5q0 72 26 130.5t74 93t115 34.5zM772 340q-37 0 -60.5 -28t-35 -71t-11.5 -89q0 -35 14 -61.5t54 -26.5
q38 0 61.5 26.5t34 68.5t10.5 89q0 35 -13 63.5t-54 28.5zM303 732h400l-10 -74h-404z" />
    <glyph glyph-name="ampersand" unicode="&#x26;" horiz-adv-x="659" 
d="M231 424l11 -74q-34 -12 -60 -34.5t-41 -52t-15 -62.5q0 -40 16.5 -69.5t46 -46t66.5 -16.5q57 0 99.5 22.5t66 59t23.5 77.5q0 29 -13 59t-41 56l82 46q37 -30 53.5 -66.5t16.5 -75.5q0 -47 -23 -92.5t-64.5 -82.5t-99 -59t-126.5 -22t-120.5 22t-79.5 63t-28 96
q0 53 29 102t81 88.5t120 61.5zM392 746q41 0 83.5 -15.5t84.5 -46.5l-70 -81q-54 62 -102 62q-27 0 -46.5 -21t-30.5 -58.5t-11 -89.5q0 -80 13.5 -150t41 -124t67.5 -88q36 -31 67.5 -45t65.5 -14q17 0 34.5 3t36.5 8l14 -82q-29 -6 -56 -9.5t-53 -3.5q-35 0 -67.5 7
t-64 22.5t-64.5 40.5q-50 39 -85.5 101t-54 140.5t-18.5 166.5q0 80 27.5 142.5t76 98.5t111.5 36zM401 431h235l-14 -88h-232z" />
    <glyph glyph-name="quotesingle" unicode="'" horiz-adv-x="157" 
d="M146 559l-52 -110h-21l-21 110l24 173h94z" />
    <glyph glyph-name="parenleft" unicode="(" horiz-adv-x="323" 
d="M379 727q-107 -115 -164.5 -241t-57.5 -287q0 -94 28 -173t80 -156l-93 -16q-58 81 -92.5 174t-34.5 194t32.5 193.5t88 175t124.5 152.5z" />
    <glyph glyph-name="parenright" unicode=")" horiz-adv-x="328" 
d="M313 375q0 -101 -32.5 -194t-88 -175t-124.5 -152l-89 16q107 115 164.5 241t57.5 286q0 94 -28 173t-79 157l92 16q59 -81 93 -174t34 -194z" />
    <glyph glyph-name="asterisk" unicode="*" horiz-adv-x="490" 
d="M246 741h111l-46 -156h-58zM311 585l145 79l25 -108l-160 -28zM124 659l129 -74l-25 -54l-149 21zM228 531l42 -36l-90 -139l-79 63zM270 495l51 33l99 -105l-99 -71z" />
    <glyph glyph-name="plus" unicode="+" horiz-adv-x="642" 
d="M325 0h-88l29 204h-205l12 88h205l29 205h88l-29 -204h205l-12 -88h-205z" />
    <glyph glyph-name="comma" unicode="," horiz-adv-x="235" 
d="M181 62q0 -40 -22.5 -77.5t-55.5 -67.5t-65 -51l-33 41q9 8 22.5 21.5t23.5 28.5t10 27q0 10 -9 18.5t-18 21.5t-9 35q0 35 24 57.5t55 22.5q35 0 56 -22.5t21 -54.5z" />
    <glyph glyph-name="hyphen" unicode="-" horiz-adv-x="313" 
d="M43 210l13 95h221l-13 -95h-221z" />
    <glyph glyph-name="period" unicode="." horiz-adv-x="215" 
d="M158 76q0 -35 -27.5 -61.5t-62.5 -26.5q-28 0 -47.5 19t-19.5 47q0 24 13 44.5t33.5 32.5t42.5 12q29 0 48.5 -19t19.5 -48z" />
    <glyph glyph-name="slash" unicode="/" horiz-adv-x="293" 
d="M-18 0l269 732h94l-270 -732h-93z" />
    <glyph glyph-name="zero" unicode="0" horiz-adv-x="579" 
d="M324 510q66 0 113.5 -26.5t73.5 -73.5t26 -109q0 -57 -16.5 -112.5t-51 -101t-88 -72.5t-126.5 -27q-64 0 -112 27t-74.5 74.5t-26.5 107.5q0 71 21 128.5t59.5 99t90 63.5t111.5 22zM313 429q-46 0 -76 -23.5t-47 -60.5t-24 -78.5t-7 -77.5q0 -49 23 -84.5t84 -35.5
q45 0 74.5 22t47 57t25 76t7.5 79q0 34 -10 62.5t-33 46t-64 17.5z" />
    <glyph glyph-name="one" unicode="1" horiz-adv-x="391" 
d="M303 498l-52 -399h99l-13 -99h-317l13 99h103l36 279l-106 -29l-12 64l175 85h74z" />
    <glyph glyph-name="two" unicode="2" horiz-adv-x="467" 
d="M285 512q64 0 108 -27.5t44 -87.5q0 -46 -21.5 -89t-57.5 -81t-78.5 -70t-84.5 -58h228l-35 -99h-400l11 77q54 29 107.5 65t97.5 76t70.5 79.5t26.5 75.5q0 24 -14 34.5t-37 10.5q-34 0 -76.5 -18.5t-71.5 -44.5l-49 82q52 36 114 55.5t118 19.5z" />
    <glyph glyph-name="three" unicode="3" horiz-adv-x="410" 
d="M267 512q59 0 94 -26.5t35 -75.5q0 -44 -26 -85t-67 -74.5t-86 -55.5q34 0 67.5 -12t55.5 -37.5t22 -67.5q0 -54 -26 -98t-71.5 -77.5t-105 -55.5t-127 -33.5t-136.5 -11.5l3 59q63 4 122 15.5t106.5 34.5t75 61t27.5 95q0 36 -24.5 53.5t-59.5 17.5q-14 0 -30 -3t-32 -9
l-22 58q29 12 64 32.5t67 46.5t52.5 55t20.5 58q0 20 -9 31.5t-30 11.5q-29 0 -69.5 -18t-68.5 -46l-49 82q54 38 114.5 56.5t112.5 18.5z" />
    <glyph glyph-name="four" unicode="4" horiz-adv-x="497" 
d="M302 498h131l-56 -399h107l-42 -100h-79l-26 -183h-125l26 183h-272l8 58zM287 349l-184 -250h149z" />
    <glyph glyph-name="five" unicode="5" horiz-adv-x="409" 
d="M165 498h287l-52 -121h-204l-45 -77q78 -28 127 -73t49 -113q0 -66 -33.5 -121.5t-90 -97t-125 -68t-139.5 -34.5l-8 57q70 17 129.5 51t95.5 83.5t36 112.5q0 59 -46.5 98t-113.5 60z" />
    <glyph glyph-name="six" unicode="6" horiz-adv-x="553" 
d="M535 730l19 -65q-83 -36 -154.5 -87t-125.5 -112.5t-84.5 -131t-30.5 -144.5q0 -40 11.5 -66.5t32 -39.5t46.5 -13q42 0 72.5 25.5t47 63.5t16.5 76q0 40 -22 70t-72 30q-26 0 -57 -10t-64 -30l27 84q39 21 77 31t72 10q54 0 93 -20t60.5 -55.5t21.5 -80.5
q0 -57 -22.5 -107t-62.5 -88t-92 -60t-111 -22q-56 0 -103 22t-74.5 67t-27.5 115q0 73 28 143t77.5 132.5t114 114.5t138 90t149.5 58z" />
    <glyph glyph-name="seven" unicode="7" horiz-adv-x="451" 
d="M72 497h402l-9 -63l-372 -623h-141l387 575h-314z" />
    <glyph glyph-name="eight" unicode="8" horiz-adv-x="490" 
d="M320 732q43 0 80 -14.5t60 -43.5t23 -73q0 -54 -37 -109.5t-112 -101.5l-52 56q41 22 65.5 61.5t24.5 80.5q0 33 -16 49t-43 16q-26 0 -46.5 -15t-32 -39t-11.5 -52q0 -40 27.5 -65.5t62.5 -53.5q33 -26 65.5 -54.5t54.5 -65.5t22 -90q0 -71 -34 -122.5t-91 -79.5
t-126 -28q-50 0 -93 18t-69.5 53t-26.5 87q0 40 18 80.5t56 78.5t98 68l52 -59q-58 -29 -85.5 -73t-27.5 -88q0 -43 23 -64t57 -21t59.5 18t40.5 46t15 59q0 32 -18.5 56.5t-47.5 46.5t-59 46q-27 23 -50.5 49t-38.5 58.5t-15 72.5q0 54 20 94t53.5 66t74 39t80.5 13z" />
    <glyph glyph-name="nine" unicode="9" horiz-adv-x="552" 
d="M320 511q57 0 103.5 -22t74 -67t27.5 -115q0 -73 -28 -143t-77.5 -132t-114 -112t-137.5 -84t-148 -47l-19 65q83 30 154.5 77t125 107t83.5 129.5t30 143.5q0 40 -11.5 65.5t-31.5 38.5t-47 13q-42 0 -73 -25.5t-47.5 -64t-16.5 -76.5q0 -40 23 -69.5t72 -29.5
q26 0 57 10t63 30l-26 -84q-39 -21 -76.5 -31t-72.5 -10q-60 0 -98.5 22t-57 59t-18.5 80q0 56 22.5 105t62.5 86.5t92 59t110 21.5z" />
    <glyph glyph-name="colon" unicode=":" horiz-adv-x="247" 
d="M217 354q-4 -32 -30 -55t-58 -23t-51.5 23t-15.5 55q5 32 31 54.5t57 22.5q32 0 52 -22.5t15 -54.5zM177 65q-4 -31 -30 -54t-58 -23t-51.5 23t-15.5 54q5 32 31 55t57 23q32 0 52 -23t15 -55z" />
    <glyph glyph-name="semicolon" unicode=";" horiz-adv-x="253" 
d="M224 365q0 -24 -13 -44t-33 -32.5t-43 -12.5q-29 0 -48.5 19.5t-19.5 47.5q0 35 27.5 61.5t62.5 26.5q29 0 48 -19t19 -47zM104 139q35 0 56 -22.5t21 -54.5q0 -40 -22.5 -77.5t-55.5 -67.5t-65 -51l-33 41q9 8 22.5 21.5t23.5 28.5t10 27q0 10 -9 18.5t-18 21.5t-9 35
q0 35 24 57.5t55 22.5z" />
    <glyph glyph-name="less" unicode="&#x3c;" horiz-adv-x="630" 
d="M70 275l531 234l-13 -90l-392 -170l344 -173l-13 -88l-465 235z" />
    <glyph glyph-name="equal" unicode="=" horiz-adv-x="630" 
d="M86 390h498l-13 -88h-498zM59 197h498l-13 -88h-498z" />
    <glyph glyph-name="greater" unicode="&#x3e;" horiz-adv-x="630" 
d="M42 76l392 173l-344 170l13 90l465 -234l-8 -52l-531 -235z" />
    <glyph glyph-name="question" unicode="?" horiz-adv-x="439" 
d="M288 732q47 0 83 -15.5t57 -46.5t21 -77q0 -54 -24.5 -90.5t-60.5 -61.5t-69 -46q-30 -18 -50.5 -36t-20.5 -41q0 -5 3.5 -15t15 -17.5t34.5 -7.5l-34 -78q-55 6 -84 24.5t-39 42.5t-10 43q0 38 18.5 65.5t47 49t57.5 40.5q34 23 59.5 47t25.5 56q0 29 -18 42.5t-47 13.5
q-40 0 -87 -24l-36 94q41 19 81.5 28.5t76.5 9.5zM171 143q29 0 48 -19t19 -48q0 -35 -27 -61.5t-62 -26.5q-29 0 -48 19t-19 47q0 36 27 62.5t62 26.5z" />
    <glyph glyph-name="at" unicode="@" horiz-adv-x="1027" 
d="M556 736q89 0 167 -27t138 -79.5t94 -127.5t34 -171q0 -61 -17.5 -121.5t-50.5 -109t-80 -78t-107 -29.5q-29 0 -56 4t-49.5 18.5t-40.5 43.5h-4q-29 -39 -68.5 -55t-71.5 -16q-58 0 -94.5 29.5t-53.5 78t-17 105.5q0 55 15.5 109.5t47 99.5t79 72t111.5 27
q24 0 59 -10.5t62 -36.5l26 38h63q-15 -102 -25.5 -169t-16.5 -107.5t-9 -62.5t-4 -33t-1 -19q0 -19 11.5 -31t42.5 -12q38 0 68.5 23t52.5 61t33.5 85t11.5 96q0 80 -27.5 142t-76 104.5t-111.5 65t-135 22.5q-106 0 -186 -40.5t-134 -108t-81 -150t-27 -166.5
q0 -73 20.5 -141t62.5 -121.5t105 -84.5t147 -31q55 0 109 15l20 -69q-31 -8 -63 -12.5t-66 -4.5q-105 0 -183 37.5t-130.5 102t-78.5 145.5t-26 168q0 78 20.5 154.5t61.5 144.5t102.5 120.5t143 82.5t183.5 30zM538 427q-32 0 -58 -15.5t-45 -45t-29 -70.5t-10 -92
q0 -54 16 -94t55 -40q32 0 55 22.5t39 60.5t27 85t18 96l10 68q-40 25 -78 25z" />
    <glyph glyph-name="A" unicode="A" horiz-adv-x="585" 
d="M397 732l148 -732h-140l-39 210h-200l-97 -210h-124l344 732h108zM309 558l-103 -250h143z" />
    <glyph glyph-name="B" unicode="B" horiz-adv-x="566" 
d="M549 589q0 -48 -21.5 -88.5t-59 -67.5t-85.5 -34q65 -11 107.5 -57t42.5 -113q0 -58 -23.5 -101.5t-63.5 -71.5t-89.5 -42t-102.5 -14h-243l90 671l-6 61h248q36 0 72 -6t66.5 -21.5t49 -43.5t18.5 -72zM408 559q0 27 -11.5 43.5t-31 23.5t-44.5 7h-94l-25 -187h97
q32 0 56.5 15.5t38.5 41t14 56.5zM397 239q0 38 -19.5 62t-50 35t-64.5 11h-74l-33 -248h102q41 0 72.5 18t49 50t17.5 72z" />
    <glyph glyph-name="C" unicode="C" horiz-adv-x="587" 
d="M304 -12q-75 0 -129 25t-89 68.5t-52 99.5t-17 117q0 79 26 158t76.5 144.5t122.5 105.5t164 40q34 0 75 -7t79 -22.5t62 -41.5l-81 -92q-23 32 -64 49t-79 17q-57 0 -101.5 -29.5t-75 -78t-46 -107t-15.5 -117.5q0 -62 18 -115.5t55.5 -86.5t95.5 -33q38 0 82.5 13
t95.5 39l36 -72q-39 -24 -76 -40.5t-76.5 -25t-86.5 -8.5z" />
    <glyph glyph-name="D" unicode="D" horiz-adv-x="664" 
d="M647 435q0 -85 -26.5 -163.5t-76.5 -139.5t-122 -96.5t-164 -35.5h-247l90 671l-7 61h263q69 0 123 -20.5t91.5 -59.5t56.5 -93.5t19 -123.5zM505 423q0 42 -9 79.5t-29 67t-52.5 46.5t-79.5 17h-108l-71 -534h110q51 0 90 19.5t67.5 52.5t46.5 75t26.5 87.5t8.5 89.5z
" />
    <glyph glyph-name="E" unicode="E" horiz-adv-x="507" 
d="M94 732h438l-13 -99h-293l-28 -207h224l-13 -99h-224l-30 -228h292l-13 -99h-423l90 671z" />
    <glyph glyph-name="F" unicode="F" horiz-adv-x="467" 
d="M95 732h407l-13 -99h-262l-28 -207h203l-13 -99h-203l-44 -327h-131l90 671z" />
    <glyph glyph-name="G" unicode="G" horiz-adv-x="668" 
d="M422 744q37 0 81.5 -7.5t85.5 -25t66 -46.5l-80 -82q-28 25 -51.5 39.5t-49.5 21t-65 6.5q-68 0 -115.5 -31t-77.5 -82t-44 -111t-14 -118q0 -38 7.5 -77t25.5 -72t48.5 -53.5t76.5 -20.5q47 0 83.5 22t59 57.5t27.5 75.5l8 62h-144l11 88h277q-14 -97 -27.5 -195
t-21.5 -196h-68l-21 76q-51 -43 -101 -64.5t-118 -21.5q-90 0 -148.5 38.5t-87 105.5t-28.5 151q0 91 26.5 174t78 147.5t127 101.5t173.5 37z" />
    <glyph glyph-name="H" unicode="H" horiz-adv-x="674" 
d="M433 0l44 327h-292l-43 -327h-131l90 671l-6 61h144l-41 -306h292l41 306h132l-98 -732h-132z" />
    <glyph glyph-name="I" unicode="I" horiz-adv-x="250" 
d="M95 732h144l-97 -732h-131l90 671z" />
    <glyph glyph-name="J" unicode="J" horiz-adv-x="254" 
d="M99 732h144l-84 -634q-8 -63 -23.5 -117.5t-44 -96t-77 -66t-122.5 -27.5l-1 78q37 5 60.5 21.5t37.5 41.5t21 55t11 60l84 624z" />
    <glyph glyph-name="K" unicode="K" horiz-adv-x="558" 
d="M239 732l-97 -732h-131l90 671l-6 61h144zM452 732h133l-222 -341l144 -391h-141l-138 380z" />
    <glyph glyph-name="L" unicode="L" horiz-adv-x="458" 
d="M240 732l-84 -633h272l-13 -99h-404l90 671l-5 61h144z" />
    <glyph glyph-name="M" unicode="M" horiz-adv-x="830" 
d="M287 732l92 -421q7 -30 8.5 -60t2.5 -61q10 33 19.5 61t22.5 56l200 425h187l-98 -732h-131l66 496q2 18 6.5 36.5t7.5 35.5q-7 -18 -15 -36t-17 -36l-236 -497h-88l-109 497q-1 7 -6.5 28.5t-7.5 43.5q-1 -17 -1.5 -35.5t-2.5 -36.5l-67 -496h-109l89 671l-5 61h192z
" />
    <glyph glyph-name="N" unicode="N" horiz-adv-x="682" 
d="M254 732l216 -439q5 -10 12.5 -28t16.5 -38q2 19 2 38.5t2 38.5l57 428h111l-99 -737h-107l-245 502q-8 17 -15.5 34t-15.5 33q-1 -16 -1 -33.5t-2 -33.5l-67 -497h-108l89 671l-5 61h159z" />
    <glyph glyph-name="O" unicode="O" horiz-adv-x="707" 
d="M300 -11q-70 0 -123 22.5t-88.5 63.5t-53.5 97t-18 123q0 86 25 166t74 143.5t120.5 101t164.5 37.5q95 0 159 -38t97 -106t33 -160q0 -86 -26 -166.5t-76 -144.5t-122.5 -101.5t-165.5 -37.5zM316 84q52 0 91.5 22.5t66.5 60t43.5 83.5t24 94t7.5 90q0 53 -14 102
t-48.5 80.5t-96.5 31.5q-52 0 -91 -22.5t-66 -60t-44 -83.5t-24.5 -94t-7.5 -90q0 -52 14 -101.5t48.5 -81t96.5 -31.5z" />
    <glyph glyph-name="P" unicode="P" horiz-adv-x="539" 
d="M95 732h221q60 0 111 -19t82.5 -61t31.5 -111q0 -83 -37.5 -138t-101.5 -82t-144 -27h-77l-39 -294h-131l90 671zM227 633l-32 -242h80q41 0 69.5 21t43 54.5t14.5 71.5q0 46 -24 70.5t-70 24.5h-81z" />
    <glyph glyph-name="Q" unicode="Q" horiz-adv-x="707" 
d="M1070 -160q-65 -23 -124.5 -39.5t-131.5 -16.5q-57 0 -116.5 18t-118.5 45.5t-115 57t-107 53.5q-28 14 -57.5 20.5t-59.5 13.5q-77 19 -126.5 59.5t-73 101t-23.5 137.5q0 86 25.5 167t75 145.5t122 103t165.5 38.5q95 0 158 -40.5t95 -110.5t32 -160
q0 -81 -24.5 -159.5t-75.5 -143t-131 -103.5q11 -4 21 -8.5t20 -9.5q41 -21 87 -44t94 -42.5t95 -32t90 -12.5q25 0 57.5 6t65.5 14t57 15zM317 85q51 0 90 22t66.5 59.5t44.5 83t25 93t8 89.5q0 39 -7.5 77.5t-25.5 69.5t-49 50t-77 19q-51 0 -89.5 -23t-66 -61t-45 -84.5
t-25.5 -94t-8 -88.5q0 -52 14.5 -100.5t49 -80t95.5 -31.5z" />
    <glyph glyph-name="R" unicode="R" horiz-adv-x="565" 
d="M142 0h-131l90 671l-6 61h240q60 0 108.5 -19.5t77 -61t28.5 -108.5q0 -63 -23.5 -109t-59.5 -77t-72 -49l141 -308h-139l-175 383h33q65 0 110.5 39.5t45.5 118.5q0 46 -27.5 68.5t-73.5 22.5h-83z" />
    <glyph glyph-name="S" unicode="S" horiz-adv-x="495" 
d="M333 744q26 0 59.5 -7.5t65.5 -21t51 -31.5l-59 -92q-15 17 -40.5 29.5t-52.5 19.5t-50 7q-28 0 -53 -11.5t-40.5 -33.5t-15.5 -53q0 -32 19 -54t49 -40t63 -36t63 -41.5t49 -56.5t19 -82q0 -77 -38 -134t-101 -87.5t-138 -30.5q-56 0 -114 14.5t-105 46.5l63 108
q20 -22 45 -38.5t53.5 -25.5t58.5 -9q35 0 65 15t49 42t19 63q0 33 -19 56t-49 41.5t-63.5 36.5t-63.5 41t-49 55.5t-19 79.5q0 81 39 132t102.5 74.5t137.5 23.5z" />
    <glyph glyph-name="T" unicode="T" horiz-adv-x="523" 
d="M43 732h525l-14 -99h-195l-85 -633h-136l84 633h-192z" />
    <glyph glyph-name="U" unicode="U" horiz-adv-x="659" 
d="M234 732l-65 -489q-1 -7 -1.5 -13.5t-0.5 -13.5q0 -41 16.5 -70.5t46.5 -45.5t71 -16q49 0 86 22.5t60 59.5t28 79l66 487h107l-61 -454q-12 -88 -46.5 -153t-99 -100.5t-167.5 -35.5q-56 0 -100 14t-75 42t-47.5 71t-16.5 100q0 16 1 31t3 31l53 394l-7 60h149z" />
    <glyph glyph-name="V" unicode="V" horiz-adv-x="561" 
d="M174 732q23 -133 50 -266t40 -266q28 89 66.5 177.5t81 177.5t80.5 177h124l-338 -733h-102l-141 733h139z" />
    <glyph glyph-name="W" unicode="W" horiz-adv-x="875" 
d="M172 732q12 -93 20.5 -161t15.5 -120t11.5 -95t8 -84.5t6.5 -89.5q12 53 25 97t29 87.5t36.5 94t47.5 116.5t63 155h119q12 -92 21 -160.5t16 -121t12 -96t7.5 -84.5t3.5 -88q16 56 30.5 100t30.5 86.5t35.5 92t45.5 115t62 156.5h112l-284 -734h-134q-11 92 -20 155.5
t-15 110t-10 86t-6.5 80.5t-4.5 96q-16 -55 -30 -98.5t-29 -84t-33.5 -87t-43.5 -109t-60 -149.5h-132l-93 734h137z" />
    <glyph glyph-name="X" unicode="X" horiz-adv-x="566" 
d="M471 732h145l-520 -732h-146zM221 732l316 -732h-151l-316 732h151z" />
    <glyph glyph-name="Y" unicode="Y" horiz-adv-x="523" 
d="M181 732l96 -260l171 260h130l-263 -405l-44 -327h-130l43 330l-149 402h146z" />
    <glyph glyph-name="Z" unicode="Z" horiz-adv-x="546" 
d="M94 732h467v-73l-397 -560h330l-14 -99h-497v82l394 551h-296z" />
    <glyph glyph-name="bracketleft" unicode="[" horiz-adv-x="315" 
d="M241 673l-100 -746h94l-8 -59h-207l116 864h207l-8 -59h-94z" />
    <glyph glyph-name="backslash" unicode="\" horiz-adv-x="359" 
d="M-18 732h93l270 -732h-94z" />
    <glyph glyph-name="bracketright" unicode="]" horiz-adv-x="311" 
d="M-12 -132l8 59h94l99 746h-93l7 59h207l-115 -864h-207z" />
    <glyph glyph-name="asciicircum" unicode="^" horiz-adv-x="618" 
d="M326 368l-225 -368h-88l305 498h52l165 -498h-91z" />
    <glyph glyph-name="underscore" unicode="_" horiz-adv-x="495" 
d="M-12 -143l13 96h508l-13 -96h-508z" />
    <glyph glyph-name="grave" unicode="`" horiz-adv-x="284" 
d="M229 735l85 -165h-103l-127 165h145z" />
    <glyph glyph-name="a" unicode="a" horiz-adv-x="513" 
d="M421 500h63q-15 -102 -25.5 -169t-16.5 -107.5t-9 -62.5t-4 -33t-1 -19q0 -13 5 -24.5t20 -11.5q10 0 24 4t24 8l17 -63q-22 -14 -51 -22.5t-55 -8.5q-30 0 -53 19.5t-29 48.5h-4q-29 -39 -68.5 -55t-71.5 -16q-58 0 -94.5 29.5t-53.5 78t-17 105.5q0 55 15.5 109.5
t47 99.5t79 72t111.5 27q26 0 65.5 -13t66.5 -46v-85q-34 32 -65 47t-61 15q-32 0 -58 -15.5t-45 -45t-29 -70.5t-10 -92q0 -54 16 -94t55 -40q32 0 55 22.5t39 60.5t27 85t18 96l11 73z" />
    <glyph glyph-name="b" unicode="b" horiz-adv-x="506" 
d="M28 41l89 672l-5 55h127l-41 -309q16 16 37.5 27.5t45 18t44.5 6.5q57 0 92.5 -28t51.5 -76t16 -108q0 -57 -15.5 -112.5t-47.5 -100t-82 -71.5t-118 -27q-43 0 -95.5 13t-98.5 40l72 81q23 -28 59.5 -40t66.5 -12q37 0 63.5 19.5t44 52.5t26 72.5t8.5 78.5
q0 56 -16 92.5t-57 36.5q-22 0 -44.5 -12t-40 -28.5t-26.5 -28.5l-39 -278z" />
    <glyph glyph-name="c" unicode="c" horiz-adv-x="422" 
d="M373 378q-18 19 -42 31.5t-53 12.5q-35 0 -61.5 -17t-43.5 -46.5t-25.5 -65.5t-8.5 -74q0 -76 27.5 -110.5t77.5 -34.5q26 0 56 8t65 23l27 -70q-40 -22 -80 -34.5t-90 -12.5q-71 0 -115 30t-64.5 79.5t-20.5 109.5q0 66 20.5 121t57 96t84.5 63.5t103 22.5q37 0 76 -11
t79 -37z" />
    <glyph glyph-name="d" unicode="d" horiz-adv-x="517" 
d="M400 714l-5 55h127q-19 -130 -36 -245.5t-30 -205.5t-20.5 -146t-7.5 -68q0 -9 5 -20t20 -11q10 0 24 4t24 8l17 -63q-22 -14 -51 -22.5t-55 -8.5q-30 0 -53 19.5t-29 48.5h-4q-29 -39 -68.5 -55t-71.5 -16q-58 0 -94.5 29.5t-53.5 78t-17 105.5q0 55 15.5 109.5t47 99.5
t79 72t111.5 27q26 0 65.5 -13t66.5 -46v-85q-34 32 -65 47t-61 15q-32 0 -58 -15.5t-45 -45t-29 -70.5t-10 -92q0 -54 16 -94t55 -40q32 0 55 22.5t39.5 60.5t27 85t17.5 96z" />
    <glyph glyph-name="e" unicode="e" horiz-adv-x="466" 
d="M294 510q43 0 79 -13.5t57.5 -41t21.5 -71.5q0 -25 -14 -58t-50 -64t-100 -50.5t-163 -17.5v83q54 0 93 10t63.5 26.5t36 36t11.5 37.5q0 17 -11 28t-33 11q-36 0 -63.5 -17.5t-46 -47.5t-28 -66t-9.5 -74q0 -76 31.5 -110.5t83.5 -34.5q32 0 70 12t78 34l35 -68
l-13.5 -10t-39.5 -23t-62.5 -23t-82.5 -10q-78 0 -125.5 29t-69.5 78.5t-22 108.5q0 57 18.5 111.5t53.5 98.5t86 70t115 26z" />
    <glyph glyph-name="f" unicode="f" horiz-adv-x="299" 
d="M-104 -149q47 -12 75.5 -0.5t43.5 41.5t21 73l61 449h-79l10 83q17 0 34.5 2t32.5 12t22 34q13 43 28 84t39 74.5t63 53t100 19.5q35 0 75.5 -11.5t68.5 -31.5l-49 -79q-23 21 -44.5 30.5t-53.5 9.5q-33 0 -54.5 -20.5t-35 -52t-21 -65t-11.5 -59.5h118l-11 -83h-118
l-62 -461q-16 -118 -89 -160t-180 -9z" />
    <glyph glyph-name="g" unicode="g" horiz-adv-x="491" 
d="M421 500h63l-66 -460q-7 -47 -21 -94.5t-42 -87.5t-74.5 -64t-117.5 -24q-43 0 -77 8.5t-59 21.5t-39 26l61 91q16 -19 43.5 -38t70.5 -19q48 0 75 16.5t40.5 46.5t19.5 69l7 41h-4q-22 -22 -52.5 -33.5t-62.5 -11.5q-58 0 -94.5 29.5t-53.5 78t-17 105.5
q0 55 15.5 109.5t47 99.5t79 72t111.5 27q26 0 65.5 -13t66.5 -46v-85q-34 32 -65 47t-61 15q-32 0 -58 -15.5t-45 -45t-29 -70.5t-10 -92q0 -54 16 -94t55 -40q32 0 55 22.5t39 60.5t27 85t18 96l11 73z" />
    <glyph glyph-name="h" unicode="h" horiz-adv-x="491" 
d="M244 769l-44 -318q31 24 69 42t76 18q42 0 69 -14t39.5 -41.5t12.5 -68.5q0 -27 -3 -51l-38 -282l3 -54h-126l44 324q2 9 2.5 18t0.5 18q0 18 -5 30t-15.5 18t-29.5 6q-12 0 -27.5 -6t-31.5 -15t-29.5 -18.5t-21.5 -17.5l-48 -357h-114l95 715l-4 54h126z" />
    <glyph glyph-name="i" unicode="i" horiz-adv-x="228" 
d="M248 689q0 -33 -24 -60.5t-59 -27.5q-28 0 -45.5 19.5t-17.5 46.5q0 34 25 60.5t59 26.5q28 0 45 -19t17 -46zM207 497l-59 -442l3 -55h-124l59 443l-3 54h124z" />
    <glyph glyph-name="j" unicode="j" horiz-adv-x="228" 
d="M248 689q0 -34 -24.5 -61t-58.5 -27q-28 0 -46 20t-18 46q0 34 25 60.5t59 26.5q28 0 45.5 -19t17.5 -46zM209 497l-59 -432q-7 -48 -19.5 -96.5t-36.5 -89.5t-63 -68.5t-98 -34.5l-14 55q41 21 63.5 55t33.5 74.5t16 78.5l55 405l-4 53h126z" />
    <glyph glyph-name="k" unicode="k" horiz-adv-x="491" 
d="M352 511q33 0 59 -11.5t41 -35.5t15 -60q0 -50 -33 -103.5t-110 -92.5q18 -51 47 -102.5t65 -105.5h-132q-31 55 -58.5 116t-47.5 119q59 13 92 35.5t46.5 48t13.5 47.5q0 26 -12.5 37t-34.5 11q-17 0 -40.5 -10t-46.5 -26t-40 -35v85q26 27 56 45.5t61 28t59 9.5z
M246 769l-103 -769h-116l95 715l-5 54h129z" />
    <glyph glyph-name="l" unicode="l" horiz-adv-x="236" 
d="M247 769l-96 -715l3 -54h-127l95 715l-3 54h128z" />
    <glyph glyph-name="m" unicode="m" horiz-adv-x="758" 
d="M185 508q3 -10 5 -21t2.5 -21.5t0.5 -21.5q23 19 46.5 34t50 23.5t57.5 8.5q38 0 68 -17t40 -56q23 21 49 37.5t55 26t60 9.5q30 0 52 -8t35.5 -23.5t20 -38t6.5 -51.5q0 -13 -1 -25.5t-3 -24.5l-38 -286l3 -53h-124l44 332q1 7 1.5 14t0.5 14q0 19 -5.5 30.5t-17 17.5
t-30.5 6q-25 0 -55 -17.5t-48 -34.5l-48 -362h-115l45 335q1 6 1.5 12t0.5 12q0 17 -5 29.5t-16 19t-30 6.5q-13 0 -27.5 -5t-28.5 -12.5t-26 -17t-21 -18.5l-49 -361h-114l48 356q3 29 3 58q0 17 -2 40.5t-12 38.5z" />
    <glyph glyph-name="n" unicode="n" horiz-adv-x="492" 
d="M185 508q5 -16 6.5 -31.5t1.5 -31.5q21 17 46 32t52.5 24.5t54.5 9.5q32 0 54.5 -8t37.5 -23.5t22 -38.5t7 -54q0 -27 -3 -51l-38 -282l3 -54h-125l43 324q2 9 2.5 18t0.5 18q0 18 -5 30t-15.5 18t-29.5 6q-12 0 -27.5 -6t-31.5 -15t-29.5 -18.5t-21.5 -17.5l-49 -357
h-114l48 356q2 14 2.5 28.5t0.5 29.5q0 12 -1 26.5t-3.5 28.5t-9.5 24z" />
    <glyph glyph-name="o" unicode="o" horiz-adv-x="496" 
d="M213 -12q-68 0 -110.5 30t-62 78.5t-19.5 104.5q0 54 17.5 109t50.5 100t82 72.5t112 27.5q69 0 111 -30t61.5 -78.5t19.5 -104.5q0 -54 -17.5 -109t-50.5 -100t-82 -72.5t-112 -27.5zM224 69q33 0 58 20t42 54t25.5 74.5t8.5 80.5q0 36 -8 65.5t-26.5 47.5t-51.5 18
t-58 -20t-42 -54t-25.5 -74t-8.5 -81q0 -35 8 -65t27 -48t51 -18z" />
    <glyph glyph-name="p" unicode="p" horiz-adv-x="512" 
d="M331 511q57 0 92.5 -28t51.5 -76t16 -108q0 -57 -15.5 -112.5t-47.5 -100t-82 -71.5t-118 -27q-24 0 -46.5 3.5t-39.5 7.5l-22 -169l5 -55h-127l78 581q2 14 3 28.5t1 28.5q0 19 -2.5 41t-10.5 38l117 15q5 -15 7 -28.5t3 -28.5q18 18 39.5 32t46.5 21.5t51 7.5zM301 422
q-22 0 -44.5 -12t-40 -28.5t-26.5 -28.5l-36 -262q18 -10 36.5 -15.5t41.5 -5.5q37 0 63.5 19.5t44 52.5t26 72.5t8.5 78.5q0 56 -16 92.5t-57 36.5z" />
    <glyph glyph-name="q" unicode="q" horiz-adv-x="497" 
d="M421 500h63l-92 -669l5 -55h-127l35 257h-4q-22 -22 -52.5 -33.5t-62.5 -11.5q-58 0 -94.5 29.5t-53.5 78t-17 105.5q0 55 15.5 109.5t47 99.5t79 72t111.5 27q26 0 65.5 -13t66.5 -46v-85q-34 32 -65 47t-61 15q-32 0 -58 -15.5t-45 -45t-29 -70.5t-10 -92q0 -54 16 -94
t55 -40q32 0 55 22.5t39 60.5t27 85t18 96l11 73z" />
    <glyph glyph-name="r" unicode="r" horiz-adv-x="335" 
d="M186 507q6 -21 8.5 -52t0.5 -53q19 26 46 50t59.5 39.5t65.5 15.5l-35 -126q-42 0 -78.5 -23.5t-70.5 -68.5l-40 -289h-114l48 363q2 10 3 23.5t1 26.5q0 20 -2.5 43.5t-13.5 40.5z" />
    <glyph glyph-name="s" unicode="s" horiz-adv-x="371" 
d="M327 395q-17 17 -41 24t-48 7q-18 0 -34.5 -6t-27 -18.5t-10.5 -32.5q0 -23 18 -37.5t45 -26t54 -26.5t45 -40t18 -67q0 -61 -29.5 -102t-77 -61.5t-102.5 -20.5q-37 0 -78.5 12t-73.5 32l52 82q23 -15 48.5 -29t53.5 -14q22 0 40 9.5t29 26.5t11 40q0 25 -18.5 40
t-45 26.5t-53.5 26.5t-45.5 38.5t-18.5 63.5q0 59 29.5 96t76.5 54.5t99 17.5q33 0 70 -7.5t66 -23.5z" />
    <glyph glyph-name="t" unicode="t" horiz-adv-x="315" 
d="M251 633q-9 -34 -17 -68t-14 -68h115l-27 -83h-100l-36 -275q-1 -7 -1.5 -14t-0.5 -14q0 -16 6.5 -27.5t26.5 -11.5q19 0 38 3t37 7l11 -69q-18 -6 -42 -11t-48 -8.5t-44 -3.5q-38 0 -61 10.5t-33 31.5t-10 50q0 5 0.5 10.5t1 11.5t1.5 12l40 298h-69l11 83q38 0 60 12.5
t37 42t30 81.5h88z" />
    <glyph glyph-name="u" unicode="u" horiz-adv-x="499" 
d="M192 497l-43 -328q-1 -7 -1.5 -13.5t-0.5 -13.5q0 -25 10.5 -41.5t38.5 -16.5q26 0 46.5 15.5t35.5 41t25 55.5t16.5 59t9.5 52l19 146l-6 44h128l-54 -367q-1 -5 -1.5 -10.5t-0.5 -10.5q0 -13 4.5 -24.5t20.5 -11.5q10 0 24 4t24 8l17 -63q-14 -9 -33 -16t-38.5 -11
t-36.5 -4q-20 0 -37.5 9t-29 24.5t-15.5 34.5h-4q-13 -17 -31.5 -30t-39.5 -22t-43 -13.5t-43 -4.5q-61 0 -93.5 30.5t-32.5 91.5q0 17 3 35l40 307l-5 44h127z" />
    <glyph glyph-name="v" unicode="v" horiz-adv-x="419" 
d="M137 497q19 -88 30.5 -144.5t18 -91.5t9.5 -60t5 -50q10 36 20 64t24.5 62.5t37.5 86t60 133.5h117l-232 -501h-106l-106 501h122z" />
    <glyph glyph-name="w" unicode="w" horiz-adv-x="638" 
d="M137 497q11 -76 18.5 -124.5t11.5 -81.5t5 -59.5t-1 -58.5q6 27 14 51.5t21 57t34.5 83.5t55.5 132h112q12 -83 20.5 -141t12.5 -101t1 -82q8 32 17 61t22.5 63t33 82t48.5 118h115l-219 -501h-99q-10 72 -17.5 118t-12.5 79.5t-7.5 66t-2.5 75.5q-7 -36 -18 -68.5
t-26 -69.5t-36.5 -85t-51.5 -116h-99l-74 501h122z" />
    <glyph glyph-name="x" unicode="x" horiz-adv-x="464" 
d="M199 497l240 -497h-133l-239 497h132zM351 497h133l-370 -497h-134z" />
    <glyph glyph-name="y" unicode="y" horiz-adv-x="419" 
d="M-48 -150q33 0 59 15t46.5 38.5t36 49.5t26.5 48l-105 496h122q12 -56 21.5 -99t17.5 -81.5t13 -79t7 -91.5q14 47 29 86t33.5 78t40 84t48.5 103h112l-233 -500q-31 -67 -67 -118t-87 -80t-129 -29z" />
    <glyph glyph-name="z" unicode="z" horiz-adv-x="418" 
d="M62 497h356v-62l-273 -351h239l-11 -84h-383v61l270 353h-209z" />
    <glyph glyph-name="braceleft" unicode="{" horiz-adv-x="350" 
d="M221 -147q-85 0 -115.5 46t-19.5 125l22 159q3 20 -1 39t-16.5 31.5t-35.5 12.5l8 61q26 0 41.5 13.5t24 34.5t11.5 41l21 153q10 73 51 121.5t120 48.5h59l-8 -62q-34 0 -54.5 -7t-30.5 -25t-15 -52l-24 -166q-3 -24 -10.5 -49.5t-22 -47t-40.5 -34.5q22 -12 30.5 -33.5
t9 -47t-3.5 -49.5l-24 -166q-5 -37 -0.5 -55t23.5 -23.5t55 -5.5l-9 -63h-46z" />
    <glyph glyph-name="bar" unicode="|" horiz-adv-x="235" 
d="M131 745h98l-122 -861h-98z" />
    <glyph glyph-name="braceright" unicode="}" horiz-adv-x="321" 
d="M147 739q85 0 115.5 -46t19.5 -125l-22 -159q-4 -29 7.5 -56t45.5 -27l-8 -61q-25 0 -41 -13.5t-24.5 -34t-11.5 -41.5l-21 -153q-10 -73 -50.5 -121.5t-120.5 -48.5h-59l8 62q35 0 55 7t30 25t15 52l24 166q4 24 11 49.5t22 47.5t40 34q-21 13 -30 34t-9 46.5t3 49.5
l24 166q6 37 1 55t-23.5 23.5t-55.5 5.5l9 63h46z" />
    <glyph glyph-name="asciitilde" unicode="~" horiz-adv-x="559" 
d="M528 299q-18 -23 -44.5 -47.5t-56.5 -41t-58 -16.5q-29 0 -53.5 10.5t-47 24.5t-45.5 24.5t-50 10.5q-18 0 -34.5 -12.5t-30 -29.5t-22.5 -33l-55 55q17 28 41.5 53t53.5 41t59 16q32 0 59.5 -10.5t51 -24.5t45 -24.5t41.5 -10.5q29 0 53.5 24.5t40.5 48.5z" />
    <glyph glyph-name="uni00A0" unicode="&#xa0;" horiz-adv-x="234" 
 />
    <glyph glyph-name="exclamdown" unicode="&#xa1;" horiz-adv-x="245" 
d="M128 -234h-148l101 513h90zM72 425q0 35 26 60t60 25q28 0 46.5 -18.5t18.5 -45.5q0 -22 -12.5 -41t-32 -31t-41.5 -12q-28 0 -46.5 18t-18.5 45z" />
    <glyph glyph-name="cent" unicode="&#xa2;" horiz-adv-x="491" 
d="M323 486q33 0 69.5 -11.5t61.5 -31.5l-66 -74q-19 16 -38.5 25.5t-48.5 9.5q-40 0 -67.5 -29t-41.5 -74t-14 -93q0 -55 24.5 -84.5t68.5 -29.5q47 0 109 34l26 -74q-44 -21 -80 -31.5t-83 -10.5q-95 0 -143 52.5t-48 137.5q0 61 19.5 113t56 90.5t86 59.5t109.5 21z
M242 43l-40 -171h-92l68 171h64zM271 462l36 160h94l-62 -160h-68z" />
    <glyph glyph-name="sterling" unicode="&#xa3;" horiz-adv-x="581" 
d="M13 100h93l57 400q9 67 44.5 112.5t89 69.5t116.5 24q67 0 109.5 -29.5t69.5 -85.5l-105 -54q-11 29 -32.5 51t-56.5 22q-28 0 -49 -12.5t-33 -34.5t-16 -49l-59 -414h293l-14 -100h-521zM55 284l22 82h362l-22 -82h-362z" />
    <glyph glyph-name="currency" unicode="&#xa4;" horiz-adv-x="537" 
d="M297 463q60 0 103 -34l60 53l59 -69l-65 -57q7 -17 10.5 -36t3.5 -39q0 -37 -11.5 -70.5t-31.5 -61.5l50 -56l-79 -69l-45 51q-25 -16 -54.5 -25t-59.5 -9t-56.5 9t-47.5 25l-58 -51l-59 69l63 55q-12 33 -12 72q0 36 11 70.5t30 65.5l-48 57l79 69l45 -53
q26 17 54.5 25.5t58.5 8.5zM286 379q-34 0 -62.5 -20.5t-45 -54.5t-16.5 -77q0 -52 28 -77t59 -25q25 0 50.5 13.5t45.5 42t26 73.5q7 56 -16 90.5t-69 34.5z" />
    <glyph glyph-name="yen" unicode="&#xa5;" horiz-adv-x="604" 
d="M233 706l107 -272l189 272h120l-273 -399l-44 -307h-133l44 307l-158 399h148zM83 389h498l-24 -82h-498zM64 249h498l-25 -82h-498z" />
    <glyph glyph-name="brokenbar" unicode="&#xa6;" horiz-adv-x="238" 
d="M131 745h98l-50 -353h-98zM59 237h98l-50 -353h-98z" />
    <glyph glyph-name="section" unicode="&#xa7;" horiz-adv-x="454" 
d="M401 775q17 0 33.5 -3t32 -7.5t30.5 -10.5l-29 -78q-7 4 -29 11t-42 7q-18 0 -30.5 -7.5t-19.5 -20t-11 -28t-5 -31t-1 -29.5q0 -23 3 -59t7.5 -80.5t10 -94t10 -100t7.5 -97.5t3 -87q0 -35 -9 -63t-27 -49t-44.5 -33.5t-60.5 -17.5q-7 -43 -31.5 -71.5t-60 -42
t-77.5 -13.5q-27 0 -49 4.5t-46 16.5l32 75l21 -7t24 -7t21 -3q26 0 39.5 15.5t18 38t4.5 43.5q0 41 -3 86.5t-7.5 92t-9 92.5t-9 88.5t-7.5 79t-3 64.5q0 52 12.5 95.5t44 71.5t88.5 33q10 44 32.5 72t57 41t79.5 13zM225 559q-22 -16 -27.5 -48t-5.5 -58t3.5 -69t9 -95.5
t11.5 -108t10.5 -107t5.5 -91.5q14 9 21 24.5t9 33t2 31.5q0 49 -3.5 97.5t-8.5 97.5t-10.5 98t-10 97.5t-6.5 97.5z" />
    <glyph glyph-name="dieresis" unicode="&#xa8;" horiz-adv-x="297" 
d="M184 661q0 -29 -22 -50.5t-51 -21.5q-24 0 -39.5 15.5t-15.5 38.5q0 29 22.5 50.5t50.5 21.5q24 0 39.5 -15.5t15.5 -38.5zM355 661q0 -29 -22.5 -50.5t-51.5 -21.5q-23 0 -39 16t-16 38q0 29 22.5 50.5t50.5 21.5q24 0 40 -15.5t16 -38.5z" />
    <glyph glyph-name="copyright" unicode="&#xa9;" horiz-adv-x="644" 
d="M599 250q0 -57 -21.5 -107t-60 -88.5t-88.5 -60t-107 -21.5t-107.5 21.5t-88.5 59.5t-59.5 88.5t-21.5 107.5t21.5 107.5t59.5 88.5t88.5 59.5t107.5 21.5t107 -21.5t88.5 -60t60 -88.5t21.5 -107zM559 250q0 66 -32 119.5t-85.5 85.5t-118.5 32q-66 0 -120 -32
t-86 -85.5t-32 -118.5q0 -66 32 -120t86 -86t119 -32q66 0 119.5 32t85.5 86t32 119zM447 112q-31 -16 -55.5 -24t-60.5 -8q-51 0 -86.5 22t-53.5 60.5t-18 87.5q0 76 45.5 123.5t121.5 47.5q25 0 53.5 -10t48.5 -25l-44 -56q-15 12 -30 19.5t-35 7.5q-25 0 -40 -18
t-21 -42.5t-6 -45.5q0 -24 7 -49t24 -42t46 -17q20 0 36.5 9.5t29.5 23.5z" />
    <glyph glyph-name="ordfeminine" unicode="&#xaa;" horiz-adv-x="371" 
d="M228 715q17 0 39.5 -7.5t40.5 -25.5l18 27h43q-14 -81 -22 -131t-12 -76.5t-5.5 -37.5t-1.5 -15q0 -8 3 -16t13 -8q7 0 16.5 3t15.5 5l12 -42q-15 -9 -34.5 -15t-36.5 -6q-20 0 -35 13t-19 33h-4q-19 -26 -45.5 -37t-50.5 -11q-38 0 -63.5 19.5t-38 51t-12.5 68.5
q0 36 11.5 72.5t34.5 67.5t56.5 49.5t76.5 18.5zM223 660q-30 0 -51 -23.5t-31.5 -58t-10.5 -68.5t11.5 -60t36.5 -26q29 0 47 24t29.5 62.5t18.5 80.5l7 43q-14 14 -28 20t-29 6zM62 252l8 58h248l-8 -58h-248z" />
    <glyph glyph-name="guillemotleft" unicode="&#xab;" horiz-adv-x="454" 
d="M232 173l-77 -11l-132 170l176 172l75 -14l-141 -158zM402 173l-79 -11l-132 170l176 172l77 -14l-143 -158z" />
    <glyph glyph-name="logicalnot" unicode="&#xac;" horiz-adv-x="638" 
d="M489 267h-412l12 83h498l-38 -271h-86z" />
    <glyph glyph-name="uni00AD" unicode="&#xad;" horiz-adv-x="313" 
d="M43 210l13 95h221l-13 -95h-221z" />
    <glyph glyph-name="registered" unicode="&#xae;" horiz-adv-x="469" 
d="M496 610q0 -58 -28.5 -106t-76.5 -76.5t-106 -28.5t-105.5 28.5t-76 76.5t-28.5 106t28.5 106t76 76.5t105.5 28.5t106 -28.5t76.5 -76.5t28.5 -106zM461 610q0 48 -24 88t-63.5 63.5t-88.5 23.5q-48 0 -87.5 -23.5t-63.5 -63t-24 -88.5q0 -48 24 -88t63.5 -63.5
t87.5 -23.5q49 0 88.5 23.5t63.5 63.5t24 88zM200 732h93q32 0 57.5 -14t25.5 -55q0 -21 -13 -36t-30 -23l74 -107h-71l-66 96h-10v-96h-60v235zM260 685v-45h19q18 0 27.5 6t9.5 19q0 10 -8 15t-22 5h-26z" />
    <glyph glyph-name="macron" unicode="&#xaf;" horiz-adv-x="295" 
d="M62 689h295l-10 -74h-295z" />
    <glyph glyph-name="degree" unicode="&#xb0;" horiz-adv-x="386" 
d="M388 613q0 -45 -23.5 -82.5t-61.5 -60t-82 -22.5q-55 0 -90.5 36t-35.5 89q0 45 23.5 82.5t61.5 60t81 22.5q55 0 91 -36t36 -89zM321 604q0 29 -19.5 49.5t-49.5 20.5q-24 0 -44.5 -13t-33 -34t-12.5 -46q0 -28 18.5 -48.5t49.5 -20.5q25 0 45.5 13t33 34t12.5 45z" />
    <glyph glyph-name="plusminus" unicode="&#xb1;" horiz-adv-x="632" 
d="M342 120h-88l20 146h-205l12 85h205l21 146h88l-21 -145h205l-11 -85h-205zM44 86h498l-12 -85h-498z" />
    <glyph glyph-name="uni00B2" unicode="&#xb2;" horiz-adv-x="455" 
d="M84 489l19.5 15t50.5 41t65.5 59t65.5 68.5t50.5 70t19.5 62.5q0 23 -14.5 37t-37.5 14q-21 0 -43.5 -9t-41 -20t-30 -20l-11.5 -9l-33 66l14 10.5t39.5 25t60 25t75.5 10.5q47 0 77 -15t44 -40.5t14 -56.5q0 -28 -10.5 -57.5t-30 -59.5t-47 -59.5t-62.5 -58t-76 -55.5
h206l-38 -95h-326v51z" />
    <glyph glyph-name="uni00B3" unicode="&#xb3;" horiz-adv-x="455" 
d="M92 494q118 6 183 40.5t65 86.5q0 24 -15 34.5t-36.5 13.5t-39.5 3q-14 0 -23.5 -1l-9.5 -1l-3 58q19 4 42.5 10.5t45.5 17.5t36 28t14 41q0 15 -12.5 23t-29.5 8q-32 0 -68 -15t-62 -35l-33 61q38 29 90 48.5t98 19.5q30 0 58.5 -7t47 -24.5t18.5 -49.5
q0 -29 -12.5 -51.5t-34 -38.5t-49.5 -26q40 -7 64 -30.5t24 -65.5q0 -18 -7.5 -44t-28 -54.5t-59.5 -54t-102 -43t-156 -21.5z" />
    <glyph glyph-name="acute" unicode="&#xb4;" horiz-adv-x="293" 
d="M211 735h145l-175 -165h-103z" />
    <glyph glyph-name="uni00B5" unicode="&#xb5;" horiz-adv-x="584" 
d="M245 497q-12 -88 -20 -147.5t-13 -96.5t-7.5 -57.5t-3.5 -30.5t-1 -16q0 -26 10.5 -46t41.5 -20q15 0 29 3t27.5 9.5t26 15t23.5 19.5l42 314l-4 53h126q-12 -92 -20.5 -156.5t-14 -106.5t-8.5 -66.5t-4.5 -36.5t-2 -16.5t-0.5 -6.5q0 -11 3.5 -20t14.5 -9q8 0 16 2t16 5
t15 5l10 -73q-13 -4 -27.5 -8.5t-29.5 -8.5t-29 -7t-28 -3q-29 0 -46 19t-19 47q-16 -17 -37 -32.5t-44 -25.5t-45 -10q-33 0 -60 15l-26 -191h-117l84 631l-3 53h125z" />
    <glyph glyph-name="paragraph" unicode="&#xb6;" horiz-adv-x="521" 
d="M124 -108q4 -1 7 -1h6q30 0 49.5 22t23.5 50l40 289q-55 0 -95.5 20.5t-63 61t-22.5 98.5q0 84 30.5 148.5t88.5 101t142 36.5h212l-10 -69h-56l-90 -639q-4 -31 -19 -55.5t-38.5 -39.5t-52.5 -15h-8t-9 1q-15 -28 -46 -44.5t-66 -16.5q-20 0 -40 6zM371 649l-96 -686
q29 0 37 17.5t12 39.5l88 629h-41z" />
    <glyph glyph-name="periodcentered" unicode="&#xb7;" horiz-adv-x="293" 
d="M223 269q0 -35 -27 -61t-60 -26q-28 0 -47 18.5t-19 45.5q0 35 27 61t60 26q29 0 47.5 -18.5t18.5 -45.5z" />
    <glyph glyph-name="cedilla" unicode="&#xb8;" horiz-adv-x="222" 
d="M142 -112q0 -36 -23.5 -58t-59.5 -33t-75 -17l-16 62q13 2 30.5 5t31.5 11t14 24q0 13 -15.5 21t-41.5 15l65 95h76l-36 -55q11 -5 22.5 -14.5t19.5 -23t8 -32.5z" />
    <glyph glyph-name="uni00B9" unicode="&#xb9;" horiz-adv-x="455" 
d="M101 517h127l40 303l-124 -35l-15 70l179 69h81l-53 -407h102l-10 -79h-337z" />
    <glyph glyph-name="ordmasculine" unicode="&#xba;" horiz-adv-x="355" 
d="M375 573q0 -40 -12.5 -77.5t-36 -66.5t-57.5 -46t-77 -17t-73 18t-45.5 50t-15.5 74q0 40 12.5 77t36 66.5t57 46.5t76.5 17q44 0 74 -18t45.5 -50t15.5 -74zM290 576q0 20 -4.5 39t-17 32t-36.5 13q-27 0 -44.5 -16t-27.5 -41t-14 -51.5t-4 -46.5t5 -39.5t17.5 -32
t36.5 -12.5q26 0 43.5 16t27.5 41t14 51t4 47zM53 252l8 58h247l-8 -58h-247z" />
    <glyph glyph-name="guillemotright" unicode="&#xbb;" horiz-adv-x="454" 
d="M14 173l145 159l-98 158l80 14l128 -172l-180 -170zM183 173l144 159l-97 158l79 14l128 -172l-180 -170z" />
    <glyph glyph-name="onequarter" unicode="&#xbc;" horiz-adv-x="1082" 
d="M747 732h94l-474 -732h-93zM74 327h127l40 303l-124 -35l-15 70l179 69h81l-53 -407h102l-10 -79h-337zM853 101h-225l8 52l278 333h113l-48 -306h72l-37 -79h-47l-16 -101h-114zM901 356l-146 -176h110z" />
    <glyph glyph-name="onehalf" unicode="&#xbd;" horiz-adv-x="1082" 
d="M747 732h94l-474 -732h-93zM74 327h127l40 303l-124 -35l-15 70l179 69h81l-53 -407h102l-10 -79h-337zM649 51l19.5 15t50.5 41t65.5 59t65.5 68.5t50.5 70t19.5 62.5q0 23 -14.5 37t-37.5 14q-21 0 -43.5 -9t-41 -20t-30 -20l-11.5 -9l-33 66l14 10.5t39.5 25t60 25
t75.5 10.5q47 0 77 -15t44 -40.5t14 -56.5q0 -28 -10.5 -57.5t-30 -59.5t-47 -59.5t-62.5 -58t-76 -55.5h206l-38 -95h-326v51z" />
    <glyph glyph-name="threequarters" unicode="&#xbe;" horiz-adv-x="1082" 
d="M747 732h94l-474 -732h-93zM65 304q118 6 183 40.5t65 86.5q0 24 -15 34.5t-36.5 13.5t-39.5 3q-14 0 -23.5 -1l-9.5 -1l-3 58q19 4 42.5 10.5t45.5 17.5t36 28t14 41q0 15 -12.5 23t-29.5 8q-32 0 -68 -15t-62 -35l-33 61q38 29 90 48.5t98 19.5q30 0 58.5 -7t47 -24.5
t18.5 -49.5q0 -29 -12.5 -51.5t-34 -38.5t-49.5 -26q40 -7 64 -30.5t24 -65.5q0 -18 -7.5 -44t-28 -54.5t-59.5 -54t-102 -43t-156 -21.5zM853 101h-225l8 52l278 333h113l-48 -306h72l-37 -79h-47l-16 -101h-114zM901 356l-146 -176h110z" />
    <glyph glyph-name="questiondown" unicode="&#xbf;" horiz-adv-x="432" 
d="M137 -234q-46 0 -82.5 15.5t-57.5 46.5t-21 77q0 54 24.5 90.5t60.5 62t69 45.5q30 18 50.5 36t20.5 41q0 6 -3.5 15.5t-15 17t-34.5 7.5l34 78q56 -5 84.5 -24t38.5 -42.5t10 -43.5q0 -38 -19 -65.5t-47 -48.5t-57 -41q-34 -23 -59.5 -47t-25.5 -56q0 -28 18.5 -42
t46.5 -14q41 0 87 24l36 -94q-41 -19 -81.5 -28.5t-76.5 -9.5zM254 355q-29 0 -48 19.5t-19 47.5q0 35 27 61.5t62 26.5q29 0 48 -19t19 -47q0 -36 -27 -62.5t-62 -26.5z" />
    <glyph glyph-name="Agrave" unicode="&#xc0;" horiz-adv-x="585" 
d="M397 732l148 -732h-140l-39 210h-200l-97 -210h-124l344 732h108zM309 558l-103 -250h143zM310 923l89 -144h-104l-131 144h146z" />
    <glyph glyph-name="Aacute" unicode="&#xc1;" horiz-adv-x="585" 
d="M397 732l148 -732h-140l-39 210h-200l-97 -210h-124l344 732h108zM309 558l-103 -250h143zM424 923h146l-171 -144h-104z" />
    <glyph glyph-name="Acircumflex" unicode="&#xc2;" horiz-adv-x="585" 
d="M397 732l148 -732h-140l-39 210h-200l-97 -210h-124l344 732h108zM309 558l-103 -250h143zM356 832l-67 -44h-86l114 125h98l81 -125h-88z" />
    <glyph glyph-name="Atilde" unicode="&#xc3;" horiz-adv-x="585" 
d="M397 732l148 -732h-140l-39 210h-200l-97 -210h-124l344 732h108zM309 558l-103 -250h143zM534 905q-4 -32 -20.5 -58.5t-42.5 -42.5t-60 -16q-27 0 -48 10t-39 20t-37 10q-13 0 -28 -7.5t-17 -22.5h-65q5 32 21 58.5t42 42.5t60 16q28 0 48.5 -10t38.5 -20t37 -10
q13 0 28 7.5t18 22.5h64z" />
    <glyph glyph-name="Adieresis" unicode="&#xc4;" horiz-adv-x="585" 
d="M397 732l148 -732h-140l-39 210h-200l-97 -210h-124l344 732h108zM309 558l-103 -250h143zM335 861q0 -29 -22 -50.5t-51 -21.5q-24 0 -39.5 15.5t-15.5 38.5q0 29 22.5 50.5t50.5 21.5q24 0 39.5 -15.5t15.5 -38.5zM506 861q0 -29 -22.5 -50.5t-51.5 -21.5q-23 0 -39 16
t-16 38q0 29 22.5 50.5t50.5 21.5q24 0 40 -15.5t16 -38.5z" />
    <glyph glyph-name="Aring" unicode="&#xc5;" horiz-adv-x="585" 
d="M397 732l148 -732h-140l-39 210h-200l-97 -210h-124l344 732h108zM309 558l-103 -250h143zM376 1004q41 0 68.5 -28t27.5 -67q0 -32 -17 -59.5t-45 -43.5t-60 -16q-40 0 -67.5 27.5t-27.5 66.5q0 33 17 60t44.5 43.5t59.5 16.5zM366 937q-19 0 -31.5 -12.5t-12.5 -32.5
q0 -15 10 -25.5t26 -10.5q19 0 32 12.5t13 31.5q0 15 -10.5 26t-26.5 11z" />
    <glyph glyph-name="AE" unicode="&#xc6;" horiz-adv-x="862" 
d="M409 210h-205l-137 -210h-122l433 670l-5 62h514l-14 -99h-267l-29 -207h215l-14 -99h-215l-32 -228h267l-14 -99h-405zM268 308h154l44 325z" />
    <glyph glyph-name="Ccedilla" unicode="&#xc7;" horiz-adv-x="587" 
d="M304 -12q-75 0 -129 25t-89 68.5t-52 99.5t-17 117q0 79 26 158t76.5 144.5t122.5 105.5t164 40q34 0 75 -7t79 -22.5t62 -41.5l-81 -92q-23 32 -64 49t-79 17q-57 0 -101.5 -29.5t-75 -78t-46 -107t-15.5 -117.5q0 -62 18 -115.5t55.5 -86.5t95.5 -33q38 0 82.5 13
t95.5 39l36 -72q-39 -24 -76 -40.5t-76.5 -25t-86.5 -8.5zM360 -112q0 -36 -23.5 -58t-59.5 -33t-75 -17l-16 62q13 2 30.5 5t31.5 11t14 24q0 13 -15.5 21t-41.5 15l65 95h76l-36 -55q11 -5 22.5 -14.5t19.5 -23t8 -32.5z" />
    <glyph glyph-name="Egrave" unicode="&#xc8;" horiz-adv-x="507" 
d="M94 732h438l-13 -99h-293l-28 -207h224l-13 -99h-224l-30 -228h292l-13 -99h-423l90 671zM291 923l89 -144h-104l-131 144h146z" />
    <glyph glyph-name="Eacute" unicode="&#xc9;" horiz-adv-x="507" 
d="M94 732h438l-13 -99h-293l-28 -207h224l-13 -99h-224l-30 -228h292l-13 -99h-423l90 671zM405 923h146l-171 -144h-104z" />
    <glyph glyph-name="Ecircumflex" unicode="&#xca;" horiz-adv-x="507" 
d="M94 732h438l-13 -99h-293l-28 -207h224l-13 -99h-224l-30 -228h292l-13 -99h-423l90 671zM337 832l-67 -44h-86l114 125h98l81 -125h-88z" />
    <glyph glyph-name="Edieresis" unicode="&#xcb;" horiz-adv-x="507" 
d="M94 732h438l-13 -99h-293l-28 -207h224l-13 -99h-224l-30 -228h292l-13 -99h-423l90 671zM316 861q0 -29 -22 -50.5t-51 -21.5q-24 0 -39.5 15.5t-15.5 38.5q0 29 22.5 50.5t50.5 21.5q24 0 39.5 -15.5t15.5 -38.5zM487 861q0 -29 -22.5 -50.5t-51.5 -21.5q-23 0 -39 16
t-16 38q0 29 22.5 50.5t50.5 21.5q24 0 40 -15.5t16 -38.5z" />
    <glyph glyph-name="Igrave" unicode="&#xcc;" horiz-adv-x="250" 
d="M95 732h144l-97 -732h-131l90 671zM143 923l89 -144h-104l-131 144h146z" />
    <glyph glyph-name="Iacute" unicode="&#xcd;" horiz-adv-x="250" 
d="M95 732h144l-97 -732h-131l90 671zM257 923h146l-171 -144h-104z" />
    <glyph glyph-name="Icircumflex" unicode="&#xce;" horiz-adv-x="250" 
d="M95 732h144l-97 -732h-131l90 671zM189 832l-67 -44h-86l114 125h98l81 -125h-88z" />
    <glyph glyph-name="Idieresis" unicode="&#xcf;" horiz-adv-x="250" 
d="M95 732h144l-97 -732h-131l90 671zM168 861q0 -29 -22 -50.5t-51 -21.5q-24 0 -39.5 15.5t-15.5 38.5q0 29 22.5 50.5t50.5 21.5q24 0 39.5 -15.5t15.5 -38.5zM339 861q0 -29 -22.5 -50.5t-51.5 -21.5q-23 0 -39 16t-16 38q0 29 22.5 50.5t50.5 21.5q24 0 40 -15.5
t16 -38.5z" />
    <glyph glyph-name="Eth" unicode="&#xd0;" horiz-adv-x="664" 
d="M647 435q0 -85 -26.5 -163.5t-76.5 -139.5t-122 -96.5t-164 -35.5h-247l90 671l-7 61h263q69 0 123 -20.5t91.5 -59.5t56.5 -93.5t19 -123.5zM505 423q0 42 -9 79.5t-29 67t-52.5 46.5t-79.5 17h-108l-71 -534h110q51 0 90 19.5t67.5 52.5t46.5 75t26.5 87.5t8.5 89.5z
M7 410h331l-12 -85h-331z" />
    <glyph glyph-name="Ntilde" unicode="&#xd1;" horiz-adv-x="682" 
d="M254 732l216 -439q5 -10 12.5 -28t16.5 -38q2 19 2 38.5t2 38.5l57 428h111l-99 -737h-107l-245 502q-8 17 -15.5 34t-15.5 33q-1 -16 -1 -33.5t-2 -33.5l-67 -497h-108l89 671l-5 61h159zM583 905q-4 -32 -20.5 -58.5t-42.5 -42.5t-60 -16q-27 0 -48 10t-39 20t-37 10
q-13 0 -28 -7.5t-17 -22.5h-65q5 32 21 58.5t42 42.5t60 16q28 0 48.5 -10t38.5 -20t37 -10q13 0 28 7.5t18 22.5h64z" />
    <glyph glyph-name="Ograve" unicode="&#xd2;" horiz-adv-x="707" 
d="M300 -11q-70 0 -123 22.5t-88.5 63.5t-53.5 97t-18 123q0 86 25 166t74 143.5t120.5 101t164.5 37.5q95 0 159 -38t97 -106t33 -160q0 -86 -26 -166.5t-76 -144.5t-122.5 -101.5t-165.5 -37.5zM316 84q52 0 91.5 22.5t66.5 60t43.5 83.5t24 94t7.5 90q0 53 -14 102
t-48.5 80.5t-96.5 31.5q-52 0 -91 -22.5t-66 -60t-44 -83.5t-24.5 -94t-7.5 -90q0 -52 14 -101.5t48.5 -81t96.5 -31.5zM375 923l89 -144h-104l-131 144h146z" />
    <glyph glyph-name="Oacute" unicode="&#xd3;" horiz-adv-x="707" 
d="M300 -11q-70 0 -123 22.5t-88.5 63.5t-53.5 97t-18 123q0 86 25 166t74 143.5t120.5 101t164.5 37.5q95 0 159 -38t97 -106t33 -160q0 -86 -26 -166.5t-76 -144.5t-122.5 -101.5t-165.5 -37.5zM316 84q52 0 91.5 22.5t66.5 60t43.5 83.5t24 94t7.5 90q0 53 -14 102
t-48.5 80.5t-96.5 31.5q-52 0 -91 -22.5t-66 -60t-44 -83.5t-24.5 -94t-7.5 -90q0 -52 14 -101.5t48.5 -81t96.5 -31.5zM489 923h146l-171 -144h-104z" />
    <glyph glyph-name="Ocircumflex" unicode="&#xd4;" horiz-adv-x="707" 
d="M300 -11q-70 0 -123 22.5t-88.5 63.5t-53.5 97t-18 123q0 86 25 166t74 143.5t120.5 101t164.5 37.5q95 0 159 -38t97 -106t33 -160q0 -86 -26 -166.5t-76 -144.5t-122.5 -101.5t-165.5 -37.5zM316 84q52 0 91.5 22.5t66.5 60t43.5 83.5t24 94t7.5 90q0 53 -14 102
t-48.5 80.5t-96.5 31.5q-52 0 -91 -22.5t-66 -60t-44 -83.5t-24.5 -94t-7.5 -90q0 -52 14 -101.5t48.5 -81t96.5 -31.5zM421 832l-67 -44h-86l114 125h98l81 -125h-88z" />
    <glyph glyph-name="Otilde" unicode="&#xd5;" horiz-adv-x="707" 
d="M300 -11q-70 0 -123 22.5t-88.5 63.5t-53.5 97t-18 123q0 86 25 166t74 143.5t120.5 101t164.5 37.5q95 0 159 -38t97 -106t33 -160q0 -86 -26 -166.5t-76 -144.5t-122.5 -101.5t-165.5 -37.5zM316 84q52 0 91.5 22.5t66.5 60t43.5 83.5t24 94t7.5 90q0 53 -14 102
t-48.5 80.5t-96.5 31.5q-52 0 -91 -22.5t-66 -60t-44 -83.5t-24.5 -94t-7.5 -90q0 -52 14 -101.5t48.5 -81t96.5 -31.5zM599 905q-4 -32 -20.5 -58.5t-42.5 -42.5t-60 -16q-27 0 -48 10t-39 20t-37 10q-13 0 -28 -7.5t-17 -22.5h-65q5 32 21 58.5t42 42.5t60 16
q28 0 48.5 -10t38.5 -20t37 -10q13 0 28 7.5t18 22.5h64z" />
    <glyph glyph-name="Odieresis" unicode="&#xd6;" horiz-adv-x="707" 
d="M300 -11q-70 0 -123 22.5t-88.5 63.5t-53.5 97t-18 123q0 86 25 166t74 143.5t120.5 101t164.5 37.5q95 0 159 -38t97 -106t33 -160q0 -86 -26 -166.5t-76 -144.5t-122.5 -101.5t-165.5 -37.5zM316 84q52 0 91.5 22.5t66.5 60t43.5 83.5t24 94t7.5 90q0 53 -14 102
t-48.5 80.5t-96.5 31.5q-52 0 -91 -22.5t-66 -60t-44 -83.5t-24.5 -94t-7.5 -90q0 -52 14 -101.5t48.5 -81t96.5 -31.5zM400 861q0 -29 -22 -50.5t-51 -21.5q-24 0 -39.5 15.5t-15.5 38.5q0 29 22.5 50.5t50.5 21.5q24 0 39.5 -15.5t15.5 -38.5zM571 861q0 -29 -22.5 -50.5
t-51.5 -21.5q-23 0 -39 16t-16 38q0 29 22.5 50.5t50.5 21.5q24 0 40 -15.5t16 -38.5z" />
    <glyph glyph-name="multiply" unicode="&#xd7;" horiz-adv-x="534" 
d="M258 186l-165 -144l-53 62l165 144l-125 145l71 62l125 -144l165 144l53 -62l-165 -145l125 -144l-71 -62z" />
    <glyph glyph-name="Oslash" unicode="&#xd8;" horiz-adv-x="707" 
d="M300 -11q-70 0 -123 22.5t-88.5 63.5t-53.5 97t-18 123q0 86 25 166t74 143.5t120.5 101t164.5 37.5q95 0 159 -38t97 -106t33 -160q0 -86 -26 -166.5t-76 -144.5t-122.5 -101.5t-165.5 -37.5zM316 84q52 0 91.5 22.5t66.5 60t43.5 83.5t24 94t7.5 90q0 53 -14 102
t-48.5 80.5t-96.5 31.5q-52 0 -91 -22.5t-66 -60t-44 -83.5t-24.5 -94t-7.5 -90q0 -52 14 -101.5t48.5 -81t96.5 -31.5zM70 -54l-59 47l632 801l60 -48z" />
    <glyph glyph-name="Ugrave" unicode="&#xd9;" horiz-adv-x="659" 
d="M234 732l-65 -489q-1 -7 -1.5 -13.5t-0.5 -13.5q0 -41 16.5 -70.5t46.5 -45.5t71 -16q49 0 86 22.5t60 59.5t28 79l66 487h107l-61 -454q-12 -88 -46.5 -153t-99 -100.5t-167.5 -35.5q-56 0 -100 14t-75 42t-47.5 71t-16.5 100q0 16 1 31t3 31l53 394l-7 60h149zM357 923
l89 -144h-104l-131 144h146z" />
    <glyph glyph-name="Uacute" unicode="&#xda;" horiz-adv-x="659" 
d="M234 732l-65 -489q-1 -7 -1.5 -13.5t-0.5 -13.5q0 -41 16.5 -70.5t46.5 -45.5t71 -16q49 0 86 22.5t60 59.5t28 79l66 487h107l-61 -454q-12 -88 -46.5 -153t-99 -100.5t-167.5 -35.5q-56 0 -100 14t-75 42t-47.5 71t-16.5 100q0 16 1 31t3 31l53 394l-7 60h149zM471 923
h146l-171 -144h-104z" />
    <glyph glyph-name="Ucircumflex" unicode="&#xdb;" horiz-adv-x="659" 
d="M234 732l-65 -489q-1 -7 -1.5 -13.5t-0.5 -13.5q0 -41 16.5 -70.5t46.5 -45.5t71 -16q49 0 86 22.5t60 59.5t28 79l66 487h107l-61 -454q-12 -88 -46.5 -153t-99 -100.5t-167.5 -35.5q-56 0 -100 14t-75 42t-47.5 71t-16.5 100q0 16 1 31t3 31l53 394l-7 60h149zM403 832
l-67 -44h-86l114 125h98l81 -125h-88z" />
    <glyph glyph-name="Udieresis" unicode="&#xdc;" horiz-adv-x="659" 
d="M234 732l-65 -489q-1 -7 -1.5 -13.5t-0.5 -13.5q0 -41 16.5 -70.5t46.5 -45.5t71 -16q49 0 86 22.5t60 59.5t28 79l66 487h107l-61 -454q-12 -88 -46.5 -153t-99 -100.5t-167.5 -35.5q-56 0 -100 14t-75 42t-47.5 71t-16.5 100q0 16 1 31t3 31l53 394l-7 60h149zM382 861
q0 -29 -22 -50.5t-51 -21.5q-24 0 -39.5 15.5t-15.5 38.5q0 29 22.5 50.5t50.5 21.5q24 0 39.5 -15.5t15.5 -38.5zM553 861q0 -29 -22.5 -50.5t-51.5 -21.5q-23 0 -39 16t-16 38q0 29 22.5 50.5t50.5 21.5q24 0 40 -15.5t16 -38.5z" />
    <glyph glyph-name="Yacute" unicode="&#xdd;" horiz-adv-x="523" 
d="M181 732l96 -260l171 260h130l-263 -405l-44 -327h-130l43 330l-149 402h146zM395 923h146l-171 -144h-104z" />
    <glyph glyph-name="Thorn" unicode="&#xde;" horiz-adv-x="575" 
d="M258 732l-15 -115h74q63 0 114.5 -17t82 -56t30.5 -107t-24.5 -117t-65 -80t-91 -46t-102.5 -15h-78l-24 -179h-130l89 671l-5 61h145zM197 276h80q38 0 66.5 19t44 52.5t15.5 74.5q0 44 -23 70t-70 26h-81z" />
    <glyph glyph-name="germandbls" unicode="&#xdf;" horiz-adv-x="536" 
d="M-203 -185l47 84l10.5 -9.5t28 -19.5t37.5 -10q38 0 58 19.5t27 76.5l61 450h-72l12 91q25 0 41 6t26.5 17.5t16.5 29.5q23 64 55 107t77 65t108 22q46 0 85.5 -14t64 -44.5t24.5 -81.5q0 -48 -16 -80.5t-40 -54.5t-48 -37.5t-40 -30t-16 -32.5q0 -23 18 -37.5t45 -26
t54 -26.5t45 -40t18 -67q0 -61 -29.5 -102t-77 -61.5t-102.5 -20.5q-37 0 -77 12t-65 32l52 82q16 -15 40 -29t52 -14q32 0 56 21t24 55q0 25 -18.5 40t-45 26.5t-53.5 26.5t-45.5 38.5t-18.5 63.5t16 66.5t40 46t48 38t40 40.5t16 54q0 24 -16.5 42t-41.5 18
q-34 0 -56.5 -18t-36.5 -46.5t-21.5 -60t-11.5 -58.5l-68 -506q-12 -88 -62 -138t-134 -50q-43 0 -72 11.5t-44 22.5z" />
    <glyph glyph-name="agrave" unicode="&#xe0;" horiz-adv-x="513" 
d="M421 500h63q-15 -102 -25.5 -169t-16.5 -107.5t-9 -62.5t-4 -33t-1 -19q0 -13 5 -24.5t20 -11.5q10 0 24 4t24 8l17 -63q-22 -14 -51 -22.5t-55 -8.5q-30 0 -53 19.5t-29 48.5h-4q-29 -39 -68.5 -55t-71.5 -16q-58 0 -94.5 29.5t-53.5 78t-17 105.5q0 55 15.5 109.5
t47 99.5t79 72t111.5 27q26 0 65.5 -13t66.5 -46v-85q-34 32 -65 47t-61 15q-32 0 -58 -15.5t-45 -45t-29 -70.5t-10 -92q0 -54 16 -94t55 -40q32 0 55 22.5t39 60.5t27 85t18 96l11 73zM267 735l85 -165h-103l-127 165h145z" />
    <glyph glyph-name="aacute" unicode="&#xe1;" horiz-adv-x="513" 
d="M421 500h63q-15 -102 -25.5 -169t-16.5 -107.5t-9 -62.5t-4 -33t-1 -19q0 -13 5 -24.5t20 -11.5q10 0 24 4t24 8l17 -63q-22 -14 -51 -22.5t-55 -8.5q-30 0 -53 19.5t-29 48.5h-4q-29 -39 -68.5 -55t-71.5 -16q-58 0 -94.5 29.5t-53.5 78t-17 105.5q0 55 15.5 109.5
t47 99.5t79 72t111.5 27q26 0 65.5 -13t66.5 -46v-85q-34 32 -65 47t-61 15q-32 0 -58 -15.5t-45 -45t-29 -70.5t-10 -92q0 -54 16 -94t55 -40q32 0 55 22.5t39 60.5t27 85t18 96l11 73zM385 735h145l-175 -165h-103z" />
    <glyph glyph-name="acircumflex" unicode="&#xe2;" horiz-adv-x="513" 
d="M421 500h63q-15 -102 -25.5 -169t-16.5 -107.5t-9 -62.5t-4 -33t-1 -19q0 -13 5 -24.5t20 -11.5q10 0 24 4t24 8l17 -63q-22 -14 -51 -22.5t-55 -8.5q-30 0 -53 19.5t-29 48.5h-4q-29 -39 -68.5 -55t-71.5 -16q-58 0 -94.5 29.5t-53.5 78t-17 105.5q0 55 15.5 109.5
t47 99.5t79 72t111.5 27q26 0 65.5 -13t66.5 -46v-85q-34 32 -65 47t-61 15q-32 0 -58 -15.5t-45 -45t-29 -70.5t-10 -92q0 -54 16 -94t55 -40q32 0 55 22.5t39 60.5t27 85t18 96l11 73zM314 643l-69 -64h-86l116 145h98l79 -145h-88z" />
    <glyph glyph-name="atilde" unicode="&#xe3;" horiz-adv-x="513" 
d="M421 500h63q-15 -102 -25.5 -169t-16.5 -107.5t-9 -62.5t-4 -33t-1 -19q0 -13 5 -24.5t20 -11.5q10 0 24 4t24 8l17 -63q-22 -14 -51 -22.5t-55 -8.5q-30 0 -53 19.5t-29 48.5h-4q-29 -39 -68.5 -55t-71.5 -16q-58 0 -94.5 29.5t-53.5 78t-17 105.5q0 55 15.5 109.5
t47 99.5t79 72t111.5 27q26 0 65.5 -13t66.5 -46v-85q-34 32 -65 47t-61 15q-32 0 -58 -15.5t-45 -45t-29 -70.5t-10 -92q0 -54 16 -94t55 -40q32 0 55 22.5t39 60.5t27 85t18 96l11 73zM491 706q-4 -32 -20.5 -58.5t-42.5 -42.5t-60 -16q-27 0 -48 10t-39 20t-37 10
q-13 0 -28 -7.5t-17 -22.5h-65q5 32 21 58.5t42 42.5t60 16q28 0 48.5 -10t38.5 -20t37 -10q13 0 28 7.5t18 22.5h64z" />
    <glyph glyph-name="adieresis" unicode="&#xe4;" horiz-adv-x="513" 
d="M421 500h63q-15 -102 -25.5 -169t-16.5 -107.5t-9 -62.5t-4 -33t-1 -19q0 -13 5 -24.5t20 -11.5q10 0 24 4t24 8l17 -63q-22 -14 -51 -22.5t-55 -8.5q-30 0 -53 19.5t-29 48.5h-4q-29 -39 -68.5 -55t-71.5 -16q-58 0 -94.5 29.5t-53.5 78t-17 105.5q0 55 15.5 109.5
t47 99.5t79 72t111.5 27q26 0 65.5 -13t66.5 -46v-85q-34 32 -65 47t-61 15q-32 0 -58 -15.5t-45 -45t-29 -70.5t-10 -92q0 -54 16 -94t55 -40q32 0 55 22.5t39 60.5t27 85t18 96l11 73zM292 661q0 -29 -22 -50.5t-51 -21.5q-24 0 -39.5 15.5t-15.5 38.5q0 29 22.5 50.5
t50.5 21.5q24 0 39.5 -15.5t15.5 -38.5zM463 661q0 -29 -22.5 -50.5t-51.5 -21.5q-23 0 -39 16t-16 38q0 29 22.5 50.5t50.5 21.5q24 0 40 -15.5t16 -38.5z" />
    <glyph glyph-name="aring" unicode="&#xe5;" horiz-adv-x="513" 
d="M421 500h63q-15 -102 -25.5 -169t-16.5 -107.5t-9 -62.5t-4 -33t-1 -19q0 -13 5 -24.5t20 -11.5q10 0 24 4t24 8l17 -63q-22 -14 -51 -22.5t-55 -8.5q-30 0 -53 19.5t-29 48.5h-4q-29 -39 -68.5 -55t-71.5 -16q-58 0 -94.5 29.5t-53.5 78t-17 105.5q0 55 15.5 109.5
t47 99.5t79 72t111.5 27q26 0 65.5 -13t66.5 -46v-85q-34 32 -65 47t-61 15q-32 0 -58 -15.5t-45 -45t-29 -70.5t-10 -92q0 -54 16 -94t55 -40q32 0 55 22.5t39 60.5t27 85t18 96l11 73zM328 769q41 0 68.5 -28t27.5 -67q0 -32 -17 -59.5t-45 -43.5t-60 -16
q-40 0 -67.5 27.5t-27.5 66.5q0 33 17 60t44.5 43.5t59.5 16.5zM319 702q-19 0 -32 -13t-13 -33q0 -15 9.5 -25t25.5 -10q19 0 32.5 13t13.5 32q0 15 -10 25.5t-26 10.5z" />
    <glyph glyph-name="ae" unicode="&#xe6;" horiz-adv-x="776" 
d="M364 107q-16 -32 -41 -59t-59 -43.5t-78 -16.5q-58 0 -94.5 29.5t-53.5 78t-17 105.5q0 55 15.5 109.5t47 99.5t79 72t111.5 27q18 0 45 -5t57.5 -22t57.5 -53l-28 -64q-34 32 -65 47t-61 15q-32 0 -58 -15.5t-45 -45t-29 -70.5t-10 -92q0 -54 16 -94t55 -40
q37 0 61.5 28.5t41 75t26.5 101.5zM560 76q41 0 80 21t64 40l42 -83l-13.5 -10t-39.5 -23t-62.5 -23t-82.5 -10q-78 0 -125.5 29t-69.5 78.5t-22 108.5q0 57 18.5 111.5t53.5 98.5t86 70t115 26q43 0 79 -13.5t57.5 -41t21.5 -71.5q0 -25 -14 -58t-50 -64t-100 -50.5
t-163 -17.5v83q44 0 77 6.5t57.5 18t39.5 25.5t22.5 29.5t7.5 30.5q0 17 -11 28t-33 11q-36 0 -63.5 -17.5t-46 -47.5t-28 -66t-9.5 -74q0 -40 11 -73t35.5 -52.5t65.5 -19.5z" />
    <glyph glyph-name="ccedilla" unicode="&#xe7;" horiz-adv-x="422" 
d="M373 378q-18 19 -42 31.5t-53 12.5q-35 0 -61.5 -17t-43.5 -46.5t-25.5 -65.5t-8.5 -74q0 -76 27.5 -110.5t77.5 -34.5q26 0 56 8t65 23l27 -70q-40 -22 -80 -34.5t-90 -12.5q-71 0 -115 30t-64.5 79.5t-20.5 109.5q0 66 20.5 121t57 96t84.5 63.5t103 22.5q37 0 76 -11
t79 -37zM273 -112q0 -36 -23.5 -58t-59.5 -33t-75 -17l-16 62q13 2 30.5 5t31.5 11t14 24q0 13 -15.5 21t-41.5 15l65 95h76l-36 -55q11 -5 22.5 -14.5t19.5 -23t8 -32.5z" />
    <glyph glyph-name="egrave" unicode="&#xe8;" horiz-adv-x="466" 
d="M294 510q43 0 79 -13.5t57.5 -41t21.5 -71.5q0 -25 -14 -58t-50 -64t-100 -50.5t-163 -17.5v83q54 0 93 10t63.5 26.5t36 36t11.5 37.5q0 17 -11 28t-33 11q-36 0 -63.5 -17.5t-46 -47.5t-28 -66t-9.5 -74q0 -76 31.5 -110.5t83.5 -34.5q32 0 70 12t78 34l35 -68
l-13.5 -10t-39.5 -23t-62.5 -23t-82.5 -10q-78 0 -125.5 29t-69.5 78.5t-22 108.5q0 57 18.5 111.5t53.5 98.5t86 70t115 26zM262 735l85 -165h-103l-127 165h145z" />
    <glyph glyph-name="eacute" unicode="&#xe9;" horiz-adv-x="466" 
d="M294 510q43 0 79 -13.5t57.5 -41t21.5 -71.5q0 -25 -14 -58t-50 -64t-100 -50.5t-163 -17.5v83q54 0 93 10t63.5 26.5t36 36t11.5 37.5q0 17 -11 28t-33 11q-36 0 -63.5 -17.5t-46 -47.5t-28 -66t-9.5 -74q0 -76 31.5 -110.5t83.5 -34.5q32 0 70 12t78 34l35 -68
l-13.5 -10t-39.5 -23t-62.5 -23t-82.5 -10q-78 0 -125.5 29t-69.5 78.5t-22 108.5q0 57 18.5 111.5t53.5 98.5t86 70t115 26zM380 735h145l-175 -165h-103z" />
    <glyph glyph-name="ecircumflex" unicode="&#xea;" horiz-adv-x="466" 
d="M294 510q43 0 79 -13.5t57.5 -41t21.5 -71.5q0 -25 -14 -58t-50 -64t-100 -50.5t-163 -17.5v83q54 0 93 10t63.5 26.5t36 36t11.5 37.5q0 17 -11 28t-33 11q-36 0 -63.5 -17.5t-46 -47.5t-28 -66t-9.5 -74q0 -76 31.5 -110.5t83.5 -34.5q32 0 70 12t78 34l35 -68
l-13.5 -10t-39.5 -23t-62.5 -23t-82.5 -10q-78 0 -125.5 29t-69.5 78.5t-22 108.5q0 57 18.5 111.5t53.5 98.5t86 70t115 26zM309 643l-69 -64h-86l116 145h98l79 -145h-88z" />
    <glyph glyph-name="edieresis" unicode="&#xeb;" horiz-adv-x="466" 
d="M294 510q43 0 79 -13.5t57.5 -41t21.5 -71.5q0 -25 -14 -58t-50 -64t-100 -50.5t-163 -17.5v83q54 0 93 10t63.5 26.5t36 36t11.5 37.5q0 17 -11 28t-33 11q-36 0 -63.5 -17.5t-46 -47.5t-28 -66t-9.5 -74q0 -76 31.5 -110.5t83.5 -34.5q32 0 70 12t78 34l35 -68
l-13.5 -10t-39.5 -23t-62.5 -23t-82.5 -10q-78 0 -125.5 29t-69.5 78.5t-22 108.5q0 57 18.5 111.5t53.5 98.5t86 70t115 26zM287 661q0 -29 -22 -50.5t-51 -21.5q-24 0 -39.5 15.5t-15.5 38.5q0 29 22.5 50.5t50.5 21.5q24 0 39.5 -15.5t15.5 -38.5zM458 661
q0 -29 -22.5 -50.5t-51.5 -21.5q-23 0 -39 16t-16 38q0 29 22.5 50.5t50.5 21.5q24 0 40 -15.5t16 -38.5z" />
    <glyph glyph-name="igrave" unicode="&#xec;" horiz-adv-x="228" 
d="M151 0h-124l59 443l-3 54h124l-59 -442zM122 735l85 -165h-103l-127 165h145z" />
    <glyph glyph-name="iacute" unicode="&#xed;" horiz-adv-x="228" 
d="M151 0h-124l59 443l-3 54h124l-59 -442zM240 735h145l-175 -165h-103z" />
    <glyph glyph-name="icircumflex" unicode="&#xee;" horiz-adv-x="228" 
d="M151 0h-124l59 443l-3 54h124l-59 -442zM169 643l-69 -64h-86l116 145h98l79 -145h-88z" />
    <glyph glyph-name="idieresis" unicode="&#xef;" horiz-adv-x="228" 
d="M151 0h-124l59 443l-3 54h124l-59 -442zM147 661q0 -29 -22 -50.5t-51 -21.5q-24 0 -39.5 15.5t-15.5 38.5q0 29 22.5 50.5t50.5 21.5q24 0 39.5 -15.5t15.5 -38.5zM318 661q0 -29 -22.5 -50.5t-51.5 -21.5q-23 0 -39 16t-16 38q0 29 22.5 50.5t50.5 21.5q24 0 40 -15.5
t16 -38.5z" />
    <glyph glyph-name="eth" unicode="&#xf0;" horiz-adv-x="536" 
d="M284 510q8 0 15.5 -0.5t14.5 -1.5q-12 29 -25 57.5t-29 53.5l-95 -51l-35 58l94 51q-11 15 -21.5 28.5t-20.5 25.5l91 52q11 -12 22 -26t24 -29l102 55l30 -60l-94 -51q33 -49 61.5 -108t46.5 -124t18 -133q0 -64 -18.5 -121t-53.5 -101.5t-84.5 -70t-111.5 -25.5
q-64 0 -108.5 28.5t-67.5 77.5t-23 111q0 60 20 115t56 97.5t85 67t107 24.5zM273 428q-34 0 -57 -18.5t-37.5 -48t-22.5 -61.5t-11 -59.5t-3 -42.5q0 -31 7 -60t25.5 -47.5t51.5 -18.5q35 0 58.5 18t38 47t22 61.5t10 61t2.5 46.5q0 31 -7 58.5t-25 45.5t-52 18z" />
    <glyph glyph-name="ntilde" unicode="&#xf1;" horiz-adv-x="492" 
d="M185 508q5 -16 6.5 -31.5t1.5 -31.5q21 17 46 32t52.5 24.5t54.5 9.5q32 0 54.5 -8t37.5 -23.5t22 -38.5t7 -54q0 -27 -3 -51l-38 -282l3 -54h-125l43 324q2 9 2.5 18t0.5 18q0 18 -5 30t-15.5 18t-29.5 6q-12 0 -27.5 -6t-31.5 -15t-29.5 -18.5t-21.5 -17.5l-49 -357
h-114l48 356q2 14 2.5 28.5t0.5 29.5q0 12 -1 26.5t-3.5 28.5t-9.5 24zM487 706q-4 -32 -20.5 -58.5t-42.5 -42.5t-60 -16q-27 0 -48 10t-39 20t-37 10q-13 0 -28 -7.5t-17 -22.5h-65q5 32 21 58.5t42 42.5t60 16q28 0 48.5 -10t38.5 -20t37 -10q13 0 28 7.5t18 22.5h64z
" />
    <glyph glyph-name="ograve" unicode="&#xf2;" horiz-adv-x="496" 
d="M213 -12q-68 0 -110.5 30t-62 78.5t-19.5 104.5q0 54 17.5 109t50.5 100t82 72.5t112 27.5q69 0 111 -30t61.5 -78.5t19.5 -104.5q0 -54 -17.5 -109t-50.5 -100t-82 -72.5t-112 -27.5zM224 69q33 0 58 20t42 54t25.5 74.5t8.5 80.5q0 36 -8 65.5t-26.5 47.5t-51.5 18
t-58 -20t-42 -54t-25.5 -74t-8.5 -81q0 -35 8 -65t27 -48t51 -18zM257 735l85 -165h-103l-127 165h145z" />
    <glyph glyph-name="oacute" unicode="&#xf3;" horiz-adv-x="496" 
d="M213 -12q-68 0 -110.5 30t-62 78.5t-19.5 104.5q0 54 17.5 109t50.5 100t82 72.5t112 27.5q69 0 111 -30t61.5 -78.5t19.5 -104.5q0 -54 -17.5 -109t-50.5 -100t-82 -72.5t-112 -27.5zM224 69q33 0 58 20t42 54t25.5 74.5t8.5 80.5q0 36 -8 65.5t-26.5 47.5t-51.5 18
t-58 -20t-42 -54t-25.5 -74t-8.5 -81q0 -35 8 -65t27 -48t51 -18zM375 735h145l-175 -165h-103z" />
    <glyph glyph-name="ocircumflex" unicode="&#xf4;" horiz-adv-x="496" 
d="M213 -12q-68 0 -110.5 30t-62 78.5t-19.5 104.5q0 54 17.5 109t50.5 100t82 72.5t112 27.5q69 0 111 -30t61.5 -78.5t19.5 -104.5q0 -54 -17.5 -109t-50.5 -100t-82 -72.5t-112 -27.5zM224 69q33 0 58 20t42 54t25.5 74.5t8.5 80.5q0 36 -8 65.5t-26.5 47.5t-51.5 18
t-58 -20t-42 -54t-25.5 -74t-8.5 -81q0 -35 8 -65t27 -48t51 -18zM304 643l-69 -64h-86l116 145h98l79 -145h-88z" />
    <glyph glyph-name="otilde" unicode="&#xf5;" horiz-adv-x="496" 
d="M213 -12q-68 0 -110.5 30t-62 78.5t-19.5 104.5q0 54 17.5 109t50.5 100t82 72.5t112 27.5q69 0 111 -30t61.5 -78.5t19.5 -104.5q0 -54 -17.5 -109t-50.5 -100t-82 -72.5t-112 -27.5zM224 69q33 0 58 20t42 54t25.5 74.5t8.5 80.5q0 36 -8 65.5t-26.5 47.5t-51.5 18
t-58 -20t-42 -54t-25.5 -74t-8.5 -81q0 -35 8 -65t27 -48t51 -18zM481 706q-4 -32 -20.5 -58.5t-42.5 -42.5t-60 -16q-27 0 -48 10t-39 20t-37 10q-13 0 -28 -7.5t-17 -22.5h-65q5 32 21 58.5t42 42.5t60 16q28 0 48.5 -10t38.5 -20t37 -10q13 0 28 7.5t18 22.5h64z" />
    <glyph glyph-name="odieresis" unicode="&#xf6;" horiz-adv-x="496" 
d="M213 -12q-68 0 -110.5 30t-62 78.5t-19.5 104.5q0 54 17.5 109t50.5 100t82 72.5t112 27.5q69 0 111 -30t61.5 -78.5t19.5 -104.5q0 -54 -17.5 -109t-50.5 -100t-82 -72.5t-112 -27.5zM224 69q33 0 58 20t42 54t25.5 74.5t8.5 80.5q0 36 -8 65.5t-26.5 47.5t-51.5 18
t-58 -20t-42 -54t-25.5 -74t-8.5 -81q0 -35 8 -65t27 -48t51 -18zM282 661q0 -29 -22 -50.5t-51 -21.5q-24 0 -39.5 15.5t-15.5 38.5q0 29 22.5 50.5t50.5 21.5q24 0 39.5 -15.5t15.5 -38.5zM453 661q0 -29 -22.5 -50.5t-51.5 -21.5q-23 0 -39 16t-16 38q0 29 22.5 50.5
t50.5 21.5q24 0 40 -15.5t16 -38.5z" />
    <glyph glyph-name="divide" unicode="&#xf7;" horiz-adv-x="630" 
d="M419 442q0 -35 -27 -61.5t-62 -26.5q-29 0 -48 19t-19 47q0 36 27 62.5t62 26.5q29 0 48 -19t19 -48zM72 292h498l-12 -88h-498zM368 77q0 -24 -13 -44.5t-33 -32.5t-43 -12q-29 0 -48.5 19.5t-19.5 47.5q0 35 27.5 61.5t62.5 26.5q29 0 48 -19t19 -47z" />
    <glyph glyph-name="oslash" unicode="&#xf8;" horiz-adv-x="496" 
d="M213 -12q-68 0 -110.5 30t-62 78.5t-19.5 104.5q0 54 17.5 109t50.5 100t82 72.5t112 27.5q69 0 111 -30t61.5 -78.5t19.5 -104.5q0 -54 -17.5 -109t-50.5 -100t-82 -72.5t-112 -27.5zM224 69q33 0 58 20t42 54t25.5 74.5t8.5 80.5q0 36 -8 65.5t-26.5 47.5t-51.5 18
t-58 -20t-42 -54t-25.5 -74t-8.5 -81q0 -35 8 -65t27 -48t51 -18zM40 -83l-57 44l481 636l59 -44z" />
    <glyph glyph-name="ugrave" unicode="&#xf9;" horiz-adv-x="499" 
d="M192 497l-43 -328q-1 -7 -1.5 -13.5t-0.5 -13.5q0 -25 10.5 -41.5t38.5 -16.5q26 0 46.5 15.5t35.5 41t25 55.5t16.5 59t9.5 52l19 146l-6 44h128l-54 -367q-1 -5 -1.5 -10.5t-0.5 -10.5q0 -13 4.5 -24.5t20.5 -11.5q10 0 24 4t24 8l17 -63q-14 -9 -33 -16t-38.5 -11
t-36.5 -4q-20 0 -37.5 9t-29 24.5t-15.5 34.5h-4q-13 -17 -31.5 -30t-39.5 -22t-43 -13.5t-43 -4.5q-61 0 -93.5 30.5t-32.5 91.5q0 17 3 35l40 307l-5 44h127zM249 735l85 -165h-103l-127 165h145z" />
    <glyph glyph-name="uacute" unicode="&#xfa;" horiz-adv-x="499" 
d="M192 497l-43 -328q-1 -7 -1.5 -13.5t-0.5 -13.5q0 -25 10.5 -41.5t38.5 -16.5q26 0 46.5 15.5t35.5 41t25 55.5t16.5 59t9.5 52l19 146l-6 44h128l-54 -367q-1 -5 -1.5 -10.5t-0.5 -10.5q0 -13 4.5 -24.5t20.5 -11.5q10 0 24 4t24 8l17 -63q-14 -9 -33 -16t-38.5 -11
t-36.5 -4q-20 0 -37.5 9t-29 24.5t-15.5 34.5h-4q-13 -17 -31.5 -30t-39.5 -22t-43 -13.5t-43 -4.5q-61 0 -93.5 30.5t-32.5 91.5q0 17 3 35l40 307l-5 44h127zM367 735h145l-175 -165h-103z" />
    <glyph glyph-name="ucircumflex" unicode="&#xfb;" horiz-adv-x="499" 
d="M192 497l-43 -328q-1 -7 -1.5 -13.5t-0.5 -13.5q0 -25 10.5 -41.5t38.5 -16.5q26 0 46.5 15.5t35.5 41t25 55.5t16.5 59t9.5 52l19 146l-6 44h128l-54 -367q-1 -5 -1.5 -10.5t-0.5 -10.5q0 -13 4.5 -24.5t20.5 -11.5q10 0 24 4t24 8l17 -63q-14 -9 -33 -16t-38.5 -11
t-36.5 -4q-20 0 -37.5 9t-29 24.5t-15.5 34.5h-4q-13 -17 -31.5 -30t-39.5 -22t-43 -13.5t-43 -4.5q-61 0 -93.5 30.5t-32.5 91.5q0 17 3 35l40 307l-5 44h127zM296 643l-69 -64h-86l116 145h98l79 -145h-88z" />
    <glyph glyph-name="udieresis" unicode="&#xfc;" horiz-adv-x="499" 
d="M192 497l-43 -328q-1 -7 -1.5 -13.5t-0.5 -13.5q0 -25 10.5 -41.5t38.5 -16.5q26 0 46.5 15.5t35.5 41t25 55.5t16.5 59t9.5 52l19 146l-6 44h128l-54 -367q-1 -5 -1.5 -10.5t-0.5 -10.5q0 -13 4.5 -24.5t20.5 -11.5q10 0 24 4t24 8l17 -63q-14 -9 -33 -16t-38.5 -11
t-36.5 -4q-20 0 -37.5 9t-29 24.5t-15.5 34.5h-4q-13 -17 -31.5 -30t-39.5 -22t-43 -13.5t-43 -4.5q-61 0 -93.5 30.5t-32.5 91.5q0 17 3 35l40 307l-5 44h127zM274 661q0 -29 -22 -50.5t-51 -21.5q-24 0 -39.5 15.5t-15.5 38.5q0 29 22.5 50.5t50.5 21.5q24 0 39.5 -15.5
t15.5 -38.5zM445 661q0 -29 -22.5 -50.5t-51.5 -21.5q-23 0 -39 16t-16 38q0 29 22.5 50.5t50.5 21.5q24 0 40 -15.5t16 -38.5z" />
    <glyph glyph-name="yacute" unicode="&#xfd;" horiz-adv-x="419" 
d="M-48 -150q33 0 59 15t46.5 38.5t36 49.5t26.5 48l-105 496h122q12 -56 21.5 -99t17.5 -81.5t13 -79t7 -91.5q14 47 29 86t33.5 78t40 84t48.5 103h112l-233 -500q-31 -67 -67 -118t-87 -80t-129 -29zM330 735h145l-175 -165h-103z" />
    <glyph glyph-name="thorn" unicode="&#xfe;" horiz-adv-x="526" 
d="M334 510q60 0 98 -29.5t55.5 -77.5t17.5 -102q0 -57 -17 -112.5t-49.5 -100.5t-81 -72t-111.5 -27q-24 0 -53.5 7.5t-47.5 24.5l-25 -191l5 -55h-127l125 940l-3 54h128l-41 -308q25 23 60 36t67 13zM310 426q-29 0 -51 -15.5t-38 -42.5t-27 -61.5t-18.5 -73.5t-12.5 -79
q-1 -10 -2.5 -21t-3.5 -22q21 -21 42 -30.5t44 -9.5q40 0 67 24.5t43 61.5t23 75t7 65q0 36 -6 65t-21.5 46.5t-45.5 17.5z" />
    <glyph glyph-name="ydieresis" unicode="&#xff;" horiz-adv-x="419" 
d="M-48 -150q33 0 59 15t46.5 38.5t36 49.5t26.5 48l-105 496h122q12 -56 21.5 -99t17.5 -81.5t13 -79t7 -91.5q14 47 29 86t33.5 78t40 84t48.5 103h112l-233 -500q-31 -67 -67 -118t-87 -80t-129 -29zM237 661q0 -29 -22 -50.5t-51 -21.5q-24 0 -39.5 15.5t-15.5 38.5
q0 29 22.5 50.5t50.5 21.5q24 0 39.5 -15.5t15.5 -38.5zM408 661q0 -29 -22.5 -50.5t-51.5 -21.5q-23 0 -39 16t-16 38q0 29 22.5 50.5t50.5 21.5q24 0 40 -15.5t16 -38.5z" />
    <glyph glyph-name="Amacron" unicode="&#x100;" horiz-adv-x="585" 
d="M397 732l148 -732h-140l-39 210h-200l-97 -210h-124l344 732h108zM309 558l-103 -250h143zM214 889h295l-10 -74h-295z" />
    <glyph glyph-name="amacron" unicode="&#x101;" horiz-adv-x="513" 
d="M421 500h63q-15 -102 -25.5 -169t-16.5 -107.5t-9 -62.5t-4 -33t-1 -19q0 -13 5 -24.5t20 -11.5q10 0 24 4t24 8l17 -63q-22 -14 -51 -22.5t-55 -8.5q-30 0 -53 19.5t-29 48.5h-4q-29 -39 -68.5 -55t-71.5 -16q-58 0 -94.5 29.5t-53.5 78t-17 105.5q0 55 15.5 109.5
t47 99.5t79 72t111.5 27q26 0 65.5 -13t66.5 -46v-85q-34 32 -65 47t-61 15q-32 0 -58 -15.5t-45 -45t-29 -70.5t-10 -92q0 -54 16 -94t55 -40q32 0 55 22.5t39 60.5t27 85t18 96l11 73zM171 689h295l-10 -74h-295z" />
    <glyph glyph-name="Abreve" unicode="&#x102;" horiz-adv-x="585" 
d="M397 732l148 -732h-140l-39 210h-200l-97 -210h-124l344 732h108zM309 558l-103 -250h143zM518 922q-11 -36 -32 -68t-55.5 -52t-86.5 -20q-49 0 -77 20t-39.5 52.5t-10.5 67.5h67q5 -19 22 -34.5t54 -15.5q36 0 57.5 15.5t31.5 34.5h69z" />
    <glyph glyph-name="abreve" unicode="&#x103;" horiz-adv-x="513" 
d="M421 500h63q-15 -102 -25.5 -169t-16.5 -107.5t-9 -62.5t-4 -33t-1 -19q0 -13 5 -24.5t20 -11.5q10 0 24 4t24 8l17 -63q-22 -14 -51 -22.5t-55 -8.5q-30 0 -53 19.5t-29 48.5h-4q-29 -39 -68.5 -55t-71.5 -16q-58 0 -94.5 29.5t-53.5 78t-17 105.5q0 55 15.5 109.5
t47 99.5t79 72t111.5 27q26 0 65.5 -13t66.5 -46v-85q-34 32 -65 47t-61 15q-32 0 -58 -15.5t-45 -45t-29 -70.5t-10 -92q0 -54 16 -94t55 -40q32 0 55 22.5t39 60.5t27 85t18 96l11 73zM476 732q-12 -46 -33 -82.5t-54.5 -57t-85.5 -20.5q-73 0 -102.5 46t-25.5 114h67
q4 -34 20 -52t53 -18q36 0 58 18t34 52h69z" />
    <glyph glyph-name="Aogonek" unicode="&#x104;" horiz-adv-x="585" 
d="M397 732l148 -732h-140l-39 210h-200l-97 -210h-124l344 732h108zM309 558l-103 -250h143zM523 14q-20 -7 -45 -19t-48.5 -28t-39 -35.5t-15.5 -40.5q0 -17 11 -24t26 -7q20 0 46 13t42 23l16 -50q-21 -15 -45.5 -28t-50.5 -21t-54 -8q-37 0 -64.5 18.5t-27.5 58.5
q0 35 22.5 63.5t57.5 50t72 35.5t65 18z" />
    <glyph glyph-name="aogonek" unicode="&#x105;" horiz-adv-x="513" 
d="M421 500h63q-15 -102 -25.5 -169t-16.5 -107.5t-9 -62.5t-4 -33t-1 -19q0 -13 5 -24.5t20 -11.5q10 0 24 4t24 8l17 -63q-22 -14 -51 -22.5t-55 -8.5q-30 0 -53 19.5t-29 48.5h-4q-29 -39 -68.5 -55t-71.5 -16q-58 0 -94.5 29.5t-53.5 78t-17 105.5q0 55 15.5 109.5
t47 99.5t79 72t111.5 27q26 0 65.5 -13t66.5 -46v-85q-34 32 -65 47t-61 15q-32 0 -58 -15.5t-45 -45t-29 -70.5t-10 -92q0 -54 16 -94t55 -40q32 0 55 22.5t39 60.5t27 85t18 96l11 73zM510 14q-20 -7 -45 -19t-48.5 -28t-39 -35.5t-15.5 -40.5q0 -17 11 -24t26 -7
q20 0 46 13t42 23l16 -50q-21 -15 -45.5 -28t-50.5 -21t-54 -8q-37 0 -64.5 18.5t-27.5 58.5q0 35 22.5 63.5t57.5 50t72 35.5t65 18z" />
    <glyph glyph-name="Cacute" unicode="&#x106;" horiz-adv-x="587" 
d="M304 -12q-75 0 -129 25t-89 68.5t-52 99.5t-17 117q0 79 26 158t76.5 144.5t122.5 105.5t164 40q34 0 75 -7t79 -22.5t62 -41.5l-81 -92q-23 32 -64 49t-79 17q-57 0 -101.5 -29.5t-75 -78t-46 -107t-15.5 -117.5q0 -62 18 -115.5t55.5 -86.5t95.5 -33q38 0 82.5 13
t95.5 39l36 -72q-39 -24 -76 -40.5t-76.5 -25t-86.5 -8.5zM480 923h146l-171 -144h-104z" />
    <glyph glyph-name="cacute" unicode="&#x107;" horiz-adv-x="422" 
d="M373 378q-18 19 -42 31.5t-53 12.5q-35 0 -61.5 -17t-43.5 -46.5t-25.5 -65.5t-8.5 -74q0 -76 27.5 -110.5t77.5 -34.5q26 0 56 8t65 23l27 -70q-40 -22 -80 -34.5t-90 -12.5q-71 0 -115 30t-64.5 79.5t-20.5 109.5q0 66 20.5 121t57 96t84.5 63.5t103 22.5q37 0 76 -11
t79 -37zM374 735h145l-175 -165h-103z" />
    <glyph glyph-name="Ccircumflex" unicode="&#x108;" horiz-adv-x="587" 
d="M304 -12q-75 0 -129 25t-89 68.5t-52 99.5t-17 117q0 79 26 158t76.5 144.5t122.5 105.5t164 40q34 0 75 -7t79 -22.5t62 -41.5l-81 -92q-23 32 -64 49t-79 17q-57 0 -101.5 -29.5t-75 -78t-46 -107t-15.5 -117.5q0 -62 18 -115.5t55.5 -86.5t95.5 -33q38 0 82.5 13
t95.5 39l36 -72q-39 -24 -76 -40.5t-76.5 -25t-86.5 -8.5zM412 832l-67 -44h-86l114 125h98l81 -125h-88z" />
    <glyph glyph-name="ccircumflex" unicode="&#x109;" horiz-adv-x="422" 
d="M373 378q-18 19 -42 31.5t-53 12.5q-35 0 -61.5 -17t-43.5 -46.5t-25.5 -65.5t-8.5 -74q0 -76 27.5 -110.5t77.5 -34.5q26 0 56 8t65 23l27 -70q-40 -22 -80 -34.5t-90 -12.5q-71 0 -115 30t-64.5 79.5t-20.5 109.5q0 66 20.5 121t57 96t84.5 63.5t103 22.5q37 0 76 -11
t79 -37zM303 643l-69 -64h-86l116 145h98l79 -145h-88z" />
    <glyph glyph-name="Cdotaccent" unicode="&#x10a;" horiz-adv-x="587" 
d="M304 -12q-75 0 -129 25t-89 68.5t-52 99.5t-17 117q0 79 26 158t76.5 144.5t122.5 105.5t164 40q34 0 75 -7t79 -22.5t62 -41.5l-81 -92q-23 32 -64 49t-79 17q-57 0 -101.5 -29.5t-75 -78t-46 -107t-15.5 -117.5q0 -62 18 -115.5t55.5 -86.5t95.5 -33q38 0 82.5 13
t95.5 39l36 -72q-39 -24 -76 -40.5t-76.5 -25t-86.5 -8.5zM477 861q0 -29 -22.5 -50.5t-51.5 -21.5q-23 0 -39 16t-16 38q0 29 22.5 50.5t50.5 21.5q24 0 40 -15.5t16 -38.5z" />
    <glyph glyph-name="cdotaccent" unicode="&#x10b;" horiz-adv-x="422" 
d="M373 378q-18 19 -42 31.5t-53 12.5q-35 0 -61.5 -17t-43.5 -46.5t-25.5 -65.5t-8.5 -74q0 -76 27.5 -110.5t77.5 -34.5q26 0 56 8t65 23l27 -70q-40 -22 -80 -34.5t-90 -12.5q-71 0 -115 30t-64.5 79.5t-20.5 109.5q0 66 20.5 121t57 96t84.5 63.5t103 22.5q37 0 76 -11
t79 -37zM367 661q0 -29 -22.5 -50.5t-51.5 -21.5q-23 0 -39 16t-16 38q0 29 22.5 50.5t50.5 21.5q24 0 40 -15.5t16 -38.5z" />
    <glyph glyph-name="Ccaron" unicode="&#x10c;" horiz-adv-x="587" 
d="M304 -12q-75 0 -129 25t-89 68.5t-52 99.5t-17 117q0 79 26 158t76.5 144.5t122.5 105.5t164 40q34 0 75 -7t79 -22.5t62 -41.5l-81 -92q-23 32 -64 49t-79 17q-57 0 -101.5 -29.5t-75 -78t-46 -107t-15.5 -117.5q0 -62 18 -115.5t55.5 -86.5t95.5 -33q38 0 82.5 13
t95.5 39l36 -72q-39 -24 -76 -40.5t-76.5 -25t-86.5 -8.5zM417 869l67 44h86l-114 -125h-98l-81 125h88z" />
    <glyph glyph-name="ccaron" unicode="&#x10d;" horiz-adv-x="422" 
d="M373 378q-18 19 -42 31.5t-53 12.5q-35 0 -61.5 -17t-43.5 -46.5t-25.5 -65.5t-8.5 -74q0 -76 27.5 -110.5t77.5 -34.5q26 0 56 8t65 23l27 -70q-40 -22 -80 -34.5t-90 -12.5q-71 0 -115 30t-64.5 79.5t-20.5 109.5q0 66 20.5 121t57 96t84.5 63.5t103 22.5q37 0 76 -11
t79 -37zM306 660l69 64h86l-116 -145h-98l-79 145h88z" />
    <glyph glyph-name="Dcaron" unicode="&#x10e;" horiz-adv-x="664" 
d="M647 435q0 -85 -26.5 -163.5t-76.5 -139.5t-122 -96.5t-164 -35.5h-247l90 671l-7 61h263q69 0 123 -20.5t91.5 -59.5t56.5 -93.5t19 -123.5zM505 423q0 42 -9 79.5t-29 67t-52.5 46.5t-79.5 17h-108l-71 -534h110q51 0 90 19.5t67.5 52.5t46.5 75t26.5 87.5t8.5 89.5z
M394 869l67 44h86l-114 -125h-98l-81 125h88z" />
    <glyph glyph-name="dcaron" unicode="&#x10f;" horiz-adv-x="609" 
d="M280 509q25 0 54 -7.5t47 -24.5l31 237l-5 55h127q-21 -146 -36.5 -253.5t-26.5 -183t-18 -122.5t-10 -70.5t-3 -29.5q0 -13 5 -24.5t20 -11.5q10 0 24 4t24 8l17 -64q-22 -14 -51 -22.5t-55 -8.5q-29 0 -53 19.5t-29 48.5h-4q-29 -39 -69 -55t-77 -16q-60 0 -97.5 30
t-55.5 77.5t-18 101.5q0 57 17 112.5t49.5 100.5t81 72t111.5 27zM283 427q-40 0 -67 -25t-43 -62t-23 -75t-7 -65q0 -35 6 -64.5t22 -47t45 -17.5q35 0 60 24.5t42 65.5t28 90.5t18 99.5l5 36q-21 21 -42 30.5t-44 9.5zM589 769h135l-71 -165h-98z" />
    <glyph glyph-name="Dcroat" unicode="&#x110;" horiz-adv-x="664" 
d="M647 435q0 -85 -26.5 -163.5t-76.5 -139.5t-122 -96.5t-164 -35.5h-247l90 671l-7 61h263q69 0 123 -20.5t91.5 -59.5t56.5 -93.5t19 -123.5zM505 423q0 42 -9 79.5t-29 67t-52.5 46.5t-79.5 17h-108l-71 -534h110q51 0 90 19.5t67.5 52.5t46.5 75t26.5 87.5t8.5 89.5z
M7 410h331l-12 -85h-331z" />
    <glyph glyph-name="dcroat" unicode="&#x111;" horiz-adv-x="517" 
d="M400 714l-5 55h127q-19 -130 -36 -245.5t-30 -205.5t-20.5 -146t-7.5 -68q0 -9 5 -20t20 -11q10 0 24 4t24 8l17 -63q-22 -14 -51 -22.5t-55 -8.5q-30 0 -53 19.5t-29 48.5h-4q-29 -39 -68.5 -55t-71.5 -16q-58 0 -94.5 29.5t-53.5 78t-17 105.5q0 55 15.5 109.5t47 99.5
t79 72t111.5 27q26 0 65.5 -13t66.5 -46v-85q-34 32 -65 47t-61 15q-32 0 -58 -15.5t-45 -45t-29 -70.5t-10 -92q0 -54 16 -94t55 -40q32 0 55 22.5t39.5 60.5t27 85t17.5 96zM249 678h331l-12 -85h-331z" />
    <glyph glyph-name="Emacron" unicode="&#x112;" horiz-adv-x="507" 
d="M94 732h438l-13 -99h-293l-28 -207h224l-13 -99h-224l-30 -228h292l-13 -99h-423l90 671zM195 889h295l-10 -74h-295z" />
    <glyph glyph-name="emacron" unicode="&#x113;" horiz-adv-x="466" 
d="M294 510q43 0 79 -13.5t57.5 -41t21.5 -71.5q0 -25 -14 -58t-50 -64t-100 -50.5t-163 -17.5v83q54 0 93 10t63.5 26.5t36 36t11.5 37.5q0 17 -11 28t-33 11q-36 0 -63.5 -17.5t-46 -47.5t-28 -66t-9.5 -74q0 -76 31.5 -110.5t83.5 -34.5q32 0 70 12t78 34l35 -68
l-13.5 -10t-39.5 -23t-62.5 -23t-82.5 -10q-78 0 -125.5 29t-69.5 78.5t-22 108.5q0 57 18.5 111.5t53.5 98.5t86 70t115 26zM166 689h295l-10 -74h-295z" />
    <glyph glyph-name="Ebreve" unicode="&#x114;" horiz-adv-x="507" 
d="M94 732h438l-13 -99h-293l-28 -207h224l-13 -99h-224l-30 -228h292l-13 -99h-423l90 671zM499 922q-11 -36 -32 -68t-55.5 -52t-86.5 -20q-49 0 -77 20t-39.5 52.5t-10.5 67.5h67q5 -19 22 -34.5t54 -15.5q36 0 57.5 15.5t31.5 34.5h69z" />
    <glyph glyph-name="ebreve" unicode="&#x115;" horiz-adv-x="466" 
d="M294 510q43 0 79 -13.5t57.5 -41t21.5 -71.5q0 -25 -14 -58t-50 -64t-100 -50.5t-163 -17.5v83q54 0 93 10t63.5 26.5t36 36t11.5 37.5q0 17 -11 28t-33 11q-36 0 -63.5 -17.5t-46 -47.5t-28 -66t-9.5 -74q0 -76 31.5 -110.5t83.5 -34.5q32 0 70 12t78 34l35 -68
l-13.5 -10t-39.5 -23t-62.5 -23t-82.5 -10q-78 0 -125.5 29t-69.5 78.5t-22 108.5q0 57 18.5 111.5t53.5 98.5t86 70t115 26zM471 732q-12 -46 -33 -82.5t-54.5 -57t-85.5 -20.5q-73 0 -102.5 46t-25.5 114h67q4 -34 20 -52t53 -18q36 0 58 18t34 52h69z" />
    <glyph glyph-name="Edotaccent" unicode="&#x116;" horiz-adv-x="507" 
d="M94 732h438l-13 -99h-293l-28 -207h224l-13 -99h-224l-30 -228h292l-13 -99h-423l90 671zM402 861q0 -29 -22.5 -50.5t-51.5 -21.5q-23 0 -39 16t-16 38q0 29 22.5 50.5t50.5 21.5q24 0 40 -15.5t16 -38.5z" />
    <glyph glyph-name="edotaccent" unicode="&#x117;" horiz-adv-x="466" 
d="M294 510q43 0 79 -13.5t57.5 -41t21.5 -71.5q0 -25 -14 -58t-50 -64t-100 -50.5t-163 -17.5v83q54 0 93 10t63.5 26.5t36 36t11.5 37.5q0 17 -11 28t-33 11q-36 0 -63.5 -17.5t-46 -47.5t-28 -66t-9.5 -74q0 -76 31.5 -110.5t83.5 -34.5q32 0 70 12t78 34l35 -68
l-13.5 -10t-39.5 -23t-62.5 -23t-82.5 -10q-78 0 -125.5 29t-69.5 78.5t-22 108.5q0 57 18.5 111.5t53.5 98.5t86 70t115 26zM373 661q0 -29 -22.5 -50.5t-51.5 -21.5q-23 0 -39 16t-16 38q0 29 22.5 50.5t50.5 21.5q24 0 40 -15.5t16 -38.5z" />
    <glyph glyph-name="Eogonek" unicode="&#x118;" horiz-adv-x="507" 
d="M94 732h438l-13 -99h-293l-28 -207h224l-13 -99h-224l-30 -228h292l-13 -99h-423l90 671zM430 14q-20 -7 -45 -19t-48.5 -28t-39 -35.5t-15.5 -40.5q0 -17 11 -24t26 -7q20 0 46 13t42 23l16 -50q-21 -15 -45.5 -28t-50.5 -21t-54 -8q-37 0 -64.5 18.5t-27.5 58.5
q0 35 22.5 63.5t57.5 50t72 35.5t65 18z" />
    <glyph glyph-name="eogonek" unicode="&#x119;" horiz-adv-x="466" 
d="M294 510q43 0 79 -13.5t57.5 -41t21.5 -71.5q0 -25 -14 -58t-50 -64t-100 -50.5t-163 -17.5v83q54 0 93 10t63.5 26.5t36 36t11.5 37.5q0 17 -11 28t-33 11q-36 0 -63.5 -17.5t-46 -47.5t-28 -66t-9.5 -74q0 -76 31.5 -110.5t83.5 -34.5q32 0 70 12t78 34l35 -68
l-13.5 -10t-39.5 -23t-62.5 -23t-82.5 -10q-78 0 -125.5 29t-69.5 78.5t-22 108.5q0 57 18.5 111.5t53.5 98.5t86 70t115 26zM367 14q-20 -7 -45 -19t-48.5 -28t-39 -35.5t-15.5 -40.5q0 -17 11 -24t26 -7q20 0 46 13t42 23l16 -50q-21 -15 -45.5 -28t-50.5 -21t-54 -8
q-37 0 -64.5 18.5t-27.5 58.5q0 35 22.5 63.5t57.5 50t72 35.5t65 18z" />
    <glyph glyph-name="Ecaron" unicode="&#x11a;" horiz-adv-x="507" 
d="M94 732h438l-13 -99h-293l-28 -207h224l-13 -99h-224l-30 -228h292l-13 -99h-423l90 671zM342 869l67 44h86l-114 -125h-98l-81 125h88z" />
    <glyph glyph-name="ecaron" unicode="&#x11b;" horiz-adv-x="466" 
d="M294 510q43 0 79 -13.5t57.5 -41t21.5 -71.5q0 -25 -14 -58t-50 -64t-100 -50.5t-163 -17.5v83q54 0 93 10t63.5 26.5t36 36t11.5 37.5q0 17 -11 28t-33 11q-36 0 -63.5 -17.5t-46 -47.5t-28 -66t-9.5 -74q0 -76 31.5 -110.5t83.5 -34.5q32 0 70 12t78 34l35 -68
l-13.5 -10t-39.5 -23t-62.5 -23t-82.5 -10q-78 0 -125.5 29t-69.5 78.5t-22 108.5q0 57 18.5 111.5t53.5 98.5t86 70t115 26zM312 660l69 64h86l-116 -145h-98l-79 145h88z" />
    <glyph glyph-name="Gcircumflex" unicode="&#x11c;" horiz-adv-x="668" 
d="M422 744q37 0 81.5 -7.5t85.5 -25t66 -46.5l-80 -82q-28 25 -51.5 39.5t-49.5 21t-65 6.5q-68 0 -115.5 -31t-77.5 -82t-44 -111t-14 -118q0 -38 7.5 -77t25.5 -72t48.5 -53.5t76.5 -20.5q47 0 83.5 22t59 57.5t27.5 75.5l8 62h-144l11 88h277q-14 -97 -27.5 -195
t-21.5 -196h-68l-21 76q-51 -43 -101 -64.5t-118 -21.5q-90 0 -148.5 38.5t-87 105.5t-28.5 151q0 91 26.5 174t78 147.5t127 101.5t173.5 37zM422 832l-67 -44h-86l114 125h98l81 -125h-88z" />
    <glyph glyph-name="gcircumflex" unicode="&#x11d;" horiz-adv-x="491" 
d="M421 500h63l-66 -460q-7 -47 -21 -94.5t-42 -87.5t-74.5 -64t-117.5 -24q-43 0 -77 8.5t-59 21.5t-39 26l61 91q16 -19 43.5 -38t70.5 -19q48 0 75 16.5t40.5 46.5t19.5 69l7 41h-4q-22 -22 -52.5 -33.5t-62.5 -11.5q-58 0 -94.5 29.5t-53.5 78t-17 105.5
q0 55 15.5 109.5t47 99.5t79 72t111.5 27q26 0 65.5 -13t66.5 -46v-85q-34 32 -65 47t-61 15q-32 0 -58 -15.5t-45 -45t-29 -70.5t-10 -92q0 -54 16 -94t55 -40q32 0 55 22.5t39 60.5t27 85t18 96l11 73zM308 643l-69 -64h-86l116 145h98l79 -145h-88z" />
    <glyph glyph-name="Gbreve" unicode="&#x11e;" horiz-adv-x="668" 
d="M422 744q37 0 81.5 -7.5t85.5 -25t66 -46.5l-80 -82q-28 25 -51.5 39.5t-49.5 21t-65 6.5q-68 0 -115.5 -31t-77.5 -82t-44 -111t-14 -118q0 -38 7.5 -77t25.5 -72t48.5 -53.5t76.5 -20.5q47 0 83.5 22t59 57.5t27.5 75.5l8 62h-144l11 88h277q-14 -97 -27.5 -195
t-21.5 -196h-68l-21 76q-51 -43 -101 -64.5t-118 -21.5q-90 0 -148.5 38.5t-87 105.5t-28.5 151q0 91 26.5 174t78 147.5t127 101.5t173.5 37zM584 922q-11 -36 -32 -68t-55.5 -52t-86.5 -20q-49 0 -77 20t-39.5 52.5t-10.5 67.5h67q5 -19 22 -34.5t54 -15.5q36 0 57.5 15.5
t31.5 34.5h69z" />
    <glyph glyph-name="gbreve" unicode="&#x11f;" horiz-adv-x="491" 
d="M421 500h63l-66 -460q-7 -47 -21 -94.5t-42 -87.5t-74.5 -64t-117.5 -24q-43 0 -77 8.5t-59 21.5t-39 26l61 91q16 -19 43.5 -38t70.5 -19q48 0 75 16.5t40.5 46.5t19.5 69l7 41h-4q-22 -22 -52.5 -33.5t-62.5 -11.5q-58 0 -94.5 29.5t-53.5 78t-17 105.5
q0 55 15.5 109.5t47 99.5t79 72t111.5 27q26 0 65.5 -13t66.5 -46v-85q-34 32 -65 47t-61 15q-32 0 -58 -15.5t-45 -45t-29 -70.5t-10 -92q0 -54 16 -94t55 -40q32 0 55 22.5t39 60.5t27 85t18 96l11 73zM470 732q-12 -46 -33 -82.5t-54.5 -57t-85.5 -20.5q-73 0 -102.5 46
t-25.5 114h67q4 -34 20 -52t53 -18q36 0 58 18t34 52h69z" />
    <glyph glyph-name="Gdotaccent" unicode="&#x120;" horiz-adv-x="668" 
d="M422 744q37 0 81.5 -7.5t85.5 -25t66 -46.5l-80 -82q-28 25 -51.5 39.5t-49.5 21t-65 6.5q-68 0 -115.5 -31t-77.5 -82t-44 -111t-14 -118q0 -38 7.5 -77t25.5 -72t48.5 -53.5t76.5 -20.5q47 0 83.5 22t59 57.5t27.5 75.5l8 62h-144l11 88h277q-14 -97 -27.5 -195
t-21.5 -196h-68l-21 76q-51 -43 -101 -64.5t-118 -21.5q-90 0 -148.5 38.5t-87 105.5t-28.5 151q0 91 26.5 174t78 147.5t127 101.5t173.5 37zM487 861q0 -29 -22.5 -50.5t-51.5 -21.5q-23 0 -39 16t-16 38q0 29 22.5 50.5t50.5 21.5q24 0 40 -15.5t16 -38.5z" />
    <glyph glyph-name="gdotaccent" unicode="&#x121;" horiz-adv-x="491" 
d="M421 500h63l-66 -460q-7 -47 -21 -94.5t-42 -87.5t-74.5 -64t-117.5 -24q-43 0 -77 8.5t-59 21.5t-39 26l61 91q16 -19 43.5 -38t70.5 -19q48 0 75 16.5t40.5 46.5t19.5 69l7 41h-4q-22 -22 -52.5 -33.5t-62.5 -11.5q-58 0 -94.5 29.5t-53.5 78t-17 105.5
q0 55 15.5 109.5t47 99.5t79 72t111.5 27q26 0 65.5 -13t66.5 -46v-85q-34 32 -65 47t-61 15q-32 0 -58 -15.5t-45 -45t-29 -70.5t-10 -92q0 -54 16 -94t55 -40q32 0 55 22.5t39 60.5t27 85t18 96l11 73zM372 661q0 -29 -22.5 -50.5t-51.5 -21.5q-23 0 -39 16t-16 38
q0 29 22.5 50.5t50.5 21.5q24 0 40 -15.5t16 -38.5z" />
    <glyph glyph-name="uni0122" unicode="&#x122;" horiz-adv-x="668" 
d="M422 744q37 0 81.5 -7.5t85.5 -25t66 -46.5l-80 -82q-28 25 -51.5 39.5t-49.5 21t-65 6.5q-68 0 -115.5 -31t-77.5 -82t-44 -111t-14 -118q0 -38 7.5 -77t25.5 -72t48.5 -53.5t76.5 -20.5q47 0 83.5 22t59 57.5t27.5 75.5l8 62h-144l11 88h277q-14 -97 -27.5 -195
t-21.5 -196h-68l-21 76q-51 -43 -101 -64.5t-118 -21.5q-90 0 -148.5 38.5t-87 105.5t-28.5 151q0 91 26.5 174t78 147.5t127 101.5t173.5 37zM288 -64q29 0 43.5 -19t14.5 -45q0 -32 -16 -62.5t-42 -56.5t-55 -45l-28 34q9 7 20 19t19 24t8 20q0 9 -7.5 16.5t-15 17.5
t-7.5 27q0 28 20 49t46 21z" />
    <glyph glyph-name="uni0123" unicode="&#x123;" horiz-adv-x="491" 
d="M421 500h63l-66 -460q-7 -47 -21 -94.5t-42 -87.5t-74.5 -64t-117.5 -24q-43 0 -77 8.5t-59 21.5t-39 26l61 91q16 -19 43.5 -38t70.5 -19q48 0 75 16.5t40.5 46.5t19.5 69l7 41h-4q-22 -22 -52.5 -33.5t-62.5 -11.5q-58 0 -94.5 29.5t-53.5 78t-17 105.5
q0 55 15.5 109.5t47 99.5t79 72t111.5 27q26 0 65.5 -13t66.5 -46v-85q-34 32 -65 47t-61 15q-32 0 -58 -15.5t-45 -45t-29 -70.5t-10 -92q0 -54 16 -94t55 -40q32 0 55 22.5t39 60.5t27 85t18 96l11 73zM298 568q-32 0 -46.5 24t-10.5 54q7 47 39.5 85.5t72.5 64.5l28 -34
q-12 -10 -28.5 -29t-18.5 -32q-1 -10 7.5 -18.5t17 -20.5t4.5 -35q-3 -24 -22 -41.5t-43 -17.5z" />
    <glyph glyph-name="Hcircumflex" unicode="&#x124;" horiz-adv-x="674" 
d="M433 0l44 327h-292l-43 -327h-131l90 671l-6 61h144l-41 -306h292l41 306h132l-98 -732h-132zM392 832l-67 -44h-86l114 125h98l81 -125h-88z" />
    <glyph glyph-name="hcircumflex" unicode="&#x125;" horiz-adv-x="491" 
d="M244 769l-44 -318q31 24 69 42t76 18q42 0 69 -14t39.5 -41.5t12.5 -68.5q0 -27 -3 -51l-38 -282l3 -54h-126l44 324q2 9 2.5 18t0.5 18q0 18 -5 30t-15.5 18t-29.5 6q-12 0 -27.5 -6t-31.5 -15t-29.5 -18.5t-21.5 -17.5l-48 -357h-114l95 715l-4 54h126zM192 832
l-67 -44h-86l114 125h98l81 -125h-88z" />
    <glyph glyph-name="Hbar" unicode="&#x126;" horiz-adv-x="674" 
d="M433 0l44 327h-292l-43 -327h-131l90 671l-6 61h144l-41 -306h292l41 306h132l-98 -732h-132zM23 600h681l-12 -85h-681z" />
    <glyph glyph-name="hbar" unicode="&#x127;" horiz-adv-x="491" 
d="M244 769l-44 -318q31 24 69 42t76 18q42 0 69 -14t39.5 -41.5t12.5 -68.5q0 -27 -3 -51l-38 -282l3 -54h-126l44 324q2 9 2.5 18t0.5 18q0 18 -5 30t-15.5 18t-29.5 6q-12 0 -27.5 -6t-31.5 -15t-29.5 -18.5t-21.5 -17.5l-48 -357h-114l95 715l-4 54h126zM51 649h331
l-12 -85h-331z" />
    <glyph glyph-name="Itilde" unicode="&#x128;" horiz-adv-x="250" 
d="M95 732h144l-97 -732h-131l90 671zM367 905q-4 -32 -20.5 -58.5t-42.5 -42.5t-60 -16q-27 0 -48 10t-39 20t-37 10q-13 0 -28 -7.5t-17 -22.5h-65q5 32 21 58.5t42 42.5t60 16q28 0 48.5 -10t38.5 -20t37 -10q13 0 28 7.5t18 22.5h64z" />
    <glyph glyph-name="itilde" unicode="&#x129;" horiz-adv-x="228" 
d="M151 0h-124l59 443l-3 54h124l-59 -442zM346 706q-4 -32 -20.5 -58.5t-42.5 -42.5t-60 -16q-27 0 -48 10t-39 20t-37 10q-13 0 -28 -7.5t-17 -22.5h-65q5 32 21 58.5t42 42.5t60 16q28 0 48.5 -10t38.5 -20t37 -10q13 0 28 7.5t18 22.5h64z" />
    <glyph glyph-name="Imacron" unicode="&#x12a;" horiz-adv-x="250" 
d="M95 732h144l-97 -732h-131l90 671zM47 889h295l-10 -74h-295z" />
    <glyph glyph-name="imacron" unicode="&#x12b;" horiz-adv-x="228" 
d="M151 0h-124l59 443l-3 54h124l-59 -442zM26 689h295l-10 -74h-295z" />
    <glyph glyph-name="Ibreve" unicode="&#x12c;" horiz-adv-x="250" 
d="M95 732h144l-97 -732h-131l90 671zM351 922q-11 -36 -32 -68t-55.5 -52t-86.5 -20q-49 0 -77 20t-39.5 52.5t-10.5 67.5h67q5 -19 22 -34.5t54 -15.5q36 0 57.5 15.5t31.5 34.5h69z" />
    <glyph glyph-name="ibreve" unicode="&#x12d;" horiz-adv-x="228" 
d="M151 0h-124l59 443l-3 54h124l-59 -442zM331 732q-12 -46 -33 -82.5t-54.5 -57t-85.5 -20.5q-73 0 -102.5 46t-25.5 114h67q4 -34 20 -52t53 -18q36 0 58 18t34 52h69z" />
    <glyph glyph-name="Iogonek" unicode="&#x12e;" horiz-adv-x="250" 
d="M95 732h144l-97 -732h-131l90 671zM142 14q-20 -7 -45 -19t-48.5 -28t-39 -35.5t-15.5 -40.5q0 -17 11 -24t26 -7q20 0 46 13t42 23l16 -50q-21 -15 -45.5 -28t-50.5 -21t-54 -8q-37 0 -64.5 18.5t-27.5 58.5q0 35 22.5 63.5t57.5 50t72 35.5t65 18z" />
    <glyph glyph-name="iogonek" unicode="&#x12f;" horiz-adv-x="228" 
d="M248 689q0 -33 -24 -60.5t-59 -27.5q-28 0 -45.5 19.5t-17.5 46.5q0 34 25 60.5t59 26.5q28 0 45 -19t17 -46zM207 497l-59 -442l3 -55h-124l59 443l-3 54h124zM137 6q-26 -11 -56 -28.5t-50.5 -39.5t-20.5 -47q0 -17 11 -24t26 -7q20 0 46 13t42 23l16 -50
q-21 -15 -45.5 -28t-50.5 -21t-54 -8q-37 0 -64.5 18.5t-27.5 58.5q0 35 22.5 63.5t57.5 50t72 35.5t65 18z" />
    <glyph glyph-name="Idotaccent" unicode="&#x130;" horiz-adv-x="250" 
d="M95 732h144l-97 -732h-131l90 671zM254 861q0 -29 -22.5 -50.5t-51.5 -21.5q-23 0 -39 16t-16 38q0 29 22.5 50.5t50.5 21.5q24 0 40 -15.5t16 -38.5z" />
    <glyph glyph-name="dotlessi" unicode="&#x131;" horiz-adv-x="228" 
d="M151 0h-124l59 443l-3 54h124l-59 -442z" />
    <glyph glyph-name="IJ" unicode="&#x132;" horiz-adv-x="504" 
d="M95 732h144l-97 -732h-131l90 671zM349 732h144l-84 -634q-8 -63 -23.5 -117.5t-44 -96t-77 -66t-122.5 -27.5l-1 78q37 5 60.5 21.5t37.5 41.5t21 55t11 60l84 624z" />
    <glyph glyph-name="ij" unicode="&#x133;" horiz-adv-x="456" 
d="M248 689q0 -33 -24 -60.5t-59 -27.5q-28 0 -45.5 19.5t-17.5 46.5q0 34 25 60.5t59 26.5q28 0 45 -19t17 -46zM207 497l-59 -442l3 -55h-124l59 443l-3 54h124zM476 689q0 -34 -24.5 -61t-58.5 -27q-28 0 -46 20t-18 46q0 34 25 60.5t59 26.5q28 0 45.5 -19t17.5 -46z
M437 497l-59 -432q-7 -48 -19.5 -96.5t-36.5 -89.5t-63 -68.5t-98 -34.5l-14 55q41 21 63.5 55t33.5 74.5t16 78.5l55 405l-4 53h126z" />
    <glyph glyph-name="Jcircumflex" unicode="&#x134;" horiz-adv-x="254" 
d="M99 732h144l-84 -634q-8 -63 -23.5 -117.5t-44 -96t-77 -66t-122.5 -27.5l-1 78q37 5 60.5 21.5t37.5 41.5t21 55t11 60l84 624zM188 832l-67 -44h-86l114 125h98l81 -125h-88z" />
    <glyph glyph-name="jcircumflex" unicode="&#x135;" horiz-adv-x="228" 
d="M209 497l-59 -432q-7 -48 -19.5 -96.5t-36.5 -89.5t-63 -68.5t-98 -34.5l-14 55q41 21 63.5 55t33.5 74.5t16 78.5l55 405l-4 53h126zM169 643l-69 -64h-86l116 145h98l79 -145h-88z" />
    <glyph glyph-name="uni0136" unicode="&#x136;" horiz-adv-x="558" 
d="M239 732l-97 -732h-131l90 671l-6 61h144zM452 732h133l-222 -341l144 -391h-141l-138 380zM229 -64q29 0 43.5 -19t14.5 -45q0 -32 -16 -62.5t-42 -56.5t-55 -45l-28 34q9 7 20 19t19 24t8 20q0 9 -7.5 16.5t-15 17.5t-7.5 27q0 28 20 49t46 21z" />
    <glyph glyph-name="uni0137" unicode="&#x137;" horiz-adv-x="491" 
d="M352 511q33 0 59 -11.5t41 -35.5t15 -60q0 -50 -33 -103.5t-110 -92.5q18 -51 47 -102.5t65 -105.5h-132q-31 55 -58.5 116t-47.5 119q59 13 92 35.5t46.5 48t13.5 47.5q0 26 -12.5 37t-34.5 11q-17 0 -40.5 -10t-46.5 -26t-40 -35v85q26 27 56 45.5t61 28t59 9.5z
M246 769l-103 -769h-116l95 715l-5 54h129zM195 -64q29 0 43.5 -19t14.5 -45q0 -32 -16 -62.5t-42 -56.5t-55 -45l-28 34q9 7 20 19t19 24t8 20q0 9 -7.5 16.5t-15 17.5t-7.5 27q0 28 20 49t46 21z" />
    <glyph glyph-name="kgreenlandic" unicode="&#x138;" horiz-adv-x="486" 
d="M349 511q49 0 82.5 -26.5t33.5 -80.5q0 -50 -32 -103.5t-109 -92.5q18 -51 47 -102.5t65 -105.5h-132q-31 55 -58.5 116t-47.5 119q50 14 83.5 37.5t50.5 50.5t17 49t-12.5 32t-32.5 10q-28 0 -65 -22t-63 -72v81q26 42 55 66t59.5 34t58.5 10zM210 497l-67 -497h-116
l66 497h117z" />
    <glyph glyph-name="Lacute" unicode="&#x139;" horiz-adv-x="458" 
d="M240 732l-84 -633h272l-13 -99h-404l90 671l-5 61h144zM252 923h146l-171 -144h-104z" />
    <glyph glyph-name="lacute" unicode="&#x13a;" horiz-adv-x="236" 
d="M247 769l-96 -715l3 -54h-127l95 715l-3 54h128zM274 966h145l-175 -165h-103z" />
    <glyph glyph-name="uni013B" unicode="&#x13b;" horiz-adv-x="458" 
d="M240 732l-84 -633h272l-13 -99h-404l90 671l-5 61h144zM218 -64q29 0 43.5 -19t14.5 -45q0 -32 -16 -62.5t-42 -56.5t-55 -45l-28 34q9 7 20 19t19 24t8 20q0 9 -7.5 16.5t-15 17.5t-7.5 27q0 28 20 49t46 21z" />
    <glyph glyph-name="uni013C" unicode="&#x13c;" horiz-adv-x="236" 
d="M247 769l-96 -715l3 -54h-127l95 715l-3 54h128zM68 -64q29 0 43.5 -19t14.5 -45q0 -32 -16 -62.5t-42 -56.5t-55 -45l-28 34q9 7 20 19t19 24t8 20q0 9 -7.5 16.5t-15 17.5t-7.5 27q0 28 20 49t46 21z" />
    <glyph glyph-name="Lcaron" unicode="&#x13d;" horiz-adv-x="458" 
d="M240 732l-84 -633h272l-13 -99h-404l90 671l-5 61h144zM398 732h135l-71 -165h-98z" />
    <glyph glyph-name="lcaron" unicode="&#x13e;" horiz-adv-x="326" 
d="M247 769l-96 -715l3 -54h-127l95 715l-3 54h128zM294 767h135l-71 -165h-98z" />
    <glyph glyph-name="Ldot" unicode="&#x13f;" horiz-adv-x="458" 
d="M240 732l-84 -633h272l-13 -99h-404l90 671l-5 61h144zM454 395q0 -35 -27 -61t-60 -26q-28 0 -47 18.5t-19 45.5q0 35 27 61t60 26q29 0 47.5 -18.5t18.5 -45.5z" />
    <glyph glyph-name="ldot" unicode="&#x140;" horiz-adv-x="356" 
d="M247 769l-96 -715l3 -54h-127l95 715l-3 54h128zM382 319q0 -35 -27 -61t-60 -26q-28 0 -47 18.5t-19 45.5q0 35 27 61t60 26q29 0 47.5 -18.5t18.5 -45.5z" />
    <glyph glyph-name="Lslash" unicode="&#x141;" horiz-adv-x="458" 
d="M240 732l-84 -633h272l-13 -99h-404l90 671l-5 61h144zM-36 242l14 97l427 186l-14 -98z" />
    <glyph glyph-name="lslash" unicode="&#x142;" horiz-adv-x="236" 
d="M247 769l-96 -715l3 -54h-127l95 715l-3 54h128zM-1 285l14 97l262 115l-14 -98z" />
    <glyph glyph-name="Nacute" unicode="&#x143;" horiz-adv-x="682" 
d="M254 732l216 -439q5 -10 12.5 -28t16.5 -38q2 19 2 38.5t2 38.5l57 428h111l-99 -737h-107l-245 502q-8 17 -15.5 34t-15.5 33q-1 -16 -1 -33.5t-2 -33.5l-67 -497h-108l89 671l-5 61h159zM473 923h146l-171 -144h-104z" />
    <glyph glyph-name="nacute" unicode="&#x144;" horiz-adv-x="492" 
d="M185 508q5 -16 6.5 -31.5t1.5 -31.5q21 17 46 32t52.5 24.5t54.5 9.5q32 0 54.5 -8t37.5 -23.5t22 -38.5t7 -54q0 -27 -3 -51l-38 -282l3 -54h-125l43 324q2 9 2.5 18t0.5 18q0 18 -5 30t-15.5 18t-29.5 6q-12 0 -27.5 -6t-31.5 -15t-29.5 -18.5t-21.5 -17.5l-49 -357
h-114l48 356q2 14 2.5 28.5t0.5 29.5q0 12 -1 26.5t-3.5 28.5t-9.5 24zM381 735h145l-175 -165h-103z" />
    <glyph glyph-name="uni0145" unicode="&#x145;" horiz-adv-x="682" 
d="M254 732l216 -439q5 -10 12.5 -28t16.5 -38q2 19 2 38.5t2 38.5l57 428h111l-99 -737h-107l-245 502q-8 17 -15.5 34t-15.5 33q-1 -16 -1 -33.5t-2 -33.5l-67 -497h-108l89 671l-5 61h159zM287 -64q29 0 43.5 -19t14.5 -45q0 -32 -16 -62.5t-42 -56.5t-55 -45l-28 34
q9 7 20 19t19 24t8 20q0 9 -7.5 16.5t-15 17.5t-7.5 27q0 28 20 49t46 21z" />
    <glyph glyph-name="uni0146" unicode="&#x146;" horiz-adv-x="492" 
d="M185 508q5 -16 6.5 -31.5t1.5 -31.5q21 17 46 32t52.5 24.5t54.5 9.5q32 0 54.5 -8t37.5 -23.5t22 -38.5t7 -54q0 -27 -3 -51l-38 -282l3 -54h-125l43 324q2 9 2.5 18t0.5 18q0 18 -5 30t-15.5 18t-29.5 6q-12 0 -27.5 -6t-31.5 -15t-29.5 -18.5t-21.5 -17.5l-49 -357
h-114l48 356q2 14 2.5 28.5t0.5 29.5q0 12 -1 26.5t-3.5 28.5t-9.5 24zM211 -64q29 0 43.5 -19t14.5 -45q0 -32 -16 -62.5t-42 -56.5t-55 -45l-28 34q9 7 20 19t19 24t8 20q0 9 -7.5 16.5t-15 17.5t-7.5 27q0 28 20 49t46 21z" />
    <glyph glyph-name="Ncaron" unicode="&#x147;" horiz-adv-x="682" 
d="M254 732l216 -439q5 -10 12.5 -28t16.5 -38q2 19 2 38.5t2 38.5l57 428h111l-99 -737h-107l-245 502q-8 17 -15.5 34t-15.5 33q-1 -16 -1 -33.5t-2 -33.5l-67 -497h-108l89 671l-5 61h159zM410 869l67 44h86l-114 -125h-98l-81 125h88z" />
    <glyph glyph-name="ncaron" unicode="&#x148;" horiz-adv-x="492" 
d="M185 508q5 -16 6.5 -31.5t1.5 -31.5q21 17 46 32t52.5 24.5t54.5 9.5q32 0 54.5 -8t37.5 -23.5t22 -38.5t7 -54q0 -27 -3 -51l-38 -282l3 -54h-125l43 324q2 9 2.5 18t0.5 18q0 18 -5 30t-15.5 18t-29.5 6q-12 0 -27.5 -6t-31.5 -15t-29.5 -18.5t-21.5 -17.5l-49 -357
h-114l48 356q2 14 2.5 28.5t0.5 29.5q0 12 -1 26.5t-3.5 28.5t-9.5 24zM313 660l69 64h86l-116 -145h-98l-79 145h88z" />
    <glyph glyph-name="napostrophe" unicode="&#x149;" horiz-adv-x="492" 
d="M185 508q5 -16 6.5 -31.5t1.5 -31.5q21 17 46 32t52.5 24.5t54.5 9.5q32 0 54.5 -8t37.5 -23.5t22 -38.5t7 -54q0 -27 -3 -51l-38 -282l3 -54h-125l43 324q2 9 2.5 18t0.5 18q0 18 -5 30t-15.5 18t-29.5 6q-12 0 -27.5 -6t-31.5 -15t-29.5 -18.5t-21.5 -17.5l-49 -357
h-114l48 356q2 14 2.5 28.5t0.5 29.5q0 12 -1 26.5t-3.5 28.5t-9.5 24zM99 772q32 0 47 -23.5t10 -53.5q-7 -47 -40 -85.5t-72 -64.5q-7 8 -14.5 16.5t-13.5 17.5q11 9 28.5 28.5t18.5 32.5q2 11 -7 19t-17 20t-5 35q3 24 21.5 41t43.5 17z" />
    <glyph glyph-name="Eng" unicode="&#x14a;" horiz-adv-x="682" 
d="M11 0l89 671l-5 61h159l216 -439q5 -10 12.5 -28t16.5 -38q2 19 2 38.5t2 38.5l57 428h111l-85 -634q-8 -63 -23.5 -117.5t-44 -96t-77 -66t-122.5 -27.5l-1 78q35 4 58 19.5t37 38.5t21.5 50.5t11.5 56.5l-226 463q-8 17 -15.5 34t-15.5 33q-1 -16 -1 -33.5t-2 -33.5
l-67 -497h-108z" />
    <glyph glyph-name="eng" unicode="&#x14b;" horiz-adv-x="492" 
d="M27 0l48 356q2 14 2.5 28.5t0.5 29.5q0 12 -1 26.5t-3.5 28.5t-9.5 24l121 15q5 -16 6.5 -31.5t1.5 -31.5q21 17 46 32t52.5 24.5t54.5 9.5q32 0 54.5 -8t37.5 -23.5t22 -38.5t7 -54q0 -27 -3 -51l-37 -271q-7 -49 -19.5 -97t-36.5 -89.5t-63 -68.5t-98 -34l-14 55
q41 21 64 55t33.5 74.5t15.5 78.5l38 285q2 9 2.5 18t0.5 18q0 18 -5 30t-15.5 18t-29.5 6q-12 0 -27.5 -6t-31.5 -15t-29.5 -18.5t-21.5 -17.5l-49 -357h-114z" />
    <glyph glyph-name="Omacron" unicode="&#x14c;" horiz-adv-x="707" 
d="M300 -11q-70 0 -123 22.5t-88.5 63.5t-53.5 97t-18 123q0 86 25 166t74 143.5t120.5 101t164.5 37.5q95 0 159 -38t97 -106t33 -160q0 -86 -26 -166.5t-76 -144.5t-122.5 -101.5t-165.5 -37.5zM316 84q52 0 91.5 22.5t66.5 60t43.5 83.5t24 94t7.5 90q0 53 -14 102
t-48.5 80.5t-96.5 31.5q-52 0 -91 -22.5t-66 -60t-44 -83.5t-24.5 -94t-7.5 -90q0 -52 14 -101.5t48.5 -81t96.5 -31.5zM279 889h295l-10 -74h-295z" />
    <glyph glyph-name="omacron" unicode="&#x14d;" horiz-adv-x="496" 
d="M213 -12q-68 0 -110.5 30t-62 78.5t-19.5 104.5q0 54 17.5 109t50.5 100t82 72.5t112 27.5q69 0 111 -30t61.5 -78.5t19.5 -104.5q0 -54 -17.5 -109t-50.5 -100t-82 -72.5t-112 -27.5zM224 69q33 0 58 20t42 54t25.5 74.5t8.5 80.5q0 36 -8 65.5t-26.5 47.5t-51.5 18
t-58 -20t-42 -54t-25.5 -74t-8.5 -81q0 -35 8 -65t27 -48t51 -18zM161 689h295l-10 -74h-295z" />
    <glyph glyph-name="Obreve" unicode="&#x14e;" horiz-adv-x="707" 
d="M300 -11q-70 0 -123 22.5t-88.5 63.5t-53.5 97t-18 123q0 86 25 166t74 143.5t120.5 101t164.5 37.5q95 0 159 -38t97 -106t33 -160q0 -86 -26 -166.5t-76 -144.5t-122.5 -101.5t-165.5 -37.5zM316 84q52 0 91.5 22.5t66.5 60t43.5 83.5t24 94t7.5 90q0 53 -14 102
t-48.5 80.5t-96.5 31.5q-52 0 -91 -22.5t-66 -60t-44 -83.5t-24.5 -94t-7.5 -90q0 -52 14 -101.5t48.5 -81t96.5 -31.5zM583 922q-11 -36 -32 -68t-55.5 -52t-86.5 -20q-49 0 -77 20t-39.5 52.5t-10.5 67.5h67q5 -19 22 -34.5t54 -15.5q36 0 57.5 15.5t31.5 34.5h69z" />
    <glyph glyph-name="obreve" unicode="&#x14f;" horiz-adv-x="496" 
d="M213 -12q-68 0 -110.5 30t-62 78.5t-19.5 104.5q0 54 17.5 109t50.5 100t82 72.5t112 27.5q69 0 111 -30t61.5 -78.5t19.5 -104.5q0 -54 -17.5 -109t-50.5 -100t-82 -72.5t-112 -27.5zM224 69q33 0 58 20t42 54t25.5 74.5t8.5 80.5q0 36 -8 65.5t-26.5 47.5t-51.5 18
t-58 -20t-42 -54t-25.5 -74t-8.5 -81q0 -35 8 -65t27 -48t51 -18zM466 732q-12 -46 -33 -82.5t-54.5 -57t-85.5 -20.5q-73 0 -102.5 46t-25.5 114h67q4 -34 20 -52t53 -18q36 0 58 18t34 52h69z" />
    <glyph glyph-name="Ohungarumlaut" unicode="&#x150;" horiz-adv-x="707" 
d="M300 -11q-70 0 -123 22.5t-88.5 63.5t-53.5 97t-18 123q0 86 25 166t74 143.5t120.5 101t164.5 37.5q95 0 159 -38t97 -106t33 -160q0 -86 -26 -166.5t-76 -144.5t-122.5 -101.5t-165.5 -37.5zM316 84q52 0 91.5 22.5t66.5 60t43.5 83.5t24 94t7.5 90q0 53 -14 102
t-48.5 80.5t-96.5 31.5q-52 0 -91 -22.5t-66 -60t-44 -83.5t-24.5 -94t-7.5 -90q0 -52 14 -101.5t48.5 -81t96.5 -31.5zM374 923h135l-131 -144h-93zM531 923h135l-131 -144h-93z" />
    <glyph glyph-name="ohungarumlaut" unicode="&#x151;" horiz-adv-x="496" 
d="M213 -12q-68 0 -110.5 30t-62 78.5t-19.5 104.5q0 54 17.5 109t50.5 100t82 72.5t112 27.5q69 0 111 -30t61.5 -78.5t19.5 -104.5q0 -54 -17.5 -109t-50.5 -100t-82 -72.5t-112 -27.5zM224 69q33 0 58 20t42 54t25.5 74.5t8.5 80.5q0 36 -8 65.5t-26.5 47.5t-51.5 18
t-58 -20t-42 -54t-25.5 -74t-8.5 -81q0 -35 8 -65t27 -48t51 -18zM258 735h135l-135 -165h-93zM415 735h135l-135 -165h-93z" />
    <glyph glyph-name="OE" unicode="&#x152;" horiz-adv-x="993" 
d="M506 68q-48 -46 -97.5 -62.5t-108.5 -16.5q-70 0 -123 22.5t-88.5 63.5t-53.5 97t-18 123q0 86 25 166t74 143.5t120.5 101t164.5 37.5q59 0 103.5 -18t81.5 -58l9 65h423l-13 -99h-293l-28 -207h224l-13 -99h-224l-30 -228h292l-13 -99h-423zM316 84q52 0 91.5 22.5
t66.5 60t43.5 83.5t24 94t7.5 90q0 53 -14 102t-48.5 80.5t-96.5 31.5q-52 0 -91 -22.5t-66 -60t-44 -83.5t-24.5 -94t-7.5 -90q0 -52 14 -101.5t48.5 -81t96.5 -31.5z" />
    <glyph glyph-name="oe" unicode="&#x153;" horiz-adv-x="799" 
d="M213 -12q-68 0 -110.5 30t-62 78.5t-19.5 104.5q0 54 17.5 109t50.5 100t82 72.5t112 27.5q69 0 111 -30t61.5 -78.5t19.5 -104.5q0 -54 -17.5 -109t-50.5 -100t-82 -72.5t-112 -27.5zM224 69q33 0 58 20t42 54t25.5 74.5t8.5 80.5q0 36 -8 65.5t-26.5 47.5t-51.5 18
t-58 -20t-42 -54t-25.5 -74t-8.5 -81q0 -35 8 -65t27 -48t51 -18zM583 76q41 0 80 21t64 40l42 -83l-13.5 -10t-39.5 -23t-62.5 -23t-82.5 -10q-78 0 -125.5 29t-69.5 78.5t-22 108.5q0 57 18.5 111.5t53.5 98.5t86 70t115 26q43 0 79 -13.5t57.5 -41t21.5 -71.5
q0 -25 -14 -58t-50 -64t-100 -50.5t-163 -17.5v83q44 0 77 6.5t57.5 18t39.5 25.5t22.5 29.5t7.5 30.5q0 17 -11 28t-33 11q-36 0 -63.5 -17.5t-46 -47.5t-28 -66t-9.5 -74q0 -40 11 -73t35.5 -52.5t65.5 -19.5z" />
    <glyph glyph-name="Racute" unicode="&#x154;" horiz-adv-x="565" 
d="M142 0h-131l90 671l-6 61h240q60 0 108.5 -19.5t77 -61t28.5 -108.5q0 -63 -23.5 -109t-59.5 -77t-72 -49l141 -308h-139l-175 383h33q65 0 110.5 39.5t45.5 118.5q0 46 -27.5 68.5t-73.5 22.5h-83zM395 923h146l-171 -144h-104z" />
    <glyph glyph-name="racute" unicode="&#x155;" horiz-adv-x="335" 
d="M186 507q6 -21 8.5 -52t0.5 -53q19 26 46 50t59.5 39.5t65.5 15.5l-35 -126q-42 0 -78.5 -23.5t-70.5 -68.5l-40 -289h-114l48 363q2 10 3 23.5t1 26.5q0 20 -2.5 43.5t-13.5 40.5zM289 735h145l-175 -165h-103z" />
    <glyph glyph-name="uni0156" unicode="&#x156;" horiz-adv-x="565" 
d="M142 0h-131l90 671l-6 61h240q60 0 108.5 -19.5t77 -61t28.5 -108.5q0 -63 -23.5 -109t-59.5 -77t-72 -49l141 -308h-139l-175 383h33q65 0 110.5 39.5t45.5 118.5q0 46 -27.5 68.5t-73.5 22.5h-83zM235 -64q29 0 43.5 -19t14.5 -45q0 -32 -16 -62.5t-42 -56.5t-55 -45
l-28 34q9 7 20 19t19 24t8 20q0 9 -7.5 16.5t-15 17.5t-7.5 27q0 28 20 49t46 21z" />
    <glyph glyph-name="uni0157" unicode="&#x157;" horiz-adv-x="335" 
d="M186 507q6 -21 8.5 -52t0.5 -53q19 26 46 50t59.5 39.5t65.5 15.5l-35 -126q-42 0 -78.5 -23.5t-70.5 -68.5l-40 -289h-114l48 363q2 10 3 23.5t1 26.5q0 20 -2.5 43.5t-13.5 40.5zM72 -64q29 0 43.5 -19t14.5 -45q0 -32 -16 -62.5t-42 -56.5t-55 -45l-28 34q9 7 20 19
t19 24t8 20q0 9 -7.5 16.5t-15 17.5t-7.5 27q0 28 20 49t46 21z" />
    <glyph glyph-name="Rcaron" unicode="&#x158;" horiz-adv-x="565" 
d="M142 0h-131l90 671l-6 61h240q60 0 108.5 -19.5t77 -61t28.5 -108.5q0 -63 -23.5 -109t-59.5 -77t-72 -49l141 -308h-139l-175 383h33q65 0 110.5 39.5t45.5 118.5q0 46 -27.5 68.5t-73.5 22.5h-83zM332 869l67 44h86l-114 -125h-98l-81 125h88z" />
    <glyph glyph-name="rcaron" unicode="&#x159;" horiz-adv-x="335" 
d="M186 507q6 -21 8.5 -52t0.5 -53q19 26 46 50t59.5 39.5t65.5 15.5l-35 -126q-42 0 -78.5 -23.5t-70.5 -68.5l-40 -289h-114l48 363q2 10 3 23.5t1 26.5q0 20 -2.5 43.5t-13.5 40.5zM221 660l69 64h86l-116 -145h-98l-79 145h88z" />
    <glyph glyph-name="Sacute" unicode="&#x15a;" horiz-adv-x="495" 
d="M333 744q26 0 59.5 -7.5t65.5 -21t51 -31.5l-59 -92q-15 17 -40.5 29.5t-52.5 19.5t-50 7q-28 0 -53 -11.5t-40.5 -33.5t-15.5 -53q0 -32 19 -54t49 -40t63 -36t63 -41.5t49 -56.5t19 -82q0 -77 -38 -134t-101 -87.5t-138 -30.5q-56 0 -114 14.5t-105 46.5l63 108
q20 -22 45 -38.5t53.5 -25.5t58.5 -9q35 0 65 15t49 42t19 63q0 33 -19 56t-49 41.5t-63.5 36.5t-63.5 41t-49 55.5t-19 79.5q0 81 39 132t102.5 74.5t137.5 23.5zM395 923h146l-171 -144h-104z" />
    <glyph glyph-name="sacute" unicode="&#x15b;" horiz-adv-x="371" 
d="M327 395q-17 17 -41 24t-48 7q-18 0 -34.5 -6t-27 -18.5t-10.5 -32.5q0 -23 18 -37.5t45 -26t54 -26.5t45 -40t18 -67q0 -61 -29.5 -102t-77 -61.5t-102.5 -20.5q-37 0 -78.5 12t-73.5 32l52 82q23 -15 48.5 -29t53.5 -14q22 0 40 9.5t29 26.5t11 40q0 25 -18.5 40
t-45 26.5t-53.5 26.5t-45.5 38.5t-18.5 63.5q0 59 29.5 96t76.5 54.5t99 17.5q33 0 70 -7.5t66 -23.5zM312 735h145l-175 -165h-103z" />
    <glyph glyph-name="Scircumflex" unicode="&#x15c;" horiz-adv-x="495" 
d="M333 744q26 0 59.5 -7.5t65.5 -21t51 -31.5l-59 -92q-15 17 -40.5 29.5t-52.5 19.5t-50 7q-28 0 -53 -11.5t-40.5 -33.5t-15.5 -53q0 -32 19 -54t49 -40t63 -36t63 -41.5t49 -56.5t19 -82q0 -77 -38 -134t-101 -87.5t-138 -30.5q-56 0 -114 14.5t-105 46.5l63 108
q20 -22 45 -38.5t53.5 -25.5t58.5 -9q35 0 65 15t49 42t19 63q0 33 -19 56t-49 41.5t-63.5 36.5t-63.5 41t-49 55.5t-19 79.5q0 81 39 132t102.5 74.5t137.5 23.5zM327 832l-67 -44h-86l114 125h98l81 -125h-88z" />
    <glyph glyph-name="scircumflex" unicode="&#x15d;" horiz-adv-x="371" 
d="M327 395q-17 17 -41 24t-48 7q-18 0 -34.5 -6t-27 -18.5t-10.5 -32.5q0 -23 18 -37.5t45 -26t54 -26.5t45 -40t18 -67q0 -61 -29.5 -102t-77 -61.5t-102.5 -20.5q-37 0 -78.5 12t-73.5 32l52 82q23 -15 48.5 -29t53.5 -14q22 0 40 9.5t29 26.5t11 40q0 25 -18.5 40
t-45 26.5t-53.5 26.5t-45.5 38.5t-18.5 63.5q0 59 29.5 96t76.5 54.5t99 17.5q33 0 70 -7.5t66 -23.5zM241 643l-69 -64h-86l116 145h98l79 -145h-88z" />
    <glyph glyph-name="Scedilla" unicode="&#x15e;" horiz-adv-x="495" 
d="M333 744q26 0 59.5 -7.5t65.5 -21t51 -31.5l-59 -92q-15 17 -40.5 29.5t-52.5 19.5t-50 7q-28 0 -53 -11.5t-40.5 -33.5t-15.5 -53q0 -32 19 -54t49 -40t63 -36t63 -41.5t49 -56.5t19 -82q0 -77 -38 -134t-101 -87.5t-138 -30.5q-56 0 -114 14.5t-105 46.5l63 108
q20 -22 45 -38.5t53.5 -25.5t58.5 -9q35 0 65 15t49 42t19 63q0 33 -19 56t-49 41.5t-63.5 36.5t-63.5 41t-49 55.5t-19 79.5q0 81 39 132t102.5 74.5t137.5 23.5zM278 -112q0 -36 -23.5 -58t-59.5 -33t-75 -17l-16 62q13 2 30.5 5t31.5 11t14 24q0 13 -15.5 21t-41.5 15
l65 95h76l-36 -55q11 -5 22.5 -14.5t19.5 -23t8 -32.5z" />
    <glyph glyph-name="scedilla" unicode="&#x15f;" horiz-adv-x="371" 
d="M327 395q-17 17 -41 24t-48 7q-18 0 -34.5 -6t-27 -18.5t-10.5 -32.5q0 -23 18 -37.5t45 -26t54 -26.5t45 -40t18 -67q0 -61 -29.5 -102t-77 -61.5t-102.5 -20.5q-37 0 -78.5 12t-73.5 32l52 82q23 -15 48.5 -29t53.5 -14q22 0 40 9.5t29 26.5t11 40q0 25 -18.5 40
t-45 26.5t-53.5 26.5t-45.5 38.5t-18.5 63.5q0 59 29.5 96t76.5 54.5t99 17.5q33 0 70 -7.5t66 -23.5zM216 -112q0 -36 -23.5 -58t-59.5 -33t-75 -17l-16 62q13 2 30.5 5t31.5 11t14 24q0 13 -15.5 21t-41.5 15l65 95h76l-36 -55q11 -5 22.5 -14.5t19.5 -23t8 -32.5z" />
    <glyph glyph-name="Scaron" unicode="&#x160;" horiz-adv-x="495" 
d="M333 744q26 0 59.5 -7.5t65.5 -21t51 -31.5l-59 -92q-15 17 -40.5 29.5t-52.5 19.5t-50 7q-28 0 -53 -11.5t-40.5 -33.5t-15.5 -53q0 -32 19 -54t49 -40t63 -36t63 -41.5t49 -56.5t19 -82q0 -77 -38 -134t-101 -87.5t-138 -30.5q-56 0 -114 14.5t-105 46.5l63 108
q20 -22 45 -38.5t53.5 -25.5t58.5 -9q35 0 65 15t49 42t19 63q0 33 -19 56t-49 41.5t-63.5 36.5t-63.5 41t-49 55.5t-19 79.5q0 81 39 132t102.5 74.5t137.5 23.5zM332 869l67 44h86l-114 -125h-98l-81 125h88z" />
    <glyph glyph-name="scaron" unicode="&#x161;" horiz-adv-x="371" 
d="M327 395q-17 17 -41 24t-48 7q-18 0 -34.5 -6t-27 -18.5t-10.5 -32.5q0 -23 18 -37.5t45 -26t54 -26.5t45 -40t18 -67q0 -61 -29.5 -102t-77 -61.5t-102.5 -20.5q-37 0 -78.5 12t-73.5 32l52 82q23 -15 48.5 -29t53.5 -14q22 0 40 9.5t29 26.5t11 40q0 25 -18.5 40
t-45 26.5t-53.5 26.5t-45.5 38.5t-18.5 63.5q0 59 29.5 96t76.5 54.5t99 17.5q33 0 70 -7.5t66 -23.5zM244 660l69 64h86l-116 -145h-98l-79 145h88z" />
    <glyph glyph-name="uni0162" unicode="&#x162;" horiz-adv-x="523" 
d="M43 732h525l-14 -99h-195l-85 -633h-136l84 633h-192zM269 -112q0 -36 -23.5 -58t-59.5 -33t-75 -17l-16 62q13 2 30.5 5t31.5 11t14 24q0 13 -15.5 21t-41.5 15l65 95h76l-36 -55q11 -5 22.5 -14.5t19.5 -23t8 -32.5z" />
    <glyph glyph-name="uni0163" unicode="&#x163;" horiz-adv-x="315" 
d="M251 633q-9 -34 -17 -68t-14 -68h115l-27 -83h-100l-36 -275q-1 -7 -1.5 -14t-0.5 -14q0 -16 6.5 -27.5t26.5 -11.5q19 0 38 3t37 7l11 -69q-18 -6 -42 -11t-48 -8.5t-44 -3.5q-38 0 -61 10.5t-33 31.5t-10 50q0 5 0.5 10.5t1 11.5t1.5 12l40 298h-69l11 83q38 0 60 12.5
t37 42t30 81.5h88zM193 -112q0 -36 -23.5 -58t-59.5 -33t-75 -17l-16 62q13 2 30.5 5t31.5 11t14 24q0 13 -15.5 21t-41.5 15l65 95h76l-36 -55q11 -5 22.5 -14.5t19.5 -23t8 -32.5z" />
    <glyph glyph-name="Tcaron" unicode="&#x164;" horiz-adv-x="523" 
d="M43 732h525l-14 -99h-195l-85 -633h-136l84 633h-192zM328 869l67 44h86l-114 -125h-98l-81 125h88z" />
    <glyph glyph-name="tcaron" unicode="&#x165;" horiz-adv-x="315" 
d="M251 633q-9 -34 -17 -68t-14 -68h115l-27 -83h-100l-36 -275q-1 -7 -1.5 -14t-0.5 -14q0 -16 6.5 -27.5t26.5 -11.5q19 0 38 3t37 7l11 -69q-18 -6 -42 -11t-48 -8.5t-44 -3.5q-38 0 -61 10.5t-33 31.5t-10 50q0 5 0.5 10.5t1 11.5t1.5 12l40 298h-69l11 83q38 0 60 12.5
t37 42t30 81.5h88zM306 735h135l-71 -165h-98z" />
    <glyph glyph-name="Tbar" unicode="&#x166;" horiz-adv-x="523" 
d="M43 732h525l-14 -99h-195l-85 -633h-136l84 633h-192zM98 408h331l-12 -85h-331z" />
    <glyph glyph-name="tbar" unicode="&#x167;" horiz-adv-x="315" 
d="M251 633q-9 -34 -17 -68t-14 -68h115l-27 -83h-100l-36 -275q-1 -7 -1.5 -14t-0.5 -14q0 -16 6.5 -27.5t26.5 -11.5q19 0 38 3t37 7l11 -69q-18 -6 -42 -11t-48 -8.5t-44 -3.5q-38 0 -61 10.5t-33 31.5t-10 50q0 5 0.5 10.5t1 11.5t1.5 12l40 298h-69l11 83q38 0 60 12.5
t37 42t30 81.5h88zM11 306h297l-12 -85h-297z" />
    <glyph glyph-name="Utilde" unicode="&#x168;" horiz-adv-x="659" 
d="M234 732l-65 -489q-1 -7 -1.5 -13.5t-0.5 -13.5q0 -41 16.5 -70.5t46.5 -45.5t71 -16q49 0 86 22.5t60 59.5t28 79l66 487h107l-61 -454q-12 -88 -46.5 -153t-99 -100.5t-167.5 -35.5q-56 0 -100 14t-75 42t-47.5 71t-16.5 100q0 16 1 31t3 31l53 394l-7 60h149zM581 905
q-4 -32 -20.5 -58.5t-42.5 -42.5t-60 -16q-27 0 -48 10t-39 20t-37 10q-13 0 -28 -7.5t-17 -22.5h-65q5 32 21 58.5t42 42.5t60 16q28 0 48.5 -10t38.5 -20t37 -10q13 0 28 7.5t18 22.5h64z" />
    <glyph glyph-name="utilde" unicode="&#x169;" horiz-adv-x="499" 
d="M192 497l-43 -328q-1 -7 -1.5 -13.5t-0.5 -13.5q0 -25 10.5 -41.5t38.5 -16.5q26 0 46.5 15.5t35.5 41t25 55.5t16.5 59t9.5 52l19 146l-6 44h128l-54 -367q-1 -5 -1.5 -10.5t-0.5 -10.5q0 -13 4.5 -24.5t20.5 -11.5q10 0 24 4t24 8l17 -63q-14 -9 -33 -16t-38.5 -11
t-36.5 -4q-20 0 -37.5 9t-29 24.5t-15.5 34.5h-4q-13 -17 -31.5 -30t-39.5 -22t-43 -13.5t-43 -4.5q-61 0 -93.5 30.5t-32.5 91.5q0 17 3 35l40 307l-5 44h127zM473 706q-4 -32 -20.5 -58.5t-42.5 -42.5t-60 -16q-27 0 -48 10t-39 20t-37 10q-13 0 -28 -7.5t-17 -22.5h-65
q5 32 21 58.5t42 42.5t60 16q28 0 48.5 -10t38.5 -20t37 -10q13 0 28 7.5t18 22.5h64z" />
    <glyph glyph-name="Umacron" unicode="&#x16a;" horiz-adv-x="659" 
d="M234 732l-65 -489q-1 -7 -1.5 -13.5t-0.5 -13.5q0 -41 16.5 -70.5t46.5 -45.5t71 -16q49 0 86 22.5t60 59.5t28 79l66 487h107l-61 -454q-12 -88 -46.5 -153t-99 -100.5t-167.5 -35.5q-56 0 -100 14t-75 42t-47.5 71t-16.5 100q0 16 1 31t3 31l53 394l-7 60h149zM261 889
h295l-10 -74h-295z" />
    <glyph glyph-name="umacron" unicode="&#x16b;" horiz-adv-x="499" 
d="M192 497l-43 -328q-1 -7 -1.5 -13.5t-0.5 -13.5q0 -25 10.5 -41.5t38.5 -16.5q26 0 46.5 15.5t35.5 41t25 55.5t16.5 59t9.5 52l19 146l-6 44h128l-54 -367q-1 -5 -1.5 -10.5t-0.5 -10.5q0 -13 4.5 -24.5t20.5 -11.5q10 0 24 4t24 8l17 -63q-14 -9 -33 -16t-38.5 -11
t-36.5 -4q-20 0 -37.5 9t-29 24.5t-15.5 34.5h-4q-13 -17 -31.5 -30t-39.5 -22t-43 -13.5t-43 -4.5q-61 0 -93.5 30.5t-32.5 91.5q0 17 3 35l40 307l-5 44h127zM153 689h295l-10 -74h-295z" />
    <glyph glyph-name="Ubreve" unicode="&#x16c;" horiz-adv-x="659" 
d="M234 732l-65 -489q-1 -7 -1.5 -13.5t-0.5 -13.5q0 -41 16.5 -70.5t46.5 -45.5t71 -16q49 0 86 22.5t60 59.5t28 79l66 487h107l-61 -454q-12 -88 -46.5 -153t-99 -100.5t-167.5 -35.5q-56 0 -100 14t-75 42t-47.5 71t-16.5 100q0 16 1 31t3 31l53 394l-7 60h149zM565 922
q-11 -36 -32 -68t-55.5 -52t-86.5 -20q-49 0 -77 20t-39.5 52.5t-10.5 67.5h67q5 -19 22 -34.5t54 -15.5q36 0 57.5 15.5t31.5 34.5h69z" />
    <glyph glyph-name="ubreve" unicode="&#x16d;" horiz-adv-x="499" 
d="M192 497l-43 -328q-1 -7 -1.5 -13.5t-0.5 -13.5q0 -25 10.5 -41.5t38.5 -16.5q26 0 46.5 15.5t35.5 41t25 55.5t16.5 59t9.5 52l19 146l-6 44h128l-54 -367q-1 -5 -1.5 -10.5t-0.5 -10.5q0 -13 4.5 -24.5t20.5 -11.5q10 0 24 4t24 8l17 -63q-14 -9 -33 -16t-38.5 -11
t-36.5 -4q-20 0 -37.5 9t-29 24.5t-15.5 34.5h-4q-13 -17 -31.5 -30t-39.5 -22t-43 -13.5t-43 -4.5q-61 0 -93.5 30.5t-32.5 91.5q0 17 3 35l40 307l-5 44h127zM458 732q-12 -46 -33 -82.5t-54.5 -57t-85.5 -20.5q-73 0 -102.5 46t-25.5 114h67q4 -34 20 -52t53 -18
q36 0 58 18t34 52h69z" />
    <glyph glyph-name="Uring" unicode="&#x16e;" horiz-adv-x="659" 
d="M234 732l-65 -489q-1 -7 -1.5 -13.5t-0.5 -13.5q0 -41 16.5 -70.5t46.5 -45.5t71 -16q49 0 86 22.5t60 59.5t28 79l66 487h107l-61 -454q-12 -88 -46.5 -153t-99 -100.5t-167.5 -35.5q-56 0 -100 14t-75 42t-47.5 71t-16.5 100q0 16 1 31t3 31l53 394l-7 60h149z
M423 1004q41 0 68.5 -28t27.5 -67q0 -32 -17 -59.5t-45 -43.5t-60 -16q-40 0 -67.5 27.5t-27.5 66.5q0 33 17 60t44.5 43.5t59.5 16.5zM413 937q-19 0 -31.5 -12.5t-12.5 -32.5q0 -15 10 -25.5t26 -10.5q19 0 32 12.5t13 31.5q0 15 -10.5 26t-26.5 11z" />
    <glyph glyph-name="uring" unicode="&#x16f;" horiz-adv-x="499" 
d="M192 497l-43 -328q-1 -7 -1.5 -13.5t-0.5 -13.5q0 -25 10.5 -41.5t38.5 -16.5q26 0 46.5 15.5t35.5 41t25 55.5t16.5 59t9.5 52l19 146l-6 44h128l-54 -367q-1 -5 -1.5 -10.5t-0.5 -10.5q0 -13 4.5 -24.5t20.5 -11.5q10 0 24 4t24 8l17 -63q-14 -9 -33 -16t-38.5 -11
t-36.5 -4q-20 0 -37.5 9t-29 24.5t-15.5 34.5h-4q-13 -17 -31.5 -30t-39.5 -22t-43 -13.5t-43 -4.5q-61 0 -93.5 30.5t-32.5 91.5q0 17 3 35l40 307l-5 44h127zM310 769q41 0 68.5 -28t27.5 -67q0 -32 -17 -59.5t-45 -43.5t-60 -16q-40 0 -67.5 27.5t-27.5 66.5q0 33 17 60
t44.5 43.5t59.5 16.5zM301 702q-19 0 -32 -13t-13 -33q0 -15 9.5 -25t25.5 -10q19 0 32.5 13t13.5 32q0 15 -10 25.5t-26 10.5z" />
    <glyph glyph-name="Uhungarumlaut" unicode="&#x170;" horiz-adv-x="659" 
d="M234 732l-65 -489q-1 -7 -1.5 -13.5t-0.5 -13.5q0 -41 16.5 -70.5t46.5 -45.5t71 -16q49 0 86 22.5t60 59.5t28 79l66 487h107l-61 -454q-12 -88 -46.5 -153t-99 -100.5t-167.5 -35.5q-56 0 -100 14t-75 42t-47.5 71t-16.5 100q0 16 1 31t3 31l53 394l-7 60h149zM356 923
h135l-131 -144h-93zM513 923h135l-131 -144h-93z" />
    <glyph glyph-name="uhungarumlaut" unicode="&#x171;" horiz-adv-x="499" 
d="M192 497l-43 -328q-1 -7 -1.5 -13.5t-0.5 -13.5q0 -25 10.5 -41.5t38.5 -16.5q26 0 46.5 15.5t35.5 41t25 55.5t16.5 59t9.5 52l19 146l-6 44h128l-54 -367q-1 -5 -1.5 -10.5t-0.5 -10.5q0 -13 4.5 -24.5t20.5 -11.5q10 0 24 4t24 8l17 -63q-14 -9 -33 -16t-38.5 -11
t-36.5 -4q-20 0 -37.5 9t-29 24.5t-15.5 34.5h-4q-13 -17 -31.5 -30t-39.5 -22t-43 -13.5t-43 -4.5q-61 0 -93.5 30.5t-32.5 91.5q0 17 3 35l40 307l-5 44h127zM250 735h135l-135 -165h-93zM407 735h135l-135 -165h-93z" />
    <glyph glyph-name="Uogonek" unicode="&#x172;" horiz-adv-x="659" 
d="M234 732l-65 -489q-1 -7 -1.5 -13.5t-0.5 -13.5q0 -41 16.5 -70.5t46.5 -45.5t71 -16q49 0 86 22.5t60 59.5t28 79l66 487h107l-61 -454q-12 -88 -46.5 -153t-99 -100.5t-167.5 -35.5q-56 0 -100 14t-75 42t-47.5 71t-16.5 100q0 16 1 31t3 31l53 394l-7 60h149zM418 14
q-20 -7 -45 -19t-48.5 -28t-39 -35.5t-15.5 -40.5q0 -17 11 -24t26 -7q20 0 46 13t42 23l16 -50q-21 -15 -45.5 -28t-50.5 -21t-54 -8q-37 0 -64.5 18.5t-27.5 58.5q0 35 22.5 63.5t57.5 50t72 35.5t65 18z" />
    <glyph glyph-name="uogonek" unicode="&#x173;" horiz-adv-x="499" 
d="M192 497l-43 -328q-1 -7 -1.5 -13.5t-0.5 -13.5q0 -25 10.5 -41.5t38.5 -16.5q26 0 46.5 15.5t35.5 41t25 55.5t16.5 59t9.5 52l19 146l-6 44h128l-54 -367q-1 -5 -1.5 -10.5t-0.5 -10.5q0 -13 4.5 -24.5t20.5 -11.5q10 0 24 4t24 8l17 -63q-14 -9 -33 -16t-38.5 -11
t-36.5 -4q-20 0 -37.5 9t-29 24.5t-15.5 34.5h-4q-13 -17 -31.5 -30t-39.5 -22t-43 -13.5t-43 -4.5q-61 0 -93.5 30.5t-32.5 91.5q0 17 3 35l40 307l-5 44h127zM490 14q-20 -7 -45 -19t-48.5 -28t-39 -35.5t-15.5 -40.5q0 -17 11 -24t26 -7q20 0 46 13t42 23l16 -50
q-21 -15 -45.5 -28t-50.5 -21t-54 -8q-37 0 -64.5 18.5t-27.5 58.5q0 35 22.5 63.5t57.5 50t72 35.5t65 18z" />
    <glyph glyph-name="Wcircumflex" unicode="&#x174;" horiz-adv-x="875" 
d="M172 732q12 -93 20.5 -161t15.5 -120t11.5 -95t8 -84.5t6.5 -89.5q12 53 25 97t29 87.5t36.5 94t47.5 116.5t63 155h119q12 -92 21 -160.5t16 -121t12 -96t7.5 -84.5t3.5 -88q16 56 30.5 100t30.5 86.5t35.5 92t45.5 115t62 156.5h112l-284 -734h-134q-11 92 -20 155.5
t-15 110t-10 86t-6.5 80.5t-4.5 96q-16 -55 -30 -98.5t-29 -84t-33.5 -87t-43.5 -109t-60 -149.5h-132l-93 734h137zM509 832l-67 -44h-86l114 125h98l81 -125h-88z" />
    <glyph glyph-name="wcircumflex" unicode="&#x175;" horiz-adv-x="638" 
d="M137 497q11 -76 18.5 -124.5t11.5 -81.5t5 -59.5t-1 -58.5q6 27 14 51.5t21 57t34.5 83.5t55.5 132h112q12 -83 20.5 -141t12.5 -101t1 -82q8 32 17 61t22.5 63t33 82t48.5 118h115l-219 -501h-99q-10 72 -17.5 118t-12.5 79.5t-7.5 66t-2.5 75.5q-7 -36 -18 -68.5
t-26 -69.5t-36.5 -85t-51.5 -116h-99l-74 501h122zM376 643l-69 -64h-86l116 145h98l79 -145h-88z" />
    <glyph glyph-name="Ycircumflex" unicode="&#x176;" horiz-adv-x="523" 
d="M181 732l96 -260l171 260h130l-263 -405l-44 -327h-130l43 330l-149 402h146zM327 832l-67 -44h-86l114 125h98l81 -125h-88z" />
    <glyph glyph-name="ycircumflex" unicode="&#x177;" horiz-adv-x="419" 
d="M-48 -150q33 0 59 15t46.5 38.5t36 49.5t26.5 48l-105 496h122q12 -56 21.5 -99t17.5 -81.5t13 -79t7 -91.5q14 47 29 86t33.5 78t40 84t48.5 103h112l-233 -500q-31 -67 -67 -118t-87 -80t-129 -29zM259 643l-69 -64h-86l116 145h98l79 -145h-88z" />
    <glyph glyph-name="Ydieresis" unicode="&#x178;" horiz-adv-x="523" 
d="M181 732l96 -260l171 260h130l-263 -405l-44 -327h-130l43 330l-149 402h146zM306 861q0 -29 -22 -50.5t-51 -21.5q-24 0 -39.5 15.5t-15.5 38.5q0 29 22.5 50.5t50.5 21.5q24 0 39.5 -15.5t15.5 -38.5zM477 861q0 -29 -22.5 -50.5t-51.5 -21.5q-23 0 -39 16t-16 38
q0 29 22.5 50.5t50.5 21.5q24 0 40 -15.5t16 -38.5z" />
    <glyph glyph-name="Zacute" unicode="&#x179;" horiz-adv-x="546" 
d="M94 732h467v-73l-397 -560h330l-14 -99h-497v82l394 551h-296zM406 923h146l-171 -144h-104z" />
    <glyph glyph-name="zacute" unicode="&#x17a;" horiz-adv-x="418" 
d="M62 497h356v-62l-273 -351h239l-11 -84h-383v61l270 353h-209zM333 735h145l-175 -165h-103z" />
    <glyph glyph-name="Zdotaccent" unicode="&#x17b;" horiz-adv-x="546" 
d="M94 732h467v-73l-397 -560h330l-14 -99h-497v82l394 551h-296zM403 861q0 -29 -22.5 -50.5t-51.5 -21.5q-23 0 -39 16t-16 38q0 29 22.5 50.5t50.5 21.5q24 0 40 -15.5t16 -38.5z" />
    <glyph glyph-name="zdotaccent" unicode="&#x17c;" horiz-adv-x="418" 
d="M62 497h356v-62l-273 -351h239l-11 -84h-383v61l270 353h-209zM326 661q0 -29 -22.5 -50.5t-51.5 -21.5q-23 0 -39 16t-16 38q0 29 22.5 50.5t50.5 21.5q24 0 40 -15.5t16 -38.5z" />
    <glyph glyph-name="Zcaron" unicode="&#x17d;" horiz-adv-x="546" 
d="M94 732h467v-73l-397 -560h330l-14 -99h-497v82l394 551h-296zM343 869l67 44h86l-114 -125h-98l-81 125h88z" />
    <glyph glyph-name="zcaron" unicode="&#x17e;" horiz-adv-x="418" 
d="M62 497h356v-62l-273 -351h239l-11 -84h-383v61l270 353h-209zM265 660l69 64h86l-116 -145h-98l-79 145h88z" />
    <glyph glyph-name="longs" unicode="&#x17f;" horiz-adv-x="301" 
d="M357 776q35 0 75.5 -11.5t68.5 -31.5l-49 -79q-23 21 -44.5 30.5t-53.5 9.5q-34 0 -58 -20.5t-39 -52t-23 -65t-12 -59.5l-73 -544q-11 -81 -52.5 -132t-129.5 -51q-20 0 -46.5 4t-51.5 14t-39 26l48 66q8 -7 21 -14.5t27 -12t25 -4.5q31 0 48 18.5t25.5 45.5t11.5 52
l61 449h-79l10 83h79q8 57 23.5 107.5t43.5 89t72.5 60.5t110.5 22z" />
    <glyph glyph-name="uni018F" unicode="&#x18f;" horiz-adv-x="699" 
d="M96 625q64 53 134 85.5t163 32.5q71 0 125 -21.5t90.5 -62t55 -96t18.5 -124.5q0 -86 -26 -166.5t-76 -144.5t-122.5 -101.5t-165.5 -37.5q-89 0 -150 37t-91.5 102t-30.5 149q0 22 2 44.5t6 45.5h135q-4 -23 -6.5 -45t-2.5 -42q0 -86 38.5 -141t115.5 -55
q52 0 91.5 22.5t66.5 60t43.5 83.5t24 94t7.5 90q0 40 -7.5 78t-25.5 69t-48.5 49t-77.5 18q-67 0 -114 -28t-89 -75zM28 367h605l-12 -88h-574z" />
    <glyph glyph-name="uni0191" unicode="&#x191;" horiz-adv-x="467" 
d="M-113 -131q37 5 60.5 21.5t37.5 41.5t21 55t11 60l84 624l-6 61h407l-13 -99h-262l-28 -207h203l-13 -99h-203l-31 -229q-9 -63 -24 -117.5t-44 -96t-77 -66t-122 -27.5z" />
    <glyph glyph-name="florin" unicode="&#x192;" horiz-adv-x="377" 
d="M382 706q30 0 61 -9t56 -28l-44 -70q-37 25 -68 25t-52 -22t-36.5 -59t-29.5 -83h144l-37 -80h-131l-89 -379q-22 -95 -82.5 -145t-139.5 -50q-12 0 -24.5 1.5t-25.5 3.5l34 78q27 0 47.5 8.5t34.5 25t19 38.5l104 419h-75l10 70q18 1 38.5 4t38.5 12.5t28 28.5
q12 22 19.5 44t17 43.5t25.5 42.5q31 40 69 60.5t88 20.5z" />
    <glyph glyph-name="uni019D" unicode="&#x19d;" horiz-adv-x="682" 
d="M-113 -131q37 5 60.5 21.5t37.5 41.5t21 55t11 60l83 624l-5 61h159l216 -439q5 -10 12.5 -28t16.5 -38q2 19 2 38.5t2 38.5l57 428h111l-99 -737h-107l-245 502q-8 17 -15.5 34t-15.5 33q-1 -16 -1 -33.5t-2 -33.5l-53 -399q-8 -63 -20 -117.5t-36.5 -96t-69.5 -66
t-119 -27.5z" />
    <glyph glyph-name="Ohorn" unicode="&#x1a0;" horiz-adv-x="707" 
d="M300 -11q-70 0 -123 22.5t-88.5 63.5t-53.5 97t-18 123q0 86 25 166t74 143.5t120.5 101t164.5 37.5q95 0 159 -38t97 -106t33 -160q0 -86 -26 -166.5t-76 -144.5t-122.5 -101.5t-165.5 -37.5zM316 84q52 0 91.5 22.5t66.5 60t43.5 83.5t24 94t7.5 90q0 53 -14 102
t-48.5 80.5t-96.5 31.5q-52 0 -91 -22.5t-66 -60t-44 -83.5t-24.5 -94t-7.5 -90q0 -52 14 -101.5t48.5 -81t96.5 -31.5zM521 723q53 -14 86.5 4.5t49.5 56t16 79.5h116q-1 -37 -16.5 -78.5t-48 -75t-85 -49t-127.5 -2.5z" />
    <glyph glyph-name="ohorn" unicode="&#x1a1;" horiz-adv-x="496" 
d="M213 -12q-68 0 -110.5 30t-62 78.5t-19.5 104.5q0 54 17.5 109t50.5 100t82 72.5t112 27.5q69 0 111 -30t61.5 -78.5t19.5 -104.5q0 -54 -17.5 -109t-50.5 -100t-82 -72.5t-112 -27.5zM224 69q33 0 58 20t42 54t25.5 74.5t8.5 80.5q0 36 -8 65.5t-26.5 47.5t-51.5 18
t-58 -20t-42 -54t-25.5 -74t-8.5 -81q0 -35 8 -65t27 -48t51 -18zM367 494q36 -15 61.5 -0.5t39.5 48t13 75.5h116q-2 -37 -17 -75.5t-44 -68t-73 -42t-105 0.5z" />
    <glyph glyph-name="Uhorn" unicode="&#x1af;" horiz-adv-x="659" 
d="M234 732l-65 -489q-1 -7 -1.5 -13.5t-0.5 -13.5q0 -41 16.5 -70.5t46.5 -45.5t71 -16q49 0 86 22.5t60 59.5t28 79l66 487h107l-61 -454q-12 -88 -46.5 -153t-99 -100.5t-167.5 -35.5q-56 0 -100 14t-75 42t-47.5 71t-16.5 100q0 16 1 31t3 31l53 394l-7 60h149zM542 739
q53 -14 86.5 4.5t49.5 56t16 79.5h116q-1 -37 -16.5 -78.5t-48 -75t-85 -49t-127.5 -2.5z" />
    <glyph glyph-name="uhorn" unicode="&#x1b0;" horiz-adv-x="499" 
d="M192 497l-43 -328q-1 -7 -1.5 -13.5t-0.5 -13.5q0 -25 10.5 -41.5t38.5 -16.5q26 0 46.5 15.5t35.5 41t25 55.5t16.5 59t9.5 52l19 146l-6 44h128l-54 -367q-1 -5 -1.5 -10.5t-0.5 -10.5q0 -13 4.5 -24.5t20.5 -11.5q10 0 24 4t24 8l17 -63q-14 -9 -33 -16t-38.5 -11
t-36.5 -4q-20 0 -37.5 9t-29 24.5t-15.5 34.5h-4q-13 -17 -31.5 -30t-39.5 -22t-43 -13.5t-43 -4.5q-61 0 -93.5 30.5t-32.5 91.5q0 17 3 35l40 307l-5 44h127zM394 497q38 0 60 39t21 92h116q-2 -37 -17 -75.5t-44 -68t-73 -42t-105 0.5z" />
    <glyph glyph-name="uni01C4" unicode="&#x1c4;" horiz-adv-x="1210" 
d="M647 435q0 -85 -26.5 -163.5t-76.5 -139.5t-122 -96.5t-164 -35.5h-247l90 671l-7 61h263q69 0 123 -20.5t91.5 -59.5t56.5 -93.5t19 -123.5zM505 423q0 42 -9 79.5t-29 67t-52.5 46.5t-79.5 17h-108l-71 -534h110q51 0 90 19.5t67.5 52.5t46.5 75t26.5 87.5t8.5 89.5z
M758 732h467v-73l-397 -560h330l-14 -99h-497v82l394 551h-296zM1007 869l67 44h86l-114 -125h-98l-81 125h88z" />
    <glyph glyph-name="uni01C5" unicode="&#x1c5;" horiz-adv-x="1059" 
d="M647 435q0 -85 -26.5 -163.5t-76.5 -139.5t-122 -96.5t-164 -35.5h-247l90 671l-7 61h263q69 0 123 -20.5t91.5 -59.5t56.5 -93.5t19 -123.5zM505 423q0 42 -9 79.5t-29 67t-52.5 46.5t-79.5 17h-108l-71 -534h110q51 0 90 19.5t67.5 52.5t46.5 75t26.5 87.5t8.5 89.5z
M703 497h356v-62l-273 -351h239l-11 -84h-383v61l270 353h-209zM906 660l69 64h86l-116 -145h-98l-79 145h88z" />
    <glyph glyph-name="uni01C6" unicode="&#x1c6;" horiz-adv-x="935" 
d="M400 714l-5 55h127q-19 -130 -36 -245.5t-30 -205.5t-20.5 -146t-7.5 -68q0 -9 5 -20t20 -11q10 0 24 4t24 8l17 -63q-22 -14 -51 -22.5t-55 -8.5q-30 0 -53 19.5t-29 48.5h-4q-29 -39 -68.5 -55t-71.5 -16q-58 0 -94.5 29.5t-53.5 78t-17 105.5q0 55 15.5 109.5t47 99.5
t79 72t111.5 27q26 0 65.5 -13t66.5 -46v-85q-34 32 -65 47t-61 15q-32 0 -58 -15.5t-45 -45t-29 -70.5t-10 -92q0 -54 16 -94t55 -40q32 0 55 22.5t39.5 60.5t27 85t17.5 96zM579 497h356v-62l-273 -351h239l-11 -84h-383v61l270 353h-209zM782 660l69 64h86l-116 -145h-98
l-79 145h88z" />
    <glyph glyph-name="uni01C7" unicode="&#x1c7;" horiz-adv-x="712" 
d="M240 732l-84 -633h272l-13 -99h-404l90 671l-5 61h144zM557 732h144l-84 -634q-8 -63 -23.5 -117.5t-44 -96t-77 -66t-122.5 -27.5l-1 78q37 5 60.5 21.5t37.5 41.5t21 55t11 60l84 624z" />
    <glyph glyph-name="uni01C8" unicode="&#x1c8;" horiz-adv-x="686" 
d="M240 732l-84 -633h272l-13 -99h-404l90 671l-5 61h144zM706 689q0 -34 -24.5 -61t-58.5 -27q-28 0 -46 20t-18 46q0 34 25 60.5t59 26.5q28 0 45.5 -19t17.5 -46zM667 497l-59 -432q-7 -48 -19.5 -96.5t-36.5 -89.5t-63 -68.5t-98 -34.5l-14 55q41 21 63.5 55t33.5 74.5
t16 78.5l55 405l-4 53h126z" />
    <glyph glyph-name="uni01C9" unicode="&#x1c9;" horiz-adv-x="464" 
d="M247 769l-96 -715l3 -54h-127l95 715l-3 54h128zM484 689q0 -34 -24.5 -61t-58.5 -27q-28 0 -46 20t-18 46q0 34 25 60.5t59 26.5q28 0 45.5 -19t17.5 -46zM445 497l-59 -432q-7 -48 -19.5 -96.5t-36.5 -89.5t-63 -68.5t-98 -34.5l-14 55q41 21 63.5 55t33.5 74.5
t16 78.5l55 405l-4 53h126z" />
    <glyph glyph-name="uni01CA" unicode="&#x1ca;" horiz-adv-x="936" 
d="M254 732l216 -439q5 -10 12.5 -28t16.5 -38q2 19 2 38.5t2 38.5l57 428h111l-99 -737h-107l-245 502q-8 17 -15.5 34t-15.5 33q-1 -16 -1 -33.5t-2 -33.5l-67 -497h-108l89 671l-5 61h159zM781 732h144l-84 -634q-8 -63 -23.5 -117.5t-44 -96t-77 -66t-122.5 -27.5l-1 78
q37 5 60.5 21.5t37.5 41.5t21 55t11 60l84 624z" />
    <glyph glyph-name="uni01CB" unicode="&#x1cb;" horiz-adv-x="910" 
d="M254 732l216 -439q5 -10 12.5 -28t16.5 -38q2 19 2 38.5t2 38.5l57 428h111l-99 -737h-107l-245 502q-8 17 -15.5 34t-15.5 33q-1 -16 -1 -33.5t-2 -33.5l-67 -497h-108l89 671l-5 61h159zM930 689q0 -34 -24.5 -61t-58.5 -27q-28 0 -46 20t-18 46q0 34 25 60.5t59 26.5
q28 0 45.5 -19t17.5 -46zM891 497l-59 -432q-7 -48 -19.5 -96.5t-36.5 -89.5t-63 -68.5t-98 -34.5l-14 55q41 21 63.5 55t33.5 74.5t16 78.5l55 405l-4 53h126z" />
    <glyph glyph-name="uni01CC" unicode="&#x1cc;" horiz-adv-x="720" 
d="M185 508q5 -16 6.5 -31.5t1.5 -31.5q21 17 46 32t52.5 24.5t54.5 9.5q32 0 54.5 -8t37.5 -23.5t22 -38.5t7 -54q0 -27 -3 -51l-38 -282l3 -54h-125l43 324q2 9 2.5 18t0.5 18q0 18 -5 30t-15.5 18t-29.5 6q-12 0 -27.5 -6t-31.5 -15t-29.5 -18.5t-21.5 -17.5l-49 -357
h-114l48 356q2 14 2.5 28.5t0.5 29.5q0 12 -1 26.5t-3.5 28.5t-9.5 24zM740 689q0 -34 -24.5 -61t-58.5 -27q-28 0 -46 20t-18 46q0 34 25 60.5t59 26.5q28 0 45.5 -19t17.5 -46zM701 497l-59 -432q-7 -48 -19.5 -96.5t-36.5 -89.5t-63 -68.5t-98 -34.5l-14 55
q41 21 63.5 55t33.5 74.5t16 78.5l55 405l-4 53h126z" />
    <glyph glyph-name="uni01CD" unicode="&#x1cd;" horiz-adv-x="585" 
d="M397 732l148 -732h-140l-39 210h-200l-97 -210h-124l344 732h108zM309 558l-103 -250h143zM361 869l67 44h86l-114 -125h-98l-81 125h88z" />
    <glyph glyph-name="uni01CE" unicode="&#x1ce;" horiz-adv-x="513" 
d="M421 500h63q-15 -102 -25.5 -169t-16.5 -107.5t-9 -62.5t-4 -33t-1 -19q0 -13 5 -24.5t20 -11.5q10 0 24 4t24 8l17 -63q-22 -14 -51 -22.5t-55 -8.5q-30 0 -53 19.5t-29 48.5h-4q-29 -39 -68.5 -55t-71.5 -16q-58 0 -94.5 29.5t-53.5 78t-17 105.5q0 55 15.5 109.5
t47 99.5t79 72t111.5 27q26 0 65.5 -13t66.5 -46v-85q-34 32 -65 47t-61 15q-32 0 -58 -15.5t-45 -45t-29 -70.5t-10 -92q0 -54 16 -94t55 -40q32 0 55 22.5t39 60.5t27 85t18 96l11 73zM317 660l69 64h86l-116 -145h-98l-79 145h88z" />
    <glyph glyph-name="uni01CF" unicode="&#x1cf;" horiz-adv-x="250" 
d="M95 732h144l-97 -732h-131l90 671zM194 869l67 44h86l-114 -125h-98l-81 125h88z" />
    <glyph glyph-name="uni01D0" unicode="&#x1d0;" horiz-adv-x="228" 
d="M151 0h-124l59 443l-3 54h124l-59 -442zM172 660l69 64h86l-116 -145h-98l-79 145h88z" />
    <glyph glyph-name="uni01D1" unicode="&#x1d1;" horiz-adv-x="707" 
d="M300 -11q-70 0 -123 22.5t-88.5 63.5t-53.5 97t-18 123q0 86 25 166t74 143.5t120.5 101t164.5 37.5q95 0 159 -38t97 -106t33 -160q0 -86 -26 -166.5t-76 -144.5t-122.5 -101.5t-165.5 -37.5zM316 84q52 0 91.5 22.5t66.5 60t43.5 83.5t24 94t7.5 90q0 53 -14 102
t-48.5 80.5t-96.5 31.5q-52 0 -91 -22.5t-66 -60t-44 -83.5t-24.5 -94t-7.5 -90q0 -52 14 -101.5t48.5 -81t96.5 -31.5zM426 869l67 44h86l-114 -125h-98l-81 125h88z" />
    <glyph glyph-name="uni01D2" unicode="&#x1d2;" horiz-adv-x="496" 
d="M213 -12q-68 0 -110.5 30t-62 78.5t-19.5 104.5q0 54 17.5 109t50.5 100t82 72.5t112 27.5q69 0 111 -30t61.5 -78.5t19.5 -104.5q0 -54 -17.5 -109t-50.5 -100t-82 -72.5t-112 -27.5zM224 69q33 0 58 20t42 54t25.5 74.5t8.5 80.5q0 36 -8 65.5t-26.5 47.5t-51.5 18
t-58 -20t-42 -54t-25.5 -74t-8.5 -81q0 -35 8 -65t27 -48t51 -18zM307 660l69 64h86l-116 -145h-98l-79 145h88z" />
    <glyph glyph-name="uni01D3" unicode="&#x1d3;" horiz-adv-x="659" 
d="M234 732l-65 -489q-1 -7 -1.5 -13.5t-0.5 -13.5q0 -41 16.5 -70.5t46.5 -45.5t71 -16q49 0 86 22.5t60 59.5t28 79l66 487h107l-61 -454q-12 -88 -46.5 -153t-99 -100.5t-167.5 -35.5q-56 0 -100 14t-75 42t-47.5 71t-16.5 100q0 16 1 31t3 31l53 394l-7 60h149zM408 869
l67 44h86l-114 -125h-98l-81 125h88z" />
    <glyph glyph-name="uni01D4" unicode="&#x1d4;" horiz-adv-x="499" 
d="M192 497l-43 -328q-1 -7 -1.5 -13.5t-0.5 -13.5q0 -25 10.5 -41.5t38.5 -16.5q26 0 46.5 15.5t35.5 41t25 55.5t16.5 59t9.5 52l19 146l-6 44h128l-54 -367q-1 -5 -1.5 -10.5t-0.5 -10.5q0 -13 4.5 -24.5t20.5 -11.5q10 0 24 4t24 8l17 -63q-14 -9 -33 -16t-38.5 -11
t-36.5 -4q-20 0 -37.5 9t-29 24.5t-15.5 34.5h-4q-13 -17 -31.5 -30t-39.5 -22t-43 -13.5t-43 -4.5q-61 0 -93.5 30.5t-32.5 91.5q0 17 3 35l40 307l-5 44h127zM299 660l69 64h86l-116 -145h-98l-79 145h88z" />
    <glyph glyph-name="uni01D5" unicode="&#x1d5;" horiz-adv-x="659" 
d="M234 732l-65 -489q-1 -7 -1.5 -13.5t-0.5 -13.5q0 -41 16.5 -70.5t46.5 -45.5t71 -16q49 0 86 22.5t60 59.5t28 79l66 487h107l-61 -454q-12 -88 -46.5 -153t-99 -100.5t-167.5 -35.5q-56 0 -100 14t-75 42t-47.5 71t-16.5 100q0 16 1 31t3 31l53 394l-7 60h149z
M282 1029h295l-11 -74h-295zM382 861q0 -29 -22 -50.5t-51 -21.5q-24 0 -39.5 15.5t-15.5 38.5q0 29 22.5 50.5t50.5 21.5q24 0 39.5 -15.5t15.5 -38.5zM553 861q0 -29 -22.5 -50.5t-51.5 -21.5q-23 0 -39 16t-16 38q0 29 22.5 50.5t50.5 21.5q24 0 40 -15.5t16 -38.5z" />
    <glyph glyph-name="uni01D6" unicode="&#x1d6;" horiz-adv-x="499" 
d="M192 497l-43 -328q-1 -7 -1.5 -13.5t-0.5 -13.5q0 -25 10.5 -41.5t38.5 -16.5q26 0 46.5 15.5t35.5 41t25 55.5t16.5 59t9.5 52l19 146l-6 44h128l-54 -367q-1 -5 -1.5 -10.5t-0.5 -10.5q0 -13 4.5 -24.5t20.5 -11.5q10 0 24 4t24 8l17 -63q-14 -9 -33 -16t-38.5 -11
t-36.5 -4q-20 0 -37.5 9t-29 24.5t-15.5 34.5h-4q-13 -17 -31.5 -30t-39.5 -22t-43 -13.5t-43 -4.5q-61 0 -93.5 30.5t-32.5 91.5q0 17 3 35l40 307l-5 44h127zM174 829h295l-11 -74h-295zM274 661q0 -29 -22 -50.5t-51 -21.5q-24 0 -39.5 15.5t-15.5 38.5q0 29 22.5 50.5
t50.5 21.5q24 0 39.5 -15.5t15.5 -38.5zM445 661q0 -29 -22.5 -50.5t-51.5 -21.5q-23 0 -39 16t-16 38q0 29 22.5 50.5t50.5 21.5q24 0 40 -15.5t16 -38.5z" />
    <glyph glyph-name="uni01D7" unicode="&#x1d7;" horiz-adv-x="659" 
d="M234 732l-65 -489q-1 -7 -1.5 -13.5t-0.5 -13.5q0 -41 16.5 -70.5t46.5 -45.5t71 -16q49 0 86 22.5t60 59.5t28 79l66 487h107l-61 -454q-12 -88 -46.5 -153t-99 -100.5t-167.5 -35.5q-56 0 -100 14t-75 42t-47.5 71t-16.5 100q0 16 1 31t3 31l53 394l-7 60h149z
M456 1077h135l-128 -125h-93zM382 861q0 -29 -22 -50.5t-51 -21.5q-24 0 -39.5 15.5t-15.5 38.5q0 29 22 50.5t50 21.5q24 0 40 -15.5t16 -38.5zM553 861q0 -29 -22.5 -50.5t-51.5 -21.5q-23 0 -39 16t-16 38q0 29 22 50.5t50 21.5q24 0 40.5 -15.5t16.5 -38.5z" />
    <glyph glyph-name="uni01D8" unicode="&#x1d8;" horiz-adv-x="499" 
d="M192 497l-43 -328q-1 -7 -1.5 -13.5t-0.5 -13.5q0 -25 10.5 -41.5t38.5 -16.5q26 0 46.5 15.5t35.5 41t25 55.5t16.5 59t9.5 52l19 146l-6 44h128l-54 -367q-1 -5 -1.5 -10.5t-0.5 -10.5q0 -13 4.5 -24.5t20.5 -11.5q10 0 24 4t24 8l17 -63q-14 -9 -33 -16t-38.5 -11
t-36.5 -4q-20 0 -37.5 9t-29 24.5t-15.5 34.5h-4q-13 -17 -31.5 -30t-39.5 -22t-43 -13.5t-43 -4.5q-61 0 -93.5 30.5t-32.5 91.5q0 17 3 35l40 307l-5 44h127zM354 878h135l-128 -125h-93zM273 660q0 -29 -21.5 -50t-50.5 -21q-24 0 -39.5 15.5t-15.5 38.5q0 29 22 50.5
t50 21.5q24 0 39.5 -16t15.5 -39zM444 659q0 -28 -22.5 -49t-50.5 -21q-23 0 -39 16t-16 38q0 29 22 50.5t50 21.5q25 0 40.5 -15.5t15.5 -40.5z" />
    <glyph glyph-name="uni01D9" unicode="&#x1d9;" horiz-adv-x="659" 
d="M234 732l-65 -489q-1 -7 -1.5 -13.5t-0.5 -13.5q0 -41 16.5 -70.5t46.5 -45.5t71 -16q49 0 86 22.5t60 59.5t28 79l66 487h107l-61 -454q-12 -88 -46.5 -153t-99 -100.5t-167.5 -35.5q-56 0 -100 14t-75 42t-47.5 71t-16.5 100q0 16 1 31t3 31l53 394l-7 60h149zM382 861
q0 -29 -22 -50.5t-51 -21.5q-24 0 -39.5 15.5t-15.5 38.5q0 29 22.5 50.5t50.5 21.5q24 0 39.5 -15.5t15.5 -38.5zM553 861q0 -29 -22.5 -50.5t-51.5 -21.5q-23 0 -39 16t-16 38q0 29 22.5 50.5t50.5 21.5q24 0 40 -15.5t16 -38.5zM429 1027l67 44h86l-114 -125h-98l-81 125
h88z" />
    <glyph glyph-name="uni01DA" unicode="&#x1da;" horiz-adv-x="499" 
d="M192 497l-43 -328q-1 -7 -1.5 -13.5t-0.5 -13.5q0 -25 10.5 -41.5t38.5 -16.5q26 0 46.5 15.5t35.5 41t25 55.5t16.5 59t9.5 52l19 146l-6 44h128l-54 -367q-1 -5 -1.5 -10.5t-0.5 -10.5q0 -13 4.5 -24.5t20.5 -11.5q10 0 24 4t24 8l17 -63q-14 -9 -33 -16t-38.5 -11
t-36.5 -4q-20 0 -37.5 9t-29 24.5t-15.5 34.5h-4q-13 -17 -31.5 -30t-39.5 -22t-43 -13.5t-43 -4.5q-61 0 -93.5 30.5t-32.5 91.5q0 17 3 35l40 307l-5 44h127zM322 840l69 64h86l-116 -145h-98l-79 145h88zM274 661q0 -29 -22 -50.5t-51 -21.5q-24 0 -39.5 15.5t-15.5 38.5
q0 29 22.5 50.5t50.5 21.5q24 0 39.5 -15.5t15.5 -38.5zM445 661q0 -29 -22.5 -50.5t-51.5 -21.5q-23 0 -39 16t-16 38q0 29 22.5 50.5t50.5 21.5q24 0 40 -15.5t16 -38.5z" />
    <glyph glyph-name="uni01DB" unicode="&#x1db;" horiz-adv-x="659" 
d="M234 732l-65 -489q-1 -7 -1.5 -13.5t-0.5 -13.5q0 -41 16.5 -70.5t46.5 -45.5t71 -16q49 0 86 22.5t60 59.5t28 79l66 487h107l-61 -454q-12 -88 -46.5 -153t-99 -100.5t-167.5 -35.5q-56 0 -100 14t-75 42t-47.5 71t-16.5 100q0 16 1 31t3 31l53 394l-7 60h149z
M414 1077l52 -125h-93l-94 125h135zM426 843q0 29 22 50.5t50 21.5q24 0 40 -15.5t16 -38.5q0 -29 -22 -50.5t-51 -21.5q-24 0 -39.5 15.5t-15.5 38.5zM255 843q0 29 22.5 50.5t50.5 21.5q24 0 39.5 -16.5t15.5 -39.5q0 -28 -22.5 -49t-49.5 -21q-24 0 -40 15.5t-16 38.5z
" />
    <glyph glyph-name="uni01DC" unicode="&#x1dc;" horiz-adv-x="499" 
d="M192 497l-43 -328q-1 -7 -1.5 -13.5t-0.5 -13.5q0 -25 10.5 -41.5t38.5 -16.5q26 0 46.5 15.5t35.5 41t25 55.5t16.5 59t9.5 52l19 146l-6 44h128l-54 -367q-1 -5 -1.5 -10.5t-0.5 -10.5q0 -13 4.5 -24.5t20.5 -11.5q10 0 24 4t24 8l17 -63q-14 -9 -33 -16t-38.5 -11
t-36.5 -4q-20 0 -37.5 9t-29 24.5t-15.5 34.5h-4q-13 -17 -31.5 -30t-39.5 -22t-43 -13.5t-43 -4.5q-61 0 -93.5 30.5t-32.5 91.5q0 17 3 35l40 307l-5 44h127zM300 878l52 -125h-93l-94 125h135zM318 643q0 29 22 50.5t50 21.5q24 0 39.5 -16t15.5 -39q0 -29 -21.5 -50
t-50.5 -21q-24 0 -39.5 15.5t-15.5 38.5zM147 643q0 29 22.5 50.5t50.5 21.5q24 0 39.5 -16.5t15.5 -39.5q0 -28 -22.5 -49t-49.5 -21q-24 0 -40 15.5t-16 38.5z" />
    <glyph glyph-name="Gcaron" unicode="&#x1e6;" horiz-adv-x="668" 
d="M422 744q37 0 81.5 -7.5t85.5 -25t66 -46.5l-80 -82q-28 25 -51.5 39.5t-49.5 21t-65 6.5q-68 0 -115.5 -31t-77.5 -82t-44 -111t-14 -118q0 -38 7.5 -77t25.5 -72t48.5 -53.5t76.5 -20.5q47 0 83.5 22t59 57.5t27.5 75.5l8 62h-144l11 88h277q-14 -97 -27.5 -195
t-21.5 -196h-68l-21 76q-51 -43 -101 -64.5t-118 -21.5q-90 0 -148.5 38.5t-87 105.5t-28.5 151q0 91 26.5 174t78 147.5t127 101.5t173.5 37zM427 869l67 44h86l-114 -125h-98l-81 125h88z" />
    <glyph glyph-name="gcaron" unicode="&#x1e7;" horiz-adv-x="491" 
d="M421 500h63l-66 -460q-7 -47 -21 -94.5t-42 -87.5t-74.5 -64t-117.5 -24q-43 0 -77 8.5t-59 21.5t-39 26l61 91q16 -19 43.5 -38t70.5 -19q48 0 75 16.5t40.5 46.5t19.5 69l7 41h-4q-22 -22 -52.5 -33.5t-62.5 -11.5q-58 0 -94.5 29.5t-53.5 78t-17 105.5
q0 55 15.5 109.5t47 99.5t79 72t111.5 27q26 0 65.5 -13t66.5 -46v-85q-34 32 -65 47t-61 15q-32 0 -58 -15.5t-45 -45t-29 -70.5t-10 -92q0 -54 16 -94t55 -40q32 0 55 22.5t39 60.5t27 85t18 96l11 73zM311 660l69 64h86l-116 -145h-98l-79 145h88z" />
    <glyph glyph-name="uni01EA" unicode="&#x1ea;" horiz-adv-x="707" 
d="M300 -11q-70 0 -123 22.5t-88.5 63.5t-53.5 97t-18 123q0 86 25 166t74 143.5t120.5 101t164.5 37.5q95 0 159 -38t97 -106t33 -160q0 -86 -26 -166.5t-76 -144.5t-122.5 -101.5t-165.5 -37.5zM316 84q52 0 91.5 22.5t66.5 60t43.5 83.5t24 94t7.5 90q0 53 -14 102
t-48.5 80.5t-96.5 31.5q-52 0 -91 -22.5t-66 -60t-44 -83.5t-24.5 -94t-7.5 -90q0 -52 14 -101.5t48.5 -81t96.5 -31.5zM437 14q-20 -7 -45 -19t-48.5 -28t-39 -35.5t-15.5 -40.5q0 -17 11 -24t26 -7q20 0 46 13t42 23l16 -50q-21 -15 -45.5 -28t-50.5 -21t-54 -8
q-37 0 -64.5 18.5t-27.5 58.5q0 35 22.5 63.5t57.5 50t72 35.5t65 18z" />
    <glyph glyph-name="uni01EB" unicode="&#x1eb;" horiz-adv-x="496" 
d="M213 -12q-68 0 -110.5 30t-62 78.5t-19.5 104.5q0 54 17.5 109t50.5 100t82 72.5t112 27.5q69 0 111 -30t61.5 -78.5t19.5 -104.5q0 -54 -17.5 -109t-50.5 -100t-82 -72.5t-112 -27.5zM224 69q33 0 58 20t42 54t25.5 74.5t8.5 80.5q0 36 -8 65.5t-26.5 47.5t-51.5 18
t-58 -20t-42 -54t-25.5 -74t-8.5 -81q0 -35 8 -65t27 -48t51 -18zM324 14q-20 -7 -45 -19t-48.5 -28t-39 -35.5t-15.5 -40.5q0 -17 11 -24t26 -7q20 0 46 13t42 23l16 -50q-21 -15 -45.5 -28t-50.5 -21t-54 -8q-37 0 -64.5 18.5t-27.5 58.5q0 35 22.5 63.5t57.5 50t72 35.5
t65 18z" />
    <glyph glyph-name="Aringacute" unicode="&#x1fa;" horiz-adv-x="585" 
d="M397 732l148 -732h-140l-39 210h-200l-97 -210h-124l344 732h108zM309 558l-103 -250h143zM453 1167h112l-148 -124h-70zM377 1004q41 0 68.5 -28t27.5 -67q0 -32 -17 -59.5t-45 -43.5t-60 -16q-40 0 -67.5 27.5t-27.5 66.5q0 33 17 60t44.5 43.5t59.5 16.5zM367 937
q-19 0 -31.5 -12.5t-12.5 -32.5q0 -15 10 -25.5t26 -10.5q19 0 32 12.5t13 31.5q0 15 -10.5 26t-26.5 11z" />
    <glyph glyph-name="aringacute" unicode="&#x1fb;" horiz-adv-x="513" 
d="M421 500h63q-15 -102 -25.5 -169t-16.5 -107.5t-9 -62.5t-4 -33t-1 -19q0 -13 5 -24.5t20 -11.5q10 0 24 4t24 8l17 -63q-22 -14 -51 -22.5t-55 -8.5q-30 0 -53 19.5t-29 48.5h-4q-29 -39 -68.5 -55t-71.5 -16q-58 0 -94.5 29.5t-53.5 78t-17 105.5q0 55 15.5 109.5
t47 99.5t79 72t111.5 27q26 0 65.5 -13t66.5 -46v-85q-34 32 -65 47t-61 15q-32 0 -58 -15.5t-45 -45t-29 -70.5t-10 -92q0 -54 16 -94t55 -40q32 0 55 22.5t39 60.5t27 85t18 96l11 73zM407 963h117l-152 -145h-75zM328 769q41 0 68.5 -28t27.5 -67q0 -32 -17 -59.5
t-45 -43.5t-60 -16q-40 0 -67.5 27.5t-27.5 66.5q0 33 17 60t44.5 43.5t59.5 16.5zM319 702q-19 0 -32 -13t-13 -33q0 -15 9.5 -25t25.5 -10q19 0 32.5 13t13.5 32q0 15 -10 25.5t-26 10.5z" />
    <glyph glyph-name="AEacute" unicode="&#x1fc;" horiz-adv-x="862" 
d="M409 210h-205l-137 -210h-122l433 670l-5 62h514l-14 -99h-267l-29 -207h215l-14 -99h-215l-32 -228h267l-14 -99h-405zM268 308h154l44 325zM632 970h145l-175 -165h-103z" />
    <glyph glyph-name="aeacute" unicode="&#x1fd;" horiz-adv-x="776" 
d="M364 107q-16 -32 -41 -59t-59 -43.5t-78 -16.5q-58 0 -94.5 29.5t-53.5 78t-17 105.5q0 55 15.5 109.5t47 99.5t79 72t111.5 27q18 0 45 -5t57.5 -22t57.5 -53l-28 -64q-34 32 -65 47t-61 15q-32 0 -58 -15.5t-45 -45t-29 -70.5t-10 -92q0 -54 16 -94t55 -40
q37 0 61.5 28.5t41 75t26.5 101.5zM560 76q41 0 80 21t64 40l42 -83l-13.5 -10t-39.5 -23t-62.5 -23t-82.5 -10q-78 0 -125.5 29t-69.5 78.5t-22 108.5q0 57 18.5 111.5t53.5 98.5t86 70t115 26q43 0 79 -13.5t57.5 -41t21.5 -71.5q0 -25 -14 -58t-50 -64t-100 -50.5
t-163 -17.5v83q44 0 77 6.5t57.5 18t39.5 25.5t22.5 29.5t7.5 30.5q0 17 -11 28t-33 11q-36 0 -63.5 -17.5t-46 -47.5t-28 -66t-9.5 -74q0 -40 11 -73t35.5 -52.5t65.5 -19.5zM534 735h145l-175 -165h-103z" />
    <glyph glyph-name="Oslashacute" unicode="&#x1fe;" horiz-adv-x="707" 
d="M300 -11q-70 0 -123 22.5t-88.5 63.5t-53.5 97t-18 123q0 86 25 166t74 143.5t120.5 101t164.5 37.5q95 0 159 -38t97 -106t33 -160q0 -86 -26 -166.5t-76 -144.5t-122.5 -101.5t-165.5 -37.5zM316 84q52 0 91.5 22.5t66.5 60t43.5 83.5t24 94t7.5 90q0 53 -14 102
t-48.5 80.5t-96.5 31.5q-52 0 -91 -22.5t-66 -60t-44 -83.5t-24.5 -94t-7.5 -90q0 -52 14 -101.5t48.5 -81t96.5 -31.5zM70 -54l-59 47l632 801l60 -48zM489 923h146l-171 -144h-104z" />
    <glyph glyph-name="oslashacute" unicode="&#x1ff;" horiz-adv-x="496" 
d="M213 -12q-68 0 -110.5 30t-62 78.5t-19.5 104.5q0 54 17.5 109t50.5 100t82 72.5t112 27.5q69 0 111 -30t61.5 -78.5t19.5 -104.5q0 -54 -17.5 -109t-50.5 -100t-82 -72.5t-112 -27.5zM224 69q33 0 58 20t42 54t25.5 74.5t8.5 80.5q0 36 -8 65.5t-26.5 47.5t-51.5 18
t-58 -20t-42 -54t-25.5 -74t-8.5 -81q0 -35 8 -65t27 -48t51 -18zM40 -83l-57 44l481 636l59 -44zM375 735h145l-175 -165h-103z" />
    <glyph glyph-name="uni0200" unicode="&#x200;" horiz-adv-x="585" 
d="M397 732l148 -732h-140l-39 210h-200l-97 -210h-124l344 732h108zM309 558l-103 -250h143zM425 923l49 -144h-93l-91 144h135zM268 923l49 -144h-93l-91 144h135z" />
    <glyph glyph-name="uni0201" unicode="&#x201;" horiz-adv-x="513" 
d="M421 500h63q-15 -102 -25.5 -169t-16.5 -107.5t-9 -62.5t-4 -33t-1 -19q0 -13 5 -24.5t20 -11.5q10 0 24 4t24 8l17 -63q-22 -14 -51 -22.5t-55 -8.5q-30 0 -53 19.5t-29 48.5h-4q-29 -39 -68.5 -55t-71.5 -16q-58 0 -94.5 29.5t-53.5 78t-17 105.5q0 55 15.5 109.5
t47 99.5t79 72t111.5 27q26 0 65.5 -13t66.5 -46v-85q-34 32 -65 47t-61 15q-32 0 -58 -15.5t-45 -45t-29 -70.5t-10 -92q0 -54 16 -94t55 -40q32 0 55 22.5t39 60.5t27 85t18 96l11 73zM384 735l45 -165h-93l-87 165h135zM227 735l45 -165h-93l-87 165h135z" />
    <glyph glyph-name="uni0202" unicode="&#x202;" horiz-adv-x="585" 
d="M397 732l148 -732h-140l-39 210h-200l-97 -210h-124l344 732h108zM309 558l-103 -250h143zM197 782q11 37 32 68.5t55.5 51.5t86.5 20q49 0 77 -20t39.5 -52t10.5 -68h-67q-5 20 -22 35t-54 15q-36 0 -57 -15.5t-32 -34.5h-69z" />
    <glyph glyph-name="uni0203" unicode="&#x203;" horiz-adv-x="513" 
d="M421 500h63q-15 -102 -25.5 -169t-16.5 -107.5t-9 -62.5t-4 -33t-1 -19q0 -13 5 -24.5t20 -11.5q10 0 24 4t24 8l17 -63q-22 -14 -51 -22.5t-55 -8.5q-30 0 -53 19.5t-29 48.5h-4q-29 -39 -68.5 -55t-71.5 -16q-58 0 -94.5 29.5t-53.5 78t-17 105.5q0 55 15.5 109.5
t47 99.5t79 72t111.5 27q26 0 65.5 -13t66.5 -46v-85q-34 32 -65 47t-61 15q-32 0 -58 -15.5t-45 -45t-29 -70.5t-10 -92q0 -54 16 -94t55 -40q32 0 55 22.5t39 60.5t27 85t18 96l11 73zM153 572q19 70 59.5 115t118.5 45q49 0 76.5 -21t38.5 -57t8 -82h-67q-4 35 -20 52.5
t-53 17.5q-36 0 -58 -18t-34 -52h-69z" />
    <glyph glyph-name="uni0204" unicode="&#x204;" horiz-adv-x="507" 
d="M94 732h438l-13 -99h-293l-28 -207h224l-13 -99h-224l-30 -228h292l-13 -99h-423l90 671zM406 923l49 -144h-93l-91 144h135zM249 923l49 -144h-93l-91 144h135z" />
    <glyph glyph-name="uni0205" unicode="&#x205;" horiz-adv-x="466" 
d="M294 510q43 0 79 -13.5t57.5 -41t21.5 -71.5q0 -25 -14 -58t-50 -64t-100 -50.5t-163 -17.5v83q54 0 93 10t63.5 26.5t36 36t11.5 37.5q0 17 -11 28t-33 11q-36 0 -63.5 -17.5t-46 -47.5t-28 -66t-9.5 -74q0 -76 31.5 -110.5t83.5 -34.5q32 0 70 12t78 34l35 -68
l-13.5 -10t-39.5 -23t-62.5 -23t-82.5 -10q-78 0 -125.5 29t-69.5 78.5t-22 108.5q0 57 18.5 111.5t53.5 98.5t86 70t115 26zM379 735l45 -165h-93l-87 165h135zM222 735l45 -165h-93l-87 165h135z" />
    <glyph glyph-name="uni0206" unicode="&#x206;" horiz-adv-x="507" 
d="M94 732h438l-13 -99h-293l-28 -207h224l-13 -99h-224l-30 -228h292l-13 -99h-423l90 671zM178 782q11 37 32 68.5t55.5 51.5t86.5 20q49 0 77 -20t39.5 -52t10.5 -68h-67q-5 20 -22 35t-54 15q-36 0 -57 -15.5t-32 -34.5h-69z" />
    <glyph glyph-name="uni0207" unicode="&#x207;" horiz-adv-x="466" 
d="M294 510q43 0 79 -13.5t57.5 -41t21.5 -71.5q0 -25 -14 -58t-50 -64t-100 -50.5t-163 -17.5v83q54 0 93 10t63.5 26.5t36 36t11.5 37.5q0 17 -11 28t-33 11q-36 0 -63.5 -17.5t-46 -47.5t-28 -66t-9.5 -74q0 -76 31.5 -110.5t83.5 -34.5q32 0 70 12t78 34l35 -68
l-13.5 -10t-39.5 -23t-62.5 -23t-82.5 -10q-78 0 -125.5 29t-69.5 78.5t-22 108.5q0 57 18.5 111.5t53.5 98.5t86 70t115 26zM148 572q19 70 59.5 115t118.5 45q49 0 76.5 -21t38.5 -57t8 -82h-67q-4 35 -20 52.5t-53 17.5q-36 0 -58 -18t-34 -52h-69z" />
    <glyph glyph-name="uni0208" unicode="&#x208;" horiz-adv-x="250" 
d="M95 732h144l-97 -732h-131l90 671zM258 923l49 -144h-93l-91 144h135zM101 923l49 -144h-93l-91 144h135z" />
    <glyph glyph-name="uni0209" unicode="&#x209;" horiz-adv-x="228" 
d="M151 0h-124l59 443l-3 54h124l-59 -442zM239 735l45 -165h-93l-87 165h135zM82 735l45 -165h-93l-87 165h135z" />
    <glyph glyph-name="uni020A" unicode="&#x20a;" horiz-adv-x="250" 
d="M95 732h144l-97 -732h-131l90 671zM30 782q11 37 32 68.5t55.5 51.5t86.5 20q49 0 77 -20t39.5 -52t10.5 -68h-67q-5 20 -22 35t-54 15q-36 0 -57 -15.5t-32 -34.5h-69z" />
    <glyph glyph-name="uni020B" unicode="&#x20b;" horiz-adv-x="228" 
d="M151 0h-124l59 443l-3 54h124l-59 -442zM8 572q19 70 59.5 115t118.5 45q49 0 76.5 -21t38.5 -57t8 -82h-67q-4 35 -20 52.5t-53 17.5q-36 0 -58 -18t-34 -52h-69z" />
    <glyph glyph-name="uni020C" unicode="&#x20c;" horiz-adv-x="707" 
d="M300 -11q-70 0 -123 22.5t-88.5 63.5t-53.5 97t-18 123q0 86 25 166t74 143.5t120.5 101t164.5 37.5q95 0 159 -38t97 -106t33 -160q0 -86 -26 -166.5t-76 -144.5t-122.5 -101.5t-165.5 -37.5zM316 84q52 0 91.5 22.5t66.5 60t43.5 83.5t24 94t7.5 90q0 53 -14 102
t-48.5 80.5t-96.5 31.5q-52 0 -91 -22.5t-66 -60t-44 -83.5t-24.5 -94t-7.5 -90q0 -52 14 -101.5t48.5 -81t96.5 -31.5zM490 923l49 -144h-93l-91 144h135zM333 923l49 -144h-93l-91 144h135z" />
    <glyph glyph-name="uni020D" unicode="&#x20d;" horiz-adv-x="496" 
d="M213 -12q-68 0 -110.5 30t-62 78.5t-19.5 104.5q0 54 17.5 109t50.5 100t82 72.5t112 27.5q69 0 111 -30t61.5 -78.5t19.5 -104.5q0 -54 -17.5 -109t-50.5 -100t-82 -72.5t-112 -27.5zM224 69q33 0 58 20t42 54t25.5 74.5t8.5 80.5q0 36 -8 65.5t-26.5 47.5t-51.5 18
t-58 -20t-42 -54t-25.5 -74t-8.5 -81q0 -35 8 -65t27 -48t51 -18zM374 735l45 -165h-93l-87 165h135zM217 735l45 -165h-93l-87 165h135z" />
    <glyph glyph-name="uni020E" unicode="&#x20e;" horiz-adv-x="707" 
d="M300 -11q-70 0 -123 22.5t-88.5 63.5t-53.5 97t-18 123q0 86 25 166t74 143.5t120.5 101t164.5 37.5q95 0 159 -38t97 -106t33 -160q0 -86 -26 -166.5t-76 -144.5t-122.5 -101.5t-165.5 -37.5zM316 84q52 0 91.5 22.5t66.5 60t43.5 83.5t24 94t7.5 90q0 53 -14 102
t-48.5 80.5t-96.5 31.5q-52 0 -91 -22.5t-66 -60t-44 -83.5t-24.5 -94t-7.5 -90q0 -52 14 -101.5t48.5 -81t96.5 -31.5zM262 782q11 37 32 68.5t55.5 51.5t86.5 20q49 0 77 -20t39.5 -52t10.5 -68h-67q-5 20 -22 35t-54 15q-36 0 -57 -15.5t-32 -34.5h-69z" />
    <glyph glyph-name="uni020F" unicode="&#x20f;" horiz-adv-x="496" 
d="M213 -12q-68 0 -110.5 30t-62 78.5t-19.5 104.5q0 54 17.5 109t50.5 100t82 72.5t112 27.5q69 0 111 -30t61.5 -78.5t19.5 -104.5q0 -54 -17.5 -109t-50.5 -100t-82 -72.5t-112 -27.5zM224 69q33 0 58 20t42 54t25.5 74.5t8.5 80.5q0 36 -8 65.5t-26.5 47.5t-51.5 18
t-58 -20t-42 -54t-25.5 -74t-8.5 -81q0 -35 8 -65t27 -48t51 -18zM143 572q19 70 59.5 115t118.5 45q49 0 76.5 -21t38.5 -57t8 -82h-67q-4 35 -20 52.5t-53 17.5q-36 0 -58 -18t-34 -52h-69z" />
    <glyph glyph-name="uni0210" unicode="&#x210;" horiz-adv-x="565" 
d="M142 0h-131l90 671l-6 61h240q60 0 108.5 -19.5t77 -61t28.5 -108.5q0 -63 -23.5 -109t-59.5 -77t-72 -49l141 -308h-139l-175 383h33q65 0 110.5 39.5t45.5 118.5q0 46 -27.5 68.5t-73.5 22.5h-83zM396 923l49 -144h-93l-91 144h135zM239 923l49 -144h-93l-91 144h135z
" />
    <glyph glyph-name="uni0211" unicode="&#x211;" horiz-adv-x="335" 
d="M186 507q6 -21 8.5 -52t0.5 -53q19 26 46 50t59.5 39.5t65.5 15.5l-35 -126q-42 0 -78.5 -23.5t-70.5 -68.5l-40 -289h-114l48 363q2 10 3 23.5t1 26.5q0 20 -2.5 43.5t-13.5 40.5zM288 735l45 -165h-93l-87 165h135zM131 735l45 -165h-93l-87 165h135z" />
    <glyph glyph-name="uni0212" unicode="&#x212;" horiz-adv-x="565" 
d="M142 0h-131l90 671l-6 61h240q60 0 108.5 -19.5t77 -61t28.5 -108.5q0 -63 -23.5 -109t-59.5 -77t-72 -49l141 -308h-139l-175 383h33q65 0 110.5 39.5t45.5 118.5q0 46 -27.5 68.5t-73.5 22.5h-83zM168 782q11 37 32 68.5t55.5 51.5t86.5 20q49 0 77 -20t39.5 -52
t10.5 -68h-67q-5 20 -22 35t-54 15q-36 0 -57 -15.5t-32 -34.5h-69z" />
    <glyph glyph-name="uni0213" unicode="&#x213;" horiz-adv-x="335" 
d="M186 507q6 -21 8.5 -52t0.5 -53q19 26 46 50t59.5 39.5t65.5 15.5l-35 -126q-42 0 -78.5 -23.5t-70.5 -68.5l-40 -289h-114l48 363q2 10 3 23.5t1 26.5q0 20 -2.5 43.5t-13.5 40.5zM57 572q19 70 59.5 115t118.5 45q49 0 76.5 -21t38.5 -57t8 -82h-67q-4 35 -20 52.5
t-53 17.5q-36 0 -58 -18t-34 -52h-69z" />
    <glyph glyph-name="uni0214" unicode="&#x214;" horiz-adv-x="659" 
d="M234 732l-65 -489q-1 -7 -1.5 -13.5t-0.5 -13.5q0 -41 16.5 -70.5t46.5 -45.5t71 -16q49 0 86 22.5t60 59.5t28 79l66 487h107l-61 -454q-12 -88 -46.5 -153t-99 -100.5t-167.5 -35.5q-56 0 -100 14t-75 42t-47.5 71t-16.5 100q0 16 1 31t3 31l53 394l-7 60h149zM472 923
l49 -144h-93l-91 144h135zM315 923l49 -144h-93l-91 144h135z" />
    <glyph glyph-name="uni0215" unicode="&#x215;" horiz-adv-x="499" 
d="M192 497l-43 -328q-1 -7 -1.5 -13.5t-0.5 -13.5q0 -25 10.5 -41.5t38.5 -16.5q26 0 46.5 15.5t35.5 41t25 55.5t16.5 59t9.5 52l19 146l-6 44h128l-54 -367q-1 -5 -1.5 -10.5t-0.5 -10.5q0 -13 4.5 -24.5t20.5 -11.5q10 0 24 4t24 8l17 -63q-14 -9 -33 -16t-38.5 -11
t-36.5 -4q-20 0 -37.5 9t-29 24.5t-15.5 34.5h-4q-13 -17 -31.5 -30t-39.5 -22t-43 -13.5t-43 -4.5q-61 0 -93.5 30.5t-32.5 91.5q0 17 3 35l40 307l-5 44h127zM366 735l45 -165h-93l-87 165h135zM209 735l45 -165h-93l-87 165h135z" />
    <glyph glyph-name="uni0216" unicode="&#x216;" horiz-adv-x="659" 
d="M234 732l-65 -489q-1 -7 -1.5 -13.5t-0.5 -13.5q0 -41 16.5 -70.5t46.5 -45.5t71 -16q49 0 86 22.5t60 59.5t28 79l66 487h107l-61 -454q-12 -88 -46.5 -153t-99 -100.5t-167.5 -35.5q-56 0 -100 14t-75 42t-47.5 71t-16.5 100q0 16 1 31t3 31l53 394l-7 60h149zM244 782
q11 37 32 68.5t55.5 51.5t86.5 20q49 0 77 -20t39.5 -52t10.5 -68h-67q-5 20 -22 35t-54 15q-36 0 -57 -15.5t-32 -34.5h-69z" />
    <glyph glyph-name="uni0217" unicode="&#x217;" horiz-adv-x="499" 
d="M192 497l-43 -328q-1 -7 -1.5 -13.5t-0.5 -13.5q0 -25 10.5 -41.5t38.5 -16.5q26 0 46.5 15.5t35.5 41t25 55.5t16.5 59t9.5 52l19 146l-6 44h128l-54 -367q-1 -5 -1.5 -10.5t-0.5 -10.5q0 -13 4.5 -24.5t20.5 -11.5q10 0 24 4t24 8l17 -63q-14 -9 -33 -16t-38.5 -11
t-36.5 -4q-20 0 -37.5 9t-29 24.5t-15.5 34.5h-4q-13 -17 -31.5 -30t-39.5 -22t-43 -13.5t-43 -4.5q-61 0 -93.5 30.5t-32.5 91.5q0 17 3 35l40 307l-5 44h127zM135 572q19 70 59.5 115t118.5 45q49 0 76.5 -21t38.5 -57t8 -82h-67q-4 35 -20 52.5t-53 17.5q-36 0 -58 -18
t-34 -52h-69z" />
    <glyph glyph-name="uni0218" unicode="&#x218;" horiz-adv-x="495" 
d="M333 744q26 0 59.5 -7.5t65.5 -21t51 -31.5l-59 -92q-15 17 -40.5 29.5t-52.5 19.5t-50 7q-28 0 -53 -11.5t-40.5 -33.5t-15.5 -53q0 -32 19 -54t49 -40t63 -36t63 -41.5t49 -56.5t19 -82q0 -77 -38 -134t-101 -87.5t-138 -30.5q-56 0 -114 14.5t-105 46.5l63 108
q20 -22 45 -38.5t53.5 -25.5t58.5 -9q35 0 65 15t49 42t19 63q0 33 -19 56t-49 41.5t-63.5 36.5t-63.5 41t-49 55.5t-19 79.5q0 81 39 132t102.5 74.5t137.5 23.5zM200 -64q29 0 43.5 -19t14.5 -45q0 -32 -16 -62.5t-42 -56.5t-55 -45l-28 34q9 7 20 19t19 24t8 20
q0 9 -7.5 16.5t-15 17.5t-7.5 27q0 28 20 49t46 21z" />
    <glyph glyph-name="uni0219" unicode="&#x219;" horiz-adv-x="371" 
d="M327 395q-17 17 -41 24t-48 7q-18 0 -34.5 -6t-27 -18.5t-10.5 -32.5q0 -23 18 -37.5t45 -26t54 -26.5t45 -40t18 -67q0 -61 -29.5 -102t-77 -61.5t-102.5 -20.5q-37 0 -78.5 12t-73.5 32l52 82q23 -15 48.5 -29t53.5 -14q22 0 40 9.5t29 26.5t11 40q0 25 -18.5 40
t-45 26.5t-53.5 26.5t-45.5 38.5t-18.5 63.5q0 59 29.5 96t76.5 54.5t99 17.5q33 0 70 -7.5t66 -23.5zM138 -64q29 0 43.5 -19t14.5 -45q0 -32 -16 -62.5t-42 -56.5t-55 -45l-28 34q9 7 20 19t19 24t8 20q0 9 -7.5 16.5t-15 17.5t-7.5 27q0 28 20 49t46 21z" />
    <glyph glyph-name="uni021A" unicode="&#x21a;" horiz-adv-x="523" 
d="M43 732h525l-14 -99h-195l-85 -633h-136l84 633h-192zM191 -64q29 0 43.5 -19t14.5 -45q0 -32 -16 -62.5t-42 -56.5t-55 -45l-28 34q9 7 20 19t19 24t8 20q0 9 -7.5 16.5t-15 17.5t-7.5 27q0 28 20 49t46 21z" />
    <glyph glyph-name="uni021B" unicode="&#x21b;" horiz-adv-x="315" 
d="M251 633q-9 -34 -17 -68t-14 -68h115l-27 -83h-100l-36 -275q-1 -7 -1.5 -14t-0.5 -14q0 -16 6.5 -27.5t26.5 -11.5q19 0 38 3t37 7l11 -69q-18 -6 -42 -11t-48 -8.5t-44 -3.5q-38 0 -61 10.5t-33 31.5t-10 50q0 5 0.5 10.5t1 11.5t1.5 12l40 298h-69l11 83q38 0 60 12.5
t37 42t30 81.5h88zM115 -64q29 0 43.5 -19t14.5 -45q0 -32 -16 -62.5t-42 -56.5t-55 -45l-28 34q9 7 20 19t19 24t8 20q0 9 -7.5 16.5t-15 17.5t-7.5 27q0 28 20 49t46 21z" />
    <glyph glyph-name="uni022A" unicode="&#x22a;" horiz-adv-x="707" 
d="M300 -11q-70 0 -123 22.5t-88.5 63.5t-53.5 97t-18 123q0 86 25 166t74 143.5t120.5 101t164.5 37.5q95 0 159 -38t97 -106t33 -160q0 -86 -26 -166.5t-76 -144.5t-122.5 -101.5t-165.5 -37.5zM316 84q52 0 91.5 22.5t66.5 60t43.5 83.5t24 94t7.5 90q0 53 -14 102
t-48.5 80.5t-96.5 31.5q-52 0 -91 -22.5t-66 -60t-44 -83.5t-24.5 -94t-7.5 -90q0 -52 14 -101.5t48.5 -81t96.5 -31.5zM300 1029h295l-11 -74h-295zM400 861q0 -29 -22 -50.5t-51 -21.5q-24 0 -39.5 15.5t-15.5 38.5q0 29 22.5 50.5t50.5 21.5q24 0 39.5 -15.5t15.5 -38.5z
M571 861q0 -29 -22.5 -50.5t-51.5 -21.5q-23 0 -39 16t-16 38q0 29 22.5 50.5t50.5 21.5q24 0 40 -15.5t16 -38.5z" />
    <glyph glyph-name="uni022B" unicode="&#x22b;" horiz-adv-x="496" 
d="M213 -12q-68 0 -110.5 30t-62 78.5t-19.5 104.5q0 54 17.5 109t50.5 100t82 72.5t112 27.5q69 0 111 -30t61.5 -78.5t19.5 -104.5q0 -54 -17.5 -109t-50.5 -100t-82 -72.5t-112 -27.5zM224 69q33 0 58 20t42 54t25.5 74.5t8.5 80.5q0 36 -8 65.5t-26.5 47.5t-51.5 18
t-58 -20t-42 -54t-25.5 -74t-8.5 -81q0 -35 8 -65t27 -48t51 -18zM182 829h295l-11 -74h-295zM282 661q0 -29 -22 -50.5t-51 -21.5q-24 0 -39.5 15.5t-15.5 38.5q0 29 22.5 50.5t50.5 21.5q24 0 39.5 -15.5t15.5 -38.5zM453 661q0 -29 -22.5 -50.5t-51.5 -21.5q-23 0 -39 16
t-16 38q0 29 22.5 50.5t50.5 21.5q24 0 40 -15.5t16 -38.5z" />
    <glyph glyph-name="uni022C" unicode="&#x22c;" horiz-adv-x="707" 
d="M300 -11q-70 0 -123 22.5t-88.5 63.5t-53.5 97t-18 123q0 86 25 166t74 143.5t120.5 101t164.5 37.5q95 0 159 -38t97 -106t33 -160q0 -86 -26 -166.5t-76 -144.5t-122.5 -101.5t-165.5 -37.5zM316 84q52 0 91.5 22.5t66.5 60t43.5 83.5t24 94t7.5 90q0 53 -14 102
t-48.5 80.5t-96.5 31.5q-52 0 -91 -22.5t-66 -60t-44 -83.5t-24.5 -94t-7.5 -90q0 -52 14 -101.5t48.5 -81t96.5 -31.5zM599 906q-4 -32 -20.5 -58.5t-42.5 -42.5t-60 -16q-27 0 -48 10t-39 20t-37 10q-13 0 -28 -7.5t-17 -22.5h-65q5 32 21 58.5t42 42.5t60 16
q28 0 48.5 -10t38.5 -20t37 -10q13 0 28 7.5t18 22.5h64zM288 1030h315l-10 -74h-315z" />
    <glyph glyph-name="uni022D" unicode="&#x22d;" horiz-adv-x="496" 
d="M213 -12q-68 0 -110.5 30t-62 78.5t-19.5 104.5q0 54 17.5 109t50.5 100t82 72.5t112 27.5q69 0 111 -30t61.5 -78.5t19.5 -104.5q0 -54 -17.5 -109t-50.5 -100t-82 -72.5t-112 -27.5zM224 69q33 0 58 20t42 54t25.5 74.5t8.5 80.5q0 36 -8 65.5t-26.5 47.5t-51.5 18
t-58 -20t-42 -54t-25.5 -74t-8.5 -81q0 -35 8 -65t27 -48t51 -18zM481 706q-4 -32 -20.5 -58.5t-42.5 -42.5t-60 -16q-27 0 -48 10t-39 20t-37 10q-13 0 -28 -7.5t-17 -22.5h-65q5 32 21 58.5t42 42.5t60 16q28 0 48.5 -10t38.5 -20t37 -10q13 0 28 7.5t18 22.5h64zM170 830
h315l-10 -74h-315z" />
    <glyph glyph-name="uni0230" unicode="&#x230;" horiz-adv-x="707" 
d="M300 -11q-70 0 -123 22.5t-88.5 63.5t-53.5 97t-18 123q0 86 25 166t74 143.5t120.5 101t164.5 37.5q95 0 159 -38t97 -106t33 -160q0 -86 -26 -166.5t-76 -144.5t-122.5 -101.5t-165.5 -37.5zM316 84q52 0 91.5 22.5t66.5 60t43.5 83.5t24 94t7.5 90q0 53 -14 102
t-48.5 80.5t-96.5 31.5q-52 0 -91 -22.5t-66 -60t-44 -83.5t-24.5 -94t-7.5 -90q0 -52 14 -101.5t48.5 -81t96.5 -31.5zM300 1029h295l-11 -74h-295zM486 861q0 -29 -22.5 -50.5t-51.5 -21.5q-23 0 -39 16t-16 38q0 29 22.5 50.5t50.5 21.5q24 0 40 -15.5t16 -38.5z" />
    <glyph glyph-name="uni0231" unicode="&#x231;" horiz-adv-x="496" 
d="M213 -12q-68 0 -110.5 30t-62 78.5t-19.5 104.5q0 54 17.5 109t50.5 100t82 72.5t112 27.5q69 0 111 -30t61.5 -78.5t19.5 -104.5q0 -54 -17.5 -109t-50.5 -100t-82 -72.5t-112 -27.5zM224 69q33 0 58 20t42 54t25.5 74.5t8.5 80.5q0 36 -8 65.5t-26.5 47.5t-51.5 18
t-58 -20t-42 -54t-25.5 -74t-8.5 -81q0 -35 8 -65t27 -48t51 -18zM182 829h295l-11 -74h-295zM368 661q0 -29 -22.5 -50.5t-51.5 -21.5q-23 0 -39 16t-16 38q0 29 22.5 50.5t50.5 21.5q24 0 40 -15.5t16 -38.5z" />
    <glyph glyph-name="uni0232" unicode="&#x232;" horiz-adv-x="523" 
d="M181 732l96 -260l171 260h130l-263 -405l-44 -327h-130l43 330l-149 402h146zM185 889h295l-10 -74h-295z" />
    <glyph glyph-name="uni0233" unicode="&#x233;" horiz-adv-x="419" 
d="M-48 -150q33 0 59 15t46.5 38.5t36 49.5t26.5 48l-105 496h122q12 -56 21.5 -99t17.5 -81.5t13 -79t7 -91.5q14 47 29 86t33.5 78t40 84t48.5 103h112l-233 -500q-31 -67 -67 -118t-87 -80t-129 -29zM116 689h295l-10 -74h-295z" />
    <glyph glyph-name="uni0237" unicode="&#x237;" horiz-adv-x="228" 
d="M209 497l-59 -432q-7 -48 -19.5 -96.5t-36.5 -89.5t-63 -68.5t-98 -34.5l-14 55q41 21 63.5 55t33.5 74.5t16 78.5l55 405l-4 53h126z" />
    <glyph glyph-name="uni0259" unicode="&#x259;" horiz-adv-x="462" 
d="M163 -13q-43 0 -77.5 13t-55 38.5t-20.5 64.5q0 23 8.5 50t29 53t55.5 48t87 35t124 14q-4 60 -33.5 89t-68.5 29q-41 0 -79.5 -20.5t-64.5 -40.5l-42 83l13.5 10t39.5 23t62.5 23t82.5 10q61 0 110 -25t78 -72.5t29 -115.5q0 -51 -18 -105t-53.5 -100.5t-87 -75
t-119.5 -28.5zM133 105q0 -15 10 -24.5t29 -9.5q12 0 30.5 7.5t39.5 24.5t38.5 45t26.5 70q-40 -1 -72 -10.5t-55 -25t-35 -35t-12 -42.5z" />
    <glyph glyph-name="uni0272" unicode="&#x272;" horiz-adv-x="492" 
d="M-81 -169q41 21 63.5 55t33.5 74.5t16 78.5l43 317q2 14 2.5 28.5t0.5 29.5q0 12 -1 26.5t-3.5 28.5t-9.5 24l121 15q5 -16 6.5 -31.5t1.5 -31.5q21 17 46 32t52.5 24.5t54.5 9.5q32 0 54.5 -8t37.5 -23.5t22 -38.5t7 -54q0 -27 -3 -51l-38 -282l3 -54h-125l43 324
q2 9 2.5 18t0.5 18q0 18 -5 30t-15.5 18t-29.5 6q-12 0 -27.5 -6t-31.5 -15t-29.5 -18.5t-21.5 -17.5l-40 -292q-7 -48 -19.5 -96.5t-36.5 -89.5t-63 -68.5t-98 -34.5z" />
    <glyph glyph-name="uni02B9" unicode="&#x2b9;" horiz-adv-x="295" 
d="M169 755h145l-117 -185h-103z" />
    <glyph glyph-name="uni02BA" unicode="&#x2ba;" horiz-adv-x="492" 
d="M169 755h145l-117 -185h-103zM366 755h145l-117 -185h-103z" />
    <glyph glyph-name="uni02BC" unicode="&#x2bc;" horiz-adv-x="286" 
d="M222 772q32 0 47 -23.5t10 -53.5q-7 -47 -40 -85.5t-72 -64.5q-7 8 -14.5 16.5t-13.5 17.5q11 9 28.5 28.5t18.5 32.5q2 11 -7 19t-17 20t-5 35q3 24 21.5 41t43.5 17z" />
    <glyph glyph-name="circumflex" unicode="&#x2c6;" horiz-adv-x="293" 
d="M202 643l-69 -64h-86l116 145h98l79 -145h-88z" />
    <glyph glyph-name="caron" unicode="&#x2c7;" horiz-adv-x="293" 
d="M205 660l69 64h86l-116 -145h-98l-79 145h88z" />
    <glyph glyph-name="uni02C9" unicode="&#x2c9;" horiz-adv-x="375" 
d="M102 689h295l-10 -74h-295z" />
    <glyph glyph-name="breve" unicode="&#x2d8;" horiz-adv-x="301" 
d="M369 732q-12 -46 -33 -82.5t-54.5 -57t-85.5 -20.5q-73 0 -102.5 46t-25.5 114h67q4 -34 20 -52t53 -18q36 0 58 18t34 52h69z" />
    <glyph glyph-name="dotaccent" unicode="&#x2d9;" horiz-adv-x="297" 
d="M270 661q0 -29 -22.5 -50.5t-51.5 -21.5q-23 0 -39 16t-16 38q0 29 22.5 50.5t50.5 21.5q24 0 40 -15.5t16 -38.5z" />
    <glyph glyph-name="ring" unicode="&#x2da;" horiz-adv-x="283" 
d="M212 769q41 0 68.5 -28t27.5 -67q0 -32 -17 -59.5t-45 -43.5t-60 -16q-40 0 -67.5 27.5t-27.5 66.5q0 33 17 60t44.5 43.5t59.5 16.5zM203 702q-19 0 -32 -13t-13 -33q0 -15 9.5 -25t25.5 -10q19 0 32.5 13t13.5 32q0 15 -10 25.5t-26 10.5z" />
    <glyph glyph-name="ogonek" unicode="&#x2db;" horiz-adv-x="279" 
d="M224 14q-20 -7 -45 -19t-48.5 -28t-39 -35.5t-15.5 -40.5q0 -17 11 -24t26 -7q20 0 46 13t42 23l16 -50q-21 -15 -45.5 -28t-50.5 -21t-54 -8q-37 0 -64.5 18.5t-27.5 58.5q0 35 22.5 63.5t57.5 50t72 35.5t65 18z" />
    <glyph glyph-name="tilde" unicode="&#x2dc;" horiz-adv-x="358" 
d="M415 706q-4 -32 -20.5 -58.5t-42.5 -42.5t-60 -16q-27 0 -48 10t-39 20t-37 10q-13 0 -28 -7.5t-17 -22.5h-65q5 32 21 58.5t42 42.5t60 16q28 0 48.5 -10t38.5 -20t37 -10q13 0 28 7.5t18 22.5h64z" />
    <glyph glyph-name="hungarumlaut" unicode="&#x2dd;" horiz-adv-x="381" 
d="M148 735h135l-135 -165h-93zM305 735h135l-135 -165h-93z" />
    <glyph glyph-name="gravecomb" unicode="&#x300;" 
d="M264 735l85 -165h-103l-127 165h145z" />
    <glyph glyph-name="acutecomb" unicode="&#x301;" 
d="M228 735h145l-175 -165h-103z" />
    <glyph glyph-name="uni0302" unicode="&#x302;" 
d="M252 643l-69 -64h-86l116 145h98l79 -145h-88z" />
    <glyph glyph-name="tildecomb" unicode="&#x303;" 
d="M457 706q-4 -32 -20.5 -58.5t-42.5 -42.5t-60 -16q-27 0 -48 10t-39 20t-37 10q-13 0 -28 -7.5t-17 -22.5h-65q5 32 21 58.5t42 42.5t60 16q28 0 48.5 -10t38.5 -20t37 -10q13 0 28 7.5t18 22.5h64z" />
    <glyph glyph-name="uni0304" unicode="&#x304;" 
d="M112 689h295l-10 -74h-295z" />
    <glyph glyph-name="uni0306" unicode="&#x306;" 
d="M419 732q-12 -46 -33 -82.5t-54.5 -57t-85.5 -20.5q-73 0 -102.5 46t-25.5 114h67q4 -34 20 -52t53 -18q36 0 58 18t34 52h69z" />
    <glyph glyph-name="uni0307" unicode="&#x307;" 
d="M235 661q0 -29 -22.5 -50.5t-51.5 -21.5q-23 0 -39 16t-16 38q0 29 22.5 50.5t50.5 21.5q24 0 40 -15.5t16 -38.5z" />
    <glyph glyph-name="uni0308" unicode="&#x308;" 
d="M234 661q0 -29 -22 -50.5t-51 -21.5q-24 0 -39.5 15.5t-15.5 38.5q0 29 22.5 50.5t50.5 21.5q24 0 39.5 -15.5t15.5 -38.5zM405 661q0 -29 -22.5 -50.5t-51.5 -21.5q-23 0 -39 16t-16 38q0 29 22.5 50.5t50.5 21.5q24 0 40 -15.5t16 -38.5z" />
    <glyph glyph-name="hookabovecomb" unicode="&#x309;" 
d="M151 553l-1 90q7 -2 15.5 -3.5t16.5 -1.5q17 0 30.5 7.5t13.5 28.5q0 12 -9 17.5t-23 5.5q-13 0 -28 -4t-29 -11l-18 52q24 15 52 22.5t54 7.5q39 0 67 -17t28 -51q0 -40 -30 -67.5t-74 -29.5l-15 -46h-50z" />
    <glyph glyph-name="uni030A" unicode="&#x30a;" 
d="M229 769q41 0 68.5 -28t27.5 -67q0 -32 -17 -59.5t-45 -43.5t-60 -16q-40 0 -67.5 27.5t-27.5 66.5q0 33 17 60t44.5 43.5t59.5 16.5zM220 702q-19 0 -32 -13t-13 -33q0 -15 9.5 -25t25.5 -10q19 0 32.5 13t13.5 32q0 15 -10 25.5t-26 10.5z" />
    <glyph glyph-name="uni030B" unicode="&#x30b;" 
d="M188 735h135l-135 -165h-93zM345 735h135l-135 -165h-93z" />
    <glyph glyph-name="uni030C" unicode="&#x30c;" 
d="M255 660l69 64h86l-116 -145h-98l-79 145h88z" />
    <glyph glyph-name="uni030F" unicode="&#x30f;" 
d="M411 735l45 -165h-93l-87 165h135zM254 735l45 -165h-93l-87 165h135z" />
    <glyph glyph-name="uni0311" unicode="&#x311;" 
d="M96 572q19 70 59.5 115t118.5 45q49 0 76.5 -21t38.5 -57t8 -82h-67q-4 35 -20 52.5t-53 17.5q-36 0 -58 -18t-34 -52h-69z" />
    <glyph glyph-name="uni0312" unicode="&#x312;" 
d="M163 568q-32 0 -46.5 24t-10.5 54q7 47 39.5 85.5t72.5 64.5l28 -34q-12 -10 -28.5 -29t-18.5 -32q-1 -10 7.5 -18.5t17 -20.5t4.5 -35q-3 -24 -22 -41.5t-43 -17.5z" />
    <glyph glyph-name="uni0313" unicode="&#x313;" 
d="M184 796q32 0 47 -24t10 -54q-7 -46 -39.5 -85t-72.5 -65l-28 34q12 10 29 29t18 32q2 11 -7 19t-17 20.5t-5 34.5q3 24 22 41.5t43 17.5z" />
    <glyph glyph-name="uni031B" unicode="&#x31b;" 
d="M-188 494q36 -15 61.5 -0.5t39.5 48t13 75.5h116q-2 -37 -17 -75.5t-44 -68t-73 -42t-105 0.5z" />
    <glyph glyph-name="dotbelowcomb" unicode="&#x323;" 
d="M125 -123q0 -29 -22.5 -50.5t-51.5 -21.5q-23 0 -39 16t-16 38q0 29 22.5 50.5t50.5 21.5q24 0 40 -15.5t16 -38.5z" />
    <glyph glyph-name="uni0324" unicode="&#x324;" 
d="M124 -123q0 -29 -22 -50.5t-51 -21.5q-24 0 -39.5 15.5t-15.5 38.5q0 29 22.5 50.5t50.5 21.5q24 0 39.5 -15.5t15.5 -38.5zM295 -123q0 -29 -22.5 -50.5t-51.5 -21.5q-23 0 -39 16t-16 38q0 29 22.5 50.5t50.5 21.5q24 0 40 -15.5t16 -38.5z" />
    <glyph glyph-name="uni0326" unicode="&#x326;" 
d="M63 -64q29 0 43.5 -19t14.5 -45q0 -32 -16 -62.5t-42 -56.5t-55 -45l-28 34q9 7 20 19t19 24t8 20q0 9 -7.5 16.5t-15 17.5t-7.5 27q0 28 20 49t46 21z" />
    <glyph glyph-name="uni0327" unicode="&#x327;" 
d="M167 -112q0 -36 -23.5 -58t-59.5 -33t-75 -17l-16 62q13 2 30.5 5t31.5 11t14 24q0 13 -15.5 21t-41.5 15l65 95h76l-36 -55q11 -5 22.5 -14.5t19.5 -23t8 -32.5z" />
    <glyph glyph-name="uni0328" unicode="&#x328;" 
d="M246 14q-20 -7 -45 -19t-48.5 -28t-39 -35.5t-15.5 -40.5q0 -17 11 -24t26 -7q20 0 46 13t42 23l16 -50q-21 -15 -45.5 -28t-50.5 -21t-54 -8q-37 0 -64.5 18.5t-27.5 58.5q0 35 22.5 63.5t57.5 50t72 35.5t65 18z" />
    <glyph glyph-name="uni032E" unicode="&#x32e;" 
d="M306 -69q-12 -46 -33 -82.5t-54.5 -57t-85.5 -20.5q-73 0 -102.5 46t-25.5 114h67q4 -34 20 -52t53 -18q36 0 58 18t34 52h69z" />
    <glyph glyph-name="uni0331" unicode="&#x331;" 
d="M-1 -111h295l-10 -74h-295z" />
    <glyph glyph-name="uni0335" unicode="&#x335;" 
d="M-396 355h331l-12 -85h-331z" />
    <glyph glyph-name="uni0336" unicode="&#x336;" 
d="M-626 355h601l-12 -85h-601z" />
    <glyph glyph-name="uni0337" unicode="&#x337;" 
d="M3 246l14 97l262 115l-14 -98z" />
    <glyph glyph-name="uni0338" unicode="&#x338;" 
d="M52 -91l-57 44l481 636l59 -44z" />
    <glyph glyph-name="uni0394" unicode="&#x394;" horiz-adv-x="631" 
d="M-21 67l333 665h103l158 -665l-9 -67h-594zM424 99q-10 41 -21.5 92t-23.5 104.5t-22.5 103t-18.5 88.5q-3 16 -4.5 36.5t-2 38t-2.5 24.5q-2 -7 -8 -24.5t-14 -38t-16 -37.5l-188 -387h321z" />
    <glyph glyph-name="uni03A9" unicode="&#x3a9;" horiz-adv-x="781" 
d="M414 76q47 17 79 56t51.5 90t28.5 103.5t9 96.5q0 56 -14 106.5t-48 83t-94 32.5q-53 0 -92 -25.5t-66 -67t-43.5 -91t-24 -98t-7.5 -86.5q0 -43 9 -83.5t30 -71t57 -45.5l-10 -76h-279l12 99h64l67 -6q-41 29 -64 90t-23 131q0 90 28 167.5t79.5 136.5t121.5 92t154 33
q94 0 157.5 -39.5t95.5 -108.5t32 -158q0 -48 -11 -99.5t-32 -99.5t-50.5 -86t-66.5 -59l69 6h64l-13 -99h-280z" />
    <glyph glyph-name="uni03BC" unicode="&#x3bc;" horiz-adv-x="584" 
d="M245 497q-12 -88 -20 -147.5t-13 -96.5t-7.5 -57.5t-3.5 -30.5t-1 -16q0 -26 10.5 -46t41.5 -20q15 0 29 3t27.5 9.5t26 15t23.5 19.5l42 314l-4 53h126q-12 -92 -20.5 -156.5t-14 -106.5t-8.5 -66.5t-4.5 -36.5t-2 -16.5t-0.5 -6.5q0 -11 3.5 -20t14.5 -9q8 0 16 2t16 5
t15 5l10 -73q-13 -4 -27.5 -8.5t-29.5 -8.5t-29 -7t-28 -3q-29 0 -46 19t-19 47q-16 -17 -37 -32.5t-44 -25.5t-45 -10q-33 0 -60 15l-26 -191h-117l84 631l-3 53h125z" />
    <glyph glyph-name="pi" unicode="&#x3c0;" horiz-adv-x="669" 
d="M321 439l-13 -92q-12 -90 -25.5 -153t-36 -106t-61.5 -71t-103 -47l-27 56q34 21 55 40.5t33.5 43.5t21 59t15.5 88l24 182h117zM538 439q-9 -37 -18.5 -75t-17.5 -75t-12.5 -69.5t-4.5 -58.5q0 -36 11.5 -56.5t39.5 -20.5q8 0 18.5 1.5t20.5 5.5l19 -63
q-20 -13 -49.5 -23t-56.5 -10q-66 0 -93 35.5t-27 102.5q0 27 4.5 64t12.5 78.5t17 83.5t18 80h118zM684 462q-25 -30 -62 -42.5t-71 -12.5h-363q-35 0 -58.5 -23t-37.5 -58l-65 16q8 40 34 75.5t65.5 57.5t87.5 22h340q27 0 51.5 4t50.5 18z" />
    <glyph glyph-name="uni1E24" unicode="&#x1e24;" horiz-adv-x="674" 
d="M433 0l44 327h-292l-43 -327h-131l90 671l-6 61h144l-41 -306h292l41 306h132l-98 -732h-132zM318 -123q0 -29 -22.5 -50.5t-51.5 -21.5q-23 0 -39 16t-16 38q0 29 22.5 50.5t50.5 21.5q24 0 40 -15.5t16 -38.5z" />
    <glyph glyph-name="uni1E25" unicode="&#x1e25;" horiz-adv-x="491" 
d="M244 769l-44 -318q31 24 69 42t76 18q42 0 69 -14t39.5 -41.5t12.5 -68.5q0 -27 -3 -51l-38 -282l3 -54h-126l44 324q2 9 2.5 18t0.5 18q0 18 -5 30t-15.5 18t-29.5 6q-12 0 -27.5 -6t-31.5 -15t-29.5 -18.5t-21.5 -17.5l-48 -357h-114l95 715l-4 54h126zM269 -123
q0 -29 -22.5 -50.5t-51.5 -21.5q-23 0 -39 16t-16 38q0 29 22.5 50.5t50.5 21.5q24 0 40 -15.5t16 -38.5z" />
    <glyph glyph-name="uni1E62" unicode="&#x1e62;" horiz-adv-x="495" 
d="M333 744q26 0 59.5 -7.5t65.5 -21t51 -31.5l-59 -92q-15 17 -40.5 29.5t-52.5 19.5t-50 7q-28 0 -53 -11.5t-40.5 -33.5t-15.5 -53q0 -32 19 -54t49 -40t63 -36t63 -41.5t49 -56.5t19 -82q0 -77 -38 -134t-101 -87.5t-138 -30.5q-56 0 -114 14.5t-105 46.5l63 108
q20 -22 45 -38.5t53.5 -25.5t58.5 -9q35 0 65 15t49 42t19 63q0 33 -19 56t-49 41.5t-63.5 36.5t-63.5 41t-49 55.5t-19 79.5q0 81 39 132t102.5 74.5t137.5 23.5zM260 -123q0 -29 -22.5 -50.5t-51.5 -21.5q-23 0 -39 16t-16 38q0 29 22.5 50.5t50.5 21.5q24 0 40 -15.5
t16 -38.5z" />
    <glyph glyph-name="uni1E6C" unicode="&#x1e6c;" horiz-adv-x="523" 
d="M43 732h525l-14 -99h-195l-85 -633h-136l84 633h-192zM251 -123q0 -29 -22.5 -50.5t-51.5 -21.5q-23 0 -39 16t-16 38q0 29 22.5 50.5t50.5 21.5q24 0 40 -15.5t16 -38.5z" />
    <glyph glyph-name="uni1E6D" unicode="&#x1e6d;" horiz-adv-x="315" 
d="M251 633q-9 -34 -17 -68t-14 -68h115l-27 -83h-100l-36 -275q-1 -7 -1.5 -14t-0.5 -14q0 -16 6.5 -27.5t26.5 -11.5q19 0 38 3t37 7l11 -69q-18 -6 -42 -11t-48 -8.5t-44 -3.5q-38 0 -61 10.5t-33 31.5t-10 50q0 5 0.5 10.5t1 11.5t1.5 12l40 298h-69l11 83q38 0 60 12.5
t37 42t30 81.5h88zM175 -123q0 -29 -22.5 -50.5t-51.5 -21.5q-23 0 -39 16t-16 38q0 29 22.5 50.5t50.5 21.5q24 0 40 -15.5t16 -38.5z" />
    <glyph glyph-name="Wgrave" unicode="&#x1e80;" horiz-adv-x="875" 
d="M172 732q12 -93 20.5 -161t15.5 -120t11.5 -95t8 -84.5t6.5 -89.5q12 53 25 97t29 87.5t36.5 94t47.5 116.5t63 155h119q12 -92 21 -160.5t16 -121t12 -96t7.5 -84.5t3.5 -88q16 56 30.5 100t30.5 86.5t35.5 92t45.5 115t62 156.5h112l-284 -734h-134q-11 92 -20 155.5
t-15 110t-10 86t-6.5 80.5t-4.5 96q-16 -55 -30 -98.5t-29 -84t-33.5 -87t-43.5 -109t-60 -149.5h-132l-93 734h137zM463 923l89 -144h-104l-131 144h146z" />
    <glyph glyph-name="wgrave" unicode="&#x1e81;" horiz-adv-x="638" 
d="M137 497q11 -76 18.5 -124.5t11.5 -81.5t5 -59.5t-1 -58.5q6 27 14 51.5t21 57t34.5 83.5t55.5 132h112q12 -83 20.5 -141t12.5 -101t1 -82q8 32 17 61t22.5 63t33 82t48.5 118h115l-219 -501h-99q-10 72 -17.5 118t-12.5 79.5t-7.5 66t-2.5 75.5q-7 -36 -18 -68.5
t-26 -69.5t-36.5 -85t-51.5 -116h-99l-74 501h122zM329 735l85 -165h-103l-127 165h145z" />
    <glyph glyph-name="Wacute" unicode="&#x1e82;" horiz-adv-x="875" 
d="M172 732q12 -93 20.5 -161t15.5 -120t11.5 -95t8 -84.5t6.5 -89.5q12 53 25 97t29 87.5t36.5 94t47.5 116.5t63 155h119q12 -92 21 -160.5t16 -121t12 -96t7.5 -84.5t3.5 -88q16 56 30.5 100t30.5 86.5t35.5 92t45.5 115t62 156.5h112l-284 -734h-134q-11 92 -20 155.5
t-15 110t-10 86t-6.5 80.5t-4.5 96q-16 -55 -30 -98.5t-29 -84t-33.5 -87t-43.5 -109t-60 -149.5h-132l-93 734h137zM577 923h146l-171 -144h-104z" />
    <glyph glyph-name="wacute" unicode="&#x1e83;" horiz-adv-x="638" 
d="M137 497q11 -76 18.5 -124.5t11.5 -81.5t5 -59.5t-1 -58.5q6 27 14 51.5t21 57t34.5 83.5t55.5 132h112q12 -83 20.5 -141t12.5 -101t1 -82q8 32 17 61t22.5 63t33 82t48.5 118h115l-219 -501h-99q-10 72 -17.5 118t-12.5 79.5t-7.5 66t-2.5 75.5q-7 -36 -18 -68.5
t-26 -69.5t-36.5 -85t-51.5 -116h-99l-74 501h122zM447 735h145l-175 -165h-103z" />
    <glyph glyph-name="Wdieresis" unicode="&#x1e84;" horiz-adv-x="875" 
d="M172 732q12 -93 20.5 -161t15.5 -120t11.5 -95t8 -84.5t6.5 -89.5q12 53 25 97t29 87.5t36.5 94t47.5 116.5t63 155h119q12 -92 21 -160.5t16 -121t12 -96t7.5 -84.5t3.5 -88q16 56 30.5 100t30.5 86.5t35.5 92t45.5 115t62 156.5h112l-284 -734h-134q-11 92 -20 155.5
t-15 110t-10 86t-6.5 80.5t-4.5 96q-16 -55 -30 -98.5t-29 -84t-33.5 -87t-43.5 -109t-60 -149.5h-132l-93 734h137zM488 861q0 -29 -22 -50.5t-51 -21.5q-24 0 -39.5 15.5t-15.5 38.5q0 29 22.5 50.5t50.5 21.5q24 0 39.5 -15.5t15.5 -38.5zM659 861q0 -29 -22.5 -50.5
t-51.5 -21.5q-23 0 -39 16t-16 38q0 29 22.5 50.5t50.5 21.5q24 0 40 -15.5t16 -38.5z" />
    <glyph glyph-name="wdieresis" unicode="&#x1e85;" horiz-adv-x="638" 
d="M137 497q11 -76 18.5 -124.5t11.5 -81.5t5 -59.5t-1 -58.5q6 27 14 51.5t21 57t34.5 83.5t55.5 132h112q12 -83 20.5 -141t12.5 -101t1 -82q8 32 17 61t22.5 63t33 82t48.5 118h115l-219 -501h-99q-10 72 -17.5 118t-12.5 79.5t-7.5 66t-2.5 75.5q-7 -36 -18 -68.5
t-26 -69.5t-36.5 -85t-51.5 -116h-99l-74 501h122zM354 661q0 -29 -22 -50.5t-51 -21.5q-24 0 -39.5 15.5t-15.5 38.5q0 29 22.5 50.5t50.5 21.5q24 0 39.5 -15.5t15.5 -38.5zM525 661q0 -29 -22.5 -50.5t-51.5 -21.5q-23 0 -39 16t-16 38q0 29 22.5 50.5t50.5 21.5
q24 0 40 -15.5t16 -38.5z" />
    <glyph glyph-name="uni1E9E" unicode="&#x1e9e;" horiz-adv-x="678" 
d="M285 328l302 404l65 -80l-242 -313zM413 426q41 -1 82.5 -12t76.5 -33.5t56.5 -56.5t21.5 -81q0 -72 -37.5 -130.5t-99.5 -93t-138 -34.5q-47 0 -94 15t-89 46l63 111q26 -36 61.5 -54t69.5 -18q36 0 61.5 18t39 46.5t13.5 61.5q0 30 -15 57t-51.5 44.5t-102.5 17.5h-22
t-24 -2zM111 732h476l-13 -99h-331l-85 -633h-131l90 671z" />
    <glyph glyph-name="uni1EA0" unicode="&#x1ea0;" horiz-adv-x="585" 
d="M397 732l148 -732h-140l-39 210h-200l-97 -210h-124l344 732h108zM309 558l-103 -250h143zM283 -123q0 -29 -22.5 -50.5t-51.5 -21.5q-23 0 -39 16t-16 38q0 29 22.5 50.5t50.5 21.5q24 0 40 -15.5t16 -38.5z" />
    <glyph glyph-name="uni1EA1" unicode="&#x1ea1;" horiz-adv-x="513" 
d="M421 500h63q-15 -102 -25.5 -169t-16.5 -107.5t-9 -62.5t-4 -33t-1 -19q0 -13 5 -24.5t20 -11.5q10 0 24 4t24 8l17 -63q-22 -14 -51 -22.5t-55 -8.5q-30 0 -53 19.5t-29 48.5h-4q-29 -39 -68.5 -55t-71.5 -16q-58 0 -94.5 29.5t-53.5 78t-17 105.5q0 55 15.5 109.5
t47 99.5t79 72t111.5 27q26 0 65.5 -13t66.5 -46v-85q-34 32 -65 47t-61 15q-32 0 -58 -15.5t-45 -45t-29 -70.5t-10 -92q0 -54 16 -94t55 -40q32 0 55 22.5t39 60.5t27 85t18 96l11 73zM258 -123q0 -29 -22.5 -50.5t-51.5 -21.5q-23 0 -39 16t-16 38q0 29 22.5 50.5
t50.5 21.5q24 0 40 -15.5t16 -38.5z" />
    <glyph glyph-name="uni1EA2" unicode="&#x1ea2;" horiz-adv-x="585" 
d="M397 732l148 -732h-140l-39 210h-200l-97 -210h-124l344 732h108zM309 558l-103 -250h143zM324 779l-1 90q7 -2 15.5 -3.5t16.5 -1.5q17 0 30.5 7.5t13.5 28.5q0 12 -9 17.5t-23 5.5q-13 0 -28 -4t-29 -11l-18 52q24 15 52 22.5t54 7.5q39 0 67 -17t28 -51
q0 -40 -30 -67.5t-74 -29.5l-15 -46h-50z" />
    <glyph glyph-name="uni1EA3" unicode="&#x1ea3;" horiz-adv-x="513" 
d="M421 500h63q-15 -102 -25.5 -169t-16.5 -107.5t-9 -62.5t-4 -33t-1 -19q0 -13 5 -24.5t20 -11.5q10 0 24 4t24 8l17 -63q-22 -14 -51 -22.5t-55 -8.5q-30 0 -53 19.5t-29 48.5h-4q-29 -39 -68.5 -55t-71.5 -16q-58 0 -94.5 29.5t-53.5 78t-17 105.5q0 55 15.5 109.5
t47 99.5t79 72t111.5 27q26 0 65.5 -13t66.5 -46v-85q-34 32 -65 47t-61 15q-32 0 -58 -15.5t-45 -45t-29 -70.5t-10 -92q0 -54 16 -94t55 -40q32 0 55 22.5t39 60.5t27 85t18 96l11 73zM278 553l-1 90q7 -2 15.5 -3.5t16.5 -1.5q17 0 30.5 7.5t13.5 28.5q0 12 -9 17.5
t-23 5.5q-13 0 -28 -4t-29 -11l-18 52q24 15 52 22.5t54 7.5q39 0 67 -17t28 -51q0 -40 -30 -67.5t-74 -29.5l-15 -46h-50z" />
    <glyph glyph-name="uni1EA4" unicode="&#x1ea4;" horiz-adv-x="585" 
d="M397 732l148 -732h-140l-39 210h-200l-97 -210h-124l344 732h108zM309 558l-103 -250h143zM355 832l-66 -44h-86l113 125h98l82 -125h-88zM398 1050h130l-113 -105h-88z" />
    <glyph glyph-name="uni1EA5" unicode="&#x1ea5;" horiz-adv-x="513" 
d="M421 500h63q-15 -102 -25.5 -169t-16.5 -107.5t-9 -62.5t-4 -33t-1 -19q0 -13 5 -24.5t20 -11.5q10 0 24 4t24 8l17 -63q-22 -14 -51 -22.5t-55 -8.5q-30 0 -53 19.5t-29 48.5h-4q-29 -39 -68.5 -55t-71.5 -16q-58 0 -94.5 29.5t-53.5 78t-17 105.5q0 55 15.5 109.5
t47 99.5t79 72t111.5 27q26 0 65.5 -13t66.5 -46v-85q-34 32 -65 47t-61 15q-32 0 -58 -15.5t-45 -45t-29 -70.5t-10 -92q0 -54 16 -94t55 -40q32 0 55 22.5t39 60.5t27 85t18 96l11 73zM314 643l-69 -64h-86l116 145h98l79 -145h-88zM370 892h135l-129 -125h-93z" />
    <glyph glyph-name="uni1EA6" unicode="&#x1ea6;" horiz-adv-x="585" 
d="M397 732l148 -732h-140l-39 210h-200l-97 -210h-124l344 732h108zM309 558l-103 -250h143zM355 832l-67 -44h-88l116 125h98l79 -125h-86zM370 1050l43 -105h-88l-85 105h130z" />
    <glyph glyph-name="uni1EA7" unicode="&#x1ea7;" horiz-adv-x="513" 
d="M421 500h63q-15 -102 -25.5 -169t-16.5 -107.5t-9 -62.5t-4 -33t-1 -19q0 -13 5 -24.5t20 -11.5q10 0 24 4t24 8l17 -63q-22 -14 -51 -22.5t-55 -8.5q-30 0 -53 19.5t-29 48.5h-4q-29 -39 -68.5 -55t-71.5 -16q-58 0 -94.5 29.5t-53.5 78t-17 105.5q0 55 15.5 109.5
t47 99.5t79 72t111.5 27q26 0 65.5 -13t66.5 -46v-85q-34 32 -65 47t-61 15q-32 0 -58 -15.5t-45 -45t-29 -70.5t-10 -92q0 -54 16 -94t55 -40q32 0 55 22.5t39 60.5t27 85t18 96l11 73zM314 643l-70 -64h-88l119 145h98l76 -145h-86zM326 892l51 -125h-93l-93 125h135z" />
    <glyph glyph-name="uni1EA8" unicode="&#x1ea8;" horiz-adv-x="585" 
d="M397 732l148 -732h-140l-39 210h-200l-97 -210h-124l344 732h108zM309 558l-103 -250h143zM356 832l-67 -44h-86l114 125h98l81 -125h-88zM344 933l-2 82q7 -2 15 -3.5t15 -1.5q15 0 27 7t12 26q0 11 -7.5 16t-21.5 5q-11 0 -25 -4t-27 -10l-16 47q22 14 47.5 21t49.5 7
q36 0 61 -16t25 -48q0 -36 -24 -60.5t-71 -25.5l-13 -42h-45z" />
    <glyph glyph-name="uni1EA9" unicode="&#x1ea9;" horiz-adv-x="513" 
d="M421 500h63q-15 -102 -25.5 -169t-16.5 -107.5t-9 -62.5t-4 -33t-1 -19q0 -13 5 -24.5t20 -11.5q10 0 24 4t24 8l17 -63q-22 -14 -51 -22.5t-55 -8.5q-30 0 -53 19.5t-29 48.5h-4q-29 -39 -68.5 -55t-71.5 -16q-58 0 -94.5 29.5t-53.5 78t-17 105.5q0 55 15.5 109.5
t47 99.5t79 72t111.5 27q26 0 65.5 -13t66.5 -46v-85q-34 32 -65 47t-61 15q-32 0 -58 -15.5t-45 -45t-29 -70.5t-10 -92q0 -54 16 -94t55 -40q32 0 55 22.5t39 60.5t27 85t18 96l11 73zM314 643l-70 -64h-86l117 145h98l78 -145h-88zM304 754l-2 82q15 -5 30 -5
q17 0 28.5 8t11.5 24q0 11 -8 16.5t-22 5.5q-11 0 -25 -4t-27 -10l-16 47q45 28 97 28q36 0 61 -16.5t25 -48.5q0 -34 -22.5 -58.5t-72.5 -26.5l-13 -42h-45z" />
    <glyph glyph-name="uni1EAA" unicode="&#x1eaa;" horiz-adv-x="585" 
d="M397 732l148 -732h-140l-39 210h-200l-97 -210h-124l344 732h108zM309 558l-103 -250h143zM356 832l-67 -44h-86l114 125h98l81 -125h-88zM543 1073q-7 -48 -34 -82.5t-78 -34.5q-21 0 -34.5 6t-24 14t-21 14t-24.5 6q-13 0 -23 -7.5t-12 -22.5h-65q7 48 34.5 82.5
t78.5 34.5q28 0 43.5 -10t28.5 -20t32 -10q13 0 23 7.5t12 22.5h64z" />
    <glyph glyph-name="uni1EAB" unicode="&#x1eab;" horiz-adv-x="513" 
d="M421 500h63q-15 -102 -25.5 -169t-16.5 -107.5t-9 -62.5t-4 -33t-1 -19q0 -13 5 -24.5t20 -11.5q10 0 24 4t24 8l17 -63q-22 -14 -51 -22.5t-55 -8.5q-30 0 -53 19.5t-29 48.5h-4q-29 -39 -68.5 -55t-71.5 -16q-58 0 -94.5 29.5t-53.5 78t-17 105.5q0 55 15.5 109.5
t47 99.5t79 72t111.5 27q26 0 65.5 -13t66.5 -46v-85q-34 32 -65 47t-61 15q-32 0 -58 -15.5t-45 -45t-29 -70.5t-10 -92q0 -54 16 -94t55 -40q32 0 55 22.5t39 60.5t27 85t18 96l11 73zM314 643l-69 -64h-86l116 145h98l79 -145h-88zM502 882q-7 -48 -34.5 -82.5
t-78.5 -34.5q-27 0 -43 10t-29 20t-32 10q-13 0 -22.5 -7.5t-11.5 -22.5h-65q7 48 34 82.5t78 34.5q28 0 43.5 -10t28.5 -20t32 -10q13 0 23 7.5t13 22.5h64z" />
    <glyph glyph-name="uni1EAC" unicode="&#x1eac;" horiz-adv-x="585" 
d="M397 732l148 -732h-140l-39 210h-200l-97 -210h-124l344 732h108zM309 558l-103 -250h143zM356 832l-67 -44h-86l114 125h98l81 -125h-88zM283 -123q0 -29 -22.5 -50.5t-51.5 -21.5q-23 0 -39 16t-16 38q0 29 22.5 50.5t50.5 21.5q24 0 40 -15.5t16 -38.5z" />
    <glyph glyph-name="uni1EAD" unicode="&#x1ead;" horiz-adv-x="513" 
d="M421 500h63q-15 -102 -25.5 -169t-16.5 -107.5t-9 -62.5t-4 -33t-1 -19q0 -13 5 -24.5t20 -11.5q10 0 24 4t24 8l17 -63q-22 -14 -51 -22.5t-55 -8.5q-30 0 -53 19.5t-29 48.5h-4q-29 -39 -68.5 -55t-71.5 -16q-58 0 -94.5 29.5t-53.5 78t-17 105.5q0 55 15.5 109.5
t47 99.5t79 72t111.5 27q26 0 65.5 -13t66.5 -46v-85q-34 32 -65 47t-61 15q-32 0 -58 -15.5t-45 -45t-29 -70.5t-10 -92q0 -54 16 -94t55 -40q32 0 55 22.5t39 60.5t27 85t18 96l11 73zM314 643l-69 -64h-86l116 145h98l79 -145h-88zM258 -123q0 -29 -22.5 -50.5
t-51.5 -21.5q-23 0 -39 16t-16 38q0 29 22.5 50.5t50.5 21.5q24 0 40 -15.5t16 -38.5z" />
    <glyph glyph-name="uni1EAE" unicode="&#x1eae;" horiz-adv-x="585" 
d="M397 732l148 -732h-140l-39 210h-200l-97 -210h-124l344 732h108zM309 558l-103 -250h143zM518 922q-11 -36 -32 -68t-55.5 -52t-86.5 -20q-49 0 -77 20t-39.5 52.5t-10.5 67.5h67q5 -19 22 -34.5t54 -15.5q36 0 57.5 15.5t31.5 34.5h69zM429 1046h126l-149 -124h-84z
" />
    <glyph glyph-name="uni1EAF" unicode="&#x1eaf;" horiz-adv-x="513" 
d="M421 500h63q-15 -102 -25.5 -169t-16.5 -107.5t-9 -62.5t-4 -33t-1 -19q0 -13 5 -24.5t20 -11.5q10 0 24 4t24 8l17 -63q-22 -14 -51 -22.5t-55 -8.5q-30 0 -53 19.5t-29 48.5h-4q-29 -39 -68.5 -55t-71.5 -16q-58 0 -94.5 29.5t-53.5 78t-17 105.5q0 55 15.5 109.5
t47 99.5t79 72t111.5 27q26 0 65.5 -13t66.5 -46v-85q-34 32 -65 47t-61 15q-32 0 -58 -15.5t-45 -45t-29 -70.5t-10 -92q0 -54 16 -94t55 -40q32 0 55 22.5t39 60.5t27 85t18 96l11 73zM476 732q-12 -46 -33 -82.5t-54.5 -57t-85.5 -20.5q-73 0 -102.5 46t-25.5 114h67
q4 -34 20 -52t53 -18q36 0 58 18t34 52h69zM384 876h135l-151 -145h-93z" />
    <glyph glyph-name="uni1EB0" unicode="&#x1eb0;" horiz-adv-x="585" 
d="M397 732l148 -732h-140l-39 210h-200l-97 -210h-124l344 732h108zM309 558l-103 -250h143zM216 922h69q5 -19 22 -34.5t53 -15.5q37 0 58 15.5t32 34.5h67q-9 -35 -29.5 -67.5t-54.5 -52.5t-83 -20q-52 0 -80.5 20t-40.5 52t-13 68zM341 1046l71 -124h-84l-113 124h126z
" />
    <glyph glyph-name="uni1EB1" unicode="&#x1eb1;" horiz-adv-x="513" 
d="M421 500h63q-15 -102 -25.5 -169t-16.5 -107.5t-9 -62.5t-4 -33t-1 -19q0 -13 5 -24.5t20 -11.5q10 0 24 4t24 8l17 -63q-22 -14 -51 -22.5t-55 -8.5q-30 0 -53 19.5t-29 48.5h-4q-29 -39 -68.5 -55t-71.5 -16q-58 0 -94.5 29.5t-53.5 78t-17 105.5q0 55 15.5 109.5
t47 99.5t79 72t111.5 27q26 0 65.5 -13t66.5 -46v-85q-34 32 -65 47t-61 15q-32 0 -58 -15.5t-45 -45t-29 -70.5t-10 -92q0 -54 16 -94t55 -40q32 0 55 22.5t39 60.5t27 85t18 96l11 73zM174 732h69q3 -34 19.5 -52t52.5 -18q37 0 58.5 18t34.5 52h67q-16 -68 -57 -114
t-115 -46q-52 0 -80 20.5t-38.5 57t-10.5 82.5zM306 876l69 -145h-93l-111 145h135z" />
    <glyph glyph-name="uni1EB2" unicode="&#x1eb2;" horiz-adv-x="585" 
d="M397 732l148 -732h-140l-39 210h-200l-97 -210h-124l344 732h108zM309 558l-103 -250h143zM517 922q-11 -36 -31.5 -68t-55 -52t-86.5 -20q-49 0 -77.5 20t-40 52.5t-10.5 67.5h67q6 -19 22.5 -34.5t53.5 -15.5q36 0 57.5 15.5t31.5 34.5h69zM344 922l-1 82q6 -2 14 -3.5
t15 -1.5q15 0 27.5 7t12.5 26q0 21 -29 21q-11 0 -25 -4t-27 -10l-17 47q23 14 48 21t49 7q35 0 60.5 -15.5t25.5 -45.5q0 -39 -28 -63.5t-67 -25.5l-13 -42h-45z" />
    <glyph glyph-name="uni1EB3" unicode="&#x1eb3;" horiz-adv-x="513" 
d="M421 500h63q-15 -102 -25.5 -169t-16.5 -107.5t-9 -62.5t-4 -33t-1 -19q0 -13 5 -24.5t20 -11.5q10 0 24 4t24 8l17 -63q-22 -14 -51 -22.5t-55 -8.5q-30 0 -53 19.5t-29 48.5h-4q-29 -39 -68.5 -55t-71.5 -16q-58 0 -94.5 29.5t-53.5 78t-17 105.5q0 55 15.5 109.5
t47 99.5t79 72t111.5 27q26 0 65.5 -13t66.5 -46v-85q-34 32 -65 47t-61 15q-32 0 -58 -15.5t-45 -45t-29 -70.5t-10 -92q0 -54 16 -94t55 -40q32 0 55 22.5t39 60.5t27 85t18 96l11 73zM476 732q-12 -46 -33 -82.5t-55 -57t-86 -20.5q-73 0 -102 46t-25 114h67
q3 -34 19.5 -52t53.5 -18q36 0 57.5 18t34.5 52h69zM302 732l-1 82q7 -2 14.5 -3.5t14.5 -1.5q15 0 28 6.5t13 25.5q0 22 -29 22q-12 0 -26 -4t-26 -10l-17 47q22 14 47 21t49 7q36 0 61.5 -15.5t25.5 -47.5q0 -36 -28 -61t-67 -26l-13 -42h-46z" />
    <glyph glyph-name="uni1EB4" unicode="&#x1eb4;" horiz-adv-x="585" 
d="M397 732l148 -732h-140l-39 210h-200l-97 -210h-124l344 732h108zM309 558l-103 -250h143zM518 922q-11 -36 -32 -68t-55.5 -52t-86.5 -20q-49 0 -77 20t-39.5 52.5t-10.5 67.5h67q5 -19 21.5 -34.5t53.5 -15.5q36 0 58 15.5t32 34.5h69zM538 1073q-7 -48 -34.5 -82.5
t-78.5 -34.5q-21 0 -34.5 6t-24 14t-21 14t-24.5 6q-13 0 -22.5 -7.5t-11.5 -22.5h-65q7 48 34 82.5t78 34.5q28 0 44 -10t29 -20t32 -10q13 0 22.5 7.5t12.5 22.5h64z" />
    <glyph glyph-name="uni1EB5" unicode="&#x1eb5;" horiz-adv-x="513" 
d="M421 500h63q-15 -102 -25.5 -169t-16.5 -107.5t-9 -62.5t-4 -33t-1 -19q0 -13 5 -24.5t20 -11.5q10 0 24 4t24 8l17 -63q-22 -14 -51 -22.5t-55 -8.5q-30 0 -53 19.5t-29 48.5h-4q-29 -39 -68.5 -55t-71.5 -16q-58 0 -94.5 29.5t-53.5 78t-17 105.5q0 55 15.5 109.5
t47 99.5t79 72t111.5 27q26 0 65.5 -13t66.5 -46v-85q-34 32 -65 47t-61 15q-32 0 -58 -15.5t-45 -45t-29 -70.5t-10 -92q0 -54 16 -94t55 -40q32 0 55 22.5t39 60.5t27 85t18 96l11 73zM476 732q-12 -46 -33 -82.5t-54.5 -57t-85.5 -20.5q-73 0 -102.5 46t-25.5 114h67
q4 -34 20 -52t53 -18q36 0 58 18t34 52h69zM496 882q-7 -48 -34 -82.5t-78 -34.5q-21 0 -34.5 6t-24 14t-21.5 14t-25 6q-13 0 -22.5 -7.5t-11.5 -22.5h-65q7 48 34 82.5t78 34.5q28 0 44 -10t29 -20t32 -10q13 0 22.5 7.5t12.5 22.5h64z" />
    <glyph glyph-name="uni1EB6" unicode="&#x1eb6;" horiz-adv-x="585" 
d="M397 732l148 -732h-140l-39 210h-200l-97 -210h-124l344 732h108zM309 558l-103 -250h143zM518 922q-11 -36 -32 -68t-55.5 -52t-86.5 -20q-49 0 -77 20t-39.5 52.5t-10.5 67.5h67q5 -19 22 -34.5t54 -15.5q36 0 57.5 15.5t31.5 34.5h69zM283 -123q0 -29 -22.5 -50.5
t-51.5 -21.5q-23 0 -39 16t-16 38q0 29 22.5 50.5t50.5 21.5q24 0 40 -15.5t16 -38.5z" />
    <glyph glyph-name="uni1EB7" unicode="&#x1eb7;" horiz-adv-x="513" 
d="M421 500h63q-15 -102 -25.5 -169t-16.5 -107.5t-9 -62.5t-4 -33t-1 -19q0 -13 5 -24.5t20 -11.5q10 0 24 4t24 8l17 -63q-22 -14 -51 -22.5t-55 -8.5q-30 0 -53 19.5t-29 48.5h-4q-29 -39 -68.5 -55t-71.5 -16q-58 0 -94.5 29.5t-53.5 78t-17 105.5q0 55 15.5 109.5
t47 99.5t79 72t111.5 27q26 0 65.5 -13t66.5 -46v-85q-34 32 -65 47t-61 15q-32 0 -58 -15.5t-45 -45t-29 -70.5t-10 -92q0 -54 16 -94t55 -40q32 0 55 22.5t39 60.5t27 85t18 96l11 73zM476 732q-12 -46 -33 -82.5t-54.5 -57t-85.5 -20.5q-73 0 -102.5 46t-25.5 114h67
q4 -34 20 -52t53 -18q36 0 58 18t34 52h69zM258 -123q0 -29 -22.5 -50.5t-51.5 -21.5q-23 0 -39 16t-16 38q0 29 22.5 50.5t50.5 21.5q24 0 40 -15.5t16 -38.5z" />
    <glyph glyph-name="uni1EB8" unicode="&#x1eb8;" horiz-adv-x="507" 
d="M94 732h438l-13 -99h-293l-28 -207h224l-13 -99h-224l-30 -228h292l-13 -99h-423l90 671zM298 -123q0 -29 -22.5 -50.5t-51.5 -21.5q-23 0 -39 16t-16 38q0 29 22.5 50.5t50.5 21.5q24 0 40 -15.5t16 -38.5z" />
    <glyph glyph-name="uni1EB9" unicode="&#x1eb9;" horiz-adv-x="466" 
d="M294 510q43 0 79 -13.5t57.5 -41t21.5 -71.5q0 -25 -14 -58t-50 -64t-100 -50.5t-163 -17.5v83q54 0 93 10t63.5 26.5t36 36t11.5 37.5q0 17 -11 28t-33 11q-36 0 -63.5 -17.5t-46 -47.5t-28 -66t-9.5 -74q0 -76 31.5 -110.5t83.5 -34.5q32 0 70 12t78 34l35 -68
l-13.5 -10t-39.5 -23t-62.5 -23t-82.5 -10q-78 0 -125.5 29t-69.5 78.5t-22 108.5q0 57 18.5 111.5t53.5 98.5t86 70t115 26zM268 -123q0 -29 -22.5 -50.5t-51.5 -21.5q-23 0 -39 16t-16 38q0 29 22.5 50.5t50.5 21.5q24 0 40 -15.5t16 -38.5z" />
    <glyph glyph-name="uni1EBA" unicode="&#x1eba;" horiz-adv-x="507" 
d="M94 732h438l-13 -99h-293l-28 -207h224l-13 -99h-224l-30 -228h292l-13 -99h-423l90 671zM305 779l-1 90q7 -2 15.5 -3.5t16.5 -1.5q17 0 30.5 7.5t13.5 28.5q0 12 -9 17.5t-23 5.5q-13 0 -28 -4t-29 -11l-18 52q24 15 52 22.5t54 7.5q39 0 67 -17t28 -51
q0 -40 -30 -67.5t-74 -29.5l-15 -46h-50z" />
    <glyph glyph-name="uni1EBB" unicode="&#x1ebb;" horiz-adv-x="466" 
d="M294 510q43 0 79 -13.5t57.5 -41t21.5 -71.5q0 -25 -14 -58t-50 -64t-100 -50.5t-163 -17.5v83q54 0 93 10t63.5 26.5t36 36t11.5 37.5q0 17 -11 28t-33 11q-36 0 -63.5 -17.5t-46 -47.5t-28 -66t-9.5 -74q0 -76 31.5 -110.5t83.5 -34.5q32 0 70 12t78 34l35 -68
l-13.5 -10t-39.5 -23t-62.5 -23t-82.5 -10q-78 0 -125.5 29t-69.5 78.5t-22 108.5q0 57 18.5 111.5t53.5 98.5t86 70t115 26zM273 553l-1 90q7 -2 15.5 -3.5t16.5 -1.5q17 0 30.5 7.5t13.5 28.5q0 12 -9 17.5t-23 5.5q-13 0 -28 -4t-29 -11l-18 52q24 15 52 22.5t54 7.5
q39 0 67 -17t28 -51q0 -40 -30 -67.5t-74 -29.5l-15 -46h-50z" />
    <glyph glyph-name="uni1EBC" unicode="&#x1ebc;" horiz-adv-x="507" 
d="M94 732h438l-13 -99h-293l-28 -207h224l-13 -99h-224l-30 -228h292l-13 -99h-423l90 671zM515 905q-4 -32 -20.5 -58.5t-42.5 -42.5t-60 -16q-27 0 -48 10t-39 20t-37 10q-13 0 -28 -7.5t-17 -22.5h-65q5 32 21 58.5t42 42.5t60 16q28 0 48.5 -10t38.5 -20t37 -10
q13 0 28 7.5t18 22.5h64z" />
    <glyph glyph-name="uni1EBD" unicode="&#x1ebd;" horiz-adv-x="466" 
d="M294 510q43 0 79 -13.5t57.5 -41t21.5 -71.5q0 -25 -14 -58t-50 -64t-100 -50.5t-163 -17.5v83q54 0 93 10t63.5 26.5t36 36t11.5 37.5q0 17 -11 28t-33 11q-36 0 -63.5 -17.5t-46 -47.5t-28 -66t-9.5 -74q0 -76 31.5 -110.5t83.5 -34.5q32 0 70 12t78 34l35 -68
l-13.5 -10t-39.5 -23t-62.5 -23t-82.5 -10q-78 0 -125.5 29t-69.5 78.5t-22 108.5q0 57 18.5 111.5t53.5 98.5t86 70t115 26zM486 706q-4 -32 -20.5 -58.5t-42.5 -42.5t-60 -16q-27 0 -48 10t-39 20t-37 10q-13 0 -28 -7.5t-17 -22.5h-65q5 32 21 58.5t42 42.5t60 16
q28 0 48.5 -10t38.5 -20t37 -10q13 0 28 7.5t18 22.5h64z" />
    <glyph glyph-name="uni1EBE" unicode="&#x1ebe;" horiz-adv-x="507" 
d="M94 732h438l-13 -99h-293l-28 -207h224l-13 -99h-224l-30 -228h292l-13 -99h-423l90 671zM336 832l-66 -44h-86l113 125h98l82 -125h-88zM379 1050h130l-113 -105h-88z" />
    <glyph glyph-name="uni1EBF" unicode="&#x1ebf;" horiz-adv-x="466" 
d="M294 510q43 0 79 -13.5t57.5 -41t21.5 -71.5q0 -25 -14 -58t-50 -64t-100 -50.5t-163 -17.5v83q54 0 93 10t63.5 26.5t36 36t11.5 37.5q0 17 -11 28t-33 11q-36 0 -63.5 -17.5t-46 -47.5t-28 -66t-9.5 -74q0 -76 31.5 -110.5t83.5 -34.5q32 0 70 12t78 34l35 -68
l-13.5 -10t-39.5 -23t-62.5 -23t-82.5 -10q-78 0 -125.5 29t-69.5 78.5t-22 108.5q0 57 18.5 111.5t53.5 98.5t86 70t115 26zM309 643l-69 -64h-86l116 145h98l79 -145h-88zM365 892h135l-129 -125h-93z" />
    <glyph glyph-name="uni1EC0" unicode="&#x1ec0;" horiz-adv-x="507" 
d="M94 732h438l-13 -99h-293l-28 -207h224l-13 -99h-224l-30 -228h292l-13 -99h-423l90 671zM336 832l-67 -44h-88l116 125h98l79 -125h-86zM351 1050l43 -105h-88l-85 105h130z" />
    <glyph glyph-name="uni1EC1" unicode="&#x1ec1;" horiz-adv-x="466" 
d="M294 510q43 0 79 -13.5t57.5 -41t21.5 -71.5q0 -25 -14 -58t-50 -64t-100 -50.5t-163 -17.5v83q54 0 93 10t63.5 26.5t36 36t11.5 37.5q0 17 -11 28t-33 11q-36 0 -63.5 -17.5t-46 -47.5t-28 -66t-9.5 -74q0 -76 31.5 -110.5t83.5 -34.5q32 0 70 12t78 34l35 -68
l-13.5 -10t-39.5 -23t-62.5 -23t-82.5 -10q-78 0 -125.5 29t-69.5 78.5t-22 108.5q0 57 18.5 111.5t53.5 98.5t86 70t115 26zM309 643l-70 -64h-88l119 145h98l76 -145h-86zM321 892l51 -125h-93l-93 125h135z" />
    <glyph glyph-name="uni1EC2" unicode="&#x1ec2;" horiz-adv-x="507" 
d="M94 732h438l-13 -99h-293l-28 -207h224l-13 -99h-224l-30 -228h292l-13 -99h-423l90 671zM337 832l-67 -44h-86l114 125h98l81 -125h-88zM325 933l-2 82q7 -2 15 -3.5t15 -1.5q15 0 27 7t12 26q0 11 -7.5 16t-21.5 5q-11 0 -25 -4t-27 -10l-16 47q22 14 47.5 21t49.5 7
q36 0 61 -16t25 -48q0 -36 -24 -60.5t-71 -25.5l-13 -42h-45z" />
    <glyph glyph-name="uni1EC3" unicode="&#x1ec3;" horiz-adv-x="466" 
d="M294 510q43 0 79 -13.5t57.5 -41t21.5 -71.5q0 -25 -14 -58t-50 -64t-100 -50.5t-163 -17.5v83q54 0 93 10t63.5 26.5t36 36t11.5 37.5q0 17 -11 28t-33 11q-36 0 -63.5 -17.5t-46 -47.5t-28 -66t-9.5 -74q0 -76 31.5 -110.5t83.5 -34.5q32 0 70 12t78 34l35 -68
l-13.5 -10t-39.5 -23t-62.5 -23t-82.5 -10q-78 0 -125.5 29t-69.5 78.5t-22 108.5q0 57 18.5 111.5t53.5 98.5t86 70t115 26zM309 643l-70 -64h-86l117 145h98l78 -145h-88zM299 754l-2 82q15 -5 30 -5q17 0 28.5 8t11.5 24q0 11 -8 16.5t-22 5.5q-11 0 -25 -4t-27 -10
l-16 47q45 28 97 28q36 0 61 -16.5t25 -48.5q0 -34 -22.5 -58.5t-72.5 -26.5l-13 -42h-45z" />
    <glyph glyph-name="uni1EC4" unicode="&#x1ec4;" horiz-adv-x="507" 
d="M94 732h438l-13 -99h-293l-28 -207h224l-13 -99h-224l-30 -228h292l-13 -99h-423l90 671zM337 832l-67 -44h-86l114 125h98l81 -125h-88zM524 1073q-7 -48 -34 -82.5t-78 -34.5q-21 0 -34.5 6t-24 14t-21 14t-24.5 6q-13 0 -23 -7.5t-12 -22.5h-65q7 48 34.5 82.5
t78.5 34.5q28 0 43.5 -10t28.5 -20t32 -10q13 0 23 7.5t12 22.5h64z" />
    <glyph glyph-name="uni1EC5" unicode="&#x1ec5;" horiz-adv-x="466" 
d="M294 510q43 0 79 -13.5t57.5 -41t21.5 -71.5q0 -25 -14 -58t-50 -64t-100 -50.5t-163 -17.5v83q54 0 93 10t63.5 26.5t36 36t11.5 37.5q0 17 -11 28t-33 11q-36 0 -63.5 -17.5t-46 -47.5t-28 -66t-9.5 -74q0 -76 31.5 -110.5t83.5 -34.5q32 0 70 12t78 34l35 -68
l-13.5 -10t-39.5 -23t-62.5 -23t-82.5 -10q-78 0 -125.5 29t-69.5 78.5t-22 108.5q0 57 18.5 111.5t53.5 98.5t86 70t115 26zM309 643l-69 -64h-86l116 145h98l79 -145h-88zM497 882q-7 -48 -34.5 -82.5t-78.5 -34.5q-27 0 -43 10t-29 20t-32 10q-13 0 -22.5 -7.5
t-11.5 -22.5h-65q7 48 34 82.5t78 34.5q28 0 43.5 -10t28.5 -20t32 -10q13 0 23 7.5t13 22.5h64z" />
    <glyph glyph-name="uni1EC6" unicode="&#x1ec6;" horiz-adv-x="507" 
d="M94 732h438l-13 -99h-293l-28 -207h224l-13 -99h-224l-30 -228h292l-13 -99h-423l90 671zM337 832l-67 -44h-86l114 125h98l81 -125h-88zM298 -123q0 -29 -22.5 -50.5t-51.5 -21.5q-23 0 -39 16t-16 38q0 29 22.5 50.5t50.5 21.5q24 0 40 -15.5t16 -38.5z" />
    <glyph glyph-name="uni1EC7" unicode="&#x1ec7;" horiz-adv-x="466" 
d="M294 510q43 0 79 -13.5t57.5 -41t21.5 -71.5q0 -25 -14 -58t-50 -64t-100 -50.5t-163 -17.5v83q54 0 93 10t63.5 26.5t36 36t11.5 37.5q0 17 -11 28t-33 11q-36 0 -63.5 -17.5t-46 -47.5t-28 -66t-9.5 -74q0 -76 31.5 -110.5t83.5 -34.5q32 0 70 12t78 34l35 -68
l-13.5 -10t-39.5 -23t-62.5 -23t-82.5 -10q-78 0 -125.5 29t-69.5 78.5t-22 108.5q0 57 18.5 111.5t53.5 98.5t86 70t115 26zM309 643l-69 -64h-86l116 145h98l79 -145h-88zM268 -123q0 -29 -22.5 -50.5t-51.5 -21.5q-23 0 -39 16t-16 38q0 29 22.5 50.5t50.5 21.5
q24 0 40 -15.5t16 -38.5z" />
    <glyph glyph-name="uni1EC8" unicode="&#x1ec8;" horiz-adv-x="250" 
d="M95 732h144l-97 -732h-131l90 671zM157 779l-1 90q7 -2 15.5 -3.5t16.5 -1.5q17 0 30.5 7.5t13.5 28.5q0 12 -9 17.5t-23 5.5q-13 0 -28 -4t-29 -11l-18 52q24 15 52 22.5t54 7.5q39 0 67 -17t28 -51q0 -40 -30 -67.5t-74 -29.5l-15 -46h-50z" />
    <glyph glyph-name="uni1EC9" unicode="&#x1ec9;" horiz-adv-x="228" 
d="M151 0h-124l59 443l-3 54h124l-59 -442zM133 553l-1 90q7 -2 15.5 -3.5t16.5 -1.5q17 0 30.5 7.5t13.5 28.5q0 12 -9 17.5t-23 5.5q-13 0 -28 -4t-29 -11l-18 52q24 15 52 22.5t54 7.5q39 0 67 -17t28 -51q0 -40 -30 -67.5t-74 -29.5l-15 -46h-50z" />
    <glyph glyph-name="uni1ECA" unicode="&#x1eca;" horiz-adv-x="250" 
d="M95 732h144l-97 -732h-131l90 671zM125 -123q0 -29 -22.5 -50.5t-51.5 -21.5q-23 0 -39 16t-16 38q0 29 22.5 50.5t50.5 21.5q24 0 40 -15.5t16 -38.5z" />
    <glyph glyph-name="uni1ECB" unicode="&#x1ecb;" horiz-adv-x="228" 
d="M248 689q0 -33 -24 -60.5t-59 -27.5q-28 0 -45.5 19.5t-17.5 46.5q0 34 25 60.5t59 26.5q28 0 45 -19t17 -46zM207 497l-59 -442l3 -55h-124l59 443l-3 54h124zM151 -123q0 -29 -22.5 -50.5t-51.5 -21.5q-23 0 -39 16t-16 38q0 29 22.5 50.5t50.5 21.5q24 0 40 -15.5
t16 -38.5z" />
    <glyph glyph-name="uni1ECC" unicode="&#x1ecc;" horiz-adv-x="707" 
d="M300 -11q-70 0 -123 22.5t-88.5 63.5t-53.5 97t-18 123q0 86 25 166t74 143.5t120.5 101t164.5 37.5q95 0 159 -38t97 -106t33 -160q0 -86 -26 -166.5t-76 -144.5t-122.5 -101.5t-165.5 -37.5zM316 84q52 0 91.5 22.5t66.5 60t43.5 83.5t24 94t7.5 90q0 53 -14 102
t-48.5 80.5t-96.5 31.5q-52 0 -91 -22.5t-66 -60t-44 -83.5t-24.5 -94t-7.5 -90q0 -52 14 -101.5t48.5 -81t96.5 -31.5zM363 -123q0 -29 -22.5 -50.5t-51.5 -21.5q-23 0 -39 16t-16 38q0 29 22.5 50.5t50.5 21.5q24 0 40 -15.5t16 -38.5z" />
    <glyph glyph-name="uni1ECD" unicode="&#x1ecd;" horiz-adv-x="496" 
d="M213 -12q-68 0 -110.5 30t-62 78.5t-19.5 104.5q0 54 17.5 109t50.5 100t82 72.5t112 27.5q69 0 111 -30t61.5 -78.5t19.5 -104.5q0 -54 -17.5 -109t-50.5 -100t-82 -72.5t-112 -27.5zM224 69q33 0 58 20t42 54t25.5 74.5t8.5 80.5q0 36 -8 65.5t-26.5 47.5t-51.5 18
t-58 -20t-42 -54t-25.5 -74t-8.5 -81q0 -35 8 -65t27 -48t51 -18zM261 -123q0 -29 -22.5 -50.5t-51.5 -21.5q-23 0 -39 16t-16 38q0 29 22.5 50.5t50.5 21.5q24 0 40 -15.5t16 -38.5z" />
    <glyph glyph-name="uni1ECE" unicode="&#x1ece;" horiz-adv-x="707" 
d="M300 -11q-70 0 -123 22.5t-88.5 63.5t-53.5 97t-18 123q0 86 25 166t74 143.5t120.5 101t164.5 37.5q95 0 159 -38t97 -106t33 -160q0 -86 -26 -166.5t-76 -144.5t-122.5 -101.5t-165.5 -37.5zM316 84q52 0 91.5 22.5t66.5 60t43.5 83.5t24 94t7.5 90q0 53 -14 102
t-48.5 80.5t-96.5 31.5q-52 0 -91 -22.5t-66 -60t-44 -83.5t-24.5 -94t-7.5 -90q0 -52 14 -101.5t48.5 -81t96.5 -31.5zM389 779l-1 90q7 -2 15.5 -3.5t16.5 -1.5q17 0 30.5 7.5t13.5 28.5q0 12 -9 17.5t-23 5.5q-13 0 -28 -4t-29 -11l-18 52q24 15 52 22.5t54 7.5
q39 0 67 -17t28 -51q0 -40 -30 -67.5t-74 -29.5l-15 -46h-50z" />
    <glyph glyph-name="uni1ECF" unicode="&#x1ecf;" horiz-adv-x="496" 
d="M213 -12q-68 0 -110.5 30t-62 78.5t-19.5 104.5q0 54 17.5 109t50.5 100t82 72.5t112 27.5q69 0 111 -30t61.5 -78.5t19.5 -104.5q0 -54 -17.5 -109t-50.5 -100t-82 -72.5t-112 -27.5zM224 69q33 0 58 20t42 54t25.5 74.5t8.5 80.5q0 36 -8 65.5t-26.5 47.5t-51.5 18
t-58 -20t-42 -54t-25.5 -74t-8.5 -81q0 -35 8 -65t27 -48t51 -18zM268 553l-1 90q7 -2 15.5 -3.5t16.5 -1.5q17 0 30.5 7.5t13.5 28.5q0 12 -9 17.5t-23 5.5q-13 0 -28 -4t-29 -11l-18 52q24 15 52 22.5t54 7.5q39 0 67 -17t28 -51q0 -40 -30 -67.5t-74 -29.5l-15 -46h-50z
" />
    <glyph glyph-name="uni1ED0" unicode="&#x1ed0;" horiz-adv-x="707" 
d="M300 -11q-70 0 -123 22.5t-88.5 63.5t-53.5 97t-18 123q0 86 25 166t74 143.5t120.5 101t164.5 37.5q95 0 159 -38t97 -106t33 -160q0 -86 -26 -166.5t-76 -144.5t-122.5 -101.5t-165.5 -37.5zM316 84q52 0 91.5 22.5t66.5 60t43.5 83.5t24 94t7.5 90q0 53 -14 102
t-48.5 80.5t-96.5 31.5q-52 0 -91 -22.5t-66 -60t-44 -83.5t-24.5 -94t-7.5 -90q0 -52 14 -101.5t48.5 -81t96.5 -31.5zM420 832l-66 -44h-86l113 125h98l82 -125h-88zM463 1050h130l-113 -105h-88z" />
    <glyph glyph-name="uni1ED1" unicode="&#x1ed1;" horiz-adv-x="496" 
d="M213 -12q-68 0 -110.5 30t-62 78.5t-19.5 104.5q0 54 17.5 109t50.5 100t82 72.5t112 27.5q69 0 111 -30t61.5 -78.5t19.5 -104.5q0 -54 -17.5 -109t-50.5 -100t-82 -72.5t-112 -27.5zM224 69q33 0 58 20t42 54t25.5 74.5t8.5 80.5q0 36 -8 65.5t-26.5 47.5t-51.5 18
t-58 -20t-42 -54t-25.5 -74t-8.5 -81q0 -35 8 -65t27 -48t51 -18zM304 643l-69 -64h-86l116 145h98l79 -145h-88zM360 892h135l-129 -125h-93z" />
    <glyph glyph-name="uni1ED2" unicode="&#x1ed2;" horiz-adv-x="707" 
d="M300 -11q-70 0 -123 22.5t-88.5 63.5t-53.5 97t-18 123q0 86 25 166t74 143.5t120.5 101t164.5 37.5q95 0 159 -38t97 -106t33 -160q0 -86 -26 -166.5t-76 -144.5t-122.5 -101.5t-165.5 -37.5zM316 84q52 0 91.5 22.5t66.5 60t43.5 83.5t24 94t7.5 90q0 53 -14 102
t-48.5 80.5t-96.5 31.5q-52 0 -91 -22.5t-66 -60t-44 -83.5t-24.5 -94t-7.5 -90q0 -52 14 -101.5t48.5 -81t96.5 -31.5zM420 832l-67 -44h-88l116 125h98l79 -125h-86zM435 1050l43 -105h-88l-85 105h130z" />
    <glyph glyph-name="uni1ED3" unicode="&#x1ed3;" horiz-adv-x="496" 
d="M213 -12q-68 0 -110.5 30t-62 78.5t-19.5 104.5q0 54 17.5 109t50.5 100t82 72.5t112 27.5q69 0 111 -30t61.5 -78.5t19.5 -104.5q0 -54 -17.5 -109t-50.5 -100t-82 -72.5t-112 -27.5zM224 69q33 0 58 20t42 54t25.5 74.5t8.5 80.5q0 36 -8 65.5t-26.5 47.5t-51.5 18
t-58 -20t-42 -54t-25.5 -74t-8.5 -81q0 -35 8 -65t27 -48t51 -18zM304 643l-70 -64h-88l119 145h98l76 -145h-86zM316 892l51 -125h-93l-93 125h135z" />
    <glyph glyph-name="uni1ED4" unicode="&#x1ed4;" horiz-adv-x="707" 
d="M300 -11q-70 0 -123 22.5t-88.5 63.5t-53.5 97t-18 123q0 86 25 166t74 143.5t120.5 101t164.5 37.5q95 0 159 -38t97 -106t33 -160q0 -86 -26 -166.5t-76 -144.5t-122.5 -101.5t-165.5 -37.5zM316 84q52 0 91.5 22.5t66.5 60t43.5 83.5t24 94t7.5 90q0 53 -14 102
t-48.5 80.5t-96.5 31.5q-52 0 -91 -22.5t-66 -60t-44 -83.5t-24.5 -94t-7.5 -90q0 -52 14 -101.5t48.5 -81t96.5 -31.5zM421 832l-67 -44h-86l114 125h98l81 -125h-88zM409 933l-2 82q7 -2 15 -3.5t15 -1.5q15 0 27 7t12 26q0 11 -7.5 16t-21.5 5q-11 0 -25 -4t-27 -10
l-16 47q22 14 47.5 21t49.5 7q36 0 61 -16t25 -48q0 -36 -24 -60.5t-71 -25.5l-13 -42h-45z" />
    <glyph glyph-name="uni1ED5" unicode="&#x1ed5;" horiz-adv-x="496" 
d="M213 -12q-68 0 -110.5 30t-62 78.5t-19.5 104.5q0 54 17.5 109t50.5 100t82 72.5t112 27.5q69 0 111 -30t61.5 -78.5t19.5 -104.5q0 -54 -17.5 -109t-50.5 -100t-82 -72.5t-112 -27.5zM224 69q33 0 58 20t42 54t25.5 74.5t8.5 80.5q0 36 -8 65.5t-26.5 47.5t-51.5 18
t-58 -20t-42 -54t-25.5 -74t-8.5 -81q0 -35 8 -65t27 -48t51 -18zM304 643l-70 -64h-86l117 145h98l78 -145h-88zM294 754l-2 82q15 -5 30 -5q17 0 28.5 8t11.5 24q0 11 -8 16.5t-22 5.5q-11 0 -25 -4t-27 -10l-16 47q45 28 97 28q36 0 61 -16.5t25 -48.5q0 -34 -22.5 -58.5
t-72.5 -26.5l-13 -42h-45z" />
    <glyph glyph-name="uni1ED6" unicode="&#x1ed6;" horiz-adv-x="707" 
d="M300 -11q-70 0 -123 22.5t-88.5 63.5t-53.5 97t-18 123q0 86 25 166t74 143.5t120.5 101t164.5 37.5q95 0 159 -38t97 -106t33 -160q0 -86 -26 -166.5t-76 -144.5t-122.5 -101.5t-165.5 -37.5zM316 84q52 0 91.5 22.5t66.5 60t43.5 83.5t24 94t7.5 90q0 53 -14 102
t-48.5 80.5t-96.5 31.5q-52 0 -91 -22.5t-66 -60t-44 -83.5t-24.5 -94t-7.5 -90q0 -52 14 -101.5t48.5 -81t96.5 -31.5zM421 832l-67 -44h-86l114 125h98l81 -125h-88zM608 1073q-7 -48 -34 -82.5t-78 -34.5q-21 0 -34.5 6t-24 14t-21 14t-24.5 6q-13 0 -23 -7.5t-12 -22.5
h-65q7 48 34.5 82.5t78.5 34.5q28 0 43.5 -10t28.5 -20t32 -10q13 0 23 7.5t12 22.5h64z" />
    <glyph glyph-name="uni1ED7" unicode="&#x1ed7;" horiz-adv-x="496" 
d="M213 -12q-68 0 -110.5 30t-62 78.5t-19.5 104.5q0 54 17.5 109t50.5 100t82 72.5t112 27.5q69 0 111 -30t61.5 -78.5t19.5 -104.5q0 -54 -17.5 -109t-50.5 -100t-82 -72.5t-112 -27.5zM224 69q33 0 58 20t42 54t25.5 74.5t8.5 80.5q0 36 -8 65.5t-26.5 47.5t-51.5 18
t-58 -20t-42 -54t-25.5 -74t-8.5 -81q0 -35 8 -65t27 -48t51 -18zM304 643l-69 -64h-86l116 145h98l79 -145h-88zM492 882q-7 -48 -34.5 -82.5t-78.5 -34.5q-27 0 -43 10t-29 20t-32 10q-13 0 -22.5 -7.5t-11.5 -22.5h-65q7 48 34 82.5t78 34.5q28 0 43.5 -10t28.5 -20
t32 -10q13 0 23 7.5t13 22.5h64z" />
    <glyph glyph-name="uni1ED8" unicode="&#x1ed8;" horiz-adv-x="707" 
d="M300 -11q-70 0 -123 22.5t-88.5 63.5t-53.5 97t-18 123q0 86 25 166t74 143.5t120.5 101t164.5 37.5q95 0 159 -38t97 -106t33 -160q0 -86 -26 -166.5t-76 -144.5t-122.5 -101.5t-165.5 -37.5zM316 84q52 0 91.5 22.5t66.5 60t43.5 83.5t24 94t7.5 90q0 53 -14 102
t-48.5 80.5t-96.5 31.5q-52 0 -91 -22.5t-66 -60t-44 -83.5t-24.5 -94t-7.5 -90q0 -52 14 -101.5t48.5 -81t96.5 -31.5zM421 832l-67 -44h-86l114 125h98l81 -125h-88zM363 -123q0 -29 -22.5 -50.5t-51.5 -21.5q-23 0 -39 16t-16 38q0 29 22.5 50.5t50.5 21.5q24 0 40 -15.5
t16 -38.5z" />
    <glyph glyph-name="uni1ED9" unicode="&#x1ed9;" horiz-adv-x="496" 
d="M213 -12q-68 0 -110.5 30t-62 78.5t-19.5 104.5q0 54 17.5 109t50.5 100t82 72.5t112 27.5q69 0 111 -30t61.5 -78.5t19.5 -104.5q0 -54 -17.5 -109t-50.5 -100t-82 -72.5t-112 -27.5zM224 69q33 0 58 20t42 54t25.5 74.5t8.5 80.5q0 36 -8 65.5t-26.5 47.5t-51.5 18
t-58 -20t-42 -54t-25.5 -74t-8.5 -81q0 -35 8 -65t27 -48t51 -18zM304 643l-69 -64h-86l116 145h98l79 -145h-88zM261 -123q0 -29 -22.5 -50.5t-51.5 -21.5q-23 0 -39 16t-16 38q0 29 22.5 50.5t50.5 21.5q24 0 40 -15.5t16 -38.5z" />
    <glyph glyph-name="uni1EDA" unicode="&#x1eda;" horiz-adv-x="707" 
d="M300 -11q-70 0 -123 22.5t-88.5 63.5t-53.5 97t-18 123q0 86 25 166t74 143.5t120.5 101t164.5 37.5q95 0 159 -38t97 -106t33 -160q0 -86 -26 -166.5t-76 -144.5t-122.5 -101.5t-165.5 -37.5zM316 84q52 0 91.5 22.5t66.5 60t43.5 83.5t24 94t7.5 90q0 53 -14 102
t-48.5 80.5t-96.5 31.5q-52 0 -91 -22.5t-66 -60t-44 -83.5t-24.5 -94t-7.5 -90q0 -52 14 -101.5t48.5 -81t96.5 -31.5zM521 723q53 -14 86.5 4.5t49.5 56t16 79.5h116q-1 -37 -16.5 -78.5t-48 -75t-85 -49t-127.5 -2.5zM489 923h146l-171 -144h-104z" />
    <glyph glyph-name="uni1EDB" unicode="&#x1edb;" horiz-adv-x="496" 
d="M213 -12q-68 0 -110.5 30t-62 78.5t-19.5 104.5q0 54 17.5 109t50.5 100t82 72.5t112 27.5q69 0 111 -30t61.5 -78.5t19.5 -104.5q0 -54 -17.5 -109t-50.5 -100t-82 -72.5t-112 -27.5zM224 69q33 0 58 20t42 54t25.5 74.5t8.5 80.5q0 36 -8 65.5t-26.5 47.5t-51.5 18
t-58 -20t-42 -54t-25.5 -74t-8.5 -81q0 -35 8 -65t27 -48t51 -18zM367 494q36 -15 61.5 -0.5t39.5 48t13 75.5h116q-2 -37 -17 -75.5t-44 -68t-73 -42t-105 0.5zM375 735h145l-175 -165h-103z" />
    <glyph glyph-name="uni1EDC" unicode="&#x1edc;" horiz-adv-x="707" 
d="M300 -11q-70 0 -123 22.5t-88.5 63.5t-53.5 97t-18 123q0 86 25 166t74 143.5t120.5 101t164.5 37.5q95 0 159 -38t97 -106t33 -160q0 -86 -26 -166.5t-76 -144.5t-122.5 -101.5t-165.5 -37.5zM316 84q52 0 91.5 22.5t66.5 60t43.5 83.5t24 94t7.5 90q0 53 -14 102
t-48.5 80.5t-96.5 31.5q-52 0 -91 -22.5t-66 -60t-44 -83.5t-24.5 -94t-7.5 -90q0 -52 14 -101.5t48.5 -81t96.5 -31.5zM521 723q53 -14 86.5 4.5t49.5 56t16 79.5h116q-1 -37 -16.5 -78.5t-48 -75t-85 -49t-127.5 -2.5zM375 923l89 -144h-104l-131 144h146z" />
    <glyph glyph-name="uni1EDD" unicode="&#x1edd;" horiz-adv-x="496" 
d="M213 -12q-68 0 -110.5 30t-62 78.5t-19.5 104.5q0 54 17.5 109t50.5 100t82 72.5t112 27.5q69 0 111 -30t61.5 -78.5t19.5 -104.5q0 -54 -17.5 -109t-50.5 -100t-82 -72.5t-112 -27.5zM224 69q33 0 58 20t42 54t25.5 74.5t8.5 80.5q0 36 -8 65.5t-26.5 47.5t-51.5 18
t-58 -20t-42 -54t-25.5 -74t-8.5 -81q0 -35 8 -65t27 -48t51 -18zM367 494q36 -15 61.5 -0.5t39.5 48t13 75.5h116q-2 -37 -17 -75.5t-44 -68t-73 -42t-105 0.5zM257 735l85 -165h-103l-127 165h145z" />
    </font>
</defs>
</svg>
