<svg width="224" height="41" viewBox="0 0 224 41" fill="none" xmlns="http://www.w3.org/2000/svg">
<g clip-path="url(#clip0_331_78161)">
<path fill-rule="evenodd" clip-rule="evenodd" d="M38.6748 14.5833L28.5388 13.0384C27.4054 12.868 26.4238 12.1182 25.9194 11.0447L21.3856 1.42311C20.8162 0.218989 19.1784 0.218989 18.6144 1.42311L14.0806 11.0447C13.5762 12.1182 12.5946 12.868 11.4612 13.0384L1.32517 14.5833C0.056144 14.7764 -0.448207 16.4065 0.468315 17.3437L7.80049 24.8297C8.62482 25.6646 8.99902 26.8744 8.80378 28.0558L7.07378 38.626C6.85685 39.9437 8.18012 40.9547 9.31357 40.3299L18.3812 35.3374C19.3953 34.7807 20.6047 34.7807 21.6188 35.3374L30.6864 40.3299C31.8199 40.9547 33.1432 39.9494 32.9262 38.626L31.1962 28.0558C31.0064 26.8744 31.3806 25.6646 32.1995 24.8297L39.5317 17.3437C40.4482 16.4065 39.9438 14.7764 38.6748 14.5833ZM38.8167 16.6445C38.9915 16.4658 39.041 16.2169 38.9677 15.9806C38.895 15.7461 38.7295 15.6031 38.5244 15.5719L28.3902 14.0272L28.3891 14.0271C26.9101 13.8044 25.6541 12.8311 25.0146 11.4705L20.4816 1.85062C20.2713 1.4064 19.7226 1.41467 19.5199 1.84729L19.519 1.84937L14.9857 11.47C14.3462 12.8309 13.0901 13.8043 11.6109 14.0271L11.6098 14.0272L1.47585 15.5719C1.27073 15.6031 1.10502 15.746 1.03231 15.9806C0.959076 16.2168 1.00849 16.4656 1.18299 16.6442L8.5121 24.1271L8.51341 24.1284C9.56843 25.1979 10.036 26.7313 9.79052 28.2181L8.06065 38.7875C8.01534 39.0627 8.12706 39.2843 8.29336 39.411C8.455 39.5341 8.6441 39.5571 8.83083 39.4542L17.9 34.4607C19.2138 33.7396 20.7862 33.7396 22.1 34.4607L22.1011 34.4614L31.1688 39.4539C31.3572 39.5578 31.5471 39.5344 31.7074 39.4125C31.8719 39.2874 31.9852 39.0674 31.9394 38.7877L30.2089 28.2144C29.9704 26.7304 30.4368 25.199 31.4851 24.1299M31.4851 24.1299L38.8167 16.6445L31.4851 24.1299Z" fill="#DDDDDD"/>
<path fill-rule="evenodd" clip-rule="evenodd" d="M84.6748 14.5833L74.5388 13.0384C73.4054 12.868 72.4238 12.1182 71.9194 11.0447L67.3856 1.42311C66.8162 0.218989 65.1784 0.218989 64.6144 1.42311L60.0806 11.0447C59.5762 12.1182 58.5946 12.868 57.4612 13.0384L47.3252 14.5833C46.0561 14.7764 45.5518 16.4065 46.4683 17.3437L53.8005 24.8297C54.6248 25.6646 54.999 26.8744 54.8038 28.0558L53.0738 38.626C52.8569 39.9437 54.1801 40.9547 55.3136 40.3299L64.3812 35.3374C65.3953 34.7807 66.6047 34.7807 67.6188 35.3374L76.6864 40.3299C77.8199 40.9547 79.1432 39.9494 78.9262 38.626L77.1962 28.0558C77.0064 26.8744 77.3806 25.6646 78.1995 24.8297L85.5317 17.3437C86.4482 16.4065 85.9438 14.7764 84.6748 14.5833ZM84.8167 16.6445C84.9915 16.4658 85.041 16.2169 84.9677 15.9806C84.895 15.7461 84.7295 15.6031 84.5244 15.5719L74.3902 14.0272L74.3891 14.0271C72.9101 13.8044 71.6541 12.8311 71.0146 11.4705L66.4816 1.85062C66.2713 1.4064 65.7226 1.41467 65.5199 1.84729L65.519 1.84937L60.9857 11.47C60.3462 12.8309 59.0901 13.8043 57.6109 14.0271L57.6098 14.0272L47.4759 15.5719C47.2707 15.6031 47.105 15.746 47.0323 15.9806C46.9591 16.2168 47.0085 16.4656 47.183 16.6442L54.5121 24.1271L54.5134 24.1284C55.5684 25.1979 56.036 26.7313 55.7905 28.2181L54.0606 38.7875C54.0153 39.0627 54.1271 39.2843 54.2934 39.411C54.455 39.5341 54.6441 39.5571 54.8308 39.4542L63.9 34.4607C65.2138 33.7396 66.7862 33.7396 68.1 34.4607L68.1011 34.4614L77.1688 39.4539C77.3572 39.5578 77.5471 39.5344 77.7074 39.4125C77.8719 39.2874 77.9852 39.0674 77.9394 38.7877L76.2089 28.2144C75.9704 26.7304 76.4368 25.199 77.4851 24.1299M77.4851 24.1299L84.8167 16.6445L77.4851 24.1299Z" fill="#DDDDDD"/>
<path fill-rule="evenodd" clip-rule="evenodd" d="M130.675 14.5833L120.539 13.0384C119.405 12.868 118.424 12.1182 117.919 11.0447L113.386 1.42311C112.816 0.218989 111.178 0.218989 110.614 1.42311L106.081 11.0447C105.576 12.1182 104.595 12.868 103.461 13.0384L93.3252 14.5833C92.0561 14.7764 91.5518 16.4065 92.4683 17.3437L99.8005 24.8297C100.625 25.6646 100.999 26.8744 100.804 28.0558L99.0738 38.626C98.8569 39.9437 100.18 40.9547 101.314 40.3299L110.381 35.3374C111.395 34.7807 112.605 34.7807 113.619 35.3374L122.686 40.3299C123.82 40.9547 125.143 39.9494 124.926 38.626L123.196 28.0558C123.006 26.8744 123.381 25.6646 124.199 24.8297L131.532 17.3437C132.448 16.4065 131.944 14.7764 130.675 14.5833ZM130.817 16.6445C130.991 16.4658 131.041 16.2169 130.968 15.9806C130.895 15.7461 130.729 15.6031 130.524 15.5719L120.39 14.0272L120.389 14.0271C118.91 13.8044 117.654 12.8311 117.015 11.4705L112.482 1.85062C112.271 1.4064 111.723 1.41467 111.52 1.84729L111.519 1.84937L106.986 11.47C106.346 12.8309 105.09 13.8043 103.611 14.0271L103.61 14.0272L93.4759 15.5719C93.2707 15.6031 93.105 15.746 93.0323 15.9806C92.9591 16.2168 93.0085 16.4656 93.183 16.6442L100.512 24.1271L100.513 24.1284C101.568 25.1979 102.036 26.7313 101.791 28.2181L100.061 38.7875C100.015 39.0627 100.127 39.2843 100.293 39.411C100.455 39.5341 100.644 39.5571 100.831 39.4542L109.9 34.4607C111.214 33.7396 112.786 33.7396 114.1 34.4607L114.101 34.4614L123.169 39.4539C123.357 39.5578 123.547 39.5344 123.707 39.4125C123.872 39.2874 123.985 39.0674 123.939 38.7877L122.209 28.2144C121.97 26.7304 122.437 25.199 123.485 24.1299M123.485 24.1299L130.817 16.6445L123.485 24.1299Z" fill="#DDDDDD"/>
<path fill-rule="evenodd" clip-rule="evenodd" d="M176.675 14.5833L166.539 13.0384C165.405 12.868 164.424 12.1182 163.919 11.0447L159.386 1.42311C158.816 0.218989 157.178 0.218989 156.614 1.42311L152.081 11.0447C151.576 12.1182 150.595 12.868 149.461 13.0384L139.325 14.5833C138.056 14.7764 137.552 16.4065 138.468 17.3437L145.8 24.8297C146.625 25.6646 146.999 26.8744 146.804 28.0558L145.074 38.626C144.857 39.9437 146.18 40.9547 147.314 40.3299L156.381 35.3374C157.395 34.7807 158.605 34.7807 159.619 35.3374L168.686 40.3299C169.82 40.9547 171.143 39.9494 170.926 38.626L169.196 28.0558C169.006 26.8744 169.381 25.6646 170.199 24.8297L177.532 17.3437C178.448 16.4065 177.944 14.7764 176.675 14.5833ZM176.817 16.6445C176.991 16.4658 177.041 16.2169 176.968 15.9806C176.895 15.7461 176.729 15.6031 176.524 15.5719L166.39 14.0272L166.389 14.0271C164.91 13.8044 163.654 12.8311 163.015 11.4705L158.482 1.85062C158.271 1.4064 157.723 1.41467 157.52 1.84729L157.519 1.84937L152.986 11.47C152.346 12.8309 151.09 13.8043 149.611 14.0271L149.61 14.0272L139.476 15.5719C139.271 15.6031 139.105 15.746 139.032 15.9806C138.959 16.2168 139.008 16.4656 139.183 16.6442L146.512 24.1271L146.513 24.1284C147.568 25.1979 148.036 26.7313 147.791 28.2181L146.061 38.7875C146.015 39.0627 146.127 39.2843 146.293 39.411C146.455 39.5341 146.644 39.5571 146.831 39.4542L155.9 34.4607C157.214 33.7396 158.786 33.7396 160.1 34.4607L160.101 34.4614L169.169 39.4539C169.357 39.5578 169.547 39.5344 169.707 39.4125C169.872 39.2874 169.985 39.0674 169.939 38.7877L168.209 28.2144C167.97 26.7304 168.437 25.199 169.485 24.1299M169.485 24.1299L176.817 16.6445L169.485 24.1299Z" fill="#DDDDDD"/>
<path fill-rule="evenodd" clip-rule="evenodd" d="M222.675 14.5833L212.539 13.0384C211.405 12.868 210.424 12.1182 209.919 11.0447L205.386 1.42311C204.816 0.218989 203.178 0.218989 202.614 1.42311L198.081 11.0447C197.576 12.1182 196.595 12.868 195.461 13.0384L185.325 14.5833C184.056 14.7764 183.552 16.4065 184.468 17.3437L191.8 24.8297C192.625 25.6646 192.999 26.8744 192.804 28.0558L191.074 38.626C190.857 39.9437 192.18 40.9547 193.314 40.3299L202.381 35.3374C203.395 34.7807 204.605 34.7807 205.619 35.3374L214.686 40.3299C215.82 40.9547 217.143 39.9494 216.926 38.626L215.196 28.0558C215.006 26.8744 215.381 25.6646 216.199 24.8297L223.532 17.3437C224.448 16.4065 223.944 14.7764 222.675 14.5833ZM222.817 16.6445C222.991 16.4658 223.041 16.2169 222.968 15.9806C222.895 15.7461 222.729 15.6031 222.524 15.5719L212.39 14.0272L212.389 14.0271C210.91 13.8044 209.654 12.8311 209.015 11.4705L204.482 1.85062C204.271 1.4064 203.723 1.41467 203.52 1.84729L203.519 1.84937L198.986 11.47C198.346 12.8309 197.09 13.8043 195.611 14.0271L195.61 14.0272L185.476 15.5719C185.271 15.6031 185.105 15.746 185.032 15.9806C184.959 16.2168 185.008 16.4656 185.183 16.6442L192.512 24.1271L192.513 24.1284C193.568 25.1979 194.036 26.7313 193.791 28.2181L192.061 38.7875C192.015 39.0627 192.127 39.2843 192.293 39.411C192.455 39.5341 192.644 39.5571 192.831 39.4542L201.9 34.4607C203.214 33.7396 204.786 33.7396 206.1 34.4607L206.101 34.4614L215.169 39.4539C215.357 39.5578 215.547 39.5344 215.707 39.4125C215.872 39.2874 215.985 39.0674 215.939 38.7877L214.209 28.2144C213.97 26.7304 214.437 25.199 215.485 24.1299M215.485 24.1299L222.817 16.6445L215.485 24.1299Z" fill="#DDDDDD"/>
</g>
<defs>
<clipPath id="clip0_331_78161">
<rect width="224" height="40" fill="white" transform="translate(0 0.52002)"/>
</clipPath>
</defs>
</svg>
