<svg width="224" height="41" viewBox="0 0 224 41" fill="none" xmlns="http://www.w3.org/2000/svg">
<g clip-path="url(#clip0_177_18498)">
<path d="M39.5263 17.5801L32.1897 25.0672C31.3709 25.9079 30.9968 27.1122 31.1866 28.2938L32.9163 38.8655C33.1332 40.189 31.8102 41.1945 30.6769 40.5696L21.6105 35.5764C20.5965 35.0197 19.3873 35.0197 18.3733 35.5764L9.30688 40.5696C8.17358 41.1945 6.8505 40.1834 7.0674 38.8655L8.79717 28.2938C8.99238 27.1122 8.61823 25.9022 7.79401 25.0672L0.46825 17.5801C-0.448149 16.6428 0.0561416 15.0125 1.325 14.825L11.4596 13.2799C12.5929 13.1095 13.5744 12.3596 14.0787 11.286L18.6118 1.66299C19.1758 0.458692 20.8134 0.458692 21.3827 1.66299L25.9159 11.2803C26.4256 12.3596 27.4017 13.1038 28.5404 13.2742L38.675 14.8193C39.9439 15.0125 40.4482 16.6428 39.5318 17.5744L39.5263 17.5801Z" fill="#FC76FF"/>
<path d="M85.5263 17.5801L78.1897 25.0672C77.3709 25.9079 76.9968 27.1122 77.1866 28.2938L78.9163 38.8655C79.1332 40.189 77.8102 41.1945 76.6769 40.5696L67.6105 35.5764C66.5965 35.0197 65.3873 35.0197 64.3733 35.5764L55.3069 40.5696C54.1736 41.1945 52.8505 40.1834 53.0674 38.8655L54.7972 28.2938C54.9924 27.1122 54.6182 25.9022 53.794 25.0672L46.4682 17.5801C45.5519 16.6428 46.0561 15.0125 47.325 14.825L57.4596 13.2799C58.5929 13.1095 59.5744 12.3596 60.0787 11.286L64.6118 1.66299C65.1758 0.458692 66.8134 0.458692 67.3827 1.66299L71.9159 11.2803C72.4256 12.3596 73.4017 13.1038 74.5404 13.2742L84.675 14.8193C85.9439 15.0125 86.4482 16.6428 85.5318 17.5744L85.5263 17.5801Z" fill="#FC76FF"/>
<path d="M131.526 17.5801L124.19 25.0672C123.371 25.9079 122.997 27.1122 123.187 28.2938L124.916 38.8655C125.133 40.189 123.81 41.1945 122.677 40.5696L113.61 35.5764C112.596 35.0197 111.387 35.0197 110.373 35.5764L101.307 40.5696C100.174 41.1945 98.8505 40.1834 99.0674 38.8655L100.797 28.2938C100.992 27.1122 100.618 25.9022 99.794 25.0672L92.4682 17.5801C91.5519 16.6428 92.0561 15.0125 93.325 14.825L103.46 13.2799C104.593 13.1095 105.574 12.3596 106.079 11.286L110.612 1.66299C111.176 0.458692 112.813 0.458692 113.383 1.66299L117.916 11.2803C118.426 12.3596 119.402 13.1038 120.54 13.2742L130.675 14.8193C131.944 15.0125 132.448 16.6428 131.532 17.5744L131.526 17.5801Z" fill="#FC76FF"/>
<path d="M177.526 17.5801L170.19 25.0672C169.371 25.9079 168.997 27.1122 169.187 28.2938L170.916 38.8655C171.133 40.189 169.81 41.1945 168.677 40.5696L159.61 35.5764C158.596 35.0197 157.387 35.0197 156.373 35.5764L147.307 40.5696C146.174 41.1945 144.851 40.1834 145.067 38.8655L146.797 28.2938C146.992 27.1122 146.618 25.9022 145.794 25.0672L138.468 17.5801C137.552 16.6428 138.056 15.0125 139.325 14.825L149.46 13.2799C150.593 13.1095 151.574 12.3596 152.079 11.286L156.612 1.66299C157.176 0.458692 158.813 0.458692 159.383 1.66299L163.916 11.2803C164.426 12.3596 165.402 13.1038 166.54 13.2742L176.675 14.8193C177.944 15.0125 178.448 16.6428 177.532 17.5744L177.526 17.5801Z" fill="#FC76FF"/>
<path d="M223.526 17.5801L216.19 25.0672C215.371 25.9079 214.997 27.1122 215.187 28.2938L216.916 38.8655C217.133 40.189 215.81 41.1945 214.677 40.5696L205.61 35.5764C204.596 35.0197 203.387 35.0197 202.373 35.5764L193.307 40.5696C192.174 41.1945 190.851 40.1834 191.067 38.8655L192.797 28.2938C192.992 27.1122 192.618 25.9022 191.794 25.0672L184.468 17.5801C183.552 16.6428 184.056 15.0125 185.325 14.825L195.46 13.2799C196.593 13.1095 197.574 12.3596 198.079 11.286L202.612 1.66299C203.176 0.458692 204.813 0.458692 205.383 1.66299L209.916 11.2803C210.426 12.3596 211.402 13.1038 212.54 13.2742L222.675 14.8193C223.944 15.0125 224.448 16.6428 223.532 17.5744L223.526 17.5801Z" fill="#FC76FF"/>
</g>
<defs>
<clipPath id="clip0_177_18498">
<rect width="224" height="40" fill="white" transform="translate(0 0.759766)"/>
</clipPath>
</defs>
</svg>
