<svg width="20" height="20" viewBox="0 0 20 20" fill="none" xmlns="http://www.w3.org/2000/svg">
    <path d="M2.5 10h.75-.75zm7.5 7.5v-.75.75zm7.5-7.5h-.75.75zM10 2.5v-.75.75zm.75 5a.75.75 0 0 0-1.5 0h1.5zm-1.5 3.333a.75.75 0 0 0 1.5 0h-1.5zm1.5 2.5a.75.75 0 0 0-1.5 0h1.5zm-1.5.009a.75.75 0 0 0 1.5 0h-1.5zM1.75 10a8.25 8.25 0 0 0 .628 3.157l1.386-.574A6.75 6.75 0 0 1 3.25 10h-1.5zm.628 3.157a8.25 8.25 0 0 0 1.788 2.677l1.061-1.061a6.75 6.75 0 0 1-1.463-2.19l-1.386.574zm1.788 2.677a8.25 8.25 0 0 0 2.677 1.788l.574-1.386a6.75 6.75 0 0 1-2.19-1.463l-1.06 1.06zm2.677 1.788A8.25 8.25 0 0 0 10 18.25v-1.5a6.75 6.75 0 0 1-2.583-.514l-.574 1.386zM10 18.25a8.25 8.25 0 0 0 3.157-.628l-.574-1.386A6.75 6.75 0 0 1 10 16.75v1.5zm3.157-.628a8.25 8.25 0 0 0 2.677-1.788l-1.061-1.061a6.75 6.75 0 0 1-2.19 1.463l.574 1.386zm2.677-1.788a8.25 8.25 0 0 0 1.788-2.677l-1.386-.574a6.75 6.75 0 0 1-1.463 2.19l1.06 1.06zm1.788-2.677A8.25 8.25 0 0 0 18.25 10h-1.5a6.75 6.75 0 0 1-.514 2.583l1.386.574zM18.25 10a8.25 8.25 0 0 0-.628-3.157l-1.386.574A6.75 6.75 0 0 1 16.75 10h1.5zm-.628-3.157a8.25 8.25 0 0 0-1.788-2.677l-1.061 1.061a6.75 6.75 0 0 1 1.463 2.19l1.386-.574zm-1.788-2.677a8.25 8.25 0 0 0-2.677-1.788l-.574 1.386a6.75 6.75 0 0 1 2.19 1.463l1.06-1.06zm-2.677-1.788A8.25 8.25 0 0 0 10 1.75v1.5a6.75 6.75 0 0 1 2.583.514l.574-1.386zM10 1.75a8.25 8.25 0 0 0-3.157.628l.574 1.386A6.75 6.75 0 0 1 10 3.25v-1.5zm-3.157.628a8.25 8.25 0 0 0-2.677 1.788l1.061 1.061a6.75 6.75 0 0 1 2.19-1.463l-.574-1.386zM4.166 4.166a8.25 8.25 0 0 0-1.788 2.677l1.386.574a6.75 6.75 0 0 1 1.463-2.19l-1.06-1.06zM2.378 6.843A8.25 8.25 0 0 0 1.75 10h1.5c0-.886.175-1.764.514-2.583l-1.386-.574zM9.25 7.5v3.333h1.5V7.5h-1.5zm0 5.833v.009h1.5v-.009h-1.5z" fill="#757575"/>
</svg>
