<svg width="21" height="20" viewBox="0 0 21 20" fill="none" xmlns="http://www.w3.org/2000/svg">
    <g clip-path="url(#p0d3tcyj3a)">
        <path d="M10.5 1.667A8.333 8.333 0 0 1 18.834 10a8.334 8.334 0 0 1-16.663.27L2.167 10l.003-.233a8.333 8.333 0 0 1 8.33-8.1zM10.51 12.5l-.106.006a.833.833 0 0 0 0 1.655l.097.006.106-.006a.833.833 0 0 0 0-1.655l-.097-.006zM10.5 5.834a.833.833 0 0 0-.827.735l-.006.098V10l.006.098a.833.833 0 0 0 1.655 0l.006-.098V6.667l-.006-.098a.834.834 0 0 0-.828-.735z" fill="#8D96A5"/>
    </g>
    <defs>
        <clipPath id="p0d3tcyj3a">
            <path fill="#fff" transform="translate(.5)" d="M0 0h20v20H0z"/>
        </clipPath>
    </defs>
</svg>
