<svg width="26" height="26" viewBox="0 0 26 26" fill="none" xmlns="http://www.w3.org/2000/svg">
    <path d="M22.008 16.731A9.75 9.75 0 1 0 3.992 9.27a9.75 9.75 0 0 0 18.016 7.462z" stroke="#fff" stroke-width="2" stroke-linecap="round" stroke-linejoin="round"/>
    <path d="M9 10.333c0-.353.053-.692.146-.942C9.24 9.14 9.367 9 9.5 9h2c.133 0 .26.14.354.39.093.25.146.59.146.943v5.334c0 .353-.053.692-.146.943-.094.25-.221.39-.354.39h-2c-.133 0-.26-.14-.354-.39A2.803 2.803 0 0 1 9 15.667v-5.334zM14 10.333c0-.353.053-.692.146-.942.094-.25.221-.391.354-.391h2c.133 0 .26.14.354.39.093.25.146.59.146.943v5.334c0 .353-.053.692-.146.943-.094.25-.221.39-.354.39h-2c-.133 0-.26-.14-.354-.39a2.805 2.805 0 0 1-.146-.943v-5.334z" fill="#fff"/>
</svg>
