<svg width="26" height="26" viewBox="0 0 26 26" fill="none" xmlns="http://www.w3.org/2000/svg">
    <path fill-rule="evenodd" clip-rule="evenodd" d="M7.875 7.527a.348.348 0 0 1-.348.348H4.045a1.045 1.045 0 0 0 0 2.09h3.482a2.438 2.438 0 0 0 2.437-2.438V4.045a1.045 1.045 0 0 0-2.089 0v3.482zm10.25 0c0 .192.157.348.35.348h3.481a1.045 1.045 0 0 1 0 2.09h-3.482a2.437 2.437 0 0 1-2.437-2.438V4.045a1.045 1.045 0 1 1 2.089 0v3.482zm.35 11.046a.348.348 0 0 0-.35.348v3.483a1.045 1.045 0 0 1-2.088 0V18.92a2.437 2.437 0 0 1 2.437-2.437h3.482a1.045 1.045 0 0 1 0 2.09h-3.482zm-10.564.348a.348.348 0 0 0-.348-.348H4.08a1.045 1.045 0 1 1 0-2.09h3.482A2.437 2.437 0 0 1 10 18.922v3.483a1.045 1.045 0 0 1-2.089 0V18.92z" fill="#fff"/>
</svg>
