<svg width="40" height="40" viewBox="0 0 40 40" fill="none" xmlns="http://www.w3.org/2000/svg">
    <path fill-rule="evenodd" clip-rule="evenodd" d="m38.675 14.063-10.136-1.545c-1.134-.17-2.115-.92-2.62-1.993L21.386.903a1.514 1.514 0 0 0-2.772 0l-4.533 9.622c-.505 1.073-1.486 1.823-2.62 1.993L1.325 14.063c-1.269.193-1.773 1.823-.857 2.76L7.8 24.31c.825.835 1.199 2.044 1.004 3.226l-1.73 10.57c-.217 1.318 1.106 2.329 2.24 1.704l9.067-4.993a3.347 3.347 0 0 1 3.238 0l9.067 4.993c1.134.625 2.457-.38 2.24-1.704l-1.73-10.57c-.19-1.182.185-2.391 1.003-3.226l7.333-7.486c.916-.938.412-2.568-.857-2.76zm.142 2.062a.654.654 0 0 0 .15-.664c-.072-.235-.237-.378-.443-.41L28.39 13.508c-1.48-.223-2.736-1.196-3.375-2.557l-4.533-9.62c-.21-.444-.76-.435-.962-.003l-.001.002-4.533 9.621c-.64 1.36-1.896 2.334-3.375 2.557h-.001L1.476 15.052c-.205.031-.371.174-.444.409a.655.655 0 0 0 .151.663l7.33 7.483v.001c1.055 1.07 1.523 2.603 1.278 4.09l-1.73 10.57a.634.634 0 0 0 .232.623c.162.123.351.146.538.043l9.069-4.993a4.348 4.348 0 0 1 4.2 0h.001l9.068 4.993a.47.47 0 0 0 .538-.041.634.634 0 0 0 .232-.625l-1.73-10.574c-.239-1.484.228-3.015 1.276-4.084m0 0 7.332-7.485z" fill="#DDD"/>
</svg>
