<svg width="15" height="15" viewBox="0 0 15 15" fill="none" xmlns="http://www.w3.org/2000/svg">
    <path d="M14.428 5.768a.063.063 0 0 1 .036.016c.01.01.022.027.03.05a.12.12 0 0 1-.027.125l-2.75 2.807a1.913 1.913 0 0 0-.512 1.64l.649 3.964c.01.058-.013.095-.04.115a.068.068 0 0 1-.033.015c-.005 0-.014 0-.032-.01l-3.4-1.872h-.001a1.755 1.755 0 0 0-1.696 0l-3.4 1.873c-.018.01-.028.01-.033.009a.068.068 0 0 1-.033-.015c-.028-.021-.05-.059-.04-.114l.649-3.964a1.901 1.901 0 0 0-.513-1.641l-.001-.001L.533 5.959a.12.12 0 0 1-.026-.124.115.115 0 0 1 .03-.05.063.063 0 0 1 .035-.017l3.8-.58a1.809 1.809 0 0 0 1.36-1.028l1.7-3.608.001-.001a.091.091 0 0 1 .033-.042C7.476.503 7.486.5 7.5.5c.013 0 .024.003.034.01a.095.095 0 0 1 .034.042l1.7 3.607c.257.547.762.94 1.36 1.03l3.8.579z" fill="#fff" stroke="#DDD"/>
</svg>
