<svg width="40" height="40" viewBox="0 0 40 40" fill="none" xmlns="http://www.w3.org/2000/svg">
    <path d="M31.869 23.95h-.001a4.28 4.28 0 0 0-1.136 3.654v.001l1.726 10.57c.158.969-.783 1.582-1.5 1.187l-9.048-4.993a3.846 3.846 0 0 0-1.86-.483c-.64 0-1.276.157-1.861.483h-.001L9.14 39.362c-.716.396-1.658-.222-1.5-1.185l1.726-10.57v-.002c.214-1.332-.205-2.703-1.137-3.655L.914 16.463c-.656-.671-.257-1.788.57-1.91l.002-.001L11.6 13.007c1.306-.197 2.416-1.06 2.992-2.274l4.524-9.617.001-.001c.196-.42.567-.615.927-.615.36 0 .731.195.927.615v.001l4.524 9.614v.001c.572 1.225 1.69 2.08 2.993 2.276l10.114 1.545c.833.127 1.225 1.247.574 1.91l-.001.001-7.306 7.486z" stroke="#DDD"/>
    <path d="M19.961 0v34.398c-.557 0-1.11.136-1.618.42L9.294 39.81c-1.13.625-2.451-.386-2.235-1.704l1.727-10.57c.189-1.181-.185-2.391-1.002-3.226L.467 16.824c-.914-.937-.411-2.567.855-2.755l10.115-1.545c1.131-.17 2.106-.92 2.614-1.993L18.576.914a1.516 1.516 0 0 1 1.38-.903L19.96 0z" fill="#FFBE0B"/>
</svg>
