<svg width="17" height="16" viewBox="0 0 17 16" fill="none" xmlns="http://www.w3.org/2000/svg">
    <g clip-path="url(#vgedkxcmfa)" fill="#565656">
        <path d="M6.53 4.97a.75.75 0 0 0-1.06 1.06L7.44 8 5.47 9.97a.75.75 0 1 0 1.06 1.06L8.5 9.06l1.97 1.97a.75.75 0 1 0 1.06-1.06L9.56 8l1.97-1.97a.75.75 0 0 0-1.06-1.06L8.5 6.94 6.53 4.97z"/>
        <path fill-rule="evenodd" clip-rule="evenodd" d="M2.843 2.343a8 8 0 1 0 11.314 11.314A8 8 0 0 0 2.843 2.343zm1.06 10.253a6.5 6.5 0 1 1 9.193-9.192 6.5 6.5 0 0 1-9.192 9.192z"/>
    </g>
    <defs>
        <clipPath id="vgedkxcmfa">
            <path fill="#fff" transform="translate(.5)" d="M0 0h16v16H0z"/>
        </clipPath>
    </defs>
</svg>
