<svg width="20" height="20" viewBox="0 0 20 20" fill="none" xmlns="http://www.w3.org/2000/svg">
<path d="M9.99935 5.94169L10.8077 7.85002L11.1993 8.77502L12.1993 8.85836L14.2577 9.03336L12.691 10.3917L11.9327 11.05L12.1577 12.0334L12.6243 14.0417L10.8577 12.975L9.99935 12.4417L9.14102 12.9584L7.37435 14.025L7.84102 12.0167L8.06602 11.0334L7.30768 10.375L5.74102 9.01669L7.79935 8.84169L8.79935 8.75836L9.19102 7.83335L9.99935 5.94169ZM9.99935 1.66669L7.65768 7.19169L1.66602 7.70002L6.21602 11.6417L4.84935 17.5L9.99935 14.3917L15.1494 17.5L13.7827 11.6417L18.3327 7.70002L12.341 7.19169L9.99935 1.66669Z" fill="#E9E9E9"/>
</svg>
