<svg width="35" height="35" viewBox="0 0 35 35" fill="none" xmlns="http://www.w3.org/2000/svg">
<path d="M17.7101 2.91663H17.483C14.0065 2.91663 10.6725 4.29764 8.21423 6.75586C5.75601 9.21408 4.375 12.5481 4.375 16.0246L4.375 16.3736C4.37822 18.7331 5.01782 21.048 6.22641 23.0744C7.43501 25.1008 9.16783 26.7637 11.2423 27.8878C11.0738 28.563 10.7721 29.1978 10.355 29.7549C9.79986 30.4993 9.09336 31.3698 8.77796 31.7104C8.46257 32.0511 8.74853 32.2109 9.71154 31.9627C11.2743 31.499 12.7807 30.8629 14.2028 30.0661C14.8841 29.675 15.2794 29.448 15.5569 29.305C16.1939 29.4072 16.8378 29.4607 17.483 29.4648H17.7101C21.1832 29.4637 24.5141 28.0846 26.9716 25.6303C29.4291 23.1759 30.8125 19.8468 30.818 16.3736V16.0414C30.8202 14.3186 30.4828 12.6123 29.8251 11.02C29.1673 9.42777 28.2021 7.98078 26.9847 6.76181C25.7673 5.54284 24.3216 4.57581 22.7301 3.91602C21.1387 3.25623 19.4328 2.91662 17.7101 2.91663V2.91663ZM10.683 15.8059H13.4921V18.5898H10.683C10.2741 18.6024 9.87433 18.4681 9.55595 18.2114C9.41594 18.0818 9.30422 17.9247 9.22782 17.75C9.15141 17.5752 9.11197 17.3865 9.11197 17.1958C9.11197 17.005 9.15141 16.8163 9.22782 16.6416C9.30422 16.4668 9.41594 16.3097 9.55595 16.1802C9.87363 15.9226 10.2743 15.7895 10.683 15.8059ZM23.8708 17.0675C23.0298 18.102 21.7682 18.6277 20.1618 18.6277H18.2736V15.8185H19.3207C19.6456 15.8412 19.9716 15.7973 20.279 15.6896C20.5863 15.5818 20.8684 15.4125 21.1079 15.1919C21.3093 14.9769 21.4653 14.7234 21.5664 14.4466C21.6676 14.1699 21.7119 13.8756 21.6967 13.5813C21.6919 13.3028 21.631 13.0282 21.5176 12.7738C21.4041 12.5195 21.2405 12.2906 21.0365 12.101C20.6156 11.7342 20.0722 11.5391 19.5141 11.5543H17.4661V21.9457C17.4836 22.4123 17.3345 22.8699 17.0456 23.2367C16.9047 23.408 16.7254 23.5437 16.5223 23.6328C16.3192 23.7219 16.098 23.762 15.8765 23.7498C15.6525 23.7596 15.4292 23.7181 15.2237 23.6284C15.0182 23.5388 14.8358 23.4034 14.6906 23.2325C14.3889 22.8729 14.2302 22.4148 14.2449 21.9457V10.7385C14.2286 10.4723 14.2668 10.2056 14.3572 9.95467C14.4476 9.70375 14.5882 9.47393 14.7705 9.27927C14.9655 9.09737 15.1953 8.95698 15.4462 8.86662C15.697 8.77626 15.9636 8.73781 16.2298 8.7536H19.7244C21.3771 8.7536 22.6387 9.17413 23.4671 9.98155C23.7856 10.2854 24.0602 10.6322 24.283 11.0119C24.519 11.4064 24.7014 11.8307 24.8254 12.2735C24.9464 12.7004 25.0086 13.1418 25.0105 13.5855C25.0613 14.8362 24.663 16.0638 23.8877 17.0465L23.8708 17.0675Z" fill="#2A1C0B"/>
</svg>
