<svg width="36" height="36" viewBox="0 0 36 36" fill="none" xmlns="http://www.w3.org/2000/svg">
<path d="M18 10.695L19.455 14.13L20.16 15.795L21.96 15.945L25.665 16.26L22.845 18.705L21.48 19.89L21.885 21.66L22.725 25.275L19.545 23.355L18 22.395L16.455 23.325L13.275 25.245L14.115 21.63L14.52 19.86L13.155 18.675L10.335 16.23L14.04 15.915L15.84 15.765L16.545 14.1L18 10.695ZM18 3L13.785 12.945L3 13.86L11.19 20.955L8.73 31.5L18 25.905L27.27 31.5L24.81 20.955L33 13.86L22.215 12.945L18 3Z" fill="#E9E9E9"/>
</svg>
