<svg width="28" height="28" viewBox="0 0 28 28" fill="none" xmlns="http://www.w3.org/2000/svg">
<path d="M25.1334 7.58084C25.6666 9.65984 25.6666 13.9998 25.6666 13.9998C25.6666 13.9998 25.6666 18.3398 25.1334 20.4188C24.8371 21.568 23.9703 22.4722 22.8724 22.7778C20.8786 23.3332 13.9999 23.3332 13.9999 23.3332C13.9999 23.3332 7.12475 23.3332 5.12742 22.7778C4.02492 22.4675 3.15925 21.5645 2.86642 20.4188C2.33325 18.3398 2.33325 13.9998 2.33325 13.9998C2.33325 13.9998 2.33325 9.65984 2.86642 7.58084C3.16275 6.43167 4.02959 5.5275 5.12742 5.22184C7.12475 4.6665 13.9999 4.6665 13.9999 4.6665C13.9999 4.6665 20.8786 4.6665 22.8724 5.22184C23.9749 5.53217 24.8406 6.43517 25.1334 7.58084ZM11.6666 18.0832L18.6666 13.9998L11.6666 9.9165V18.0832Z" fill="#434343"/>
</svg>
