<svg width="28" height="26" viewBox="0 0 28 26" fill="none" xmlns="http://www.w3.org/2000/svg">
<path d="M6.11529 9.5918C5.92435 9.5918 5.73771 9.64842 5.57895 9.75449C5.42019 9.86057 5.29646 10.0113 5.22339 10.1877C5.15032 10.3641 5.1312 10.5583 5.16845 10.7455C5.2057 10.9328 5.29765 11.1048 5.43266 11.2398C5.56767 11.3748 5.73969 11.4668 5.92695 11.504C6.11422 11.5413 6.30833 11.5222 6.48473 11.4491C6.66113 11.376 6.8119 11.2523 6.91798 11.0935C7.02406 10.9348 7.08068 10.7481 7.08068 10.5572C7.08068 10.3011 6.97897 10.0556 6.79792 9.87455C6.61688 9.69351 6.37133 9.5918 6.11529 9.5918Z" fill="#434343"/>
<path d="M15.6465 11.5679C16.2203 11.5679 16.6855 11.1027 16.6855 10.5288C16.6855 9.95495 16.2203 9.48975 15.6465 9.48975C15.0726 9.48975 14.6074 9.95495 14.6074 10.5288C14.6074 11.1027 15.0726 11.5679 15.6465 11.5679Z" fill="#434343"/>
<path d="M24.2745 0H3.7482C2.75411 0 1.80074 0.394898 1.09782 1.09782C0.394898 1.80074 0 2.75411 0 3.74819L0 15.9298C-1.26168e-07 16.9241 0.394838 17.8776 1.09771 18.5809C1.80057 19.2841 2.75394 19.6794 3.7482 19.6799H10.999L13.455 25.4892C13.455 25.4892 13.625 25.9918 14.035 25.9918C14.4468 25.9918 14.6168 25.4892 14.6168 25.4892L17.0728 19.6799H24.2518C25.2461 19.6794 26.1994 19.2841 26.9023 18.5809C27.6052 17.8776 28 16.9241 28 15.9298V3.74819C28 2.75803 27.6082 1.80808 26.9102 1.1058C26.2122 0.403529 25.2646 0.00598892 24.2745 0V0ZM8.80372 10.7685C8.79239 12.9959 6.48944 13.0582 6.48944 13.0582C6.23021 13.0586 5.97357 13.0066 5.73495 12.9053C5.49633 12.804 5.28065 12.6556 5.10087 12.4688V12.8693H3.41947V5.95479C3.52338 5.9718 5.09709 5.95479 5.09709 5.95479V8.59969C5.49194 7.92335 6.63113 7.93469 6.63113 7.93469C9.11544 8.16517 8.80372 10.7685 8.80372 10.7685ZM11.7566 8.14628V12.8825H10.1148V8.1954C10.1148 7.55684 9.32326 7.37926 9.32326 7.37926V5.7262C11.9455 5.83388 11.7566 8.14628 11.7566 8.14628ZM15.6464 13.0582C14.1351 13.0582 12.8958 11.9247 12.8958 10.5248C12.8958 9.12489 14.1275 7.99325 15.6464 7.99325C17.1654 7.99325 18.3971 9.12678 18.3971 10.5248C18.3971 11.9228 17.1654 13.062 15.6464 13.062V13.0582ZM24.6372 13.0582C24.6372 13.0582 24.6618 15.4651 22.2171 15.4651H21.4728V13.9084H21.9149C21.9149 13.9084 22.9426 14.0028 22.9294 12.4216C22.9294 12.4216 22.7291 13.062 21.2895 13.062C21.2895 13.062 19.2454 12.9146 19.2454 10.9215V10.1658C19.2454 10.1658 19.3002 8.10094 21.537 7.93469C21.8091 7.91625 22.0816 7.96482 22.3306 8.07615C22.5796 8.18747 22.7975 8.35815 22.9653 8.57324V8.06504H24.6296L24.6372 13.0582Z" fill="#434343"/>
<path d="M22.0282 11.5432C22.5885 11.5432 23.0427 11.089 23.0427 10.5287C23.0427 9.96837 22.5885 9.51416 22.0282 9.51416C21.4679 9.51416 21.0137 9.96837 21.0137 10.5287C21.0137 11.089 21.4679 11.5432 22.0282 11.5432Z" fill="#434343"/>
</svg>
