<svg width="40" height="40" viewBox="0 0 40 40" fill="none" xmlns="http://www.w3.org/2000/svg">
<path d="M20.2401 3.33334H19.9805C16.0074 3.33334 12.1971 4.91165 9.3877 7.72104C6.5783 10.5304 5 14.3408 5 18.3139L5 18.7128C5.00368 21.4093 5.73466 24.0549 7.1159 26.3708C8.49715 28.6867 10.4775 30.5871 12.8483 31.8718C12.6557 32.6435 12.311 33.369 11.8342 34.0057C11.1998 34.8564 10.3924 35.8512 10.032 36.2405C9.6715 36.6298 9.99832 36.8125 11.0989 36.5289C12.885 35.999 14.6065 35.272 16.2318 34.3614C17.0104 33.9144 17.4622 33.6549 17.7794 33.4915C18.5074 33.6083 19.2432 33.6694 19.9805 33.6741H20.2401C24.2094 33.6728 28.0161 32.0968 30.8247 29.2918C33.6333 26.4868 35.2142 22.6821 35.2206 18.7128V18.3331C35.2231 16.3642 34.8375 14.4141 34.0858 12.5944C33.3341 10.7747 32.231 9.12094 30.8397 7.72784C29.4484 6.33473 27.7961 5.22955 25.9773 4.47551C24.1585 3.72146 22.209 3.33334 20.2401 3.33334V3.33334ZM12.2091 18.064H15.4196V21.2456H12.2091C11.7419 21.2599 11.2849 21.1065 10.9211 20.813C10.7611 20.665 10.6334 20.4855 10.5461 20.2857C10.4588 20.086 10.4137 19.8704 10.4137 19.6524C10.4137 19.4344 10.4588 19.2187 10.5461 19.019C10.6334 18.8193 10.7611 18.6397 10.9211 18.4917C11.2841 18.1973 11.742 18.0452 12.2091 18.064ZM27.281 19.5058C26.3197 20.6881 24.8779 21.2888 23.042 21.2888H20.8841V18.0784H22.0808C22.4521 18.1043 22.8247 18.0542 23.1759 17.931C23.5272 17.8079 23.8496 17.6144 24.1234 17.3623C24.3535 17.1165 24.5318 16.8268 24.6474 16.5105C24.763 16.1942 24.8136 15.8578 24.7962 15.5215C24.7908 15.2033 24.7212 14.8894 24.5915 14.5987C24.4618 14.308 24.2748 14.0465 24.0417 13.8298C23.5607 13.4106 22.9397 13.1876 22.3019 13.205H19.9613V25.0808C19.9812 25.6141 19.8109 26.1371 19.4807 26.5563C19.3196 26.752 19.1148 26.9071 18.8827 27.009C18.6505 27.1108 18.3977 27.1566 18.1446 27.1426C17.8886 27.1538 17.6334 27.1064 17.3985 27.004C17.1636 26.9015 16.9553 26.7468 16.7893 26.5515C16.4445 26.1406 16.2631 25.617 16.2799 25.0808V12.2726C16.2612 11.9684 16.3049 11.6636 16.4082 11.3768C16.5115 11.0901 16.6723 10.8274 16.8806 10.6049C17.1034 10.3971 17.3661 10.2366 17.6528 10.1333C17.9395 10.0301 18.2441 9.98613 18.5483 10.0042H22.5422C24.431 10.0042 25.8728 10.4848 26.8196 11.4075C27.1835 11.7548 27.4974 12.1511 27.752 12.585C28.0217 13.036 28.2302 13.5209 28.3719 14.0269C28.5101 14.5148 28.5813 15.0192 28.5834 15.5264C28.6414 16.9557 28.1863 18.3587 27.3002 19.4818L27.281 19.5058Z" fill="#2A1C0B"/>
</svg>
