<svg width="20" height="20" viewBox="0 0 20 20" fill="none" xmlns="http://www.w3.org/2000/svg">
<path d="M3.33325 18.3335C3.33325 16.5654 4.03563 14.8697 5.28587 13.6195C6.53612 12.3692 8.23181 11.6668 9.99992 11.6668C11.768 11.6668 13.4637 12.3692 14.714 13.6195C15.9642 14.8697 16.6666 16.5654 16.6666 18.3335H14.9999C14.9999 17.0074 14.4731 15.7356 13.5355 14.798C12.5978 13.8603 11.326 13.3335 9.99992 13.3335C8.67384 13.3335 7.40207 13.8603 6.46438 14.798C5.5267 15.7356 4.99992 17.0074 4.99992 18.3335H3.33325ZM9.99992 10.8335C7.23742 10.8335 4.99992 8.596 4.99992 5.8335C4.99992 3.071 7.23742 0.833496 9.99992 0.833496C12.7624 0.833496 14.9999 3.071 14.9999 5.8335C14.9999 8.596 12.7624 10.8335 9.99992 10.8335ZM9.99992 9.16683C11.8416 9.16683 13.3333 7.67516 13.3333 5.8335C13.3333 3.99183 11.8416 2.50016 9.99992 2.50016C8.15825 2.50016 6.66658 3.99183 6.66658 5.8335C6.66658 7.67516 8.15825 9.16683 9.99992 9.16683Z" fill="#52504F"/>
</svg>
