<svg width="50" height="50" viewBox="0 0 50 50" fill="none" xmlns="http://www.w3.org/2000/svg">
    <path d="M6.25 25h1-1zM25 43.75v-1 1zM43.75 25h-1 1zM25 6.25v-1 1zm-5.543 18.043a1 1 0 0 0-1.414 1.414l1.414-1.414zm3.46 4.874-.707.707a1 1 0 0 0 1.414 0l-.707-.707zm9.04-7.627a1 1 0 0 0-1.414-1.414l1.414 1.414zM5.25 25c0 2.594.51 5.162 1.503 7.558l1.848-.765A17.75 17.75 0 0 1 7.25 25h-2zm1.503 7.558a19.75 19.75 0 0 0 4.282 6.407l1.414-1.414A17.748 17.748 0 0 1 8.6 31.793l-1.848.765zm4.282 6.407a19.75 19.75 0 0 0 6.407 4.282l.765-1.848a17.75 17.75 0 0 1-5.758-3.848l-1.414 1.414zm6.407 4.282A19.749 19.749 0 0 0 25 44.75v-2c-2.331 0-4.64-.46-6.793-1.351l-.765 1.848zM25 44.75c2.594 0 5.162-.51 7.558-1.503l-.765-1.848A17.75 17.75 0 0 1 25 42.75v2zm7.558-1.503a19.75 19.75 0 0 0 6.407-4.282l-1.414-1.414a17.75 17.75 0 0 1-5.758 3.848l.765 1.848zm6.407-4.282a19.75 19.75 0 0 0 4.282-6.407l-1.848-.765a17.75 17.75 0 0 1-3.848 5.758l1.414 1.414zm4.282-6.407A19.749 19.749 0 0 0 44.75 25h-2c0 2.331-.46 4.64-1.351 6.793l1.848.765zM44.75 25c0-2.594-.51-5.162-1.503-7.558l-1.848.765A17.75 17.75 0 0 1 42.75 25h2zm-1.503-7.558a19.75 19.75 0 0 0-4.282-6.407l-1.414 1.414a17.75 17.75 0 0 1 3.848 5.758l1.848-.765zm-4.282-6.407a19.75 19.75 0 0 0-6.407-4.282l-.765 1.848c2.153.892 4.11 2.2 5.758 3.848l1.414-1.414zm-6.407-4.282A19.75 19.75 0 0 0 25 5.25v2c2.331 0 4.64.46 6.793 1.351l.765-1.848zM25 5.25c-2.594 0-5.162.51-7.558 1.503l.765 1.848A17.75 17.75 0 0 1 25 7.25v-2zm-7.558 1.503a19.75 19.75 0 0 0-6.407 4.282l1.414 1.414A17.748 17.748 0 0 1 18.207 8.6l-.765-1.848zm-6.407 4.282a19.75 19.75 0 0 0-4.282 6.407l1.848.765c.892-2.153 2.2-4.11 3.848-5.758l-1.414-1.414zm-4.282 6.407A19.75 19.75 0 0 0 5.25 25h2c0-2.331.46-4.64 1.351-6.793l-1.848-.765zm11.29 8.265 4.167 4.167 1.414-1.414-4.167-4.167-1.414 1.414zm5.58 4.167 8.334-8.334-1.414-1.414-8.333 8.334 1.414 1.414z" fill="#222"/>
</svg>
