<svg width="12" height="13" viewBox="0 0 12 13" fill="none" xmlns="http://www.w3.org/2000/svg">
    <path d="M11.858 5.546 9.657 7.792a1.133 1.133 0 0 0-.301.968l.519 3.172c.065.397-.332.698-.672.511l-2.72-1.498a1.004 1.004 0 0 0-.971 0l-2.72 1.498c-.34.187-.737-.116-.672-.511l.52-3.172a1.121 1.121 0 0 0-.302-.968L.14 5.546c-.274-.281-.123-.77.258-.826l3.04-.464c.34-.051.634-.276.786-.598L5.584.77a.454.454 0 0 1 .83 0l1.36 2.885c.154.324.446.547.788.598l3.04.464c.381.058.532.547.258.826l-.002.002z" fill="#FC76FF"/>
</svg>
