<svg xmlns="http://www.w3.org/2000/svg"><symbol id="article-line" viewBox="0 0 24 24"><path d="M20 22H4a1 1 0 0 1-1-1V3a1 1 0 0 1 1-1h16a1 1 0 0 1 1 1v18a1 1 0 0 1-1 1zm-1-2V4H5v16h14zM7 6h4v4H7V6zm0 6h10v2H7v-2zm0 4h10v2H7v-2zm6-9h4v2h-4V7z"/></symbol><symbol id="folder-line" viewBox="0 0 24 24"><path d="M4 5v14h16V7h-8.414l-2-2H4zm8.414 0H21a1 1 0 0 1 1 1v14a1 1 0 0 1-1 1H3a1 1 0 0 1-1-1V4a1 1 0 0 1 1-1h7.414l2 2z"/></symbol><symbol id="arrow-up-s-line" viewBox="0 0 24 24"><path d="M12 10.828l-4.95 4.95-1.414-1.414L12 8l6.364 6.364-1.414 1.414-4.95-4.95z"/></symbol><symbol id="arrow-down-s-line" viewBox="0 0 24 24"><path d="M12 13.171l4.95-4.95 1.414 1.415L12 16 5.636 9.636 7.05 8.222l4.95 4.95z"/></symbol><symbol id="expand-up-down-line" viewBox="0 0 24 24"><path d="M18.207 9.043L12 2.836 5.793 9.043l1.414 1.414L12 5.664l4.793 4.793 1.414-1.414zM5.793 14.957L12 21.164l6.207-6.207-1.414-1.414L12 18.336l-4.793-4.793-1.414 1.414z"/></symbol><symbol id="contract-up-down-line" viewBox="0 0 24 24"><path d="M5.793 5.207L12 11.414l6.207-6.207-1.414-1.414L12 8.586 7.207 3.793 5.793 5.207zm12.414 13.586L12 12.586l-6.207 6.207 1.414 1.414L12 15.414l4.793 4.793 1.414-1.414z"/></symbol><symbol id="contract-up-down-line2" viewBox="0 0 24 24"><path d="M5.793 5.207L12 11.414l6.207-6.207-1.414-1.414L12 8.586 7.207 3.793 5.793 5.207zm12.414 13.586L12 12.586l-6.207 6.207 1.414 1.414L12 15.414l4.793 4.793 1.414-1.414z"/></symbol><symbol id="arrow-right-s-fill" viewBox="0 0 24 24"><path d="M16 12l-6 6V6l6 6z"/></symbol><symbol id="arrow-down-s-line" viewBox="0 0 24 24"><path d="M12 13.171l4.95-4.95 1.414 1.415L12 16 5.636 9.636 7.05 8.222l4.95 4.95z"/></symbol></svg>