<svg width="20" height="20" viewBox="0 0 20 20" fill="none" xmlns="http://www.w3.org/2000/svg">
<path fill-rule="evenodd" clip-rule="evenodd" d="M15.3031 3.33301C14.8864 3.33301 14.5455 3.70801 14.5455 4.16634V16.6663C14.5455 17.1247 14.8864 17.4997 15.3031 17.4997C15.7198 17.4997 16.0607 17.1247 16.0607 16.6663V4.16634C16.0607 3.70801 15.7198 3.33301 15.3031 3.33301ZM10.0001 6.66634C9.58339 6.66634 9.24248 7.04134 9.24248 7.49968V16.6663C9.24248 17.1247 9.58339 17.4997 10.0001 17.4997C10.4167 17.4997 10.7576 17.1247 10.7576 16.6663V7.49968C10.7576 7.04134 10.4167 6.66634 10.0001 6.66634ZM3.93945 10.833C3.93945 10.3747 4.28036 9.99967 4.69703 9.99967C5.1137 9.99967 5.4546 10.3747 5.4546 10.833V16.6663C5.4546 17.1247 5.1137 17.4997 4.69703 17.4997C4.28036 17.4997 3.93945 17.1247 3.93945 16.6663V10.833Z" fill="black"/>
<mask id="mask0_543_37331" style="mask-type:alpha" maskUnits="userSpaceOnUse" x="3" y="3" width="14" height="15">
<path fill-rule="evenodd" clip-rule="evenodd" d="M15.3031 3.33301C14.8864 3.33301 14.5455 3.70801 14.5455 4.16634V16.6663C14.5455 17.1247 14.8864 17.4997 15.3031 17.4997C15.7198 17.4997 16.0607 17.1247 16.0607 16.6663V4.16634C16.0607 3.70801 15.7198 3.33301 15.3031 3.33301ZM10.0001 6.66634C9.58339 6.66634 9.24248 7.04134 9.24248 7.49968V16.6663C9.24248 17.1247 9.58339 17.4997 10.0001 17.4997C10.4167 17.4997 10.7576 17.1247 10.7576 16.6663V7.49968C10.7576 7.04134 10.4167 6.66634 10.0001 6.66634ZM3.93945 10.833C3.93945 10.3747 4.28036 9.99967 4.69703 9.99967C5.1137 9.99967 5.4546 10.3747 5.4546 10.833V16.6663C5.4546 17.1247 5.1137 17.4997 4.69703 17.4997C4.28036 17.4997 3.93945 17.1247 3.93945 16.6663V10.833Z" fill="white"/>
</mask>
<g mask="url(#mask0_543_37331)">
<rect x="0.90918" width="18.1818" height="20" fill="black"/>
</g>
</svg>
