<svg width="20" height="20" viewBox="0 0 20 20" fill="none" xmlns="http://www.w3.org/2000/svg">
<path fill-rule="evenodd" clip-rule="evenodd" d="M6.89551 3.57812H17.4372H6.89551Z" fill="black"/>
<path d="M6.89551 3.57812H17.4372" stroke="black" stroke-width="2" stroke-linecap="round" stroke-linejoin="round"/>
<path fill-rule="evenodd" clip-rule="evenodd" d="M6.89551 10H17.4372H6.89551Z" fill="black"/>
<path d="M6.89551 10H17.4372" stroke="black" stroke-width="2" stroke-linecap="round" stroke-linejoin="round"/>
<path fill-rule="evenodd" clip-rule="evenodd" d="M6.89551 16.4219H17.4372H6.89551Z" fill="black"/>
<path d="M6.89551 16.4219H17.4372" stroke="black" stroke-width="2" stroke-linecap="round" stroke-linejoin="round"/>
<mask id="path-7-inside-1_543_37321" fill="white">
<ellipse cx="2.54625" cy="16.2671" rx="0.810896" ry="0.85107"/>
</mask>
<ellipse cx="2.54625" cy="16.2671" rx="0.810896" ry="0.85107" fill="black"/>
<path d="M2.35714 16.2671C2.35714 16.2417 2.36767 16.2084 2.39565 16.1791C2.42443 16.1489 2.478 16.1182 2.54625 16.1182V18.1182C3.59139 18.1182 4.35714 17.2433 4.35714 16.2671H2.35714ZM2.54625 16.1182C2.6145 16.1182 2.66806 16.1489 2.69685 16.1791C2.72482 16.2084 2.73535 16.2417 2.73535 16.2671H0.735352C0.735352 17.2433 1.5011 18.1182 2.54625 18.1182V16.1182ZM2.73535 16.2671C2.73535 16.2925 2.72482 16.3257 2.69685 16.3551C2.66806 16.3853 2.6145 16.416 2.54625 16.416V14.416C1.5011 14.416 0.735352 15.2909 0.735352 16.2671H2.73535ZM2.54625 16.416C2.478 16.416 2.42443 16.3853 2.39565 16.3551C2.36767 16.3257 2.35714 16.2925 2.35714 16.2671H4.35714C4.35714 15.2909 3.59139 14.416 2.54625 14.416V16.416Z" fill="black" mask="url(#path-7-inside-1_543_37321)"/>
<mask id="path-9-inside-2_543_37321" fill="white">
<ellipse cx="2.54625" cy="9.92334" rx="0.810896" ry="0.85107"/>
</mask>
<ellipse cx="2.54625" cy="9.92334" rx="0.810896" ry="0.85107" fill="black"/>
<path d="M2.35714 9.92334C2.35714 9.89796 2.36767 9.86469 2.39565 9.83532C2.42443 9.80511 2.478 9.77441 2.54625 9.77441V11.7744C3.59139 11.7744 4.35714 10.8995 4.35714 9.92334H2.35714ZM2.54625 9.77441C2.6145 9.77441 2.66806 9.80511 2.69685 9.83532C2.72482 9.86469 2.73535 9.89796 2.73535 9.92334H0.735352C0.735352 10.8995 1.5011 11.7744 2.54625 11.7744V9.77441ZM2.73535 9.92334C2.73535 9.94871 2.72482 9.98199 2.69685 10.0114C2.66806 10.0416 2.6145 10.0723 2.54625 10.0723V8.07227C1.5011 8.07227 0.735352 8.94714 0.735352 9.92334H2.73535ZM2.54625 10.0723C2.478 10.0723 2.42443 10.0416 2.39565 10.0114C2.36767 9.98199 2.35714 9.94871 2.35714 9.92334H4.35714C4.35714 8.94714 3.59139 8.07227 2.54625 8.07227V10.0723Z" fill="black" mask="url(#path-9-inside-2_543_37321)"/>
<mask id="path-11-inside-3_543_37321" fill="white">
<ellipse cx="2.54625" cy="3.57861" rx="0.810896" ry="0.85107"/>
</mask>
<ellipse cx="2.54625" cy="3.57861" rx="0.810896" ry="0.85107" fill="black"/>
<path d="M2.35714 3.57861C2.35714 3.55323 2.36767 3.51996 2.39565 3.49059C2.42443 3.46039 2.478 3.42968 2.54625 3.42968V5.42968C3.59139 5.42968 4.35714 4.55481 4.35714 3.57861H2.35714ZM2.54625 3.42968C2.6145 3.42968 2.66806 3.46039 2.69685 3.49059C2.72482 3.51996 2.73535 3.55323 2.73535 3.57861H0.735352C0.735352 4.55481 1.5011 5.42968 2.54625 5.42968V3.42968ZM2.73535 3.57861C2.73535 3.60399 2.72482 3.63726 2.69685 3.66662C2.66806 3.69683 2.6145 3.72754 2.54625 3.72754V1.72754C1.5011 1.72754 0.735352 2.60241 0.735352 3.57861H2.73535ZM2.54625 3.72754C2.478 3.72754 2.42443 3.69683 2.39565 3.66662C2.36767 3.63726 2.35714 3.60399 2.35714 3.57861H4.35714C4.35714 2.60241 3.59139 1.72754 2.54625 1.72754V3.72754Z" fill="black" mask="url(#path-11-inside-3_543_37321)"/>
</svg>
