<svg width="20" height="20" viewBox="0 0 20 20" fill="none" xmlns="http://www.w3.org/2000/svg">
    <path fill-rule="evenodd" clip-rule="evenodd" d="M15.303 3.333c-.417 0-.758.375-.758.833v12.5c0 .459.341.834.758.834s.758-.375.758-.834v-12.5c0-.458-.341-.833-.758-.833zM10 6.666c-.417 0-.758.375-.758.834v9.166c0 .459.341.834.758.834s.758-.375.758-.834V7.5c0-.459-.341-.834-.758-.834zm-6.06 4.167c0-.458.34-.833.757-.833s.758.375.758.833v5.833c0 .459-.341.834-.758.834s-.758-.375-.758-.834v-5.833z" fill="#fff"/>
    <mask id="tshq6nx7ha" style="mask-type:alpha" maskUnits="userSpaceOnUse" x="3" y="3" width="14" height="15">
        <path fill-rule="evenodd" clip-rule="evenodd" d="M15.303 3.333c-.417 0-.758.375-.758.833v12.5c0 .459.341.834.758.834s.758-.375.758-.834v-12.5c0-.458-.341-.833-.758-.833zM10 6.666c-.417 0-.758.375-.758.834v9.166c0 .459.341.834.758.834s.758-.375.758-.834V7.5c0-.459-.341-.834-.758-.834zm-6.06 4.167c0-.458.34-.833.757-.833s.758.375.758.833v5.833c0 .459-.341.834-.758.834s-.758-.375-.758-.834v-5.833z" fill="#fff"/>
    </mask>
    <g mask="url(#tshq6nx7ha)">
        <path fill="#fff" d="M.909 0h18.182v20H.909z"/>
    </g>
</svg>
