<svg width="15" height="14" viewBox="0 0 15 14" fill="none" xmlns="http://www.w3.org/2000/svg">
<path d="M9.13862 5.99885C9.37293 5.76453 9.37293 5.38464 9.13862 5.15032C8.9043 4.91601 8.52441 4.91601 8.29009 5.15032L9.13862 5.99885ZM5.81522 7.6252C5.5809 7.85951 5.5809 8.23941 5.81522 8.47372C6.04953 8.70804 6.42943 8.70804 6.66375 8.47372L5.81522 7.6252ZM8.29009 5.15032L5.81522 7.6252L6.66375 8.47372L9.13862 5.99885L8.29009 5.15032Z" fill="#464CC2"/>
<path d="M11.6018 7.63693L11.0249 7.4721L11.6018 7.63693ZM6.65208 2.68718L6.48725 2.11027L6.65208 2.68718ZM6.06815 8.31814L6.50832 7.9104L6.06815 8.31814ZM5.97087 8.22086L5.56313 8.66103L5.97087 8.22086ZM3.02892 5.30445L2.43308 5.37494L3.02892 5.30445ZM3.21919 4.26307L3.75161 4.5397L3.21919 4.26307ZM8.98456 11.2601L9.05506 10.6642L8.98456 11.2601ZM10.0259 11.0698L9.74931 10.5374L10.0259 11.0698ZM12.431 2.39127L11.9273 2.71724L12.431 2.39127ZM11.8977 1.85801L11.5718 2.36174L11.8977 1.85801ZM11.4182 6.06912C11.2753 6.58562 11.1408 7.06661 11.0249 7.4721L12.1787 7.80176C12.2959 7.39177 12.4314 6.90721 12.5747 6.38899L11.4182 6.06912ZM11.0249 7.4721C11.0135 7.51193 11.002 7.55212 10.9902 7.59266L12.1428 7.92668C12.1549 7.88474 12.1669 7.8431 12.1787 7.80176L11.0249 7.4721ZM6.69635 3.29879C6.73689 3.28705 6.77709 3.27548 6.81691 3.2641L6.48725 2.11027C6.44592 2.12208 6.40427 2.13406 6.36233 2.14622L6.69635 3.29879ZM6.81691 3.2641C7.2224 3.14825 7.70339 3.01369 8.21989 2.87085L7.90002 1.71427C7.3818 1.85759 6.89724 1.99313 6.48725 2.11027L6.81691 3.2641ZM6.78037 8.25166C6.67491 8.11105 6.59775 8.00694 6.50832 7.9104L5.62798 8.72588C5.66548 8.76636 5.70082 8.81226 5.82037 8.97166L6.78037 8.25166ZM5.31735 8.46864C5.47675 8.58819 5.52265 8.62353 5.56313 8.66103L6.37861 7.7807C6.28207 7.69127 6.17796 7.6141 6.03735 7.50864L5.31735 8.46864ZM6.50832 7.9104C6.46675 7.86553 6.42348 7.82226 6.37861 7.7807L5.56313 8.66103C5.58557 8.68181 5.6072 8.70345 5.62798 8.72588L6.50832 7.9104ZM6.03735 7.50864C5.17246 6.85997 4.56701 6.40467 4.16075 6.01899C3.75318 5.63207 3.64487 5.40393 3.62477 5.23395L2.43308 5.37494C2.50357 5.97079 2.86687 6.44529 3.33456 6.88928C3.80356 7.33452 4.47702 7.8384 5.31735 8.46864L6.03735 7.50864ZM6.36233 2.14622C5.39262 2.42725 4.61223 2.65232 4.03419 2.89807C3.45379 3.14482 2.96121 3.45822 2.68676 3.98644L3.75161 4.5397C3.83271 4.38361 4.01034 4.21215 4.50369 4.00241C4.99941 3.79166 5.69633 3.5886 6.69635 3.29879L6.36233 2.14622ZM3.62477 5.23395C3.59783 5.0063 3.64592 4.74313 3.75161 4.5397L2.68676 3.98644C2.47016 4.40333 2.37788 4.90838 2.43308 5.37494L3.62477 5.23395ZM5.82037 8.97166C6.45062 9.81199 6.9545 10.4855 7.39973 10.9545C7.84373 11.4221 8.31822 11.7854 8.91407 11.8559L9.05506 10.6642C8.88508 10.6441 8.65694 10.5358 8.27002 10.1283C7.88435 9.722 7.42904 9.11656 6.78037 8.25166L5.82037 8.97166ZM10.9902 7.59266C10.7004 8.59268 10.4974 9.2896 10.2866 9.78532C10.0769 10.2787 9.9054 10.4563 9.74931 10.5374L10.3026 11.6022C10.8308 11.3278 11.1442 10.8352 11.3909 10.2548C11.6367 9.67678 11.8618 8.8964 12.1428 7.92668L10.9902 7.59266ZM8.91407 11.8559C9.38063 11.9111 9.88568 11.8189 10.3026 11.6022L9.74931 10.5374C9.54588 10.6431 9.28271 10.6912 9.05506 10.6642L8.91407 11.8559ZM12.5747 6.38899C12.8616 5.35161 13.0929 4.51952 13.1903 3.86293C13.2879 3.20535 13.2746 2.59049 12.9347 2.06529L11.9273 2.71724C12.0266 2.87068 12.0872 3.12166 12.0033 3.68679C11.9193 4.25291 11.7137 5.0004 11.4182 6.06912L12.5747 6.38899ZM8.21989 2.87085C9.28861 2.57528 10.0361 2.36968 10.6022 2.28567C11.1674 2.20181 11.4183 2.26245 11.5718 2.36174L12.2237 1.35429C11.6985 1.01442 11.0837 1.00109 10.4261 1.09867C9.76949 1.19611 8.9374 1.42736 7.90002 1.71427L8.21989 2.87085ZM12.9347 2.06529C12.7518 1.78269 12.5063 1.53717 12.2237 1.35429L11.5718 2.36174C11.7121 2.45255 11.8365 2.57692 11.9273 2.71724L12.9347 2.06529Z" fill="#464CC2"/>
</svg>
