<svg width="14" height="14" viewBox="0 0 14 14" fill="none" xmlns="http://www.w3.org/2000/svg">
<path d="M8.63862 5.99885C8.87293 5.76453 8.87293 5.38464 8.63862 5.15032C8.4043 4.91601 8.02441 4.91601 7.79009 5.15032L8.63862 5.99885ZM5.31522 7.6252C5.0809 7.85951 5.0809 8.23941 5.31522 8.47372C5.54953 8.70804 5.92943 8.70804 6.16375 8.47372L5.31522 7.6252ZM7.79009 5.15032L5.31522 7.6252L6.16375 8.47372L8.63862 5.99885L7.79009 5.15032Z" fill="white"/>
<path d="M11.1018 7.63693L10.5249 7.4721L11.1018 7.63693ZM6.15208 2.68718L5.98725 2.11027L6.15208 2.68718ZM5.56815 8.31814L6.00832 7.9104L5.56815 8.31814ZM5.47087 8.22086L5.06313 8.66103L5.47087 8.22086ZM2.52892 5.30445L1.93308 5.37494L2.52892 5.30445ZM2.71919 4.26307L3.25161 4.5397L2.71919 4.26307ZM8.48456 11.2601L8.55506 10.6642L8.48456 11.2601ZM9.52594 11.0698L9.24931 10.5374L9.52594 11.0698ZM11.931 2.39127L11.4273 2.71724L11.931 2.39127ZM11.3977 1.85801L11.0718 2.36174L11.3977 1.85801ZM10.9182 6.06912C10.7753 6.58562 10.6408 7.06661 10.5249 7.4721L11.6787 7.80176C11.7959 7.39177 11.9314 6.90721 12.0747 6.38899L10.9182 6.06912ZM10.5249 7.4721C10.5135 7.51193 10.502 7.55212 10.4902 7.59266L11.6428 7.92668C11.6549 7.88474 11.6669 7.8431 11.6787 7.80176L10.5249 7.4721ZM6.19635 3.29879C6.23689 3.28705 6.27709 3.27548 6.31691 3.2641L5.98725 2.11027C5.94592 2.12208 5.90427 2.13406 5.86233 2.14622L6.19635 3.29879ZM6.31691 3.2641C6.7224 3.14825 7.20339 3.01369 7.71989 2.87085L7.40002 1.71427C6.8818 1.85759 6.39724 1.99313 5.98725 2.11027L6.31691 3.2641ZM6.28037 8.25166C6.17491 8.11105 6.09775 8.00694 6.00832 7.9104L5.12798 8.72588C5.16548 8.76636 5.20082 8.81226 5.32037 8.97166L6.28037 8.25166ZM4.81735 8.46864C4.97675 8.58819 5.02265 8.62353 5.06313 8.66103L5.87861 7.7807C5.78207 7.69127 5.67796 7.6141 5.53735 7.50864L4.81735 8.46864ZM6.00832 7.9104C5.96675 7.86553 5.92348 7.82226 5.87861 7.7807L5.06313 8.66103C5.08557 8.68181 5.1072 8.70345 5.12798 8.72588L6.00832 7.9104ZM5.53735 7.50864C4.67246 6.85997 4.06701 6.40467 3.66075 6.01899C3.25318 5.63207 3.14487 5.40393 3.12477 5.23395L1.93308 5.37494C2.00357 5.97079 2.36687 6.44529 2.83456 6.88928C3.30356 7.33452 3.97702 7.8384 4.81735 8.46864L5.53735 7.50864ZM5.86233 2.14622C4.89262 2.42725 4.11223 2.65232 3.53419 2.89807C2.95379 3.14482 2.46121 3.45822 2.18676 3.98644L3.25161 4.5397C3.33271 4.38361 3.51034 4.21215 4.00369 4.00241C4.49941 3.79166 5.19633 3.5886 6.19635 3.29879L5.86233 2.14622ZM3.12477 5.23395C3.09783 5.0063 3.14592 4.74313 3.25161 4.5397L2.18676 3.98644C1.97016 4.40333 1.87788 4.90838 1.93308 5.37494L3.12477 5.23395ZM5.32037 8.97166C5.95062 9.81199 6.4545 10.4855 6.89973 10.9545C7.34373 11.4221 7.81822 11.7854 8.41407 11.8559L8.55506 10.6642C8.38508 10.6441 8.15694 10.5358 7.77002 10.1283C7.38435 9.722 6.92904 9.11656 6.28037 8.25166L5.32037 8.97166ZM10.4902 7.59266C10.2004 8.59268 9.99735 9.2896 9.7866 9.78532C9.57686 10.2787 9.4054 10.4563 9.24931 10.5374L9.80257 11.6022C10.3308 11.3278 10.6442 10.8352 10.8909 10.2548C11.1367 9.67678 11.3618 8.8964 11.6428 7.92668L10.4902 7.59266ZM8.41407 11.8559C8.88063 11.9111 9.38568 11.8189 9.80257 11.6022L9.24931 10.5374C9.04588 10.6431 8.78271 10.6912 8.55506 10.6642L8.41407 11.8559ZM12.0747 6.38899C12.3616 5.35161 12.5929 4.51952 12.6903 3.86293C12.7879 3.20535 12.7746 2.59049 12.4347 2.06529L11.4273 2.71724C11.5266 2.87068 11.5872 3.12166 11.5033 3.68679C11.4193 4.25291 11.2137 5.0004 10.9182 6.06912L12.0747 6.38899ZM7.71989 2.87085C8.78861 2.57528 9.5361 2.36968 10.1022 2.28567C10.6674 2.20181 10.9183 2.26245 11.0718 2.36174L11.7237 1.35429C11.1985 1.01442 10.5837 1.00109 9.92608 1.09867C9.26949 1.19611 8.4374 1.42736 7.40002 1.71427L7.71989 2.87085ZM12.4347 2.06529C12.2518 1.78269 12.0063 1.53717 11.7237 1.35429L11.0718 2.36174C11.2121 2.45255 11.3365 2.57692 11.4273 2.71724L12.4347 2.06529Z" fill="white"/>
</svg>
