<svg width="14" height="14" viewBox="0 0 14 14" fill="none" xmlns="http://www.w3.org/2000/svg">
    <path fill-rule="evenodd" clip-rule="evenodd" d="M5.853 11.084c.036-.003.045-.002.08-.008a.585.585 0 0 0 .313-.163l3.5-3.5c.024-.026.031-.032.052-.06a.584.584 0 0 0 0-.705c-.021-.028-.028-.034-.052-.06l-3.5-3.5c-.026-.024-.032-.031-.06-.052a.585.585 0 0 0-.933.405.585.585 0 0 0 .116.412c.021.028.028.034.052.06L8.509 7 5.42 10.088l-.027.03c-.023.027-.029.033-.048.063a.584.584 0 0 0 .388.895c.035.005.044.005.08.008h.04z" fill="#ADB5BD"/>
</svg>
