<svg width="13" height="12" viewBox="0 0 13 12" fill="none" xmlns="http://www.w3.org/2000/svg">
<path d="M12.7593 0.24454C11.3274 0.232473 9.89745 0.24454 8.4675 0.24454C8.45544 2.14912 8.47555 4.06576 8.45544 5.97034C7.12605 4.08386 5.86103 2.13705 4.50952 0.270685C3.07555 0.204316 1.63354 0.250573 0.195557 0.248562C0.203601 4.08454 0.203601 7.92118 0.195557 11.7585C1.63153 11.7665 3.06818 11.7665 4.5055 11.7585C4.52762 9.85794 4.47935 7.95336 4.53164 6.05079C5.00226 6.71045 5.43265 7.39827 5.91533 8.04989C6.7198 9.29883 7.62884 10.4794 8.40315 11.7464C9.84918 11.7846 11.2952 11.7464 12.7433 11.7685C12.7593 11.5896 12.7754 11.4106 12.7754 11.2296C12.7573 7.56721 12.7955 3.90487 12.7593 0.24454Z" fill="white"/>
</svg>
