<svg width="40" height="41" viewBox="0 0 40 41" fill="none" xmlns="http://www.w3.org/2000/svg">
<path d="M31.8686 24.469L31.8679 24.4697C30.9379 25.4263 30.5177 26.7901 30.7315 28.1235L30.7317 28.125L32.4581 38.6953L32.4581 38.6954C32.6164 39.6631 31.675 40.2769 30.9582 39.881L30.958 39.8809L21.9097 34.8885C21.3325 34.5693 20.6918 34.4057 20.0495 34.4057C19.4095 34.4057 18.7736 34.5625 18.1885 34.8889C18.1882 34.8891 18.1879 34.8893 18.1876 34.8894L9.14105 39.8809L9.14083 39.881C8.42512 40.2763 7.48265 39.6587 7.64084 38.6957L7.64092 38.6953L9.36733 28.125L9.36756 28.1235C9.5812 26.7911 9.16187 25.4206 8.22999 24.4685L0.913554 16.9828C0.258291 16.3114 0.65716 15.1943 1.48401 15.0719L1.4863 15.0716L11.6002 13.5268C11.6003 13.5268 11.6004 13.5268 11.6006 13.5267C12.9063 13.3299 14.0161 12.4671 14.5915 11.2528L14.5921 11.2516L19.1165 1.6355L19.117 1.63436C19.3131 1.21488 19.6841 1.01953 20.0441 1.01953C20.4041 1.01953 20.7751 1.21488 20.9712 1.63436L20.9717 1.6355L25.4954 11.2501C25.4955 11.2503 25.4956 11.2505 25.4957 11.2507C26.0669 12.475 27.1846 13.3303 28.4877 13.5268C28.4878 13.5268 28.4879 13.5268 28.488 13.5268L38.6019 15.0716L38.6021 15.0716C39.4349 15.1986 39.8265 16.319 39.1757 16.9818L39.1747 16.9828L31.8686 24.469Z" stroke="#DDDDDD"/>
<path d="M19.9611 0.519531V34.9171C19.4037 34.9171 18.8517 35.0534 18.343 35.3374L9.29421 40.33C8.16312 40.9548 6.84261 39.9438 7.05909 38.626L8.7855 28.0557C8.97492 26.8743 8.60149 25.6645 7.78428 24.8295L0.46734 17.3434C-0.447278 16.4062 0.0560333 14.7761 1.32243 14.5887L11.4373 13.0437C12.5684 12.8733 13.5426 12.1236 14.0513 11.0501L18.5757 1.434C18.8571 0.831926 19.4091 0.530891 19.9557 0.530891L19.9611 0.519531Z" fill="#FC76FF"/>
</svg>
