<svg width="24" height="24" viewBox="0 0 24 24" fill="none" xmlns="http://www.w3.org/2000/svg">
<path d="M5.70565 9.38037C5.55873 9.38037 5.41511 9.42394 5.29295 9.50556C5.17079 9.58719 5.07558 9.7032 5.01935 9.83894C4.96313 9.97468 4.94842 10.124 4.97708 10.2681C5.00574 10.4122 5.07649 10.5446 5.18038 10.6485C5.28427 10.7524 5.41663 10.8231 5.56073 10.8518C5.70482 10.8804 5.85418 10.8657 5.98992 10.8095C6.12566 10.7533 6.24167 10.6581 6.3233 10.5359C6.40492 10.4138 6.44849 10.2701 6.44849 10.1232C6.44849 9.9262 6.37023 9.73725 6.23092 9.59794C6.09161 9.45863 5.90266 9.38037 5.70565 9.38037Z" fill="#434343"/>
<path d="M13.0395 10.9011C13.4811 10.9011 13.8391 10.5431 13.8391 10.1015C13.8391 9.65996 13.4811 9.302 13.0395 9.302C12.598 9.302 12.24 9.65996 12.24 10.1015C12.24 10.5431 12.598 10.9011 13.0395 10.9011Z" fill="#434343"/>
<path d="M19.6786 2H3.88414C3.11922 2 2.38563 2.30386 1.84475 2.84475C1.30386 3.38563 1 4.11922 1 4.88414L1 14.2576C1 15.0227 1.30382 15.7564 1.84466 16.2975C2.3855 16.8386 3.11909 17.1428 3.88414 17.1432H9.46344L11.3532 21.6133C11.3532 21.6133 11.4841 22 11.7995 22C12.1164 22 12.2473 21.6133 12.2473 21.6133L14.1371 17.1432H19.6611C20.4262 17.1428 21.1598 16.8386 21.7006 16.2975C22.2415 15.7564 22.5453 15.0227 22.5453 14.2576V4.88414C22.5453 4.12223 22.2438 3.39127 21.7067 2.85089C21.1696 2.31051 20.4405 2.00461 19.6786 2V2ZM7.77424 10.2861C7.76552 12 5.99346 12.048 5.99346 12.048C5.79399 12.0483 5.59651 12.0083 5.4129 11.9303C5.22929 11.8524 5.06333 11.7381 4.92499 11.5944V11.9026H3.6312V6.58206C3.71115 6.59514 4.92208 6.58206 4.92208 6.58206V8.61724C5.2259 8.09682 6.10249 8.10554 6.10249 8.10554C8.0141 8.28289 7.77424 10.2861 7.77424 10.2861ZM10.0464 8.26835V11.9128H8.78311V8.30615C8.78311 7.8148 8.17401 7.67815 8.17401 7.67815V6.40616C10.1917 6.48902 10.0464 8.26835 10.0464 8.26835ZM13.0395 12.048C11.8766 12.048 10.923 11.1758 10.923 10.0986C10.923 9.02137 11.8708 8.1506 13.0395 8.1506C14.2083 8.1506 15.1561 9.02282 15.1561 10.0986C15.1561 11.1743 14.2083 12.0509 13.0395 12.0509V12.048ZM19.9577 12.048C19.9577 12.048 19.9766 13.9 18.0955 13.9H17.5228V12.7021H17.8629C17.8629 12.7021 18.6537 12.7748 18.6436 11.5581C18.6436 11.5581 18.4895 12.0509 17.3817 12.0509C17.3817 12.0509 15.8088 11.9375 15.8088 10.4038V9.82236C15.8088 9.82236 15.851 8.23346 17.5722 8.10554C17.7816 8.09135 17.9913 8.12873 18.1828 8.21439C18.3744 8.30005 18.5421 8.43139 18.6712 8.59689V8.20584H19.9519L19.9577 12.048Z" fill="#434343"/>
<path d="M19.6786 2H3.88414C3.11922 2 2.38563 2.30386 1.84475 2.84475C1.30386 3.38563 1 4.11922 1 4.88414L1 14.2576C1 15.0227 1.30382 15.7564 1.84466 16.2975C2.3855 16.8386 3.11909 17.1428 3.88414 17.1432H9.46344L11.3532 21.6133C11.3532 21.6133 11.4841 22 11.7995 22C12.1164 22 12.2473 21.6133 12.2473 21.6133L14.1371 17.1432H19.6611C20.4262 17.1428 21.1598 16.8386 21.7006 16.2975C22.2415 15.7564 22.5453 15.0227 22.5453 14.2576V4.88414C22.5453 4.12223 22.2438 3.39127 21.7067 2.85089C21.1696 2.31051 20.4405 2.00461 19.6786 2V2ZM7.77424 10.2861C7.76552 12 5.99346 12.048 5.99346 12.048C5.79399 12.0483 5.59651 12.0083 5.4129 11.9303C5.22929 11.8524 5.06333 11.7381 4.92499 11.5944V11.9026H3.6312V6.58206C3.71115 6.59514 4.92208 6.58206 4.92208 6.58206V8.61724C5.2259 8.09682 6.10249 8.10554 6.10249 8.10554C8.0141 8.28289 7.77424 10.2861 7.77424 10.2861ZM10.0464 8.26835V11.9128H8.78311V8.30615C8.78311 7.8148 8.17401 7.67815 8.17401 7.67815V6.40616C10.1917 6.48902 10.0464 8.26835 10.0464 8.26835ZM13.0395 12.048C11.8766 12.048 10.923 11.1758 10.923 10.0986C10.923 9.02137 11.8708 8.1506 13.0395 8.1506C14.2083 8.1506 15.1561 9.02282 15.1561 10.0986C15.1561 11.1743 14.2083 12.0509 13.0395 12.0509V12.048ZM19.9577 12.048C19.9577 12.048 19.9766 13.9 18.0955 13.9H17.5228V12.7021H17.8629C17.8629 12.7021 18.6537 12.7748 18.6436 11.5581C18.6436 11.5581 18.4895 12.0509 17.3817 12.0509C17.3817 12.0509 15.8088 11.9375 15.8088 10.4038V9.82236C15.8088 9.82236 15.851 8.23346 17.5722 8.10554C17.7816 8.09135 17.9913 8.12873 18.1828 8.21439C18.3744 8.30005 18.5421 8.43139 18.6712 8.59689V8.20584H19.9519L19.9577 12.048Z" fill="#434343"/>
<path d="M17.9502 10.8821C18.3813 10.8821 18.7308 10.5326 18.7308 10.1014C18.7308 9.6703 18.3813 9.3208 17.9502 9.3208C17.519 9.3208 17.1695 9.6703 17.1695 10.1014C17.1695 10.5326 17.519 10.8821 17.9502 10.8821Z" fill="#434343"/>
</svg>
