<svg width="24" height="24" viewBox="0 0 24 24" fill="none" xmlns="http://www.w3.org/2000/svg">
<path d="M8.34055 2.63474C5.70561 3.56223 2.92311 6.82956 2.26965 9.75961C-0.00694299 19.9199 12.6829 26.3492 19.5759 18.5076C26.4057 10.7504 18.1636 -0.843386 8.34055 2.63474ZM15.8027 6.1761C15.8027 6.63984 15.339 7.50411 14.7487 8.09433C14.1796 8.66348 13.6947 9.29587 13.6947 9.4645C13.6947 9.63314 13.0413 10.4342 12.2192 11.2141C10.4063 12.9637 10.2799 13.6804 12.0295 12.3946C13.3364 11.446 14.4536 11.6146 14.8752 12.8372C15.1703 13.7647 12.2192 16.2099 10.1745 16.7159C7.11794 17.4958 7.85572 17.8752 11.9451 17.6434C14.6012 17.4958 15.7816 17.5801 15.9924 17.9385C16.2243 18.3179 15.1703 18.4233 11.629 18.339L6.97038 18.2336L7.24441 17.1585C7.39197 16.5472 7.666 15.9992 7.85572 15.9148C8.04543 15.8516 9.12049 14.1652 10.2166 12.1838C13.2099 6.80848 15.8027 4.02598 15.8027 6.1761Z" fill="#434343"/>
<path d="M11.4814 13.5329C10.0901 14.4814 8.63566 16.2732 9.26805 16.2732C10.1112 16.2732 12.43 14.9452 12.9991 14.1231C14.3482 12.2048 13.7791 11.994 11.4814 13.5329Z" fill="#434343"/>
</svg>
