<svg width="30" height="30" viewBox="0 0 30 30" fill="none" xmlns="http://www.w3.org/2000/svg">
<path d="M0 8C0 3.58172 3.58172 0 8 0H22C26.4183 0 30 3.58172 30 8V22C30 26.4183 26.4183 30 22 30H8C3.58172 30 0 26.4183 0 22V8Z" fill="#434343"/>
<path d="M16.6673 16.25H18.7507L19.584 12.9166H16.6673V11.25C16.6673 10.3916 16.6673 9.58329 18.334 9.58329H19.584V6.78329C19.3123 6.74746 18.2865 6.66663 17.2032 6.66663C14.9407 6.66663 13.334 8.04746 13.334 10.5833V12.9166H10.834V16.25H13.334V23.3333H16.6673V16.25Z" fill="white"/>
</svg>
