<svg width="28" height="28" viewBox="0 0 28 28" fill="none" xmlns="http://www.w3.org/2000/svg">
<path d="M14 3.5C20.7655 3.5 26.25 7.77467 26.25 13.0492C26.25 18.3225 20.7655 22.5972 14 22.5972C13.3263 22.5975 12.6533 22.5547 11.9852 22.4688L6.8425 25.8323C6.258 26.1415 6.0515 26.1077 6.29183 25.3505L7.3325 21.0595C3.9725 19.3562 1.75 16.4045 1.75 13.0492C1.75 7.77583 7.2345 3.5 14 3.5ZM20.8915 12.9033L22.6065 11.242C22.7055 11.1392 22.7607 11.0021 22.7605 10.8594C22.7603 10.7167 22.7048 10.5797 22.6056 10.4771C22.5064 10.3746 22.3712 10.3146 22.2286 10.3097C22.0861 10.3048 21.9471 10.3555 21.8412 10.451L19.5918 12.628V10.829C19.5918 10.683 19.5338 10.5429 19.4305 10.4396C19.3273 10.3364 19.1872 10.2783 19.0412 10.2783C18.8951 10.2783 18.7551 10.3364 18.6518 10.4396C18.5485 10.5429 18.4905 10.683 18.4905 10.829V13.8122C18.4699 13.8973 18.4699 13.9861 18.4905 14.0712V15.75C18.4905 15.896 18.5485 16.0361 18.6518 16.1394C18.7551 16.2427 18.8951 16.3007 19.0412 16.3007C19.1872 16.3007 19.3273 16.2427 19.4305 16.1394C19.5338 16.0361 19.5918 15.896 19.5918 15.75V14.1598L20.09 13.678L21.756 16.0498C21.7976 16.109 21.8504 16.1595 21.9115 16.1983C21.9726 16.2371 22.0408 16.2634 22.112 16.2759C22.1833 16.2884 22.2564 16.2867 22.327 16.2709C22.3976 16.2551 22.4645 16.2256 22.5237 16.184C22.5829 16.1424 22.6333 16.0896 22.6721 16.0285C22.7109 15.9674 22.7373 15.8992 22.7497 15.828C22.7622 15.7567 22.7605 15.6836 22.7447 15.613C22.729 15.5424 22.6994 15.4755 22.6578 15.4163L20.8915 12.9022V12.9033ZM17.4405 15.148H15.7372V10.8465C15.7306 10.705 15.6698 10.5714 15.5674 10.4736C15.465 10.3758 15.3287 10.3212 15.1871 10.3212C15.0454 10.3212 14.9092 10.3758 14.8068 10.4736C14.7043 10.5714 14.6435 10.705 14.637 10.8465V15.6987C14.637 16.002 14.882 16.2493 15.1865 16.2493H17.4405C17.5865 16.2493 17.7266 16.1913 17.8299 16.088C17.9331 15.9848 17.9912 15.8447 17.9912 15.6987C17.9912 15.5526 17.9331 15.4126 17.8299 15.3093C17.7266 15.206 17.5865 15.148 17.4405 15.148ZM10.6073 13.874L11.4193 11.8825L12.1637 13.874H10.6073ZM13.5508 14.4433L13.5532 14.4247C13.5529 14.2859 13.4999 14.1525 13.405 14.0513L12.1847 10.7847C12.1335 10.629 12.0361 10.4926 11.9054 10.3938C11.7746 10.295 11.6169 10.2384 11.4532 10.2317C11.2882 10.2309 11.127 10.2805 10.9909 10.3736C10.8548 10.4668 10.7503 10.5992 10.6913 10.7532L8.7535 15.5073C8.72615 15.5743 8.71226 15.646 8.71261 15.7183C8.71297 15.7906 8.72757 15.8622 8.75557 15.9288C8.78358 15.9955 8.82444 16.056 8.87583 16.1069C8.92722 16.1578 8.98813 16.1981 9.05508 16.2254C9.12204 16.2528 9.19372 16.2667 9.26604 16.2663C9.33836 16.2659 9.4099 16.2514 9.47658 16.2233C9.54327 16.1953 9.60378 16.1545 9.65466 16.1031C9.70555 16.0517 9.74582 15.9908 9.77317 15.9238L10.1582 14.9753H12.5732L12.922 15.9087C12.9457 15.9784 12.9832 16.0427 13.0322 16.0977C13.0812 16.1528 13.1408 16.1974 13.2074 16.229C13.2739 16.2605 13.3462 16.2784 13.4198 16.2816C13.4934 16.2847 13.5669 16.2731 13.6359 16.2473C13.705 16.2216 13.7681 16.1822 13.8217 16.1316C13.8752 16.0809 13.9181 16.0201 13.9477 15.9526C13.9773 15.8851 13.993 15.8124 13.994 15.7387C13.995 15.665 13.9811 15.5919 13.9533 15.5237L13.5508 14.4433ZM9.67517 10.8523C9.67517 10.7065 9.61731 10.5666 9.51429 10.4634C9.41127 10.3601 9.27151 10.302 9.12567 10.3017H5.33983C5.19379 10.3017 5.05372 10.3597 4.95045 10.463C4.84718 10.5662 4.78917 10.7063 4.78917 10.8523C4.78917 10.9984 4.84718 11.1384 4.95045 11.2417C5.05372 11.345 5.19379 11.403 5.33983 11.403H6.69317V15.7617C6.69317 15.9077 6.75118 16.0478 6.85445 16.151C6.95772 16.2543 7.09779 16.3123 7.24383 16.3123C7.38988 16.3123 7.52994 16.2543 7.63321 16.151C7.73648 16.0478 7.7945 15.9077 7.7945 15.7617V11.403H9.1245C9.429 11.403 9.67517 11.1557 9.67517 10.8523Z" fill="#434343"/>
</svg>
