<svg width="17" height="16" viewBox="0 0 17 16" fill="none" xmlns="http://www.w3.org/2000/svg">
<path d="M15.1666 3.45334L7.55992 11.0667L4.73325 8.24001L5.67325 7.30001L7.55992 9.18668L14.2266 2.52001L15.1666 3.45334ZM13.6933 6.81334C13.7799 7.19334 13.8333 7.59334 13.8333 8.00001C13.8333 10.9467 11.4466 13.3333 8.49992 13.3333C5.55325 13.3333 3.16659 10.9467 3.16659 8.00001C3.16659 5.05334 5.55325 2.66668 8.49992 2.66668C9.55325 2.66668 10.5266 2.97334 11.3533 3.50001L12.3133 2.54001C11.2333 1.78001 9.91992 1.33334 8.49992 1.33334C4.81992 1.33334 1.83325 4.32001 1.83325 8.00001C1.83325 11.68 4.81992 14.6667 8.49992 14.6667C12.1799 14.6667 15.1666 11.68 15.1666 8.00001C15.1666 7.20668 15.0199 6.44668 14.7666 5.74001L13.6933 6.81334Z" fill="white"/>
</svg>
