<svg width="40" height="40" viewBox="0 0 40 40" fill="none" xmlns="http://www.w3.org/2000/svg">
<path d="M29.5484 27.3102L36.3298 34.09L34.0894 36.3305L27.3096 29.549C24.7869 31.5713 21.6492 32.6712 18.416 32.6666C10.55 32.6666 4.16602 26.2826 4.16602 18.4166C4.16602 10.5506 10.55 4.16663 18.416 4.16663C26.282 4.16663 32.666 10.5506 32.666 18.4166C32.6706 21.6498 31.5707 24.7875 29.5484 27.3102ZM26.3723 26.1354C28.3817 24.0689 29.5039 21.299 29.4993 18.4166C29.4993 12.2923 24.5388 7.33329 18.416 7.33329C12.2917 7.33329 7.33268 12.2923 7.33268 18.4166C7.33268 24.5394 12.2917 29.5 18.416 29.5C21.2984 29.5045 24.0683 28.3823 26.1348 26.3729L26.3723 26.1354Z" fill="#FFAE3E" stroke="#FFAE3E"/>
</svg>
