<svg width="30" height="30" viewBox="0 0 30 30" fill="none" xmlns="http://www.w3.org/2000/svg">
<path d="M0 8C0 3.58172 3.58172 0 8 0H22C26.4183 0 30 3.58172 30 8V22C30 26.4183 26.4183 30 22 30H8C3.58172 30 0 26.4183 0 22V8Z" fill="#434343"/>
<path d="M9.92821 13.161C9.80556 13.161 9.68567 13.1974 9.5837 13.2655C9.48172 13.3337 9.40224 13.4305 9.35531 13.5438C9.30837 13.6571 9.29609 13.7818 9.32002 13.9021C9.34395 14.0224 9.40301 14.1329 9.48973 14.2196C9.57645 14.3063 9.68695 14.3654 9.80723 14.3893C9.92752 14.4132 10.0522 14.4009 10.1655 14.354C10.2788 14.3071 10.3757 14.2276 10.4438 14.1256C10.5119 14.0237 10.5483 13.9038 10.5483 13.7811C10.5483 13.6167 10.483 13.4589 10.3667 13.3426C10.2504 13.2263 10.0927 13.161 9.92821 13.161Z" fill="white"/>
<path d="M16.0502 14.4303C16.4188 14.4303 16.7177 14.1315 16.7177 13.7629C16.7177 13.3943 16.4188 13.0955 16.0502 13.0955C15.6816 13.0955 15.3828 13.3943 15.3828 13.7629C15.3828 14.1315 15.6816 14.4303 16.0502 14.4303Z" fill="white"/>
<path d="M21.5924 7H8.4076C7.76907 7 7.15668 7.25366 6.70517 7.70517C6.25366 8.15668 6 8.76907 6 9.4076L6 17.2323C6 17.871 6.25362 18.4835 6.7051 18.9352C7.15658 19.3869 7.76896 19.6408 8.4076 19.6411H13.0651L14.6426 23.3727C14.6426 23.3727 14.7518 23.6955 15.0152 23.6955C15.2797 23.6955 15.3889 23.3727 15.3889 23.3727L16.9665 19.6411H21.5778C22.2165 19.6408 22.8289 19.3869 23.2803 18.9352C23.7318 18.4835 23.9854 17.871 23.9854 17.2323V9.4076C23.9855 8.77158 23.7338 8.1614 23.2854 7.7103C22.8371 7.2592 22.2284 7.00385 21.5924 7V7ZM11.655 13.917C11.6477 15.3477 10.1684 15.3878 10.1684 15.3878C10.0019 15.388 9.83705 15.3546 9.68377 15.2896C9.5305 15.2245 9.39196 15.1291 9.27648 15.0092V15.2664H8.19645V10.825C8.2632 10.8359 9.27405 10.825 9.27405 10.825V12.5239C9.52767 12.0895 10.2594 12.0967 10.2594 12.0967C11.8552 12.2448 11.655 13.917 11.655 13.917ZM13.5517 12.2327V15.2749H12.4971V12.2642C12.4971 11.854 11.9887 11.74 11.9887 11.74V10.6781C13.673 10.7473 13.5517 12.2327 13.5517 12.2327ZM16.0503 15.3878C15.0795 15.3878 14.2834 14.6597 14.2834 13.7605C14.2834 12.8613 15.0746 12.1344 16.0503 12.1344C17.026 12.1344 17.8172 12.8625 17.8172 13.7605C17.8172 14.6585 17.026 15.3902 16.0503 15.3902V15.3878ZM21.8254 15.3878C21.8254 15.3878 21.8412 16.9338 20.2709 16.9338H19.7928V15.9339H20.0767C20.0767 15.9339 20.7369 15.9945 20.7284 14.9788C20.7284 14.9788 20.5997 15.3902 19.675 15.3902C19.675 15.3902 18.362 15.2956 18.362 14.0153V13.5299C18.362 13.5299 18.3972 12.2035 19.834 12.0967C20.0088 12.0849 20.1839 12.1161 20.3438 12.1876C20.5037 12.2591 20.6437 12.3688 20.7514 12.5069V12.1805H21.8205L21.8254 15.3878Z" fill="white"/>
<path d="M20.1495 14.4146C20.5094 14.4146 20.8011 14.1228 20.8011 13.7629C20.8011 13.403 20.5094 13.1113 20.1495 13.1113C19.7896 13.1113 19.4978 13.403 19.4978 13.7629C19.4978 14.1228 19.7896 14.4146 20.1495 14.4146Z" fill="white"/>
</svg>
