<svg width="24" height="24" viewBox="0 0 24 24" fill="none" xmlns="http://www.w3.org/2000/svg">
<path d="M12.144 2H11.9883C9.60447 2 7.31825 2.94698 5.63262 4.63262C3.94698 6.31825 3 8.60447 3 10.9883L3 11.2277C3.00221 12.8456 3.44079 14.4329 4.26954 15.8225C5.09829 17.212 6.28651 18.3523 7.70899 19.1231C7.59343 19.5861 7.38657 20.0214 7.10054 20.4034C6.7199 20.9138 6.23545 21.5107 6.01918 21.7443C5.8029 21.9779 5.99899 22.0875 6.65934 21.9173C7.73097 21.5994 8.7639 21.1632 9.73908 20.6168C10.2062 20.3486 10.4773 20.1929 10.6676 20.0949C11.1044 20.165 11.5459 20.2016 11.9883 20.2044H12.144C14.5257 20.2037 16.8097 19.258 18.4948 17.5751C20.18 15.8921 21.1285 13.6093 21.1324 11.2277V10.9999C21.1339 9.81852 20.9025 8.64848 20.4515 7.55663C20.0004 6.46479 19.3386 5.47256 18.5038 4.63669C17.669 3.80083 16.6776 3.13772 15.5864 2.6853C14.4951 2.23287 13.3254 2 12.144 2V2ZM7.32547 10.8384H9.25174V12.7473H7.32547C7.04513 12.756 6.77097 12.6639 6.55265 12.4878C6.45664 12.399 6.38004 12.2913 6.32765 12.1714C6.27525 12.0516 6.24821 11.9222 6.24821 11.7914C6.24821 11.6606 6.27525 11.5312 6.32765 11.4114C6.38004 11.2916 6.45664 11.1838 6.55265 11.095C6.77049 10.9184 7.04523 10.8271 7.32547 10.8384ZM16.3686 11.7035C15.7918 12.4128 14.9268 12.7733 13.8252 12.7733H12.5304V10.847H13.2485C13.4712 10.8626 13.6948 10.8325 13.9056 10.7586C14.1163 10.6847 14.3097 10.5686 14.474 10.4174C14.6121 10.2699 14.7191 10.096 14.7884 9.90628C14.8578 9.71651 14.8882 9.5147 14.8777 9.31292C14.8745 9.12197 14.8327 8.93364 14.7549 8.75922C14.6771 8.58481 14.5649 8.42789 14.425 8.29788C14.1364 8.04637 13.7638 7.91256 13.3811 7.92301H11.9768V15.0485C11.9887 15.3684 11.8865 15.6822 11.6884 15.9338C11.5918 16.0512 11.4689 16.1443 11.3296 16.2054C11.1903 16.2665 11.0386 16.294 10.8868 16.2856C10.7332 16.2923 10.58 16.2638 10.4391 16.2024C10.2982 16.1409 10.1732 16.048 10.0736 15.9309C9.86669 15.6843 9.75787 15.3702 9.76791 15.0485V7.36358C9.75674 7.18104 9.78295 6.99814 9.84493 6.82609C9.90691 6.65403 10.0034 6.49644 10.1284 6.36295C10.262 6.23823 10.4197 6.14196 10.5917 6.08C10.7637 6.01803 10.9465 5.99167 11.129 6.0025H13.5253C14.6586 6.0025 15.5237 6.29086 16.0917 6.84452C16.3101 7.0529 16.4984 7.29068 16.6512 7.55102C16.813 7.82158 16.9381 8.1125 17.0232 8.41611C17.1061 8.70886 17.1488 9.01154 17.15 9.31581C17.1849 10.1734 16.9118 11.0152 16.3801 11.689L16.3686 11.7035Z" fill="#434343"/>
</svg>
