<svg width="19" height="18" viewBox="0 0 19 18" fill="none" xmlns="http://www.w3.org/2000/svg">
<path d="M17 4.885L8.4425 13.45L5.2625 10.27L6.32 9.2125L8.4425 11.335L15.9425 3.835L17 4.885ZM15.3425 8.665C15.44 9.0925 15.5 9.5425 15.5 10C15.5 13.315 12.815 16 9.5 16C6.185 16 3.5 13.315 3.5 10C3.5 6.685 6.185 4 9.5 4C10.685 4 11.78 4.345 12.71 4.9375L13.79 3.8575C12.575 3.0025 11.0975 2.5 9.5 2.5C5.36 2.5 2 5.86 2 10C2 14.14 5.36 17.5 9.5 17.5C13.64 17.5 17 14.14 17 10C17 9.1075 16.835 8.2525 16.55 7.4575L15.3425 8.665Z" fill="white"/>
</svg>
