<svg width="41" height="40" viewBox="0 0 41 40" fill="none" xmlns="http://www.w3.org/2000/svg">
    <path d="M14.033 3.334v5M27.365 3.334v5M6.533 15.15h28.334M37.367 31.667c0 1.25-.35 2.433-.967 3.433a6.616 6.616 0 0 1-5.7 3.233 6.509 6.509 0 0 1-4.383-1.666A5.991 5.991 0 0 1 25 35.1a6.534 6.534 0 0 1-.967-3.433A6.665 6.665 0 0 1 30.7 25c2 0 3.783.883 5 2.267a6.667 6.667 0 0 1 1.666 4.4z" stroke="#444" stroke-width="2" stroke-miterlimit="10" stroke-linecap="round" stroke-linejoin="round"/>
    <path d="m28.1 31.667 1.65 1.65 3.55-3.284" stroke="#444" stroke-width="2" stroke-linecap="round" stroke-linejoin="round"/>
    <path d="M35.7 14.167v13.1a6.64 6.64 0 0 0-5-2.266 6.665 6.665 0 0 0-6.667 6.666c0 1.25.35 2.434.966 3.434.35.6.8 1.133 1.317 1.566H14.033c-5.834 0-8.334-3.333-8.334-8.333V14.167c0-5 2.5-8.333 8.334-8.333h13.333c5.833 0 8.333 3.333 8.333 8.333z" stroke="#444" stroke-width="2" stroke-miterlimit="10" stroke-linecap="round" stroke-linejoin="round"/>
    <path d="M20.691 22.833h.015M14.523 22.833h.015M14.523 27.833h.015" stroke="#444" stroke-width="2" stroke-linecap="round" stroke-linejoin="round"/>
</svg>
