<?xml version="1.0" standalone="no"?>
<!DOCTYPE svg PUBLIC "-//W3C//DTD SVG 1.1//EN" "http://www.w3.org/Graphics/SVG/1.1/DTD/svg11.dtd" >
<svg xmlns="http://www.w3.org/2000/svg" xmlns:xlink="http://www.w3.org/1999/xlink" version="1.1">
<metadata>
Created by FontForge 20170731 at Fri Feb 24 13:51:57 2023
 By Aleksey,,,
Copyright (c) 2022 by KBO. All rights reserved.
</metadata>
<defs>
<font id="KBODiaGothicLight" horiz-adv-x="864" >
  <font-face 
    font-family="KBO Dia Gothic Light"
    font-weight="300"
    font-stretch="normal"
    units-per-em="1000"
    panose-1="0 0 0 0 0 0 0 0 0 0"
    ascent="800"
    descent="-200"
    x-height="472"
    cap-height="700"
    bbox="0 -273 1000 882"
    underline-thickness="50"
    underline-position="-250"
    unicode-range="U+0020-FFE6"
  />
<missing-glyph horiz-adv-x="216" 
 />
    <glyph glyph-name=".notdef" horiz-adv-x="216" 
 />
    <glyph glyph-name=".null" horiz-adv-x="0" 
 />
    <glyph glyph-name="nonmarkingreturn" horiz-adv-x="333" 
 />
    <glyph glyph-name="space" unicode=" " horiz-adv-x="216" 
 />
    <glyph glyph-name="space" unicode="&#xa0;" horiz-adv-x="216" 
 />
    <glyph glyph-name="exclam" unicode="!" horiz-adv-x="276" 
d="M89 709h99l-10 -555h-79zM96 -70q-16 16 -16 42t16 42t42 16t42 -16t16 -42t-16 -42t-42 -16t-42 16z" />
    <glyph glyph-name="quotedbl" unicode="&#x22;" horiz-adv-x="429" 
d="M239 771h110l-20 -280h-70zM190 771l-20 -280h-70l-20 280h110z" />
    <glyph glyph-name="numbersign" unicode="#" horiz-adv-x="780" 
d="M168 161h-125v63h139l55 251h-154v63h168l38 172h69l-37 -172h210l38 172h69l-37 -172h135v-63h-149l-54 -251h163v-63h-176l-44 -202h-72l44 202h-208l-44 -202h-72zM462 224l55 251h-210l-54 -251h209z" />
    <glyph glyph-name="dollar" unicode="$" horiz-adv-x="639" 
d="M283 -89q-110 12 -177 67t-66 140h73q-5 -55 41 -95t129 -51v336q-121 39 -173 87.5t-52 122.5q0 51 27.5 93t78.5 67.5t119 29.5v72h67v-73q93 -8 150.5 -50.5t67.5 -106.5h-74q-28 83 -144 96v-291q131 -42 190 -95t59 -131q0 -100 -67.5 -157t-181.5 -63v-80h-67v82z
M350 -31q79 3 127.5 44.5t48.5 105.5q0 63 -40 99.5t-136 68.5v-318zM283 648q-67 -5 -110 -39.5t-43 -85.5q0 -52 38.5 -86.5t114.5 -60.5v272z" />
    <glyph glyph-name="percent" unicode="%" horiz-adv-x="894" 
d="M186 -73l420 792l85 -1l-415 -792zM100 437q-46 43 -46 114t46 114t122 43t122 -43t46 -114t-46 -114t-122 -43t-122 43zM288 486q26 24 26 65t-26 65t-66 24t-66 -24t-26 -65t26 -65t66 -24t66 24zM550 -7q-46 43 -46 114t46 114t122 43t122 -43t46 -114t-46 -114
t-122 -43t-122 43zM738 42q26 24 26 65t-26 65t-66 24t-66 -24t-26 -65t26 -65t66 -24t66 24z" />
    <glyph glyph-name="ampersand" unicode="&#x26;" horiz-adv-x="759" 
d="M146.5 14q-62.5 46 -62.5 131q0 68 37.5 117t126.5 96q-46 47 -73 96.5t-27 93.5q0 72 49 110.5t144 38.5q82 0 130.5 -39.5t48.5 -108.5q0 -58 -41 -109.5t-126 -103.5l170 -188q17 21 34 57.5t26 68.5l68 -24q-40 -109 -82 -156l106 -116h-83l-69 75q-31 -40 -86 -62.5
t-130 -22.5q-98 0 -160.5 46zM481 99l-182 208q-144 -70 -144 -164q0 -52 45.5 -82t109.5 -30q98 0 171 68zM418 468q37 40 37 79q0 91 -127 91q-51 0 -82 -25t-31 -68q0 -61 95 -162q71 45 108 85z" />
    <glyph glyph-name="quotesingle" unicode="'" horiz-adv-x="270" 
d="M80 771h110l-20 -280h-70z" />
    <glyph glyph-name="parenleft" unicode="(" horiz-adv-x="296" 
d="M223 -159q-73 69 -113 188t-40 266t40 266t113 188l53 -42q-64 -67 -99.5 -179t-35.5 -233q0 -122 35.5 -233.5t99.5 -179.5z" />
    <glyph glyph-name="parenright" unicode=")" horiz-adv-x="296" 
d="M20 -118q63 66 99 180.5t36 232.5t-36 232t-99 180l53 42q71 -68 112 -190t41 -264t-41 -264t-112 -190z" />
    <glyph glyph-name="asterisk" unicode="*" horiz-adv-x="495" 
d="M220 489l-125 -88l-41 72l139 64l-139 64l41 72l125 -88l-14 152h83l-14 -152l125 88l41 -72l-139 -64l139 -64l-41 -72l-125 88l14 -152h-83z" />
    <glyph glyph-name="plus" unicode="+" horiz-adv-x="552" 
d="M65 294v61h176v175h72v-175h174v-61h-174v-175h-72v175h-176z" />
    <glyph glyph-name="comma" unicode="," horiz-adv-x="242" 
d="M53 -149q46 28 61 60q-19 2 -34.5 18.5t-15.5 39.5q0 26 17.5 43.5t43.5 17.5q29 0 46 -17.5t17 -48.5q0 -81 -119 -140z" />
    <glyph glyph-name="hyphen" unicode="-" horiz-adv-x="600" 
d="M512 340v-62h-424v62h424z" />
    <glyph glyph-name="period" unicode="." horiz-adv-x="216" 
d="M66 -70q-16 16 -16 42t16 42t42 16t42 -16t16 -42t-16 -42t-42 -16t-42 16z" />
    <glyph glyph-name="slash" unicode="/" horiz-adv-x="308" 
d="M222 807h76l-212 -982h-76z" />
    <glyph glyph-name="zero" unicode="0" horiz-adv-x="622" 
d="M127 14q-65 105 -65 295t65 295t184 105q118 0 183 -104.5t65 -295.5t-65 -295.5t-183 -104.5q-119 0 -184 105zM441 58q46 89 46 251t-46 251t-130 89q-85 0 -131 -89t-46 -251t46 -251t131 -89q84 0 130 89z" />
    <glyph glyph-name="one" unicode="1" horiz-adv-x="622" 
d="M196 612v43q61 12 109 34h72v-760h-72v683h-109z" />
    <glyph glyph-name="two" unicode="2" horiz-adv-x="622" 
d="M88 -14q137 158 236 279q62 76 90 132.5t28 107.5q0 62 -39 103t-99 41t-99 -38.5t-41 -99.5h-72q1 58 28.5 103t75.5 70t110 25q58 0 105.5 -25.5t75 -72t27.5 -106.5q0 -66 -32 -129.5t-107 -154.5l-13 -16q-45 -55 -90 -109t-90 -107h352v-60h-446v57z" />
    <glyph glyph-name="three" unicode="3" horiz-adv-x="622" 
d="M145 -45q-64 46 -78 128h72q13 -56 57 -85t115 -29q49 0 88 20t61 55t22 80q0 79 -57 125.5t-147 46.5h-100v56h84q57 0 100.5 21.5t67 58t23.5 80.5q0 62 -38.5 99.5t-101.5 37.5q-52 0 -90.5 -25.5t-53.5 -72.5h-71q18 72 77 115t139 43q62 0 110 -25.5t74.5 -69.5
t26.5 -98q0 -64 -32.5 -112t-88.5 -73v-7q68 -22 109 -74.5t41 -125.5q0 -60 -30.5 -109t-85.5 -77.5t-126 -28.5q-103 0 -167 46z" />
    <glyph glyph-name="four" unicode="4" horiz-adv-x="622" 
d="M38 90v55l332 554h92v-549h121v-60h-121v-171h-72v171h-352zM390 536l2 82q-17 -39 -36 -70l-232 -398h266v386z" />
    <glyph glyph-name="five" unicode="5" horiz-adv-x="622" 
d="M145.5 -33.5q-64.5 57.5 -75.5 160.5h70q13 -75 54.5 -116.5t113.5 -41.5q50 0 89.5 24.5t62 70t22.5 105.5q0 82 -45 133.5t-118 51.5q-77 0 -148 -52h-72l51 388h361v-60h-298l-33 -258q67 40 144 40q70 0 122 -31.5t80 -88t28 -127.5q0 -75 -31.5 -133t-87.5 -90.5
t-127 -32.5q-98 0 -162.5 57.5z" />
    <glyph glyph-name="six" unicode="6" horiz-adv-x="622" 
d="M136.5 4q-64.5 95 -64.5 284q0 204 63 313t183 109q78 0 131.5 -44t75.5 -122h-72q-39 106 -135 106q-80 0 -124 -83.5t-52 -244.5q37 41 85 65t102 24q63 0 113.5 -31t79.5 -88.5t29 -133.5q0 -72 -30 -128.5t-83 -88.5t-120 -32q-117 0 -181.5 95zM400.5 -7
q36.5 24 57.5 66.5t21 95.5q0 58 -20 102.5t-55.5 69t-79.5 24.5q-52 0 -99 -29.5t-81 -79.5q4 -136 49.5 -204.5t124.5 -68.5q46 0 82.5 24z" />
    <glyph glyph-name="seven" unicode="7" horiz-adv-x="622" 
d="M443 630h-347v60h422v-48l-217 -713h-75z" />
    <glyph glyph-name="eight" unicode="8" horiz-adv-x="622" 
d="M120.5 -38q-71.5 54 -71.5 148q0 73 46 133t131 100v4q-71 38 -106.5 80.5t-35.5 96.5q0 51 28 93.5t79.5 67t118.5 24.5t118.5 -25.5t79.5 -69t28 -95.5q0 -58 -34.5 -105t-98.5 -80v-7q81 -32 125.5 -88.5t44.5 -123.5q0 -59 -32.5 -106.5t-92 -74t-137.5 -26.5
q-119 0 -190.5 54zM410 -14.5q43 19.5 67 54t24 77.5q0 65 -46.5 112.5t-157.5 89.5q-86 -36 -131 -88.5t-45 -120.5q0 -40 24 -73t67 -52t99 -19t99 19.5zM464 519q0 37 -20 67t-55.5 47.5t-78.5 17.5q-67 0 -110.5 -36t-43.5 -91q0 -45 40 -84q38 -38 143 -82
q125 69 125 161z" />
    <glyph glyph-name="nine" unicode="9" horiz-adv-x="622" 
d="M166 -36.5q-56 52.5 -71 135.5h72q35 -128 147 -128q81 0 122 83q38 81 40 271q-28 -36 -75 -56t-101 -20q-68 0 -119 28.5t-78.5 79t-27.5 112.5q0 73 30 127.5t82.5 84t118.5 29.5q120 0 180 -93.5t60 -276.5q0 -159 -26 -255q-26 -92 -77 -133t-131 -41
q-90 0 -146 52.5zM398.5 327q38.5 18 75.5 58q-2 126 -46 195.5t-122 69.5q-71 0 -115 -49t-44 -128q0 -73 44 -118.5t116 -45.5q53 0 91.5 18z" />
    <glyph glyph-name="colon" unicode=":" horiz-adv-x="276" 
d="M96 538q-16 16 -16 42t16 42t42 16t42 -16t16 -42t-16 -42t-42 -16t-42 16zM96 86q-16 16 -16 42t16 42t42 16t42 -16t16 -42t-16 -42t-42 -16t-42 16z" />
    <glyph glyph-name="semicolon" unicode=";" horiz-adv-x="287" 
d="M68 8q45 32 60 60q-19 2 -33.5 18.5t-14.5 39.5q0 26 17.5 43.5t43.5 17.5q30 0 46.5 -17t16.5 -49q0 -84 -116 -143zM101 538q-16 16 -16 42t16 42t42 16t42 -16t16 -42t-16 -42t-42 -16t-42 16z" />
    <glyph glyph-name="less" unicode="&#x3c;" horiz-adv-x="694" 
d="M110 246v104l495 230l29 -62l-464 -222l464 -208l-30 -62z" />
    <glyph glyph-name="equal" unicode="=" horiz-adv-x="642" 
d="M581 474v-62h-520v62h520zM61 239h520v-62h-520v62z" />
    <glyph glyph-name="greater" unicode="&#x3e;" horiz-adv-x="694" 
d="M60 88l464 208l-464 222l29 62l495 -230v-104l-494 -220z" />
    <glyph glyph-name="question" unicode="?" horiz-adv-x="546" 
d="M259 204q1 43 12.5 78t36.5 68l18 24q40 49 59 83.5t19 67.5q0 50 -33.5 82t-90.5 32q-55 0 -93.5 -33t-44.5 -87h-82q9 92 66.5 142t153.5 50q98 0 152 -47t54 -124q0 -49 -23.5 -96.5t-67.5 -104.5q-56 -70 -58 -135l-2 -68h-77zM262 -70q-16 16 -16 42t16 42t42 16
t42 -16t16 -42t-16 -42t-42 -16t-42 16z" />
    <glyph glyph-name="at" unicode="@" horiz-adv-x="940" 
d="M262.5 -127.5q-104.5 57.5 -162 162.5t-57.5 242q0 132 54.5 236t153 162t223.5 58q128 0 223.5 -53t147.5 -151t52 -227q0 -88 -24 -145q-24 -55 -63 -82.5t-86 -27.5q-40 0 -71.5 23.5t-42.5 64.5q-24 -46 -63 -70t-88 -24q-58 0 -104 27.5t-72 81t-26 128.5
q0 76 30 131q29 55 76.5 84t103.5 29q43 0 78 -18t57 -52v55h66v-291q0 -52 15.5 -77t44.5 -25q25 0 46.5 24t34 67t12.5 97q0 105 -43 185q-44 82 -123 127t-181 45q-99 0 -179 -52q-81 -53 -128 -140.5t-47 -189.5q0 -109 48 -198q49 -91 136.5 -143t197.5 -52
q75 0 151 17.5t121 45.5l35 -64q-59 -33 -138 -50.5t-169 -17.5q-135 0 -239.5 57.5zM554.5 145.5q40.5 37.5 47.5 89.5v124q-7 41 -43 69t-88 28q-38 0 -70 -22.5t-50.5 -63.5t-18.5 -92q0 -76 35.5 -123t95.5 -47q51 0 91.5 37.5z" />
    <glyph glyph-name="A" unicode="A" horiz-adv-x="730" 
d="M335 690h60l300 -761h-73l-84 220h-346l-84 -220h-73zM515 209l-150 391l-150 -391h300z" />
    <glyph glyph-name="B" unicode="B" horiz-adv-x="683" 
d="M331 690q135 0 206 -47.5t71 -137.5q0 -61 -29.5 -108t-84.5 -72q149 -50 149 -183q0 -110 -67 -161.5t-217 -51.5h-279v761h251zM373 -10q199 0 199 145q0 153 -199 153h-221v-298h221zM355 349q182 0 182 146q0 68 -47 101t-145 33h-193v-280h203z" />
    <glyph glyph-name="C" unicode="C" horiz-adv-x="741" 
d="M211 -40q-75 50 -113 137t-38 203q0 122 40 214.5t116 143.5t180 51q110 0 185.5 -52.5t98.5 -149.5h-73q-20 70 -76.5 105.5t-135.5 35.5t-138 -41.5t-91.5 -118.5t-32.5 -179q0 -103 31 -179.5t90 -118t141 -41.5q70 0 119 27q49 26 76.5 69t31.5 95h74
q-6 -70 -42 -127q-37 -59 -103.5 -92t-155.5 -33q-109 0 -184 51z" />
    <glyph glyph-name="D" unicode="D" horiz-adv-x="716" 
d="M296 690q176 0 268 -98.5t92 -282.5t-91.5 -282t-268.5 -98h-216v761h216zM311 -10q136 0 204.5 83.5t68.5 235.5t-69 236t-204 84h-159v-639h159z" />
    <glyph glyph-name="E" unicode="E" horiz-adv-x="617" 
d="M572 690v-60h-420v-275h405v-60h-405v-306h430v-60h-502v761h492z" />
    <glyph glyph-name="F" unicode="F" horiz-adv-x="607" 
d="M572 690v-60h-420v-285h405v-60h-405v-356h-72v761h492z" />
    <glyph glyph-name="G" unicode="G" horiz-adv-x="776" 
d="M217.5 -43q-76.5 48 -117 136t-40.5 207q0 121 41 213.5t118.5 144t181.5 51.5q115 0 191 -56t98 -153h-73q-16 68 -74.5 108.5t-142.5 40.5q-79 0 -139.5 -42.5t-94.5 -120t-34 -177.5q0 -156 69.5 -248t198.5 -92q117 0 180.5 70.5t63.5 196.5q0 26 -1 33h-272v60h345
v-58q5 -173 -75 -267.5t-241 -94.5q-106 0 -182.5 48z" />
    <glyph glyph-name="H" unicode="H" horiz-adv-x="741" 
d="M152 690v-330h437v330h72v-761h-72v371h-437v-371h-72v761h72z" />
    <glyph glyph-name="I" unicode="I" horiz-adv-x="262" 
d="M167 690v-761h-72v761h72z" />
    <glyph glyph-name="J" unicode="J" horiz-adv-x="581" 
d="M79.5 -27q-64.5 63 -64.5 175h72v-9q0 -79 47 -124t127 -45q79 0 123.5 48.5t44.5 135.5v536h72v-535q0 -116 -63 -180.5t-175 -64.5q-119 0 -183.5 63z" />
    <glyph glyph-name="K" unicode="K" horiz-adv-x="640" 
d="M152 690v-350l360 350h90l-370 -367l378 -394h-96l-362 384v-384h-72v761h72z" />
    <glyph glyph-name="L" unicode="L" horiz-adv-x="599" 
d="M142 690v-701h427v-60h-499v761h72z" />
    <glyph glyph-name="M" unicode="M" horiz-adv-x="891" 
d="M182 690l263 -659h2l262 659h102v-761h-72v543q0 76 3 121h-2l-264 -664h-61l-264 664h-2q3 -45 3 -121v-543h-72v761h102z" />
    <glyph glyph-name="N" unicode="N" horiz-adv-x="746" 
d="M163 690l432 -658h2q-3 47 -3 122v536h72v-761h-83l-432 668h-2q3 -46 3 -122v-546h-72v761h83z" />
    <glyph glyph-name="O" unicode="O" horiz-adv-x="810" 
d="M223 -42q-78 49 -120.5 138t-42.5 205q0 114 41 208t119.5 147t184.5 53q103 0 181 -51.5t121 -144.5t43 -214q0 -116 -42.5 -204.5t-120.5 -137t-182 -48.5t-182 49zM549 11q62 42 95.5 119t33.5 179q0 101 -34.5 178t-96.5 119.5t-143 42.5q-78 0 -140 -42.5t-97 -120
t-35 -177.5q0 -102 33.5 -179t95.5 -119t144 -42t144 42z" />
    <glyph glyph-name="P" unicode="P" horiz-adv-x="636" 
d="M302 690q150 0 227 -59.5t77 -176.5t-77 -176.5t-227 -59.5h-170v-289h-72v761h242zM310 278q114 0 169 45.5t55 130.5t-55 130.5t-169 45.5h-178v-352h178z" />
    <glyph glyph-name="Q" unicode="Q" horiz-adv-x="800" 
d="M557 -59q-69 -32 -152 -32q-104 0 -182 49t-120.5 138t-42.5 205q0 114 41 208t119.5 147t184.5 53q107 0 186 -54q77 -53 118 -146.5t41 -211.5q0 -105 -36.5 -189t-104.5 -136l60 -103h-70zM525 -4l-133 228h70l113 -193q50 44 76.5 116t26.5 162q0 101 -34.5 178
t-96.5 119.5t-143 42.5q-78 0 -140 -42.5t-97 -120t-35 -177.5q0 -102 33.5 -179t95.5 -119t144 -42q65 0 120 27z" />
    <glyph glyph-name="R" unicode="R" horiz-adv-x="668" 
d="M308 690q151 0 229.5 -57t78.5 -169q0 -158 -154 -206l186 -329h-84l-169 315q-40 -6 -87 -6h-156v-309h-72v761h228zM316 298q115 0 171.5 43t56.5 123t-56.5 123t-171.5 43h-164v-332h164z" />
    <glyph glyph-name="S" unicode="S" horiz-adv-x="639" 
d="M179 -65q-66 26 -103 73.5t-36 109.5h73q-4 -41 22.5 -75.5t79.5 -54t123 -19.5q83 0 135.5 41.5t52.5 108.5q0 50 -24 81q-23 31 -66 52t-125 47q-134 41 -193.5 90.5t-59.5 128.5q0 54 31 97.5t87.5 68.5t131.5 25q111 0 179.5 -44t80.5 -115h-74q-15 47 -62 73
t-130 26q-50 0 -89 -16.5t-61 -45.5t-22 -64q0 -59 49 -95t154 -68q140 -42 203 -96.5t63 -134.5q0 -106 -74 -163t-197 -57q-83 0 -149 26z" />
    <glyph glyph-name="T" unicode="T" horiz-adv-x="622" 
d="M20 630v60h582v-60h-255v-701h-72v701h-255z" />
    <glyph glyph-name="U" unicode="U" horiz-adv-x="742" 
d="M224 -45q-68 32 -106 102t-38 173v460h72v-451q0 -130 59 -193t160 -63q97 0 158 64t61 192v451h72v-457q0 -107 -40 -175q-39 -68 -103.5 -101.5t-147.5 -33.5q-81 0 -147 32z" />
    <glyph glyph-name="V" unicode="V" horiz-adv-x="690" 
d="M25 690h74l245 -659h2l245 659h74l-290 -761h-60z" />
    <glyph glyph-name="W" unicode="W" horiz-adv-x="890" 
d="M35 690h68l143 -675h2l174 675h46l174 -675h2l143 675h68l-166 -761h-90l-153 604h-2l-153 -604h-90z" />
    <glyph glyph-name="X" unicode="X" horiz-adv-x="670" 
d="M291 315l-251 375h81l213 -319h2l213 319h81l-251 -375l266 -386h-84l-225 330h-2l-225 -330h-84z" />
    <glyph glyph-name="Y" unicode="Y" horiz-adv-x="680" 
d="M25 690h79l235 -375h2l235 375h79l-279 -442v-319h-72v319z" />
    <glyph glyph-name="Z" unicode="Z" horiz-adv-x="626" 
d="M480 630h-425l-1 60h512v-40l-440 -664q47 3 125 3h345v-60h-556v40z" />
    <glyph glyph-name="bracketleft" unicode="[" horiz-adv-x="317" 
d="M297 782v-63h-125v-816h125v-63h-197v942h197z" />
    <glyph glyph-name="backslash" unicode="\" horiz-adv-x="306" 
d="M10 807l74 1l212 -983h-74z" />
    <glyph glyph-name="bracketright" unicode="]" horiz-adv-x="317" 
d="M145 -97v816h-125v63h197v-942h-197v63h125z" />
    <glyph glyph-name="asciicircum" unicode="^" horiz-adv-x="490" 
d="M180 757h120l165 -300h-91l-134 239l-135 -239h-90z" />
    <glyph glyph-name="underscore" unicode="_" horiz-adv-x="540" 
d="M482 -80v-62h-424v62h424z" />
    <glyph glyph-name="grave" unicode="`" horiz-adv-x="486" 
d="M136 721l101 56l113 -257l-66 -37z" />
    <glyph glyph-name="a" unicode="a" horiz-adv-x="598" 
d="M154 -57q-52 34 -80.5 97.5t-28.5 151.5q0 86 31 153t84.5 104t119.5 37q55 0 103 -26.5t78 -73.5v86h72v-543h-65l-7 97q-61 -117 -186 -117q-69 0 -121 34zM391 20q52 50 70 126v136q-21 60 -71 102t-105 42q-50 0 -88 -29t-59 -82t-21 -123q0 -102 43 -162t117 -60
q62 0 114 50z" />
    <glyph glyph-name="b" unicode="b" horiz-adv-x="598" 
d="M214 -66q-46 25 -77 70l-7 -75h-65v775h72v-320q87 101 197 101q61 0 110 -34q51 -34 80 -98.5t29 -148.5q0 -92 -31 -158q-30 -66 -83.5 -101.5t-120.5 -35.5q-58 0 -104 25zM433.5 31q47.5 61 47.5 173q0 63 -19.5 113.5t-54.5 79t-78 28.5q-53 0 -107.5 -36.5
t-84.5 -90.5v-198q6 -30 31 -60.5t61 -50t74 -19.5q83 0 130.5 61z" />
    <glyph glyph-name="c" unicode="c" horiz-adv-x="586" 
d="M168.5 -56q-59.5 35 -91.5 100t-32 154q0 83 33 148.5t92.5 102.5t137.5 37q61 0 110.5 -23.5t80 -65.5t37.5 -95h-73q-7 56 -50.5 90t-104.5 34q-55 0 -98.5 -27.5t-68 -79t-24.5 -121.5q0 -107 50.5 -168t140.5 -61q68 0 111.5 35t48.5 97h73q-8 -90 -70.5 -141
t-162.5 -51q-80 0 -139.5 35z" />
    <glyph glyph-name="d" unicode="d" horiz-adv-x="598" 
d="M154 -57q-52 34 -80.5 97.5t-28.5 151.5q0 86 31 153t84.5 104t119.5 37q55 0 103 -26.5t78 -73.5v318h72v-775h-65l-7 97q-61 -117 -186 -117q-69 0 -121 34zM391 20q52 50 70 126v136q-21 60 -71 102t-105 42q-50 0 -88 -29t-59 -82t-21 -123q0 -102 43 -162t117 -60
q62 0 114 50z" />
    <glyph glyph-name="e" unicode="e" horiz-adv-x="594" 
d="M113.5 -14q-68.5 77 -68.5 212q0 85 32 150.5t90 101.5t132 36q67 0 123 -29q58 -30 91.5 -90t35.5 -144v-41h-432q0 -98 49.5 -155.5t137.5 -57.5q66 0 107.5 24.5t57.5 70.5h76q-22 -73 -84 -114t-157 -41q-122 0 -190.5 77zM478 242q-3 85 -52.5 134.5t-126.5 49.5
t-126.5 -50.5t-54.5 -133.5h360z" />
    <glyph glyph-name="f" unicode="f" horiz-adv-x="380" 
d="M30 412v60h115v73q0 83 31.5 122t106.5 39q30 0 53 -4v-60l-33 2q-46 0 -66 -19.5t-20 -67.5v-85h133v-60h-133v-479h-72v479h-115z" />
    <glyph glyph-name="g" unicode="g" horiz-adv-x="598" 
d="M236 -196q87 0 136 17q48 16 68.5 57t20.5 119v28q-62 -116 -186 -116q-69 0 -121 34t-80.5 97.5t-28.5 151.5q0 86 31 153t84.5 104t119.5 37q55 0 103 -26.5t78 -73.5v8l7 78h65v-443q0 -108 -23 -169q-24 -61 -86.5 -88.5t-178.5 -27.5h-109v60h100zM391 20
q52 50 70 126v136q-21 60 -71 102t-105 42q-50 0 -88 -29t-59 -82t-21 -123q0 -102 43 -162t117 -60q62 0 114 50z" />
    <glyph glyph-name="h" unicode="h" horiz-adv-x="590" 
d="M137 704v-313q44 44 98.5 69.5t115.5 25.5q78 0 126 -49t48 -144v-364h-72v328q0 85 -25 126.5t-85 41.5q-53 0 -106 -28.5t-100 -77.5v-390h-72v775h72z" />
    <glyph glyph-name="i" unicode="i" horiz-adv-x="244" 
d="M158 472v-543h-72v543h72zM83.5 587.5q-14.5 13.5 -14.5 34.5t14.5 35t38.5 14t38.5 -14t14.5 -35t-14.5 -34.5t-38.5 -13.5t-38.5 13.5z" />
    <glyph glyph-name="j" unicode="j" horiz-adv-x="284" 
d="M30 -196q38 -1 58.5 6.5t29 26t8.5 53.5v582h72v-557q0 -73 -10 -106q-11 -36 -47.5 -51.5t-110.5 -13.5v60zM123.5 587.5q-14.5 13.5 -14.5 34.5t14.5 35t38.5 14t38.5 -14t14.5 -35t-14.5 -34.5t-38.5 -13.5t-38.5 13.5z" />
    <glyph glyph-name="k" unicode="k" horiz-adv-x="495" 
d="M137 704v-453l231 221h95l-249 -235l266 -308h-90l-253 302v-302h-72v775h72z" />
    <glyph glyph-name="l" unicode="l" horiz-adv-x="249" 
d="M165 -80q-44 0 -59.5 23t-15.5 84v677h72v-678q0 -30 8.5 -41t32.5 -11q16 0 21 1v-47q-13 -4 -31 -6z" />
    <glyph glyph-name="m" unicode="m" horiz-adv-x="820" 
d="M132 472l4 -62q70 76 159 76q105 0 137 -92q37 45 79 68.5t94 23.5q71 0 110.5 -44.5t39.5 -135.5v-377h-72v331q0 61 -7.5 96t-27.5 52t-56 17q-37 0 -75 -23.5t-73 -66.5q1 -6 1 -29v-377h-72v331q0 61 -7.5 96t-27.5 52t-56 17q-37 0 -74.5 -23t-70.5 -63v-410h-72
v543h67z" />
    <glyph glyph-name="n" unicode="n" horiz-adv-x="590" 
d="M132 472l5 -81q44 44 98.5 69.5t115.5 25.5q78 0 126 -49t48 -144v-364h-72v328q0 85 -25 126.5t-85 41.5q-53 0 -106 -28.5t-100 -77.5v-390h-72v543h67z" />
    <glyph glyph-name="o" unicode="o" horiz-adv-x="608" 
d="M171 -54.5q-59 36.5 -92.5 102t-33.5 150.5t35 152q34 65 93 100.5t131 35.5t131 -35q60 -37 94 -102.5t34 -150.5t-33.5 -150.5t-92.5 -102t-133 -36.5t-133 36.5zM400.5 -2.5q42.5 28.5 66.5 80.5t24 120q0 69 -24 120.5t-66.5 79.5t-96.5 28t-96.5 -28t-66.5 -79.5
t-24 -120.5q0 -68 24 -120t66.5 -80.5t96.5 -28.5t96.5 28.5z" />
    <glyph glyph-name="p" unicode="p" horiz-adv-x="598" 
d="M130 472l7 -78v-10q87 101 197 101q61 0 110 -34q51 -34 80 -98.5t29 -148.5q0 -92 -31 -158q-30 -66 -83.5 -101.5t-120.5 -35.5q-57 0 -103.5 25t-77.5 70v-260h-72v728h65zM433.5 31q47.5 61 47.5 173q0 63 -19.5 113.5t-54.5 79t-78 28.5q-53 0 -107.5 -36.5
t-84.5 -90.5v-198q6 -30 31 -60.5t61 -50t74 -19.5q83 0 130.5 61z" />
    <glyph glyph-name="q" unicode="q" horiz-adv-x="598" 
d="M461 25q-62 -116 -186 -116q-69 0 -121 34t-80.5 97.5t-28.5 151.5q0 86 31 153t84.5 104t119.5 37q55 0 103 -26.5t78 -73.5v3l7 83h65v-728h-72v281zM391 20q52 50 70 126v136q-21 60 -71 102t-105 42q-50 0 -88 -29t-59 -82t-21 -123q0 -102 43 -162t117 -60
q62 0 114 50z" />
    <glyph glyph-name="r" unicode="r" horiz-adv-x="402" 
d="M132 472l5 -72q32 43 75 64.5t92 21.5q38 0 73 -11v-67q-37 14 -80 14q-19 0 -25 -1q-37 -3 -73.5 -28.5t-61.5 -69.5v-394h-72v543h67z" />
    <glyph glyph-name="s" unicode="s" horiz-adv-x="525" 
d="M154 -70q-57 21 -88.5 58t-30.5 84h72q-1 -27 22 -50.5t64.5 -37.5t93.5 -14q62 0 97 26t35 69q0 30 -16 49t-53 35t-106 38q-70 21 -108 38q-82 35 -82 116q0 52 31 84q29 31 75.5 46t98.5 15q88 0 147.5 -35.5t65.5 -97.5h-71q-2 31 -42.5 52.5t-105.5 21.5
q-55 0 -91 -22.5t-36 -59.5q0 -28 18 -46q16 -17 40.5 -27.5t87.5 -30.5l28 -8q104 -31 147 -67.5t43 -96.5q0 -77 -55.5 -118.5t-150.5 -41.5q-73 0 -130 21z" />
    <glyph glyph-name="t" unicode="t" horiz-adv-x="375" 
d="M151.5 -54q-26.5 25 -26.5 91v375h-90v60h90v137h72v-137h143v-60h-143v-362q0 -39 15 -53t57 -14q18 0 73 5v-56q-71 -11 -109 -11q-55 0 -81.5 25z" />
    <glyph glyph-name="u" unicode="u" horiz-adv-x="590" 
d="M113.5 -36.5q-48.5 49.5 -48.5 165.5v343h72v-333q0 -90 27.5 -127t93.5 -37q54 0 108 35t87 92v370h72v-543h-67l-5 78v14q-89 -107 -204 -107q-87 0 -135.5 49.5z" />
    <glyph glyph-name="v" unicode="v" horiz-adv-x="546" 
d="M25 472h73l174 -458h2l174 458h73l-213 -543h-70z" />
    <glyph glyph-name="w" unicode="w" horiz-adv-x="705" 
d="M20 472h71l105 -471h2l132 471h45l132 -471h2l105 471h71l-133 -543h-85l-113 418h-2l-114 -418h-85z" />
    <glyph glyph-name="x" unicode="x" horiz-adv-x="520" 
d="M214 207l-181 265h78l148 -219h2l148 219h78l-181 -265l194 -279h-84l-155 233h-2l-155 -233h-84z" />
    <glyph glyph-name="y" unicode="y" horiz-adv-x="550" 
d="M68 -196q67 0 107 38t72 125l-222 505h76l180 -420h1l168 420h75l-222 -542q-27 -69 -58 -111q-30 -40 -72.5 -57.5t-111.5 -17.5h-11v60h18z" />
    <glyph glyph-name="z" unicode="z" horiz-adv-x="502" 
d="M35 -31l325 443h-321v60h404v-40l-315 -443h339v-60h-431z" />
    <glyph glyph-name="braceleft" unicode="{" horiz-adv-x="361" 
d="M341 -160q-111 0 -169 65.5t-58 193.5q0 78 -17 121t-57 43v106q40 0 57 43t17 121q0 122 59.5 190.5t167.5 68.5v-57q-81 0 -121.5 -48t-44.5 -153q-7 -161 -72 -218q35 -30 52 -87.5t18 -130.5q2 -103 44.5 -152t123.5 -49v-57z" />
    <glyph glyph-name="bar" unicode="|" horiz-adv-x="362" 
d="M217 800v-995h-72v995h72z" />
    <glyph glyph-name="braceright" unicode="}" horiz-adv-x="361" 
d="M20 -103q81 0 123.5 49t44.5 152q1 66 17 126t43 92q-27 32 -43.5 91.5t-18.5 126.5q-4 105 -44.5 153t-121.5 48v57q108 0 167.5 -68.5t59.5 -190.5q0 -78 17 -121t57 -43v-106q-40 0 -57 -43t-17 -121q0 -128 -58 -193.5t-169 -65.5v57z" />
    <glyph glyph-name="asciitilde" unicode="~" horiz-adv-x="847" 
d="M495.5 237.5q-41.5 15.5 -81.5 42.5q-39 26 -78.5 43t-70.5 17q-73 0 -112 -92l-71 24q21 70 66.5 103.5t116.5 33.5q45 0 86 -14t87 -45q36 -25 73 -41t65 -16q78 0 120 82l68 -31q-26 -65 -70.5 -93.5t-118.5 -28.5q-38 0 -79.5 15.5z" />
    <glyph glyph-name="exclamdown" unicode="&#xa1;" horiz-adv-x="276" 
d="M99 482h79l10 -555h-99zM96 622q-16 16 -16 42t16 42t42 16t42 -16t16 -42t-16 -42t-42 -16t-42 16z" />
    <glyph glyph-name="cent" unicode="&#xa2;" horiz-adv-x="749" 
d="M338 -88q-135 18 -208.5 122t-73.5 265q0 109 33 196.5t96.5 142t152.5 67.5v75h67v-71q106 -3 177 -55t94 -147h-73q-20 66 -72 102t-126 39v-678q61 3 108 28.5t74 68t31 94.5h74q-6 -70 -40 -124q-35 -58 -98.5 -91.5t-148.5 -36.5v-80h-67v83zM338 643
q-98 -20 -153.5 -109.5t-55.5 -224.5q0 -138 54.5 -226.5t154.5 -107.5v668z" />
    <glyph glyph-name="sterling" unicode="&#xa3;" horiz-adv-x="600" 
d="M104 19q80 100 80 266v23h-123v74h123v135q0 68 9 105q11 43 67 67.5t153 24.5q34 0 76 -3v-68q-37 3 -69 3q-80 0 -114.5 -28t-34.5 -101v-135h172v-74h-172v-23q0 -97 -20 -161t-65 -105h354v-66h-437v66h1z" />
    <glyph glyph-name="currency" unicode="&#xa4;" horiz-adv-x="600" 
d="M66 108l66 64q-38 50 -38 116q0 72 40 125l-68 66l43 46l72 -68q50 34 118 34q70 0 120 -34l72 68l43 -46l-68 -66q38 -53 38 -120t-38 -119l68 -66l-43 -46l-71 68q-55 -35 -121 -35q-67 0 -120 33l-70 -66zM396 195q38 39 38 99t-38 98.5t-97 38.5t-97 -38.5t-38 -98.5
t38 -99t97 -39t97 39z" />
    <glyph glyph-name="yen" unicode="&#xa5;" horiz-adv-x="740" 
d="M149 57v62h185v129l-3 4h-182v62h143l-237 376h79l235 -375h2l235 375h79l-237 -376h131v-62h-170l-3 -4v-129h173v-62h-173v-128h-72v128h-185z" />
    <glyph glyph-name="section" unicode="&#xa7;" 
d="M306 -100q-55 38 -81 101l87 22q18 -36 50 -57t72 -21q42 0 72.5 24t30.5 56q0 27 -15 46.5t-44 36t-85 42.5q-92 42 -129 79.5t-37 88.5q0 50 34.5 85t86.5 40q-69 39 -95 69.5t-26 75.5q0 69 52 110.5t144 41.5q66 0 113.5 -27.5t71.5 -69.5l-73 -36q-56 55 -115 55
q-45 0 -70 -18t-25 -48q0 -23 16 -39q15 -18 45.5 -34.5t88.5 -42.5q62 -30 97 -54t51.5 -53t16.5 -68q0 -46 -22.5 -78.5t-70.5 -57.5q52 -31 72.5 -60t20.5 -74q0 -49 -24.5 -88.5t-69 -62t-102.5 -22.5q-83 0 -138 38zM522 240q15 23 15 55q0 34 -26 60q-28 25 -102 56
q-33 -3 -58.5 -29t-25.5 -56q0 -32 33 -56q29 -23 117 -62q32 9 47 32z" />
    <glyph glyph-name="dieresis" unicode="&#xa8;" horiz-adv-x="616" 
d="M396 629q-16 16 -16 42t16 42t42 16t42 -16t16 -42t-16 -42t-42 -16t-42 16zM136 629q-16 16 -16 42t16 42t42 16t42 -16t16 -42t-16 -42t-42 -16t-42 16z" />
    <glyph glyph-name="ordfeminine" unicode="&#xaa;" horiz-adv-x="424" 
d="M93 472.5q-42 48.5 -42 128.5q0 52 20.5 94t56 66t80.5 24q55 0 88 -33v24h63v-340h-57l-4 33q-37 -45 -96 -45q-67 0 -109 48.5zM268 510q26 29 28 68v73q-1 30 -24.5 54t-59.5 24q-45 0 -71.5 -34.5t-26.5 -93.5q0 -56 24.5 -88t67.5 -32q36 0 62 29z" />
    <glyph glyph-name="guillemotleft" unicode="&#xab;" horiz-adv-x="600" 
d="M248 306l212 387h72l-204 -387l204 -377h-72zM270 693h72l-204 -387l204 -377h-72l-212 377z" />
    <glyph glyph-name="registered" unicode="&#xae;" horiz-adv-x="960" 
d="M260 -87q-101 56 -159 157.5t-58 230.5q0 131 59 232q58 100 157.5 154.5t220.5 54.5q120 0 220 -54q101 -56 158.5 -157t57.5 -230q0 -132 -58 -232q-58 -101 -157.5 -156t-220.5 -55q-120 0 -220 55zM668.5 -29.5q82.5 47.5 128.5 133.5t46 197t-46 196t-128.5 132
t-188.5 47t-188.5 -47t-128.5 -132t-46 -196t46 -197t128.5 -133.5t188.5 -47.5t188.5 47.5zM467 577q112 0 170.5 -43t58.5 -127q0 -113 -107 -152l135 -229h-77l-121 215q-27 -3 -59 -3h-105v-212h-66v551h171zM473 295q157 0 157 112q0 113 -157 113h-111v-225h111z" />
    <glyph glyph-name="degree" unicode="&#xb0;" horiz-adv-x="432" 
d="M120 541q-41 38 -41 96q0 27 10.5 52.5t30.5 43.5q38 38 96 38q62 0 98 -38q19 -19 29 -44t10 -52q0 -55 -39 -96q-42 -39 -98 -39q-55 0 -96 39zM265 586.5q20 20.5 20 50.5q0 28 -20 49t-49 21q-26 0 -47.5 -21t-21.5 -49q0 -30 20 -50.5t49 -20.5t49 20.5z" />
    <glyph glyph-name="plusminus" unicode="&#xb1;" horiz-adv-x="670" 
d="M125 394v61h176v175h72v-175h174v-61h-174v-175h-72v175h-176zM51 90h568v-61h-568v61z" />
    <glyph glyph-name="uni00B2" unicode="&#xb2;" horiz-adv-x="318" 
d="M40 459q65 65 113 121q28 37 40 61t12 45q0 26 -14.5 41.5t-39.5 15.5q-28 0 -42.5 -17t-13.5 -47h-53q-4 48 27.5 80t81.5 32q46 0 76.5 -30t30.5 -75q0 -33 -16 -65t-51 -73q-30 -40 -74 -82h151v-48h-228v41z" />
    <glyph glyph-name="uni00B3" unicode="&#xb3;" horiz-adv-x="329" 
d="M74 426.5q-33 26.5 -36 71.5h51q4 -27 21.5 -39.5t49.5 -12.5q31 0 50 16.5t19 44.5q0 34 -23 52.5t-62 18.5h-54v44h48q35 0 56.5 18t21.5 46q0 25 -14.5 39.5t-40.5 14.5q-50 0 -60 -46h-50q6 41 37 66t74 25q45 0 75.5 -27.5t30.5 -69.5q0 -27 -12.5 -50.5
t-33.5 -35.5q27 -13 43 -38t16 -57q0 -46 -35 -76.5t-85 -30.5q-54 0 -87 26.5z" />
    <glyph glyph-name="acute" unicode="&#xb4;" horiz-adv-x="486" 
d="M136 520l113 257l101 -56l-148 -238z" />
    <glyph glyph-name="paragraph" unicode="&#xb6;" horiz-adv-x="960" 
d="M519 293q-86 0 -160 24q-79 24 -122 75.5t-43 125.5q0 79 46 128q43 48 115 72t164 24h166q39 0 60.5 -17t21.5 -49v-806h-95v778h-58v-778h-95v423z" />
    <glyph glyph-name="periodcentered" unicode="&#xb7;" horiz-adv-x="296" 
d="M106 299q-16 16 -16 42t16 42t42 16t42 -16t16 -42t-16 -42t-42 -16t-42 16z" />
    <glyph glyph-name="cedilla" unicode="&#xb8;" horiz-adv-x="396" 
d="M70 -189l7 45q17 -1 77 -1q28 0 40 10t12 32q0 42 -57 50q-20 3 -18 17l1 7l10 61q2 12 10 18t20 6q13 0 22.5 -8t9.5 -22l-7 -47q60 -4 94.5 -26.5t34.5 -60.5q0 -46 -42 -69t-129 -23q-41 0 -85 11z" />
    <glyph glyph-name="uni00B9" unicode="&#xb9;" horiz-adv-x="203" 
d="M38 722v38q38 6 60 18h47v-370h-54v314h-53z" />
    <glyph glyph-name="ordmasculine" unicode="&#xba;" horiz-adv-x="418" 
d="M94.5 471q-44.5 49 -44.5 128q0 51 20.5 91t56.5 62t81 22t81.5 -22t57.5 -62t21 -91q0 -53 -21.5 -93.5t-58 -62t-80.5 -21.5q-69 0 -113.5 49zM279.5 510.5q26.5 32.5 26.5 88.5t-26.5 88.5t-71.5 32.5q-43 0 -69.5 -32.5t-26.5 -88.5t26.5 -88.5t69.5 -32.5
q45 0 71.5 32.5z" />
    <glyph glyph-name="guillemotright" unicode="&#xbb;" horiz-adv-x="600" 
d="M462 306l-204 387h72l212 -387l-212 -377h-72zM272 306l-204 387h72l212 -387l-212 -377h-72z" />
    <glyph glyph-name="onequarter" unicode="&#xbc;" horiz-adv-x="709" 
d="M452 762h61l-334 -937h-61zM359 -18v40l183 300h62v-291h65v-49h-65v-87h-55v87h-190zM550 239l-123 -208h122zM59 662v41q44 9 76 23h54v-443h-60v379h-70z" />
    <glyph glyph-name="onehalf" unicode="&#xbd;" horiz-adv-x="754" 
d="M452 762h61l-334 -937h-61zM59 662v41q44 9 76 23h54v-443h-60v379h-70zM522 66l23 27q14 18 20 24q33 42 47.5 71.5t14.5 55.5q0 33 -18 52t-49 19q-32 0 -51 -20.5t-18 -54.5h-56q-2 54 33.5 89t92.5 35q53 0 87.5 -34t34.5 -86q0 -38 -18.5 -75t-59.5 -86l-95 -114
h184v-49h-261v43z" />
    <glyph glyph-name="threequarters" unicode="&#xbe;" horiz-adv-x="820" 
d="M552 762h61l-334 -937h-61zM91 317.5q-36 28.5 -41 79.5h53q7 -31 27.5 -46t58.5 -15q35 0 58 21t23 53q0 40 -27.5 62t-72.5 22h-60v45h52q42 0 67.5 21.5t25.5 55.5q0 31 -17.5 48t-47.5 17q-57 0 -71 -53h-54q9 46 43 73t82 27q51 0 85 -31t34 -79q0 -32 -15.5 -58
t-40.5 -41q33 -15 52 -43.5t19 -65.5q0 -52 -38.5 -86.5t-96.5 -34.5q-62 0 -98 28.5zM459 -18v40l183 300h62v-291h65v-49h-65v-87h-55v87h-190zM650 239l-123 -208h122z" />
    <glyph glyph-name="questiondown" unicode="&#xbf;" horiz-adv-x="547" 
d="M115 -67q-54 47 -54 124q0 49 23.5 96.5t67.5 104.5q56 70 58 135l2 68h77l-1 -68q-1 -43 -12.5 -78t-36.5 -68l-18 -24q-40 -49 -59 -83.5t-19 -67.5q0 -50 33.5 -82t90.5 -32q55 0 93.5 33t44.5 87h82q-9 -92 -66.5 -142t-153.5 -50q-98 0 -152 47zM201 583
q-16 16 -16 42t16 42t42 16t42 -16t16 -42t-16 -42t-42 -16t-42 16z" />
    <glyph glyph-name="uni212B" unicode="&#xc5;" horiz-adv-x="730" 
d="M311 524q-24 11 -45 30q-41 38 -41 96q0 49 41 96q46 38 96 38q51 0 98 -38q39 -49 39 -96q0 -55 -39 -96q-20 -18 -42 -28l277 -597h-73l-88 190h-338l-88 -190h-73zM365 486l-142 -307h284zM411 599.5q20 20.5 20 50.5q0 28 -20 49t-49 21q-26 0 -47.5 -21t-21.5 -49
q0 -30 20 -50.5t49 -20.5t49 20.5z" />
    <glyph glyph-name="uni212B" unicode="&#x212b;" horiz-adv-x="730" 
d="M311 524q-24 11 -45 30q-41 38 -41 96q0 49 41 96q46 38 96 38q51 0 98 -38q39 -49 39 -96q0 -55 -39 -96q-20 -18 -42 -28l277 -597h-73l-88 190h-338l-88 -190h-73zM365 486l-142 -307h284zM411 599.5q20 20.5 20 50.5q0 28 -20 49t-49 21q-26 0 -47.5 -21t-21.5 -49
q0 -30 20 -50.5t49 -20.5t49 20.5z" />
    <glyph glyph-name="AE" unicode="&#xc6;" horiz-adv-x="888" 
d="M345 690h493v-60h-390v-275h375v-60h-375v-306h400v-60h-472v220h-194l-94 -220h-73zM376 209v394l-1 -3l-167 -391h168z" />
    <glyph glyph-name="Eth" unicode="&#xd0;" horiz-adv-x="726" 
d="M25 295v60h85v335h216q176 0 268 -98.5t92 -282.5t-91.5 -282t-268.5 -98h-216v366h-85zM341 -10q136 0 204.5 83.5t68.5 235.5t-69 236t-204 84h-159v-274h205v-60h-205v-305h159z" />
    <glyph glyph-name="multiply" unicode="&#xd7;" horiz-adv-x="567" 
d="M242 326l-162 209h87l117 -161l116 161h87l-161 -209l161 -210h-87l-116 161l-117 -161h-87z" />
    <glyph glyph-name="Oslash" unicode="&#xd8;" horiz-adv-x="810" 
d="M254 -155l20 87q-101 39 -157.5 138t-56.5 232q0 121 42.5 213t121 143t181.5 51q24 0 46 -3l15 66l69 -1l-18 -80q109 -36 171 -141.5t62 -250.5q0 -116 -42.5 -204.5t-120.5 -137t-182 -48.5q-28 0 -66 5l-16 -70zM437 647l-33 2q-78 0 -140 -42.5t-97 -120t-35 -177.5
q0 -112 41 -195t115 -119zM549 11q62 42 95.5 119t33.5 179q0 117 -46.5 202.5t-128.5 118.5l-150 -656q30 -5 52 -5q82 0 144 42z" />
    <glyph glyph-name="Thorn" unicode="&#xde;" horiz-adv-x="636" 
d="M132 690v-130h170q150 0 227 -59.5t77 -176.5q0 -116 -78 -176t-226 -60h-170v-159h-72v761h72zM310 148q114 0 169 45.5t55 130.5t-55 130.5t-169 45.5h-178v-352h178z" />
    <glyph glyph-name="germandbls" unicode="&#xdf;" horiz-adv-x="625" 
d="M80 479q1 107 64.5 163.5t164.5 56.5q66 0 117 -24.5t79 -67.5t28 -96q0 -60 -27.5 -103.5t-81.5 -68.5q63 -25 100.5 -80.5t37.5 -124.5q0 -62 -30.5 -108.5t-86.5 -71.5t-130 -25q-40 0 -81 10v60q41 -10 78 -10q53 0 96 20t67.5 54.5t24.5 77.5q0 50 -27.5 87.5
t-76 58t-109.5 20.5h-31v54h19q89 0 140 40.5t51 109.5q0 54 -44.5 88.5t-111.5 34.5q-70 0 -114 -40t-45 -122l1 -692h-72v699z" />
    <glyph glyph-name="ae" unicode="&#xe6;" horiz-adv-x="945" 
d="M144 -56q-50 35 -77 99t-27 149t30.5 152t83 104.5t116.5 37.5q101 0 146 -83v69h72v-74q30 41 77 64.5t101 23.5q106 0 171.5 -69t68.5 -194v-41h-412q0 -101 45.5 -157t131.5 -56q59 0 99 25t56 70h76q-21 -73 -81.5 -114t-149.5 -41q-63 0 -108 22.5t-75 71.5v-74h-65
l-7 77q-51 -97 -156 -97q-66 0 -116 35zM371.5 22.5q41.5 52.5 44.5 130.5v132q-6 58 -43.5 99.5t-97.5 41.5q-48 0 -85 -28t-57.5 -81t-20.5 -125q0 -102 41 -162t112 -60q65 0 106.5 52.5zM835 242q-1 86 -47 135t-122 49q-75 0 -121 -49.5t-51 -134.5h341z" />
    <glyph glyph-name="eth" unicode="&#xf0;" horiz-adv-x="580" 
d="M159.5 -57q-53.5 34 -84 96t-30.5 143q0 80 31 142t85 96t121 34q52 0 97.5 -21t77.5 -61q-13 135 -99 198q-27 19 -43 26l-96 -92l-38 38l79 76q-57 16 -139 14l-2 53q47 1 95.5 -3.5t77.5 -13.5l15 -5l94 90l38 -38l-79 -76q84 -48 122 -144t38 -260l-1 -42v-11
q0 -81 -30.5 -143t-84.5 -96t-122 -34q-69 0 -122.5 34zM370 -4q39 25 61 72.5t22 113.5t-22 113.5t-61 72.5t-88 25t-88 -25t-61 -72.5t-22 -113.5t22 -113.5t61 -72.5t88 -25t88 25z" />
    <glyph glyph-name="divide" unicode="&#xf7;" horiz-adv-x="670" 
d="M606 355v-61h-541v61h541zM293 72q-16 16 -16 42t16 42t42 16t42 -16t16 -42t-16 -42t-42 -16t-42 16zM293 488q-16 16 -16 42t16 42t42 16t42 -16t16 -42t-16 -42t-42 -16t-42 16z" />
    <glyph glyph-name="oslash" unicode="&#xf8;" horiz-adv-x="609" 
d="M137 -32l-47 -51l-49 47l51 56q-48 75 -48 178q0 85 35 152q34 65 93 100.5t131 35.5q45 0 87 -15t75 -43l50 55l53 -45l-56 -62q50 -74 50 -178q0 -85 -33.5 -150.5t-92.5 -102t-133 -36.5q-95 0 -166 59zM399.5 -2.5q42.5 28.5 66.5 80.5t24 120q0 72 -27 126
l-281 -307q50 -48 121 -48q54 0 96.5 28.5zM422 381q-49 45 -119 45q-54 0 -96.5 -28t-66.5 -79.5t-24 -120.5q0 -73 25 -124z" />
    <glyph glyph-name="thorn" unicode="&#xfe;" horiz-adv-x="583" 
d="M137 742v-299q26 53 74.5 82.5t111.5 29.5q65 0 117.5 -35.5t82.5 -99.5t30 -146q0 -88 -31.5 -155t-87 -103.5t-126.5 -36.5q-59 0 -104 26t-67 69v-310h-72v978h72zM431 101q50 61 50 173q0 64 -20.5 114.5t-59 78.5t-89.5 28q-59 0 -106.5 -43t-68.5 -113v-174
q6 -30 28.5 -59t56 -47.5t71.5 -18.5q88 0 138 61z" />
    <glyph glyph-name="dcroat" unicode="&#x111;" horiz-adv-x="653" 
d="M160.5 -57q-54.5 34 -85 98t-30.5 151q0 83 32.5 150t89.5 105.5t128 38.5q57 0 99.5 -24t66.5 -67v195h-140v55h140v59h72v-59h100v-55h-100v-661h-65l-7 78v11q-30 -52 -75 -80.5t-101 -28.5q-70 0 -124.5 34zM371.5 -5q38.5 25 63 67t26.5 91v132q-5 35 -23 66
q-21 34 -56.5 54.5t-81.5 20.5q-54 0 -95.5 -29t-64.5 -82t-23 -123q0 -102 46.5 -162t126.5 -60q43 0 81.5 25z" />
    <glyph glyph-name="Hbar" unicode="&#x126;" horiz-adv-x="806" 
d="M27 548v60h83v82h72v-82h437v82h72v-82h88v-60h-88v-619h-72v371h-437v-371h-72v619h-83zM619 360v188h-437v-188h437z" />
    <glyph glyph-name="hbar" unicode="&#x127;" horiz-adv-x="634" 
d="M20 590v55h94v59h72v-59h146v-55h-146v-199q44 44 98.5 69.5t115.5 25.5q78 0 126 -49t48 -144v-364h-72v328q0 85 -25 126.5t-85 41.5q-53 0 -106 -28.5t-100 -77.5v-390h-72v661h-94z" />
    <glyph glyph-name="dotlessi" unicode="&#x131;" horiz-adv-x="210" 
d="M141 471v-543h-72v543h72z" />
    <glyph glyph-name="IJ" unicode="&#x132;" horiz-adv-x="843" 
d="M341.5 -27q-64.5 63 -64.5 175h72v-9q0 -79 47 -124t127 -45q79 0 123.5 48.5t44.5 135.5v536h72v-535q0 -116 -63 -180.5t-175 -64.5q-119 0 -183.5 63zM167 690v-761h-72v761h72z" />
    <glyph glyph-name="ij" unicode="&#x133;" horiz-adv-x="528" 
d="M274 -196q38 -1 58.5 6.5t29 26t8.5 53.5v582h72v-557q0 -73 -10 -106q-11 -36 -47.5 -51.5t-110.5 -13.5v60zM158 472v-543h-72v543h72zM83.5 587.5q-14.5 13.5 -14.5 34.5t14.5 35t38.5 14t38.5 -14t14.5 -35t-14.5 -34.5t-38.5 -13.5t-38.5 13.5zM367.5 587.5
q-14.5 13.5 -14.5 34.5t14.5 35t38.5 14t38.5 -14t14.5 -35t-14.5 -34.5t-38.5 -13.5t-38.5 13.5z" />
    <glyph glyph-name="kgreenlandic" unicode="&#x138;" horiz-adv-x="495" 
d="M137 472v-221l231 221h95l-249 -235l266 -308h-90l-253 302v-302h-72v543h72z" />
    <glyph glyph-name="Ldot" unicode="&#x13f;" horiz-adv-x="599" 
d="M142 690v-701h427v-60h-499v761h72zM399.5 338.5q-18.5 18.5 -18.5 46.5q0 29 18.5 47t46.5 18q29 0 47 -18t18 -47q0 -28 -18 -46.5t-47 -18.5q-28 0 -46.5 18.5z" />
    <glyph glyph-name="ldot" unicode="&#x140;" horiz-adv-x="411" 
d="M165 -80q-44 0 -59.5 23t-15.5 84v677h72v-678q0 -30 8.5 -41t32.5 -11q16 0 21 1v-47q-13 -4 -31 -6zM241.5 330.5q-17.5 17.5 -17.5 44.5t17.5 44.5t44.5 17.5t44.5 -17.5t17.5 -44.5t-17.5 -44.5t-44.5 -17.5t-44.5 17.5z" />
    <glyph glyph-name="Lslash" unicode="&#x141;" horiz-adv-x="651" 
d="M23 251v64l99 53v322h72v-283l274 148v-64l-274 -148v-354h427v-60h-499v375z" />
    <glyph glyph-name="lslash" unicode="&#x142;" horiz-adv-x="355" 
d="M215 -80q-44 0 -59.5 23t-15.5 84v362l-130 -54v71l130 54v244h72v-214l133 56v-71l-133 -56v-393q0 -30 8.5 -41t32.5 -11q16 0 21 1v-47q-13 -4 -31 -6z" />
    <glyph glyph-name="napostrophe" unicode="&#x149;" horiz-adv-x="625" 
d="M182 472l5 -81q44 44 98.5 69.5t115.5 25.5q78 0 126 -49t48 -144v-364h-72v328q0 85 -25 126.5t-85 41.5q-53 0 -106 -28.5t-100 -77.5v-390h-72v543h67zM49 628h98l-83 -201h-42z" />
    <glyph glyph-name="Eng" unicode="&#x14a;" horiz-adv-x="740" 
d="M488 -196q41 -2 61 6q20 7 27 25t7 55v39l-432 668h-2q3 -46 3 -122v-546h-72v761h83l432 -658h2q-3 47 -3 122v536h67v-775q0 -71 -11 -107q-12 -36 -49 -51t-113 -13v60z" />
    <glyph glyph-name="eng" unicode="&#x14b;" horiz-adv-x="585" 
d="M358 -196q41 -2 61 6q20 7 27 25t7 55v367q0 85 -25 126.5t-85 41.5q-53 0 -106 -28.5t-100 -77.5v-390h-72v543h67l5 -81q44 44 98.5 69.5t115.5 25.5q78 0 126 -49t48 -144v-378q0 -75 -10 -108q-11 -36 -46.5 -50.5t-110.5 -12.5v60z" />
    <glyph glyph-name="OE" unicode="&#x152;" horiz-adv-x="886" 
d="M150.5 -43.5q-57.5 49.5 -89.5 139.5t-32 206q0 117 32 210.5t90 146t131 52.5q59 0 106 -34t78 -97v110h372v-60h-300v-275h285v-60h-285v-306h310v-60h-382v97q-63 -119 -184 -119q-74 0 -131.5 49.5zM416 60q47 89 47 249q0 101 -22 177.5t-63.5 118.5t-96.5 42
q-54 0 -94 -43q-42 -44 -65.5 -121.5t-23.5 -173.5q0 -103 22 -179.5t63.5 -117.5t98.5 -41q87 0 134 89z" />
    <glyph glyph-name="oe" unicode="&#x153;" horiz-adv-x="938" 
d="M150 -55q-54 36 -85 101.5t-31 151.5q0 85 31 150.5t85 101.5t123 36q65 0 118 -33t84 -93q30 60 82 93t118 33q61 0 114 -29q52 -30 83 -90t33 -144v-41h-392q0 -99 43.5 -156t123.5 -57q110 0 145 95h76q-22 -74 -78.5 -114.5t-142.5 -40.5q-72 0 -124 31.5t-82 91.5
q-31 -59 -83.5 -91t-117.5 -32q-69 0 -123 36zM359 -3.5q38 27.5 59.5 79t21.5 122.5q0 70 -21.5 121.5t-59.5 79t-86 27.5t-86 -27.5t-59.5 -79t-21.5 -121.5q0 -71 21.5 -122.5t59.5 -79t86 -27.5t86 27.5zM834 242q-1 85 -45 134.5t-114 49.5q-69 0 -113 -50t-49 -134
h321z" />
    <glyph glyph-name="Tbar" unicode="&#x166;" horiz-adv-x="622" 
d="M70 330v60h205v240h-255v60h582v-60h-255v-240h205v-60h-205v-401h-72v401h-205z" />
    <glyph glyph-name="tbar" unicode="&#x167;" horiz-adv-x="375" 
d="M125 37v202h-90v60h90v113h-90v60h90v137h72v-137h143v-60h-143v-113h143v-60h-143v-189q0 -38 13.5 -51.5t52.5 -13.5q17 0 61 4v-60q-46 -8 -91 -8q-108 0 -108 116z" />
    <glyph glyph-name="caron" unicode="&#x2c7;" horiz-adv-x="609" 
d="M271 521l-234 137l36 57l232 -135l230 135l37 -57l-220 -131q-26 -14 -49 -14q-14 0 -32 8z" />
    <glyph glyph-name="uni02D0" unicode="&#x2d0;" horiz-adv-x="329" 
d="M47 623h235l-117 -235zM165 201l117 -235h-235z" />
    <glyph glyph-name="breve" unicode="&#x2d8;" horiz-adv-x="613" 
d="M139.5 548q-65.5 60 -86.5 166h78q18 -81 64 -124t111 -43q64 0 112.5 43.5t68.5 123.5l73 -1q-21 -105 -87.5 -165t-166.5 -60q-101 0 -166.5 60z" />
    <glyph glyph-name="dotaccent" unicode="&#x2d9;" horiz-adv-x="600" 
d="M258 628q-16 16 -16 42t16 42t42 16t42 -16t16 -42t-16 -42t-42 -16t-42 16z" />
    <glyph glyph-name="ring" unicode="&#x2da;" horiz-adv-x="456" 
d="M131 530q-41 38 -41 96q0 49 41 96q46 38 96 38q51 0 98 -38q39 -49 39 -96q0 -55 -39 -96q-42 -39 -98 -39q-55 0 -96 39zM276 575.5q20 20.5 20 50.5q0 28 -20 49t-49 21q-26 0 -47.5 -21t-21.5 -49q0 -30 20 -50.5t49 -20.5t49 20.5z" />
    <glyph glyph-name="ogonek" unicode="&#x2db;" horiz-adv-x="423" 
d="M122 -172q-37 25 -37 71q0 37 23.5 66.5t65 46.5t92.5 17l7 -43q-39 -12 -54 -26.5t-15 -41.5q0 -29 23 -39.5t73 -8.5l33 1l5 -55q-46 -9 -63 -11t-56 -2q-60 0 -97 25z" />
    <glyph glyph-name="tilde" unicode="&#x2dc;" horiz-adv-x="847" 
d="M495.5 537.5q-41.5 15.5 -81.5 42.5q-39 26 -78.5 43t-70.5 17q-73 0 -112 -92l-71 24q21 70 66.5 103.5t116.5 33.5q45 0 86 -14t87 -45q36 -25 73 -41t65 -16q78 0 120 82l68 -31q-26 -65 -70.5 -93.5t-118.5 -28.5q-38 0 -79.5 15.5z" />
    <glyph glyph-name="hungarumlaut" unicode="&#x2dd;" horiz-adv-x="554" 
d="M270 530l113 257l101 -51l-148 -238zM183 787l101 -51l-148 -238l-66 32z" />
    <glyph glyph-name="Alpha" unicode="&#x391;" horiz-adv-x="730" 
d="M335 690h60l300 -761h-73l-84 220h-346l-84 -220h-73zM515 209l-150 391l-150 -391h300z" />
    <glyph glyph-name="Beta" unicode="&#x392;" horiz-adv-x="683" 
d="M331 690q135 0 206 -47.5t71 -137.5q0 -61 -29.5 -108t-84.5 -72q149 -50 149 -183q0 -110 -67 -161.5t-217 -51.5h-279v761h251zM373 -10q199 0 199 145q0 153 -199 153h-221v-298h221zM355 349q182 0 182 146q0 68 -47 101t-145 33h-193v-280h203z" />
    <glyph glyph-name="Gamma" unicode="&#x393;" horiz-adv-x="599" 
d="M569 700v-60h-427v-701h-72v761h499z" />
    <glyph glyph-name="uni0394" unicode="&#x394;" horiz-adv-x="658" 
d="M274 689h107l235 -762h-574zM516 -13l-186 644l-187 -644h373z" />
    <glyph glyph-name="Epsilon" unicode="&#x395;" horiz-adv-x="617" 
d="M572 690v-60h-420v-275h405v-60h-405v-306h430v-60h-502v761h492z" />
    <glyph glyph-name="Zeta" unicode="&#x396;" horiz-adv-x="626" 
d="M480 630h-425l-1 60h512v-40l-440 -664q47 3 125 3h345v-60h-556v40z" />
    <glyph glyph-name="Eta" unicode="&#x397;" horiz-adv-x="741" 
d="M152 690v-330h437v330h72v-761h-72v371h-437v-371h-72v761h72z" />
    <glyph glyph-name="Theta" unicode="&#x398;" horiz-adv-x="770" 
d="M223 -42q-78 49 -120.5 138t-42.5 205q0 114 41 208t119.5 147t184.5 53q103 0 181 -51.5t121 -144.5t43 -214q0 -116 -42.5 -204.5t-120.5 -137t-182 -48.5t-182 49zM549 11q62 42 95.5 119t33.5 179q0 101 -34.5 178t-96.5 119.5t-143 42.5q-78 0 -140 -42.5t-97 -120
t-35 -177.5q0 -102 33.5 -179t95.5 -119t144 -42t144 42zM591 346v-60h-374v60h374z" />
    <glyph glyph-name="Iota" unicode="&#x399;" horiz-adv-x="262" 
d="M167 690v-761h-72v761h72z" />
    <glyph glyph-name="Kappa" unicode="&#x39a;" horiz-adv-x="640" 
d="M152 690v-350l360 350h90l-370 -367l378 -394h-96l-362 384v-384h-72v761h72z" />
    <glyph glyph-name="Lambda" unicode="&#x39b;" horiz-adv-x="730" 
d="M335 690h60l300 -761h-73l-257 671l-257 -671h-73z" />
    <glyph glyph-name="Mu" unicode="&#x39c;" horiz-adv-x="891" 
d="M182 690l263 -659h2l262 659h102v-761h-72v543q0 76 3 121h-2l-264 -664h-61l-264 664h-2q3 -45 3 -121v-543h-72v761h102z" />
    <glyph glyph-name="Nu" unicode="&#x39d;" horiz-adv-x="746" 
d="M163 690l432 -658h2q-3 47 -3 122v536h72v-761h-83l-432 668h-2q3 -46 3 -122v-546h-72v761h83z" />
    <glyph glyph-name="Xi" unicode="&#x39e;" horiz-adv-x="652" 
d="M572 700v-60h-492v60h492zM80 -12h492v-60h-492v60zM80 361h492v-60h-492v60z" />
    <glyph glyph-name="Omicron" unicode="&#x39f;" horiz-adv-x="810" 
d="M223 -42q-78 49 -120.5 138t-42.5 205q0 114 41 208t119.5 147t184.5 53q103 0 181 -51.5t121 -144.5t43 -214q0 -116 -42.5 -204.5t-120.5 -137t-182 -48.5t-182 49zM549 11q62 42 95.5 119t33.5 179q0 101 -34.5 178t-96.5 119.5t-143 42.5q-78 0 -140 -42.5t-97 -120
t-35 -177.5q0 -102 33.5 -179t95.5 -119t144 -42t144 42z" />
    <glyph glyph-name="Pi" unicode="&#x3a0;" horiz-adv-x="741" 
d="M661 701v-773h-72v713h-437v-713h-72v773h581z" />
    <glyph glyph-name="Rho" unicode="&#x3a1;" horiz-adv-x="636" 
d="M302 690q150 0 227 -59.5t77 -176.5t-77 -176.5t-227 -59.5h-170v-289h-72v761h242zM310 278q114 0 169 45.5t55 130.5t-55 130.5t-169 45.5h-178v-352h178z" />
    <glyph glyph-name="Sigma" unicode="&#x3a3;" horiz-adv-x="543" 
d="M266 308l-216 278v89h422v-61h-355l213 -263v-88l-212 -274h375v-61h-443v88z" />
    <glyph glyph-name="Tau" unicode="&#x3a4;" horiz-adv-x="622" 
d="M20 630v60h582v-60h-255v-701h-72v701h-255z" />
    <glyph glyph-name="Upsilon" unicode="&#x3a5;" horiz-adv-x="680" 
d="M25 690h79l235 -375h2l235 375h79l-279 -442v-319h-72v319z" />
    <glyph glyph-name="Phi" unicode="&#x3a6;" horiz-adv-x="597" 
d="M277 -90q-68 7 -120.5 44.5t-82 100.5t-29.5 143q0 79 30 141.5t82.5 100.5t119.5 45v115h59v-116q64 -8 115.5 -44.5t81.5 -98.5t30 -143q0 -79 -28.5 -141.5t-80 -100t-118.5 -45.5v-141h-59v140zM277 424q-72 -10 -116 -70.5t-44 -155.5t44 -156t116 -71v453zM336 -28
q70 12 112.5 72.5t42.5 153.5q0 92 -42.5 152.5t-112.5 72.5v-451z" />
    <glyph glyph-name="Chi" unicode="&#x3a7;" horiz-adv-x="670" 
d="M291 315l-251 375h81l213 -319h2l213 319h81l-251 -375l266 -386h-84l-225 330h-2l-225 -330h-84z" />
    <glyph glyph-name="Psi" unicode="&#x3a8;" horiz-adv-x="742" 
d="M335 125q-118 10 -186.5 87.5t-68.5 217.5v260h72v-251q0 -117 48.5 -179.5t134.5 -74.5v505h72v-505q83 12 133 75.5t50 178.5v251h72v-257q0 -139 -69.5 -217.5t-185.5 -90.5v-196h-72v196z" />
    <glyph glyph-name="uni03A9" unicode="&#x3a9;" horiz-adv-x="818" 
d="M272 24q-58 18 -104.5 65t-73 113.5t-26.5 143.5q0 107 42.5 191.5t120 131.5t178.5 47t178.5 -47t120 -131.5t42.5 -191.5q0 -77 -26.5 -143.5t-73 -113.5t-104.5 -65h198v-70h-277v77q97 54 152.5 134t55.5 181q0 90 -38 160q-38 68 -99 105t-129 37q-66 0 -128 -36
q-63 -38 -100.5 -107.5t-37.5 -158.5q0 -101 55.5 -181t152.5 -134v-77h-281v70h202z" />
    <glyph glyph-name="alpha" unicode="&#x3b1;" horiz-adv-x="659" 
d="M160.5 -57q-54.5 34 -85 98t-30.5 151q0 83 32.5 150t89.5 105.5t128 38.5q57 0 99.5 -24t66.5 -67v77h72v-399q0 -35 8.5 -53.5t29 -26t58.5 -6.5v-60q-58 -1 -91.5 7t-51 29.5t-22.5 61.5q-28 -56 -74 -86t-105 -30q-70 0 -124.5 34zM371.5 -5q38.5 25 63 67t26.5 91
v132q-5 35 -23 66q-21 34 -56.5 54.5t-81.5 20.5q-54 0 -95.5 -29t-64.5 -82t-23 -123q0 -102 46.5 -162t126.5 -60q43 0 81.5 25z" />
    <glyph glyph-name="beta" unicode="&#x3b2;" horiz-adv-x="569" 
d="M85 487q4 109 62 171t155 62q62 0 109.5 -24.5t73.5 -66.5t26 -93q0 -69 -34 -118.5t-92 -65.5q38 -2 71 -29.5t53 -72t20 -96.5q0 -63 -27 -111.5t-77 -75.5t-117 -27q-55 0 -99 15.5t-62 44.5v-205h-62v692zM423 40.5q45 45.5 45 116.5q0 83 -53.5 124t-149.5 41h-14
v56h14q83 0 133.5 41.5t50.5 107.5q0 60 -38 97.5t-110 37.5q-71 0 -112.5 -47.5t-41.5 -128.5v-381q5 -49 49 -79.5t109 -30.5q73 0 118 45.5z" />
    <glyph glyph-name="gamma" unicode="&#x3b3;" horiz-adv-x="542" 
d="M230 -240q-12 180 -61.5 385t-114.5 337l76 2q35 -75 68 -182.5t57 -226.5q160 160 179 411l69 -1q-9 -138 -70.5 -268.5t-162.5 -219.5q20 -118 28 -228z" />
    <glyph glyph-name="delta" unicode="&#x3b4;" horiz-adv-x="597" 
d="M171 -56.5q-59 34.5 -92.5 96t-33.5 138.5q0 95 52.5 166t137.5 93q-49 49 -49 112q0 14 2 26q8 51 46 77t88 26q22 0 39 -5q20 -6 43 -20.5t32 -27.5l-42 -34q-7 8 -21.5 17.5t-27.5 12.5q-10 3 -26 3q-35 0 -56.5 -17.5t-21.5 -54.5t29 -68t63 -40q68 -7 120.5 -44
t81 -95t28.5 -127q0 -77 -33.5 -138.5t-92.5 -96t-133 -34.5t-133 34.5zM400 -4q43 27 67 74.5t24 107.5t-24 107.5t-67 74t-96 26.5t-96 -26.5t-67 -74t-24 -107.5t24 -107.5t67 -74.5t96 -27t96 27z" />
    <glyph glyph-name="epsilon" unicode="&#x3b5;" horiz-adv-x="519" 
d="M132 -60q-43 26 -65 64t-22 78q0 69 32.5 108t89.5 52q-42 5 -69.5 43t-27.5 84q0 66 44 109t130 43q58 0 103 -23t70.5 -61.5t26.5 -82.5h-61q-4 50 -43 82t-95 32q-49 0 -80 -27t-31 -72q0 -47 43 -75.5t124 -28.5h75v-61h-100q-83 0 -123.5 -27t-40.5 -89
q0 -48 37 -80.5t101 -32.5q65 0 113.5 33t54.5 91h71q-10 -84 -76 -135t-165 -51q-69 0 -116 27z" />
    <glyph glyph-name="zeta" unicode="&#x3b6;" horiz-adv-x="513" 
d="M315 -137l32 100q-6 -1 -26 -1q-65 0 -120 24t-90.5 66.5t-44.5 96.5q-5 35 -5 57q0 128 90 240t233 196h-334v60h405l18 -57q-103 -73 -174 -135q-76 -68 -121 -143t-45 -155q0 -29 4 -49q12 -69 70 -105t142 -36q35 0 70 7l12 -13l-52 -171z" />
    <glyph glyph-name="eta" unicode="&#x3b7;" horiz-adv-x="595" 
d="M453 257q0 85 -25 126.5t-85 41.5q-53 0 -106 -28.5t-100 -77.5v-390h-72v543h67l5 -81q44 44 98.5 69.5t115.5 25.5q78 0 126 -49t48 -144v-494h-72v458z" />
    <glyph glyph-name="theta" unicode="&#x3b8;" horiz-adv-x="577" 
d="M117 14q-65 105 -65 295t65 295t184 105q118 0 183 -104.5t65 -295.5t-65 -295.5t-183 -104.5q-119 0 -184 105zM426.5 50q45.5 81 50.5 229h-353q5 -149 50.5 -229.5t126.5 -80.5q80 0 125.5 81zM477 339q-5 148 -50.5 229t-125.5 81q-81 0 -126.5 -80.5t-50.5 -229.5
h353z" />
    <glyph glyph-name="iota" unicode="&#x3b9;" horiz-adv-x="247" 
d="M165 -80q-44 0 -59.5 23t-15.5 84v473h72v-474q0 -30 8.5 -41t32.5 -11q16 0 21 1v-47q-13 -4 -31 -6z" />
    <glyph glyph-name="kappa" unicode="&#x3ba;" horiz-adv-x="495" 
d="M137 502v-251l231 221h95l-249 -235l266 -308h-90l-253 302v-302h-72v573h72z" />
    <glyph glyph-name="lambda" unicode="&#x3bb;" horiz-adv-x="509" 
d="M30 -72q9 138 70.5 269t162.5 220q-31 164 -38 286h68q12 -193 63 -410t123 -362l-76 -2q-31 65 -63.5 173t-60.5 237q-161 -159 -180 -412z" />
    <glyph glyph-name="uni03BC" unicode="&#x3bc;" horiz-adv-x="585" 
d="M125 472v-363q0 -56 38 -95t96 -39q54 0 108 35t86 92v370h72v-543h-67l-5 78v14q-89 -107 -204 -107q-76 0 -124 58v-163h-72v663h72z" />
    <glyph glyph-name="nu" unicode="&#x3bd;" horiz-adv-x="556" 
d="M25 472h73l181 -458q152 232 179 458h73q-28 -252 -223 -543h-70z" />
    <glyph glyph-name="xi" unicode="&#x3be;" horiz-adv-x="449" 
d="M290 -130l30 95q-15 -4 -40 -4q-58 0 -105.5 25.5t-75 71.5t-27.5 104q0 75 40 126t106 71q-33 21 -54 59.5t-21 81.5q0 41 18 79t55 68h-166v50h362l7 -40q-95 -3 -156.5 -41.5t-61.5 -106.5q0 -52 33 -86t86 -43v-49q-191 -20 -191 -169q0 -68 45 -108t123 -40
q35 0 84 11l12 -12l-47 -162z" />
    <glyph glyph-name="omicron" unicode="&#x3bf;" horiz-adv-x="608" 
d="M171 -54.5q-59 36.5 -92.5 102t-33.5 150.5t35 152q34 65 93 100.5t131 35.5t131 -35q60 -37 94 -102.5t34 -150.5t-33.5 -150.5t-92.5 -102t-133 -36.5t-133 36.5zM400.5 -2.5q42.5 28.5 66.5 80.5t24 120q0 69 -24 120.5t-66.5 79.5t-96.5 28t-96.5 -28t-66.5 -79.5
t-24 -120.5q0 -68 24 -120t66.5 -80.5t96.5 -28.5t96.5 28.5z" />
    <glyph glyph-name="pi" unicode="&#x3c0;" horiz-adv-x="622" 
d="M569 -73q-79 -2 -111 14q-35 15 -46 48.5t-11 108.5v332h-174v-501h-72v501h-135v60h582v-60h-129v-357q0 -35 8.5 -53.5t29 -26t58.5 -6.5v-60z" />
    <glyph glyph-name="rho" unicode="&#x3c1;" horiz-adv-x="617" 
d="M65 224q5 119 71.5 190t176.5 71q64 0 120 -35q56 -36 88 -100t32 -146q0 -88 -31.5 -155t-87 -103.5t-126.5 -36.5q-61 0 -106.5 25t-67.5 69v-259h-69v480zM431 31q50 61 50 173q0 65 -23.5 115.5t-64.5 78t-91 27.5q-47 0 -84.5 -27t-59.5 -77t-24 -117v-109
q6 -29 29.5 -58.5t57.5 -48t72 -18.5q88 0 138 61z" />
    <glyph glyph-name="sigma" unicode="&#x3c3;" horiz-adv-x="671" 
d="M141 -2q-58 32 -88.5 86t-30.5 121q0 111 67 177t184 71h378v-69h-183q38 -22 59 -67t21 -107q0 -72 -31 -127.5t-91 -86.5t-143 -31t-142 33zM436 85.5q51 48.5 51 139.5q0 37 -14.5 71.5t-37.5 58t-47 29.5h-95q-100 -3 -155.5 -48.5t-55.5 -119.5q0 -82 54 -130.5
t147 -48.5q102 0 153 48.5z" />
    <glyph glyph-name="tau" unicode="&#x3c4;" horiz-adv-x="412" 
d="M339 -73q-79 -2 -111 14q-35 15 -46 48.5t-11 108.5v332h-151v60h372v-60h-149v-357q0 -35 8.5 -53.5t29 -26t58.5 -6.5v-60z" />
    <glyph glyph-name="upsilon" unicode="&#x3c5;" horiz-adv-x="567" 
d="M236 -66q-87 10 -131.5 71t-44.5 190v297h72v-291q0 -104 35.5 -153.5t100.5 -49.5q48 0 85 34t54 85q11 36 18 89.5t7 111.5q0 95 -18 174h71q18 -88 18 -186q0 -112 -24 -192q-53 -182 -207 -182q-20 0 -36 2z" />
    <glyph glyph-name="phi" unicode="&#x3c6;" horiz-adv-x="597" 
d="M277 -90q-68 7 -120.5 44.5t-82 100.5t-29.5 143q0 79 30 141.5t82.5 100.5t119.5 45v115h59v-116q64 -8 115.5 -44.5t81.5 -98.5t30 -143q0 -79 -28.5 -141.5t-80 -100t-118.5 -45.5v-141h-59v140zM277 424q-72 -10 -116 -70.5t-44 -155.5t44 -156t116 -71v453zM336 -28
q70 12 112.5 72.5t42.5 153.5q0 92 -42.5 152.5t-112.5 72.5v-451z" />
    <glyph glyph-name="chi" unicode="&#x3c7;" horiz-adv-x="520" 
d="M214 152l-181 320h78l149 -266l149 266h78l-181 -320l194 -337h-84l-156 283l-156 -283h-84z" />
    <glyph glyph-name="psi" unicode="&#x3c8;" horiz-adv-x="742" 
d="M335 -75q-118 10 -186.5 87.5t-68.5 217.5v239h72v-230q0 -117 48.5 -179.5t134.5 -74.5v484h72v-484q83 12 133 75.5t50 178.5q0 48 -9 96t-31 134h72q22 -89 31 -137.5t9 -98.5q0 -139 -69.5 -217.5t-185.5 -90.5v-146h-72v146z" />
    <glyph glyph-name="omega" unicode="&#x3c9;" horiz-adv-x="767" 
d="M164 -44q-38 22 -65 73.5t-33 129.5q-4 31 -4 84q0 128 31 222h68q-26 -93 -26 -216q0 -44 3 -80q7 -75 33.5 -117t68.5 -42q45 0 72.5 48.5t36.5 135.5q3 30 3 69l-2 72h71q-1 -12 -1 -58q0 -42 2 -68q5 -96 31 -147.5t71 -51.5q42 0 72.5 40t36.5 106q4 41 4 84
q0 121 -27 224l65 1q30 -103 30 -217q0 -54 -6 -111q-23 -209 -186 -197q-48 3 -83 39t-44 93q-3 -36 -23.5 -67.5t-54 -50.5t-71.5 -19q-37 0 -73 21z" />
    <glyph glyph-name="uni0401" unicode="&#x401;" horiz-adv-x="669" 
d="M572 690v-60h-420v-275h405v-60h-405v-306h430v-60h-502v761h492zM171 768q-18 18 -18 43q0 26 18 43.5t44 17.5q25 0 42.5 -17.5t17.5 -43.5q0 -25 -17.5 -43t-42.5 -18q-26 0 -44 18zM427 768q-18 18 -18 43q0 26 18 43.5t43 17.5q26 0 43.5 -17.5t17.5 -43.5
q0 -25 -17.5 -43t-43.5 -18q-25 0 -43 18z" />
    <glyph glyph-name="uni0410" unicode="&#x410;" horiz-adv-x="730" 
d="M335 690h60l300 -761h-73l-84 220h-346l-84 -220h-73zM515 209l-150 391l-150 -391h300z" />
    <glyph glyph-name="uni0411" unicode="&#x411;" horiz-adv-x="683" 
d="M589 690v-60h-437v-281h223q97 0 157 -30q57 -29 84 -74.5t27 -102.5q0 -110 -67 -161.5t-217 -51.5h-279v761h509zM373 -10q199 0 199 145q0 153 -199 153h-221v-298h221z" />
    <glyph glyph-name="uni0412" unicode="&#x412;" horiz-adv-x="683" 
d="M331 690q135 0 206 -47.5t71 -137.5q0 -61 -29.5 -108t-84.5 -72q149 -50 149 -183q0 -110 -67 -161.5t-217 -51.5h-279v761h251zM373 -10q199 0 199 145q0 153 -199 153h-221v-298h221zM355 349q182 0 182 146q0 68 -47 101t-145 33h-193v-280h203z" />
    <glyph glyph-name="uni0413" unicode="&#x413;" horiz-adv-x="599" 
d="M569 700v-60h-427v-701h-72v761h499z" />
    <glyph glyph-name="uni0414" unicode="&#x414;" horiz-adv-x="760" 
d="M115 77q42 144 63 298t19 302v55h457v-655h61v-232h-73v167h-524v-167h-73v232h70zM578 662h-307q1 -13 1 -57q0 -133 -18.5 -269t-54.5 -259h379v585z" />
    <glyph glyph-name="uni0415" unicode="&#x415;" horiz-adv-x="617" 
d="M572 690v-60h-420v-275h405v-60h-405v-306h430v-60h-502v761h492z" />
    <glyph glyph-name="uni0416" unicode="&#x416;" horiz-adv-x="766" 
d="M278 323l-240 367h80l228 -341v341h72v-344l230 344h80l-240 -367l248 -394h-86l-232 377v-377h-72v374l-230 -374h-86z" />
    <glyph glyph-name="uni0417" unicode="&#x417;" horiz-adv-x="620" 
d="M116 9.5q-64 40.5 -78 112.5h72q13 -47 55 -69t117 -22q76 0 123.5 34.5t47.5 92.5q0 68 -57 106.5t-147 38.5h-100v59h84q57 0 100.5 18t67 48.5t23.5 69.5q0 53 -37 81.5t-103 28.5q-116 0 -144 -76h-71q18 63 77 100.5t139 37.5q62 0 110 -22.5t74.5 -61t26.5 -85.5
q0 -56 -33 -98t-88 -64v-6q69 -21 109.5 -66.5t40.5 -108.5q0 -54 -31.5 -97t-87 -67.5t-123.5 -24.5q-103 0 -167 40.5z" />
    <glyph glyph-name="uni0418" unicode="&#x418;" horiz-adv-x="746" 
d="M152 690v-536q0 -75 -3 -122h2l432 658h83v-761h-72v546q0 76 3 122h-2l-432 -668h-83v761h72z" />
    <glyph glyph-name="uni0419" unicode="&#x419;" horiz-adv-x="746" 
d="M152 690v-536q0 -75 -3 -122h2l432 658h83v-761h-72v546q0 76 3 122h-2l-432 -668h-83v761h72zM270.5 653q-38.5 31 -53.5 81l56 2q10 -30 36 -48t57 -18t55.5 18t34.5 48l56 -2q-16 -47 -56 -79.5t-92 -32.5q-55 0 -93.5 31z" />
    <glyph glyph-name="uni041A" unicode="&#x41a;" horiz-adv-x="625" 
d="M152 690v-350l360 350h90l-370 -367l378 -394h-96l-362 384v-384h-72v761h72z" />
    <glyph glyph-name="uni041B" unicode="&#x41b;" horiz-adv-x="752" 
d="M45 -13q38 -1 58.5 6.5t29 26t8.5 53.5v627h551v-772h-72v712h-407v-542q0 -73 -10 -106q-11 -36 -47.5 -51.5t-110.5 -13.5v60z" />
    <glyph glyph-name="uni041C" unicode="&#x41c;" horiz-adv-x="891" 
d="M182 690l263 -659h2l262 659h102v-761h-72v543q0 76 3 121h-2l-264 -664h-61l-264 664h-2q3 -45 3 -121v-543h-72v761h102z" />
    <glyph glyph-name="uni041D" unicode="&#x41d;" horiz-adv-x="741" 
d="M152 690v-330h437v330h72v-761h-72v371h-437v-371h-72v761h72z" />
    <glyph glyph-name="uni041E" unicode="&#x41e;" horiz-adv-x="810" 
d="M223 -42q-78 49 -120.5 138t-42.5 205q0 114 41 208t119.5 147t184.5 53q103 0 181 -51.5t121 -144.5t43 -214q0 -116 -42.5 -204.5t-120.5 -137t-182 -48.5t-182 49zM549 11q62 42 95.5 119t33.5 179q0 101 -34.5 178t-96.5 119.5t-143 42.5q-78 0 -140 -42.5t-97 -120
t-35 -177.5q0 -102 33.5 -179t95.5 -119t144 -42t144 42z" />
    <glyph glyph-name="uni041F" unicode="&#x41f;" horiz-adv-x="711" 
d="M631 700v-772h-72v712h-407v-712h-72v772h551z" />
    <glyph glyph-name="uni0420" unicode="&#x420;" horiz-adv-x="636" 
d="M302 690q150 0 227 -59.5t77 -176.5t-77 -176.5t-227 -59.5h-170v-289h-72v761h242zM310 278q114 0 169 45.5t55 130.5t-55 130.5t-169 45.5h-178v-352h178z" />
    <glyph glyph-name="uni0421" unicode="&#x421;" horiz-adv-x="741" 
d="M211 -40q-75 50 -113 137t-38 203q0 122 40 214.5t116 143.5t180 51q110 0 185.5 -52.5t98.5 -149.5h-73q-20 70 -76.5 105.5t-135.5 35.5t-138 -41.5t-91.5 -118.5t-32.5 -179q0 -103 31 -179.5t90 -118t141 -41.5q70 0 119 27q49 26 76.5 69t31.5 95h74
q-6 -70 -42 -127q-37 -59 -103.5 -92t-155.5 -33q-109 0 -184 51z" />
    <glyph glyph-name="uni0422" unicode="&#x422;" horiz-adv-x="622" 
d="M20 630v60h582v-60h-255v-701h-72v701h-255z" />
    <glyph glyph-name="uni0423" unicode="&#x423;" horiz-adv-x="570" 
d="M68 -9q67 0 107 37.5t73 125.5l-223 533h76l180 -450l169 450h75l-222 -572q-28 -72 -57 -111q-30 -39 -73 -56t-112 -17h-11v60h18z" />
    <glyph glyph-name="uni0424" unicode="&#x424;" horiz-adv-x="870" 
d="M374 32q-100 7 -173 43.5t-112 98.5t-39 143q0 77 40.5 138.5t113.5 99.5t170 46v89h70v-87q101 -4 175 -41t113.5 -100t39.5 -145q0 -83 -38.5 -146.5t-112.5 -100t-177 -40.5v-100h-70v102zM374 535q-74 -6 -131 -36.5t-88.5 -78t-31.5 -104.5q0 -93 66 -151t185 -67
v437zM444 98q80 4 138.5 32.5t90 76.5t31.5 110q0 58 -32 105t-90.5 77t-137.5 36v-437z" />
    <glyph glyph-name="uni0425" unicode="&#x425;" horiz-adv-x="670" 
d="M291 315l-251 375h81l213 -319h2l213 319h81l-251 -375l266 -386h-84l-225 330h-2l-225 -330h-84z" />
    <glyph glyph-name="uni0426" unicode="&#x426;" horiz-adv-x="785" 
d="M70 -71v761h72v-701h375v701h72v-701h136v-216h-72v156h-583z" />
    <glyph glyph-name="uni0427" unicode="&#x427;" horiz-adv-x="590" 
d="M438 241q-44 -44 -98.5 -69.5t-115.5 -25.5q-78 0 -126 49t-48 144v364h72v-328q0 -85 25 -126.5t85 -41.5q53 0 106 28.5t100 77.5v390h72v-775h-72v313z" />
    <glyph glyph-name="uni0428" unicode="&#x428;" horiz-adv-x="776" 
d="M142 690v-701h220v701h72v-701h223v701h72v-761h-659v761h72z" />
    <glyph glyph-name="uni0429" unicode="&#x429;" horiz-adv-x="923" 
d="M70 -71v761h72v-701h226v701h72v-701h217v701h72v-701h136v-216h-72v156h-723z" />
    <glyph glyph-name="uni042A" unicode="&#x42a;" horiz-adv-x="773" 
d="M37 630v60h215v-341h223q97 0 157 -30q57 -29 84 -74.5t27 -102.5q0 -110 -67 -161.5t-217 -51.5h-279v701h-143zM473 -10q199 0 199 145q0 153 -199 153h-221v-298h221z" />
    <glyph glyph-name="uni042B" unicode="&#x42b;" horiz-adv-x="893" 
d="M152 690v-341h223q97 0 157 -30q57 -29 84 -74.5t27 -102.5q0 -110 -67 -161.5t-217 -51.5h-279v761h72zM373 -10q199 0 199 145q0 153 -199 153h-221v-298h221zM823 690v-761h-72v761h72z" />
    <glyph glyph-name="uni042C" unicode="&#x42c;" horiz-adv-x="673" 
d="M152 690v-341h223q97 0 157 -30q57 -29 84 -74.5t27 -102.5q0 -110 -67 -161.5t-217 -51.5h-279v761h72zM373 -10q199 0 199 145q0 153 -199 153h-221v-298h221z" />
    <glyph glyph-name="uni042D" unicode="&#x42d;" horiz-adv-x="726" 
d="M194 -57q-65 33 -101.5 90t-42.5 128h74q5 -52 32 -94q28 -45 78 -71t117 -26q116 0 184.5 81.5t76.5 221.5h-405v70h405q-5 92 -38 161t-90.5 106.5t-132.5 37.5q-79 0 -135.5 -35.5t-76.5 -105.5h-73q23 97 98.5 149.5t185.5 52.5q104 0 180 -51t116 -143.5t40 -214.5
q0 -115 -37 -202q-38 -89 -114.5 -139t-183.5 -50q-92 0 -157 34z" />
    <glyph glyph-name="uni042E" unicode="&#x42e;" horiz-adv-x="908" 
d="M438 -44q-62 47 -97 132t-38 195h-166v-354h-72v775h72v-351h168q7 106 43.5 186.5t96 125t135.5 44.5q84 0 145 -54q60 -53 91.5 -145.5t31.5 -210.5q0 -115 -32 -203t-92.5 -137.5t-143.5 -49.5q-80 0 -142 47zM684.5 11.5q44.5 42.5 69 120t24.5 177.5
q0 99 -25.5 176.5t-70.5 120.5t-103 43q-56 0 -103 -43t-75 -120.5t-28 -176.5q0 -100 26.5 -177.5t73.5 -120t107 -42.5t104.5 42.5z" />
    <glyph glyph-name="uni042F" unicode="&#x42f;" horiz-adv-x="674" 
d="M212 258q-154 48 -154 206q0 112 78.5 169t229.5 57h228v-761h-72v309h-156q-46 0 -87 6l-169 -315h-84zM522 630h-164q-115 0 -171.5 -43t-56.5 -123t56.5 -123t171.5 -43h164v332z" />
    <glyph glyph-name="uni0430" unicode="&#x430;" horiz-adv-x="598" 
d="M154 -57q-52 34 -80.5 97.5t-28.5 151.5q0 86 31 153t84.5 104t119.5 37q55 0 103 -26.5t78 -73.5v86h72v-543h-65l-7 97q-61 -117 -186 -117q-69 0 -121 34zM391 20q52 50 70 126v136q-21 60 -71 102t-105 42q-50 0 -88 -29t-59 -82t-21 -123q0 -102 43 -162t117 -60
q62 0 114 50z" />
    <glyph glyph-name="uni0431" unicode="&#x431;" horiz-adv-x="564" 
d="M159.5 -57q-53.5 34 -84 96t-30.5 143v46q0 115 23 195q23 76 74 128.5t140 92.5q30 14 48.5 29t30.5 39l61 -26q-19 -34 -43 -52.5t-73 -41.5q-44 -20 -70 -39q-105 -76 -122 -173q32 36 75.5 55t92.5 19q67 0 121 -34t85 -96t31 -142q0 -81 -30.5 -143t-84.5 -96
t-122 -34q-69 0 -122.5 34zM370 -4q39 25 61 72.5t22 113.5t-22 113.5t-61 72.5t-88 25t-88 -25t-61 -72.5t-22 -113.5t22 -113.5t61 -72.5t88 -25t88 25z" />
    <glyph glyph-name="uni0432" unicode="&#x432;" horiz-adv-x="513" 
d="M264 478q98 0 142 -33t44 -102q0 -45 -19.5 -77.5t-54.5 -44.5q51 -15 76.5 -53.5t25.5 -89.5q0 -81 -47 -118t-152 -37h-230v555h215zM282 -22q124 0 124 102q0 47 -32.5 75t-91.5 28h-160v-205h160zM259 238q55 0 87 25.5t32 72.5q0 44 -31 65.5t-88 21.5h-137v-185
h137z" />
    <glyph glyph-name="uni0433" unicode="&#x433;" horiz-adv-x="499" 
d="M469 500v-60h-327v-501h-72v561h399z" />
    <glyph glyph-name="uni0434" unicode="&#x434;" horiz-adv-x="623" 
d="M96 -2q28 111 40.5 217t12.5 237v48h391v-502h48v-163h-60v113h-429v-113h-64v163h61zM481 -2v454l-265 -1q-7 -160 -18.5 -261t-34.5 -193z" />
    <glyph glyph-name="uni0435" unicode="&#x435;" horiz-adv-x="594" 
d="M113.5 -14q-68.5 77 -68.5 212q0 85 32 150.5t90 101.5t132 36q67 0 123 -29q58 -30 91.5 -90t35.5 -144v-41h-432q0 -98 49.5 -155.5t137.5 -57.5q66 0 107.5 24.5t57.5 70.5h76q-22 -73 -84 -114t-157 -41q-122 0 -190.5 77zM478 242q-3 85 -52.5 134.5t-126.5 49.5
t-126.5 -50.5t-54.5 -133.5h360z" />
    <glyph glyph-name="uni0436" unicode="&#x436;" horiz-adv-x="645" 
d="M231 237l-189 235h75l168 -215v223h72v-227l171 219h75l-189 -235l206 -308h-70l-193 299v-299h-72v294l-190 -294h-70z" />
    <glyph glyph-name="uni0437" unicode="&#x437;" horiz-adv-x="543" 
d="M114.5 -39q-61.5 43 -74.5 118h78q15 -49 54 -76.5t96 -27.5q68 0 106.5 31.5t38.5 82.5q0 61 -43.5 89t-127.5 28h-90v57h65q86 0 128 28t42 88q0 37 -32 60t-82 23q-47 0 -80.5 -24.5t-41.5 -63.5h-75q12 64 66.5 105t131.5 41q58 0 102 -18t68 -49t24 -67
q0 -59 -30 -97.5t-85 -47.5q140 -38 140 -155q0 -49 -27 -87t-77.5 -59.5t-118.5 -21.5q-94 0 -155.5 43z" />
    <glyph glyph-name="uni0438" unicode="&#x438;" horiz-adv-x="646" 
d="M152 510v-346q0 -75 -3 -122h2l332 468h83v-581h-72v356q0 76 3 122h-2l-332 -478h-83v581h72z" />
    <glyph glyph-name="uni0439" unicode="&#x439;" horiz-adv-x="646" 
d="M152 510v-346q0 -75 -3 -122h2l332 468h83v-581h-72v356q0 76 3 122h-2l-332 -478h-83v581h72zM240.5 533q-38.5 31 -53.5 81l56 2q10 -30 36 -48t57 -18t55.5 18t34.5 48l56 -2q-16 -47 -56 -79.5t-92 -32.5q-55 0 -93.5 31z" />
    <glyph glyph-name="uni043A" unicode="&#x43a;" horiz-adv-x="495" 
d="M137 502v-251l231 221h95l-249 -235l266 -308h-90l-253 302v-302h-72v573h72z" />
    <glyph glyph-name="uni043B" unicode="&#x43b;" horiz-adv-x="682" 
d="M45 -13q38 -1 58.5 6.5t29 26t8.5 53.5v397h471v-542h-72v482h-327v-312q0 -73 -10 -106q-11 -36 -47.5 -51.5t-110.5 -13.5v60z" />
    <glyph glyph-name="uni043C" unicode="&#x43c;" horiz-adv-x="758" 
d="M156 500l224 -474l222 474h96v-571h-71v387q0 57 3 91h-2l-223 -478h-52l-223 478h-2q3 -34 3 -91v-387h-71v571h96z" />
    <glyph glyph-name="uni043D" unicode="&#x43d;" horiz-adv-x="642" 
d="M152 500v-240h337v240h72v-571h-72v271h-337v-271h-72v571h72z" />
    <glyph glyph-name="uni043E" unicode="&#x43e;" horiz-adv-x="608" 
d="M171 -54.5q-59 36.5 -92.5 102t-33.5 150.5t35 152q34 65 93 100.5t131 35.5t131 -35q60 -37 94 -102.5t34 -150.5t-33.5 -150.5t-92.5 -102t-133 -36.5t-133 36.5zM400.5 -2.5q42.5 28.5 66.5 80.5t24 120q0 69 -24 120.5t-66.5 79.5t-96.5 28t-96.5 -28t-66.5 -79.5
t-24 -120.5q0 -68 24 -120t66.5 -80.5t96.5 -28.5t96.5 28.5z" />
    <glyph glyph-name="uni043F" unicode="&#x43f;" horiz-adv-x="631" 
d="M551 470v-542h-72v482h-327v-482h-72v542h471z" />
    <glyph glyph-name="uni0440" unicode="&#x440;" horiz-adv-x="598" 
d="M130 472l7 -78v-10q87 101 197 101q61 0 110 -34q51 -34 80 -98.5t29 -148.5q0 -92 -31 -158q-30 -66 -83.5 -101.5t-120.5 -35.5q-57 0 -103.5 25t-77.5 70v-260h-72v728h65zM433.5 31q47.5 61 47.5 173q0 63 -19.5 113.5t-54.5 79t-78 28.5q-53 0 -107.5 -36.5
t-84.5 -90.5v-198q6 -30 31 -60.5t61 -50t74 -19.5q83 0 130.5 61z" />
    <glyph glyph-name="uni0441" unicode="&#x441;" horiz-adv-x="586" 
d="M168.5 -56q-59.5 35 -91.5 100t-32 154q0 83 33 148.5t92.5 102.5t137.5 37q61 0 110.5 -23.5t80 -65.5t37.5 -95h-73q-7 56 -50.5 90t-104.5 34q-55 0 -98.5 -27.5t-68 -79t-24.5 -121.5q0 -107 50.5 -168t140.5 -61q68 0 111.5 35t48.5 97h73q-8 -90 -70.5 -141
t-162.5 -51q-80 0 -139.5 35z" />
    <glyph glyph-name="uni0442" unicode="&#x442;" horiz-adv-x="622" 
d="M20 430v60h582v-60h-255v-501h-72v501h-255z" />
    <glyph glyph-name="uni0443" unicode="&#x443;" horiz-adv-x="550" 
d="M68 -196q67 0 107 38t72 125l-222 505h76l180 -420h1l168 420h75l-222 -542q-27 -69 -58 -111q-30 -40 -72.5 -57.5t-111.5 -17.5h-11v60h18z" />
    <glyph glyph-name="uni0444" unicode="&#x444;" horiz-adv-x="608" 
d="M277 -90q-68 7 -120.5 44.5t-82 100.5t-29.5 143q0 79 30 141.5t82.5 100.5t119.5 45v245h59v-246q64 -8 115.5 -44.5t81.5 -98.5t30 -143q0 -79 -28.5 -141.5t-80 -100t-118.5 -45.5v-111h-59v110zM277 424q-72 -10 -116 -70.5t-44 -155.5t44 -156t116 -71v453zM336 -28
q70 12 112.5 72.5t42.5 153.5q0 92 -42.5 152.5t-112.5 72.5v-451z" />
    <glyph glyph-name="uni0445" unicode="&#x445;" horiz-adv-x="520" 
d="M214 207l-181 265h78l148 -219h2l148 219h78l-181 -265l194 -279h-84l-155 233h-2l-155 -233h-84z" />
    <glyph glyph-name="uni0446" unicode="&#x446;" horiz-adv-x="765" 
d="M70 -71v571h72v-511h375v511h72v-511h136v-216h-72v156h-583z" />
    <glyph glyph-name="uni0447" unicode="&#x447;" horiz-adv-x="560" 
d="M408 166q-81 -90 -194 -90q-75 0 -119.5 48.5t-44.5 144.5v231h72v-195q0 -89 21 -128.5t79 -39.5q98 0 186 99v264h72v-572h-72v238z" />
    <glyph glyph-name="uni0448" unicode="&#x448;" horiz-adv-x="778" 
d="M142 500v-511h220v511h72v-511h223v511h72v-571h-659v571h72z" />
    <glyph glyph-name="uni0449" unicode="&#x449;" horiz-adv-x="905" 
d="M70 -71v571h72v-511h226v511h72v-511h217v511h72v-511h136v-216h-72v156h-723z" />
    <glyph glyph-name="uni044A" unicode="&#x44a;" horiz-adv-x="583" 
d="M23 410v60h164v-222h162q194 0 194 -160q0 -82 -46.5 -121t-147.5 -39h-225v482h-101zM357 -12q124 0 124 102q0 46 -32.5 72t-91.5 26h-170v-200h170z" />
    <glyph glyph-name="uni044B" unicode="&#x44b;" horiz-adv-x="701" 
d="M124 470v-222h155q194 0 194 -160q0 -82 -46.5 -121t-147.5 -39h-225v542h70zM287 -12q124 0 124 102q0 46 -32.5 72t-91.5 26h-163v-200h163zM631 470v-542h-72v542h72z" />
    <glyph glyph-name="uni044C" unicode="&#x44c;" horiz-adv-x="503" 
d="M117 470v-222h162q194 0 194 -160q0 -82 -46.5 -121t-147.5 -39h-225v542h63zM287 -12q124 0 124 102q0 46 -32.5 72t-91.5 26h-170v-200h170z" />
    <glyph glyph-name="uni044D" unicode="&#x44d;" horiz-adv-x="577" 
d="M111.5 -40q-62.5 51 -70.5 141h73q5 -62 48.5 -97t111.5 -35q84 0 133.5 52.5t56.5 147.5h-269v56h269q-7 93 -58.5 147t-131.5 54q-61 0 -104.5 -34t-50.5 -90h-73q7 53 37.5 95t80 65.5t110.5 23.5q78 0 137.5 -37t92.5 -102.5t33 -148.5q0 -89 -32 -154t-91.5 -100
t-139.5 -35q-100 0 -162.5 51z" />
    <glyph glyph-name="uni044E" unicode="&#x44e;" horiz-adv-x="783" 
d="M406.5 -57.5q-51.5 33.5 -81 97t-30.5 149.5h-153v-260h-72v551h72v-235h156q8 71 39.5 125.5t80.5 85t106 30.5q63 0 112.5 -36.5t78 -102t28.5 -149.5q0 -134 -58.5 -211.5t-160.5 -77.5q-66 0 -117.5 33.5zM636 29.5q40 60.5 40 168.5q0 68 -19.5 119.5t-54 80
t-78.5 28.5q-43 0 -79 -27.5t-57 -79.5t-21 -121q0 -107 42.5 -168t114.5 -61t112 60.5z" />
    <glyph glyph-name="uni044F" unicode="&#x44f;" horiz-adv-x="527" 
d="M157 171q-121 37 -121 158q0 87 64.5 131t187.5 44h189v-576h-65v226h-124q-45 0 -70 4l-127 -230h-76zM412 447h-131q-176 0 -176 -118t176 -118h131v236z" />
    <glyph glyph-name="uni0451" unicode="&#x451;" horiz-adv-x="603" 
d="M113.5 -14q-68.5 77 -68.5 212q0 85 32 150.5t90 101.5t132 36q67 0 123 -29q58 -30 91.5 -90t35.5 -144v-41h-432q0 -98 49.5 -155.5t137.5 -57.5q66 0 107.5 24.5t57.5 70.5h76q-22 -73 -84 -114t-157 -41q-122 0 -190.5 77zM478 242q-3 85 -52.5 134.5t-126.5 49.5
t-126.5 -50.5t-54.5 -133.5h360zM132 548q-18 18 -18 43q0 26 18 43.5t44 17.5q25 0 42.5 -17.5t17.5 -43.5q0 -25 -17.5 -43t-42.5 -18q-26 0 -44 18zM388 548q-18 18 -18 43q0 26 18 43.5t43 17.5q26 0 43.5 -17.5t17.5 -43.5q0 -25 -17.5 -43t-43.5 -18q-25 0 -43 18z
" />
    <glyph glyph-name="uni2010" unicode="&#x2010;" horiz-adv-x="527" 
d="M497 369v-54h-467v54h467z" />
    <glyph glyph-name="emdash" unicode="&#x2014;" horiz-adv-x="1000" 
d="M970 369v-54h-940v54h940z" />
    <glyph glyph-name="uni2015" unicode="&#x2015;" horiz-adv-x="1000" 
d="M962 340v-62h-924v62h924z" />
    <glyph glyph-name="uni2016" unicode="&#x2016;" horiz-adv-x="780" 
d="M531 800v-1045h-62v1045h62zM249 800h62v-1045h-62v1045z" />
    <glyph glyph-name="quoteleft" unicode="&#x2018;" horiz-adv-x="242" 
d="M70.5 542q-17.5 18 -17.5 48q0 81 119 140l16 -27q-46 -28 -61 -60q19 -2 34.5 -18.5t15.5 -39.5q0 -26 -17.5 -43.5t-43.5 -17.5q-28 0 -45.5 18z" />
    <glyph glyph-name="quoteright" unicode="&#x2019;" horiz-adv-x="242" 
d="M53 551q46 28 61 60q-19 2 -34.5 18.5t-15.5 39.5q0 26 17.5 43.5t43.5 17.5q30 0 46.5 -17t16.5 -49q0 -81 -119 -140z" />
    <glyph glyph-name="quotedblleft" unicode="&#x201c;" horiz-adv-x="422" 
d="M250.5 542q-17.5 18 -17.5 48q0 81 119 140l16 -27q-46 -28 -61 -60q19 -2 34.5 -18.5t15.5 -39.5q0 -26 -17.5 -43.5t-43.5 -17.5q-28 0 -45.5 18zM70.5 542q-17.5 18 -17.5 48q0 81 119 140l16 -27q-46 -28 -61 -60q19 -2 34.5 -18.5t15.5 -39.5q0 -26 -17.5 -43.5
t-43.5 -17.5q-28 0 -45.5 18z" />
    <glyph glyph-name="quotedblright" unicode="&#x201d;" horiz-adv-x="422" 
d="M233 551q46 28 61 60q-19 2 -34.5 18.5t-15.5 39.5q0 26 17.5 43.5t43.5 17.5q30 0 46.5 -17t16.5 -49q0 -81 -119 -140zM53 551q46 28 61 60q-19 2 -34.5 18.5t-15.5 39.5q0 26 17.5 43.5t43.5 17.5q30 0 46.5 -17t16.5 -49q0 -81 -119 -140z" />
    <glyph glyph-name="dagger" unicode="&#x2020;" horiz-adv-x="587" 
d="M25 425v70h233v299h72v-299h231l1 -70h-232v-618h-72v618h-233z" />
    <glyph glyph-name="daggerdbl" unicode="&#x2021;" horiz-adv-x="600" 
d="M27 20v60h238v361h-238v60h238v293h72v-293h236v-60h-236v-361h236v-60h-236v-211h-72v211h-238z" />
    <glyph glyph-name="twodotenleader" unicode="&#x2025;" horiz-adv-x="616" 
d="M396 -70q-16 16 -16 42t16 42t42 16t42 -16t16 -42t-16 -42t-42 -16t-42 16zM136 -70q-16 16 -16 42t16 42t42 16t42 -16t16 -42t-16 -42t-42 -16t-42 16z" />
    <glyph glyph-name="ellipsis" unicode="&#x2026;" horiz-adv-x="876" 
d="M656 -70q-16 16 -16 42t16 42t42 16t42 -16t16 -42t-16 -42t-42 -16t-42 16zM136 -70q-16 16 -16 42t16 42t42 16t42 -16t16 -42t-16 -42t-42 -16t-42 16zM396 -70q-16 16 -16 42t16 42t42 16t42 -16t16 -42t-16 -42t-42 -16t-42 16z" />
    <glyph glyph-name="perthousand" unicode="&#x2030;" horiz-adv-x="990" 
d="M467 723h78l-350 -795h-83zM411 -10q-35 44 -35 117t35 117t93 44q57 0 92.5 -44t35.5 -117q0 -72 -35.5 -116.5t-92.5 -44.5q-58 0 -93 44zM550 38q17 26 17 69t-17 69t-46 26t-46.5 -26.5t-17.5 -68.5t17.5 -68.5t46.5 -26.5t46 26zM70 434q-35 44 -35 117t35 117
t93 44q57 0 92.5 -44t35.5 -117q0 -72 -35.5 -116.5t-92.5 -44.5q-58 0 -93 44zM209.5 482.5q17.5 26.5 17.5 68.5t-17.5 68.5t-46.5 26.5t-46.5 -26.5t-17.5 -68.5t17.5 -68.5t46.5 -26.5t46.5 26.5zM734.5 -9.5q-35.5 44.5 -35.5 116.5q0 73 35.5 117t92.5 44q58 0 93 -44
t35 -117t-35 -117t-93 -44q-57 0 -92.5 44.5zM873.5 38.5q17.5 26.5 17.5 68.5t-17.5 68.5t-46.5 26.5t-46.5 -26.5t-17.5 -68.5t17.5 -68.5t46.5 -26.5t46.5 26.5z" />
    <glyph glyph-name="minute" unicode="&#x2032;" horiz-adv-x="301" 
d="M82 505l28 279l108 -18l-68 -272z" />
    <glyph glyph-name="second" unicode="&#x2033;" horiz-adv-x="478" 
d="M262 505l28 279l108 -18l-68 -272zM110 784l108 -18l-68 -272l-68 11z" />
    <glyph glyph-name="uni203B" unicode="&#x203b;" horiz-adv-x="940" 
d="M141 57l274 277l-274 277l55 55l274 -277l274 277l55 -55l-274 -277l274 -277l-55 -55l-274 277l-274 -277zM425.5 6.5q-17.5 17.5 -17.5 45.5t17.5 45.5t45.5 17.5t45.5 -17.5t17.5 -45.5t-17.5 -45.5t-45.5 -17.5t-45.5 17.5zM145.5 287.5q-17.5 17.5 -17.5 45.5
t17.5 45.5t45.5 17.5t45.5 -17.5t17.5 -45.5t-17.5 -45.5t-45.5 -17.5t-45.5 17.5zM703.5 288.5q-17.5 17.5 -17.5 45.5t17.5 45.5t45.5 17.5t45.5 -17.5t17.5 -45.5t-17.5 -45.5t-45.5 -17.5t-45.5 17.5zM425.5 569.5q-17.5 17.5 -17.5 45.5t17.5 45.5t45.5 17.5
t45.5 -17.5t17.5 -45.5t-17.5 -45.5t-45.5 -17.5t-45.5 17.5z" />
    <glyph glyph-name="uni2074" unicode="&#x2074;" horiz-adv-x="358" 
d="M30 476v36l163 263h56v-256h58v-43h-58v-78h-49v78h-170zM200 519l1 182l-110 -182h109z" />
    <glyph glyph-name="uni207F" unicode="&#x207f;" horiz-adv-x="412" 
d="M113 761l3 -39q56 47 122 47q52 0 85 -33t33 -95v-214h-65v192q0 50 -12.5 71.5t-43.5 21.5q-36 0 -63 -15.5t-55 -50.5v-219h-64v334h60z" />
    <glyph glyph-name="uni2081" unicode="&#x2081;" horiz-adv-x="203" 
d="M38 153v38q38 6 60 18h47v-370h-54v314h-53z" />
    <glyph glyph-name="uni2082" unicode="&#x2082;" horiz-adv-x="308" 
d="M40 -116q65 65 113 121q28 37 40 61t12 45q0 26 -14.5 41.5t-39.5 15.5q-28 0 -42.5 -17t-13.5 -47h-53q-4 48 27.5 80t81.5 32q46 0 76.5 -30t30.5 -75q0 -33 -16 -65t-51 -73q-30 -40 -74 -82h151v-48h-228v41z" />
    <glyph glyph-name="uni2083" unicode="&#x2083;" horiz-adv-x="319" 
d="M74 -133.5q-33 26.5 -36 71.5h51q4 -27 21.5 -39.5t49.5 -12.5q31 0 50 16.5t19 44.5q0 34 -23 52.5t-62 18.5h-54v44h48q35 0 56.5 18t21.5 46q0 25 -14.5 39.5t-40.5 14.5q-50 0 -60 -46h-50q6 41 37 66t74 25q45 0 75.5 -27.5t30.5 -69.5q0 -27 -12.5 -50.5
t-33.5 -35.5q27 -13 43 -38t16 -57q0 -46 -35 -76.5t-85 -30.5q-54 0 -87 26.5z" />
    <glyph glyph-name="uni2084" unicode="&#x2084;" horiz-adv-x="358" 
d="M30 -84v36l163 263h56v-256h58v-43h-58v-78h-49v78h-170zM200 -41l1 182l-110 -182h109z" />
    <glyph glyph-name="Euro" unicode="&#x20ac;" horiz-adv-x="819" 
d="M279.5 -17.5q-83.5 73.5 -108.5 204.5h-150v62h141q-2 26 -2 60q0 28 5 73h-144v62h156q31 125 113 195t206 70q110 0 185.5 -52.5t98.5 -149.5h-73q-20 70 -76.5 105.5t-135.5 35.5q-91 0 -154.5 -53.5t-90.5 -150.5h201v-62h-213q-5 -42 -5 -73t3 -60h215v-62h-205
q24 -103 87.5 -160t161.5 -57q70 0 119 27q49 26 76.5 69t31.5 95h74q-6 -70 -42 -127q-37 -59 -103.5 -92t-155.5 -33q-132 0 -215.5 73.5z" />
    <glyph glyph-name="uni2103" unicode="&#x2103;" horiz-adv-x="910" 
d="M463.5 -42q-62.5 49 -95 138t-32.5 206q0 120 33 212t96.5 143.5t150.5 51.5q91 0 153.5 -52t82.5 -150h-66q-17 70 -62 105.5t-109 35.5q-62 0 -110 -42.5t-75.5 -119.5t-27.5 -177q0 -101 26 -177.5t74 -119t113 -42.5q78 0 127.5 53.5t56.5 137.5h66
q-8 -113 -74.5 -182.5t-175.5 -69.5q-89 0 -151.5 49zM82 486q-41 38 -41 96q0 27 10.5 52.5t30.5 43.5q38 38 96 38q62 0 98 -38q19 -19 29 -44t10 -52q0 -55 -39 -96q-42 -39 -98 -39q-55 0 -96 39zM227 531.5q20 20.5 20 50.5q0 28 -20 49t-49 21q-26 0 -47.5 -21
t-21.5 -49q0 -30 20 -50.5t49 -20.5t49 20.5z" />
    <glyph glyph-name="uni2109" unicode="&#x2109;" horiz-adv-x="827" 
d="M792 690v-60h-337v-285h322v-60h-322v-356h-72v761h409zM82 486q-41 38 -41 96q0 27 10.5 52.5t30.5 43.5q38 38 96 38q62 0 98 -38q19 -19 29 -44t10 -52q0 -55 -39 -96q-42 -39 -98 -39q-55 0 -96 39zM227 531.5q20 20.5 20 50.5q0 28 -20 49t-49 21q-26 0 -47.5 -21
t-21.5 -49q0 -30 20 -50.5t49 -20.5t49 20.5z" />
    <glyph glyph-name="uni2113" unicode="&#x2113;" horiz-adv-x="314" 
d="M165 -80q-44 0 -59.5 23t-15.5 84v677h72v-678q0 -30 8.5 -41t32.5 -11q16 0 21 1v-47q-13 -4 -31 -6z" />
    <glyph glyph-name="uni2116" unicode="&#x2116;" horiz-adv-x="949" 
d="M127 697l316 -635v635h68v-769h-74l-316 636q1 -36 1 -636h-69v769h74zM912 305v-60h-358v60h358zM651 403q-36 22 -57 60.5t-21 88.5q0 48 21 87t57.5 60.5t79.5 21.5q46 0 82 -22t56.5 -60.5t20.5 -86.5q0 -50 -21 -89t-57 -60.5t-81 -21.5q-44 0 -80 22zM797 475.5
q25 27.5 25 76.5q0 48 -25 75t-66 27q-40 0 -64.5 -27t-24.5 -75q0 -49 25 -76.5t64 -27.5q41 0 66 27.5z" />
    <glyph glyph-name="uni2121" unicode="&#x2121;" horiz-adv-x="1000" 
d="M20 630v60h372v-60h-150v-701h-67v701h-155zM390.5 -14q-55.5 77 -55.5 212q0 88 26 153t72.5 100t106.5 35q53 0 99 -29q46 -30 73 -90t29 -144v-41h-342q0 -96 39.5 -154.5t105.5 -58.5q50 0 82 24.5t45 70.5h67q-18 -73 -68 -114t-126 -41q-98 0 -153.5 77zM678 242
q-2 85 -40.5 134.5t-97.5 49.5q-36 0 -67 -22.5t-51 -64.5t-23 -97h279zM882 -80q-38 0 -52 23t-14 84v677h63v-678q0 -30 7.5 -41t28.5 -11q13 0 18 1v-47q-10 -5 -27 -6z" />
    <glyph glyph-name="trademark" unicode="&#x2122;" horiz-adv-x="716" 
d="M410 710l85 -200l83 200h88v-303h-62v207l-91 -205h-38l-90 205l-1 -207h-63v303h89zM30 710h258v-57h-95v-247h-68v247h-95v57z" />
    <glyph glyph-name="uni2126" unicode="&#x2126;" horiz-adv-x="764" 
d="M245 24q-58 18 -104.5 65t-73 113.5t-26.5 143.5q0 107 42.5 191.5t120 131.5t178.5 47t178.5 -47t120 -131.5t42.5 -191.5q0 -77 -26.5 -143.5t-73 -113.5t-104.5 -65h198v-70h-277v77q97 54 152.5 134t55.5 181q0 90 -38 160q-38 68 -99 105t-129 37q-66 0 -128 -36
q-63 -38 -100.5 -107.5t-37.5 -158.5q0 -101 55.5 -181t152.5 -134v-77h-281v70h202z" />
    <glyph glyph-name="uni2153" unicode="&#x2153;" horiz-adv-x="763" 
d="M452 762h61l-334 -937h-61zM59 662v41q44 9 76 23h54v-443h-60v379h-70zM465 -65.5q-36 28.5 -41 79.5h53q7 -31 27.5 -46t58.5 -15q35 0 58 21t23 53q0 40 -27.5 62t-72.5 22h-60v45h52q42 0 67.5 21.5t25.5 55.5q0 31 -17.5 48t-47.5 17q-57 0 -71 -53h-54q9 46 43 73
t82 27q51 0 85 -31t34 -79q0 -32 -15.5 -58t-40.5 -41q34 -15 52.5 -43t18.5 -66q0 -52 -38.5 -86.5t-96.5 -34.5q-62 0 -98 28.5z" />
    <glyph glyph-name="uni2154" unicode="&#x2154;" horiz-adv-x="874" 
d="M572 762h61l-334 -937h-61zM168 430l23 27q14 18 20 24q33 42 47.5 71.5t14.5 55.5q0 33 -18 52t-49 19q-32 0 -51 -20.5t-18 -54.5h-56q-2 54 33.5 89t92.5 35q53 0 87.5 -34t34.5 -86q0 -38 -18.5 -75t-59.5 -86l-95 -114h184v-49h-261v43zM575 -65.5
q-36 28.5 -41 79.5h53q7 -31 27.5 -46t58.5 -15q35 0 58 21t23 53q0 40 -27.5 62t-72.5 22h-60v45h52q42 0 67.5 21.5t25.5 55.5q0 31 -17.5 48t-47.5 17q-57 0 -71 -53h-54q9 46 43 73t82 27q51 0 85 -31t34 -79q0 -32 -15.5 -58t-40.5 -41q34 -15 52.5 -43t18.5 -66
q0 -52 -38.5 -86.5t-96.5 -34.5q-62 0 -98 28.5z" />
    <glyph glyph-name="oneeighth" unicode="&#x215b;" horiz-adv-x="752" 
d="M452 762h61l-334 -937h-61zM621 -30.5q23 17.5 23 47.5q0 27 -21.5 47.5t-69.5 41.5q-78 -33 -78 -93q0 -27 23 -44t62 -17q38 0 61 17.5zM59 662v41q44 9 76 23h54v-443h-60v379h-70zM460 -66q-38 29 -38 79q0 36 20.5 66.5t57.5 49.5q-61 37 -61 88q0 43 34.5 71.5
t85.5 28.5q52 0 86 -29t34 -73q0 -29 -15 -53t-43 -40q36 -16 56.5 -45t20.5 -62q-1 -49 -39.5 -79.5t-98.5 -30.5q-62 0 -100 29zM613.5 178q12.5 16 12.5 37q0 24 -18.5 40t-48.5 16q-31 0 -49 -15t-18 -39t22 -45t59 -26q28 16 40.5 32z" />
    <glyph glyph-name="threeeighths" unicode="&#x215c;" horiz-adv-x="828" 
d="M552 762h61l-334 -937h-61zM701 -30.5q23 17.5 23 47.5q0 27 -21.5 47.5t-69.5 41.5q-78 -33 -78 -93q0 -27 23 -44t62 -17q38 0 61 17.5zM91 317.5q-36 28.5 -41 79.5h53q7 -31 27.5 -46t58.5 -15q35 0 58 21t23 53q0 40 -27.5 62t-72.5 22h-60v45h52q42 0 67.5 21.5
t25.5 55.5q0 31 -17.5 48t-47.5 17q-57 0 -71 -53h-54q9 46 43 73t82 27q51 0 85 -31t34 -79q0 -32 -15.5 -58t-40.5 -41q33 -15 52 -43.5t19 -65.5q0 -52 -38.5 -86.5t-96.5 -34.5q-62 0 -98 28.5zM540 -66q-38 29 -38 79q0 36 20.5 66.5t57.5 49.5q-61 37 -61 88
q0 43 34.5 71.5t85.5 28.5q52 0 86 -29t34 -73q0 -29 -15 -53t-43 -40q36 -16 56.5 -45t20.5 -62q-1 -49 -39.5 -79.5t-98.5 -30.5q-62 0 -100 29zM693.5 178q12.5 16 12.5 37q0 24 -18.5 40t-48.5 16q-31 0 -49 -15t-18 -39t22 -45t59 -26q28 16 40.5 32z" />
    <glyph glyph-name="fiveeighths" unicode="&#x215d;" horiz-adv-x="871" 
d="M552 762h61l-334 -937h-61zM701 -30.5q23 17.5 23 47.5q0 27 -21.5 47.5t-69.5 41.5q-78 -33 -78 -93q0 -27 23 -44t62 -17q38 0 61 17.5zM107 346.5q-35 33.5 -38 91.5h51q5 -40 23 -59.5t53 -19.5q36 0 57.5 24.5t21.5 67.5q0 38 -20 61t-53 23q-36 0 -71 -26h-48
l28 209h195v-46h-150l-13 -106q30 14 61 14q55 0 89 -36.5t34 -94.5q0 -60 -37 -98t-94 -38q-54 0 -89 33.5zM540 -66q-38 29 -38 79q0 36 20.5 66.5t57.5 49.5q-61 37 -61 88q0 43 34.5 71.5t85.5 28.5q52 0 86 -29t34 -73q0 -29 -15 -53t-43 -40q36 -16 56.5 -45t20.5 -62
q-1 -49 -39.5 -79.5t-98.5 -30.5q-62 0 -100 29zM693.5 178q12.5 16 12.5 37q0 24 -18.5 40t-48.5 16q-31 0 -49 -15t-18 -39t22 -45t59 -26q28 16 40.5 32z" />
    <glyph glyph-name="seveneighths" unicode="&#x215e;" horiz-adv-x="758" 
d="M482 762h61l-334 -937h-61zM611 -30.5q23 17.5 23 47.5q0 27 -21.5 47.5t-69.5 41.5q-78 -33 -78 -93q0 -27 23 -44t62 -17q38 0 61 17.5zM450 -66q-38 29 -38 79q0 36 20.5 66.5t57.5 49.5q-61 37 -61 88q0 43 34.5 71.5t85.5 28.5q52 0 86 -29t34 -73q0 -29 -15 -53
t-43 -40q36 -16 56.5 -45t20.5 -62q-1 -49 -39.5 -79.5t-98.5 -30.5q-62 0 -100 29zM254 650h-173v49h232v-34l-112 -372h-57zM603.5 178q12.5 16 12.5 37q0 24 -18.5 40t-48.5 16q-31 0 -49 -15t-18 -39t22 -45t59 -26q28 16 40.5 32z" />
    <glyph glyph-name="uni2160" unicode="&#x2160;" horiz-adv-x="262" 
d="M167 690v-761h-72v761h72z" />
    <glyph glyph-name="uni2161" unicode="&#x2161;" horiz-adv-x="524" 
d="M429 690v-761h-72v761h72zM95 690h72v-761h-72v761z" />
    <glyph glyph-name="uni2162" unicode="&#x2162;" horiz-adv-x="682" 
d="M607 690v-761h-72v761h72zM75 690h72v-761h-72v761zM305 690h72v-761h-72v761z" />
    <glyph glyph-name="uni2163" unicode="&#x2163;" horiz-adv-x="860" 
d="M205 690h74l245 -659h2l245 659h74l-290 -761h-60zM75 690h72v-761h-72v761z" />
    <glyph glyph-name="uni2164" unicode="&#x2164;" horiz-adv-x="690" 
d="M25 690h74l245 -659h2l245 659h74l-290 -761h-60z" />
    <glyph glyph-name="uni2165" unicode="&#x2165;" horiz-adv-x="890" 
d="M25 690h74l245 -659h2l245 659h74l-290 -761h-60zM723 690h72v-761h-72v761z" />
    <glyph glyph-name="uni2166" unicode="&#x2166;" horiz-adv-x="1000" 
d="M25 690h74l225 -659h2l225 659h74l-270 -761h-60zM683 690h72v-761h-72v761zM853 690h72v-761h-72v761z" />
    <glyph glyph-name="uni2167" unicode="&#x2167;" horiz-adv-x="980" 
d="M25 690h74l128 -639l124 639h74l-170 -761h-60zM483 690h72v-761h-72v761zM653 690h72v-761h-72v761zM813 690h72v-761h-72v761z" />
    <glyph glyph-name="uni2168" unicode="&#x2168;" horiz-adv-x="870" 
d="M441 315l-251 375h81l213 -319h2l213 319h81l-251 -375l266 -386h-84l-225 330h-2l-225 -330h-84zM75 690h72v-761h-72v761z" />
    <glyph glyph-name="uni2169" unicode="&#x2169;" horiz-adv-x="670" 
d="M291 315l-251 375h81l213 -319h2l213 319h81l-251 -375l266 -386h-84l-225 330h-2l-225 -330h-84z" />
    <glyph glyph-name="uni2170" unicode="&#x2170;" horiz-adv-x="244" 
d="M158 472v-543h-72v543h72zM83.5 587.5q-14.5 13.5 -14.5 34.5t14.5 35t38.5 14t38.5 -14t14.5 -35t-14.5 -34.5t-38.5 -13.5t-38.5 13.5z" />
    <glyph glyph-name="uni2171" unicode="&#x2171;" horiz-adv-x="488" 
d="M402 472v-543h-72v543h72zM158 472v-543h-72v543h72zM83.5 587.5q-14.5 13.5 -14.5 34.5t14.5 35t38.5 14t38.5 -14t14.5 -35t-14.5 -34.5t-38.5 -13.5t-38.5 13.5zM327.5 587.5q-14.5 13.5 -14.5 34.5t14.5 35t38.5 14t38.5 -14t14.5 -35t-14.5 -34.5t-38.5 -13.5
t-38.5 13.5z" />
    <glyph glyph-name="uni2172" unicode="&#x2172;" horiz-adv-x="644" 
d="M558 472v-543h-72v543h72zM158 472v-543h-72v543h72zM358 472v-543h-72v543h72zM83.5 587.5q-14.5 13.5 -14.5 34.5t14.5 35t38.5 14t38.5 -14t14.5 -35t-14.5 -34.5t-38.5 -13.5t-38.5 13.5zM283.5 587.5q-14.5 13.5 -14.5 34.5t14.5 35t38.5 14t38.5 -14t14.5 -35
t-14.5 -34.5t-38.5 -13.5t-38.5 13.5zM483.5 587.5q-14.5 13.5 -14.5 34.5t14.5 35t38.5 14t38.5 -14t14.5 -35t-14.5 -34.5t-38.5 -13.5t-38.5 13.5z" />
    <glyph glyph-name="uni2173" unicode="&#x2173;" horiz-adv-x="721" 
d="M205 472h73l174 -458h2l174 458h73l-213 -543h-70zM158 472v-543h-72v543h72zM83.5 587.5q-14.5 13.5 -14.5 34.5t14.5 35t38.5 14t38.5 -14t14.5 -35t-14.5 -34.5t-38.5 -13.5t-38.5 13.5z" />
    <glyph glyph-name="uni2174" unicode="&#x2174;" horiz-adv-x="546" 
d="M25 472h73l174 -458h2l174 458h73l-213 -543h-70z" />
    <glyph glyph-name="uni2175" unicode="&#x2175;" horiz-adv-x="737" 
d="M30 472h73l174 -458h2l174 458h73l-213 -543h-70zM645 472v-543h-72v543h72zM570.5 587.5q-14.5 13.5 -14.5 34.5t14.5 35t38.5 14t38.5 -14t14.5 -35t-14.5 -34.5t-38.5 -13.5t-38.5 13.5z" />
    <glyph glyph-name="uni2176" unicode="&#x2176;" horiz-adv-x="907" 
d="M30 472h73l174 -458h2l174 458h73l-213 -543h-70zM645 472v-543h-72v543h72zM815 472v-543h-72v543h72zM570.5 587.5q-14.5 13.5 -14.5 34.5t14.5 35t38.5 14t38.5 -14t14.5 -35t-14.5 -34.5t-38.5 -13.5t-38.5 13.5zM740.5 587.5q-14.5 13.5 -14.5 34.5t14.5 35t38.5 14
t38.5 -14t14.5 -35t-14.5 -34.5t-38.5 -13.5t-38.5 13.5z" />
    <glyph glyph-name="uni2177" unicode="&#x2177;" horiz-adv-x="937" 
d="M30 472h70l109 -438l107 438h70l-143 -543h-70zM505 472v-543h-72v543h72zM675 472v-543h-72v543h72zM845 472v-543h-72v543h72zM430.5 587.5q-14.5 13.5 -14.5 34.5t14.5 35t38.5 14t38.5 -14t14.5 -35t-14.5 -34.5t-38.5 -13.5t-38.5 13.5zM600.5 587.5
q-14.5 13.5 -14.5 34.5t14.5 35t38.5 14t38.5 -14t14.5 -35t-14.5 -34.5t-38.5 -13.5t-38.5 13.5zM770.5 587.5q-14.5 13.5 -14.5 34.5t14.5 35t38.5 14t38.5 -14t14.5 -35t-14.5 -34.5t-38.5 -13.5t-38.5 13.5z" />
    <glyph glyph-name="uni2178" unicode="&#x2178;" horiz-adv-x="710" 
d="M384 207l-181 265h78l149 -220l149 220h78l-181 -265l194 -279h-84l-156 234l-156 -234h-84zM158 472v-543h-72v543h72zM83.5 587.5q-14.5 13.5 -14.5 34.5t14.5 35t38.5 14t38.5 -14t14.5 -35t-14.5 -34.5t-38.5 -13.5t-38.5 13.5z" />
    <glyph glyph-name="uni2179" unicode="&#x2179;" horiz-adv-x="520" 
d="M214 207l-181 265h78l148 -219h2l148 219h78l-181 -265l194 -279h-84l-155 233h-2l-155 -233h-84z" />
    <glyph glyph-name="arrowleft" unicode="&#x2190;" horiz-adv-x="940" 
d="M116 345l322 326l60 -73l-229 -210h618l1 -87h-618l228 -210l-60 -73z" />
    <glyph glyph-name="arrowup" unicode="&#x2191;" horiz-adv-x="940" 
d="M217 368l-73 60l326 322l326 -322l-73 -60l-210 229v-618h-86v618z" />
    <glyph glyph-name="arrowright" unicode="&#x2192;" horiz-adv-x="940" 
d="M470 91l228 210h-617v87h618l-229 210l60 73l322 -326l-322 -327z" />
    <glyph glyph-name="arrowdown" unicode="&#x2193;" horiz-adv-x="940" 
d="M144 307l73 60l210 -229v618h86v-618l210 229l73 -60l-326 -322z" />
    <glyph glyph-name="arrowboth" unicode="&#x2194;" horiz-adv-x="940" 
d="M22 345l322 326l61 -73l-223 -214h577l-223 214l61 73l322 -326l-322 -327l-61 73l222 214h-575l222 -214l-61 -73z" />
    <glyph glyph-name="arrowupdn" unicode="&#x2195;" horiz-adv-x="940" 
d="M143 207l72 60l205 -229l1 614l-205 -229l-72 60l326 322l327 -322l-72 -60l-205 228l-1 -612l205 228l73 -60l-328 -322z" />
    <glyph glyph-name="uni2196" unicode="&#x2196;" horiz-adv-x="940" 
d="M254 499l13 -310l-93 -9l3 458l458 3l-9 -94l-311 14l439 -435l-65 -66z" />
    <glyph glyph-name="uni2197" unicode="&#x2197;" horiz-adv-x="940" 
d="M186 127l439 435l-311 -14l-9 94l458 -3l3 -458l-93 9l13 310l-435 -439z" />
    <glyph glyph-name="uni2198" unicode="&#x2198;" horiz-adv-x="940" 
d="M314 142l311 -14l-439 435l65 66l435 -439l-13 310l93 9l-3 -458l-458 -3z" />
    <glyph glyph-name="uni2199" unicode="&#x2199;" horiz-adv-x="940" 
d="M176 51l-3 458l93 -9l-13 -310l435 439l65 -66l-439 -435l311 14l9 -94z" />
    <glyph glyph-name="arrowdblright" unicode="&#x21d2;" horiz-adv-x="940" 
d="M522 95l131 121h-551v76h613l57 57l-76 77h-594v76h532l-112 101l55 67l316 -321l-316 -321z" />
    <glyph glyph-name="arrowdblboth" unicode="&#x21d4;" horiz-adv-x="940" 
d="M31 349l316 321l55 -67l-112 -101h360l-112 101l55 67l316 -321l-316 -321l-55 67l131 121h-398l131 -121l-55 -67zM209 292h522l57 57l-76 77h-484l-76 -77z" />
    <glyph glyph-name="universal" unicode="&#x2200;" 
d="M102 699h73l84 -220h346l84 220h73l-300 -761h-60zM432 28l150 391h-300z" />
    <glyph glyph-name="partialdiff" unicode="&#x2202;" horiz-adv-x="565" 
d="M158.5 -59.5q-54.5 34.5 -85.5 97.5t-31 144t32 145q32 62 87 96t121 34q50 0 94.5 -19.5t76.5 -56.5q-15 126 -97 187q-48 36 -107 49.5t-131 11.5l-2 59q47 1 97 -3.5t80 -13.5q83 -26 134 -80q50 -54 73 -140.5t23 -216.5l-1 -47v-5q0 -81 -31 -144t-85.5 -97.5
t-123.5 -34.5t-123.5 34.5zM403.5 29.5q46.5 55.5 46.5 152.5t-46.5 152.5t-121.5 55.5t-121.5 -55.5t-46.5 -152.5t46.5 -152.5t121.5 -55.5t121.5 55.5z" />
    <glyph glyph-name="existential" unicode="&#x2203;" horiz-adv-x="642" 
d="M488 -11v306h-405v60h405v275h-420v60h492v-761h-502v60h430z" />
    <glyph glyph-name="gradient" unicode="&#x2207;" horiz-adv-x="658" 
d="M32 689h594l-245 -750h-107zM330 12l184 606h-369z" />
    <glyph glyph-name="element" unicode="&#x2208;" horiz-adv-x="620" 
d="M306 47q-118 0 -181.5 68.5t-63.5 189.5q0 122 63.5 190.5t181.5 68.5h256v-69h-259q-151 0 -163 -156h419v-70h-420q11 -153 164 -153h259v-69h-256z" />
    <glyph glyph-name="suchthat" unicode="&#x220b;" horiz-adv-x="620" 
d="M321 116q154 0 164 153h-420v70h419q-12 156 -163 156h-259v69h256q118 0 181.5 -68.5t63.5 -190.5q0 -121 -63.5 -189.5t-181.5 -68.5h-256v69h259z" />
    <glyph glyph-name="product" unicode="&#x220f;" horiz-adv-x="760" 
d="M70 630v60h621v-60h-129v-875h-72v875h-223v-875h-72v875h-125z" />
    <glyph glyph-name="summation" unicode="&#x2211;" horiz-adv-x="721" 
d="M324 251l-244 318v105h442v-76h-360l238 -302v-91l-239 -318h382v-76h-463v104z" />
    <glyph glyph-name="radical" unicode="&#x221a;" horiz-adv-x="929" 
d="M95 290h88l144 -386l296 789h255l-1 -74h-198l-299 -788h-108z" />
    <glyph glyph-name="proportional" unicode="&#x221d;" horiz-adv-x="940" 
d="M803 141q-63 0 -100 6.5t-68 28.5q-15 10 -44 41q-16 18 -36 36q-47 -59 -97.5 -85t-114.5 -26q-104 0 -163 47.5t-59 128.5q0 50 26.5 90t75.5 63t114 23q68 0 124 -30.5t94 -81.5l31 32q36 39 49 47q31 22 68 28.5t100 6.5v-61q-47 0 -66.5 -3t-40.5 -14
q-25 -14 -57 -42.5t-51 -58.5q17 -26 53 -57.5t55 -41.5q23 -10 45 -13t62 -3v-61zM439.5 236.5q48.5 32.5 75.5 81.5q-26 49 -74 80.5t-98 31.5q-65 0 -106 -31.5t-41 -80.5t41 -81.5t106 -32.5q48 0 96.5 32.5z" />
    <glyph glyph-name="infinity" unicode="&#x221e;" horiz-adv-x="940" 
d="M156.5 155q-50.5 29 -77.5 80.5t-27 116.5q0 67 27.5 118t77.5 79t116 28t110 -31.5t87 -104.5q43 73 87.5 104.5t111.5 31.5q62 0 112 -27.5t78 -78.5t28 -119t-28 -119.5t-78 -79t-114 -27.5q-66 0 -110 32t-87 104q-44 -72 -87.5 -103.5t-109.5 -32.5q-66 0 -116.5 29
zM346 213q28 20 48 50t47 89q-25 52 -45 85q-47 74 -123 74q-66 -1 -106 -46t-40 -113q0 -69 39.5 -114.5t104.5 -45.5q44 0 75 21zM773 238q39 46 39 114t-39.5 113t-105.5 46q-42 0 -72 -21q-28 -20 -47 -48.5t-49 -89.5q23 -49 46 -86q46 -74 124 -74q65 0 104 46z" />
    <glyph glyph-name="angle" unicode="&#x2220;" horiz-adv-x="940" 
d="M227 55q-34 0 -57 17q-23 18 -23 48q0 33 32 67l402 419l59 -53l-412 -427h544v-71h-545z" />
    <glyph glyph-name="uni2225" unicode="&#x2225;" 
d="M681 700v-801h-72v801h72zM260 700h72v-801h-72v801z" />
    <glyph glyph-name="logicaland" unicode="&#x2227;" 
d="M432 537l-281 -552l-74 42l348 664h14l348 -664l-83 -43z" />
    <glyph glyph-name="logicalor" unicode="&#x2228;" 
d="M77 641l74 42l281 -552l272 553l83 -43l-348 -664h-14z" />
    <glyph glyph-name="intersection" unicode="&#x2229;" horiz-adv-x="940" 
d="M129 390q0 165 88 251t253 86t253 -86t88 -251v-461h-80v449q0 274 -261 274t-261 -274v-449h-80v461z" />
    <glyph glyph-name="union" unicode="&#x222a;" horiz-adv-x="940" 
d="M217 10q-88 86 -88 251v461h80v-449q0 -274 261 -274t261 274v449h80v-461q0 -165 -88 -251t-253 -86t-253 86z" />
    <glyph glyph-name="integral" unicode="&#x222b;" horiz-adv-x="479" 
d="M81 -180q-24 14 -47 41l57 37q18 -28 47 -28q26 0 35 49q8 47 11.5 103.5t6.5 151.5l3 91l14 261q4 74 17.5 117t40.5 62.5t73 19.5q32 0 57 -13.5t49 -41.5l-55 -40q-14 35 -51 35q-21 0 -35 -29q-12 -25 -16 -81q-7 -67 -11 -164l-4 -71q-1 -9 -1 -46l1 -126
q0 -99 -10 -169t-35 -122q-25 -51 -94 -51q-29 0 -53 14z" />
    <glyph glyph-name="uni222C" unicode="&#x222c;" horiz-adv-x="735" 
d="M337 -180q-24 14 -47 41l57 37q18 -28 47 -28q26 0 35 49q8 47 11.5 103.5t6.5 151.5l3 91l14 261q4 74 17.5 117t40.5 62.5t73 19.5q32 0 57 -13.5t49 -41.5l-55 -40q-14 35 -51 35q-21 0 -35 -29q-12 -25 -16 -81q-7 -67 -11 -164l-4 -71q-1 -9 -1 -46l1 -126
q0 -99 -10 -169t-35 -122q-25 -51 -94 -51q-29 0 -53 14zM81 -180q-24 14 -47 41l57 37q18 -28 47 -28q26 0 35 49q8 47 11.5 103.5t6.5 151.5l3 91l14 261q4 74 17.5 117t40.5 62.5t73 19.5q32 0 57 -13.5t49 -41.5l-55 -40q-14 35 -51 35q-21 0 -35 -29q-12 -25 -16 -81
q-7 -67 -11 -164l-4 -71q-1 -9 -1 -46l1 -126q0 -99 -10 -169t-35 -122q-25 -51 -94 -51q-29 0 -53 14z" />
    <glyph glyph-name="uni222E" unicode="&#x222e;" 
d="M281 -180q-24 14 -47 41l57 37q18 -28 47 -28q26 0 35 49q6 36 11 93q-96 14 -153.5 79.5t-57.5 166.5q0 69 29 123t82 86.5t123 37.5l1 21q4 74 17.5 117t40.5 62.5t73 19.5q32 0 57 -13.5t49 -41.5l-55 -40q-14 35 -51 35q-21 0 -35 -29q-13 -28 -21 -134
q94 -15 151 -80.5t57 -163.5q0 -104 -61.5 -170.5t-162.5 -76.5q-11 -96 -39 -154q-25 -51 -94 -51q-29 0 -53 14zM391 183l3 82l10 179q-73 -8 -116 -57t-43 -129q0 -74 38.5 -123t103.5 -62q3 83 4 110zM579.5 132.5q39.5 48.5 39.5 125.5q0 75 -37.5 122.5t-102.5 60.5
l-6 -121q-1 -9 -1 -45l1 -131q0 -56 -1 -72q68 12 107.5 60.5z" />
    <glyph glyph-name="therefore" unicode="&#x2234;" 
d="M395 433q-16 16 -16 42t16 42t42 16t42 -16t16 -42t-16 -42t-42 -16t-42 16zM174 93q-16 16 -16 42t16 42t42 16t42 -16t16 -42t-16 -42t-42 -16t-42 16zM606 93q-16 16 -16 42t16 42t42 16t42 -16t16 -42t-16 -42t-42 -16t-42 16z" />
    <glyph glyph-name="uni2235" unicode="&#x2235;" 
d="M606 430q-16 16 -16 42t16 42t42 16t42 -16t16 -42t-16 -42t-42 -16t-42 16zM395 90q-16 16 -16 42t16 42t42 16t42 -16t16 -42t-16 -42t-42 -16t-42 16zM174 430q-16 16 -16 42t16 42t42 16t42 -16t16 -42t-16 -42t-42 -16t-42 16z" />
    <glyph glyph-name="similar" unicode="&#x223c;" horiz-adv-x="906" 
d="M525.5 237.5q-41.5 15.5 -81.5 42.5q-39 26 -78.5 43t-70.5 17q-73 0 -112 -92l-71 24q21 70 66.5 103.5t116.5 33.5q45 0 86 -14t87 -45q36 -25 73 -41t65 -16q78 0 120 82l68 -31q-26 -65 -70.5 -93.5t-118.5 -28.5q-38 0 -79.5 15.5z" />
    <glyph glyph-name="uni223D" unicode="&#x223d;" horiz-adv-x="940" 
d="M661 170q66 -5 107.5 39t41.5 121q0 40 -20 72t-54.5 50.5t-75.5 18.5q-48 0 -81 -21q-31 -20 -52 -51.5t-47 -88.5q-44 -99 -94.5 -144.5t-124.5 -45.5q-56 0 -99 23.5t-67.5 66t-24.5 97.5q0 83 44 135t115 61v-56q-47 -12 -73 -47.5t-26 -96.5q0 -56 35.5 -92.5
t90.5 -36.5q58 0 96 39t71 113q43 99 97.5 149.5t129.5 50.5q73 0 122 -28t73.5 -74t24.5 -101q0 -61 -25.5 -108.5t-73 -74t-110.5 -25.5v55z" />
    <glyph glyph-name="uni2252" unicode="&#x2252;" horiz-adv-x="640" 
d="M581 474v-62h-520v62h520zM458 -15q-16 16 -16 42t16 42t42 16t42 -16t16 -42t-16 -42t-42 -16t-42 16zM581 239v-62h-520v62h520zM94 610q-16 16 -16 42t16 42t42 16t42 -16t16 -42t-16 -42t-42 -16t-42 16z" />
    <glyph glyph-name="notequal" unicode="&#x2260;" horiz-adv-x="640" 
d="M207 177h-146v62h174l79 173h-253v62h281l60 133h71l-60 -133h168v-62h-196l-79 -173h275v-62h-303l-60 -133h-71z" />
    <glyph glyph-name="equivalence" unicode="&#x2261;" horiz-adv-x="940" 
d="M820 529v-62h-700v62h700zM120 137h700v-62h-700v62zM120 332h700v-62h-700v62z" />
    <glyph glyph-name="lessequal" unicode="&#x2264;" horiz-adv-x="684" 
d="M87 366v84l473 177l20 -52l-442 -167l442 -167l-20 -52zM57 90h568v-61h-568v61z" />
    <glyph glyph-name="greaterequal" unicode="&#x2265;" horiz-adv-x="684" 
d="M103 241l442 167l-442 167l20 52l473 -177v-84l-473 -177zM58 90h568v-61h-568v61z" />
    <glyph glyph-name="uni226A" unicode="&#x226a;" 
d="M393 263v70l374 323l47 -47l-353 -312l353 -299l-47 -48zM184 333l374 323l47 -47l-353 -312l353 -299l-47 -48l-374 313v70z" />
    <glyph glyph-name="uni226B" unicode="&#x226b;" 
d="M259 -2l353 299l-353 312l47 47l374 -323v-70l-374 -313zM403 297l-353 312l47 47l374 -323v-70l-374 -313l-47 48z" />
    <glyph glyph-name="propersubset" unicode="&#x2282;" horiz-adv-x="612" 
d="M301 47q-118 0 -181.5 68.5t-63.5 189.5q0 122 63.5 190.5t181.5 68.5h256v-69h-259q-161 0 -161 -186q0 -193 161 -193h259v-69h-256z" />
    <glyph glyph-name="propersuperset" unicode="&#x2283;" horiz-adv-x="612" 
d="M305 116q170 0 170 192q0 187 -170 187h-249v69h256q118 0 181.5 -68.5t63.5 -190.5q0 -121 -63.5 -189.5t-181.5 -68.5h-256v69h249z" />
    <glyph glyph-name="reflexsubset" unicode="&#x2286;" horiz-adv-x="640" 
d="M306 154q-119 0 -182 64t-63 184t62.5 184.5t182.5 64.5h256v-64h-264q-161 0 -161 -185q0 -184 161 -184h264v-64h-256zM582 9v-62h-524v62h524z" />
    <glyph glyph-name="reflexsuperset" unicode="&#x2287;" horiz-adv-x="640" 
d="M342 218q161 0 161 184q0 185 -161 185h-264v64h256q120 0 182.5 -64.5t62.5 -184.5t-63 -184t-182 -64h-256v64h264zM582 9v-62h-524v62h524z" />
    <glyph glyph-name="uni2299" unicode="&#x2299;" horiz-adv-x="940" 
d="M250 -87q-101 56 -159 157.5t-58 230.5q0 131 59 232q58 100 157.5 154.5t220.5 54.5q120 0 220 -54q101 -56 158.5 -157t57.5 -230q0 -132 -58 -232q-58 -101 -157.5 -156t-220.5 -55q-120 0 -220 55zM658.5 -29.5q82.5 47.5 128.5 133.5t46 197t-46 196t-128.5 132
t-188.5 47t-188.5 -47t-128.5 -132t-46 -196t46 -197t128.5 -133.5t188.5 -47.5t188.5 47.5zM367.5 116q-45.5 27 -71.5 75.5t-26 109.5t26 109.5t71.5 75.5t102.5 27t102.5 -27t71.5 -75.5t26 -109.5t-26 -109.5t-71.5 -75.5t-102.5 -27t-102.5 27z" />
    <glyph glyph-name="uni22A5" unicode="&#x22a5;" 
d="M419 -23v731h72v-731h255v-60h-582v60h255z" />
    <glyph glyph-name="uni2312" unicode="&#x2312;" horiz-adv-x="600" 
d="M53 554q21 106 86.5 166t166.5 60q100 0 166.5 -60t87.5 -165l-73 -1q-20 80 -68.5 123.5t-112.5 43.5q-65 0 -111 -43t-64 -124h-78z" />
    <glyph glyph-name="uni2460" unicode="&#x2460;" horiz-adv-x="960" 
d="M260 -87q-101 56 -159 157.5t-58 230.5q0 131 59 232q58 100 157.5 154.5t220.5 54.5q120 0 220 -54q101 -56 158.5 -157t57.5 -230q0 -132 -58 -232q-58 -101 -157.5 -156t-220.5 -55q-120 0 -220 55zM396 509v46q39 7 83 26h62v-552h-69v480h-76zM668.5 -29.5
q82.5 47.5 128.5 133.5t46 197t-46 196t-128.5 132t-188.5 47t-188.5 -47t-128.5 -132t-46 -196t46 -197t128.5 -133.5t188.5 -47.5t188.5 47.5z" />
    <glyph glyph-name="uni2461" unicode="&#x2461;" horiz-adv-x="960" 
d="M260 -87q-101 56 -159 157.5t-58 230.5q0 131 59 232q58 100 157.5 154.5t220.5 54.5q120 0 220 -54q101 -56 158.5 -157t57.5 -230q0 -132 -58 -232q-58 -101 -157.5 -156t-220.5 -55q-120 0 -220 55zM668.5 -29.5q82.5 47.5 128.5 133.5t46 197t-46 196t-128.5 132
t-188.5 47t-188.5 -47t-128.5 -132t-46 -196t46 -197t128.5 -133.5t188.5 -47.5t188.5 47.5zM325 85q115 132 170 201q43 54 63.5 94t20.5 73q0 42 -25.5 68.5t-66.5 26.5q-42 0 -67.5 -27t-24.5 -72h-67q-1 45 19.5 81t57.5 56.5t84 20.5q44 0 80 -20t56.5 -55t20.5 -79
q0 -49 -23 -95.5t-77 -112.5q-67 -82 -129 -153h243v-59h-335v52z" />
    <glyph glyph-name="uni2462" unicode="&#x2462;" horiz-adv-x="960" 
d="M260 -87q-101 56 -159 157.5t-58 230.5q0 131 59 232q58 100 157.5 154.5t220.5 54.5q120 0 220 -54q101 -56 158.5 -157t57.5 -230q0 -132 -58 -232q-58 -101 -157.5 -156t-220.5 -55q-120 0 -220 55zM668.5 -29.5q82.5 47.5 128.5 133.5t46 197t-46 196t-128.5 132
t-188.5 47t-188.5 -47t-128.5 -132t-46 -196t46 -197t128.5 -133.5t188.5 -47.5t188.5 47.5zM357 42.5q-49 37.5 -57 104.5h68q8 -42 37 -62t81 -20q51 0 83 29t32 75q0 55 -38.5 85.5t-100.5 30.5h-80v57h69q57 0 93 31t36 77q0 43 -24.5 67t-67.5 24q-39 0 -64.5 -18
t-33.5 -52h-67q10 58 56 94t109 36q70 0 115.5 -42t45.5 -106q0 -46 -22.5 -82t-59.5 -55q48 -18 75.5 -56.5t27.5 -90.5q0 -47 -24 -84.5t-65.5 -58.5t-93.5 -21q-81 0 -130 37.5z" />
    <glyph glyph-name="uni2463" unicode="&#x2463;" horiz-adv-x="960" 
d="M260 -87q-101 56 -159 157.5t-58 230.5q0 131 59 232q58 100 157.5 154.5t220.5 54.5q120 0 220 -54q101 -56 158.5 -157t57.5 -230q0 -132 -58 -232q-58 -101 -157.5 -156t-220.5 -55q-120 0 -220 55zM242 123v52l258 423h81v-413h94v-62h-94v-123h-70v123h-269z
M511 502l-181 -317h181v317zM668.5 -29.5q82.5 47.5 128.5 133.5t46 197t-46 196t-128.5 132t-188.5 47t-188.5 -47t-128.5 -132t-46 -196t46 -197t128.5 -133.5t188.5 -47.5t188.5 47.5z" />
    <glyph glyph-name="uni2464" unicode="&#x2464;" horiz-adv-x="960" 
d="M260 -87q-101 56 -159 157.5t-58 230.5q0 131 59 232q58 100 157.5 154.5t220.5 54.5q120 0 220 -54q101 -56 158.5 -157t57.5 -230q0 -132 -58 -232q-58 -101 -157.5 -156t-220.5 -55q-120 0 -220 55zM668.5 -29.5q82.5 47.5 128.5 133.5t46 197t-46 196t-128.5 132
t-188.5 47t-188.5 -47t-128.5 -132t-46 -196t46 -197t128.5 -133.5t188.5 -47.5t188.5 47.5zM365 57.5q-48 44.5 -54 124.5h65q14 -111 111 -111q52 0 83.5 36t31.5 97q0 55 -29 88.5t-78 33.5q-51 0 -101 -36h-63l38 288h268v-58h-210l-19 -159q42 21 90 21q76 0 123 -50.5
t47 -130.5q0 -55 -23.5 -97.5t-64.5 -66.5t-93 -24q-74 0 -122 44.5z" />
    <glyph glyph-name="uni2465" unicode="&#x2465;" horiz-adv-x="960" 
d="M260 -87q-101 56 -159 157.5t-58 230.5q0 131 59 232q58 100 157.5 154.5t220.5 54.5q120 0 220 -54q101 -56 158.5 -157t57.5 -230q0 -132 -58 -232q-58 -101 -157.5 -156t-220.5 -55q-120 0 -220 55zM565 103.5q30 34.5 30 90.5q0 59 -28.5 95t-74.5 36q-35 0 -66 -19
t-53 -53q6 -184 115 -184q47 0 77 34.5zM668.5 -29.5q82.5 47.5 128.5 133.5t46 197t-46 196t-128.5 132t-188.5 47t-188.5 -47t-128.5 -132t-46 -196t46 -197t128.5 -133.5t188.5 -47.5t188.5 47.5zM352.5 79.5q-47.5 69.5 -47.5 208.5q0 148 47 228t136 80q61 0 102 -35.5
t55 -99.5h-68q-13 40 -34.5 58t-54.5 18q-101 0 -116 -204q56 51 124 51q48 0 86 -24t59 -67t21 -97q0 -52 -21.5 -94.5t-61.5 -67t-91 -24.5q-88 0 -135.5 69.5z" />
    <glyph glyph-name="uni2466" unicode="&#x2466;" horiz-adv-x="960" 
d="M260 -87q-101 56 -159 157.5t-58 230.5q0 131 59 232q58 100 157.5 154.5t220.5 54.5q120 0 220 -54q101 -56 158.5 -157t57.5 -230q0 -132 -58 -232q-58 -101 -157.5 -156t-220.5 -55q-120 0 -220 55zM576 502h-246v58h319v-43l-158 -518h-70zM668.5 -29.5
q82.5 47.5 128.5 133.5t46 197t-46 196t-128.5 132t-188.5 47t-188.5 -47t-128.5 -132t-46 -196t46 -197t128.5 -133.5t188.5 -47.5t188.5 47.5z" />
    <glyph glyph-name="uni2467" unicode="&#x2467;" horiz-adv-x="960" 
d="M260 -87q-101 56 -159 157.5t-58 230.5q0 131 59 232q58 100 157.5 154.5t220.5 54.5q120 0 220 -54q101 -56 158.5 -157t57.5 -230q0 -132 -58 -232q-58 -101 -157.5 -156t-220.5 -55q-120 0 -220 55zM580.5 101q34.5 27 34.5 70q0 42 -30 72.5t-104 57.5
q-115 -46 -115 -135q0 -40 35 -66t90 -26t89.5 27zM668.5 -29.5q82.5 47.5 128.5 133.5t46 197t-46 196t-128.5 132t-188.5 47t-188.5 -47t-128.5 -132t-46 -196t46 -197t128.5 -133.5t188.5 -47.5t188.5 47.5zM353.5 57.5q-52.5 39.5 -52.5 108.5q0 51 30.5 93.5t85.5 70.5
q-46 25 -69 55t-23 68q0 37 21 68.5t58.5 49.5t85.5 18t85.5 -18.5t58.5 -50.5t21 -70q0 -42 -23 -75.5t-65 -54.5q54 -24 83.5 -64t29.5 -86q0 -68 -52.5 -110t-136.5 -42q-85 0 -137.5 39.5zM569.5 395.5q19.5 24.5 19.5 54.5q0 36 -27.5 60t-71.5 24t-71 -22.5t-27 -58.5
q0 -29 25 -53q24 -24 93 -53q40 24 59.5 48.5z" />
    <glyph glyph-name="uni2468" unicode="&#x2468;" horiz-adv-x="960" 
d="M260 -87q-101 56 -159 157.5t-58 230.5q0 131 59 232q58 100 157.5 154.5t220.5 54.5q120 0 220 -54q101 -56 158.5 -157t57.5 -230q0 -132 -58 -232q-58 -101 -157.5 -156t-220.5 -55q-120 0 -220 55zM668.5 -29.5q82.5 47.5 128.5 133.5t46 197t-46 196t-128.5 132
t-188.5 47t-188.5 -47t-128.5 -132t-46 -196t46 -197t128.5 -133.5t188.5 -47.5t188.5 47.5zM368.5 43.5q-43.5 43.5 -52.5 108.5h67q10 -44 34.5 -68t67.5 -24q54 0 80 53t30 176q-23 -21 -54.5 -32.5t-66.5 -11.5q-76 0 -123.5 47t-47.5 122q0 54 22.5 95.5t62.5 64.5
t91 23q182 0 182 -276q0 -118 -20 -190q-20 -69 -58.5 -100t-99.5 -31q-71 0 -114.5 43.5zM541.5 317q26.5 12 51.5 39q-2 88 -31 134.5t-83 46.5q-49 0 -78.5 -32.5t-29.5 -87.5q0 -51 29 -81.5t79 -30.5q36 0 62.5 12z" />
    <glyph glyph-name="uni2469" unicode="&#x2469;" horiz-adv-x="960" 
d="M260 -87q-101 56 -159 157.5t-58 230.5q0 131 59 232q58 100 157.5 154.5t220.5 54.5q120 0 220 -54q101 -56 158.5 -157t57.5 -230q0 -132 -58 -232q-58 -101 -157.5 -156t-220.5 -55q-120 0 -220 55zM230 478v40q39 6 74 24h54v-496h-59v432h-69zM668.5 -29.5
q82.5 47.5 128.5 133.5t46 197t-46 196t-128.5 132t-188.5 47t-188.5 -47t-128.5 -132t-46 -196t46 -197t128.5 -133.5t188.5 -47.5t188.5 47.5zM465.5 102q-43.5 68 -43.5 191q0 124 43 192.5t123 68.5q78 0 120.5 -69t42.5 -192t-42.5 -191t-120.5 -68q-79 0 -122.5 68z
M664.5 140.5q27.5 53.5 27.5 152.5t-27.5 153t-76.5 54q-51 0 -78 -53t-27 -154q0 -100 27 -153t78 -53q49 0 76.5 53.5z" />
    <glyph glyph-name="uni246A" unicode="&#x246a;" horiz-adv-x="960" 
d="M260 -87q-101 56 -159 157.5t-58 230.5q0 131 59 232q58 100 157.5 154.5t220.5 54.5q120 0 220 -54q101 -56 158.5 -157t57.5 -230q0 -132 -58 -232q-58 -101 -157.5 -156t-220.5 -55q-120 0 -220 55zM283 489v46q39 7 83 26h62v-522h-69v450h-76zM668.5 -29.5
q82.5 47.5 128.5 133.5t46 197t-46 196t-128.5 132t-188.5 47t-188.5 -47t-128.5 -132t-46 -196t46 -197t128.5 -133.5t188.5 -47.5t188.5 47.5zM513 489v46q39 7 83 26h62v-522h-69v450h-76z" />
    <glyph glyph-name="uni246B" unicode="&#x246b;" horiz-adv-x="960" 
d="M260 -87q-101 56 -159 157.5t-58 230.5q0 131 59 232q58 100 157.5 154.5t220.5 54.5q120 0 220 -54q101 -56 158.5 -157t57.5 -230q0 -132 -58 -232q-58 -101 -157.5 -156t-220.5 -55q-120 0 -220 55zM232 492v43q50 9 78 24h57v-515h-63v448h-72zM668.5 -29.5
q82.5 47.5 128.5 133.5t46 197t-46 196t-128.5 132t-188.5 47t-188.5 -47t-128.5 -132t-46 -196t46 -197t128.5 -133.5t188.5 -47.5t188.5 47.5zM418 92q57 64 134 155l24 29q41 52 58.5 87t17.5 67q0 39 -23 63t-60 24q-39 0 -62.5 -25t-22.5 -66h-63q-1 64 41 104.5
t108 40.5q62 0 103 -40t41 -101q0 -44 -21.5 -87t-70.5 -105l-117 -139h222v-55h-309v48z" />
    <glyph glyph-name="uni246C" unicode="&#x246c;" horiz-adv-x="960" 
d="M260 -87q-101 56 -159 157.5t-58 230.5q0 131 59 232q58 100 157.5 154.5t220.5 54.5q120 0 220 -54q101 -56 158.5 -157t57.5 -230q0 -132 -58 -232q-58 -101 -157.5 -156t-220.5 -55q-120 0 -220 55zM233 496v41q53 12 78 24h56v-516h-62v451h-72zM668.5 -29.5
q82.5 47.5 128.5 133.5t46 197t-46 196t-128.5 132t-188.5 47t-188.5 -47t-128.5 -132t-46 -196t46 -197t128.5 -133.5t188.5 -47.5t188.5 47.5zM462.5 65.5q-44.5 34.5 -51.5 95.5h63q12 -76 106 -76q46 0 76 27t30 69q0 50 -36 78.5t-92 28.5h-73v51h64q53 0 85.5 27.5
t32.5 70.5q0 39 -23 61t-62 22q-34 0 -58 -17t-32 -48h-61q10 54 51.5 86.5t99.5 32.5q63 0 105 -37.5t42 -96.5q0 -42 -20 -74.5t-53 -50.5q42 -16 67 -51.5t25 -82.5q0 -43 -22 -77t-60 -53.5t-85 -19.5q-74 0 -118.5 34.5z" />
    <glyph glyph-name="uni246D" unicode="&#x246d;" horiz-adv-x="960" 
d="M260 -87q-101 56 -159 157.5t-58 230.5q0 131 59 232q58 100 157.5 154.5t220.5 54.5q120 0 220 -54q101 -56 158.5 -157t57.5 -230q0 -132 -58 -232q-58 -101 -157.5 -156t-220.5 -55q-120 0 -220 55zM224 496v41q56 14 77 24h57v-516h-63v451h-71zM668.5 -29.5
q82.5 47.5 128.5 133.5t46 197t-46 196t-128.5 132t-188.5 47t-188.5 -47t-128.5 -132t-46 -196t46 -197t128.5 -133.5t188.5 -47.5t188.5 47.5zM636 464l-155 -258h155v258zM403 151v46l224 365h72v-356h79v-55h-79v-106h-63v106h-233z" />
    <glyph glyph-name="uni246E" unicode="&#x246e;" horiz-adv-x="960" 
d="M260 -87q-101 56 -159 157.5t-58 230.5q0 131 59 232q58 100 157.5 154.5t220.5 54.5q120 0 220 -54q101 -56 158.5 -157t57.5 -230q0 -132 -58 -232q-58 -101 -157.5 -156t-220.5 -55q-120 0 -220 55zM217 487v44q46 7 77 23h58v-515h-63v448h-72zM668.5 -29.5
q82.5 47.5 128.5 133.5t46 197t-46 196t-128.5 132t-188.5 47t-188.5 -47t-128.5 -132t-46 -196t46 -197t128.5 -133.5t188.5 -47.5t188.5 47.5zM466 68q-45 42 -49 117h61q14 -105 104 -105q47 0 76.5 34.5t29.5 90.5q0 51 -27.5 82.5t-72.5 31.5t-94 -35h-59l35 271h253
v-55h-197l-19 -148q45 20 85 20q70 0 114.5 -47.5t44.5 -122.5q0 -51 -21.5 -91t-60 -62.5t-87.5 -22.5q-71 0 -116 42z" />
    <glyph glyph-name="uni2474" unicode="&#x2474;" horiz-adv-x="960" 
d="M710 -98q63 66 99 175t36 218t-36 217.5t-99 174.5l53 42q72 -68 112.5 -184t40.5 -250t-40.5 -250t-112.5 -184zM196 -139q-72 68 -112.5 184t-40.5 250t40.5 250t112.5 184l53 -42q-63 -66 -99 -174.5t-36 -217.5t36 -218t99 -175zM396 509v46q39 7 83 26h62v-552h-69
v480h-76z" />
    <glyph glyph-name="uni2475" unicode="&#x2475;" horiz-adv-x="960" 
d="M325 85q115 132 170 201q43 54 63.5 94t20.5 73q0 42 -25.5 68.5t-66.5 26.5q-42 0 -67.5 -27t-24.5 -72h-67q-1 45 19.5 81t57.5 56.5t84 20.5q44 0 80 -20t56.5 -55t20.5 -79q0 -49 -23 -95.5t-77 -112.5q-67 -82 -129 -153h243v-59h-335v52zM196 -139
q-72 68 -112.5 184t-40.5 250t40.5 250t112.5 184l53 -42q-63 -66 -99 -174.5t-36 -217.5t36 -218t99 -175zM710 -98q63 66 99 175t36 218t-36 217.5t-99 174.5l53 42q72 -68 112.5 -184t40.5 -250t-40.5 -250t-112.5 -184z" />
    <glyph glyph-name="uni2476" unicode="&#x2476;" horiz-adv-x="960" 
d="M357 42.5q-49 37.5 -57 104.5h68q8 -42 37 -62t81 -20q51 0 83 29t32 75q0 55 -38.5 85.5t-100.5 30.5h-80v57h69q57 0 93 31t36 77q0 43 -24.5 67t-67.5 24q-39 0 -64.5 -18t-33.5 -52h-67q10 58 56 94t109 36q70 0 115.5 -42t45.5 -106q0 -46 -22.5 -82t-59.5 -55
q48 -18 75.5 -56.5t27.5 -90.5q0 -47 -24 -84.5t-65.5 -58.5t-93.5 -21q-81 0 -130 37.5zM196 -139q-72 68 -112.5 184t-40.5 250t40.5 250t112.5 184l53 -42q-63 -66 -99 -174.5t-36 -217.5t36 -218t99 -175zM710 -98q63 66 99 175t36 218t-36 217.5t-99 174.5l53 42
q72 -68 112.5 -184t40.5 -250t-40.5 -250t-112.5 -184z" />
    <glyph glyph-name="uni2477" unicode="&#x2477;" horiz-adv-x="960" 
d="M242 123v52l258 423h81v-413h94v-62h-94v-123h-70v123h-269zM196 -139q-72 68 -112.5 184t-40.5 250t40.5 250t112.5 184l53 -42q-63 -66 -99 -174.5t-36 -217.5t36 -218t99 -175zM511 502l-181 -317h181v317zM710 -98q63 66 99 175t36 218t-36 217.5t-99 174.5l53 42
q72 -68 112.5 -184t40.5 -250t-40.5 -250t-112.5 -184z" />
    <glyph glyph-name="uni2478" unicode="&#x2478;" horiz-adv-x="960" 
d="M365 57.5q-48 44.5 -54 124.5h65q14 -111 111 -111q52 0 83.5 36t31.5 97q0 55 -29 88.5t-78 33.5q-51 0 -101 -36h-63l38 288h268v-58h-210l-19 -159q42 21 90 21q76 0 123 -50.5t47 -130.5q0 -55 -23.5 -97.5t-64.5 -66.5t-93 -24q-74 0 -122 44.5zM196 -139
q-72 68 -112.5 184t-40.5 250t40.5 250t112.5 184l53 -42q-63 -66 -99 -174.5t-36 -217.5t36 -218t99 -175zM710 -98q63 66 99 175t36 218t-36 217.5t-99 174.5l53 42q72 -68 112.5 -184t40.5 -250t-40.5 -250t-112.5 -184z" />
    <glyph glyph-name="uni2479" unicode="&#x2479;" horiz-adv-x="960" 
d="M352.5 79.5q-47.5 69.5 -47.5 208.5q0 148 47 228t136 80q61 0 102 -35.5t55 -99.5h-68q-13 40 -34.5 58t-54.5 18q-101 0 -116 -204q56 51 124 51q48 0 86 -24t59 -67t21 -97q0 -52 -21.5 -94.5t-61.5 -67t-91 -24.5q-88 0 -135.5 69.5zM196 -139q-72 68 -112.5 184
t-40.5 250t40.5 250t112.5 184l53 -42q-63 -66 -99 -174.5t-36 -217.5t36 -218t99 -175zM565 103.5q30 34.5 30 90.5q0 59 -28.5 95t-74.5 36q-35 0 -66 -19t-53 -53q6 -184 115 -184q47 0 77 34.5zM710 -98q63 66 99 175t36 218t-36 217.5t-99 174.5l53 42
q72 -68 112.5 -184t40.5 -250t-40.5 -250t-112.5 -184z" />
    <glyph glyph-name="uni247A" unicode="&#x247a;" horiz-adv-x="960" 
d="M576 502h-246v58h319v-43l-158 -518h-70zM196 -139q-72 68 -112.5 184t-40.5 250t40.5 250t112.5 184l53 -42q-63 -66 -99 -174.5t-36 -217.5t36 -218t99 -175zM710 -98q63 66 99 175t36 218t-36 217.5t-99 174.5l53 42q72 -68 112.5 -184t40.5 -250t-40.5 -250
t-112.5 -184z" />
    <glyph glyph-name="uni247B" unicode="&#x247b;" horiz-adv-x="960" 
d="M353.5 57.5q-52.5 39.5 -52.5 108.5q0 51 30.5 93.5t85.5 70.5q-46 25 -69 55t-23 68q0 37 21 68.5t58.5 49.5t85.5 18t85.5 -18.5t58.5 -50.5t21 -70q0 -42 -23 -75.5t-65 -54.5q54 -24 83.5 -64t29.5 -86q0 -68 -52.5 -110t-136.5 -42q-85 0 -137.5 39.5zM196 -139
q-72 68 -112.5 184t-40.5 250t40.5 250t112.5 184l53 -42q-63 -66 -99 -174.5t-36 -217.5t36 -218t99 -175zM580.5 101q34.5 27 34.5 70q0 42 -30 72.5t-104 57.5q-115 -46 -115 -135q0 -40 35 -66t90 -26t89.5 27zM569.5 395.5q19.5 24.5 19.5 54.5q0 36 -27.5 60t-71.5 24
t-71 -22.5t-27 -58.5q0 -29 25 -53q24 -24 93 -53q40 24 59.5 48.5zM710 -98q63 66 99 175t36 218t-36 217.5t-99 174.5l53 42q72 -68 112.5 -184t40.5 -250t-40.5 -250t-112.5 -184z" />
    <glyph glyph-name="uni247C" unicode="&#x247c;" horiz-adv-x="960" 
d="M368.5 43.5q-43.5 43.5 -52.5 108.5h67q10 -44 34.5 -68t67.5 -24q54 0 80 53t30 176q-23 -21 -54.5 -32.5t-66.5 -11.5q-76 0 -123.5 47t-47.5 122q0 54 22.5 95.5t62.5 64.5t91 23q182 0 182 -276q0 -118 -20 -190q-20 -69 -58.5 -100t-99.5 -31q-71 0 -114.5 43.5z
M196 -139q-72 68 -112.5 184t-40.5 250t40.5 250t112.5 184l53 -42q-63 -66 -99 -174.5t-36 -217.5t36 -218t99 -175zM541.5 317q26.5 12 51.5 39q-2 88 -31 134.5t-83 46.5q-49 0 -78.5 -32.5t-29.5 -87.5q0 -51 29 -81.5t79 -30.5q36 0 62.5 12zM710 -98q63 66 99 175
t36 218t-36 217.5t-99 174.5l53 42q72 -68 112.5 -184t40.5 -250t-40.5 -250t-112.5 -184z" />
    <glyph glyph-name="uni247D" unicode="&#x247d;" horiz-adv-x="960" 
d="M710 -98q63 66 99 175t36 218t-36 217.5t-99 174.5l53 42q72 -68 112.5 -184t40.5 -250t-40.5 -250t-112.5 -184zM196 -139q-72 68 -112.5 184t-40.5 250t40.5 250t112.5 184l53 -42q-63 -66 -99 -174.5t-36 -217.5t36 -218t99 -175zM230 478v40q39 6 74 24h54v-496h-59
v432h-69zM465.5 102q-43.5 68 -43.5 191q0 124 43 192.5t123 68.5q78 0 120.5 -69t42.5 -192t-42.5 -191t-120.5 -68q-79 0 -122.5 68zM664.5 140.5q27.5 53.5 27.5 152.5t-27.5 153t-76.5 54q-51 0 -78 -53t-27 -154q0 -100 27 -153t78 -53q49 0 76.5 53.5z" />
    <glyph glyph-name="uni247E" unicode="&#x247e;" horiz-adv-x="960" 
d="M710 -98q63 66 99 175t36 218t-36 217.5t-99 174.5l53 42q72 -68 112.5 -184t40.5 -250t-40.5 -250t-112.5 -184zM196 -139q-72 68 -112.5 184t-40.5 250t40.5 250t112.5 184l53 -42q-63 -66 -99 -174.5t-36 -217.5t36 -218t99 -175zM283 489v46q39 7 83 26h62v-522h-69
v450h-76zM513 489v46q39 7 83 26h62v-522h-69v450h-76z" />
    <glyph glyph-name="uni247F" unicode="&#x247f;" horiz-adv-x="960" 
d="M710 -98q63 66 99 175t36 218t-36 217.5t-99 174.5l53 42q72 -68 112.5 -184t40.5 -250t-40.5 -250t-112.5 -184zM196 -139q-72 68 -112.5 184t-40.5 250t40.5 250t112.5 184l53 -42q-63 -66 -99 -174.5t-36 -217.5t36 -218t99 -175zM232 492v43q50 9 78 24h57v-515h-63
v448h-72zM418 92q57 64 134 155l24 29q41 52 58.5 87t17.5 67q0 39 -23 63t-60 24q-39 0 -62.5 -25t-22.5 -66h-63q-1 64 41 104.5t108 40.5q62 0 103 -40t41 -101q0 -44 -21.5 -87t-70.5 -105l-117 -139h222v-55h-309v48z" />
    <glyph glyph-name="uni2480" unicode="&#x2480;" horiz-adv-x="960" 
d="M462.5 65.5q-44.5 34.5 -51.5 95.5h63q12 -76 106 -76q46 0 76 27t30 69q0 50 -36 78.5t-92 28.5h-73v51h64q53 0 85.5 27.5t32.5 70.5q0 39 -23 61t-62 22q-34 0 -58 -17t-32 -48h-61q10 54 51.5 86.5t99.5 32.5q63 0 105 -37.5t42 -96.5q0 -42 -20 -74.5t-53 -50.5
q42 -16 67 -51.5t25 -82.5q0 -43 -22 -77t-60 -53.5t-85 -19.5q-74 0 -118.5 34.5zM196 -139q-72 68 -112.5 184t-40.5 250t40.5 250t112.5 184l53 -42q-63 -66 -99 -174.5t-36 -217.5t36 -218t99 -175zM233 496v41q53 12 78 24h56v-516h-62v451h-72zM710 -98q63 66 99 175
t36 218t-36 217.5t-99 174.5l53 42q72 -68 112.5 -184t40.5 -250t-40.5 -250t-112.5 -184z" />
    <glyph glyph-name="uni2481" unicode="&#x2481;" horiz-adv-x="960" 
d="M403 151v46l224 365h72v-356h79v-55h-79v-106h-63v106h-233zM196 -139q-72 68 -112.5 184t-40.5 250t40.5 250t112.5 184l53 -42q-63 -66 -99 -174.5t-36 -217.5t36 -218t99 -175zM224 496v41q56 14 77 24h57v-516h-63v451h-71zM636 464l-155 -258h155v258zM710 -98
q63 66 99 175t36 218t-36 217.5t-99 174.5l53 42q72 -68 112.5 -184t40.5 -250t-40.5 -250t-112.5 -184z" />
    <glyph glyph-name="uni2482" unicode="&#x2482;" horiz-adv-x="960" 
d="M710 -98q63 66 99 175t36 218t-36 217.5t-99 174.5l53 42q72 -68 112.5 -184t40.5 -250t-40.5 -250t-112.5 -184zM196 -139q-72 68 -112.5 184t-40.5 250t40.5 250t112.5 184l53 -42q-63 -66 -99 -174.5t-36 -217.5t36 -218t99 -175zM217 487v44q46 7 77 23h58v-515h-63
v448h-72zM466 68q-45 42 -49 117h61q14 -105 104 -105q47 0 76.5 34.5t29.5 90.5q0 51 -27.5 82.5t-72.5 31.5t-94 -35h-59l35 271h253v-55h-197l-19 -148q45 20 85 20q70 0 114.5 -47.5t44.5 -122.5q0 -51 -21.5 -91t-60 -62.5t-87.5 -22.5q-71 0 -116 42z" />
    <glyph glyph-name="uni249C" unicode="&#x249c;" horiz-adv-x="960" 
d="M364.5 99.5q-45.5 29.5 -70.5 82.5t-25 123q0 71 27.5 126.5t75.5 86t105 30.5q80 0 125 -55v44h68v-451h-63l-4 53q-24 -33 -58 -51t-76 -18q-59 0 -104.5 29.5zM201 -139q-72 68 -112.5 184t-40.5 250t40.5 250t112.5 184l53 -42q-63 -66 -99 -174.5t-36 -217.5
t36 -218t99 -175zM536.5 154q29.5 20 47.5 53t18 72v96q-3 44 -36 76.5t-85 32.5q-60 0 -96.5 -48.5t-36.5 -130.5q0 -78 34 -124.5t91 -46.5q34 0 63.5 20zM710 -98q63 66 99 175t36 218t-36 217.5t-99 174.5l53 42q72 -68 112.5 -184t40.5 -250t-40.5 -250t-112.5 -184z
" />
    <glyph glyph-name="uni249D" unicode="&#x249d;" horiz-adv-x="960" 
d="M459.5 20q-30.5 14 -49.5 39l-3 -39h-65v585h70v-221q23 29 56 45t72 16q50 0 90.5 -27.5t63.5 -76.5t23 -110q0 -66 -24.5 -117.5t-67.5 -79.5t-97 -28q-38 0 -68.5 14zM201 -139q-72 68 -112.5 184t-40.5 250t40.5 250t112.5 184l53 -42q-63 -66 -99 -174.5t-36 -217.5
t36 -218t99 -175zM613.5 109.5q33.5 41.5 33.5 121.5q0 69 -30.5 110.5t-83.5 41.5q-41 0 -74 -29.5t-47 -78.5v-131q14 -32 42.5 -54t62.5 -22q63 0 96.5 41.5zM710 -98q63 66 99 175t36 218t-36 217.5t-99 174.5l53 42q72 -68 112.5 -184t40.5 -250t-40.5 -250
t-112.5 -184z" />
    <glyph glyph-name="uni249E" unicode="&#x249e;" horiz-adv-x="960" 
d="M326.5 122.5q-60.5 66.5 -60.5 179.5q0 72 29 127.5t80.5 86.5t115.5 31q53 0 96 -21.5t69 -59.5t30 -86h-76q-2 46 -35.5 74t-83.5 28q-68 0 -109 -48.5t-41 -131.5q0 -87 39.5 -134t110.5 -47q55 0 88.5 29t34.5 80h77q-4 -80 -58 -127t-142 -47q-104 0 -164.5 66.5z
M201 -139q-72 68 -112.5 184t-40.5 250t40.5 250t112.5 184l53 -42q-63 -66 -99 -174.5t-36 -217.5t36 -218t99 -175zM710 -98q63 66 99 175t36 218t-36 217.5t-99 174.5l53 42q72 -68 112.5 -184t40.5 -250t-40.5 -250t-112.5 -184z" />
    <glyph glyph-name="uni249F" unicode="&#x249f;" horiz-adv-x="960" 
d="M354.5 32q-41.5 27 -64.5 75.5t-23 112.5q0 62 25 112.5t68.5 80t97.5 29.5q71 0 112 -47v206h70v-582h-65l-4 47q-46 -61 -121 -61q-54 0 -95.5 27zM201 -139q-72 68 -112.5 184t-40.5 250t40.5 250t112.5 184l53 -42q-63 -66 -99 -174.5t-36 -217.5t36 -218t99 -175z
M534.5 104.5q33.5 37.5 35.5 89.5v89q-3 39 -32.5 68.5t-75.5 29.5q-58 0 -91 -42.5t-33 -118.5q0 -71 31 -112t85 -41q47 0 80.5 37.5zM710 -98q63 66 99 175t36 218t-36 217.5t-99 174.5l53 42q72 -68 112.5 -184t40.5 -250t-40.5 -250t-112.5 -184z" />
    <glyph glyph-name="uni24A0" unicode="&#x24a0;" horiz-adv-x="960" 
d="M329.5 127q-57.5 65 -57.5 176q0 70 27 124.5t75 84.5t110 30q58 0 104.5 -25.5t74 -75t29.5 -116.5v-42h-350q2 -76 39.5 -118t106.5 -42q52 0 84 20t44 57h74q-15 -64 -68 -101t-134 -37q-101 0 -158.5 65zM201 -139q-72 68 -112.5 184t-40.5 250t40.5 250t112.5 184
l53 -42q-63 -66 -99 -174.5t-36 -217.5t36 -218t99 -175zM623 345q-4 64 -42.5 100.5t-96.5 36.5q-60 0 -97.5 -37t-43.5 -100h280zM710 -98q63 66 99 175t36 218t-36 217.5t-99 174.5l53 42q72 -68 112.5 -184t40.5 -250t-40.5 -250t-112.5 -184z" />
    <glyph glyph-name="uni24A1" unicode="&#x24a1;" horiz-adv-x="960" 
d="M710 -98q63 66 99 175t36 218t-36 217.5t-99 174.5l53 42q72 -68 112.5 -184t40.5 -250t-40.5 -250t-112.5 -184zM201 -139q-72 68 -112.5 184t-40.5 250t40.5 250t112.5 184l53 -42q-63 -66 -99 -174.5t-36 -217.5t36 -218t99 -175zM346 354v60h84v45q0 63 26 94.5
t85 31.5q26 0 46 -4v-59l-33 2q-31 0 -43 -12t-12 -44v-54h98v-60h-98v-352h-69v352h-84z" />
    <glyph glyph-name="uni24A2" unicode="&#x24a2;" horiz-adv-x="960" 
d="M438 67q67 0 101 11.5t47.5 40.5t13.5 87v13q-43 -58 -125 -58q-85 0 -137 56t-52 149q0 60 25.5 109.5t70 78t100.5 28.5q80 0 120 -54l4 44h65v-343q0 -84 -18 -131q-19 -48 -68 -70t-139 -22h-106v61h98zM201 -139q-72 68 -112.5 184t-40.5 250t40.5 250t112.5 184
l53 -42q-63 -66 -99 -174.5t-36 -217.5t36 -218t99 -175zM565.5 261.5q33.5 38.5 34.5 95.5v58q-2 41 -33 73t-81 32q-58 0 -93.5 -41.5t-35.5 -112.5q0 -67 32 -105t90 -38q53 0 86.5 38.5zM710 -98q63 66 99 175t36 218t-36 217.5t-99 174.5l53 42q72 -68 112.5 -184
t40.5 -250t-40.5 -250t-112.5 -184z" />
    <glyph glyph-name="uni24A3" unicode="&#x24a3;" horiz-adv-x="960" 
d="M383 588v-228q29 34 66 54t77 20q58 0 95 -37t37 -108v-266h-67v240q0 58 -15.5 85t-53.5 27q-77 0 -139 -87v-265h-67v565h67zM201 -139q-72 68 -112.5 184t-40.5 250t40.5 250t112.5 184l53 -42q-63 -66 -99 -174.5t-36 -217.5t36 -218t99 -175zM710 -98q63 66 99 175
t36 218t-36 217.5t-99 174.5l53 42q72 -68 112.5 -184t40.5 -250t-40.5 -250t-112.5 -184z" />
    <glyph glyph-name="uni24A4" unicode="&#x24a4;" horiz-adv-x="960" 
d="M710 -98q63 66 99 175t36 218t-36 217.5t-99 174.5l53 42q72 -68 112.5 -184t40.5 -250t-40.5 -250t-112.5 -184zM201 -139q-72 68 -112.5 184t-40.5 250t40.5 250t112.5 184l53 -42q-63 -66 -99 -174.5t-36 -217.5t36 -218t99 -175zM518 428v-431h-72v431h72zM445.5 524
q-14.5 13 -14.5 33t14.5 34t36.5 14q23 0 37 -13.5t14 -34.5q0 -20 -14 -33t-37 -13q-22 0 -36.5 13z" />
    <glyph glyph-name="uni24A5" unicode="&#x24a5;" horiz-adv-x="960" 
d="M710 -98q63 66 99 175t36 218t-36 217.5t-99 174.5l53 42q72 -68 112.5 -184t40.5 -250t-40.5 -250t-112.5 -184zM201 -139q-72 68 -112.5 184t-40.5 250t40.5 250t112.5 184l53 -42q-63 -66 -99 -174.5t-36 -217.5t36 -218t99 -175zM403 44q39 -2 59 6q19 7 25.5 22.5
t6.5 49.5v324h76v-301q0 -69 -10 -102q-11 -35 -47.5 -50t-109.5 -13v64zM493 528.5q-15 14.5 -15 35.5t15 35.5t39 14.5t39 -14.5t15 -35.5t-15 -35.5t-39 -14.5t-39 14.5z" />
    <glyph glyph-name="uni24A6" unicode="&#x24a6;" horiz-adv-x="960" 
d="M405 604v-333l162 157h96l-197 -185l207 -241h-91l-177 213v-213h-72v602h72zM201 -139q-72 68 -112.5 184t-40.5 250t40.5 250t112.5 184l53 -42q-63 -66 -99 -174.5t-36 -217.5t36 -218t99 -175zM710 -98q63 66 99 175t36 218t-36 217.5t-99 174.5l53 42
q72 -68 112.5 -184t40.5 -250t-40.5 -250t-112.5 -184z" />
    <glyph glyph-name="uni24A7" unicode="&#x24a7;" horiz-adv-x="960" 
d="M710 -98q63 66 99 175t36 218t-36 217.5t-99 174.5l53 42q72 -68 112.5 -184t40.5 -250t-40.5 -250t-112.5 -184zM201 -139q-72 68 -112.5 184t-40.5 250t40.5 250t112.5 184l53 -42q-63 -66 -99 -174.5t-36 -217.5t36 -218t99 -175zM504 -10q-39 0 -53.5 23t-14.5 84
v497h65v-498q0 -29 8 -40.5t29 -11.5q14 0 19 1v-47q-13 -4 -28 -6z" />
    <glyph glyph-name="uni24A8" unicode="&#x24a8;" horiz-adv-x="960" 
d="M290 502l2 -37q50 47 111 47q76 0 101 -61q52 61 123 61q55 0 85.5 -33.5t30.5 -103.5v-280h-65v247q0 63 -12 88t-48 25q-50 0 -101 -64v-296h-65v247q0 63 -12 88t-48 25q-50 0 -98 -61v-299h-65v407h61zM201 -139q-72 68 -112.5 184t-40.5 250t40.5 250t112.5 184
l53 -42q-63 -66 -99 -174.5t-36 -217.5t36 -218t99 -175zM710 -98q63 66 99 175t36 218t-36 217.5t-99 174.5l53 42q72 -68 112.5 -184t40.5 -250t-40.5 -250t-112.5 -184z" />
    <glyph glyph-name="uni24A9" unicode="&#x24a9;" horiz-adv-x="960" 
d="M364 533l4 -60q35 33 80 52.5t92 19.5q66 0 107 -41.5t41 -121.5v-304h-67v274q0 70 -19.5 102.5t-68.5 32.5q-44 0 -86.5 -22.5t-77.5 -62.5v-324h-68v455h63zM201 -139q-72 68 -112.5 184t-40.5 250t40.5 250t112.5 184l53 -42q-63 -66 -99 -174.5t-36 -217.5t36 -218
t99 -175zM710 -98q63 66 99 175t36 218t-36 217.5t-99 174.5l53 42q72 -68 112.5 -184t40.5 -250t-40.5 -250t-112.5 -184z" />
    <glyph glyph-name="uni24AA" unicode="&#x24aa;" horiz-adv-x="960" 
d="M367.5 79q-51.5 32 -81 89t-29.5 131t29.5 131t81.5 89t116 32t116 -32t81.5 -89t29.5 -131t-29.5 -131t-81 -89t-116.5 -32t-116.5 32zM201 -139q-72 68 -112.5 184t-40.5 250t40.5 250t112.5 184l53 -42q-63 -66 -99 -174.5t-36 -217.5t36 -218t99 -175zM596 160
q43 52 43 139q0 88 -43 139.5t-112 51.5t-112 -51.5t-43 -139.5q0 -87 43 -139t112 -52t112 52zM710 -98q63 66 99 175t36 218t-36 217.5t-99 174.5l53 42q72 -68 112.5 -184t40.5 -250t-40.5 -250t-112.5 -184z" />
    <glyph glyph-name="uni24AB" unicode="&#x24ab;" horiz-adv-x="960" 
d="M399 568l5 -55q24 31 57.5 47.5t73.5 16.5q51 0 92 -27.5t64.5 -77t23.5 -112.5q0 -67 -24.5 -119t-68 -80.5t-98.5 -28.5q-76 0 -119 53v-175h-70v558h64zM201 -139q-72 68 -112.5 184t-40.5 250t40.5 250t112.5 184l53 -42q-63 -66 -99 -174.5t-36 -217.5t36 -218
t99 -175zM610.5 236q34.5 43 34.5 124q0 70 -32.5 113.5t-86.5 43.5q-41 0 -73.5 -29t-47.5 -77v-125q7 -40 36 -66.5t72 -26.5q63 0 97.5 43zM710 -98q63 66 99 175t36 218t-36 217.5t-99 174.5l53 42q72 -68 112.5 -184t40.5 -250t-40.5 -250t-112.5 -184z" />
    <glyph glyph-name="uni24AC" unicode="&#x24ac;" horiz-adv-x="960" 
d="M590 207q-47 -68 -127 -68q-55 0 -98 27.5t-67 77t-24 114.5q0 66 26.5 117.5t71.5 80.5t99 29q79 0 120 -56l4 45h61v-559h-66v192zM201 -139q-72 68 -112.5 184t-40.5 250t40.5 250t112.5 184l53 -42q-63 -66 -99 -174.5t-36 -217.5t36 -218t99 -175zM552.5 237
q35.5 40 37.5 97v91q-4 44 -36 73.5t-79 29.5q-60 0 -96 -46t-36 -124q0 -74 33.5 -117.5t90.5 -43.5q50 0 85.5 40zM710 -98q63 66 99 175t36 218t-36 217.5t-99 174.5l53 42q72 -68 112.5 -184t40.5 -250t-40.5 -250t-112.5 -184z" />
    <glyph glyph-name="uni24AD" unicode="&#x24ad;" horiz-adv-x="960" 
d="M710 -98q63 66 99 175t36 218t-36 217.5t-99 174.5l53 42q72 -68 112.5 -184t40.5 -250t-40.5 -250t-112.5 -184zM201 -139q-72 68 -112.5 184t-40.5 250t40.5 250t112.5 184l53 -42q-63 -66 -99 -174.5t-36 -217.5t36 -218t99 -175zM445 518l4 -58q52 65 129 70
q48 3 81 -10v-65q-43 17 -94 13q-32 -3 -63 -24t-52 -58v-348h-69v480h64z" />
    <glyph glyph-name="uni24AE" unicode="&#x24ae;" horiz-adv-x="960" 
d="M710 -98q63 66 99 175t36 218t-36 217.5t-99 174.5l53 42q72 -68 112.5 -184t40.5 -250t-40.5 -250t-112.5 -184zM201 -139q-72 68 -112.5 184t-40.5 250t40.5 250t112.5 184l53 -42q-63 -66 -99 -174.5t-36 -217.5t36 -218t99 -175zM394.5 84.5q-46.5 18.5 -70.5 51
t-22 71.5h69l-1 -8q0 -31 39 -52t97 -21q47 0 72.5 18.5t25.5 50.5q0 22 -11 36q-12 14 -40.5 26t-81.5 28q-62 19 -87 31q-67 28 -67 97q0 57 49 88.5t118 31.5q75 0 124 -31t50 -86h-68q2 24 -28 41.5t-82 17.5q-42 0 -68 -16t-26 -43q0 -29 26 -43q26 -15 88 -33l19 -6
q83 -25 118 -55.5t35 -80.5q0 -63 -45.5 -97.5t-122.5 -34.5q-63 0 -109.5 18.5z" />
    <glyph glyph-name="uni24AF" unicode="&#x24af;" horiz-adv-x="960" 
d="M710 -98q63 66 99 175t36 218t-36 217.5t-99 174.5l53 42q72 -68 112.5 -184t40.5 -250t-40.5 -250t-112.5 -184zM201 -139q-72 68 -112.5 184t-40.5 250t40.5 250t112.5 184l53 -42q-63 -66 -99 -174.5t-36 -217.5t36 -218t99 -175zM405 108v296h-73v61h73v110h70v-110
h115v-61h-115v-285q0 -28 8.5 -37.5t35.5 -9.5q29 0 58 4v-60q-32 -7 -79 -7q-93 0 -93 99z" />
    <glyph glyph-name="uni24B0" unicode="&#x24b0;" horiz-adv-x="960" 
d="M279 225v291h71v-283q0 -72 22 -101t76 -29q42 1 84.5 29t68.5 73v311h72v-463h-67l-5 67q-72 -79 -163 -79q-159 0 -159 184zM201 -139q-72 68 -112.5 184t-40.5 250t40.5 250t112.5 184l53 -42q-63 -66 -99 -174.5t-36 -217.5t36 -218t99 -175zM710 -98q63 66 99 175
t36 218t-36 217.5t-99 174.5l53 42q72 -68 112.5 -184t40.5 -250t-40.5 -250t-112.5 -184z" />
    <glyph glyph-name="uni24B1" unicode="&#x24b1;" horiz-adv-x="960" 
d="M258 508h76l149 -389l148 389h76l-190 -484h-69zM201 -139q-72 68 -112.5 184t-40.5 250t40.5 250t112.5 184l53 -42q-63 -66 -99 -174.5t-36 -217.5t36 -218t99 -175zM710 -98q63 66 99 175t36 218t-36 217.5t-99 174.5l53 42q72 -68 112.5 -184t40.5 -250t-40.5 -250
t-112.5 -184z" />
    <glyph glyph-name="uni24B2" unicode="&#x24b2;" horiz-adv-x="960" 
d="M214 492h69l78 -355l100 355h46l99 -355l79 355h69l-108 -440h-76l-86 315l-85 -315h-77zM201 -139q-72 68 -112.5 184t-40.5 250t40.5 250t112.5 184l53 -42q-63 -66 -99 -174.5t-36 -217.5t36 -218t99 -175zM710 -98q63 66 99 175t36 218t-36 217.5t-99 174.5l53 42
q72 -68 112.5 -184t40.5 -250t-40.5 -250t-112.5 -184z" />
    <glyph glyph-name="uni24B3" unicode="&#x24b3;" horiz-adv-x="960" 
d="M431 302l-162 238h82l128 -187l126 187h83l-163 -238l174 -250h-87l-133 200l-134 -200h-88zM201 -139q-72 68 -112.5 184t-40.5 250t40.5 250t112.5 184l53 -42q-63 -66 -99 -174.5t-36 -217.5t36 -218t99 -175zM710 -98q63 66 99 175t36 218t-36 217.5t-99 174.5l53 42
q72 -68 112.5 -184t40.5 -250t-40.5 -250t-112.5 -184z" />
    <glyph glyph-name="uni24B4" unicode="&#x24b4;" horiz-adv-x="960" 
d="M335 42q50 0 79.5 28t54.5 93l-176 400h72l137 -318l128 318h71l-176 -431q-23 -54 -47 -88q-24 -32 -59 -46.5t-89 -14.5h-15v59h20zM201 -139q-72 68 -112.5 184t-40.5 250t40.5 250t112.5 184l53 -42q-63 -66 -99 -174.5t-36 -217.5t36 -218t99 -175zM710 -98
q63 66 99 175t36 218t-36 217.5t-99 174.5l53 42q72 -68 112.5 -184t40.5 -250t-40.5 -250t-112.5 -184z" />
    <glyph glyph-name="uni24B5" unicode="&#x24b5;" horiz-adv-x="960" 
d="M710 -98q63 66 99 175t36 218t-36 217.5t-99 174.5l53 42q72 -68 112.5 -184t40.5 -250t-40.5 -250t-112.5 -184zM201 -139q-72 68 -112.5 184t-40.5 250t40.5 250t112.5 184l53 -42q-63 -66 -99 -174.5t-36 -217.5t36 -218t99 -175zM305 108l251 342h-248v62h334v-41
l-242 -342h261v-61h-355z" />
    <glyph glyph-name="uni24D0" unicode="&#x24d0;" horiz-adv-x="960" 
d="M260 -87q-101 56 -159 157.5t-58 230.5q0 131 59 232q58 100 157.5 154.5t220.5 54.5q120 0 220 -54q101 -56 158.5 -157t57.5 -230q0 -132 -58 -232q-58 -101 -157.5 -156t-220.5 -55q-120 0 -220 55zM364.5 99.5q-45.5 29.5 -70.5 82.5t-25 123q0 71 27.5 126.5
t75.5 86t105 30.5q80 0 125 -55v44h68v-451h-63l-4 53q-24 -33 -58 -51t-76 -18q-59 0 -104.5 29.5zM668.5 -29.5q82.5 47.5 128.5 133.5t46 197t-46 196t-128.5 132t-188.5 47t-188.5 -47t-128.5 -132t-46 -196t46 -197t128.5 -133.5t188.5 -47.5t188.5 47.5zM536.5 154
q29.5 20 47.5 53t18 72v96q-3 44 -36 76.5t-85 32.5q-60 0 -96.5 -48.5t-36.5 -130.5q0 -78 34 -124.5t91 -46.5q34 0 63.5 20z" />
    <glyph glyph-name="uni24D1" unicode="&#x24d1;" horiz-adv-x="960" 
d="M260 -87q-101 56 -159 157.5t-58 230.5q0 131 59 232q58 100 157.5 154.5t220.5 54.5q120 0 220 -54q101 -56 158.5 -157t57.5 -230q0 -132 -58 -232q-58 -101 -157.5 -156t-220.5 -55q-120 0 -220 55zM613.5 109.5q33.5 41.5 33.5 121.5q0 69 -30.5 110.5t-83.5 41.5
q-41 0 -74 -29.5t-47 -78.5v-131q14 -32 42.5 -54t62.5 -22q63 0 96.5 41.5zM668.5 -29.5q82.5 47.5 128.5 133.5t46 197t-46 196t-128.5 132t-188.5 47t-188.5 -47t-128.5 -132t-46 -196t46 -197t128.5 -133.5t188.5 -47.5t188.5 47.5zM459.5 20q-30.5 14 -49.5 39l-3 -39
h-65v585h70v-221q23 29 56 45t72 16q50 0 90.5 -27.5t63.5 -76.5t23 -110q0 -66 -24.5 -117.5t-67.5 -79.5t-97 -28q-38 0 -68.5 14z" />
    <glyph glyph-name="uni24D2" unicode="&#x24d2;" horiz-adv-x="960" 
d="M260 -87q-101 56 -159 157.5t-58 230.5q0 131 59 232q58 100 157.5 154.5t220.5 54.5q120 0 220 -54q101 -56 158.5 -157t57.5 -230q0 -132 -58 -232q-58 -101 -157.5 -156t-220.5 -55q-120 0 -220 55zM668.5 -29.5q82.5 47.5 128.5 133.5t46 197t-46 196t-128.5 132
t-188.5 47t-188.5 -47t-128.5 -132t-46 -196t46 -197t128.5 -133.5t188.5 -47.5t188.5 47.5zM326.5 122.5q-60.5 66.5 -60.5 179.5q0 72 29 127.5t80.5 86.5t115.5 31q53 0 96 -21.5t69 -59.5t30 -86h-76q-2 46 -35.5 74t-83.5 28q-68 0 -109 -48.5t-41 -131.5
q0 -87 39.5 -134t110.5 -47q55 0 88.5 29t34.5 80h77q-4 -80 -58 -127t-142 -47q-104 0 -164.5 66.5z" />
    <glyph glyph-name="uni24D3" unicode="&#x24d3;" horiz-adv-x="960" 
d="M260 -87q-101 56 -159 157.5t-58 230.5q0 131 59 232q58 100 157.5 154.5t220.5 54.5q120 0 220 -54q101 -56 158.5 -157t57.5 -230q0 -132 -58 -232q-58 -101 -157.5 -156t-220.5 -55q-120 0 -220 55zM534.5 104.5q33.5 37.5 35.5 89.5v89q-3 39 -32.5 68.5t-75.5 29.5
q-58 0 -91 -42.5t-33 -118.5q0 -71 31 -112t85 -41q47 0 80.5 37.5zM354.5 32q-41.5 27 -64.5 75.5t-23 112.5q0 62 25 112.5t68.5 80t97.5 29.5q71 0 112 -47v206h70v-582h-65l-4 47q-46 -61 -121 -61q-54 0 -95.5 27zM668.5 -29.5q82.5 47.5 128.5 133.5t46 197t-46 196
t-128.5 132t-188.5 47t-188.5 -47t-128.5 -132t-46 -196t46 -197t128.5 -133.5t188.5 -47.5t188.5 47.5z" />
    <glyph glyph-name="uni24D4" unicode="&#x24d4;" horiz-adv-x="960" 
d="M260 -87q-101 56 -159 157.5t-58 230.5q0 131 59 232q58 100 157.5 154.5t220.5 54.5q120 0 220 -54q101 -56 158.5 -157t57.5 -230q0 -132 -58 -232q-58 -101 -157.5 -156t-220.5 -55q-120 0 -220 55zM668.5 -29.5q82.5 47.5 128.5 133.5t46 197t-46 196t-128.5 132
t-188.5 47t-188.5 -47t-128.5 -132t-46 -196t46 -197t128.5 -133.5t188.5 -47.5t188.5 47.5zM329.5 127q-57.5 65 -57.5 176q0 70 27 124.5t75 84.5t110 30q58 0 104.5 -25.5t74 -75t29.5 -116.5v-42h-350q2 -76 39.5 -118t106.5 -42q52 0 84 20t44 57h74q-15 -64 -68 -101
t-134 -37q-101 0 -158.5 65zM623 345q-4 64 -42.5 100.5t-96.5 36.5q-60 0 -97.5 -37t-43.5 -100h280z" />
    <glyph glyph-name="uni24D5" unicode="&#x24d5;" horiz-adv-x="960" 
d="M260 -87q-101 56 -159 157.5t-58 230.5q0 131 59 232q58 100 157.5 154.5t220.5 54.5q120 0 220 -54q101 -56 158.5 -157t57.5 -230q0 -132 -58 -232q-58 -101 -157.5 -156t-220.5 -55q-120 0 -220 55zM346 354v60h84v45q0 63 26 94.5t85 31.5q26 0 46 -4v-59l-33 2
q-31 0 -43 -12t-12 -44v-54h98v-60h-98v-352h-69v352h-84zM668.5 -29.5q82.5 47.5 128.5 133.5t46 197t-46 196t-128.5 132t-188.5 47t-188.5 -47t-128.5 -132t-46 -196t46 -197t128.5 -133.5t188.5 -47.5t188.5 47.5z" />
    <glyph glyph-name="uni24D6" unicode="&#x24d6;" horiz-adv-x="960" 
d="M260 -87q-101 56 -159 157.5t-58 230.5q0 131 59 232q58 100 157.5 154.5t220.5 54.5q120 0 220 -54q101 -56 158.5 -157t57.5 -230q0 -132 -58 -232q-58 -101 -157.5 -156t-220.5 -55q-120 0 -220 55zM438 67q67 0 101 11.5t47.5 40.5t13.5 87v13q-43 -58 -125 -58
q-85 0 -137 56t-52 149q0 60 25.5 109.5t70 78t100.5 28.5q80 0 120 -54l4 44h65v-343q0 -84 -18 -131q-19 -48 -68 -70t-139 -22h-106v61h98zM668.5 -29.5q82.5 47.5 128.5 133.5t46 197t-46 196t-128.5 132t-188.5 47t-188.5 -47t-128.5 -132t-46 -196t46 -197
t128.5 -133.5t188.5 -47.5t188.5 47.5zM565.5 261.5q33.5 38.5 34.5 95.5v58q-2 41 -33 73t-81 32q-58 0 -93.5 -41.5t-35.5 -112.5q0 -67 32 -105t90 -38q53 0 86.5 38.5z" />
    <glyph glyph-name="uni24D7" unicode="&#x24d7;" horiz-adv-x="960" 
d="M260 -87q-101 56 -159 157.5t-58 230.5q0 131 59 232q58 100 157.5 154.5t220.5 54.5q120 0 220 -54q101 -56 158.5 -157t57.5 -230q0 -132 -58 -232q-58 -101 -157.5 -156t-220.5 -55q-120 0 -220 55zM668.5 -29.5q82.5 47.5 128.5 133.5t46 197t-46 196t-128.5 132
t-188.5 47t-188.5 -47t-128.5 -132t-46 -196t46 -197t128.5 -133.5t188.5 -47.5t188.5 47.5zM383 588v-228q29 34 66 54t77 20q58 0 95 -37t37 -108v-266h-67v240q0 58 -15.5 85t-53.5 27q-77 0 -139 -87v-265h-67v565h67z" />
    <glyph glyph-name="uni24D8" unicode="&#x24d8;" horiz-adv-x="960" 
d="M260 -87q-101 56 -159 157.5t-58 230.5q0 131 59 232q58 100 157.5 154.5t220.5 54.5q120 0 220 -54q101 -56 158.5 -157t57.5 -230q0 -132 -58 -232q-58 -101 -157.5 -156t-220.5 -55q-120 0 -220 55zM518 428v-431h-72v431h72zM668.5 -29.5q82.5 47.5 128.5 133.5
t46 197t-46 196t-128.5 132t-188.5 47t-188.5 -47t-128.5 -132t-46 -196t46 -197t128.5 -133.5t188.5 -47.5t188.5 47.5zM445.5 524q-14.5 13 -14.5 33t14.5 34t36.5 14q23 0 37 -13.5t14 -34.5q0 -20 -14 -33t-37 -13q-22 0 -36.5 13z" />
    <glyph glyph-name="uni24D9" unicode="&#x24d9;" horiz-adv-x="960" 
d="M260 -87q-101 56 -159 157.5t-58 230.5q0 131 59 232q58 100 157.5 154.5t220.5 54.5q120 0 220 -54q101 -56 158.5 -157t57.5 -230q0 -132 -58 -232q-58 -101 -157.5 -156t-220.5 -55q-120 0 -220 55zM403 44q39 -2 59 6q19 7 25.5 22.5t6.5 49.5v324h76v-301
q0 -69 -10 -102q-11 -35 -47.5 -50t-109.5 -13v64zM668.5 -29.5q82.5 47.5 128.5 133.5t46 197t-46 196t-128.5 132t-188.5 47t-188.5 -47t-128.5 -132t-46 -196t46 -197t128.5 -133.5t188.5 -47.5t188.5 47.5zM493 528.5q-15 14.5 -15 35.5t15 35.5t39 14.5t39 -14.5
t15 -35.5t-15 -35.5t-39 -14.5t-39 14.5z" />
    <glyph glyph-name="uni24DA" unicode="&#x24da;" horiz-adv-x="960" 
d="M260 -87q-101 56 -159 157.5t-58 230.5q0 131 59 232q58 100 157.5 154.5t220.5 54.5q120 0 220 -54q101 -56 158.5 -157t57.5 -230q0 -132 -58 -232q-58 -101 -157.5 -156t-220.5 -55q-120 0 -220 55zM668.5 -29.5q82.5 47.5 128.5 133.5t46 197t-46 196t-128.5 132
t-188.5 47t-188.5 -47t-128.5 -132t-46 -196t46 -197t128.5 -133.5t188.5 -47.5t188.5 47.5zM405 604v-333l162 157h96l-197 -185l207 -241h-91l-177 213v-213h-72v602h72z" />
    <glyph glyph-name="uni24DB" unicode="&#x24db;" horiz-adv-x="960" 
d="M260 -87q-101 56 -159 157.5t-58 230.5q0 131 59 232q58 100 157.5 154.5t220.5 54.5q120 0 220 -54q101 -56 158.5 -157t57.5 -230q0 -132 -58 -232q-58 -101 -157.5 -156t-220.5 -55q-120 0 -220 55zM668.5 -29.5q82.5 47.5 128.5 133.5t46 197t-46 196t-128.5 132
t-188.5 47t-188.5 -47t-128.5 -132t-46 -196t46 -197t128.5 -133.5t188.5 -47.5t188.5 47.5zM504 -10q-39 0 -53.5 23t-14.5 84v497h65v-498q0 -29 8 -40.5t29 -11.5q14 0 19 1v-47q-13 -4 -28 -6z" />
    <glyph glyph-name="uni24DC" unicode="&#x24dc;" horiz-adv-x="960" 
d="M260 -87q-101 56 -159 157.5t-58 230.5q0 131 59 232q58 100 157.5 154.5t220.5 54.5q120 0 220 -54q101 -56 158.5 -157t57.5 -230q0 -132 -58 -232q-58 -101 -157.5 -156t-220.5 -55q-120 0 -220 55zM668.5 -29.5q82.5 47.5 128.5 133.5t46 197t-46 196t-128.5 132
t-188.5 47t-188.5 -47t-128.5 -132t-46 -196t46 -197t128.5 -133.5t188.5 -47.5t188.5 47.5zM290 502l2 -37q50 47 111 47q76 0 101 -61q52 61 123 61q55 0 85.5 -33.5t30.5 -103.5v-280h-65v247q0 63 -12 88t-48 25q-50 0 -101 -64v-296h-65v247q0 63 -12 88t-48 25
q-50 0 -98 -61v-299h-65v407h61z" />
    <glyph glyph-name="uni24DD" unicode="&#x24dd;" horiz-adv-x="960" 
d="M260 -87q-101 56 -159 157.5t-58 230.5q0 131 59 232q58 100 157.5 154.5t220.5 54.5q120 0 220 -54q101 -56 158.5 -157t57.5 -230q0 -132 -58 -232q-58 -101 -157.5 -156t-220.5 -55q-120 0 -220 55zM668.5 -29.5q82.5 47.5 128.5 133.5t46 197t-46 196t-128.5 132
t-188.5 47t-188.5 -47t-128.5 -132t-46 -196t46 -197t128.5 -133.5t188.5 -47.5t188.5 47.5zM364 533l4 -60q35 33 80 52.5t92 19.5q66 0 107 -41.5t41 -121.5v-304h-67v274q0 70 -19.5 102.5t-68.5 32.5q-44 0 -86.5 -22.5t-77.5 -62.5v-324h-68v455h63z" />
    <glyph glyph-name="uni24DE" unicode="&#x24de;" horiz-adv-x="960" 
d="M260 -87q-101 56 -159 157.5t-58 230.5q0 131 59 232q58 100 157.5 154.5t220.5 54.5q120 0 220 -54q101 -56 158.5 -157t57.5 -230q0 -132 -58 -232q-58 -101 -157.5 -156t-220.5 -55q-120 0 -220 55zM668.5 -29.5q82.5 47.5 128.5 133.5t46 197t-46 196t-128.5 132
t-188.5 47t-188.5 -47t-128.5 -132t-46 -196t46 -197t128.5 -133.5t188.5 -47.5t188.5 47.5zM367.5 79q-51.5 32 -81 89t-29.5 131t29.5 131t81.5 89t116 32t116 -32t81.5 -89t29.5 -131t-29.5 -131t-81 -89t-116.5 -32t-116.5 32zM596 160q43 52 43 139q0 88 -43 139.5
t-112 51.5t-112 -51.5t-43 -139.5q0 -87 43 -139t112 -52t112 52z" />
    <glyph glyph-name="uni24DF" unicode="&#x24df;" horiz-adv-x="960" 
d="M260 -87q-101 56 -159 157.5t-58 230.5q0 131 59 232q58 100 157.5 154.5t220.5 54.5q120 0 220 -54q101 -56 158.5 -157t57.5 -230q0 -132 -58 -232q-58 -101 -157.5 -156t-220.5 -55q-120 0 -220 55zM668.5 -29.5q82.5 47.5 128.5 133.5t46 197t-46 196t-128.5 132
t-188.5 47t-188.5 -47t-128.5 -132t-46 -196t46 -197t128.5 -133.5t188.5 -47.5t188.5 47.5zM399 568l5 -55q24 31 57.5 47.5t73.5 16.5q51 0 92 -27.5t64.5 -77t23.5 -112.5q0 -67 -24.5 -119t-68 -80.5t-98.5 -28.5q-76 0 -119 53v-175h-70v558h64zM610.5 236
q34.5 43 34.5 124q0 70 -32.5 113.5t-86.5 43.5q-41 0 -73.5 -29t-47.5 -77v-125q7 -40 36 -66.5t72 -26.5q63 0 97.5 43z" />
    <glyph glyph-name="uni24E0" unicode="&#x24e0;" horiz-adv-x="960" 
d="M260 -87q-101 56 -159 157.5t-58 230.5q0 131 59 232q58 100 157 154.5t220 54.5q120 0 220 -54q101 -56 159 -157t58 -230q0 -132 -58 -232q-58 -101 -158 -156t-221 -55t-219 55zM590 207q-47 -68 -127 -68q-55 0 -98 27.5t-67 77t-24 114.5q0 66 26.5 117.5t71.5 80.5
t99 29q79 0 120 -56l4 45h61v-559h-66v192zM667.5 -29.5q82.5 47.5 128.5 133.5t46 197t-46 196t-128.5 132t-188.5 47t-188.5 -47t-128.5 -132t-46 -196t46 -197t128.5 -133.5t188.5 -47.5t188.5 47.5zM552.5 237q35.5 40 37.5 97v91q-4 44 -36 73.5t-79 29.5
q-60 0 -96 -46t-36 -124q0 -74 33.5 -117.5t90.5 -43.5q50 0 85.5 40z" />
    <glyph glyph-name="uni24E1" unicode="&#x24e1;" horiz-adv-x="960" 
d="M260 -87q-101 56 -159 157.5t-58 230.5q0 131 59 232q58 100 157 154.5t220 54.5q120 0 220 -54q101 -56 159 -157t58 -230q0 -132 -58 -232q-58 -101 -158 -156t-221 -55t-219 55zM667.5 -29.5q82.5 47.5 128.5 133.5t46 197t-46 196t-128.5 132t-188.5 47t-188.5 -47
t-128.5 -132t-46 -196t46 -197t128.5 -133.5t188.5 -47.5t188.5 47.5zM445 518l4 -58q52 65 129 70q48 3 81 -10v-65q-43 17 -94 13q-32 -3 -63 -24t-52 -58v-348h-69v480h64z" />
    <glyph glyph-name="uni24E2" unicode="&#x24e2;" horiz-adv-x="960" 
d="M260 -87q-101 56 -159 157.5t-58 230.5q0 131 59 232q58 100 157 154.5t220 54.5q120 0 220 -54q101 -56 159 -157t58 -230q0 -132 -58 -232q-58 -101 -158 -156t-221 -55t-219 55zM667.5 -29.5q82.5 47.5 128.5 133.5t46 197t-46 196t-128.5 132t-188.5 47t-188.5 -47
t-128.5 -132t-46 -196t46 -197t128.5 -133.5t188.5 -47.5t188.5 47.5zM394.5 84.5q-46.5 18.5 -70.5 51t-22 71.5h69l-1 -8q0 -31 39 -52t97 -21q47 0 72.5 18.5t25.5 50.5q0 22 -11 36q-12 14 -40.5 26t-81.5 28q-62 19 -87 31q-67 28 -67 97q0 57 49 88.5t118 31.5
q75 0 124 -31t50 -86h-68q2 24 -28 41.5t-82 17.5q-42 0 -68 -16t-26 -43q0 -29 26 -43q26 -15 88 -33l19 -6q83 -25 118 -55.5t35 -80.5q0 -63 -45.5 -97.5t-122.5 -34.5q-63 0 -109.5 18.5z" />
    <glyph glyph-name="uni24E3" unicode="&#x24e3;" horiz-adv-x="960" 
d="M260 -87q-101 56 -159 157.5t-58 230.5q0 131 59 232q58 100 157 154.5t220 54.5q120 0 220 -54q101 -56 159 -157t58 -230q0 -132 -58 -232q-58 -101 -158 -156t-221 -55t-219 55zM405 108v296h-73v61h73v110h70v-110h115v-61h-115v-285q0 -28 8.5 -37.5t35.5 -9.5
q29 0 58 4v-60q-32 -7 -79 -7q-93 0 -93 99zM667.5 -29.5q82.5 47.5 128.5 133.5t46 197t-46 196t-128.5 132t-188.5 47t-188.5 -47t-128.5 -132t-46 -196t46 -197t128.5 -133.5t188.5 -47.5t188.5 47.5z" />
    <glyph glyph-name="uni24E4" unicode="&#x24e4;" horiz-adv-x="960" 
d="M260 -87q-101 56 -159 157.5t-58 230.5q0 131 59 232q58 100 157 154.5t220 54.5q120 0 220 -54q101 -56 159 -157t58 -230q0 -132 -58 -232q-58 -101 -158 -156t-221 -55t-219 55zM279 225v291h71v-283q0 -72 22 -101t76 -29q42 1 84.5 29t68.5 73v311h72v-463h-67
l-5 67q-72 -79 -163 -79q-159 0 -159 184zM667.5 -29.5q82.5 47.5 128.5 133.5t46 197t-46 196t-128.5 132t-188.5 47t-188.5 -47t-128.5 -132t-46 -196t46 -197t128.5 -133.5t188.5 -47.5t188.5 47.5z" />
    <glyph glyph-name="uni24E5" unicode="&#x24e5;" horiz-adv-x="960" 
d="M260 -87q-101 56 -159 157.5t-58 230.5q0 131 59 232q58 100 157 154.5t220 54.5q120 0 220 -54q101 -56 159 -157t58 -230q0 -132 -58 -232q-58 -101 -158 -156t-221 -55t-219 55zM258 508h76l149 -389l148 389h76l-190 -484h-69zM667.5 -29.5q82.5 47.5 128.5 133.5
t46 197t-46 196t-128.5 132t-188.5 47t-188.5 -47t-128.5 -132t-46 -196t46 -197t128.5 -133.5t188.5 -47.5t188.5 47.5z" />
    <glyph glyph-name="uni24E6" unicode="&#x24e6;" horiz-adv-x="960" 
d="M260 -87q-101 56 -159 157.5t-58 230.5q0 131 59 232q58 100 157 154.5t220 54.5q120 0 220 -54q101 -56 159 -157t58 -230q0 -132 -58 -232q-58 -101 -158 -156t-221 -55t-219 55zM214 492h69l78 -355l100 355h46l99 -355l79 355h69l-108 -440h-76l-86 315l-85 -315h-77
zM662.5 -30.5q84.5 46.5 132 132.5t47.5 199q0 111 -46 196t-128.5 132t-188.5 47t-188.5 -47t-128.5 -132t-46 -196q0 -109 44.5 -195t125 -134.5t183.5 -48.5q109 0 193.5 46.5z" />
    <glyph glyph-name="uni24E7" unicode="&#x24e7;" horiz-adv-x="960" 
d="M260 -87q-101 56 -159 157.5t-58 230.5q0 131 59 232q58 100 157 154.5t220 54.5q120 0 220 -54q101 -56 159 -157t58 -230q0 -132 -58 -232q-58 -101 -158 -156t-221 -55t-219 55zM662.5 -30.5q84.5 46.5 132 132.5t47.5 199q0 111 -46 196t-128.5 132t-188.5 47
t-188.5 -47t-128.5 -132t-46 -196q0 -109 44.5 -195t125 -134.5t183.5 -48.5q109 0 193.5 46.5zM431 302l-162 238h82l128 -187l126 187h83l-163 -238l174 -250h-87l-133 200l-134 -200h-88z" />
    <glyph glyph-name="uni24E8" unicode="&#x24e8;" horiz-adv-x="960" 
d="M260 -87q-101 56 -159 157.5t-58 230.5q0 131 59 232q58 100 157 154.5t220 54.5q120 0 220 -54q101 -56 159 -157t58 -230q0 -132 -58 -232q-58 -101 -158 -156t-221 -55t-219 55zM335 42q50 0 79.5 28t54.5 93l-176 400h72l137 -318l128 318h71l-176 -431
q-23 -54 -47 -88q-24 -32 -59 -46.5t-89 -14.5h-15v59h20zM662.5 -30.5q84.5 46.5 132 132.5t47.5 199q0 111 -46 196t-128.5 132t-188.5 47t-188.5 -47t-128.5 -132t-46 -196q0 -109 44.5 -195t125 -134.5t183.5 -48.5q109 0 193.5 46.5z" />
    <glyph glyph-name="uni24E9" unicode="&#x24e9;" horiz-adv-x="960" 
d="M260 -87q-101 56 -159 157.5t-58 230.5q0 131 59 232q58 100 157 154.5t220 54.5q120 0 220 -54q101 -56 159 -157t58 -230q0 -132 -58 -232q-58 -101 -158 -156t-221 -55t-219 55zM305 108l251 342h-248v62h334v-41l-242 -342h261v-61h-355zM662.5 -30.5
q84.5 46.5 132 132.5t47.5 199q0 111 -46 196t-128.5 132t-188.5 47t-188.5 -47t-128.5 -132t-46 -196q0 -109 44.5 -195t125 -134.5t183.5 -48.5q109 0 193.5 46.5z" />
    <glyph glyph-name="uni2500" unicode="&#x2500;" horiz-adv-x="920" 
d="M915 370v-34h-910v34h910z" />
    <glyph glyph-name="uni2501" unicode="&#x2501;" horiz-adv-x="920" 
d="M915 390v-74h-910v74h910z" />
    <glyph glyph-name="uni2502" unicode="&#x2502;" horiz-adv-x="920" 
d="M477 850v-994h-34v994h34z" />
    <glyph glyph-name="uni2503" unicode="&#x2503;" horiz-adv-x="920" 
d="M497 850v-994h-74v994h74z" />
    <glyph glyph-name="uni250C" unicode="&#x250c;" horiz-adv-x="920" 
d="M915 370v-34h-438v-480h-34v514h472z" />
    <glyph glyph-name="uni250D" unicode="&#x250d;" horiz-adv-x="920" 
d="M915 390v-74h-438v-460h-34v534h472z" />
    <glyph glyph-name="uni250E" unicode="&#x250e;" horiz-adv-x="920" 
d="M915 370v-34h-418v-480h-73v514h491z" />
    <glyph glyph-name="uni250F" unicode="&#x250f;" horiz-adv-x="920" 
d="M915 390v-74h-418v-460h-73v534h491z" />
    <glyph glyph-name="uni2510" unicode="&#x2510;" horiz-adv-x="920" 
d="M5 336v34h472v-514h-34v480h-438z" />
    <glyph glyph-name="uni2511" unicode="&#x2511;" horiz-adv-x="920" 
d="M5 316v74h472v-534h-34v460h-438z" />
    <glyph glyph-name="uni2512" unicode="&#x2512;" horiz-adv-x="920" 
d="M5 336v34h490v-514h-73v480h-417z" />
    <glyph glyph-name="uni2513" unicode="&#x2513;" horiz-adv-x="920" 
d="M5 316v74h491v-534h-73v460h-418z" />
    <glyph glyph-name="uni2514" unicode="&#x2514;" horiz-adv-x="920" 
d="M477 850v-480h438v-34h-472v514h34z" />
    <glyph glyph-name="uni2515" unicode="&#x2515;" horiz-adv-x="920" 
d="M477 850v-460h438v-74h-472v534h34z" />
    <glyph glyph-name="uni2516" unicode="&#x2516;" horiz-adv-x="920" 
d="M497 850v-480h418v-34h-491v514h73z" />
    <glyph glyph-name="uni2517" unicode="&#x2517;" horiz-adv-x="920" 
d="M497 850v-460h418v-74h-491v534h73z" />
    <glyph glyph-name="uni2518" unicode="&#x2518;" horiz-adv-x="920" 
d="M443 370v480h34v-514h-472v34h438z" />
    <glyph glyph-name="uni2519" unicode="&#x2519;" horiz-adv-x="920" 
d="M443 390v460h34v-534h-472v74h438z" />
    <glyph glyph-name="uni251A" unicode="&#x251a;" horiz-adv-x="920" 
d="M423 370v480h73v-514h-491v34h418z" />
    <glyph glyph-name="uni251B" unicode="&#x251b;" horiz-adv-x="920" 
d="M423 390v460h73v-534h-491v74h418z" />
    <glyph glyph-name="uni251C" unicode="&#x251c;" horiz-adv-x="920" 
d="M477 850v-480h438v-34h-438v-480h-34v994h34z" />
    <glyph glyph-name="uni251D" unicode="&#x251d;" horiz-adv-x="920" 
d="M477 850v-460h438v-74h-438v-460h-34v994h34z" />
    <glyph glyph-name="uni251E" unicode="&#x251e;" horiz-adv-x="920" 
d="M424 356v494h73v-480h418v-34h-439l1 -480h-34v500h-19z" />
    <glyph glyph-name="uni251F" unicode="&#x251f;" horiz-adv-x="920" 
d="M443 350v500h34v-480h438v-34h-418v-480h-73v494h19z" />
    <glyph glyph-name="uni2520" unicode="&#x2520;" horiz-adv-x="920" 
d="M497 850v-480h418v-34h-418v-480h-73v994h73z" />
    <glyph glyph-name="uni2521" unicode="&#x2521;" horiz-adv-x="920" 
d="M424 356v494h73v-460h418v-74h-438v-460h-34v500h-19z" />
    <glyph glyph-name="uni2522" unicode="&#x2522;" horiz-adv-x="920" 
d="M443 350v500h34v-460h438v-74h-418v-460h-73v494h19z" />
    <glyph glyph-name="uni2523" unicode="&#x2523;" horiz-adv-x="920" 
d="M497 850v-460h418v-74h-418v-460h-73v994h73z" />
    <glyph glyph-name="uni2524" unicode="&#x2524;" horiz-adv-x="920" 
d="M5 336v34h438v480h34v-993h-34v479h-438z" />
    <glyph glyph-name="uni2525" unicode="&#x2525;" horiz-adv-x="920" 
d="M5 316v74h438v460h34v-993h-34v459h-438z" />
    <glyph glyph-name="uni2526" unicode="&#x2526;" horiz-adv-x="920" 
d="M5 336v34h418v480h73v-494h-20v-500h-33v480h-438z" />
    <glyph glyph-name="uni2527" unicode="&#x2527;" horiz-adv-x="920" 
d="M5 336v34h438v480h33v-500h20v-494h-73v480h-418z" />
    <glyph glyph-name="uni2528" unicode="&#x2528;" horiz-adv-x="920" 
d="M5 336v34h419v480h73v-994h-73v480h-419z" />
    <glyph glyph-name="uni2529" unicode="&#x2529;" horiz-adv-x="920" 
d="M5 316v74h418v460h73v-494h-20v-499h-33v459h-438z" />
    <glyph glyph-name="uni252A" unicode="&#x252a;" horiz-adv-x="920" 
d="M5 316v74h438v460h33v-500h20v-494h-73v460h-418z" />
    <glyph glyph-name="uni252B" unicode="&#x252b;" horiz-adv-x="920" 
d="M5 316v74h418v460h73v-994h-73v460h-418z" />
    <glyph glyph-name="uni252C" unicode="&#x252c;" horiz-adv-x="920" 
d="M5 336v34h910v-34h-438v-480h-34v480h-438z" />
    <glyph glyph-name="uni252D" unicode="&#x252d;" horiz-adv-x="920" 
d="M5 316v74h452v-20h458v-34h-438v-480h-34v460h-438z" />
    <glyph glyph-name="uni252E" unicode="&#x252e;" horiz-adv-x="920" 
d="M5 336v34h458v20h452v-74h-438v-460h-34v480h-438z" />
    <glyph glyph-name="uni252F" unicode="&#x252f;" horiz-adv-x="920" 
d="M5 316v74h910v-74h-438v-460h-34v460h-438z" />
    <glyph glyph-name="uni2530" unicode="&#x2530;" horiz-adv-x="920" 
d="M5 336v34h910v-34h-418v-480h-74v480h-418z" />
    <glyph glyph-name="uni2531" unicode="&#x2531;" horiz-adv-x="920" 
d="M5 316v74h452v-20h458v-34h-418v-480h-74v460h-418z" />
    <glyph glyph-name="uni2532" unicode="&#x2532;" horiz-adv-x="920" 
d="M5 336v34h458v20h452v-74h-418v-460h-74v480h-418z" />
    <glyph glyph-name="uni2533" unicode="&#x2533;" horiz-adv-x="920" 
d="M5 316v74h910v-74h-418v-460h-74v460h-418z" />
    <glyph glyph-name="uni2534" unicode="&#x2534;" horiz-adv-x="920" 
d="M443 370v479h34v-479h438v-34h-910v34h438z" />
    <glyph glyph-name="uni2535" unicode="&#x2535;" horiz-adv-x="920" 
d="M443 390v459h34v-479h438v-34h-458v-20h-452v74h438z" />
    <glyph glyph-name="uni2536" unicode="&#x2536;" horiz-adv-x="920" 
d="M5 336v34h438v479h34v-459h438v-74h-452v20h-458z" />
    <glyph glyph-name="uni2537" unicode="&#x2537;" horiz-adv-x="920" 
d="M443 390v460h34v-460h438v-74h-910v74h438z" />
    <glyph glyph-name="uni2538" unicode="&#x2538;" horiz-adv-x="920" 
d="M423 370v480h74v-480h418v-34h-910v34h418z" />
    <glyph glyph-name="uni2539" unicode="&#x2539;" horiz-adv-x="920" 
d="M423 390v460h74v-480h418v-34h-458v-20h-452v74h418z" />
    <glyph glyph-name="uni253A" unicode="&#x253a;" horiz-adv-x="920" 
d="M5 336v34h418v480h74v-460h418v-74h-452v20h-458z" />
    <glyph glyph-name="uni253B" unicode="&#x253b;" horiz-adv-x="920" 
d="M423 390v460h74v-460h418v-74h-910v74h418z" />
    <glyph glyph-name="uni253C" unicode="&#x253c;" horiz-adv-x="920" 
d="M5 336v34h438v480h34v-480h438v-34h-438v-480h-34v480h-438z" />
    <glyph glyph-name="uni253D" unicode="&#x253d;" horiz-adv-x="920" 
d="M5 316v78h438v456h34v-480h438v-34h-438v-480h-34v460h-438z" />
    <glyph glyph-name="uni253E" unicode="&#x253e;" horiz-adv-x="920" 
d="M5 336v34h438v480h34v-460h438v-74h-438v-460h-34v480h-438z" />
    <glyph glyph-name="uni253F" unicode="&#x253f;" horiz-adv-x="920" 
d="M5 316v74h438v460h34v-460h438v-74h-438v-460h-34v460h-438z" />
    <glyph glyph-name="uni2540" unicode="&#x2540;" horiz-adv-x="920" 
d="M5 336v34h418v480h74v-480h418v-34h-438v-480h-34v480h-438z" />
    <glyph glyph-name="uni2541" unicode="&#x2541;" horiz-adv-x="920" 
d="M5 336v34h438v480h34v-480h438v-34h-418v-480h-74v480h-418z" />
    <glyph glyph-name="uni2542" unicode="&#x2542;" horiz-adv-x="920" 
d="M5 336v34h418v480h74v-480h418v-34h-418v-480h-74v480h-418z" />
    <glyph glyph-name="uni2543" unicode="&#x2543;" horiz-adv-x="920" 
d="M5 316v74h418v460h74v-480h418v-34h-438v-480h-34v460h-438z" />
    <glyph glyph-name="uni2544" unicode="&#x2544;" horiz-adv-x="920" 
d="M5 336v34h418v480h74v-460h418v-74h-438v-460h-34v480h-438z" />
    <glyph glyph-name="uni2545" unicode="&#x2545;" horiz-adv-x="920" 
d="M5 316v74h438v460h34v-480h438v-34h-418v-480h-74v460h-418z" />
    <glyph glyph-name="uni2546" unicode="&#x2546;" horiz-adv-x="920" 
d="M5 336v34h438v480h34v-460h438v-74h-418v-460h-74v480h-418z" />
    <glyph glyph-name="uni2547" unicode="&#x2547;" horiz-adv-x="920" 
d="M5 316v74h418v460h74v-460h418v-74h-438v-460h-34v460h-438z" />
    <glyph glyph-name="uni2548" unicode="&#x2548;" horiz-adv-x="920" 
d="M5 316v74h438v460h34v-460h438v-74h-418v-460h-74v460h-418z" />
    <glyph glyph-name="uni2549" unicode="&#x2549;" horiz-adv-x="920" 
d="M5 316v74h418v460h74v-480h418v-34h-418v-480h-74v460h-418z" />
    <glyph glyph-name="uni254A" unicode="&#x254a;" horiz-adv-x="920" 
d="M5 336v34h418v480h74v-460h418v-74h-418v-460h-74v480h-418z" />
    <glyph glyph-name="uni254B" unicode="&#x254b;" horiz-adv-x="920" 
d="M5 316v74h418v460h74v-460h418v-74h-418v-460h-74v460h-418z" />
    <glyph glyph-name="shade" unicode="&#x2592;" horiz-adv-x="940" 
d="M102 615v46l25 25h16l695 -695v-46l-25 -25h-16zM102 195l275 -275h-112l-163 163v112zM102 372l452 -452h-112l-340 340v112zM102 549l629 -629h-112l-517 517v112zM321 686l517 -517v-112l-629 629h112zM498 686l340 -340v-112l-452 452h112zM675 686l163 -163v-112
l-275 275h112z" />
    <glyph glyph-name="filledbox" unicode="&#x25a0;" horiz-adv-x="940" 
d="M887 717v-834h-834v834h834z" />
    <glyph glyph-name="uni25A1" unicode="&#x25a1;" horiz-adv-x="940" 
d="M887 717v-834h-834v834h834zM806 -46v692h-672v-692h672z" />
    <glyph glyph-name="uni25A3" unicode="&#x25a3;" horiz-adv-x="940" 
d="M887 717v-834h-834v834h834zM806 -46v692h-672v-692h672zM262 532h416v-464h-416v464z" />
    <glyph glyph-name="uni25A4" unicode="&#x25a4;" horiz-adv-x="940" 
d="M887 717v-834h-834v834h834zM807 -49v42h-674v-42h674zM807 61v42h-674v-42h674zM807 171v42h-674v-42h674zM807 281v41h-674v-41h674zM807 390v41h-674v-41h674zM807 499v41h-674v-41h674zM807 608v41h-674v-41h674z" />
    <glyph glyph-name="uni25A5" unicode="&#x25a5;" horiz-adv-x="940" 
d="M887 717v-834h-834v834h834zM160 -49v698h-27v-698h27zM267 -49v698h-27v-698h27zM375 -49v698h-28v-698h28zM483 -49v698h-28v-698h28zM591 -49v698h-28v-698h28zM699 -49v698h-28v-698h28zM807 -49v698h-28v-698h28z" />
    <glyph glyph-name="uni25A6" unicode="&#x25a6;" horiz-adv-x="940" 
d="M887 717v-834h-834v834h834zM160 -49v42h-27v-42h27zM160 61v42h-27v-42h27zM160 171v42h-27v-42h27zM160 281v41h-27v-41h27zM160 390v41h-27v-41h27zM160 499v41h-27v-41h27zM160 608v41h-27v-41h27zM267 -49v42h-27v-42h27zM267 61v42h-27v-42h27zM267 171v42h-27v-42
h27zM267 281v41h-27v-41h27zM267 390v41h-27v-41h27zM267 499v41h-27v-41h27zM267 608v41h-27v-41h27zM375 -49v42h-28v-42h28zM375 61v42h-28v-42h28zM375 171v42h-28v-42h28zM375 281v41h-28v-41h28zM375 390v41h-28v-41h28zM375 499v41h-28v-41h28zM375 608v41h-28v-41
h28zM483 -49v42h-28v-42h28zM483 61v42h-28v-42h28zM483 171v42h-28v-42h28zM483 281v41h-28v-41h28zM483 390v41h-28v-41h28zM483 499v41h-28v-41h28zM483 608v41h-28v-41h28zM591 -49v42h-28v-42h28zM591 61v42h-28v-42h28zM591 171v42h-28v-42h28zM591 281v41h-28v-41h28
zM591 390v41h-28v-41h28zM591 499v41h-28v-41h28zM591 608v41h-28v-41h28zM699 -49v42h-28v-42h28zM699 61v42h-28v-42h28zM699 171v42h-28v-42h28zM699 281v41h-28v-41h28zM699 390v41h-28v-41h28zM699 499v41h-28v-41h28zM699 608v41h-28v-41h28zM807 -49v42h-28v-42h28z
M807 61v42h-28v-42h28zM807 171v42h-28v-42h28zM807 281v41h-28v-41h28zM807 390v41h-28v-41h28zM807 499v41h-28v-41h28zM807 608v41h-28v-41h28z" />
    <glyph glyph-name="uni25A7" unicode="&#x25a7;" horiz-adv-x="940" 
d="M887 717v-834h-834v834h834zM246 -49l-113 113v-113h113zM358 -49h65l-290 290v-65zM535 -49h65l-467 467v-65zM712 -49h66l-645 645v-66zM807 34v66l-549 549h-66zM807 212v65l-372 372h-65zM807 389v65l-195 195h-65zM807 566v83h-83z" />
    <glyph glyph-name="uni25A8" unicode="&#x25a8;" horiz-adv-x="940" 
d="M887 717v-834h-834v834h834zM748 649h-66l-549 -549v-66zM570 649h-65l-372 -372v-65zM393 649h-65l-195 -195v-65zM216 649h-83v-83zM228 -49l579 579v66l-645 -645h66zM405 -49l402 402v65l-467 -467h65zM582 -49l225 225v65l-290 -290h65zM807 -49v113l-113 -113h113z
" />
    <glyph glyph-name="uni25A9" unicode="&#x25a9;" horiz-adv-x="940" 
d="M887 717v-834h-834v834h834zM148 49l-15 15v-30zM148 227l-15 14v-29zM148 404l-15 14v-29zM148 581l-15 15v-30zM228 -49l9 9l-33 33l-42 -42h66zM204 105l33 33l-33 33l-33 -33zM204 283l32 32l-32 33l-33 -33zM204 460l33 33l-33 32l-33 -33zM204 637l12 12h-24z
M293 16l33 33l-33 33l-33 -33zM293 194l32 32l-33 33l-32 -32zM292 371l33 33l-32 33l-33 -33zM293 549l33 33l-33 32l-33 -33zM381 282l33 33l-33 33l-33 -33zM358 -49h47l9 9l-32 32l-33 -32zM382 105l32 32l-33 33l-32 -32zM381 460l33 33l-32 33l-33 -33zM382 638l11 11
h-23zM470 193l33 33l-33 33l-33 -33zM470 371l33 33l-33 33l-33 -33zM470 16l33 33l-33 32l-32 -32zM470 549l33 33l-33 32l-32 -32zM535 -49h47l9 9l-32 32l-33 -32zM559 105l33 33l-33 32l-33 -33zM559 282l33 33l-33 33l-33 -33zM559 460l33 33l-33 33l-33 -33zM559 638
l11 11h-23zM647 16l33 33l-32 33l-33 -33zM648 194l33 33l-33 32l-33 -33zM648 371l33 33l-33 33l-33 -33zM648 549l32 32l-33 33l-32 -32zM712 -49h66l-42 42l-33 -33zM736 105l33 33l-32 33l-33 -33zM737 283l32 32l-32 33l-33 -33zM737 460l32 32l-33 33l-32 -32z
M736 637l12 12h-24zM807 34v30l-15 -15zM807 566v30l-15 -15zM807 212v29l-14 -14zM807 389v29l-14 -14z" />
    <glyph glyph-name="triagup" unicode="&#x25b2;" horiz-adv-x="940" 
d="M470 717l417 -834h-834z" />
    <glyph glyph-name="uni25B3" unicode="&#x25b3;" horiz-adv-x="940" 
d="M470 717l417 -834h-834zM774 -49l-304 600l-294 -600h598z" />
    <glyph glyph-name="uni25B6" unicode="&#x25b6;" horiz-adv-x="940" 
d="M917 300l-834 -417v834z" />
    <glyph glyph-name="uni25B7" unicode="&#x25b7;" horiz-adv-x="940" 
d="M919 300l-834 -417v834zM753 300l-600 294v-598z" />
    <glyph glyph-name="triagdn" unicode="&#x25bc;" horiz-adv-x="940" 
d="M53 717h834l-417 -834z" />
    <glyph glyph-name="uni25BD" unicode="&#x25bd;" horiz-adv-x="940" 
d="M53 716h834l-417 -834zM470 48l304 600h-598z" />
    <glyph glyph-name="uni25C0" unicode="&#x25c0;" horiz-adv-x="940" 
d="M83 300l834 417v-834z" />
    <glyph glyph-name="uni25C1" unicode="&#x25c1;" horiz-adv-x="940" 
d="M83 299l834 417v-834zM849 5v598l-600 -304z" />
    <glyph glyph-name="uni25C6" unicode="&#x25c6;" horiz-adv-x="940" 
d="M0 315l470 470l470 -470l-470 -470z" />
    <glyph glyph-name="uni25C7" unicode="&#x25c7;" horiz-adv-x="940" 
d="M0 315l470 470l470 -470l-470 -470zM470 -55l370 370l-370 370l-370 -370z" />
    <glyph glyph-name="uni25C8" unicode="&#x25c8;" horiz-adv-x="940" 
d="M0 315l470 470l470 -470l-470 -470zM470 -55l370 370l-370 370l-370 -370zM470 519l204 -204l-204 -204l-204 204z" />
    <glyph glyph-name="circle" unicode="&#x25cb;" horiz-adv-x="940" 
d="M250 -87q-101 56 -159 157.5t-58 230.5q0 131 59 232q58 100 157.5 154.5t220.5 54.5q120 0 220 -54q101 -56 158.5 -157t57.5 -230q0 -132 -58 -232q-58 -101 -157.5 -156t-220.5 -55q-120 0 -220 55zM658.5 -29.5q82.5 47.5 128.5 133.5t46 197t-46 196t-128.5 132
t-188.5 47t-188.5 -47t-128.5 -132t-46 -196t46 -197t128.5 -133.5t188.5 -47.5t188.5 47.5z" />
    <glyph glyph-name="uni25CE" unicode="&#x25ce;" horiz-adv-x="940" 
d="M250 -87q-101 56 -159 157.5t-58 230.5q0 131 59 232q58 100 157.5 154.5t220.5 54.5q120 0 220 -54q101 -56 158.5 -157t57.5 -230q0 -132 -58 -232q-58 -101 -157.5 -156t-220.5 -55q-120 0 -220 55zM658.5 -29.5q82.5 47.5 128.5 133.5t46 197t-46 196t-128.5 132
t-188.5 47t-188.5 -47t-128.5 -132t-46 -196t46 -197t128.5 -133.5t188.5 -47.5t188.5 47.5zM357.5 103.5q-51.5 29.5 -80.5 82t-29 117.5q0 64 29 116t80.5 81.5t116.5 29.5t116.5 -29.5t80 -81.5t28.5 -116q0 -65 -28.5 -117.5t-80 -82t-116.5 -29.5t-116.5 29.5zM589 180
q44 45 44 123q0 77 -44 121t-115 44q-72 0 -116 -44t-44 -121t44.5 -122.5t115.5 -45.5t115 45z" />
    <glyph glyph-name="uni25CF" unicode="&#x25cf;" horiz-adv-x="940" 
d="M235 -99q-106 60 -165.5 165.5t-59.5 234.5q0 130 60 235q60 106 165.5 165.5t234.5 59.5q130 0 235 -60q106 -60 165.5 -165.5t59.5 -234.5q0 -130 -60 -235q-60 -106 -165.5 -165.5t-234.5 -59.5q-130 0 -235 60z" />
    <glyph glyph-name="uni25D0" unicode="&#x25d0;" horiz-adv-x="940" 
d="M260 -87q-101 56 -159 157.5t-58 230.5q0 131 59 232q58 100 157.5 154.5t220.5 54.5q120 0 220 -54q101 -56 158.5 -157t57.5 -230q0 -132 -58 -232q-58 -101 -157.5 -156t-220.5 -55q-120 0 -220 55zM480 -77q106 0 188.5 47.5t128.5 133.5t46 197t-46 196t-128.5 132
t-188.5 47h-3v-753h3z" />
    <glyph glyph-name="uni25D1" unicode="&#x25d1;" horiz-adv-x="940" 
d="M250 -87q-101 56 -159 157.5t-58 230.5q0 131 59 232q58 100 157 154.5t220 54.5q120 0 220 -54q101 -56 159 -157t58 -230q0 -132 -58 -232q-58 -101 -158 -156t-221 -55t-219 55zM472 676h-3q-106 0 -188.5 -47t-128.5 -132t-46 -196t46 -197t128.5 -133.5t188.5 -47.5
h3v753z" />
    <glyph glyph-name="uni2605" unicode="&#x2605;" horiz-adv-x="960" 
d="M309 200l-273 198v2h337l106 323h2l106 -323h337v-2l-273 -198l106 -324h-1l-276 199l-276 -199h-1z" />
    <glyph glyph-name="uni2606" unicode="&#x2606;" horiz-adv-x="960" 
d="M309 200l-273 198v2h337l106 323h2l106 -323h337v-2l-273 -198l106 -324h-1l-276 199l-276 -199h-1zM352 215l-82 -247h2l208 152l209 -152h1l-82 247l206 147v2h-254l-79 243h-2l-79 -243h-254v-2z" />
    <glyph glyph-name="uni260E" unicode="&#x260e;" horiz-adv-x="960" 
d="M132 -54q-43 0 -43 48q0 17 11 34q12 25 13 28l7 30l5 27q10 46 24 64q21 31 61 75q41 41 63 81q27 50 27 122v43q0 11 -6 11q-18 0 -35 -14.5t-17 -31.5q0 -5 8 -31t8 -32q0 -37 -78 -66q-57 -22 -110 -22q-49 0 -49 66q0 140 174 203q114 40 285 40q165 0 281 -40
q178 -63 178 -194q0 -68 -52 -68q-46 0 -106 20q-77 26 -77 59q0 14 9 39q11 27 11 34q0 12 -16.5 21.5t-35.5 9.5q-14 0 -14 -16l2 -30q0 -78 30 -125q35 -46 66 -84q44 -45 61 -94q9 -17 12 -49l10 -49q2 -6 5 -10l8 -15q9 -16 9 -27q0 -25 -21.5 -41t-52.5 -16h-655z
M598 60q50 53 50 128t-48 129q-49 52 -122 52q-75 0 -126 -51q-49 -52 -49 -130q0 -76 47 -129q50 -50 125 -50q72 0 123 51zM537 434q39 0 39 25v47q-39 -9 -96 -9q-53 0 -97 11v-50q0 -24 37 -24h117z" />
    <glyph glyph-name="uni260F" unicode="&#x260f;" horiz-adv-x="960" 
d="M132 -54q-43 0 -43 48q0 17 11 34q12 25 13 28l7 30l5 27q10 46 24 64q21 31 61 75q41 41 63 81q27 50 27 122v43q0 11 -6 11q-18 0 -35 -14.5t-17 -31.5q0 -5 8 -31t8 -32q0 -37 -78 -66q-57 -22 -110 -22q-49 0 -49 66q0 140 174 203q114 40 285 40q165 0 281 -40
q178 -63 178 -194q0 -68 -52 -68q-46 0 -106 20q-77 26 -77 59q0 14 9 39q11 27 11 34q0 12 -16.5 21.5t-35.5 9.5q-14 0 -14 -16l2 -30q0 -78 30 -125q35 -46 66 -84q44 -45 61 -94q9 -17 12 -49l10 -49q2 -6 5 -10l8 -15q9 -16 9 -27q0 -25 -21.5 -41t-52.5 -16h-655z
M336 46q-57 57 -57 141q0 90 55 145q57 57 143 57q87 0 142 -57q56 -56 56 -145q0 -85 -57 -142q-56 -56 -141 -56q-84 0 -141 57zM598 60q50 53 50 128t-48 129q-49 52 -122 52q-75 0 -126 -51q-49 -52 -49 -130q0 -76 47 -129q50 -50 125 -50q72 0 123 51zM779 -31
q54 0 54 34q0 10 -9 32l-14 32q-4 30 -20 88q-19 47 -65 93q-52 55 -64 83q-30 56 -30 142q0 54 29 54q30 0 56 -14q35 -17 35 -41q0 -18 -10 -37t-10 -36q0 -23 64 -41q45 -16 82 -16q34 0 34 40q0 121 -166 178q-115 39 -264 39q-152 0 -268 -40q-167 -57 -167 -179
q0 -46 30 -46q31 0 89 19q69 21 69 47q0 9 -10 28t-10 36q0 25 31 47q28 22 58 22q27 0 27 -49q0 -117 -57 -200l-98 -114q-15 -20 -26 -60l-14 -61q-2 -13 -11 -29q-8 -22 -8 -29q0 -22 25 -22h638zM418 412q-60 0 -60 42v77q69 -12 123 -12q59 0 120 10v-73q0 -44 -68 -44
h-115zM537 434q39 0 39 25v47q-39 -9 -96 -9q-53 0 -97 11v-50q0 -24 37 -24h117z" />
    <glyph glyph-name="uni261C" unicode="&#x261c;" horiz-adv-x="960" 
d="M497 102q-29 -13 -53 -13q-19 0 -50 11q-29 14 -29 35q0 8 3 14q-86 14 -86 57q0 15 14 23q-52 12 -52 55q0 33 38 50q-215 0 -238 17q-17 14 -17 28q0 33 46 40q281 38 451 38q88 0 142 -12q22 -4 62 -25q36 -22 55 -30q25 -8 56 -14v42h94v-304h-94v31q-31 -1 -94 -27
q-91 -38 -175 -38q-48 0 -73 22zM524 127q42 28 55 58l2 9q0 19 -20 19q-28 -22 -62 -39q-34 -21 -94 -26l-10 -1h-8q-5 0 -6 -1q-3 -3 -3 -11q0 -17 30 -26q15 -7 42 -7q34 0 74 25zM493.5 184q40.5 21 67.5 55l2 10q0 23 -23 23q-5 0 -10 -3q-10 -8 -28 -18l-30 -20
q-47 -26 -83 -26q-13 0 -43 6q-32 8 -34 8q-15 0 -15 -14q0 -23 44 -37q29 -10 61 -10q51 5 91.5 26zM458 238q41 21 62 42q4 4 4 9q0 16 -21 16q-3 0 -17 -8l-43 -26q-52 -33 -85 -33q-19 0 -32 10q-15 11 -15 26q0 18 23 32q25 16 25 22q0 7 -17 7q-32 0 -53 -10
q-30 -15 -30 -41q0 -27 50 -50q46 -17 76 -17q28 0 73 21zM701 114l61 24q36 16 77 18v206q-27 2 -63 17q-55 30 -113 53q-34 10 -139 10q-196 0 -450 -36q-30 -4 -30 -27q0 -25 51 -28l224 -4h7l13 1q10 1 19 0l9 -3l9 -6q57 46 96 62q54 17 169 22l1 -13q-111 -1 -168 -22
q-19 -8 -56 -35l-57 -43q-36 -21 -36 -37q0 -21 35 -21q32 0 79 32q49 34 64 34q12 0 31 -3q13 -4 31 -4l34 2q10 0 10 -6q0 -4 -7 -8q34 -83 121 -106l-1 -8q-45 10 -85 43t-54 74q-6 3 -17 3q-25 0 -25 -10t19 -17q18 -7 18 -23q0 -18 -10 -31q24 -10 24 -36
q0 -33 -77 -80q14 -15 48 -15q69 0 138 21zM918 406h-62v-279h62v279z" />
    <glyph glyph-name="uni261E" unicode="&#x261e;" horiz-adv-x="960" 
d="M215 118q-63 26 -94 27v-31h-94v304h94v-42q31 6 56 14q14 6 55 30q40 21 62 25q54 12 142 12q170 0 451 -38q46 -7 46 -40q0 -14 -17 -28q-23 -17 -238 -17q38 -17 38 -50q0 -43 -52 -55q14 -8 14 -23q0 -43 -86 -57q3 -6 3 -14q0 -21 -29 -35q-31 -11 -50 -11
q-23 0 -53 13q-25 -22 -73 -22q-84 0 -175 38zM104 406h-62v-279h62v279zM552 109q30 9 30 26q0 8 -3 11q-1 1 -6 1h-7l-11 1q-60 5 -94 26q-34 17 -62 39q-20 0 -20 -19l2 -9q13 -30 55 -58q40 -25 74 -25q27 0 42 7zM619 168q44 14 44 37q0 14 -15 14q-2 0 -34 -8
q-30 -6 -43 -6q-36 0 -83 26l-29 20q-15 7 -29 18q-4 3 -10 3q-23 0 -23 -23l2 -10q27 -34 67.5 -55t91.5 -26q32 0 61 10zM445 108q-77 47 -77 80q0 26 24 36q-10 13 -10 31q0 16 18 23q19 7 19 17t-25 10q-11 0 -17 -3q-14 -41 -54 -74t-85 -43l-1 8q87 23 121 106
q-7 4 -7 8q0 6 10 6l34 -2q19 0 32 4q20 3 30 3q15 0 64 -34q47 -32 79 -32q35 0 35 21q0 16 -36 37l-57 43q-37 27 -56 35q-57 21 -168 22l1 13q115 -5 169 -22q39 -16 96 -62l9 6l9 3q9 1 19 0l13 -1h7l224 4q51 2 51 28q0 23 -30 27q-253 36 -450 36q-105 0 -139 -10
q-58 -23 -113 -53q-36 -15 -63 -17v-206q41 -2 77 -18l61 -24q69 -21 138 -21q35 0 48 15zM651 234q50 23 50 50q0 26 -30 41q-21 10 -53 10q-17 0 -17 -7q0 -6 25 -22q23 -14 23 -32q0 -15 -15 -26q-13 -10 -32 -10q-32 0 -85 33l-42 26l-18 8q-21 0 -21 -16q0 -5 4 -9
q21 -21 62 -42q45 -21 73 -21q30 0 76 17z" />
    <glyph glyph-name="female" unicode="&#x2640;" horiz-adv-x="960" 
d="M177 170v46h280v123q-46 5 -85 31.5t-61.5 68.5t-22.5 91q0 53 25.5 97t69.5 69.5t97 25.5t97 -25.5t69.5 -69.5t25.5 -97q0 -49 -22.5 -91t-61.5 -68.5t-85 -31.5v-123h280v-46h-280v-292h-46v292h-280zM554.5 403.5q33.5 19.5 52.5 53t19 73.5t-19.5 73.5t-53 53
t-73.5 19.5t-73.5 -19.5t-53 -53t-19.5 -73.5t19 -73.5t52.5 -53t74.5 -19.5t74.5 19.5z" />
    <glyph glyph-name="male" unicode="&#x2642;" horiz-adv-x="960" 
d="M227 -38.5q-44 25.5 -69.5 69.5t-25.5 97t25 97t69 69.5t98 25.5q65 0 119 -42l311 311h-271v43h345v-345h-43v270l-310 -310q41 -56 41 -119q0 -53 -25.5 -97t-69.5 -69.5t-97 -25.5t-97 25.5zM395.5 0q33.5 19 53 52.5t19.5 74.5q0 40 -19 73.5t-52.5 52.5t-73.5 19
q-41 0 -74.5 -19.5t-52.5 -53t-19 -72.5q0 -40 19.5 -73.5t53 -53t73.5 -19.5q39 0 72.5 19z" />
    <glyph glyph-name="spade" unicode="&#x2660;" horiz-adv-x="960" 
d="M356 -121q-3 0 -5 6q-1 1 -1 3q0 4 6 10q47 41 69 86t26 112q0 17 -6 17q-5 0 -7 -5l-8 -16q-18 -42 -61 -67.5t-97 -25.5t-98 27.5t-69 75.5t-25 107q0 63 28 118q25 48 53.5 82t100.5 102q168 167 216 243l2 2l2 -2q48 -76 216 -243q60 -57 93 -93q40 -44 64.5 -99
t24.5 -110q0 -61 -25.5 -108.5t-69.5 -74.5t-97 -27q-54 0 -97 25.5t-61 67.5l-7 16q-3 5 -8 5q-6 0 -6 -17q4 -67 26 -112t69 -86q7 -7 6 -13q-3 -6 -6 -6h-248z" />
    <glyph glyph-name="uni2661" unicode="&#x2661;" horiz-adv-x="960" 
d="M478 -102q-26 45 -88 118.5t-129 139.5q-60 57 -94 97q-42 47 -67.5 103t-25.5 114q0 66 26.5 119t72.5 82.5t101 29.5q133 0 204 -145l2 -3q1 0 2 3q34 73 86.5 109t117.5 36q55 0 101 -29.5t72.5 -82.5t26.5 -119q0 -67 -28 -122q-26 -50 -55 -85t-104 -107
q-67 -66 -129 -139.5t-88 -118.5l-2 -2zM482 -37q68 99 188 217l15 14q42 39 82 85q38 43 60 92.5t22 98.5q0 55 -22.5 99.5t-60 69.5t-80.5 25q-57 0 -102.5 -34.5t-72.5 -100.5q-9 -18 -15.5 -25t-15.5 -7t-15.5 7t-15.5 25q-27 66 -72.5 100.5t-102.5 34.5
q-43 0 -80.5 -25t-60 -69.5t-22.5 -99.5q0 -56 25 -105q22 -45 51.5 -80.5t88.5 -91.5l15 -14q109 -105 187 -216l2 -2z" />
    <glyph glyph-name="club" unicode="&#x2663;" horiz-adv-x="960" 
d="M357 -122q-7 0 -7 8q0 5 6 11q47 41 69 86t26 112q0 18 -6 18q-4 0 -6 -5q-2 -7 -9 -17q-27 -45 -74.5 -72t-101.5 -27t-98 25t-69.5 69t-25.5 100t25.5 101t69.5 70t99 25q43 0 83 -22q1 -1 3 -1q3 0 4 3q2 3 0 6l-3 3q-28 24 -44 60.5t-16 77.5q0 55 26 101t71.5 72.5
t100.5 26.5t100.5 -26.5t71.5 -72t26 -100.5q0 -41 -16 -77.5t-44 -61.5l-3 -3q-1 -4 0 -6q2 -3 4 -3l3 1q18 10 40.5 16t41.5 6q56 0 100.5 -25.5t69.5 -70t25 -100.5t-25.5 -100.5t-69.5 -69t-98 -24.5q-53 0 -99.5 26.5t-76.5 72.5q-6 6 -8 17q-2 5 -7 5q-6 0 -6 -18
q6 -70 28 -115.5t67 -82.5q7 -7 6 -13q-3 -6 -6 -6h-247z" />
    <glyph glyph-name="uni2664" unicode="&#x2664;" horiz-adv-x="960" 
d="M340 -123q-3 0 -6 5l-1 3q0 4 7 11q29 27 47 55t30 64q8 26 9 48v23l-3 -6q-26 -40 -68 -62.5t-87 -22.5q-55 0 -99 26.5t-69 74.5t-25 111t29 119q25 49 57 87t99 101q65 60 128.5 132t89.5 114l2 2l2 -2q26 -42 89.5 -114t128.5 -132q54 -51 91 -91q43 -47 68.5 -103
t25.5 -113q0 -63 -25 -111t-69 -74.5t-99 -26.5q-47 0 -88 22t-67 63q-3 2 -3 4l1 -24q0 -16 8 -45q12 -36 30 -64t47 -55q9 -9 6 -14t-6 -5h-280zM552 -86q3 0 -1 4l-9 13q-43 67 -43 150q0 27 5 45q5 15 19 15q13 0 20 -12t18 -23q28 -38 59 -55.5t74 -17.5t78 22.5
t55.5 62.5t20.5 89q0 54 -27 106q-25 45 -56.5 82t-88.5 91q-59 55 -115 116t-79 95l-2 2l-2 -2q-23 -34 -78 -94t-115 -117q-50 -46 -84 -85q-40 -43 -64.5 -94.5t-24.5 -99.5q0 -49 20.5 -89t55.5 -62.5t78 -22.5q79 0 133 73q11 11 18 23q8 12 20 12q15 0 19 -15
q5 -18 5 -45q0 -83 -43 -150q-4 -8 -9 -13q-4 -4 -1 -4h144z" />
    <glyph glyph-name="heart" unicode="&#x2665;" horiz-adv-x="960" 
d="M478 -100q-29 47 -91.5 120.5t-124.5 134.5q-67 64 -94 95q-41 45 -66.5 102.5t-25.5 115.5q0 63 26.5 116t72.5 84t101 31q75 0 126.5 -39t72.5 -114q1 -7 5 -7t5 7q18 72 71 112.5t128 40.5q55 0 101 -31t72.5 -84t26.5 -116t-29 -123q-26 -51 -55 -85.5t-102 -104.5
q-62 -61 -124.5 -134.5t-91.5 -120.5l-2 -2z" />
    <glyph glyph-name="uni2667" unicode="&#x2667;" horiz-adv-x="960" 
d="M340 -124q-3 0 -6 5l-1 3q0 4 7 11q34 34 52 63.5t30 71.5q7 27 5 53l-4 -6l-6 -10q-30 -36 -74 -56t-92 -20q-56 0 -100 26t-68.5 71.5t-24.5 101.5q0 58 24 103t68 70t102 25q21 0 46 -6.5t35 -13.5q2 -1 2.5 0t-1.5 2q-24 27 -38.5 65t-14.5 79q0 55 26.5 100.5t72 72
t100.5 26.5t100.5 -26t72 -71.5t26.5 -101.5q0 -41 -14.5 -79t-38.5 -65q-3 -3 1 -2q10 7 35 13.5t46 6.5q58 0 102 -25t68 -70t24 -103q0 -56 -24.5 -101.5t-68.5 -71.5t-100 -26q-48 0 -92 20t-74 56l-6 10l-4 6q2 -46 5 -53q12 -42 30 -71.5t52 -63.5q9 -9 6 -14t-6 -5
h-280zM552 -87q3 0 -1 4q-5 5 -10 13q-43 70 -43 149q0 30 6 45t21 15q12 0 19 -12q5 -9 17 -23q30 -39 65.5 -57.5t82.5 -18.5q43 0 79 21.5t56.5 58.5t20.5 82q0 71 -43.5 116.5t-113.5 45.5q-39 0 -83 -22q-18 -8 -25 -8q-13 0 -22 11q-5 8 -5 14q0 11 6 18q6 9 24 32
q35 47 39 117q1 42 -20.5 79t-59 59.5t-82.5 22.5q-43 0 -80.5 -22t-59.5 -59t-22 -80q0 -64 39 -117l25 -32q5 -8 5 -18q0 -6 -5 -14q-9 -11 -22 -11q-7 0 -25 8q-44 22 -83 22q-70 0 -113.5 -45.5t-43.5 -116.5q0 -45 20.5 -82t56.5 -58.5t79 -21.5q47 0 82 18t66 58
q11 11 18 23q8 12 18 12q15 0 21 -15t6 -45q0 -82 -43 -149q-4 -8 -9 -13q-4 -4 -2 -4h144z" />
    <glyph glyph-name="uni2668" unicode="&#x2668;" horiz-adv-x="960" 
d="M324.5 -65.5q-72.5 17.5 -127.5 50.5q-57 33 -87.5 76t-30.5 93q0 66 38.5 109t110.5 59l2 -4q-101 -32 -101 -117q0 -39 27 -73.5t76 -59.5q50 -25 114 -39t134 -14t134 14t115 39q48 25 75 59.5t27 73.5q0 85 -101 117l2 4q72 -16 110.5 -59t38.5 -109q0 -50 -30 -93
t-87 -76q-55 -33 -128.5 -50.5t-155.5 -17.5q-83 0 -155.5 17.5zM272 124q24 24 34 53.5t10 71.5q0 25 -10 54t-33 73q-40 76 -40 125q0 47 27.5 90.5t79.5 73.5l5 -6q-24 -24 -34.5 -54t-10.5 -70q0 -24 9 -50t35 -78q39 -76 39 -126q0 -47 -27.5 -90t-79.5 -73zM438 88
q24 27 34.5 61.5t10.5 80.5q0 28 -10 61t-33 83q-42 87 -42 141t28.5 102.5t81.5 83.5l5 -7q-24 -27 -34.5 -60.5t-10.5 -80.5q0 -28 10 -61t33 -83q41 -90 41 -142q0 -53 -28.5 -101.5t-80.5 -83.5zM609 124q24 24 34 54t10 71q0 25 -10 54t-33 73q-40 76 -40 126
q0 47 27.5 90t79.5 73l5 -6q-24 -24 -34.5 -54t-10.5 -70q0 -24 9 -50t35 -78q39 -73 39 -125q0 -47 -27.5 -90.5t-79.5 -73.5z" />
    <glyph glyph-name="uni2669" unicode="&#x2669;" horiz-adv-x="960" 
d="M373 -122.5q-25 19.5 -25 51.5t23 63t61 50.5t82 19.5q38 0 60 -13v693h38v-720q0 -47 -22.5 -84.5t-62 -58.5t-90.5 -21q-39 0 -64 19.5z" />
    <glyph glyph-name="musicalnote" unicode="&#x266a;" horiz-adv-x="960" 
d="M262 -122.5q-25 19.5 -25 51.5t23 63t61 50.5t82 19.5q39 0 61 -13v693h24q0 -116 111 -212q124 -106 124 -216q0 -105 -81 -234h-25q61 121 61 202t-49 142.5t-127 79.5v-482q0 -46 -22 -83.5t-62.5 -59t-91.5 -21.5q-39 0 -64 19.5z" />
    <glyph glyph-name="uni266C" unicode="&#x266c;" horiz-adv-x="960" 
d="M111.5 -136.5q-25.5 19.5 -25.5 51.5q0 33 23.5 64t62 50t80.5 19q39 0 61 -13v598l562 123v-626q0 -47 -22.5 -84t-62.5 -58t-91 -21q-39 0 -64 19.5t-25 51.5t23.5 63t62 50t80.5 19q38 0 60 -12v328l-485 -105v-374q0 -47 -23.5 -84.5t-63.5 -58t-88 -20.5
q-39 0 -64.5 19.5zM836 582v69l-485 -105v-69z" />
    <glyph glyph-name="uni266D" unicode="&#x266d;" horiz-adv-x="960" 
d="M324 729v-479q37 63 91 98.5t117 35.5q62 0 101 -36t39 -90q0 -64 -34 -113.5t-105 -95.5l-40 -25q-84 -54 -125 -85t-73 -68h-8v858h37zM324 -61q19 23 83 76q46 36 73 64q63 65 63 161q0 80 -69 80q-37 0 -77 -31.5t-73 -88.5v-261z" />
    <glyph glyph-name="uni3000" unicode="&#x3000;" horiz-adv-x="1000" 
 />
    <glyph glyph-name="uni3001" unicode="&#x3001;" horiz-adv-x="1000" 
d="M247 -176q-80 127 -182 220l46 44q121 -92 205 -201z" />
    <glyph glyph-name="uni3002" unicode="&#x3002;" horiz-adv-x="1000" 
d="M84 -85q-41 38 -41 96q0 49 41 96q46 38 96 38q51 0 98 -38q39 -49 39 -96q0 -56 -39 -96q-42 -39 -98 -39q-55 0 -96 39zM229 -39.5q20 20.5 20 50.5q0 28 -20 49t-49 21q-26 0 -47.5 -21t-21.5 -49q0 -30 20 -50.5t49 -20.5t49 20.5z" />
    <glyph glyph-name="uni3003" unicode="&#x3003;" horiz-adv-x="565" 
d="M260 206l95 293l110 -46l-136 -277zM155 519l110 -47l-136 -276l-69 30z" />
    <glyph glyph-name="uni3008" unicode="&#x3008;" horiz-adv-x="376" 
d="M100 316l182 486h74l-182 -486l182 -487h-74z" />
    <glyph glyph-name="uni3009" unicode="&#x3009;" horiz-adv-x="376" 
d="M202 316l-182 486h74l182 -486l-182 -487h-74z" />
    <glyph glyph-name="uni300A" unicode="&#x300a;" horiz-adv-x="486" 
d="M215 316l177 486h74l-182 -486l182 -487h-74zM252 802h74l-182 -486l182 -487h-74l-177 487z" />
    <glyph glyph-name="uni300B" unicode="&#x300b;" horiz-adv-x="486" 
d="M342 316l-182 486h74l177 -486l-177 -487h-74zM202 316l-182 486h74l177 -486l-177 -487h-74z" />
    <glyph glyph-name="uni300C" unicode="&#x300c;" horiz-adv-x="322" 
d="M297 782v-60h-125v-235h-72v295h197z" />
    <glyph glyph-name="uni300D" unicode="&#x300d;" horiz-adv-x="322" 
d="M150 -108v235h72v-295h-197v60h125z" />
    <glyph glyph-name="uni300E" unicode="&#x300e;" horiz-adv-x="391" 
d="M80 462l1 339l270 2v-152l-85 -1l-1 -190zM203 512v188l90 1v50h-149v-239h59z" />
    <glyph glyph-name="uni300F" unicode="&#x300f;" horiz-adv-x="391" 
d="M125 -17l1 190l185 -2l-1 -339l-270 -2v152zM247 -118v239h-59v-188l-80 -1v-50h139z" />
    <glyph glyph-name="uni3010" unicode="&#x3010;" horiz-adv-x="332" 
d="M302 802v-6q-52 -74 -86.5 -214.5t-34.5 -265.5q0 -124 34.5 -265t86.5 -215v-6h-202v972h202z" />
    <glyph glyph-name="uni3011" unicode="&#x3011;" horiz-adv-x="332" 
d="M30 -164q52 74 86.5 215t34.5 265q0 125 -34.5 265.5t-86.5 214.5v6h202v-972h-202v6z" />
    <glyph glyph-name="uni3013" unicode="&#x3013;" horiz-adv-x="800" 
d="M750 506v-62h-700v62h700zM50 284h700v-62h-700v62z" />
    <glyph glyph-name="uni3014" unicode="&#x3014;" horiz-adv-x="367" 
d="M80 -62v754l247 110v-89l-170 -72v-652l170 -72v-89z" />
    <glyph glyph-name="uni3015" unicode="&#x3015;" horiz-adv-x="367" 
d="M208 -11v652l-170 72v89l247 -110v-754l-247 -110v89z" />
    <glyph glyph-name="uni3041" unicode="&#x3041;" horiz-adv-x="920" 
d="M535 2q20 5 39 12q47 13 74 48.5t27 83.5q0 71 -77 124q-46 -153 -170 -233l13 -40l-56 -22l-9 38q-55 -11 -72 -11q-55 0 -79 21q-19 13 -27.5 28t-8.5 37q0 80 45 137q42 56 129 96v83q-63 -11 -114 -11q-33 0 -44 1l-8 54l54 -2q40 0 112 13v125h61v-109q7 0 23 4
l16 2q12 3 32 5l46 8l22 3l46 9l14 -51q-42 -10 -97 -20l-99 -18l-3 -2v-73l4 -3q20 7 83 7q26 0 36 -2l4 2l8 41l62 -29l-6 -38q57 -15 90 -72q33 -52 33 -108q0 -77 -64 -135q-41 -37 -106 -46zM364 69l-1 197q-114 -69 -114 -162q0 -22 14.5 -37t37.5 -15q27 0 63 17z
M424 102q34 24 65.5 75t46.5 107l-6 6h-8q-1 1 -3 1q-15 3 -32 3q-18 0 -43 -4q-6 0 -20 -2v-186z" />
    <glyph glyph-name="uni3042" unicode="&#x3042;" horiz-adv-x="920" 
d="M560 5l29 7l14 4q58 17 92.5 61.5t34.5 101.5q0 47 -26.5 86t-73.5 68q-22 -76 -80.5 -156t-128.5 -129q1 -25 12 -46l-57 -25q-7 13 -9 23q-2 9 1 13l-9 6l-15 -3q-50 -10 -68 -10q-59 0 -94 21q-18 12 -29.5 34t-13.5 47q-6 91 54 167q54 72 157 117v108
q-33 -10 -65 -14t-76 -4q-38 0 -51 1l-9 56l62 -2q48 0 139 17v156h63v-144l197 34l27 6l6 1h2l4 -1l13 -50q-43 -9 -117 -23t-126 -22l-6 -5v-90l4 -3q17 5 78 5q63 0 81 -5l8 4l8 45l63 -25l3 -3l-1 -2l-1 -4q-5 -21 -7 -39q68 -15 112 -87q39 -63 39 -130q0 -95 -76 -162
q-50 -44 -125 -58zM313.5 69q22.5 6 37.5 15v111q0 76 -1 92v30l-11 4q-66 -40 -101 -89.5t-32 -105.5q1 -24 16.5 -42t37.5 -20q3 -1 12 -1q19 0 41.5 6zM413 118q48 29 97 99.5t64 138.5q-42 5 -76 5q-44 0 -85 -9v-234z" />
    <glyph glyph-name="uni3043" unicode="&#x3043;" horiz-adv-x="920" 
d="M230 25q-71 101 -71 280q0 97 36 215l57 -33q-29 -113 -29 -212q0 -47 12 -103.5t30 -91.5q13 -26 30 -41t36 -15l12 2q39 11 67 48l6 10l8 11l19 29l34 -52q-8 -18 -20.5 -34t-35.5 -38q-46 -35 -89 -35q-64 0 -102 60zM700 126q-17 70 -55 130.5t-104 130.5l45 35
q62 -53 106.5 -123t65.5 -149z" />
    <glyph glyph-name="uni3044" unicode="&#x3044;" horiz-adv-x="920" 
d="M182 28q-85 121 -85 340q0 111 42 256l65 -36q-18 -75 -27.5 -136t-9.5 -121q0 -61 14 -130.5t37 -110.5q32 -71 82 -71l15 2q44 11 86 65l37 56l40 -58q-16 -42 -67 -85q-55 -43 -107 -43q-78 0 -122 72zM754 154q-23 84 -69 158.5t-122 154.5l50 39q77 -66 130 -149
t77 -178z" />
    <glyph glyph-name="uni3045" unicode="&#x3045;" horiz-adv-x="920" 
d="M337 -11q99 33 150 74q33 32 52 74t19 88q0 24 -8.5 48.5t-23.5 42.5q-39 36 -88 33q-64 -6 -156 -48l-27 62q47 22 102 36t100 14q67 0 122 -55q52 -55 52 -128q0 -100 -67 -176q-54 -68 -172 -111zM561 471q-35 33 -90 55.5t-120 31.5l45 50q51 -3 105 -25t100 -59z
" />
    <glyph glyph-name="uni3046" unicode="&#x3046;" horiz-adv-x="920" 
d="M336 -13q115 38 174 91q43 39 66.5 89.5t23.5 109.5q0 33 -11 63t-32 51t-50.5 33t-59.5 10q-78 -6 -186 -53l-27 62q55 25 119 41t116 16q77 0 145 -64q59 -67 59 -152q0 -117 -81 -212q-66 -82 -201 -132zM597 587q-85 74 -244 100l47 50q58 -3 119.5 -28t114.5 -69z
" />
    <glyph glyph-name="uni3047" unicode="&#x3047;" horiz-adv-x="920" 
d="M568 -55q-42 3 -66 9t-35 17q-19 11 -26.5 23t-7.5 31q0 12 1 16q1 17 6 34l5 24q2 16 2 22q0 22 -19 28q-6 3 -14 3q-12 0 -23 -8l-199 -199l-47 41l396 373l-331 -4l-15 54h410l31 -46l-176 -160q31 -15 41.5 -26t12.5 -34v-5q0 -9 -4 -26q0 -2 -1 -3v-3q0 -4 -1 -5
q-1 -9 -5 -27q-3 -13 -3 -23q0 -30 28 -44t73 -14q44 0 102 21l-12 -49q-48 -22 -93 -22zM311 522l4 53l259 -12l-6 -55z" />
    <glyph glyph-name="uni3048" unicode="&#x3048;" horiz-adv-x="920" 
d="M598 -60q-48 4 -76.5 11.5t-46.5 21.5q-23 14 -31 31.5t-5 50.5q1 17 8 42q0 2 1 3v4l1 1l1 6l1 5l2 13l2 15q2 37 -25 44q-7 3 -18 3q-19 0 -29 -10l-241 -240l-53 46l484 457l-405 -5l-17 60l491 1l36 -55l-219 -194q37 -13 52 -29.5t19 -48.5q1 -6 -7 -46l-6 -35
q-4 -16 -4 -30q0 -29 25 -45.5t66 -20.5l35 -2q56 0 120 24l-14 -56q-55 -24 -110 -24zM290 642l5 60l308 -16l-7 -61z" />
    <glyph glyph-name="uni3049" unicode="&#x3049;" horiz-adv-x="920" 
d="M296 -25q-26 4 -40 9.5t-31 18.5q-24 17 -33 35.5t-9 51.5t10 58.5t34 52.5q45 51 126 86v100q-92 -6 -179 -8l-12 48q110 2 191 11v134h55v-118q38 -1 99 21v-53q-36 -16 -99 -26v-98q36 17 91 17q47 0 88 -12t68 -35q36 -27 53 -59.5t17 -76.5q0 -61 -43 -110
q-46 -45 -104 -45q-34 0 -76 16l24 47q30 -12 53 -12q34 0 60 26q29 32 29 75q0 70 -57 106q-25 13 -59.5 21t-66.5 8q-49 0 -77 -17v-170q0 -47 -26.5 -75t-68.5 -28q-13 0 -17 1zM337 43q16 21 16 53v137q-54 -21 -85.5 -57t-31.5 -78q0 -49 36 -69q13 -7 25 -7
q24 0 40 21zM733 342q-27 30 -65.5 55t-78.5 40l22 40q45 -12 83.5 -37.5t63.5 -58.5z" />
    <glyph glyph-name="uni304A" unicode="&#x304a;" horiz-adv-x="920" 
d="M260 -28q-33 6 -49.5 13t-35.5 22q-28 19 -38.5 42t-10.5 62q0 41 12.5 71t43.5 64q47 58 150 104v123l-54 -2q-85 -5 -163 -7l-15 55q110 1 232 13v163h63v-146q46 0 120 28v-63q-45 -18 -120 -29v-126q18 11 49 17.5t64 6.5q55 0 104 -15t85 -45q83 -56 83 -160
q0 -70 -50 -135q-59 -53 -126 -53q-39 0 -89 18l28 53q35 -12 62 -12q44 0 74 33q18 15 27.5 39.5t9.5 51.5q0 81 -71 131q-31 16 -72.5 25t-81.5 9q-62 0 -97 -21v-208q0 -57 -31.5 -90.5t-80.5 -33.5zM311 52.5q21 26.5 21 65.5v168q-68 -25 -107.5 -69t-39.5 -97
q0 -29 12 -52t33 -34q18 -8 30 -8q30 0 51 26.5zM793 419q-36 38 -82 68.5t-91 45.5l25 47q53 -15 98 -44.5t78 -70.5z" />
    <glyph glyph-name="uni304B" unicode="&#x304b;" horiz-adv-x="920" 
d="M97 -35l149 471l-130 -13l-15 59l161 12l67 204l56 -27l-52 -170l129 2q58 1 82 -27t24 -93q0 -108 -7.5 -178.5t-30.5 -134.5q-18 -49 -50.5 -78t-82.5 -39l-27 54q28 8 49 18q22 11 34.5 34.5t25.5 66.5q9 38 17 108.5t8 119.5q0 32 -5 54q-10 37 -60 37
q-104 0 -123 -5l-2 -2l-151 -491zM786 221q-13 42 -54 118q-28 55 -78 112l51 32q50 -53 78 -101q15 -24 26.5 -47.5t30.5 -72.5z" />
    <glyph glyph-name="uni304C" unicode="&#x304c;" horiz-adv-x="920" 
d="M97 -35l149 471l-130 -13l-15 59l161 12l67 204l56 -27l-52 -170l129 2q58 1 82 -27t24 -93q0 -108 -7.5 -178.5t-30.5 -134.5q-18 -49 -50.5 -78t-82.5 -39l-27 54q28 8 49 18q22 11 34.5 34.5t25.5 66.5q9 38 17 108.5t8 119.5q0 32 -5 54q-10 37 -60 37
q-104 0 -123 -5l-2 -2l-151 -491zM786 221q-13 42 -54 118q-28 55 -78 112l51 32q50 -53 78 -101q15 -24 26.5 -47.5t30.5 -72.5zM742 538q-16 27 -57 69q-26 23 -84 59l48 30q25 -9 44 -22.5t41 -35.5q19 -19 49 -64zM849 622q-18 29 -58 70q-23 20 -85 59l46 30
q54 -26 84 -59q20 -20 50 -66z" />
    <glyph glyph-name="uni304D" unicode="&#x304d;" horiz-adv-x="920" 
d="M408.5 -55q-48.5 9 -86.5 27q-51 25 -75 56.5t-24 79.5q0 41 19.5 71.5t60.5 58.5q33 22 67 32t82 13q55 2 109 -17l-35 123q-105 -13 -154.5 -17.5t-100.5 -4.5q-35 0 -65 10l-21 54q72 -10 130 -7l191 17l-32 97l-217 -15l-27 55l226 14l-29 92l69 5l29 -88l142 10
l20 -50l-144 -13l30 -95q89 6 159 14l21 -52l-160 -17l58 -183l-75 -14q-36 20 -99 24q-26 1 -56 -4t-55 -14q-34 -15 -54 -39t-20 -56q0 -35 23.5 -60t64.5 -38q58 -19 139 -18q100 4 172 30l30 -64q-57 -13 -106.5 -19.5t-109.5 -6.5q-48 0 -96.5 9z" />
    <glyph glyph-name="uni304E" unicode="&#x304e;" horiz-adv-x="920" 
d="M358.5 -55q-48.5 9 -86.5 27q-51 25 -75 56.5t-24 79.5q0 41 19.5 71.5t60.5 58.5q33 22 67 32t82 13q55 2 109 -17l-35 123q-105 -13 -154.5 -17.5t-100.5 -4.5q-35 0 -65 10l-21 54q72 -10 130 -7l191 17l-32 97l-217 -15l-27 55l226 14l-29 92l69 5l29 -88l142 10
l20 -50l-144 -13l30 -95q89 6 159 14l21 -52l-160 -17l58 -183l-75 -14q-36 20 -99 24q-26 1 -56 -4t-55 -14q-34 -15 -54 -39t-20 -56q0 -35 23.5 -60t64.5 -38q58 -19 139 -18q100 4 172 30l30 -64q-57 -13 -106.5 -19.5t-109.5 -6.5q-48 0 -96.5 9zM738 581
q-18 28 -57 67q-24 23 -81 58l44 28q23 -9 42 -22.5t42 -34.5q12 -13 24 -30l23 -33zM844 665q-17 28 -57 68q-29 28 -82 58l41 28q49 -22 84 -58q18 -18 48 -64z" />
    <glyph glyph-name="uni304F" unicode="&#x304f;" horiz-adv-x="920" 
d="M561 -62q-71 128 -127 207q-83 110 -167 186l291 380l65 -45l-261 -325q170 -180 263 -358z" />
    <glyph glyph-name="uni3050" unicode="&#x3050;" horiz-adv-x="920" 
d="M471 -62q-71 128 -127 207q-83 110 -167 186l291 380l65 -45l-261 -325q170 -180 263 -358zM668 374q-15 25 -56 65q-28 26 -78 57l40 26q22 -9 41 -22t42 -34q17 -18 45 -61zM774 458q-16 27 -56 66q-32 29 -79 57l37 26q47 -21 83 -57q20 -22 46 -63z" />
    <glyph glyph-name="uni3051" unicode="&#x3051;" horiz-adv-x="920" 
d="M424 5q85 28 118 72q22 30 34.5 70.5t12.5 82.5v204h-232v62h232v193h72v-193h166v-62h-166v-205q0 -57 -13.5 -101t-41.5 -81q-26 -38 -59 -60.5t-76 -33.5zM200 -42q-37 186 -37 355q0 256 25 388l71 -6q-11 -82 -18 -172.5t-7 -163.5q0 -87 6 -172t22 -228z" />
    <glyph glyph-name="uni3052" unicode="&#x3052;" horiz-adv-x="1000" 
d="M404 5q85 28 118 72q22 30 34.5 70.5t12.5 82.5v204h-232v62h232v193h72v-193h166v-62h-166v-205q0 -57 -13.5 -101t-41.5 -81q-26 -38 -59 -60.5t-76 -33.5zM180 -42q-37 186 -37 355q0 256 25 388l71 -6q-11 -82 -18 -172.5t-7 -163.5q0 -87 6 -172t22 -228zM782 628
q-20 38 -43 73q-45 52 -68 71l43 19q44 -31 69 -70q19 -23 37 -69zM899 692q-11 27 -43 75q-45 52 -68 71l39 18q42 -28 71 -70q18 -26 35 -70z" />
    <glyph glyph-name="uni3053" unicode="&#x3053;" horiz-adv-x="920" 
d="M415 -16q-84 0 -137 12.5t-83 39.5q-35 28 -53 71.5t-23 113.5l68 25q6 -59 17 -93.5t31 -54.5q29 -28 69 -39t98 -11h383v-64h-370zM396 522q-72 0 -115.5 1.5t-85.5 6.5v63q95 -9 181 -9h349v-7q-1 -2 -1 -10v-45h-328z" />
    <glyph glyph-name="uni3054" unicode="&#x3054;" horiz-adv-x="960" 
d="M420 -16q-84 0 -137 12.5t-83 39.5q-35 28 -53 71.5t-23 113.5l68 25q6 -59 17 -93.5t31 -54.5q29 -28 69 -39t98 -11h373v-64h-360zM401 512q-72 0 -115.5 1.5t-85.5 6.5v63q95 -9 181 -9h309v-7q-1 -2 -1 -10v-45h-288zM784 614q-17 21 -62 60q-35 29 -89 53l45 35
q48 -16 87 -48q31 -26 57 -61zM882 705q-21 27 -64 62q-37 30 -90 54l42 34q56 -20 89 -48q13 -11 47 -51l9 -12z" />
    <glyph glyph-name="uni3055" unicode="&#x3055;" horiz-adv-x="920" 
d="M483 -60q-43 1 -85 12.5t-75 32.5q-40 27 -60 59t-20 74q0 84 81 142q65 44 158 44q44 0 83 -7l2 11l-4 4q-9 4 -59 99l-14 28l-4 9q-4 12 -9 17l-163 -4q-30 -1 -93 8l-28 65q72 -11 129 -11l131 2l-11 46l-6 23q-13 47 -21 99h82q15 -104 30 -157l196 17l24 -60
l-192 -19q60 -128 151 -225l-36 -53q-69 54 -167 54q-31 0 -61 -6t-51 -17q-30 -13 -52.5 -40t-22.5 -57q0 -38 21.5 -65t59.5 -42q49 -20 122 -20q81 0 153 29l36 -65q-91 -28 -193 -28z" />
    <glyph glyph-name="uni3056" unicode="&#x3056;" horiz-adv-x="920" 
d="M443 -60q-43 1 -85 12.5t-75 32.5q-40 27 -60 59t-20 74q0 84 81 142q65 44 158 44q44 0 83 -7l2 11l-4 4q-9 4 -59 99l-14 28l-4 9q-4 12 -9 17l-163 -4q-30 -1 -93 8l-28 65q72 -11 129 -11l131 2l-11 46l-6 23q-13 47 -21 99h82q15 -104 30 -157l196 17l24 -60
l-192 -19q60 -128 151 -225l-36 -53q-69 54 -167 54q-31 0 -61 -6t-51 -17q-30 -13 -52.5 -40t-22.5 -57q0 -38 21.5 -65t59.5 -42q49 -20 122 -20q81 0 153 29l36 -65q-91 -28 -193 -28zM750 620q-16 19 -60 58q-30 24 -83 51l37 29q44 -15 85 -48q34 -30 53 -57zM847 711
q-17 24 -61 60q-30 26 -84 52l34 28q51 -18 87 -48q26 -23 52 -59z" />
    <glyph glyph-name="uni3057" unicode="&#x3057;" horiz-adv-x="920" 
d="M301.5 -42.5q-24.5 11.5 -42.5 35.5q-38 44 -38 113v572h75v-584q0 -43 19.5 -64t66.5 -21q106 0 207 53q50 29 111 90l35 -64q-54 -58 -157 -103q-106 -39 -214 -39q-38 0 -62.5 11.5z" />
    <glyph glyph-name="uni3058" unicode="&#x3058;" horiz-adv-x="920" 
d="M301.5 -42.5q-24.5 11.5 -42.5 35.5q-38 44 -38 113v572h75v-584q0 -43 19.5 -64t66.5 -21q106 0 207 53q50 29 111 90l35 -64q-54 -58 -157 -103q-106 -39 -214 -39q-38 0 -62.5 11.5zM630 445q-18 28 -57 67q-28 25 -81 58l44 28q44 -18 83 -57q11 -11 24 -29t24 -34z
M734 529q-17 28 -57 68q-35 31 -81 58l40 27q51 -22 84 -57q18 -18 48 -64z" />
    <glyph glyph-name="uni3059" unicode="&#x3059;" horiz-adv-x="920" 
d="M334 -30q74 46 113 88t69 109l-12 7q-31 -32 -57 -45t-52 -13q-32 0 -52.5 7.5t-44.5 26.5q-24 20 -35 45.5t-11 58.5q0 60 44 110q20 21 46.5 32t50.5 11q22 0 43 -3t27 -9l5 1v104h-342v58h342v148h69v-148h245v-58h-245v-151q17 -31 23.5 -62.5t6.5 -72.5
q0 -72 -50 -149q-28 -43 -61 -75t-78 -58zM462 202q24 27 24 77v29q-8 18 -34 28.5t-50 10.5q-35 0 -61 -25.5t-26 -62.5q0 -41 23 -62.5t58 -21.5q42 0 66 27z" />
    <glyph glyph-name="uni305A" unicode="&#x305a;" horiz-adv-x="920" 
d="M334 -30q74 46 113 88t69 109l-12 7q-57 -59 -109 -59q-33 0 -53.5 7t-43.5 26q-24 20 -35 45.5t-11 60.5q0 60 44 110q20 21 46.5 32t50.5 11q22 0 43 -3t27 -9l5 1v104h-342v58h342v148h69v-148h245v-58h-245v-151q17 -31 23.5 -62.5t6.5 -72.5q0 -72 -50 -149
q-28 -43 -61 -75t-78 -58zM462 202q24 27 24 77v29q-8 18 -34 28.5t-50 10.5q-35 0 -60 -24t-25 -61q0 -40 23 -63.5t57 -23.5q41 0 65 27zM739 639q-30 40 -55 64q-28 26 -78 57l40 26q41 -17 82 -56q27 -30 44 -63zM842 722q-21 35 -54 66q-31 32 -78 57l36 25
q48 -21 83 -56q24 -25 44 -62z" />
    <glyph glyph-name="uni305B" unicode="&#x305b;" horiz-adv-x="920" 
d="M401 -17q-64 0 -95 31.5t-31 101.5v310l-178 -10l1 61l177 10v191h70v-186l244 12v176h68v-170l164 12v-64l-164 -10v-150q0 -69 -38.5 -106t-111.5 -37l-19 2l-17 58l4 1v2q9 0 12 -1h10q38 0 63.5 19.5t28.5 57.5v148l-244 -13v-313q0 -34 18.5 -54t45.5 -20h328v-59
h-336z" />
    <glyph glyph-name="uni305C" unicode="&#x305c;" horiz-adv-x="920" 
d="M381 -17q-64 0 -95 31.5t-31 101.5v310l-178 -10l1 61l177 10v191h70v-186l244 12v176h68v-170l164 12v-64l-164 -10v-150q0 -69 -38.5 -106t-111.5 -37l-19 2l-17 58l4 1v2q9 0 12 -1h10q38 0 63.5 19.5t28.5 57.5v148l-244 -13v-313q0 -34 18.5 -54t45.5 -20h328v-59
h-336zM745 641q-23 34 -55 63q-25 25 -75 56l36 24q37 -16 81 -55q21 -25 44 -60zM849 725q-21 33 -55 64q-27 27 -75 56l32 23q44 -18 82 -55q18 -19 44 -61z" />
    <glyph glyph-name="uni305D" unicode="&#x305d;" horiz-adv-x="920" 
d="M425 -20q-50 31 -72.5 72.5t-22.5 103.5q0 42 20 86t52 68l-284 -26l-18 67l209 21l236 241l-310 -13l-4 66l373 10l39 -55l-261 -245l407 39l21 -55l-266 -24q-27 -2 -60 -20t-51 -41q-40 -56 -40 -117q0 -36 13 -66.5t37 -48.5q21 -17 54.5 -25.5t71.5 -8.5
q60 0 131 23l-14 -68q-63 -16 -121 -16q-87 0 -140 32z" />
    <glyph glyph-name="uni305E" unicode="&#x305e;" horiz-adv-x="920" 
d="M375 -20q-50 31 -72.5 72.5t-22.5 103.5q0 42 20 86t52 68l-284 -26l-18 67l210 21l224 243l-299 -15l-4 66l353 10l39 -56l-236 -244l402 39l21 -55l-266 -24q-27 -2 -60 -20t-51 -41q-40 -56 -40 -117q0 -36 13 -66.5t37 -48.5q21 -17 54.5 -25.5t71.5 -8.5
q60 0 131 23l-14 -68q-63 -16 -121 -16q-87 0 -140 32zM715 581q-25 44 -38 62q-31 39 -70 73l47 20q45 -32 70 -71q23 -31 38 -71l-40 -26zM838 632q-12 29 -44 77q-31 39 -70 73l43 19q42 -29 73 -71q18 -26 35 -72z" />
    <glyph glyph-name="uni305F" unicode="&#x305f;" horiz-adv-x="920" 
d="M131 -6l160 463h-159l-18 59h193l63 190l64 -18l-49 -154l7 -6q29 -3 209 31l-16 -63q-34 -8 -102 -20.5t-107 -18.5l-6 1l-8 -3l-161 -491zM602 -37q-72 0 -122 30t-83 106l56 26q21 -56 70.5 -80t144.5 -20l129 5l7 -59zM504 349q78 27 152 27q60 0 117 -16l-6 -66
q-60 17 -119 17q-63 0 -143 -21z" />
    <glyph glyph-name="uni3060" unicode="&#x3060;" horiz-adv-x="920" 
d="M131 -6l160 463h-159l-18 59h193l63 190l64 -18l-50 -161q19 -1 51 3.5t67 10.5l-17 -65q-52 -13 -123 -18l-161 -494zM602 -37q-72 0 -122 30t-83 106l56 26q21 -56 70.5 -80t144.5 -20l129 5l7 -59zM504 349q78 27 152 27q60 0 117 -16l-6 -66q-60 17 -119 17
q-63 0 -143 -21zM740 528q-15 25 -56 65q-28 26 -78 57l40 26q41 -17 82 -56q21 -22 46 -61zM844 612q-16 27 -56 66q-30 29 -78 57l36 25q48 -21 83 -56q20 -22 46 -63z" />
    <glyph glyph-name="uni3061" unicode="&#x3061;" horiz-adv-x="920" 
d="M364 -46l-30 60h11q58 -8 78 -8q69 0 142 24t113 64q50 44 50 106q0 13 -1 17q-4 43 -40 66t-85 23q-115 0 -219 -111l-40 41l11 205l-5 1q-10 -6 -44 -12t-68 -6q-20 0 -26 1l-15 54q12 0 15 -1h8q91 0 140 27l12 199h67l-10 -181l40 13q101 31 151 49q36 13 61 28
l20 -45q-31 -23 -72 -38l-41 -12l-18 -6l-4 -1l-9 -3q-19 -7 -25 -8l-11 -3l-14 -5l-18 -6l-4 -1q-42 -16 -57 -16l-4 -3l-6 -170q44 32 97 50t106 18q70 0 122 -42q52 -46 52 -115q0 -104 -98 -181q-48 -37 -106.5 -57.5t-118.5 -20.5q-48 0 -107 6z" />
    <glyph glyph-name="uni3062" unicode="&#x3062;" horiz-adv-x="920" 
d="M254 -46l-30 60h11q58 -8 78 -8q69 0 142 24t113 64q50 44 50 106q0 13 -1 17q-4 43 -40 66t-85 23q-115 0 -219 -111l-40 41l11 205l-5 1q-10 -6 -44 -12t-68 -6q-20 0 -26 1l-15 54q12 0 15 -1h8q91 0 140 27l12 199h67l-10 -181l40 13q101 31 151 49q36 13 61 28
l20 -45q-31 -23 -72 -38l-41 -12l-18 -6l-4 -1l-9 -3q-19 -7 -25 -8l-11 -3l-14 -5l-18 -6l-4 -1q-42 -16 -57 -16l-4 -3l-6 -170q44 32 97 50t106 18q70 0 122 -42q52 -46 52 -115q0 -104 -98 -181q-48 -37 -106.5 -57.5t-118.5 -20.5q-48 0 -107 6zM730 565q-18 28 -57 67
q-28 25 -81 58l44 28q44 -18 83 -57q11 -11 24 -29t24 -34zM834 649q-17 28 -57 68q-35 31 -81 58l40 27q51 -22 84 -57q18 -18 48 -64z" />
    <glyph glyph-name="uni3063" unicode="&#x3063;" horiz-adv-x="920" 
d="M393 47l-29 56l63 -1q109 0 176 42q38 22 59 58.5t21 85.5q0 64 -45 109q-53 40 -112 40q-27 0 -67 -8q-105 -31 -206 -106l-25 -16q-43 -28 -49 -31l-39 54l23 14l12 8l12 7l18 12l101 62l20 10q41 22 62 30q61 26 128 26q49 0 92 -14.5t75 -41.5q72 -61 72 -162
q0 -55 -22.5 -97.5t-69.5 -78.5q-36 -29 -87.5 -44.5t-107.5 -15.5q-47 0 -75 2z" />
    <glyph glyph-name="uni3064" unicode="&#x3064;" horiz-adv-x="920" 
d="M386 28l-32 60l69 -1q133 -2 217 50q100 64 100 180q0 39 -15.5 74t-42.5 58q-28 25 -64 38.5t-75 13.5q-40 0 -81 -9q-119 -32 -254 -128q-4 -1 -8 -5l-6 -4q-35 -26 -70 -46l-42 57l152 95l44 27q56 31 100 50q71 31 153 31q119 0 201 -69q84 -70 84 -192
q0 -130 -108 -208q-47 -36 -108.5 -55.5t-126.5 -19.5q-61 0 -87 3z" />
    <glyph glyph-name="uni3065" unicode="&#x3065;" horiz-adv-x="920" 
d="M370 28l-32 60l69 -1q133 -2 217 50q100 64 100 180q0 39 -15.5 74t-42.5 58q-28 25 -64 38.5t-75 13.5q-40 0 -81 -9q-119 -32 -254 -128q-4 -1 -8 -5l-6 -4q-35 -26 -70 -46l-42 57l152 95l44 27q56 31 100 50q71 31 153 31q119 0 201 -69q84 -70 84 -192
q0 -130 -108 -208q-47 -36 -108.5 -55.5t-126.5 -19.5q-61 0 -87 3zM740 578q-15 25 -56 65q-28 26 -78 57l40 26q41 -17 82 -56q21 -22 46 -61zM844 662q-16 27 -56 66q-31 32 -78 57l36 25q50 -22 83 -56q20 -22 46 -63z" />
    <glyph glyph-name="uni3066" unicode="&#x3066;" horiz-adv-x="920" 
d="M697 -26q-176 -2 -253 61q-54 43 -79.5 94.5t-25.5 125.5q0 97 42.5 172.5t131.5 146.5l-265 -37l-32 -4q-56 -9 -76 -14l-10 65l655 90l8 -65l-91 -14q-110 -34 -190 -109q-46 -43 -71.5 -98t-25.5 -116q0 -73 22 -117.5t69 -75.5q37 -25 89.5 -36t129.5 -12z" />
    <glyph glyph-name="uni3067" unicode="&#x3067;" horiz-adv-x="920" 
d="M697 -26q-176 -2 -253 61q-54 43 -79.5 94.5t-25.5 125.5q0 97 42.5 172.5t131.5 146.5l-265 -37l-8 -1q-3 0 -4 -1h-4q-57 -8 -92 -15l-10 64l655 90l8 -65l-91 -14q-110 -34 -190 -109q-46 -43 -71.5 -98t-25.5 -116q0 -73 22 -117.5t69 -75.5q37 -25 89.5 -36
t129.5 -12zM730 243q-18 28 -57 67q-28 25 -81 58l44 28q44 -18 83 -57q11 -11 24 -29t24 -34zM834 327q-17 28 -57 68q-35 31 -81 58l40 27q51 -22 84 -57q18 -18 48 -64z" />
    <glyph glyph-name="uni3068" unicode="&#x3068;" horiz-adv-x="920" 
d="M355 -36q-84 20 -130 60q-30 25 -43.5 52.5t-13.5 63.5q0 37 10 62.5t34 51.5q27 24 57 43q53 29 105 48q-11 25 -14.5 58t-3.5 84v198h74v-195q0 -71 16 -116l237 100l29 -66l-382 -157q-38 -15 -59 -45t-21 -69q0 -35 25.5 -58.5t73.5 -40.5q29 -10 69.5 -16.5
t72.5 -7.5q114 -3 237 31l19 -68q-118 -31 -254 -31q-70 0 -138 18z" />
    <glyph glyph-name="uni3069" unicode="&#x3069;" horiz-adv-x="920" 
d="M312 -36q-84 20 -130 60q-30 25 -43.5 52.5t-13.5 63.5q0 37 10 62.5t34 51.5q27 24 57 43q53 29 105 48q-11 25 -14.5 58t-3.5 84v198h74v-195q0 -71 16 -116l237 100l29 -66l-382 -157q-38 -15 -59 -45t-21 -69q0 -35 25.5 -58.5t73.5 -40.5q29 -10 69.5 -16.5
t72.5 -7.5q114 -3 237 31l19 -68q-118 -31 -254 -31q-70 0 -138 18zM736 546q-10 12 -51 51l-11 9q-34 28 -86 52l41 32q47 -17 86 -48q29 -25 54 -60zM832 638q-19 24 -61 62q-35 28 -88 52l39 31q54 -19 88 -48q27 -24 52 -61z" />
    <glyph glyph-name="uni306A" unicode="&#x306a;" horiz-adv-x="920" 
d="M115 -7l160 462h-157l-20 63h195l63 190l68 -19l-50 -160q20 -1 51.5 3.5t66.5 11.5l-18 -70q-53 -14 -124 -18l-161 -495zM524 11.5q25 9.5 40 25.5q14 17 21 43t7 51q-11 9 -35.5 14.5t-47.5 5.5q-31 0 -68 -19q-16 -12 -26 -29.5t-10 -38.5q0 -26 21 -44t46 -18
q27 0 52 9.5zM388 -38q-29 19 -43 44.5t-14 60.5q0 67 54 110q47 38 125 38q32 0 50 -2t27 -8v117h65v-140q110 -57 173 -164l-42 -47q-20 39 -57.5 74t-77.5 56q0 -36 -12 -64.5t-36 -52.5q-49 -46 -117 -46q-54 0 -95 24zM751 338q-39 36 -84 59t-104 37l49 53
q45 -6 93.5 -32t85.5 -63z" />
    <glyph glyph-name="uni306B" unicode="&#x306b;" horiz-adv-x="920" 
d="M188 -42q-37 186 -37 355q0 256 25 388l71 -6q-11 -82 -18 -172.5t-7 -163.5q0 -87 6 -172t22 -228zM531 37q-70 0 -105 27q-25 16 -35 34t-19 61l59 17q7 -27 18 -41t31 -21q17 -8 31.5 -9t62.5 -1h230v-67h-273zM669 584q49 0 116 16v-67q-16 -6 -62 -11q-55 -6 -78 -6
h-239v68h263z" />
    <glyph glyph-name="uni306C" unicode="&#x306c;" horiz-adv-x="920" 
d="M757 -32q-22 61 -55 100q-13 -44 -47.5 -70.5t-76.5 -26.5q-35 0 -52.5 7.5t-41.5 31.5q-30 33 -30 79q0 14 5 34q14 41 42 71.5t64 30.5q37 0 63 -10.5t56 -37.5q19 24 17 105q-7 63 -48.5 111t-104.5 64q-50 -139 -102 -248q-45 -79 -83 -124q-27 -34 -61 -53t-70 -19
q-42 0 -76.5 22.5t-54 63.5t-19.5 94q0 66 36 130t103 118q-27 95 -27 208v22q1 5 1 21l69 -15q-1 -8 -1 -42q0 -53 5.5 -94.5t16.5 -58.5q47 25 94.5 35.5t109.5 11.5q16 25 33 107l13 58l66 -20l-7 -30l-5 -22l-1 -4q-15 -68 -27 -95q99 -28 156 -100q48 -60 56 -136
q2 -34 -7 -80t-23 -74q37 -42 66 -109zM241 83q35 0 64 29.5t36 64.5q-56 90 -89 198q-92 -58 -106 -171q-1 -3 -1 -17q0 -38 20 -66t60 -36zM629.5 60.5q27.5 21.5 37.5 54.5q-21 23 -44.5 35.5t-45.5 12.5q-27 0 -42.5 -17.5t-15.5 -49.5q0 -27 14.5 -42t38.5 -15
q30 0 57.5 21.5zM421.5 311.5q16.5 40.5 43.5 126.5l8 28q-38 1 -92.5 -16t-85.5 -40q5 -27 16.5 -52t35.5 -64q23 -37 32 -59q26 36 42.5 76.5z" />
    <glyph glyph-name="uni306D" unicode="&#x306d;" horiz-adv-x="920" 
d="M230 248l-123 -233l-41 40l178 335v81l-156 -23l-14 61l170 28v171h70v-145l28 5l13 -24l-35 -64v-51h5q23 30 82.5 62t105.5 40q42 5 62 5q97 0 158 -57q46 -46 52 -137q1 -7 1 -31q0 -83 -33 -157q32 -25 56.5 -60t47.5 -83l-43 -47q-28 54 -52 87q-26 36 -41 37
q-20 -45 -54 -69.5t-76 -24.5q-30 0 -47.5 3t-36.5 14q-28 14 -42 37t-14 49q0 39 13.5 61t45.5 45q25 15 44.5 21.5t45.5 6.5q28 0 51 -6.5t55 -24.5q23 55 23 104q0 36 -14 73q-40 93 -150 93q-17 0 -45 -4q-60 -12 -119.5 -47t-86.5 -72v-402h-70v301zM643 71.5
q27 23.5 40 64.5q-8 17 -29 26.5t-41 9.5q-32 0 -55 -14q-14 -7 -23.5 -22t-9.5 -33q0 -25 16 -40t42 -15q33 0 60 23.5z" />
    <glyph glyph-name="uni306E" unicode="&#x306e;" horiz-adv-x="920" 
d="M484 48q81 19 128 49q111 68 111 200q0 71 -37 130t-104 105l-180 -384q-27 -59 -64 -89t-77 -30q-25 0 -49 13.5t-41 37.5q-27 35 -38.5 74.5t-11.5 96.5q0 32 1 42q9 139 103 230q49 46 113 72t130 26q60 0 119 -25t110 -70q101 -101 101 -231q0 -132 -98 -218
q-30 -29 -75 -49.5t-112 -36.5zM304 126.5q18 13.5 29 37.5l174 378q0 16 -43 16q-51 0 -98.5 -20t-81.5 -56q-35 -33 -58 -80t-31 -103q-3 -22 -3 -46q0 -66 24 -107q20 -33 51 -33q19 0 37 13.5z" />
    <glyph glyph-name="uni306F" unicode="&#x306f;" horiz-adv-x="920" 
d="M422.5 -41q-32.5 12 -58.5 35q-27 24 -39 47t-12 53q0 75 62 119q50 38 117 38q34 0 54.5 -3t37.5 -12v227l-270 -15v63l270 15v142h66v-137l143 9v-65l-142 -8v-262q97 -85 148 -197l-44 -43q-34 64 -61.5 106t-53.5 65q2 -91 -37.5 -140t-113.5 -49q-34 0 -66.5 12z
M163 -42q-37 186 -37 355q0 256 25 388l71 -6q-11 -82 -18 -172.5t-7 -163.5q0 -87 6 -172t22 -228zM530.5 21.5q20.5 12.5 30.5 31.5q24 41 20 100q-36 37 -97 37q-42 0 -72 -27t-30 -64q0 -38 28.5 -64t75.5 -26q24 0 44.5 12.5z" />
    <glyph glyph-name="uni3070" unicode="&#x3070;" horiz-adv-x="920" 
d="M364.5 -41q-32.5 12 -58.5 35q-27 24 -39 47t-12 53q0 75 62 119q50 38 117 38q32 0 54 -3t38 -12v227l-270 -15v63l270 15v142h66v-137l143 9v-65l-142 -8v-262q97 -85 148 -197l-44 -43q-34 64 -61.5 106t-53.5 65q2 -91 -37.5 -140t-113.5 -49q-34 0 -66.5 12z
M104 -42q-37 186 -37 355q0 256 25 388l71 -6q-11 -82 -18 -172.5t-7 -163.5q0 -87 6 -172t22 -228zM472.5 21.5q20.5 12.5 30.5 31.5q24 41 20 100q-36 37 -97 37q-42 0 -72 -27t-30 -64q0 -38 28.5 -64t75.5 -26q24 0 44.5 12.5zM732 627q-14 24 -48 71q-37 38 -75 63
l42 22q45 -26 74 -64q20 -22 43 -63zM844 702q-14 25 -49 72q-32 32 -75 64l38 20q49 -27 76 -64q17 -18 41 -65z" />
    <glyph glyph-name="uni3071" unicode="&#x3071;" horiz-adv-x="920" 
d="M364.5 -41q-32.5 12 -58.5 35q-27 24 -39 47t-12 53q0 75 62 119q50 38 117 38q34 0 54.5 -3t37.5 -12v227l-270 -15v63l270 15v142h66v-137l143 9v-65l-142 -8v-262q97 -85 148 -197l-44 -43q-34 64 -61.5 106t-53.5 65q2 -91 -37.5 -140t-113.5 -49q-34 0 -66.5 12z
M104 -42q-37 186 -37 355q0 256 25 388l71 -6q-11 -82 -18 -172.5t-7 -163.5q0 -87 6 -172t22 -228zM472.5 21.5q20.5 12.5 30.5 31.5q24 41 20 100q-37 39 -103 37q-40 -1 -68 -28t-28 -63q0 -38 28.5 -64t75.5 -26q24 0 44.5 12.5zM735.5 645.5q-17.5 7.5 -33.5 23.5
q-16 15 -23.5 31.5t-7.5 37.5t7.5 37t23.5 31q34 31 74 31t75 -31q30 -31 30 -68q0 -40 -30 -69q-18 -16 -35 -23.5t-40 -7.5t-40.5 7.5zM818.5 697q16.5 16 16.5 41q0 23 -17 39.5t-42 16.5q-24 0 -41.5 -16.5t-17.5 -39.5q0 -25 16.5 -41t42.5 -16t42.5 16z" />
    <glyph glyph-name="uni3072" unicode="&#x3072;" horiz-adv-x="920" 
d="M230 25q-66 77 -66 184q0 78 25 151t75 136l-4 3q-30 -9 -73.5 -16t-85.5 -8v55q69 2 139 27.5t133 70.5l37 -58q-83 -79 -123 -154q-51 -91 -51 -208q0 -37 8.5 -71.5t23.5 -60.5q16 -29 46 -46.5t65 -17.5q58 0 103.5 29t73.5 81q24 41 37 97.5t13 111.5q0 78 -24 163
t-67 168l48 32q66 -82 132 -150t144 -134l-47 -54l-135 139l-12 -7q14 -31 22.5 -73t8.5 -82q0 -65 -17 -131t-49 -119q-40 -66 -90.5 -99.5t-118.5 -33.5q-99 0 -171 75z" />
    <glyph glyph-name="uni3073" unicode="&#x3073;" horiz-adv-x="920" 
d="M230 25q-66 77 -66 184q0 78 25 151t75 136l-4 3q-30 -9 -73.5 -16t-85.5 -8v55q69 2 139 27.5t133 70.5l37 -58q-83 -79 -123 -154q-51 -91 -51 -208q0 -37 8.5 -71.5t23.5 -60.5q16 -29 46 -46.5t65 -17.5q58 0 103.5 29t73.5 81q24 41 37 97.5t13 111.5q0 78 -24 163
t-67 168l48 32q66 -82 132 -150t144 -134l-47 -54l-135 139l-12 -7q14 -31 22.5 -73t8.5 -82q0 -65 -17 -131t-49 -119q-40 -66 -90.5 -99.5t-118.5 -33.5q-99 0 -171 75zM742 640q-14 24 -48 71q-37 38 -75 63l42 22q45 -26 74 -64q20 -22 43 -63zM854 715q-14 25 -49 72
q-32 32 -75 64l38 20q49 -27 76 -64q17 -18 41 -65z" />
    <glyph glyph-name="uni3074" unicode="&#x3074;" horiz-adv-x="920" 
d="M230 25q-66 77 -66 184q0 78 25 151t75 136l-4 3q-30 -9 -73.5 -16t-85.5 -8v55q69 2 139 27.5t133 70.5l37 -58q-83 -79 -123 -154q-51 -91 -51 -208q0 -37 8.5 -71.5t23.5 -60.5q16 -29 46 -46.5t65 -17.5q58 0 103.5 29t73.5 81q24 41 37 97.5t13 111.5q0 78 -24 163
t-67 168l48 32q66 -82 132 -150t144 -134l-47 -54l-135 139l-12 -7q14 -31 22.5 -73t8.5 -82q0 -65 -17 -131t-49 -119q-40 -66 -90.5 -99.5t-118.5 -33.5q-99 0 -171 75zM727 659q-17 7 -34 23q-15 15 -22.5 31.5t-7.5 36.5q0 37 30 67q35 30 73 30t74 -30q29 -32 29 -67
q0 -39 -29 -68q-17 -16 -34.5 -23t-39.5 -7t-39 7zM809.5 708q17.5 17 17.5 42q0 24 -17.5 41t-43.5 17q-25 0 -43 -17.5t-18 -40.5q0 -25 17.5 -42t43.5 -17t43.5 17z" />
    </font>
</defs>
</svg>
