<?xml version="1.0" standalone="no"?>
<!DOCTYPE svg PUBLIC "-//W3C//DTD SVG 1.1//EN" "http://www.w3.org/Graphics/SVG/1.1/DTD/svg11.dtd" >
<svg xmlns="http://www.w3.org/2000/svg" xmlns:xlink="http://www.w3.org/1999/xlink" version="1.1">
<metadata>
Created by FontForge 20170731 at Fri Feb 24 13:51:57 2023
 By Aleksey,,,
Copyright (c) 2022 by KBO. All rights reserved.
</metadata>
<defs>
<font id="KBODiaGothicBold" horiz-adv-x="1000" >
  <font-face 
    font-family="KBO Dia Gothic Bold"
    font-weight="700"
    font-stretch="normal"
    units-per-em="1000"
    panose-1="0 0 0 0 0 0 0 0 0 0"
    ascent="800"
    descent="-200"
    x-height="502"
    cap-height="710"
    bbox="0 -280 1001 917"
    underline-thickness="50"
    underline-position="-250"
    unicode-range="U+0020-FFE6"
  />
<missing-glyph horiz-adv-x="235" 
 />
    <glyph glyph-name=".notdef" horiz-adv-x="235" 
 />
    <glyph glyph-name=".null" horiz-adv-x="0" 
 />
    <glyph glyph-name="nonmarkingreturn" horiz-adv-x="333" 
 />
    <glyph glyph-name="space" unicode=" " horiz-adv-x="235" 
 />
    <glyph glyph-name="space" unicode="&#xa0;" horiz-adv-x="235" 
 />
    <glyph glyph-name="exclam" unicode="!" horiz-adv-x="347" 
d="M69 709h209l-10 -525h-189zM104 -64.5q-29 28.5 -29 69.5t29 69t71 28q41 0 69 -28t28 -69t-28 -69.5t-69 -28.5q-42 0 -71 28.5z" />
    <glyph glyph-name="quotedbl" unicode="&#x22;" horiz-adv-x="520" 
d="M285 771h160l-20 -280h-120zM235 771l-20 -280h-120l-20 280h160z" />
    <glyph glyph-name="numbersign" unicode="#" horiz-adv-x="780" 
d="M129 111h-98v133h125l37 181h-122v133h149l31 152h139l-30 -152h140l31 152h139l-30 -152h104v-133h-131l-36 -181h127v-133h-154l-30 -152h-142l31 152h-139l-30 -152h-142zM436 244l37 181h-140l-36 -181h139z" />
    <glyph glyph-name="dollar" unicode="$" horiz-adv-x="751" 
d="M308 -55q-91 11 -158 48t-102 94.5t-33 129.5h194q-2 -46 23.5 -78.5t75.5 -46.5v174q-85 26 -144 53q-57 25 -85.5 62t-28.5 90q0 83 70 139t188 69v83h151v-85q117 -19 185 -84.5t66 -158.5h-189q2 29 -14 51t-48 34v-155l3 -1q141 -36 202.5 -86.5t61.5 -134.5
q0 -78 -71 -131t-196 -66v-98h-151v98zM459 86q88 10 88 64q0 23 -21 40t-67 33v-137zM308 525q-36 -8 -55 -25t-19 -41q0 -15 16 -27t58 -26v119z" />
    <glyph glyph-name="percent" unicode="%" horiz-adv-x="954" 
d="M637 724h152l-464 -788h-157zM128 396.5q-43 23.5 -66.5 64t-23.5 90.5t23.5 90.5t66.5 64t99 23.5t99 -23.5t66.5 -64t23.5 -90.5t-23.5 -90.5t-66.5 -64t-99 -23.5t-99 23.5zM271 502.5q17 19.5 17 48.5t-17 48.5t-44 19.5t-44 -19.5t-17 -48.5t17 -48.5t44 -19.5
t44 19.5zM628 -47.5q-43 23.5 -66.5 64t-23.5 90.5t23.5 90.5t66.5 64t99 23.5t99 -23.5t66.5 -64t23.5 -90.5t-23.5 -90.5t-66.5 -64t-99 -23.5t-99 23.5zM771 58.5q17 19.5 17 48.5t-17 48.5t-44 19.5t-44 -19.5t-17 -48.5t17 -48.5t44 -19.5t44 19.5z" />
    <glyph glyph-name="ampersand" unicode="&#x26;" horiz-adv-x="833" 
d="M205 -34q-65 24 -102.5 71t-37.5 112q0 63 37 112t119 97q-43 35 -68 83t-25 92q0 53 28 95.5t80.5 67t122.5 24.5q66 0 119 -22.5t83 -63t30 -90.5q0 -133 -131 -213l102 -115q32 71 36 99l142 -42q-10 -39 -32 -82.5t-49 -77.5l144 -158h-174l-61 67
q-39 -36 -101.5 -57t-133.5 -21q-69 0 -128 22zM406 89q30 9 55 27l-131 139q-48 -24 -68.5 -46t-20.5 -50q0 -35 26.5 -57t68.5 -22q40 0 70 9zM409 486.5q19 26.5 19 55.5t-19 45.5t-50 16.5q-36 0 -55 -17t-19 -50q0 -23 17.5 -52.5t46.5 -56.5q41 32 60 58.5z" />
    <glyph glyph-name="quotesingle" unicode="'" horiz-adv-x="330" 
d="M75 771h180l-20 -280h-140z" />
    <glyph glyph-name="parenleft" unicode="(" horiz-adv-x="306" 
d="M189 -189q-69 94 -109 227.5t-40 271.5t40 271.5t109 227.5l92 -54q-45 -98 -71 -217t-26 -228t26 -228t71 -217z" />
    <glyph glyph-name="parenright" unicode=")" horiz-adv-x="306" 
d="M25 -135q45 98 71 217t26 228t-26 228t-71 217l92 54q69 -94 109 -227.5t40 -271.5t-40 -271.5t-109 -227.5z" />
    <glyph glyph-name="asterisk" unicode="*" horiz-adv-x="503" 
d="M200 448l-108 -75l-62 108l119 56l-119 56l62 108l108 -75l-11 131h125l-11 -131l108 75l62 -108l-119 -56l119 -56l-62 -108l-108 75l11 -131h-125z" />
    <glyph glyph-name="plus" unicode="+" horiz-adv-x="594" 
d="M221 253h-171v145h171v165h153v-165h170v-145h-170v-160h-153v160z" />
    <glyph glyph-name="comma" unicode="," horiz-adv-x="335" 
d="M66 -138q30 19 51.5 40.5t29.5 41.5q-36 10 -57 35t-21 61q0 41 29 69t71 28q41 0 69 -28t28 -71q0 -134 -176 -214z" />
    <glyph glyph-name="hyphen" unicode="-" horiz-adv-x="460" 
d="M63 394h334v-110h-334v110z" />
    <glyph glyph-name="period" unicode="." horiz-adv-x="335" 
d="M98 -29.5q-29 28.5 -29 69.5t29 69t71 28q41 0 69 -28t28 -69t-28 -69.5t-69 -28.5q-42 0 -71 28.5z" />
    <glyph glyph-name="slash" unicode="/" horiz-adv-x="401" 
d="M10 -175l212 977l169 -1l-212 -977z" />
    <glyph glyph-name="zero" unicode="0" horiz-adv-x="710" 
d="M195 -44.5q-69 46.5 -106.5 136.5t-37.5 217q0 133 37.5 227.5t106.5 143.5t162 49q94 0 162 -50q69 -50 105 -144.5t36 -225.5q0 -126 -36 -216q-37 -90 -105 -137t-162 -47q-93 0 -162 46.5zM436 133q28 66 28 192q0 120 -28 183q-28 66 -80 66t-80 -67
q-29 -70 -29 -188q0 -117 29 -187q29 -68 81 -68q51 0 79 69z" />
    <glyph glyph-name="one" unicode="1" horiz-adv-x="710" 
d="M289 553h-109v102q25 2 56 17.5t53 36.5h202v-780h-202v624z" />
    <glyph glyph-name="two" unicode="2" horiz-adv-x="710" 
d="M78 70q172 159 266 261q46 49 66 86t20 75q0 34 -21 58t-53 24q-41 0 -66 -36.5t-25 -93.5h-196q0 85 37 149.5t102.5 100t147.5 35.5q79 0 140.5 -32t95.5 -86t34 -120q0 -64 -30.5 -125t-95.5 -127q-88 -91 -193 -180q59 25 117 25h217v-155h-563v141z" />
    <glyph glyph-name="three" unicode="3" horiz-adv-x="710" 
d="M196 -57.5q-72 33.5 -111.5 93.5t-40.5 137h196q2 -49 35 -80t84 -31q48 0 79.5 27t31.5 69q0 51 -40.5 79t-122.5 28h-100l-23 134h74q83 0 127.5 26t44.5 73q0 34 -21 55t-54 21q-36 0 -59.5 -25.5t-23.5 -65.5h-197q0 70 36 125.5t101.5 87t149.5 31.5
q72 0 132.5 -27.5t96 -75.5t35.5 -106q0 -52 -33 -95t-92 -69v-9q73 -15 119 -69.5t46 -125.5q0 -67 -38 -122t-107 -87t-158 -32q-95 0 -167 33.5z" />
    <glyph glyph-name="four" unicode="4" horiz-adv-x="710" 
d="M400 86h-360v138l232 485h321v-475h89v-148h-89v-157h-193v157zM400 234v168q0 115 6 194q-16 -53 -68 -172l-82 -190h144z" />
    <glyph glyph-name="five" unicode="5" horiz-adv-x="710" 
d="M208 -56q-71 36 -110.5 99.5t-39.5 142.5h196q0 -54 31 -88.5t77 -34.5q42 0 68.5 33.5t26.5 87.5q0 51 -25 83t-64 32q-44 0 -87 -34h-205l54 444h481v-150h-301l-18 -149q21 13 48 20t54 7q74 0 133 -32.5t92.5 -91t33.5 -134.5q0 -79 -37 -140.5t-102 -96t-146 -34.5
q-89 0 -160 36z" />
    <glyph glyph-name="six" unicode="6" horiz-adv-x="710" 
d="M205 -47q-73 45 -111.5 130t-38.5 205q0 214 78.5 327.5t225.5 113.5q83 0 144 -39q58 -37 93.5 -94t41.5 -118h-193q-7 43 -29.5 69.5t-55.5 26.5q-45 0 -73 -47t-34 -137q29 14 69.5 22.5t78.5 8.5q76 0 133.5 -31.5t89 -87.5t31.5 -125q0 -72 -36 -134
q-37 -63 -102 -98.5t-143 -35.5q-98 0 -169 44zM432.5 96.5q26.5 32.5 26.5 80.5q0 41 -24.5 68.5t-60.5 27.5q-18 0 -35.5 -6t-30.5 -17l-50 95h-7v-57q0 -224 117 -224q38 0 64.5 32.5z" />
    <glyph glyph-name="seven" unicode="7" horiz-adv-x="710" 
d="M407 561h-314l-29 148h547v-136l-205 -644h-202z" />
    <glyph glyph-name="eight" unicode="8" horiz-adv-x="710" 
d="M196 -62q-71 29 -111 80.5t-40 115.5q0 61 35.5 112t103.5 87q-52 31 -82.5 76.5t-30.5 96.5q0 64 37.5 114.5t103.5 79t148 28.5q80 0 143.5 -28t99.5 -77.5t36 -112.5q0 -53 -31.5 -96.5t-88.5 -73.5q75 -40 111 -88.5t36 -112.5q0 -65 -40 -117.5t-111 -82.5t-160 -30
q-88 0 -159 29zM439 89.5q31 25.5 31 64.5q0 36 -33 68t-82 43q-50 -9 -82 -41t-32 -69q0 -39 33 -65t84 -26q50 0 81 25.5zM421 446.5q22 27.5 22 52.5q0 33 -23 53.5t-62 20.5q-41 0 -66 -21t-25 -52q0 -27 24 -53t69 -48q39 20 61 47.5z" />
    <glyph glyph-name="nine" unicode="9" horiz-adv-x="710" 
d="M196 -52q-63 38 -99.5 99.5t-39.5 133.5h196q2 -51 30 -84t70 -33q48 0 75 46q27 45 32 156q-62 -35 -141 -35q-77 0 -137 31.5t-93.5 87.5t-33.5 128q0 73 36 129.5t100 88.5t145 32q152 0 235.5 -99t83.5 -284q0 -218 -76.5 -327t-226.5 -109q-90 0 -156 39zM462 302
q0 57 -1 67q-7 117 -39 161q-31 43 -80 43q-39 0 -65 -27.5t-26 -69.5q0 -43 26.5 -70t67.5 -27q39 0 65 14l42 -91h10z" />
    <glyph glyph-name="colon" unicode=":" horiz-adv-x="335" 
d="M98 510.5q-29 28.5 -29 69.5t29 69t71 28q41 0 69 -28t28 -69t-28 -69.5t-69 -28.5q-42 0 -71 28.5zM98 60.5q-29 28.5 -29 69.5t29 69t71 28q41 0 69 -28t28 -69t-28 -69.5t-69 -28.5q-42 0 -71 28.5z" />
    <glyph glyph-name="semicolon" unicode=";" horiz-adv-x="335" 
d="M66 -48q30 19 51.5 40.5t29.5 41.5q-36 10 -57 35t-21 61q0 41 29 69t71 28q41 0 69 -28t28 -71q0 -134 -176 -214zM98 510.5q-29 28.5 -29 69.5t29 69t71 28q41 0 69 -28t28 -69t-28 -69.5t-69 -28.5q-42 0 -71 28.5z" />
    <glyph glyph-name="less" unicode="&#x3c;" horiz-adv-x="694" 
d="M113 243v190l464 198l47 -117l-408 -176l408 -165l-47 -118z" />
    <glyph glyph-name="equal" unicode="=" horiz-adv-x="640" 
d="M58 522h524v-140h-524v140zM58 272h524v-140h-524v140z" />
    <glyph glyph-name="greater" unicode="&#x3e;" horiz-adv-x="694" 
d="M70 163l408 165l-408 176l47 117l464 -198v-190l-464 -188z" />
    <glyph glyph-name="question" unicode="?" horiz-adv-x="591" 
d="M233 217q0 47 14.5 84.5t47.5 77.5l26 30q30 34 41 54t11 44q0 28 -21 47.5t-53 19.5q-42 0 -66.5 -32.5t-24.5 -87.5h-176q0 133 70 204t197 71q121 0 191.5 -53t70.5 -146q0 -46 -18.5 -82t-64.5 -85q-15 -15 -26 -29q-23 -30 -33 -54.5t-14 -60.5q-2 -24 -2 -44h-170
v42zM252 -64.5q-29 28.5 -29 69.5t29 69t71 28q41 0 69 -28t28 -69t-28 -69.5t-69 -28.5q-42 0 -71 28.5z" />
    <glyph glyph-name="at" unicode="@" horiz-adv-x="960" 
d="M257 -94q-107 56 -164.5 158.5t-57.5 237.5q0 129 55 232q55 105 156.5 163t233.5 58q131 0 235 -56q101 -56 155.5 -152.5t54.5 -217.5q0 -135 -52 -203t-154 -68q-31 0 -65.5 12t-56.5 33q-26 -9 -63 -16.5t-63 -7.5q-62 0 -112.5 29.5t-79.5 82.5t-29 123
q0 69 26 121.5t73.5 81t110.5 28.5q62 0 107 -36l10 19h109v-319q2 -38 41 -38q31 0 46 39t15 119q0 95 -38 165t-107.5 108t-162.5 38t-162.5 -43t-107.5 -119.5t-38 -175.5q0 -104 41 -180t116.5 -116.5t176.5 -40.5q76 0 142.5 17.5t104.5 47.5l71 -101
q-56 -39 -138.5 -59t-179.5 -20q-142 0 -249 56zM562 182v208q-34 48 -86 48q-45 0 -73.5 -31.5t-28.5 -84.5q0 -58 30.5 -94.5t82.5 -36.5q15 0 31 2.5t22 5.5l24 -35z" />
    <glyph glyph-name="A" unicode="A" horiz-adv-x="826" 
d="M262 710h286l268 -781h-231l-45 153h-144l-33 169h127l-76 259l-173 -581h-231z" />
    <glyph glyph-name="B" unicode="B" horiz-adv-x="754" 
d="M56 710h318q161 0 245.5 -52.5t84.5 -150.5q0 -67 -39 -111t-113 -58v-4q90 -15 137 -64.5t47 -125.5q0 -103 -71 -159t-200 -56h-78l-119 153v-153h-212v781zM387 99q71 0 104 19t33 58q0 38 -36 60.5t-101 22.5h-119v-160h119zM371 398q121 0 121 73q0 34 -31.5 52
t-95.5 18h-97v-143h103z" />
    <glyph glyph-name="C" unicode="C" horiz-adv-x="815" 
d="M226 -39q-87 51 -133.5 143.5t-46.5 214.5q0 119 47 215q47 93 133 144t197 51q103 0 182 -43q77 -42 124.5 -111.5t55.5 -152.5h-220q-15 57 -51.5 88t-90.5 31q-48 0 -85.5 -28t-58.5 -78t-21 -116q0 -69 21 -119t58.5 -76.5t85.5 -26.5q58 0 94 30.5t48 89.5h220
q-8 -95 -53.5 -164t-124.5 -106t-184 -37q-111 0 -197 51z" />
    <glyph glyph-name="D" unicode="D" horiz-adv-x="792" 
d="M56 710h268q214 0 318 -96t104 -291q0 -130 -44 -221q-45 -88 -123.5 -131.5t-185.5 -41.5l-123 158h-2v-158h-212v781zM339 112q94 0 144.5 53.5t50.5 154.5q0 100 -48.5 153.5t-138.5 53.5h-79v-415h71z" />
    <glyph glyph-name="E" unicode="E" horiz-adv-x="669" 
d="M56 710h564v-170h-350v-133h330v-169h-271l-51 120h-8v-257h357v-172h-571v781z" />
    <glyph glyph-name="F" unicode="F" horiz-adv-x="652" 
d="M56 710h569v-171h-355v-134h330v-171h-270l-52 122h-8v-427h-214v781z" />
    <glyph glyph-name="G" unicode="G" horiz-adv-x="819" 
d="M221 -39q-89 51 -137.5 144t-48.5 213q0 124 49 216q48 93 136 144t204 51q93 0 168 -34.5t122.5 -96.5t59.5 -143h-214q-16 42 -51 66t-81 24q-85 0 -133 -59.5t-48 -164.5q0 -106 48 -166.5t132 -60.5q66 0 108 32.5t45 86.5h-124l-93 154h421v-100q0 -110 -43 -190.5
t-124 -123.5t-192 -43q-115 0 -204 51z" />
    <glyph glyph-name="H" unicode="H" horiz-adv-x="828" 
d="M56 710h212v-292h292v292h212v-781h-212v305h-232l-52 135h-8v-440h-212v781z" />
    <glyph glyph-name="I" unicode="I" horiz-adv-x="348" 
d="M71 710h209v-781h-212z" />
    <glyph glyph-name="J" unicode="J" horiz-adv-x="626" 
d="M84 -21.5q-79 68.5 -79 189.5h215q5 -91 76 -91q37 0 55.5 24.5t18.5 77.5v531h211v-531q0 -134 -73 -201.5t-210 -67.5q-135 0 -214 68.5z" />
    <glyph glyph-name="K" unicode="K" horiz-adv-x="765" 
d="M56 710h215v-324l236 324h240l-264 -350l272 -431h-246l-238 405v-405h-214z" />
    <glyph glyph-name="L" unicode="L" horiz-adv-x="623" 
d="M45 710h214v-597h342v-184h-556v781z" />
    <glyph glyph-name="M" unicode="M" horiz-adv-x="994" 
d="M56 710h253l130 -327q35 -87 57 -156h4q22 68 57 157l128 326h253v-781h-206v302q0 70 14 174h-4l-63 -173l-121 -296h-121l-120 296l-66 173h-4q16 -95 16 -174v-302h-207v781z" />
    <glyph glyph-name="N" unicode="N" horiz-adv-x="788" 
d="M56 710h173l215 -303l87 -128h5q-16 127 -16 231v200h212v-781h-175l-212 307l-84 129h-5q12 -87 12 -210v-226h-212v781z" />
    <glyph glyph-name="O" unicode="O" horiz-adv-x="872" 
d="M232 -40q-89 50 -137.5 141.5t-48.5 210.5q0 125 49 219q49 95 137.5 146.5t203.5 51.5q116 0 204 -52q89 -53 137.5 -148.5t48.5 -218.5q0 -118 -48 -210q-49 -91 -137.5 -141t-204.5 -50q-115 0 -204 51zM526.5 120.5q40.5 27.5 64 79.5t23.5 122q0 68 -23.5 118.5
t-64 77.5t-91.5 27t-91 -27.5t-63 -79t-23 -119.5t23.5 -119.5t64 -79t90.5 -27.5t90.5 27.5z" />
    <glyph glyph-name="P" unicode="P" horiz-adv-x="722" 
d="M45 710h315q156 0 244 -71t88 -200q0 -86 -40 -147q-40 -63 -112 -97t-165 -34h-5l-111 140h-1v-372h-213v781zM332 326q64 0 101.5 30t37.5 83q0 48 -37.5 75t-101.5 27h-74v-215h74z" />
    <glyph glyph-name="Q" unicode="Q" horiz-adv-x="857" 
d="M467 59h-3v-147l-28 -2q-115 0 -203 52q-89 51 -138 144t-49 213q0 123 49 214q49 93 138 144.5t203 51.5t202 -51q87 -52 135.5 -145.5t48.5 -213.5q0 -98 -28 -172t-86 -134l116 -140h-204zM318 238h204l52 -63q36 56 36 144q0 66 -22 117t-62 79.5t-90 28.5
t-90.5 -27.5t-64 -78.5t-23.5 -119t23.5 -119.5t64.5 -79t92 -27.5z" />
    <glyph glyph-name="R" unicode="R" horiz-adv-x="726" 
d="M56 710h337q89 0 154 -32t100.5 -92t35.5 -142q0 -158 -131 -223l164 -292h-227l-142 258l-56 101l-19 37h-4v-396h-212v781zM342 352q120 0 120 90q0 99 -120 99h-74v-189h74z" />
    <glyph glyph-name="S" unicode="S" horiz-adv-x="752" 
d="M193 -51q-85 39 -130 108t-43 158h229q-2 -53 35.5 -85t102.5 -32q52 0 81 14t29 40q0 27 -40 49q-42 22 -139 56q-86 30 -144 61q-119 65 -119 177q0 69 41 122q41 54 115 83t169 29q103 0 179 -36q77 -36 117.5 -98t38.5 -140h-229q2 39 -26.5 62.5t-80.5 23.5
q-41 0 -65.5 -13.5t-24.5 -34.5q0 -16 11 -27q14 -12 39 -22q29 -13 88 -33l40 -15q142 -52 203 -109t61 -137q0 -73 -41.5 -127t-119 -83.5t-183.5 -29.5q-110 0 -194 39z" />
    <glyph glyph-name="T" unicode="T" horiz-adv-x="710" 
d="M249 538h-229v172h670v-172h-229v-610h-212v610z" />
    <glyph glyph-name="U" unicode="U" horiz-adv-x="794" 
d="M145.5 -5.5q-89.5 84.5 -89.5 245.5v470h214v-463q0 -73 32 -112t95 -39q62 0 94.5 39.5t32.5 111.5v463h214v-470q0 -112 -44 -186q-44 -72 -119.5 -108t-177.5 -36q-162 0 -251.5 84.5z" />
    <glyph glyph-name="V" unicode="V" horiz-adv-x="814" 
d="M5 710h239l160 -551h6l161 551h238l-257 -781h-289z" />
    <glyph glyph-name="W" unicode="W" horiz-adv-x="977" 
d="M18 710h198l61 -382q14 -106 13 -149h4l21 133l87 398h173l87 -398l21 -133h4q-1 43 13 149l61 382h198l-131 -781h-226l-86 344q-7 28 -14.5 75t-10.5 82h-5q-3 -35 -10.5 -82t-14.5 -75l-86 -344h-226z" />
    <glyph glyph-name="X" unicode="X" horiz-adv-x="755" 
d="M240 320l-232 390h237l128 -228h7l129 228h236l-233 -390l243 -391h-243l-132 232h-7l-132 -232h-241z" />
    <glyph glyph-name="Y" unicode="Y" horiz-adv-x="783" 
d="M286 174l-286 536h236l152 -318h7l152 318h236l-286 -536v-245h-211v245z" />
    <glyph glyph-name="Z" unicode="Z" horiz-adv-x="658" 
d="M20 56l338 474h-333v180h605v-127l-352 -494q68 20 136 20h234v-180h-627z" />
    <glyph glyph-name="bracketleft" unicode="[" horiz-adv-x="347" 
d="M80 802h227v-110h-95v-753h95v-110h-227v973z" />
    <glyph glyph-name="backslash" unicode="\" horiz-adv-x="401" 
d="M10 801l169 1l212 -977l-169 -1z" />
    <glyph glyph-name="bracketright" unicode="]" horiz-adv-x="347" 
d="M41 -60h95v752h-95v110h227v-972h-227v110z" />
    <glyph glyph-name="asciicircum" unicode="^" horiz-adv-x="490" 
d="M185 757h120l165 -300h-151l-74 149l-75 -149h-150z" />
    <glyph glyph-name="underscore" unicode="_" horiz-adv-x="540" 
d="M58 -29h424v-110h-424v110z" />
    <glyph glyph-name="grave" unicode="`" horiz-adv-x="486" 
d="M120 721l141 76l113 -257l-106 -57z" />
    <glyph glyph-name="a" unicode="a" horiz-adv-x="682" 
d="M156 -58q-58 34 -90 103.5t-32 165.5q0 94 35 169q34 71 94.5 108.5t138.5 37.5q16 0 30.5 -4t22.5 -11l80 -159h7v150h192v-573h-173l-13 60q-59 -80 -175 -80q-63 0 -117 33zM402.5 101.5q32.5 30.5 39.5 72.5v126q-51 64 -108 64q-52 0 -82 -38t-30 -103
q0 -72 28 -112t79 -40q41 0 73.5 30.5z" />
    <glyph glyph-name="b" unicode="b" horiz-adv-x="676" 
d="M346 -87l-100 144h-8v-128h-192v810h192v-179l-6 -93q33 29 74 44t84 15q76 0 133 -35.5t88 -103.5t31 -164q0 -98 -35 -171q-35 -68 -93.5 -105t-128.5 -37q-19 0 -39 3zM423 108q31 40 31 112q0 70 -27 107t-76 37q-68 0 -113 -60v-190q20 -24 44.5 -35t57.5 -11
q52 0 83 40z" />
    <glyph glyph-name="c" unicode="c" horiz-adv-x="635" 
d="M171 -52.5q-66 38.5 -102.5 108.5t-36.5 162t36.5 162t103 108t152.5 38q79 0 140 -30t97.5 -84t43.5 -124h-184q-28 76 -97 76q-47 0 -76.5 -40.5t-29.5 -105.5q0 -66 29.5 -106.5t76.5 -40.5q78 0 97 79h184q-10 -115 -84 -178t-197 -63q-87 0 -153 38.5z" />
    <glyph glyph-name="d" unicode="d" horiz-adv-x="682" 
d="M156 -58q-58 34 -90 103.5t-32 165.5q0 94 35 169q34 71 94.5 108.5t138.5 37.5q16 0 30.5 -4t22.5 -11l80 -159h7v387h192v-810h-173l-12 61q-60 -81 -176 -81q-63 0 -117 33zM402.5 101.5q32.5 30.5 39.5 72.5v126q-51 64 -108 64q-52 0 -82 -38t-30 -103
q0 -72 28 -112t79 -40q41 0 73.5 30.5z" />
    <glyph glyph-name="e" unicode="e" horiz-adv-x="666" 
d="M175 -53.5q-68 37.5 -105.5 105.5t-37.5 159q0 93 38 164.5t106.5 111t157.5 39.5q83 0 149.5 -37.5t106.5 -106.5t44 -162v-46h-362l-48 83h-5q-3 -18 -3 -39q0 -72 32.5 -116t85.5 -44q34 0 56.5 13t37.5 41h199q-28 -93 -108 -148t-185 -55q-91 0 -159 37.5zM439 292
q-25 88 -105 88q-37 0 -65 -23.5t-42 -64.5h212z" />
    <glyph glyph-name="f" unicode="f" horiz-adv-x="483" 
d="M142 349h-118v152h118v55q0 66 18 105q19 40 76 59t157 19h41v-137q-41 -1 -64 -7q-21 -7 -28.5 -24.5t-7.5 -54.5v-15h125v-152h-125v-420h-192v420z" />
    <glyph glyph-name="g" unicode="g" horiz-adv-x="683" 
d="M151 -143h108q81 0 118 12q36 12 49.5 39.5t15.5 91.5q-60 -71 -169 -71q-60 0 -116 32q-58 34 -90.5 101t-32.5 159q0 89 35 162q34 69 94.5 106t138.5 37q16 0 30.5 -4t22.5 -11l80 -159h7v150h193l-1 -413q-1 -168 -26.5 -242.5t-96 -100.5t-229.5 -26h-131v137z
M402.5 121.5q32.5 30.5 39.5 72.5v106q-51 64 -108 64q-51 0 -81.5 -35.5t-30.5 -95.5q0 -66 28.5 -104t78.5 -38q41 0 73.5 30.5z" />
    <glyph glyph-name="h" unicode="h" horiz-adv-x="673" 
d="M46 739h192v-179l-7 -110q40 29 81 48t75 24q21 3 41 3q92 0 145.5 -62t53.5 -177v-357h-192v320q0 58 -16 85.5t-50 27.5q-6 0 -34 -5q-50 -14 -97 -52v-376h-192v810z" />
    <glyph glyph-name="i" unicode="i" horiz-adv-x="354" 
d="M81 502h192v-573h-192v573zM96 576.5q-32 29.5 -32 74.5t32 74.5t81 29.5t81 -29.5t32 -74.5t-32 -74.5t-81 -29.5t-81 29.5z" />
    <glyph glyph-name="j" unicode="j" horiz-adv-x="388" 
d="M15 -153q42 1 64 9t30.5 27t8.5 56v563h192v-543q0 -95 -26 -149q-26 -50 -76.5 -70t-146.5 -20h-46v127zM133 576.5q-32 29.5 -32 74.5t32 74.5t81 29.5t81 -29.5t32 -74.5t-32 -74.5t-81 -29.5t-81 29.5z" />
    <glyph glyph-name="k" unicode="k" horiz-adv-x="637" 
d="M46 740h193v-489l169 251h224l-194 -266l199 -307h-228l-170 296v-296h-193v811z" />
    <glyph glyph-name="l" unicode="l" horiz-adv-x="355" 
d="M136 -64q-34 17 -49 59.5t-15 123.5v620h192v-628q0 -33 15 -45.5t52 -10.5v-126q-37 -9 -65 -10q-5 -1 -32 -1q-63 0 -98 18z" />
    <glyph glyph-name="m" unicode="m" horiz-adv-x="935" 
d="M46 502h171l16 -45q86 68 160 68q49 0 86 -23t57 -68q43 43 91.5 67t93.5 24q168 0 168 -224v-372h-188v298q0 73 -12 104q-13 30 -42 30q-39 0 -86 -47v-385h-188v298q0 73 -12 104q-13 30 -42 30q-39 0 -85 -46v-386h-188v573z" />
    <glyph glyph-name="n" unicode="n" horiz-adv-x="673" 
d="M46 502h177l15 -47q37 27 76.5 45t72.5 22q21 3 41 3q92 0 145.5 -62t53.5 -177v-357h-192v320q0 58 -16 85.5t-50 27.5q-6 0 -34 -5q-50 -14 -97 -52v-376h-192v573z" />
    <glyph glyph-name="o" unicode="o" horiz-adv-x="666" 
d="M176.5 -53q-68.5 38 -106.5 106.5t-38 157.5q0 92 39 164q38 72 106.5 111.5t156.5 39.5q90 0 158 -40t105 -111t37 -161q0 -92 -38 -161t-106 -106.5t-156 -37.5q-89 0 -157.5 38zM415.5 113q32.5 42 32.5 108q0 63 -32.5 103t-83.5 40q-50 0 -82 -40.5t-32 -105.5
t32.5 -106t83.5 -41q49 0 81.5 42z" />
    <glyph glyph-name="p" unicode="p" horiz-adv-x="676" 
d="M46 502h177l10 -33q34 27 74.5 42t82.5 15q76 0 133 -35.5t88 -103.5t31 -164q0 -98 -35 -171q-35 -68 -93.5 -105t-128.5 -37q-19 0 -39 3l-100 144h-8v-337h-192v782zM423 108q31 40 31 112q0 70 -27 107t-76 37q-68 0 -113 -60v-190q20 -24 44.5 -35t57.5 -11
q52 0 83 40z" />
    <glyph glyph-name="q" unicode="q" horiz-adv-x="682" 
d="M442 -19q-60 -72 -169 -72q-63 0 -117 33q-58 34 -90 103.5t-32 165.5q0 94 35 169q34 71 94.5 108.5t138.5 37.5q16 0 30.5 -4t22.5 -11l80 -159h7v150h192v-782h-192v261zM402.5 101.5q32.5 30.5 39.5 72.5v126q-51 64 -108 64q-52 0 -82 -38t-30 -103q0 -72 28 -112
t79 -40q41 0 73.5 30.5z" />
    <glyph glyph-name="r" unicode="r" horiz-adv-x="496" 
d="M46 502h173l18 -55q49 79 125 79q26 0 60.5 -6t59.5 -14v-166q-28 10 -61.5 16.5t-60.5 6.5q-68 0 -122 -74v-360h-192v573z" />
    <glyph glyph-name="s" unicode="s" horiz-adv-x="600" 
d="M157.5 -62q-65.5 29 -101 80.5t-33.5 117.5h181q-3 -37 24 -59t80 -22q83 0 83 39q0 21 -32 38q-31 17 -114 39q-104 34 -150.5 75.5t-46.5 103.5q0 51 31 91t88.5 62.5t134.5 22.5q81 0 141 -26.5t91.5 -73t29.5 -104.5h-182q-4 58 -82 58q-31 0 -49 -8.5t-18 -23.5
q0 -18 29 -32q27 -13 107 -42q111 -36 159 -79t48 -107q0 -86 -70 -132.5t-198 -46.5q-85 0 -150.5 29z" />
    <glyph glyph-name="t" unicode="t" horiz-adv-x="472" 
d="M195 -64q-37 16 -52.5 58t-15.5 125v231h-103v152h103v137h192v-137h120v-152h-120v-227q0 -38 28.5 -52t98.5 -12v-127q-60 -12 -143 -12q-73 0 -108 16z" />
    <glyph glyph-name="u" unicode="u" horiz-adv-x="673" 
d="M101 -19q-55 71 -55 214v307h192v-291q0 -75 19.5 -105t65.5 -30q56 0 112 44v382h192v-573h-177l-9 45q-42 -31 -88 -47.5t-91 -16.5q-106 0 -161 71z" />
    <glyph glyph-name="v" unicode="v" horiz-adv-x="636" 
d="M10 502h195l111 -408h4l111 408h195l-173 -573h-270z" />
    <glyph glyph-name="w" unicode="w" horiz-adv-x="810" 
d="M8 502h177l45 -312q5 -29 14 -110h2l11 98l47 324h202l47 -324l11 -98h3q2 35 13 110l45 312h177l-96 -573h-235l-47 272l-17 116h-4l-17 -116l-47 -272h-235z" />
    <glyph glyph-name="x" unicode="x" horiz-adv-x="610" 
d="M188 216l-182 286h208l89 -150h3l89 150h208l-183 -286l190 -287h-213l-91 153h-4l-91 -153h-211z" />
    <glyph glyph-name="y" unicode="y" horiz-adv-x="678" 
d="M74 -143h58q82 0 122 15t63 57h-106l-201 573h206l125 -394l13 -62h1l14 62l97 394h202l-116 -423q-43 -154 -94 -230q-49 -73 -110.5 -101t-162.5 -28h-111v137z" />
    <glyph glyph-name="z" unicode="z" horiz-adv-x="529" 
d="M24 22l224 328h-220v152h464v-93l-190 -282l-52 -61q42 15 95 15h160v-152h-480z" />
    <glyph glyph-name="braceleft" unicode="{" horiz-adv-x="361" 
d="M321 -130q-116 0 -171.5 65t-55.5 204q0 71 -16.5 102.5t-57.5 31.5v106q41 0 57.5 31.5t16.5 102.5q0 139 55.5 204t171.5 65v-106q-35 0 -54 -13q-21 -15 -30.5 -51.5t-9.5 -97.5q0 -71 -10.5 -115t-36.5 -73q26 -29 36.5 -73t10.5 -115q0 -69 10 -100
q9 -33 28.5 -47.5t55.5 -14.5v-106z" />
    <glyph glyph-name="bar" unicode="|" horiz-adv-x="382" 
d="M120 800h142v-995h-142v995z" />
    <glyph glyph-name="braceright" unicode="}" horiz-adv-x="361" 
d="M40 -24q34 0 54 14q21 14 30.5 50.5t9.5 97.5q0 71 10.5 115t36.5 73q-26 29 -36.5 73t-10.5 115q0 69 -10 100q-9 33 -28.5 47.5t-55.5 14.5v106q111 0 169 -67.5t58 -201.5q0 -71 16.5 -102.5t57.5 -31.5v-106q-41 0 -57.5 -31.5t-16.5 -102.5q0 -134 -58 -201.5
t-169 -67.5v106z" />
    <glyph glyph-name="asciitilde" unicode="~" horiz-adv-x="847" 
d="M389 251q-36 28 -58 38.5t-45 10.5q-69 0 -90 -104l-161 60q19 97 79.5 150t150.5 53q50 0 96.5 -16t98.5 -49q41 -27 63.5 -38t42.5 -11q75 0 85 93l161 -60q-18 -93 -80 -142.5t-157 -49.5q-97 0 -186 65z" />
    <glyph glyph-name="exclamdown" unicode="&#xa1;" horiz-adv-x="347" 
d="M79 453h189l10 -525h-209zM104 563q-29 28 -29 69t29 69.5t71 28.5q41 0 69 -28.5t28 -69.5t-28 -69t-69 -28q-42 0 -71 28z" />
    <glyph glyph-name="cent" unicode="&#xa2;" horiz-adv-x="815" 
d="M343 -56q-90 14 -157 63.5t-103.5 127t-36.5 174.5t36.5 174.5t103.5 127t157 63.5v88h151v-86q82 -13 145.5 -53t101 -98t44.5 -123h-210q-21 72 -81 96v-380q65 23 81 98h210q-11 -114 -87.5 -186.5t-203.5 -88.5v-94h-151v97zM343 492q-45 -23 -70 -70.5t-25 -112.5
q0 -67 25 -115t70 -70v368z" />
    <glyph glyph-name="sterling" unicode="&#xa3;" horiz-adv-x="580" 
d="M46 76h3q82 66 88 184h-117v152h118v77q0 66 17 119q19 56 85.5 87.5t179.5 31.5q42 0 100 -5v-137q-40 6 -71 6q-61 0 -89 -22.5t-28 -69.5v-87h123v-152h-123q0 -68 -15 -109.5t-56 -74.5h297v-144h-512v144z" />
    <glyph glyph-name="currency" unicode="&#xa4;" horiz-adv-x="600" 
d="M28 118l73 72q-27 50 -27 103q0 52 27 101l-73 75l91 94l77 -77q55 26 104 26q59 0 105 -25l77 76l90 -94l-72 -74q26 -47 26 -102q0 -53 -27 -103l73 -72l-89 -94l-78 75q-49 -25 -105 -25t-105 25l-78 -75zM372 209q28 33 28 85t-28 84.5t-72 32.5t-72 -32.5t-28 -84.5
t28 -85t72 -33t72 33z" />
    <glyph glyph-name="yen" unicode="&#xa5;" horiz-adv-x="783" 
d="M306 41h-203v142h203v66h-203v142h121l-224 319h216l172 -288h7l172 288h216l-224 -319h129v-142h-211v-66h211v-142h-211v-112h-171v112z" />
    <glyph glyph-name="section" unicode="&#xa7;" horiz-adv-x="960" 
d="M337 -219.5q-64 16.5 -126 51.5l58 94q100 -61 208 -61q54 0 87 16t33 41t-30 48q-31 22 -89 48q-95 40 -130 61q-126 71 -126 178q0 59 23.5 100.5t83.5 85.5q-118 70 -118 155q0 80 69 120t203 40q76 0 140 -16.5t126 -51.5l-58 -94q-100 61 -208 61q-54 0 -87 -16
t-33 -41q0 -26 31 -48q30 -21 88 -48q80 -35 130 -62q60 -33 93 -78.5t33 -98.5q0 -59 -23.5 -100.5t-83.5 -85.5q118 -70 118 -155q0 -80 -69 -120t-203 -40q-76 0 -140 16.5zM542.5 198q15.5 28 15.5 67q0 36 -20.5 61t-68.5 49q-36 -23 -51.5 -51t-15.5 -67
q0 -36 20.5 -61t68.5 -49q36 23 51.5 51z" />
    <glyph glyph-name="dieresis" unicode="&#xa8;" horiz-adv-x="653" 
d="M392 570.5q-29 28.5 -29 69.5t29 69t71 28q41 0 69 -28t28 -69t-28 -69.5t-69 -28.5q-42 0 -71 28.5zM122 570.5q-29 28.5 -29 69.5t29 69t71 28q41 0 69 -28t28 -69t-28 -69.5t-69 -28.5q-42 0 -71 28.5z" />
    <glyph glyph-name="ordfeminine" unicode="&#xaa;" horiz-adv-x="438" 
d="M78 470q-39 47 -39 127q0 83 42.5 132t111.5 49q22 0 31 -9l46 -91h4v86h111v-330h-100l-7 34q-34 -45 -101 -45q-60 0 -99 47zM251.5 533.5q18.5 17.5 22.5 41.5v73q-28 37 -62 37q-30 0 -47.5 -22t-17.5 -60q0 -41 16.5 -64t45.5 -23q24 0 42.5 17.5z" />
    <glyph glyph-name="guillemotleft" unicode="&#xab;" horiz-adv-x="616" 
d="M255 326l192 356h129l-172 -356l172 -357h-129zM217 682h129l-172 -356l172 -357h-129l-192 357z" />
    <glyph glyph-name="registered" unicode="&#xae;" horiz-adv-x="960" 
d="M265 -99q-106 60 -165.5 165.5t-59.5 234.5q0 130 60 235q60 106 165.5 165.5t234.5 59.5q130 0 235 -60q106 -60 165.5 -165.5t59.5 -234.5q0 -130 -60 -235q-60 -106 -165.5 -165.5t-234.5 -59.5q-130 0 -235 60zM679 -21q80 49 125 133.5t45 188.5t-45 189
q-46 85 -126 133t-178 48t-178 -48q-80 -49 -125.5 -134t-45.5 -188q0 -106 46 -188q45 -85 125 -133.5t178 -48.5q100 0 179 48zM334 527h197q78 0 124 -42t46 -114q0 -45 -19.5 -78.5t-57.5 -51.5l96 -171h-133l-83 151l-33 59l-10 21h-3v-231h-124v457zM502 317
q70 0 70 54q0 57 -70 57h-44v-111h44z" />
    <glyph glyph-name="degree" unicode="&#xb0;" horiz-adv-x="432" 
d="M139.5 506q-35.5 19 -56.5 52.5t-21 76.5q0 42 20.5 76t55.5 53.5t78 19.5t78 -19.5t55.5 -53.5t20.5 -76q0 -43 -21 -76.5t-56.5 -52.5t-76.5 -19t-76.5 19zM262 588.5q18 19.5 18 47.5t-18 47t-47 19q-27 0 -45.5 -19.5t-18.5 -46.5q0 -28 18.5 -47.5t45.5 -19.5
q29 0 47 19.5z" />
    <glyph glyph-name="plusminus" unicode="&#xb1;" horiz-adv-x="670" 
d="M266 355h-176v130h176v175h143v-175h175v-130h-175v-160h-143v160zM65 135h568v-116h-568v116z" />
    <glyph glyph-name="uni00B2" unicode="&#xb2;" horiz-adv-x="360" 
d="M54 488q87 81 121 120q38 38 38 72q0 14 -7.5 23t-20.5 9q-18 0 -27.5 -16t-8.5 -43h-99q-1 62 37 101t98 39q55 0 91 -32.5t36 -80.5q0 -62 -58 -120q-35 -34 -75 -67q7 4 37 4h104v-80h-266v71z" />
    <glyph glyph-name="uni00B3" unicode="&#xb3;" horiz-adv-x="355" 
d="M77 437q-43 37 -42 97h102q-1 -24 13 -38.5t37 -14.5q21 0 34 11.5t13 29.5q0 46 -72 46h-51l-12 66h41q36 0 55.5 12.5t19.5 33.5q0 13 -8 21.5t-21 8.5q-17 0 -26.5 -11.5t-7.5 -31.5h-103q-2 56 37 90t103 34q54 0 91 -29.5t37 -72.5q0 -44 -54 -79q29 -6 50.5 -33
t21.5 -59q0 -51 -42.5 -84.5t-103.5 -33.5q-69 0 -112 37z" />
    <glyph glyph-name="acute" unicode="&#xb4;" horiz-adv-x="486" 
d="M120 540l113 257l141 -76l-148 -238z" />
    <glyph glyph-name="paragraph" unicode="&#xb6;" horiz-adv-x="960" 
d="M519 293q-86 0 -160 24q-79 24 -122 75.5t-43 125.5q0 79 46 128q42 47 114 71.5t165 24.5h166q39 0 60.5 -17t21.5 -49v-806h-95v778h-58v-778h-95v423z" />
    <glyph glyph-name="periodcentered" unicode="&#xb7;" horiz-adv-x="335" 
d="M98 270.5q-29 28.5 -29 69.5t29 69t71 28q41 0 69 -28t28 -69t-28 -69.5t-69 -28.5q-42 0 -71 28.5z" />
    <glyph glyph-name="cedilla" unicode="&#xb8;" horiz-adv-x="440" 
d="M77 -189l7 45q11 -1 77 -1q28 0 40 10t12 32q0 42 -57 50q-18 3 -18 17l1 7l10 61q2 12 14.5 18.5t28.5 6.5q21 0 35 -8.5t14 -22.5l-7 -47q61 -4 95 -26.5t34 -60.5q0 -45 -46 -68.5t-135 -23.5q-66 0 -105 11z" />
    <glyph glyph-name="uni00B9" unicode="&#xb9;" horiz-adv-x="278" 
d="M112 691h-62v58q16 2 33 10.5t29 20.5h116v-376h-116v287z" />
    <glyph glyph-name="ordmasculine" unicode="&#xba;" horiz-adv-x="425" 
d="M82 466.5q-49 47.5 -49 126.5q0 82 49.5 132t130.5 50q80 0 129.5 -49.5t49.5 -130.5q0 -79 -49.5 -127.5t-129.5 -48.5q-82 0 -131 47.5zM264 536q20 23 21 61q0 38 -20 61.5t-54 23.5q-32 0 -51.5 -23.5t-19.5 -61.5t20 -61t53 -23q31 0 51 23z" />
    <glyph glyph-name="guillemotright" unicode="&#xbb;" horiz-adv-x="616" 
d="M442 326l-172 356h129l192 -356l-192 -357h-129zM212 326l-172 356h129l192 -356l-192 -357h-129z" />
    <glyph glyph-name="onequarter" unicode="&#xbc;" horiz-adv-x="732" 
d="M499 762h126l-431 -918h-126zM111 636h-60v55q13 1 30 9.5t30 20.5h110v-429h-110v344zM561 -12h-191v65l124 268h160v-263h58v-70h-58v-83h-93v83zM561 58v99q0 50 3 104q-7 -27 -35 -92l-44 -111h76z" />
    <glyph glyph-name="onehalf" unicode="&#xbd;" horiz-adv-x="777" 
d="M489 762h126l-431 -918h-126zM111 636h-60v55q13 1 30 9.5t30 20.5h110v-429h-110v344zM435 3q93 84 142 140q24 24 35 44.5t11 41.5q0 19 -10.5 31.5t-28.5 12.5q-23 0 -36 -19t-13 -51h-105q0 68 43.5 110.5t110.5 42.5q42 0 75 -17t52 -46t19 -64q0 -33 -16.5 -66
t-52.5 -70l-61 -55l-32 -28h169v-83h-302v76z" />
    <glyph glyph-name="threequarters" unicode="&#xbe;" horiz-adv-x="845" 
d="M599 762h126l-431 -918h-126zM89.5 330q-47.5 39 -48.5 102h104q2 -27 19 -43t44 -16q26 0 43 14.5t17 36.5q0 27 -22 42.5t-65 15.5h-53l-12 72h39q44 0 68 14t24 38q0 18 -11.5 30t-29.5 12q-19 0 -31.5 -14t-12.5 -36h-105q0 57 42.5 94t111.5 37q39 0 71 -15
t51 -40.5t19 -55.5q0 -57 -66 -89v-4q38 -7 62.5 -36.5t24.5 -66.5q0 -57 -46 -94t-115 -37q-75 0 -122.5 39zM674 -8h-191v65l124 268h160v-263h58v-70h-58v-83h-93v83zM674 62v99q0 50 3 104q-7 -27 -35 -92l-44 -111h76z" />
    <glyph glyph-name="questiondown" unicode="&#xbf;" horiz-adv-x="594" 
d="M110.5 -77q-70.5 53 -70.5 146q0 46 18.5 82t64.5 85q16 16 26 29q23 30 33 54.5t14 60.5q2 24 2 44h170v-42q0 -47 -14.5 -84.5t-47.5 -77.5l-26 -30q-30 -34 -41 -54t-11 -44q0 -28 21 -47.5t53 -19.5q42 0 66.5 32.5t24.5 87.5h176q0 -133 -70 -204t-197 -71
q-121 0 -191.5 53zM209 525q-28 28 -28 69t28 69.5t69 28.5q42 0 71 -28.5t29 -69.5t-29 -69t-71 -28q-41 0 -69 28z" />
    <glyph glyph-name="uni212B" unicode="&#xc5;" horiz-adv-x="824" 
d="M261 578q-15 30 -15 65q0 43 20.5 78t56.5 55t80 20t80 -20t56.5 -55t20.5 -78q0 -35 -15 -64h2l268 -650h-231l-40 113h-149l-33 169h122l-71 198l-173 -480h-231zM451 599.5q18 19.5 18 47.5t-18 47t-47 19q-27 0 -45.5 -19.5t-18.5 -46.5q0 -28 18.5 -47.5t45.5 -19.5
q29 0 47 19.5z" />
    <glyph glyph-name="uni212B" unicode="&#x212b;" horiz-adv-x="824" 
d="M261 578q-15 30 -15 65q0 43 20.5 78t56.5 55t80 20t80 -20t56.5 -55t20.5 -78q0 -35 -15 -64h2l268 -650h-231l-40 113h-149l-33 169h122l-71 198l-173 -480h-231zM451 599.5q18 19.5 18 47.5t-18 47t-47 19q-27 0 -45.5 -19.5t-18.5 -46.5q0 -28 18.5 -47.5t45.5 -19.5
q29 0 47 19.5z" />
    <glyph glyph-name="AE" unicode="&#xc6;" horiz-adv-x="908" 
d="M261 710h598v-170h-235v-133h215v-169h-156l-51 120h-8v-257h242v-172h-451v153h-40l-33 169h73v290l-1 -1l-174 -611h-231z" />
    <glyph glyph-name="Eth" unicode="&#xd0;" horiz-adv-x="800" 
d="M76 236h-53v169h53v305h268q214 0 318 -96t104 -291q0 -130 -44 -221q-45 -88 -123.5 -131.5t-185.5 -41.5l-123 158h-2v-158h-212v307zM359 112q94 0 144.5 53.5t50.5 154.5q0 100 -48.5 153.5t-138.5 53.5h-79v-122h110v-169h-110v-124h71z" />
    <glyph glyph-name="multiply" unicode="&#xd7;" horiz-adv-x="599" 
d="M214 326l-178 212h171l92 -110l91 110h170l-176 -212l176 -213h-170l-91 110l-92 -110h-170z" />
    <glyph glyph-name="Oslash" unicode="&#xd8;" horiz-adv-x="880" 
d="M250 -155l22 95q-106 44 -166 142.5t-60 230.5q0 124 49 218q49 95 137.5 146.5t203.5 51.5h16l10 43l149 -1l-16 -72q108 -45 169.5 -148t61.5 -241q0 -118 -48 -210q-49 -91 -137.5 -141t-204.5 -50h-22l-15 -65zM410 543q-69 -10 -110.5 -70.5t-41.5 -153.5
q0 -56 15.5 -101t44.5 -75zM456 94q71 8 114.5 71t43.5 159q0 56 -17 101t-48 75z" />
    <glyph glyph-name="Thorn" unicode="&#xde;" horiz-adv-x="800" 
d="M71 710h209v-117h98q156 0 244 -71t88 -200q0 -86 -40 -147q-40 -63 -112 -97t-165 -34h-5l-108 136v-251h-212zM350 209q64 0 101.5 30t37.5 83q0 48 -37.5 75t-101.5 27h-70v-215h70z" />
    <glyph glyph-name="germandbls" unicode="&#xdf;" horiz-adv-x="761" 
d="M401 -91q-48 5 -99 25v152q60 -27 112 -27q53 0 88 27.5t35 67.5q0 45 -34.5 75.5t-85.5 30.5h-38l-23 130h42q50 0 74 26.5t19 72.5q-4 34 -37.5 55t-86.5 21q-32 0 -60 -17.5t-45 -47.5t-17 -66v-524h-176l3 494q0 153 77.5 232t223.5 79q84 0 153 -28t108.5 -77.5
t39.5 -110.5q0 -118 -106 -153v-7q70 -15 111.5 -68t41.5 -125q0 -67 -39 -121q-39 -55 -104.5 -86.5t-142.5 -31.5z" />
    <glyph glyph-name="ae" unicode="&#xe6;" 
d="M156 -58q-58 34 -90 103.5t-32 165.5q0 94 35 169q34 71 94.5 108.5t138.5 37.5q16 0 30.5 -4t22.5 -11l55 -109v120h146v-44q24 21 63 34.5t76 13.5q74 0 134 -37.5t96 -108t40 -164.5v-46h-394q5 -57 28.5 -84.5t68.5 -27.5q36 0 55.5 12.5t27.5 41.5h201
q-28 -93 -103.5 -148t-173.5 -55q-34 0 -65 12t-54 35v-47h-136l-10 41q-56 -41 -137 -41q-63 0 -117 33zM410 109v224q-34 31 -76 31q-52 0 -82 -38t-30 -103q0 -72 28 -112t79 -40q46 0 81 38zM770 288q-21 92 -97 92q-78 0 -98 -92h195z" />
    <glyph glyph-name="eth" unicode="&#xf0;" horiz-adv-x="674" 
d="M179.5 -57.5q-66.5 33.5 -103 97t-36.5 149.5q0 82 35.5 145t101 97.5t153.5 34.5q45 0 97 -11q-24 67 -74 102l-3 2l-84 -86l-99 81l46 48q-42 5 -62 5l-33 -2l-6 119q54 8 96 8q61 0 119 -12l62 65l100 -82l-36 -37q87 -61 134 -171t47 -253q0 -33 -1 -39q-1 -2 -1 -15
q-7 -133 -83.5 -206t-213.5 -73q-89 0 -155.5 33.5zM446 191q0 61 -30 97t-83 36q-56 0 -86.5 -34.5t-30.5 -95.5q0 -133 114 -133q116 0 116 130z" />
    <glyph glyph-name="divide" unicode="&#xf7;" horiz-adv-x="670" 
d="M58 392h554v-135h-554v135zM271 52q-26 26 -26 64t26 63.5t65 25.5q38 0 63.5 -25.5t25.5 -63.5t-25.5 -64t-63.5 -26q-39 0 -65 26zM271 467q-27 26 -27 64q0 37 27 63t65 26t64 -26t26 -63q0 -38 -26 -64t-64 -26t-65 26z" />
    <glyph glyph-name="oslash" unicode="&#xf8;" horiz-adv-x="719" 
d="M30 -22l60 60q-48 74 -48 174q0 95 39 166t110 109.5t163 38.5q102 0 178 -48l68 68l89 -76l-75 -74q50 -77 50 -182q0 -91 -38.5 -160t-108.5 -107t-163 -38q-105 0 -182 48l-59 -59zM443 111.5q34 40.5 35 106.5q0 21 -3 39l-176 -174q24 -12 55 -12q55 0 89 40.5z
M406 353q-28 11 -54 11q-56 0 -90 -40t-34 -106q0 -26 4 -39z" />
    <glyph glyph-name="thorn" unicode="&#xfe;" horiz-adv-x="676" 
d="M48 750h209v-264q61 40 133 40q76 0 133 -35.5t88 -103.5t31 -164q0 -98 -35 -171q-35 -68 -93.5 -105t-128.5 -37q-19 0 -39 3l-89 128v-282h-212zM423 108q31 40 31 112q0 70 -27 107t-76 37q-53 0 -94 -39v-230q32 -27 83 -27q52 0 83 40z" />
    <glyph glyph-name="dcroat" unicode="&#x111;" horiz-adv-x="700" 
d="M156 -58q-58 34 -90 103.5t-32 165.5q0 94 35 169q34 71 94.5 108.5t138.5 37.5q16 0 30.5 -4t22.5 -11l80 -159h5v207h-120v112h120v58h186v-58h59v-112h-59v-630h-186v49q-60 -69 -167 -69q-63 0 -117 33zM398.5 98q31.5 27 41.5 67v137q-50 62 -106 62q-52 0 -82 -38
t-30 -103q0 -72 28 -112t79 -40q38 0 69.5 27z" />
    <glyph glyph-name="Hbar" unicode="&#x126;" horiz-adv-x="900" 
d="M92 539h-66v112h66v59h212v-59h292v59h212v-59h67v-112h-67v-610h-212v305h-232l-52 135h-8v-440h-212v610zM596 418v121h-292v-121h292z" />
    <glyph glyph-name="hbar" unicode="&#x127;" horiz-adv-x="698" 
d="M71 559h-51v112h51v58h192v-58h122v-112h-122l-7 -106q36 27 78 45.5t78 23.5q21 3 41 3q92 0 145.5 -62t53.5 -177v-357h-192v320q0 58 -16 85.5t-50 27.5q-6 0 -34 -5q-50 -14 -97 -52v-376h-192v630z" />
    <glyph glyph-name="dotlessi" unicode="&#x131;" horiz-adv-x="354" 
d="M81 482h192v-553h-192v553z" />
    <glyph glyph-name="IJ" unicode="&#x132;" horiz-adv-x="974" 
d="M432 -21.5q-79 68.5 -79 189.5h215q5 -91 76 -91q37 0 55.5 24.5t18.5 77.5v531h211v-531q0 -134 -73 -201.5t-210 -67.5q-135 0 -214 68.5zM71 710h209v-781h-212z" />
    <glyph glyph-name="ij" unicode="&#x133;" horiz-adv-x="742" 
d="M330 -153q42 1 64 9t30.5 27t8.5 56v563h192v-543q0 -95 -26 -149q-26 -50 -76.5 -70t-146.5 -20h-46v127zM116 502h192v-573h-192v573zM131 576.5q-32 29.5 -32 74.5t32 74.5t81 29.5t81 -29.5t32 -74.5t-32 -74.5t-81 -29.5t-81 29.5zM448 576.5q-32 29.5 -32 74.5
t32 74.5t81 29.5t81 -29.5t32 -74.5t-32 -74.5t-81 -29.5t-81 29.5z" />
    <glyph glyph-name="kgreenlandic" unicode="&#x138;" horiz-adv-x="633" 
d="M46 502h189v-251l171 251h222l-194 -266l199 -307h-227l-171 296v-296h-189v573z" />
    <glyph glyph-name="Ldot" unicode="&#x13f;" horiz-adv-x="623" 
d="M45 710h214v-597h342v-184h-556v781zM384 299q-36 36 -36 86t36 86t86 36t86 -36t36 -86t-36 -86t-86 -36t-86 36z" />
    <glyph glyph-name="ldot" unicode="&#x140;" horiz-adv-x="622" 
d="M273 -71q-93 0 -134 18q-42 18 -56 62t-14 139v581h192v-626q0 -27 15 -37t52 -10v-127h-55zM384 299q-36 36 -36 86t36 86t86 36t86 -36t36 -86t-36 -86t-86 -36t-86 36z" />
    <glyph glyph-name="Lslash" unicode="&#x141;" horiz-adv-x="730" 
d="M145 205l-112 -59v219l112 59v286h214v-173l109 58v-219l-109 -58v-205h342v-184h-556v276z" />
    <glyph glyph-name="lslash" unicode="&#x142;" horiz-adv-x="435" 
d="M310 -71q-93 0 -134 18q-42 18 -56 62t-14 139v124l-96 -38v182l96 38v275h192v-199l117 46v-182l-117 -46v-245q0 -27 15 -37t52 -10v-127h-55z" />
    <glyph glyph-name="napostrophe" unicode="&#x149;" horiz-adv-x="793" 
d="M166 502h177l14 -45q37 25 77 42.5t73 22.5q21 3 41 3q92 0 145.5 -62t53.5 -177v-357h-192v320q0 58 -16 85.5t-50 27.5q-6 0 -34 -5q-50 -14 -97 -52v-376h-192v573zM49 628h158l-93 -201h-92z" />
    <glyph glyph-name="Eng" unicode="&#x14a;" horiz-adv-x="788" 
d="M437 -153q42 1 64 9t30.5 27t8.5 56v15l-195 282l-84 129h-5q12 -87 12 -210v-226h-212v781h173l215 -303l87 -128h5q-16 127 -16 231v200h212v-781h-1q-3 -85 -30 -130q-27 -44 -77 -61.5t-141 -17.5h-46v127z" />
    <glyph glyph-name="eng" unicode="&#x14b;" horiz-adv-x="673" 
d="M332 -153q42 1 64 9t30.5 27t8.5 56v310q0 58 -16 85.5t-50 27.5q-6 0 -34 -5q-50 -14 -97 -52v-376h-192v573h177l14 -45q37 25 77 42.5t73 22.5q21 3 41 3q92 0 145.5 -62t53.5 -177v-357h-1q-3 -85 -30 -130q-27 -44 -77 -61.5t-141 -17.5h-46v127z" />
    <glyph glyph-name="OE" unicode="&#x152;" horiz-adv-x="886" 
d="M212 -23q-79 48 -122.5 135t-43.5 200q0 118 43 205q43 91 122.5 141.5t181.5 51.5h444v-170h-235v-133h215v-169h-156l-51 120h-8v-257h242v-172h-419q-5 -1 -29 -1q-105 0 -184 49zM393 541q-66 -16 -100.5 -73.5t-34.5 -148.5t35 -149t100 -73v444z" />
    <glyph glyph-name="oe" unicode="&#x153;" 
d="M161.5 -53.5q-61.5 37.5 -94.5 105.5t-33 158q0 97 34 168.5t95.5 109.5t142.5 38q56 0 103.5 -19.5t83.5 -55.5q68 75 192 75q80 0 144.5 -38.5t102.5 -108t43 -159.5v-46h-362l-36 62q-1 -2 -1 -18v-18q1 -75 25 -108.5t76 -33.5q36 0 56 12.5t28 41.5h201
q-28 -93 -103.5 -148t-173.5 -55q-134 0 -197 68q-71 -68 -182 -68q-83 0 -144.5 37.5zM381.5 112q28.5 41 28.5 109q0 65 -28.5 104t-77.5 39q-48 0 -76 -40t-28 -106t28 -106.5t76 -40.5q49 0 77.5 41zM779 292q-21 88 -96 88q-76 0 -98 -88h194z" />
    <glyph glyph-name="Tbar" unicode="&#x166;" horiz-adv-x="710" 
d="M249 246h-103v169h103v123h-229v172h670v-172h-229v-123h90v-169h-90v-318h-212v318z" />
    <glyph glyph-name="tbar" unicode="&#x167;" horiz-adv-x="483" 
d="M347 -71q-88 0 -133 17q-28 10 -43 33q-15 21 -21 58.5t-7 102.5h-119v152h119v58h-119v152h119v137h192v-137h124v-152h-124v-58h124v-152h-124v-27q0 -30 21 -38q21 -9 78 -9v-137h-87z" />
    <glyph glyph-name="caron" unicode="&#x2c7;" horiz-adv-x="609" 
d="M271 491l-234 127l78 106l190 -109l190 109l77 -106l-220 -121q-26 -14 -48 -14q-14 0 -33 8z" />
    <glyph glyph-name="uni02D0" unicode="&#x2d0;" horiz-adv-x="329" 
d="M47 623h235l-117 -235zM165 201l117 -235h-235z" />
    <glyph glyph-name="breve" unicode="&#x2d8;" horiz-adv-x="613" 
d="M139 543q-65 56 -86 160l128 32q15 -71 47 -107t78 -36q48 0 82 37t49 106l123 -33q-21 -103 -86.5 -159t-167.5 -56t-167 56z" />
    <glyph glyph-name="dotaccent" unicode="&#x2d9;" horiz-adv-x="600" 
d="M231 570.5q-29 28.5 -29 69.5t29 69t71 28q41 0 69 -28t28 -69t-28 -69.5t-69 -28.5q-42 0 -71 28.5z" />
    <glyph glyph-name="ring" unicode="&#x2da;" horiz-adv-x="456" 
d="M151.5 496q-35.5 19 -56.5 52.5t-21 76.5q0 42 20.5 76t55.5 53.5t78 19.5t78 -19.5t55.5 -53.5t20.5 -76q0 -43 -21 -76.5t-56.5 -52.5t-76.5 -19t-76.5 19zM274 578.5q18 19.5 18 47.5t-18 47t-47 19q-27 0 -45.5 -19.5t-18.5 -46.5q0 -28 18.5 -47.5t45.5 -19.5
q29 0 47 19.5z" />
    <glyph glyph-name="ogonek" unicode="&#x2db;" horiz-adv-x="473" 
d="M94 -101q0 34 29.5 64t78 48t103.5 18l7 -43q-39 -12 -54 -26.5t-15 -41.5q0 -24 15 -34t49 -10q27 0 32 1l33 1l5 -60q-54 -11 -74.5 -13.5t-57.5 -2.5q-151 0 -151 99z" />
    <glyph glyph-name="tilde" unicode="&#x2dc;" horiz-adv-x="847" 
d="M485 524.5q-34 17.5 -84 60.5q-33 29 -51 39q-19 11 -34 11q-84 0 -132 -118l-98 32q32 90 92 140.5t133 50.5q41 0 76 -17.5t91 -62.5q29 -24 51 -38q16 -10 33 -10q33 0 57 28.5t44 94.5l98 -32q-20 -90 -75.5 -143t-128.5 -53q-38 0 -72 17.5z" />
    <glyph glyph-name="hungarumlaut" unicode="&#x2dd;" horiz-adv-x="554" 
d="M260 530l113 257l141 -76l-148 -238zM153 797l141 -76l-148 -238l-106 57z" />
    <glyph glyph-name="Alpha" unicode="&#x391;" horiz-adv-x="824" 
d="M261 710h286l268 -781h-231l-45 153h-144l-33 169h127l-76 259l-173 -581h-231z" />
    <glyph glyph-name="Beta" unicode="&#x392;" horiz-adv-x="754" 
d="M56 710h318q161 0 245.5 -52.5t84.5 -150.5q0 -67 -39 -111t-113 -58v-4q90 -15 137 -64.5t47 -125.5q0 -103 -71 -159t-200 -56h-78l-119 153v-153h-212v781zM387 99q71 0 104 19t33 58q0 38 -36 60.5t-101 22.5h-119v-160h119zM371 398q121 0 121 73q0 34 -31.5 52
t-95.5 18h-97v-143h103z" />
    <glyph glyph-name="Gamma" unicode="&#x393;" horiz-adv-x="623" 
d="M45 710h556v-184h-342v-597h-214v781z" />
    <glyph glyph-name="uni0394" unicode="&#x394;" horiz-adv-x="824" 
d="M261 710h286l268 -781h-806zM542 98l-129 422l-131 -422h260z" />
    <glyph glyph-name="Epsilon" unicode="&#x395;" horiz-adv-x="669" 
d="M56 710h564v-170h-350v-133h330v-169h-271l-51 120h-8v-257h357v-172h-571v781z" />
    <glyph glyph-name="Zeta" unicode="&#x396;" horiz-adv-x="658" 
d="M20 56l338 474h-333v180h605v-127l-352 -494q68 20 136 20h234v-180h-627z" />
    <glyph glyph-name="Eta" unicode="&#x397;" horiz-adv-x="828" 
d="M56 710h212v-292h292v292h212v-781h-212v305h-232l-52 135h-8v-440h-212v781z" />
    <glyph glyph-name="Theta" unicode="&#x398;" horiz-adv-x="872" 
d="M232 -40q-89 50 -137.5 141.5t-48.5 210.5q0 125 49 219q49 95 137.5 146.5t203.5 51.5q116 0 204 -52q89 -53 137.5 -148.5t48.5 -218.5q0 -118 -48 -210q-49 -91 -137.5 -141t-204.5 -50q-115 0 -204 51zM534 113q43 30 66.5 84.5t23.5 124.5t-24.5 123t-67.5 81.5
t-97 28.5t-96.5 -29t-66.5 -82.5t-24 -124.5q0 -69 24 -122.5t66.5 -83.5t97.5 -30t98 30zM307 361h254v-80h-254v80z" />
    <glyph glyph-name="Iota" unicode="&#x399;" horiz-adv-x="348" 
d="M71 710h209v-781h-212z" />
    <glyph glyph-name="Kappa" unicode="&#x39a;" horiz-adv-x="765" 
d="M56 710h215v-324l236 324h240l-264 -350l272 -431h-246l-238 405v-405h-214z" />
    <glyph glyph-name="Lambda" unicode="&#x39b;" horiz-adv-x="824" 
d="M261 710h286l268 -781h-231l-171 581l-173 -581h-231z" />
    <glyph glyph-name="Mu" unicode="&#x39c;" horiz-adv-x="994" 
d="M56 710h253l130 -327q35 -87 57 -156h4q22 68 57 157l128 326h253v-781h-206v302q0 70 14 174h-4l-63 -173l-121 -296h-121l-120 296l-66 173h-4q16 -95 16 -174v-302h-207v781z" />
    <glyph glyph-name="Nu" unicode="&#x39d;" horiz-adv-x="788" 
d="M56 710h173l215 -303l87 -128h5q-16 127 -16 231v200h212v-781h-175l-212 307l-84 129h-5q12 -87 12 -210v-226h-212v781z" />
    <glyph glyph-name="Xi" unicode="&#x39e;" horiz-adv-x="690" 
d="M61 710h566v-160h-566v160zM61 90h566v-160h-566v160zM82 410h526v-160h-526v160z" />
    <glyph glyph-name="Omicron" unicode="&#x39f;" horiz-adv-x="872" 
d="M232 -40q-89 50 -137.5 141.5t-48.5 210.5q0 125 49 219q49 95 137.5 146.5t203.5 51.5q116 0 204 -52q89 -53 137.5 -148.5t48.5 -218.5q0 -118 -48 -210q-49 -91 -137.5 -141t-204.5 -50q-115 0 -204 51zM526.5 120.5q40.5 27.5 64 79.5t23.5 122q0 68 -23.5 118.5
t-64 77.5t-91.5 27t-91 -27.5t-63 -79t-23 -119.5t23.5 -119.5t64 -79t90.5 -27.5t90.5 27.5z" />
    <glyph glyph-name="Pi" unicode="&#x3a0;" horiz-adv-x="800" 
d="M47 710h706v-781h-214v597h-278v-597h-214v781z" />
    <glyph glyph-name="Rho" unicode="&#x3a1;" horiz-adv-x="722" 
d="M45 710h315q156 0 244 -71t88 -200q0 -86 -40 -147q-40 -63 -112 -97t-165 -34h-5l-111 140h-1v-372h-213v781zM332 326q64 0 101.5 30t37.5 83q0 48 -37.5 75t-101.5 27h-74v-215h74z" />
    <glyph glyph-name="Sigma" unicode="&#x3a3;" horiz-adv-x="721" 
d="M65 83l213 236l-213 257v134h591v-182h-336l179 -209l-179 -207h336v-183h-591v154z" />
    <glyph glyph-name="Tau" unicode="&#x3a4;" horiz-adv-x="710" 
d="M249 538h-229v172h670v-172h-229v-610h-212v610z" />
    <glyph glyph-name="Upsilon" unicode="&#x3a5;" horiz-adv-x="783" 
d="M286 174l-286 536h236l152 -318h7l152 318h236l-286 -536v-245h-211v245z" />
    <glyph glyph-name="Phi" unicode="&#x3a6;" horiz-adv-x="710" 
d="M300 12q-79 11 -139.5 51t-93.5 103.5t-33 143.5q0 84 33 150.5t93.5 108t139.5 52.5v108h112v-108q80 -11 139.5 -52.5t92 -107.5t32.5 -149q0 -79 -32 -143t-91.5 -105t-140.5 -52v-103h-112v103zM300 452q-41 -16 -65.5 -52t-24.5 -83t24.5 -83.5t65.5 -52.5v271z
M412 182q40 16 64 53t24 85q0 45 -24 80.5t-64 51.5v-270z" />
    <glyph glyph-name="Chi" unicode="&#x3a7;" horiz-adv-x="755" 
d="M240 320l-232 390h237l128 -228h7l129 228h236l-233 -390l243 -391h-243l-132 232h-7l-132 -232h-241z" />
    <glyph glyph-name="Psi" unicode="&#x3a8;" horiz-adv-x="800" 
d="M324 97q-128 22 -198 104.5t-70 218.5v290h184v-293q0 -114 84 -146l-1 439h183l1 -440q87 32 87 147v293h184v-290q0 -136 -71 -218.5t-200 -104.5v-187h-183v187z" />
    <glyph glyph-name="uni03A9" unicode="&#x3a9;" horiz-adv-x="764" 
d="M35 54h113q-47 48 -74 119.5t-27 151.5q0 119 44 213q42 92 119.5 141.5t174.5 49.5q96 0 176 -50q79 -52 121.5 -145t42.5 -214q0 -83 -26.5 -151.5t-75.5 -114.5h106v-124h-316v1h-1v124q41 10 74.5 50.5t52.5 99.5t19 124q0 73 -23 129t-62.5 86.5t-88.5 30.5
q-48 0 -87 -32.5t-61.5 -88.5t-22.5 -125q0 -63 18 -121.5t49.5 -99.5t70.5 -54v-124h-316v124z" />
    <glyph glyph-name="alpha" unicode="&#x3b1;" horiz-adv-x="707" 
d="M156 -58q-58 34 -90 103.5t-32 165.5q0 94 35 169q34 71 94.5 108.5t138.5 37.5q16 0 30.5 -4t22.5 -11l75 -149v140h176v-366q0 -46 4 -59q4 -18 21.5 -25.5t55.5 -7.5v-127h-48q-72 0 -116 20.5t-66 63.5q-59 -92 -184 -92q-63 0 -117 33zM388 89.5q27 18.5 42 49.5
v175q-45 50 -96 50q-52 0 -82 -38t-30 -103q0 -72 28 -112t79 -40q32 0 59 18.5z" />
    <glyph glyph-name="beta" unicode="&#x3b2;" horiz-adv-x="761" 
d="M72 404q0 153 77.5 232t223.5 79q84 0 153 -28t108.5 -77.5t39.5 -110.5q0 -118 -106 -153v-7q70 -15 111.5 -68t41.5 -125q0 -66 -39 -120q-39 -55 -109 -86t-155 -31q-108 0 -173 47v-157h-176zM500.5 87q36.5 27 36.5 67q0 45 -34.5 75.5t-85.5 30.5h-38l-23 130h42
q50 0 74 26.5t19 72.5q-4 34 -37.5 55t-86.5 21q-32 0 -60 -17.5t-45 -47.5t-17 -66v-246q3 -61 48 -94.5t114 -33.5q57 0 93.5 27z" />
    <glyph glyph-name="gamma" unicode="&#x3b3;" horiz-adv-x="600" 
d="M216 -205q-11 177 -57.5 324.5t-137.5 306.5l148 84q93 -167 141 -310q44 62 64.5 136t20.5 166h170q0 -149 -51 -276.5t-152 -226.5q16 -75 22 -184z" />
    <glyph glyph-name="delta" unicode="&#x3b4;" horiz-adv-x="690" 
d="M179.5 -55.5q-70.5 35.5 -108 100t-37.5 151.5t41 155.5t114 104.5q-26 26 -40.5 57.5t-14.5 64.5q0 46 27 91q48 81 184 81q103 0 247 -43l-30 -133q-137 41 -192 41q-25 0 -39.5 -7t-23.5 -23q-6 -10 -6 -24q0 -24 21 -43t60 -28v-1q82 -7 144 -46t96 -103t34 -144
q0 -87 -37.5 -151.5t-107.5 -100t-165 -35.5q-96 0 -166.5 35.5zM436.5 103.5q33.5 36.5 33.5 99.5q0 62 -34 96t-92 34q-57 0 -90.5 -35t-33.5 -98t34 -98t92 -35q57 0 90.5 36.5z" />
    <glyph glyph-name="epsilon" unicode="&#x3b5;" horiz-adv-x="564" 
d="M157 -66.5q-57 23.5 -89.5 64.5t-32.5 93q0 54 38 95t98 51v7q-49 20 -76.5 52t-27.5 71q0 43 29 79t79 57t110 21q68 0 121.5 -23.5t83 -65t29.5 -94.5h-161q0 29 -19.5 49t-48.5 20q-27 0 -44.5 -16.5t-17.5 -42.5q0 -34 37 -54t105 -20h60l-19 -99h-83
q-65 0 -98.5 -21.5t-33.5 -59.5q0 -31 25.5 -51.5t64.5 -20.5q42 0 69 23t29 60h160q-1 -57 -33.5 -102t-91 -70.5t-135.5 -25.5q-70 0 -127 23.5z" />
    <glyph glyph-name="zeta" unicode="&#x3b6;" horiz-adv-x="600" 
d="M266 -155l28 87q-63 0 -115 26.5t-85.5 72.5t-43.5 103q-6 39 -6 75q0 112 59 207.5t178 183.5h-247v130h466l33 -106q-101 -71 -169 -133q-152 -137 -152 -287q0 -33 4 -52q10 -57 54.5 -89.5t110.5 -32.5q39 0 76 12l35 -31l-72 -206z" />
    <glyph glyph-name="eta" unicode="&#x3b7;" horiz-adv-x="673" 
d="M435 249q0 58 -16 85.5t-50 27.5q-6 0 -34 -5q-50 -14 -97 -52v-376h-192v573h177l14 -45q37 25 77 42.5t73 22.5q21 3 41 3q92 0 145.5 -62t53.5 -177v-487h-192v450z" />
    <glyph glyph-name="theta" unicode="&#x3b8;" horiz-adv-x="710" 
d="M195 -41q-71 50 -110.5 141.5t-39.5 212.5q0 127 40 220q40 94 110 145t160 51q92 0 162 -52q70 -54 109 -149.5t39 -217.5t-39 -212q-40 -91 -110.5 -140t-160.5 -49q-89 0 -160 50zM443 143q34 50 40 138h-256q6 -88 40 -138t88 -50t88 50zM483 361q-7 87 -40.5 135.5
t-88.5 48.5q-54 0 -87 -48.5t-39 -135.5h255z" />
    <glyph glyph-name="iota" unicode="&#x3b9;" horiz-adv-x="348" 
d="M269 -73q-83 0 -129 28q-43 26 -61.5 75.5t-18.5 135.5v336h176v-356q0 -46 4 -59q4 -18 21.5 -25.5t55.5 -7.5v-127h-48z" />
    <glyph glyph-name="kappa" unicode="&#x3ba;" horiz-adv-x="633" 
d="M46 502h189v-251l171 251h222l-194 -266l199 -307h-227l-171 296v-296h-189v573z" />
    <glyph glyph-name="lambda" unicode="&#x3bb;" horiz-adv-x="600" 
d="M404 -71q-58 151 -105 304q-74 -132 -109 -303h-170q22 143 77.5 273.5t142.5 241.5q-32 128 -55 262h173q50 -290 236 -778h-190z" />
    <glyph glyph-name="uni03BC" unicode="&#x3bc;" horiz-adv-x="673" 
d="M46 502h172v-321q0 -50 30 -82.5t75 -32.5q61 0 132 80v356h172v-573h-157l-15 48v9q-66 -75 -148 -75q-16 0 -36 3q-34 6 -53 31v-135h-172v692z" />
    <glyph glyph-name="nu" unicode="&#x3bd;" horiz-adv-x="626" 
d="M5 502h195l111 -418h4q50 87 78 193.5t33 224.5h195q-27 -302 -173 -573h-270z" />
    <glyph glyph-name="xi" unicode="&#x3be;" horiz-adv-x="600" 
d="M249 -154l26 80q-63 1 -116.5 29.5t-85.5 78t-32 112.5q0 14 5 47q12 60 43 101t88 75q-20 24 -32.5 58t-12.5 66q0 30 9 59.5t26 49.5h-133v130h444l19 -119q-96 4 -156 -26.5t-60 -86.5q0 -39 27 -63.5t66 -22.5v-116q-77 0 -121.5 -32.5t-44.5 -95.5q0 -55 40 -88
t111 -33q45 0 86 10l39 -32l-75 -223z" />
    <glyph glyph-name="omicron" unicode="&#x3bf;" horiz-adv-x="690" 
d="M183 -54q-71 37 -110 106t-39 160q0 95 39 166t110 109.5t163 38.5q91 0 161.5 -38.5t109.5 -109t39 -164.5q0 -91 -38.5 -160t-108.5 -107t-163 -38q-92 0 -163 37zM436 112.5q34 41.5 34 108.5q0 65 -34.5 104t-91.5 39q-56 0 -90 -40t-34 -106t34.5 -106.5t91.5 -40.5
q56 0 90 41.5z" />
    <glyph glyph-name="pi" unicode="&#x3c0;" horiz-adv-x="720" 
d="M604 -73q-83 0 -129 28q-43 26 -61.5 75.5t-18.5 135.5v150h-72v-387h-194v387h-92v184h646v-184h-102v-170q0 -46 4 -59q4 -18 21.5 -25.5t55.5 -7.5v-127h-58z" />
    <glyph glyph-name="rho" unicode="&#x3c1;" horiz-adv-x="666" 
d="M44 232q0 111 46 175q41 60 106.5 89.5t146.5 29.5q85 0 151.5 -36t104 -100.5t37.5 -146.5q0 -100 -36.5 -178t-102.5 -123t-152 -50l-50 -2q-37 0 -74 5v-175h-177v512zM279 61q82 0 125.5 47.5t43.5 134.5q0 50 -31 80.5t-81 30.5q-26 0 -52 -15q-29 -18 -45.5 -54.5
t-17.5 -86.5v-137h58z" />
    <glyph glyph-name="sigma" unicode="&#x3c3;" horiz-adv-x="740" 
d="M149 -50q-60 39 -92.5 105t-32.5 148q0 73 27 140q30 75 98 117t169 42h402v-177h-124q2 -24 2 -46q0 -42 -4 -78q-16 -149 -86.5 -220t-210.5 -71q-87 0 -148 40zM390.5 133q28.5 45 28.5 144v48h-67q-55 -1 -90 -19q-33 -17 -49.5 -42t-16.5 -54q0 -50 29.5 -86
t71.5 -36q65 0 93.5 45z" />
    <glyph glyph-name="tau" unicode="&#x3c4;" horiz-adv-x="520" 
d="M374 -73q-83 0 -129 28q-43 26 -61.5 75.5t-18.5 135.5v150h-128v184h446v-184h-132v-120q0 -38 8.5 -56.5t29.5 -26.5t63 -9v-177h-78z" />
    <glyph glyph-name="upsilon" unicode="&#x3c5;" horiz-adv-x="634" 
d="M260 -90q-110 12 -162 79t-52 206v307h182v-291q0 -135 77 -135q29 0 51.5 16.5t35.5 44.5q24 54 24 144q0 55 -10 113t-28 108h182q28 -106 28 -214q0 -105 -25 -187q-56 -194 -255 -194q-22 0 -48 3z" />
    <glyph glyph-name="phi" unicode="&#x3c6;" horiz-adv-x="710" 
d="M300 -87q-79 11 -139.5 51t-93.5 103.5t-33 143.5q0 84 33 150.5t93.5 108t139.5 52.5v118h112v-118q80 -11 139.5 -52.5t92 -107.5t32.5 -149q0 -79 -32 -143t-91.5 -105t-140.5 -52v-113h-112v113zM300 353q-41 -16 -65.5 -52t-24.5 -83t24.5 -83.5t65.5 -52.5v271z
M412 83q40 16 64 53t24 85q0 45 -24 80.5t-64 51.5v-270z" />
    <glyph glyph-name="chi" unicode="&#x3c7;" horiz-adv-x="610" 
d="M188 156l-182 346h188l109 -220h3l109 220h188l-183 -346l190 -347h-193l-111 223h-4l-111 -223h-191z" />
    <glyph glyph-name="psi" unicode="&#x3c8;" horiz-adv-x="800" 
d="M321 92q-122 21 -193.5 98.5t-71.5 201.5v317h188v-301q0 -105 77 -140l-1 442h183l1 -442q48 19 71 66q27 54 27 148q0 58 -11 117.5t-32 109.5h188q33 -111 33 -220q0 -99 -29 -191q-28 -82 -91.5 -134.5t-155.5 -69.5v-184h-183v182z" />
    <glyph glyph-name="omega" unicode="&#x3c9;" horiz-adv-x="796" 
d="M509 -91q-69 8 -109 72q-24 -32 -65.5 -52.5t-84.5 -20.5q-16 0 -19 1q-85 10 -130.5 71.5t-57.5 185.5q-3 38 -3 80q0 147 41 256h151q-41 -103 -41 -243q0 -41 3 -77q5 -52 22 -79t44 -27q52 0 66 131q3 32 3 66t-5 99h151q-4 -28 -4 -85l2 -66q4 -75 22 -110t44 -35
q28 0 45 23.5t21 69.5q3 35 3 80q0 142 -40 252l147 1q41 -125 41 -248q0 -52 -6 -111q-12 -118 -64.5 -177t-140.5 -59q-14 0 -36 2z" />
    <glyph glyph-name="uni0401" unicode="&#x401;" horiz-adv-x="669" 
d="M56 710h564v-170h-350v-133h330v-169h-271l-51 120h-8v-257h357v-172h-571v781zM160.5 770.5q-20.5 20.5 -20.5 49.5t20.5 49t49.5 20t49 -20t20 -49t-20 -49.5t-49 -20.5t-49.5 20.5zM440.5 770.5q-20.5 20.5 -20.5 49.5t20.5 49t49.5 20t49 -20t20 -49t-20 -49.5
t-49 -20.5t-49.5 20.5z" />
    <glyph glyph-name="uni0410" unicode="&#x410;" horiz-adv-x="824" 
d="M261 710h286l268 -781h-231l-45 153h-144l-33 169h127l-76 259l-173 -581h-231z" />
    <glyph glyph-name="uni0411" unicode="&#x411;" horiz-adv-x="754" 
d="M56 710h121v1h448v-112h-357v-201h83q76 0 141.5 -9t102.5 -26q74 -32 107.5 -86t33.5 -133q0 -103 -71 -159t-200 -56h-78l-119 153v-153h-212v781zM387 99q71 0 104 19t33 58q0 38 -36 60.5t-101 22.5h-119v-160h119z" />
    <glyph glyph-name="uni0412" unicode="&#x412;" horiz-adv-x="754" 
d="M56 710h318q161 0 245.5 -52.5t84.5 -150.5q0 -67 -39 -111t-113 -58v-4q90 -15 137 -64.5t47 -125.5q0 -103 -71 -159t-200 -56h-78l-119 153v-153h-212v781zM387 99q71 0 104 19t33 58q0 38 -36 60.5t-101 22.5h-119v-160h119zM371 398q121 0 121 73q0 34 -31.5 52
t-95.5 18h-97v-143h103z" />
    <glyph glyph-name="uni0413" unicode="&#x413;" horiz-adv-x="623" 
d="M45 710h556v-184h-342v-597h-214v781z" />
    <glyph glyph-name="uni0414" unicode="&#x414;" horiz-adv-x="825" 
d="M35 112h70q42 168 57 284t15 281v65h547v-630h51v-277h-183v147h-374v-147h-183v277zM541 112v510h-171q0 -126 -7 -192q-7 -69 -18.5 -125t-46.5 -193h243z" />
    <glyph glyph-name="uni0415" unicode="&#x415;" horiz-adv-x="669" 
d="M56 710h564v-170h-350v-133h330v-169h-271l-51 120h-8v-257h357v-172h-571v781z" />
    <glyph glyph-name="uni0416" unicode="&#x416;" 
d="M230 360l-198 350h206l169 -313v313h183v-319l173 319h205l-197 -350l205 -431h-212l-174 400v-400h-182l-1 392l-171 -392h-211z" />
    <glyph glyph-name="uni0417" unicode="&#x417;" horiz-adv-x="638" 
d="M172 -31.5q-66 31.5 -102 86.5t-37 125h180q2 -45 32 -73.5t78 -28.5q44 0 73 25t29 64q0 46 -38 72t-112 26h-92l-21 123h68q76 0 117 24t41 67q0 31 -19.5 51t-49.5 20q-33 0 -55 -24t-22 -60h-181q0 63 32 114t92 80.5t140 29.5q67 0 123 -25.5t88.5 -69.5t32.5 -97
q0 -48 -30.5 -87.5t-85.5 -63.5v-8q67 -13 109.5 -63.5t42.5 -116.5q0 -63 -36.5 -113.5t-100 -79.5t-142.5 -29q-88 0 -154 31.5z" />
    <glyph glyph-name="uni0418" unicode="&#x418;" horiz-adv-x="788" 
d="M56 710h212v-200q0 -131 -16 -231h5l86 128l216 303h173v-781h-213v226q0 122 13 210h-5l-85 -129l-211 -307h-175v781z" />
    <glyph glyph-name="uni0419" unicode="&#x419;" horiz-adv-x="788" 
d="M56 670h212v-160q0 -131 -16 -231h5l86 128l216 263h173v-741h-213v226q0 122 13 210h-5l-85 -129l-211 -307h-175v741zM298 683.5q-55 34.5 -78 90.5l96 22q14 -29 41.5 -45t61.5 -16q33 0 59 15.5t41 45.5l96 -22q-23 -56 -78.5 -90.5t-119.5 -34.5t-119 34.5z" />
    <glyph glyph-name="uni041A" unicode="&#x41a;" horiz-adv-x="765" 
d="M56 710h215v-324l236 324h240l-264 -350l272 -431h-246l-238 405v-405h-214z" />
    <glyph glyph-name="uni041B" unicode="&#x41b;" horiz-adv-x="900" 
d="M607 526h-258v-357q0 -95 -26 -149q-26 -50 -76.5 -70t-146.5 -20h-48v127q42 1 64 9t30.5 27t8.5 56v561h666v-781h-214v597z" />
    <glyph glyph-name="uni041C" unicode="&#x41c;" horiz-adv-x="994" 
d="M56 710h253l130 -327q35 -87 57 -156h4q22 68 57 157l128 326h253v-781h-206v302q0 70 14 174h-4l-63 -173l-121 -296h-121l-120 296l-66 173h-4q16 -95 16 -174v-302h-207v781z" />
    <glyph glyph-name="uni041D" unicode="&#x41d;" horiz-adv-x="828" 
d="M56 710h212v-292h292v292h212v-781h-212v305h-232l-52 135h-8v-440h-212v781z" />
    <glyph glyph-name="uni041E" unicode="&#x41e;" horiz-adv-x="872" 
d="M232 -40q-89 50 -137.5 141.5t-48.5 210.5q0 125 49 219q49 95 137.5 146.5t203.5 51.5q116 0 204 -52q89 -53 137.5 -148.5t48.5 -218.5q0 -118 -48 -210q-49 -91 -137.5 -141t-204.5 -50q-115 0 -204 51zM526.5 120.5q40.5 27.5 64 79.5t23.5 122q0 68 -23.5 118.5
t-64 77.5t-91.5 27t-91 -27.5t-63 -79t-23 -119.5t23.5 -119.5t64 -79t90.5 -27.5t90.5 27.5z" />
    <glyph glyph-name="uni041F" unicode="&#x41f;" horiz-adv-x="800" 
d="M47 710h706v-781h-214v597h-278v-597h-214v781z" />
    <glyph glyph-name="uni0420" unicode="&#x420;" horiz-adv-x="722" 
d="M45 710h315q156 0 244 -71t88 -200q0 -86 -40 -147q-40 -63 -112 -97t-165 -34h-5l-111 140h-1v-372h-213v781zM332 326q64 0 101.5 30t37.5 83q0 48 -37.5 75t-101.5 27h-74v-215h74z" />
    <glyph glyph-name="uni0421" unicode="&#x421;" horiz-adv-x="815" 
d="M226 -39q-87 51 -133.5 143.5t-46.5 214.5q0 119 47 215q47 93 133 144t197 51q103 0 182 -43q77 -42 124.5 -111.5t55.5 -152.5h-220q-15 57 -51.5 88t-90.5 31q-48 0 -85.5 -28t-58.5 -78t-21 -116q0 -69 21 -119t58.5 -76.5t85.5 -26.5q58 0 94 30.5t48 89.5h220
q-8 -95 -53.5 -164t-124.5 -106t-184 -37q-111 0 -197 51z" />
    <glyph glyph-name="uni0422" unicode="&#x422;" horiz-adv-x="710" 
d="M249 538h-229v172h670v-172h-229v-610h-212v610z" />
    <glyph glyph-name="uni0423" unicode="&#x423;" horiz-adv-x="678" 
d="M74 -143h58q82 0 122 15t63 57h-106l-201 573h206l125 -394l13 -62h1l14 62l97 394h202l-116 -423q-43 -154 -94 -230q-49 -73 -110.5 -101t-162.5 -28h-111v137z" />
    <glyph glyph-name="uni0424" unicode="&#x424;" horiz-adv-x="872" 
d="M355 14q-94 13 -164 54t-107.5 104.5t-37.5 140.5q0 82 38 147.5t108 108t163 55.5v86h162v-86q93 -13 163 -55.5t108 -108t38 -147.5q0 -77 -37.5 -140.5t-107.5 -104.5t-164 -54v-85h-162v85zM355 456q-61 -14 -96.5 -50.5t-35.5 -86.5t35.5 -86t96.5 -51v274zM517 182
q61 15 96.5 51.5t35.5 87.5q0 49 -35 84.5t-97 50.5v-274z" />
    <glyph glyph-name="uni0425" unicode="&#x425;" horiz-adv-x="755" 
d="M240 320l-232 390h237l128 -228h7l129 228h236l-233 -390l243 -391h-243l-132 232h-7l-132 -232h-241z" />
    <glyph glyph-name="uni0426" unicode="&#x426;" horiz-adv-x="870" 
d="M607 -73h-562v781h214v-597h258v597h214v-597h90v-356h-214v172z" />
    <glyph glyph-name="uni0427" unicode="&#x427;" horiz-adv-x="673" 
d="M436 98l7 107q-36 -27 -78 -45.5t-78 -23.5q-21 -3 -41 -3q-92 0 -146 62.5t-54 176.5v357h192v-320q0 -58 16 -85.5t50 -27.5q6 0 34 5q45 11 98 52v376h191v-800h-191v169z" />
    <glyph glyph-name="uni0428" unicode="&#x428;" horiz-adv-x="880" 
d="M45 708h194v-597h99v597h194v-597h95v597h194v-781h-776v781z" />
    <glyph glyph-name="uni0429" unicode="&#x429;" horiz-adv-x="991" 
d="M727 -73h-682v781h194v-597h99v597h194v-597h95v597h194v-597h120v-356h-214v172z" />
    <glyph glyph-name="uni042A" unicode="&#x42a;" horiz-adv-x="900" 
d="M156 526h-124v184h336v-282h83q64 0 108 -8t87 -26q69 -30 104.5 -95.5t35.5 -154.5q0 -101 -67 -158t-184 -57h-48l-119 153v-153h-212v597zM487 99q87 0 87 77q0 36 -24 59.5t-63 23.5h-119v-160h119z" />
    <glyph glyph-name="uni042B" unicode="&#x42b;" horiz-adv-x="970" 
d="M56 710h212v-282h83q64 0 108 -8t87 -26q69 -30 104.5 -95.5t35.5 -154.5q0 -101 -67 -158t-184 -57h-48l-119 153v-153h-212v781zM387 99q87 0 87 77q0 36 -24 59.5t-63 23.5h-119v-160h119zM726 708h214v-779h-214v779z" />
    <glyph glyph-name="uni042C" unicode="&#x42c;" horiz-adv-x="754" 
d="M56 710h212v-282h83q76 0 141.5 -9t102.5 -26q70 -31 105.5 -96.5t35.5 -152.5q0 -103 -71 -159t-200 -56h-78l-119 153v-153h-212v781zM387 99q71 0 104 19t33 58q0 38 -36 60.5t-101 22.5h-119v-160h119z" />
    <glyph glyph-name="uni042D" unicode="&#x42d;" horiz-adv-x="815" 
d="M216 -53q-79 37 -124.5 106t-53.5 164h220q12 -59 48.5 -89.5t93.5 -30.5q62 0 105 44t56 121h-295v112h295q-12 77 -55.5 122t-105.5 45q-54 0 -90.5 -31t-51.5 -88h-220q8 80 55 151q49 73 129 114.5t178 41.5q112 0 197 -51q86 -51 133 -144t47 -215t-47 -214
q-47 -93 -133 -144t-197 -51q-105 0 -184 37z" />
    <glyph glyph-name="uni042E" unicode="&#x42e;" 
d="M501 -48.5q-70 42.5 -112 122.5t-49 190h-95v-335h-184v779h184v-332h96q10 110 53.5 189.5t111.5 121.5t153 42q97 0 170 -52q72 -53 111.5 -148.5t39.5 -218.5t-40 -213q-40 -91 -112.5 -139.5t-168.5 -48.5q-88 0 -158 42.5zM762.5 155q37.5 62 37.5 168
q0 102 -38 162t-104 60q-65 0 -102.5 -60.5t-37.5 -165.5q0 -103 37.5 -164.5t103.5 -61.5t103.5 62z" />
    <glyph glyph-name="uni042F" unicode="&#x42f;" horiz-adv-x="750" 
d="M195 221q-133 63 -133 223q0 125 78.5 195.5t214.5 70.5h342v-781h-215v396h-4l-19 -37l-202 -359h-229zM482 352v189h-74q-123 0 -123 -97q0 -48 31 -70t92 -22h74z" />
    <glyph glyph-name="uni0430" unicode="&#x430;" horiz-adv-x="672" 
d="M156 -58q-58 34 -90 103.5t-32 165.5q0 94 35 169q34 71 94.5 108.5t138.5 37.5q16 0 30.5 -4t22.5 -11l80 -159h7v150h192v-573h-173l-13 60q-59 -80 -175 -80q-63 0 -117 33zM402.5 101.5q32.5 30.5 39.5 72.5v126q-51 64 -108 64q-52 0 -82 -38t-30 -103
q0 -72 28 -112t79 -40q41 0 73.5 30.5z" />
    <glyph glyph-name="uni0431" unicode="&#x431;" horiz-adv-x="678" 
d="M189 -55.5q-65 34.5 -100 98.5t-35 150v2q-1 9 -1 61q0 118 26 198q25 74 78.5 125t154.5 96q32 15 47.5 32.5t23.5 52.5l136 -58q-19 -51 -52 -80t-99 -61l-9 -4q-37 -15 -59 -31q-42 -29 -61 -62q47 16 102 16q84 0 150 -35.5t103 -101t37 -150.5q0 -87 -35.5 -151
t-101 -98t-153.5 -34q-87 0 -152 34.5zM435.5 76.5q32.5 38.5 32.5 116.5q0 75 -33.5 117t-91.5 42q-59 0 -92.5 -41.5t-33.5 -117.5q0 -78 32 -116.5t92 -38.5q62 0 94.5 38.5z" />
    <glyph glyph-name="uni0432" unicode="&#x432;" horiz-adv-x="681" 
d="M56 501h271q138 0 209.5 -38.5t71.5 -110.5q0 -48 -30.5 -80.5t-86.5 -43.5v-3q70 -11 107.5 -47t37.5 -91q0 -76 -61 -117t-171 -41h-66l-94 112v-112h-188v572zM338 53q58 0 89 14q27 14 27 43q0 28 -30.5 44t-85.5 16h-94v-117h94zM325 272q103 0 103 54q0 24 -25 37
q-26 14 -84 14h-75v-105h81z" />
    <glyph glyph-name="uni0433" unicode="&#x433;" horiz-adv-x="600" 
d="M45 500h436v-174h-232v-397h-204v571z" />
    <glyph glyph-name="uni0434" unicode="&#x434;" horiz-adv-x="653" 
d="M35 48h61q32 130 42.5 208.5t10.5 195.5v48h421v-452h48v-213h-165v98h-254v-98h-164v213zM416 48v344h-115q-6 -117 -15 -175t-38 -169h168z" />
    <glyph glyph-name="uni0435" unicode="&#x435;" horiz-adv-x="689" 
d="M175 -53.5q-68 37.5 -105.5 105.5t-37.5 159q0 93 38 164.5t106.5 111t157.5 39.5q83 0 149.5 -37.5t106.5 -106.5t44 -162v-46h-362l-48 83h-5q-3 -18 -3 -39q0 -72 32.5 -116t85.5 -44q34 0 56.5 13t37.5 41h199q-28 -93 -108 -148t-185 -55q-91 0 -159 37.5zM439 292
q-25 88 -105 88q-37 0 -65 -23.5t-42 -64.5h212z" />
    <glyph glyph-name="uni0436" unicode="&#x436;" horiz-adv-x="966" 
d="M214 236l-194 266h212l162 -238v238h179v-237l161 237h212l-194 -266l199 -307h-217l-161 279v-279h-179v281l-162 -281h-217z" />
    <glyph glyph-name="uni0437" unicode="&#x437;" horiz-adv-x="572" 
d="M157.5 -64.5q-58.5 25.5 -91 70.5t-33.5 102h160q2 -37 29 -60t69 -23q39 0 64.5 20.5t25.5 51.5q0 38 -33.5 59.5t-98.5 21.5h-83l-19 99h60q68 0 105 20t37 54q0 26 -17.5 42.5t-44.5 16.5q-29 0 -48.5 -20t-19.5 -49h-161q0 53 29.5 94.5t83 65t121.5 23.5
q60 0 110 -21t79 -57t29 -79q0 -39 -27.5 -71t-76.5 -52v-7q60 -10 98 -51t38 -95q0 -52 -32.5 -93t-89.5 -64.5t-127 -23.5q-77 0 -135.5 25.5z" />
    <glyph glyph-name="uni0438" unicode="&#x438;" horiz-adv-x="708" 
d="M56 510h202v-130q0 -99 -16 -201h5l66 98l176 233h163v-581h-203v156q0 92 13 180h-5l-65 -99l-171 -237h-165v581z" />
    <glyph glyph-name="uni0439" unicode="&#x439;" horiz-adv-x="708" 
d="M56 510h202v-130q0 -99 -16 -201h5l66 98l176 233h163v-581h-203v156q0 92 13 180h-5l-65 -99l-171 -237h-165v581zM245.5 542.5q-54.5 31.5 -75.5 83.5l96 22q27 -65 101 -65t102 65l96 -22q-21 -52 -76 -83.5t-122 -31.5t-121.5 31.5z" />
    <glyph glyph-name="uni043A" unicode="&#x43a;" horiz-adv-x="633" 
d="M46 502h189v-251l171 251h222l-194 -266l199 -307h-227l-171 296v-296h-189v573z" />
    <glyph glyph-name="uni043B" unicode="&#x43b;" horiz-adv-x="781" 
d="M537 328h-198v-159q0 -96 -25 -145q-24 -50 -75 -72t-139 -22h-48v127q42 1 64 9t30.5 27t8.5 56v353h586v-573h-204v399z" />
    <glyph glyph-name="uni043C" unicode="&#x43c;" horiz-adv-x="954" 
d="M56 502h239l123 -240q39 -78 54 -111h4q19 41 55 112l120 239h240v-573h-195v222q0 75 9 127h-4l-58 -127l-112 -217h-114l-111 217l-61 127h-4q11 -55 11 -127v-222h-196v573z" />
    <glyph glyph-name="uni043D" unicode="&#x43d;" horiz-adv-x="708" 
d="M56 500h202v-202h192v202h202v-571h-202v185h-132l-52 135h-8v-320h-202v571z" />
    <glyph glyph-name="uni043E" unicode="&#x43e;" horiz-adv-x="690" 
d="M176.5 -53q-68.5 38 -106.5 106.5t-38 157.5q0 92 39 164q38 72 106.5 111.5t156.5 39.5q90 0 158 -40t105 -111t37 -161q0 -92 -38 -161t-106 -106.5t-156 -37.5q-89 0 -157.5 38zM415.5 113q32.5 42 32.5 108q0 63 -32.5 103t-83.5 40q-50 0 -82 -40.5t-32 -105.5
t32.5 -106t83.5 -41q49 0 81.5 42z" />
    <glyph glyph-name="uni043F" unicode="&#x43f;" horiz-adv-x="680" 
d="M47 500h586v-571h-214v387h-158v-387h-214v571z" />
    <glyph glyph-name="uni0440" unicode="&#x440;" horiz-adv-x="670" 
d="M46 502h177l10 -33q34 27 74.5 42t82.5 15q76 0 133 -35.5t88 -103.5t31 -164q0 -98 -35 -171q-35 -68 -93.5 -105t-128.5 -37q-19 0 -39 3l-100 144h-8v-337h-192v782zM423 108q31 40 31 112q0 70 -27 107t-76 37q-68 0 -113 -60v-190q20 -24 44.5 -35t57.5 -11
q52 0 83 40z" />
    <glyph glyph-name="uni0441" unicode="&#x441;" horiz-adv-x="645" 
d="M171 -52.5q-66 38.5 -102.5 108.5t-36.5 162t36.5 162t103 108t152.5 38q79 0 140 -30t97.5 -84t43.5 -124h-184q-28 76 -97 76q-47 0 -76.5 -40.5t-29.5 -105.5q0 -66 29.5 -106.5t76.5 -40.5q78 0 97 79h184q-10 -115 -84 -178t-197 -63q-87 0 -153 38.5z" />
    <glyph glyph-name="uni0442" unicode="&#x442;" horiz-adv-x="660" 
d="M235 334h-215v166h620v-166h-204v-406h-201v406z" />
    <glyph glyph-name="uni0443" unicode="&#x443;" horiz-adv-x="673" 
d="M74 -143h58q82 0 122 15t63 57h-106l-201 573h206l125 -394l13 -62h1l14 62l97 394h202l-116 -423q-43 -154 -94 -230q-49 -73 -110.5 -101t-162.5 -28h-111v137z" />
    <glyph glyph-name="uni0444" unicode="&#x444;" horiz-adv-x="710" 
d="M300 -87q-79 11 -139.5 51t-93.5 103.5t-33 143.5q0 84 33 150.5t93.5 108t139.5 52.5v208h112v-208q80 -11 139.5 -52.5t92 -107.5t32.5 -149q0 -79 -32 -143t-91.5 -105t-140.5 -52v-113h-112v113zM300 353q-41 -16 -65.5 -52t-24.5 -83t24.5 -83.5t65.5 -52.5v271z
M412 83q40 16 64 53t24 85q0 45 -24 80.5t-64 51.5v-270z" />
    <glyph glyph-name="uni0445" unicode="&#x445;" horiz-adv-x="610" 
d="M188 216l-182 286h208l89 -150h3l89 150h208l-183 -286l190 -287h-213l-91 153h-4l-91 -153h-211z" />
    <glyph glyph-name="uni0446" unicode="&#x446;" horiz-adv-x="673" 
d="M456 -73h-411v575h183v-411h148v411h183v-411h69v-336h-172v172z" />
    <glyph glyph-name="uni0447" unicode="&#x447;" horiz-adv-x="653" 
d="M426 1l7 105q-35 -26 -73.5 -44t-72.5 -23q-21 -3 -41 -3q-92 0 -146 62.5t-54 176.5v227h182v-190q0 -59 15.5 -85.5t51.5 -26.5q20 0 33 4q24 6 65 23l33 13v262h181v-600h-181v99z" />
    <glyph glyph-name="uni0448" unicode="&#x448;" horiz-adv-x="873" 
d="M45 502h183v-411h118v411h183v-411h116v411h183v-575h-783v575z" />
    <glyph glyph-name="uni0449" unicode="&#x449;" horiz-adv-x="873" 
d="M656 -73h-611v575h173v-411h98v411h173v-411h96v411h173v-411h70v-336h-172v172z" />
    <glyph glyph-name="uni044A" unicode="&#x44a;" horiz-adv-x="670" 
d="M125 350h-115v154h281v-195h61q52 0 106.5 -8t83.5 -21q52 -23 77.5 -69t25.5 -110q0 -78 -53.5 -125t-145.5 -47h-67l-88 113v-113h-166v421zM379 54q100 0 100 61q0 27 -26 42t-74 15h-88v-118h88z" />
    <glyph glyph-name="uni044B" unicode="&#x44b;" horiz-adv-x="785" 
d="M56 502h166v-194h62q46 0 78 -6t66 -19q50 -24 77 -75.5t27 -117.5q0 -75 -50.5 -118t-135.5 -43h-36l-88 113v-113h-166v573zM310 55q64 0 64 59q0 27 -17 43t-47 16h-88v-118h88zM561 501h168v-572h-168v572z" />
    <glyph glyph-name="uni044C" unicode="&#x44c;" horiz-adv-x="600" 
d="M56 504h166v-195h61q52 0 106.5 -8t83.5 -21q52 -23 77.5 -69t25.5 -110q0 -78 -53.5 -125t-145.5 -47h-67l-88 113v-113h-166v575zM310 54q100 0 100 61q0 27 -26 42t-74 15h-88v-118h88z" />
    <glyph glyph-name="uni044D" unicode="&#x44d;" horiz-adv-x="645" 
d="M114 -28.5q-75 62.5 -86 178.5h184q22 -79 105 -79q41 0 73.5 27t44.5 73h-193v92h194q-12 46 -44.5 73.5t-74.5 27.5q-74 0 -105 -76h-184q7 70 45 124t101 84t143 30q89 0 157 -38.5t105.5 -108t37.5 -161.5t-37.5 -162t-105.5 -108.5t-157 -38.5q-128 0 -203 62.5z
" />
    <glyph glyph-name="uni044E" unicode="&#x44e;" horiz-adv-x="880" 
d="M382 -26q-73 65 -90 177h-86v-222h-168v572h168v-218h88q18 112 91 177.5t180 65.5q81 0 143 -38.5t97 -109.5t35 -165q0 -91 -34 -159.5t-96 -106.5t-145 -38q-110 0 -183 65zM645 112.5q30 41.5 30 108.5q0 65 -30.5 104t-81.5 39q-49 0 -79.5 -40t-30.5 -106
t31 -106.5t81 -40.5t80 41.5z" />
    <glyph glyph-name="uni044F" unicode="&#x44f;" horiz-adv-x="600" 
d="M163 143q-108 48 -108 164q0 90 64.5 142.5t173.5 52.5h277v-573h-174v291h-3l-16 -28l-163 -263h-186zM396 239v139h-60q-100 0 -100 -71q0 -68 100 -68h60z" />
    <glyph glyph-name="uni0451" unicode="&#x451;" horiz-adv-x="666" 
d="M175 -53.5q-68 37.5 -105.5 105.5t-37.5 159q0 93 38 164.5t106.5 111t157.5 39.5q83 0 149.5 -37.5t106.5 -106.5t44 -162v-46h-362l-48 83h-5q-3 -18 -3 -39q0 -72 32.5 -116t85.5 -44q34 0 56.5 13t37.5 41h199q-28 -93 -108 -148t-185 -55q-91 0 -159 37.5zM439 292
q-25 88 -105 88q-37 0 -65 -23.5t-42 -64.5h212zM130.5 560.5q-20.5 20.5 -20.5 49.5t20.5 49t49.5 20t49 -20t20 -49t-20 -49.5t-49 -20.5t-49.5 20.5zM430.5 560.5q-20.5 20.5 -20.5 49.5t20.5 49t49.5 20t49 -20t20 -49t-20 -49.5t-49 -20.5t-49.5 20.5z" />
    <glyph glyph-name="uni2010" unicode="&#x2010;" horiz-adv-x="527" 
d="M30 387h467v-90h-467v90z" />
    <glyph glyph-name="emdash" unicode="&#x2014;" 
d="M30 387h940v-90h-940v90z" />
    <glyph glyph-name="uni2015" unicode="&#x2015;" 
d="M30 398h940v-110h-940v110z" />
    <glyph glyph-name="uni2016" unicode="&#x2016;" horiz-adv-x="880" 
d="M499 800h132v-1045h-132v1045zM249 800h132v-1045h-132v1045z" />
    <glyph glyph-name="quoteleft" unicode="&#x2018;" horiz-adv-x="335" 
d="M96 506q-28 28 -28 71q0 134 176 214l24 -38q-30 -19 -51.5 -40.5t-29.5 -41.5q36 -10 57 -35t21 -61q0 -41 -29 -69t-71 -28q-41 0 -69 28z" />
    <glyph glyph-name="quoteright" unicode="&#x2019;" horiz-adv-x="335" 
d="M68 512q30 19 51.5 40.5t29.5 41.5q-36 10 -57 35t-21 61q0 41 29 69t71 28q41 0 69 -28t28 -71q0 -134 -176 -214z" />
    <glyph glyph-name="quotedblleft" unicode="&#x201c;" horiz-adv-x="600" 
d="M359 506q-28 28 -28 71q0 134 176 214l24 -38q-30 -19 -51.5 -40.5t-29.5 -41.5q36 -10 57 -35t21 -61q0 -41 -29 -69t-71 -28q-41 0 -69 28zM97 506q-28 28 -28 71q0 134 176 214l24 -38q-30 -19 -51.5 -40.5t-29.5 -41.5q36 -10 57 -35t21 -61q0 -41 -29 -69t-71 -28
q-41 0 -69 28z" />
    <glyph glyph-name="quotedblright" unicode="&#x201d;" horiz-adv-x="600" 
d="M331 512q30 19 51.5 40.5t29.5 41.5q-36 10 -57 35t-21 61q0 41 29 69t71 28q41 0 69 -28t28 -71q0 -134 -176 -214zM69 512q30 19 51.5 40.5t29.5 41.5q-36 10 -57 35t-21 61q0 41 29 69t71 28q41 0 69 -28t28 -71q0 -134 -176 -214z" />
    <glyph glyph-name="dagger" unicode="&#x2020;" horiz-adv-x="587" 
d="M223 415h-198v80h198v299h142v-299h196l1 -80h-197v-608h-142v608z" />
    <glyph glyph-name="daggerdbl" unicode="&#x2021;" horiz-adv-x="600" 
d="M223 11h-197v80h197v339h-198v80h198v284h142v-284h196l1 -80h-197v-339h197v-80h-197v-204h-142v204z" />
    <glyph glyph-name="twodotenleader" unicode="&#x2025;" horiz-adv-x="653" 
d="M392 -29.5q-29 28.5 -29 69.5t29 69t71 28q41 0 69 -28t28 -69t-28 -69.5t-69 -28.5q-42 0 -71 28.5zM122 -29.5q-29 28.5 -29 69.5t29 69t71 28q41 0 69 -28t28 -69t-28 -69.5t-69 -28.5q-42 0 -71 28.5z" />
    <glyph glyph-name="ellipsis" unicode="&#x2026;" horiz-adv-x="915" 
d="M649 -29.5q-29 28.5 -29 69.5t29 69t71 28q41 0 69 -28t28 -69t-28 -69.5t-69 -28.5q-42 0 -71 28.5zM127 -29.5q-29 28.5 -29 69.5t29 69t71 28q41 0 69 -28t28 -69t-28 -69.5t-69 -28.5q-42 0 -71 28.5zM388 -29.5q-29 28.5 -29 69.5t29 69t71 28q41 0 69 -28t28 -69
t-28 -69.5t-69 -28.5q-42 0 -71 28.5z" />
    <glyph glyph-name="perthousand" unicode="&#x2030;" 
d="M458 724h116l-355 -788h-121zM441 -49q-33 22 -52.5 62.5t-19.5 93.5t19.5 93.5t52.5 62.5t73 22q41 0 74 -23t52 -63.5t19 -91.5t-19 -91.5t-52 -63.5t-74 -23q-40 0 -73 22zM547 58.5q13 19.5 13 48.5t-13 48.5t-33 19.5q-21 0 -34 -19t-13 -49t13 -49t34 -19
q20 0 33 19.5zM90 395q-33 22 -52.5 62.5t-19.5 93.5t19.5 93.5t52.5 62.5t73 22q41 0 74 -23t52 -63.5t19 -91.5t-19 -91.5t-52 -63.5t-74 -23q-40 0 -73 22zM197 502q13 19 13 49t-13 49t-34 19t-34 -19t-13 -49t13 -49t34 -19t34 19zM763 -48q-33 23 -52 63.5t-19 91.5
t19 91.5t52 63.5t74 23q40 0 73 -22t52.5 -62.5t19.5 -93.5t-19.5 -93.5t-52.5 -62.5t-73 -22q-41 0 -74 23zM871 58q13 19 13 49t-13 49t-34 19q-20 0 -33.5 -19.5t-13.5 -48.5t13.5 -48.5t33.5 -19.5q21 0 34 19z" />
    <glyph glyph-name="minute" unicode="&#x2032;" horiz-adv-x="350" 
d="M82 505l28 279l158 -28l-68 -272z" />
    <glyph glyph-name="second" unicode="&#x2033;" horiz-adv-x="575" 
d="M332 505l28 279l158 -28l-68 -272zM110 784l158 -28l-68 -272l-118 21z" />
    <glyph glyph-name="uni203B" unicode="&#x203b;" horiz-adv-x="940" 
d="M129 77l254 257l-254 257l87 87l254 -257l254 257l87 -87l-254 -257l254 -257l-87 -87l-254 257l-254 -257zM412 -7q-24 23 -24 59q0 37 24 59q23 23 58 23q33 0 59 -23q23 -23 23 -59t-23 -59q-26 -23 -59 -23q-35 0 -58 23zM133 275q-24 23 -24 59q0 37 24 59
q23 23 58 23q33 0 59 -23q23 -23 23 -59t-23 -59q-26 -23 -59 -23q-35 0 -58 23zM691 275q-24 23 -24 59q0 37 24 59q23 23 58 23q33 0 59 -23q23 -23 23 -59t-23 -59q-26 -23 -59 -23q-35 0 -58 23zM412 557q-24 23 -24 59q0 37 24 59q23 23 58 23q33 0 59 -23
q23 -23 23 -59t-23 -59q-26 -23 -59 -23q-35 0 -58 23z" />
    <glyph glyph-name="uni2074" unicode="&#x2074;" horiz-adv-x="369" 
d="M207 478h-167v64l108 226h149v-221h42v-69h-42v-73h-90v73zM207 547v78q0 44 3 90q-7 -24 -32 -80l-37 -88h66z" />
    <glyph glyph-name="uni207F" unicode="&#x207f;" horiz-adv-x="447" 
d="M55 765h103l8 -26q44 32 87 38l24 2q54 0 84.5 -36t30.5 -103v-207h-111v186q0 33 -9 49t-29 16q-9 0 -20 -3q-28 -7 -57 -30v-218h-111v332z" />
    <glyph glyph-name="uni2081" unicode="&#x2081;" horiz-adv-x="278" 
d="M112 129h-62v58q16 2 33 10.5t29 20.5h116v-376h-116v287z" />
    <glyph glyph-name="uni2082" unicode="&#x2082;" horiz-adv-x="360" 
d="M54 -71q87 81 121 120q38 38 38 72q0 14 -7.5 23t-20.5 9q-18 0 -27.5 -16t-8.5 -43h-99q-1 62 37 101t98 39q55 0 91 -32.5t36 -80.5q0 -62 -58 -120q-35 -34 -75 -67q7 4 37 4h104v-80h-266v71z" />
    <glyph glyph-name="uni2083" unicode="&#x2083;" horiz-adv-x="355" 
d="M77 -116q-43 37 -42 97h102q-1 -24 13 -38.5t37 -14.5q21 0 34 11.5t13 29.5q0 46 -72 46h-51l-12 66h41q36 0 55.5 12.5t19.5 33.5q0 13 -8 21.5t-21 8.5q-17 0 -26.5 -11.5t-7.5 -31.5h-103q-2 56 37 90t103 34q54 0 91 -29.5t37 -72.5q0 -44 -54 -79q29 -6 50.5 -33
t21.5 -59q0 -51 -42.5 -84.5t-103.5 -33.5q-69 0 -112 37z" />
    <glyph glyph-name="uni2084" unicode="&#x2084;" horiz-adv-x="369" 
d="M207 -69h-167v64l108 226h149v-221h42v-69h-42v-73h-90v73zM207 0v78q0 44 3 90q-7 -24 -32 -80l-37 -88h66z" />
    <glyph glyph-name="Euro" unicode="&#x20ac;" horiz-adv-x="855" 
d="M252 -23q-93 67 -132 185h-97v120h74q-1 5 -1 37q0 30 1 35h-74v120h96q38 120 131.5 187.5t222.5 67.5q103 0 182 -43q77 -42 124.5 -111.5t55.5 -152.5h-170q-14 73 -66 111t-136 38q-49 0 -89.5 -25t-67.5 -72h144v-120h-180l-2 -35l2 -37h180v-120h-145
q27 -46 68.5 -70.5t94.5 -24.5q87 0 136 36.5t61 113.5h170q-8 -95 -53.5 -164t-124.5 -106t-184 -37q-128 0 -221 67z" />
    <glyph glyph-name="uni2103" unicode="&#x2103;" horiz-adv-x="957" 
d="M498 -39q-67 51 -104 144.5t-37 213.5q0 125 37 215q37 93 104 144t155 51q82 0 143 -43q60 -42 97 -111.5t44 -152.5h-172q-12 57 -41 88t-71 31q-56 0 -88 -59.5t-32 -162.5q0 -105 31.5 -163.5t88.5 -58.5q45 0 73.5 30t38.5 90h172q-6 -94 -42.5 -163t-98.5 -106.5
t-143 -37.5q-87 0 -155 51zM118 446q-36 19 -57 53.5t-21 77.5t20.5 78t56.5 55t80 20t80 -20t56.5 -55t20.5 -78t-21 -77.5t-57 -53.5t-79 -19t-79 19zM245 533.5q18 19.5 18 47.5t-18 47t-47 19q-27 0 -45.5 -19.5t-18.5 -46.5q0 -28 18.5 -47.5t45.5 -19.5q29 0 47 19.5z
" />
    <glyph glyph-name="uni2109" unicode="&#x2109;" horiz-adv-x="894" 
d="M408 710h446v-171h-278v-134h258v-171h-211l-41 122h-6v-427h-168v781zM118 446q-36 19 -57 53.5t-21 77.5t20.5 78t56.5 55t80 20t80 -20t56.5 -55t20.5 -78t-21 -77.5t-57 -53.5t-79 -19t-79 19zM245 533.5q18 19.5 18 47.5t-18 47t-47 19q-27 0 -45.5 -19.5
t-18.5 -46.5q0 -28 18.5 -47.5t45.5 -19.5q29 0 47 19.5z" />
    <glyph glyph-name="uni2113" unicode="&#x2113;" horiz-adv-x="346" 
d="M273 -71q-93 0 -134 18q-42 18 -56 62t-14 139v581h192v-626q0 -27 15 -37t52 -10v-127h-55z" />
    <glyph glyph-name="uni2116" unicode="&#x2116;" horiz-adv-x="949" 
d="M56 710h117l146 -303l58 -128h4q-11 127 -11 231v200h143v-781h-118l-143 307l-57 129h-4q8 -99 8 -210v-226h-143v781zM547 312h372v-104h-372v104zM608 421q-48 48 -48 127q0 81 48 131t127 50t127.5 -49.5t48.5 -129.5t-48.5 -128.5t-127.5 -48.5t-127 48zM786.5 491
q19.5 24 19.5 64q0 37 -20 59t-52 22t-51 -23t-19 -61q0 -39 19.5 -62t51.5 -23t51.5 24z" />
    <glyph glyph-name="uni2121" unicode="&#x2121;" 
d="M166 548h-126v162h368v-162h-126v-620h-116v620zM432 -53q-48 38 -74.5 107t-26.5 161q0 93 27 163q26 71 73.5 109.5t109.5 38.5q59 0 104.5 -37t72.5 -107t30 -166v-46h-289q13 -112 82 -112q46 0 64 54h134q-19 -94 -71.5 -148.5t-126.5 -54.5q-62 0 -109 38zM617 288
q-17 92 -77 92q-61 0 -78 -92h155zM923 -71q-60 0 -87 18q-28 18 -37 64q-9 45 -9 137v581h126v-626q0 -27 10 -37t34 -10v-127h-37z" />
    <glyph glyph-name="trademark" unicode="&#x2122;" horiz-adv-x="728" 
d="M341 710h105l54 -135q14 -37 23 -65h2q5 20 24 65l53 135h104v-323h-85v125q0 36 6 72h-2l-26 -72l-50 -123h-50l-50 123l-27 72h-2q7 -36 7 -72v-125h-86v323zM115 639h-95v71h278v-71h-95v-253h-88v253z" />
    <glyph glyph-name="uni2126" unicode="&#x2126;" horiz-adv-x="764" 
d="M35 54h113q-47 48 -74 119.5t-27 151.5q0 119 44 213q42 92 119.5 141.5t174.5 49.5q96 0 176 -50q79 -52 121.5 -145t42.5 -214q0 -83 -26.5 -151.5t-75.5 -114.5h106v-124h-316v1h-1v124q41 10 74.5 50.5t52.5 99.5t19 124q0 73 -23 129t-62.5 86.5t-88.5 30.5
q-48 0 -87 -32.5t-61.5 -88.5t-22.5 -125q0 -63 18 -121.5t49.5 -99.5t70.5 -54v-124h-316v124z" />
    <glyph glyph-name="uni2153" unicode="&#x2153;" horiz-adv-x="774" 
d="M489 762h126l-431 -918h-126zM111 636h-60v55q13 1 30 9.5t30 20.5h110v-429h-110v344zM460.5 -54q-47.5 39 -48.5 102h104q2 -27 19 -43t44 -16q26 0 43 14.5t17 36.5q0 27 -22 42.5t-65 15.5h-53l-12 72h39q44 0 68 14t24 38q0 18 -11.5 30t-29.5 12q-19 0 -31.5 -14
t-12.5 -36h-105q0 57 42.5 94t111.5 37q39 0 71 -15t51 -40.5t19 -55.5q0 -57 -66 -89v-4q38 -7 62.5 -36.5t24.5 -66.5q0 -57 -46 -94t-115 -37q-75 0 -122.5 39z" />
    <glyph glyph-name="uni2154" unicode="&#x2154;" horiz-adv-x="874" 
d="M608 762h126l-431 -918h-126zM45 376q93 84 142 140q24 24 35 44.5t11 41.5q0 19 -10.5 31.5t-28.5 12.5q-23 0 -36 -19t-13 -51h-105q0 68 43.5 110.5t110.5 42.5q42 0 75 -17t52 -46t19 -64q0 -33 -16.5 -66t-52.5 -70l-61 -55l-32 -28h169v-83h-302v76zM570.5 -54
q-47.5 39 -48.5 102h104q2 -27 19 -43t44 -16q26 0 43 14.5t17 36.5q0 27 -22 42.5t-65 15.5h-53l-12 72h39q44 0 68 14t24 38q0 18 -11.5 30t-29.5 12q-19 0 -31.5 -14t-12.5 -36h-105q0 57 42.5 94t111.5 37q39 0 71 -15t51 -40.5t19 -55.5q0 -57 -66 -89v-4
q38 -7 62.5 -36.5t24.5 -66.5q0 -57 -46 -94t-115 -37q-75 0 -122.5 39z" />
    <glyph glyph-name="oneeighth" unicode="&#x215b;" horiz-adv-x="752" 
d="M496 762h126l-431 -918h-126zM615.5 -1q16.5 14 16.5 33q0 17 -16.5 33.5t-41.5 22.5q-25 -5 -41 -21t-16 -34q0 -21 16 -34.5t42 -13.5q24 0 40.5 14zM111 636h-60v55q13 1 30 9.5t30 20.5h110v-429h-110v344zM461.5 -60.5q-44.5 32.5 -44.5 81.5q0 64 70 100
q-26 16 -41.5 39.5t-15.5 48.5q0 49 41.5 80.5t104.5 31.5q62 0 102 -31t40 -79q0 -27 -16 -49t-46 -37q76 -39 76 -101q0 -51 -45 -84t-113 -33t-112.5 32.5zM607 179.5q11 13.5 11 26.5q0 16 -11.5 26.5t-31.5 10.5q-21 0 -33.5 -10.5t-12.5 -25.5q0 -28 47 -52
q20 11 31 24.5z" />
    <glyph glyph-name="threeeighths" unicode="&#x215c;" horiz-adv-x="871" 
d="M599 762h126l-431 -918h-126zM89.5 330q-47.5 39 -48.5 102h104q2 -27 19 -43t44 -16q26 0 43 14.5t17 36.5q0 27 -22 42.5t-65 15.5h-53l-12 72h39q44 0 68 14t24 38q0 18 -11.5 30t-29.5 12q-19 0 -31.5 -14t-12.5 -36h-105q0 57 42.5 94t111.5 37q39 0 71 -15
t51 -40.5t19 -55.5q0 -57 -66 -89v-4q38 -7 62.5 -36.5t24.5 -66.5q0 -57 -46 -94t-115 -37q-75 0 -122.5 39zM724.5 -1q16.5 14 16.5 33q0 17 -16.5 33.5t-41.5 22.5q-25 -5 -41 -21t-16 -34q0 -21 16 -34.5t42 -13.5q24 0 40.5 14zM570.5 -60.5q-44.5 32.5 -44.5 81.5
q0 64 70 100q-26 16 -41.5 39.5t-15.5 48.5q0 49 41.5 80.5t104.5 31.5q62 0 102 -31t40 -79q0 -27 -16 -49t-46 -37q76 -39 76 -101q0 -51 -45 -84t-113 -33t-112.5 32.5zM716 179.5q11 13.5 11 26.5q0 16 -11.5 26.5t-31.5 10.5q-21 0 -33.5 -10.5t-12.5 -25.5
q0 -28 47 -52q20 11 31 24.5z" />
    <glyph glyph-name="fiveeighths" unicode="&#x215d;" horiz-adv-x="871" 
d="M589 762h126l-431 -918h-126zM714.5 -1q16.5 14 16.5 33q0 17 -16.5 33.5t-41.5 22.5q-25 -5 -41 -21t-16 -34q0 -21 16 -34.5t42 -13.5q24 0 40.5 14zM102.5 343.5q-44.5 39.5 -44.5 101.5h99q0 -28 16 -45.5t40 -17.5q21 0 34 17.5t13 45.5q0 26 -12.5 42t-32.5 16
q-21 0 -45 -18h-102l26 227h244v-77h-152l-10 -75q30 15 54 15q57 0 94 -37.5t37 -96.5t-41 -98t-105 -39q-68 0 -112.5 39.5zM560.5 -60.5q-44.5 32.5 -44.5 81.5q0 64 70 100q-26 16 -41.5 39.5t-15.5 48.5q0 49 41.5 80.5t104.5 31.5q62 0 102 -31t40 -79q0 -27 -16 -49
t-46 -37q76 -39 76 -101q0 -51 -45 -84t-113 -33t-112.5 32.5zM706 179.5q11 13.5 11 26.5q0 16 -11.5 26.5t-31.5 10.5q-21 0 -33.5 -10.5t-12.5 -25.5q0 -28 47 -52q20 11 31 24.5z" />
    <glyph glyph-name="seveneighths" unicode="&#x215e;" horiz-adv-x="811" 
d="M524 762h126l-431 -918h-126zM659.5 -1q16.5 14 16.5 33q0 17 -16.5 33.5t-41.5 22.5q-25 -5 -41 -21t-16 -34q0 -21 16 -34.5t42 -13.5q24 0 40.5 14zM227 629h-164l-15 78h287v-71l-109 -339h-105zM505.5 -60.5q-44.5 32.5 -44.5 81.5q0 64 70 100q-26 16 -41.5 39.5
t-15.5 48.5q0 49 41.5 80.5t104.5 31.5q62 0 102 -31t40 -79q0 -27 -16 -49t-46 -37q76 -39 76 -101q0 -51 -45 -84t-113 -33t-112.5 32.5zM651 179.5q11 13.5 11 26.5q0 16 -11.5 26.5t-31.5 10.5q-21 0 -33.5 -10.5t-12.5 -25.5q0 -28 47 -52q20 11 31 24.5z" />
    <glyph glyph-name="uni2160" unicode="&#x2160;" horiz-adv-x="348" 
d="M71 710h209v-781h-212z" />
    <glyph glyph-name="uni2161" unicode="&#x2161;" horiz-adv-x="696" 
d="M385 710h209v-781h-212zM105 710h209v-781h-212z" />
    <glyph glyph-name="uni2162" unicode="&#x2162;" horiz-adv-x="990" 
d="M396 710h201v-781h-204zM71 710h200v-781h-203zM722 710h200v-781h-203z" />
    <glyph glyph-name="uni2163" unicode="&#x2163;" 
d="M309 710h202l136 -551h5l136 551h201l-217 -781h-245zM71 710h186v-781h-189z" />
    <glyph glyph-name="uni2164" unicode="&#x2164;" horiz-adv-x="814" 
d="M5 710h239l160 -551h6l161 551h238l-257 -781h-289z" />
    <glyph glyph-name="uni2165" unicode="&#x2165;" horiz-adv-x="986" 
d="M5 710h202l135 -551h5l136 551h201l-217 -781h-244zM739 710h187v-781h-190z" />
    <glyph glyph-name="uni2166" unicode="&#x2166;" 
d="M5 710h156l94 -531h5l95 531h155l-148 -781h-209zM568 710h156v-781h-158zM787 710h156v-781h-158z" />
    <glyph glyph-name="uni2167" unicode="&#x2167;" 
d="M5 710h140l77 -541h3l78 541h140l-130 -781h-178zM484 710h124v-781h-126zM668 710h124v-781h-125zM853 710h124v-781h-126z" />
    <glyph glyph-name="uni2168" unicode="&#x2168;" horiz-adv-x="900" 
d="M474 320l-181 390h185l100 -228h5l101 228h184l-182 -390l190 -391h-190l-103 232h-5l-103 -232h-188zM70 710h163v-781h-165z" />
    <glyph glyph-name="uni2169" unicode="&#x2169;" horiz-adv-x="755" 
d="M240 320l-232 390h237l128 -228h7l129 228h236l-233 -390l243 -391h-243l-132 232h-7l-132 -232h-241z" />
    <glyph glyph-name="uni2170" unicode="&#x2170;" horiz-adv-x="354" 
d="M81 502h192v-573h-192v573zM96 576.5q-32 29.5 -32 74.5t32 74.5t81 29.5t81 -29.5t32 -74.5t-32 -74.5t-81 -29.5t-81 29.5z" />
    <glyph glyph-name="uni2171" unicode="&#x2171;" horiz-adv-x="708" 
d="M403 502h192v-573h-192v573zM113 502h192v-573h-192v573zM128 576.5q-32 29.5 -32 74.5t32 74.5t81 29.5t81 -29.5t32 -74.5t-32 -74.5t-81 -29.5t-81 29.5zM418 576.5q-32 29.5 -32 74.5t32 74.5t81 29.5t81 -29.5t32 -74.5t-32 -74.5t-81 -29.5t-81 29.5z" />
    <glyph glyph-name="uni2172" unicode="&#x2172;" horiz-adv-x="990" 
d="M79 502h178v-573h-178v573zM407 502h176v-573h-176v573zM93 576.5q-29 29.5 -29 74.5t29 74.5t75 29.5t75.5 -29.5t29.5 -74.5t-29.5 -74.5t-75.5 -29.5t-75 29.5zM734 502h176v-573h-176v573zM420 576.5q-29 29.5 -29 74.5t29 74.5t75 29.5t75 -29.5t29 -74.5t-29 -74.5
t-75 -29.5t-75 29.5zM746.5 576.5q-29.5 29.5 -29.5 74.5t29.5 74.5t75.5 29.5t75 -29.5t29 -74.5t-29 -74.5t-75 -29.5t-75.5 29.5z" />
    <glyph glyph-name="uni2173" unicode="&#x2173;" horiz-adv-x="919" 
d="M335 502h178l102 -408h3l102 408h179l-159 -573h-247zM80 502h175v-573h-175v573zM93 576.5q-29 29.5 -29 74.5t29 74.5t74 29.5q46 0 75 -29.5t29 -74.5t-29 -74.5t-75 -29.5q-45 0 -74 29.5z" />
    <glyph glyph-name="uni2174" unicode="&#x2174;" horiz-adv-x="636" 
d="M10 502h195l111 -408h4l111 408h195l-173 -573h-270z" />
    <glyph glyph-name="uni2175" unicode="&#x2175;" horiz-adv-x="903" 
d="M4 502h179l102 -408h3l102 408h178l-158 -573h-247zM648 502h175v-573h-175v573zM661 576.5q-29 29.5 -29 74.5t29 74.5t75 29.5q45 0 74 -29.5t29 -74.5t-29 -74.5t-74 -29.5q-46 0 -75 29.5z" />
    <glyph glyph-name="uni2176" unicode="&#x2176;" 
d="M5 502h152l87 -408h3l86 408h153l-135 -573h-211zM537 502h150v-573h-150v573zM773 502h150v-573h-150v573zM549 576.5q-25 29.5 -25 74.5t25 74.5t63 29.5q39 0 63.5 -29.5t24.5 -74.5t-24.5 -74.5t-63.5 -29.5q-38 0 -63 29.5zM784.5 576.5q-24.5 29.5 -24.5 74.5
t24.5 74.5t63.5 29.5q38 0 63 -29.5t25 -74.5t-25 -74.5t-63 -29.5q-39 0 -63.5 29.5z" />
    <glyph glyph-name="uni2177" unicode="&#x2177;" 
d="M5 502h124l67 -408h3l67 408h124l-106 -573h-174zM431 502h127v-573h-127v573zM628 502h127v-573h-127v573zM826 502h126v-573h-126v573zM442.5 576.5q-21.5 29.5 -21.5 74.5t21.5 74.5t52.5 29.5q30 0 51.5 -30t21.5 -74t-21.5 -74t-51.5 -30q-31 0 -52.5 29.5zM640 577
q-22 30 -22 74t22 74t52 30t52 -30t22 -74t-22 -74t-52 -30t-52 30zM837 577q-22 30 -22 74t22 74t52 30t52 -30t22 -74t-22 -74t-52 -30t-52 30z" />
    <glyph glyph-name="uni2178" unicode="&#x2178;" horiz-adv-x="900" 
d="M504 216l-167 286h191l82 -150h3l82 150h191l-168 -286l175 -287h-196l-84 153h-4l-84 -153h-194zM80 502h176v-573h-176v573zM93 576.5q-29 29.5 -29 74.5t29 74.5t75 29.5t75 -29.5t29 -74.5t-29 -74.5t-75 -29.5t-75 29.5z" />
    <glyph glyph-name="uni2179" unicode="&#x2179;" horiz-adv-x="610" 
d="M188 216l-182 286h208l89 -150h3l89 150h208l-183 -286l190 -287h-213l-91 153h-4l-91 -153h-211z" />
    <glyph glyph-name="arrowleft" unicode="&#x2190;" horiz-adv-x="940" 
d="M95 345l344 348l80 -96l-211 -193l594 9l1 -137l-594 9l210 -193l-80 -96z" />
    <glyph glyph-name="arrowup" unicode="&#x2191;" horiz-adv-x="940" 
d="M411 558l-193 -211l-96 80l348 344l348 -344l-96 -80l-193 211l10 -594h-138z" />
    <glyph glyph-name="arrowright" unicode="&#x2192;" horiz-adv-x="940" 
d="M449 92l210 193l-594 -9l1 137l594 -9l-211 193l80 96l344 -348l-344 -349z" />
    <glyph glyph-name="arrowdown" unicode="&#x2193;" horiz-adv-x="940" 
d="M122 308l96 80l193 -211l-10 594h138l-10 -594l193 211l96 -80l-348 -344z" />
    <glyph glyph-name="arrowboth" unicode="&#x2194;" horiz-adv-x="940" 
d="M1 345l344 348l80 -96l-211 -203h513l-211 203l80 96l344 -348l-344 -349l-80 96l210 203h-511l210 -203l-80 -96z" />
    <glyph glyph-name="arrowupdn" unicode="&#x2195;" horiz-adv-x="940" 
d="M121 208l96 80l188 -211l1 536l-189 -211l-95 80l348 344l349 -344l-96 -80l-188 210l-1 -534l188 210l97 -80l-350 -344z" />
    <glyph glyph-name="uni2196" unicode="&#x2196;" horiz-adv-x="940" 
d="M271 460l12 -285l-124 -12l3 490l489 3l-11 -125l-286 13l427 -413l-97 -98z" />
    <glyph glyph-name="uni2197" unicode="&#x2197;" horiz-adv-x="940" 
d="M159 131l427 413l-286 -13l-11 125l489 -3l3 -490l-124 12l12 285l-413 -427z" />
    <glyph glyph-name="uni2198" unicode="&#x2198;" horiz-adv-x="940" 
d="M300 158l286 -13l-427 413l97 98l413 -427l-12 285l124 12l-3 -490l-489 -3z" />
    <glyph glyph-name="uni2199" unicode="&#x2199;" horiz-adv-x="940" 
d="M162 36l-3 490l124 -12l-12 -285l413 427l97 -98l-427 -413l286 13l11 -125z" />
    <glyph glyph-name="arrowdblright" unicode="&#x21d2;" horiz-adv-x="940" 
d="M501 96l114 105h-528v106h622l42 42l-61 62h-603v106h508l-94 85l75 90l338 -343l-338 -343z" />
    <glyph glyph-name="arrowdblboth" unicode="&#x21d4;" horiz-adv-x="940" 
d="M10 349l338 343l75 -90l-94 -85h282l-94 85l75 90l338 -343l-338 -343l-75 90l114 105h-322l114 -105l-75 -90zM215 307h510l42 42l-61 62h-472l-61 -62z" />
    <glyph glyph-name="universal" unicode="&#x2200;" horiz-adv-x="940" 
d="M67 710h231l46 -153h253l45 153h231l-268 -781h-286zM471 129l76 259h-153z" />
    <glyph glyph-name="partialdiff" unicode="&#x2202;" horiz-adv-x="680" 
d="M189 -56q-67 35 -104 100.5t-37 154.5q0 87 35 151.5t100.5 100t154.5 35.5q69 0 123 -18q-33 57 -111 78q-31 9 -87 9q-65 0 -127 -12l-19 129q66 21 155 21q51 0 76 -4q88 -9 152 -61q64 -53 98 -145.5t34 -216.5q0 -36 -1 -43l-1 -25q-7 -141 -78 -215t-208 -74
q-88 0 -155 35zM424 97.5q30 36.5 30 103.5q0 63 -31 103t-82 40q-53 0 -85 -39t-32 -101q0 -68 29.5 -105.5t84.5 -37.5q56 0 86 36.5z" />
    <glyph glyph-name="existential" unicode="&#x2203;" horiz-adv-x="699" 
d="M56 101h357v137h-330v169h330v133h-350v170h564v-781h-571v172z" />
    <glyph glyph-name="gradient" unicode="&#x2207;" horiz-adv-x="940" 
d="M9 710h806l-268 -781h-286zM413 119l129 422h-260z" />
    <glyph glyph-name="element" unicode="&#x2208;" horiz-adv-x="620" 
d="M306 47q-117 0 -181 68t-64 190q0 123 64 191t181 68h256v-104h-234q-110 0 -140 -95h374v-116h-376q30 -98 142 -98h234v-104h-256z" />
    <glyph glyph-name="suchthat" unicode="&#x220b;" horiz-adv-x="620" 
d="M60 151h234q112 0 142 98h-376v116h374q-30 95 -140 95h-234v104h256q117 0 181 -68t64 -191q0 -122 -64 -190t-181 -68h-256v104z" />
    <glyph glyph-name="product" unicode="&#x220f;" horiz-adv-x="760" 
d="M142 582h-84v160h644v-160h-84l-1 -827h-178l1 827h-120l-1 -827h-178z" />
    <glyph glyph-name="summation" unicode="&#x2211;" horiz-adv-x="721" 
d="M65 -100l213 336l-213 362v112h591v-171h-342l185 -303l-185 -301h342v-172h-591v137z" />
    <glyph glyph-name="radical" unicode="&#x221a;" horiz-adv-x="929" 
d="M45 321h170l92 -305l21 -61l23 61l251 708h307l-1 -141h-203l-299 -783h-160z" />
    <glyph glyph-name="proportional" unicode="&#x221d;" horiz-adv-x="940" 
d="M188.5 143.5q-47.5 26.5 -74 72.5t-26.5 103q0 64 31 110q27 44 75 68.5t103 24.5q134 0 236 -107q107 107 236 107q42 0 64 -7l-20 -129q-20 7 -47 7q-74 0 -148 -74q39 -39 74 -56t79 -17l15 1l8 1l22 -12l17 -112q-22 -7 -64 -7q-133 0 -236 106q-100 -106 -236 -106
q-61 0 -108.5 26.5zM366.5 262q32.5 14 68.5 48q-30 42 -60 61.5t-69 22.5q-27 2 -44 -18.5t-17 -58.5q0 -27 14 -45.5t36 -20.5q39 -3 71.5 11z" />
    <glyph glyph-name="infinity" unicode="&#x221e;" horiz-adv-x="940" 
d="M149.5 133q-53.5 32 -83 89t-29.5 130q0 75 30 132.5t83.5 88.5t122.5 31q63 0 110 -27.5t87 -86.5q39 58 86.5 86t110.5 28q71 0 124.5 -32.5t83 -90t29.5 -129.5t-29.5 -129t-83 -89.5t-124.5 -32.5q-63 0 -110.5 28t-86.5 85q-39 -58 -86.5 -85.5t-110.5 -27.5
q-70 0 -123.5 32zM331 235q21 14 37 38t44 79q-16 34 -40 74q-39 59 -99 59q-52 0 -80.5 -35.5t-28.5 -97.5q0 -63 28 -98.5t81 -35.5q32 0 58 17zM747 254.5q29 36.5 29 97.5t-29 97t-80 36q-35 0 -57 -16q-22 -15 -38 -38.5t-44 -78.5q22 -46 41 -74q38 -60 98 -60
q51 0 80 36.5z" />
    <glyph glyph-name="angle" unicode="&#x2220;" horiz-adv-x="940" 
d="M227 55q-31 0 -56 19q-12 8 -18 21.5t-6 28.5q0 19 8.5 38.5t23.5 34.5l402 409l99 -93l-335 -327h427v-131h-545z" />
    <glyph glyph-name="uni2225" unicode="&#x2225;" horiz-adv-x="940" 
d="M568 700h142v-805h-142v805zM230 700h142v-805h-142v805z" />
    <glyph glyph-name="logicaland" unicode="&#x2227;" horiz-adv-x="940" 
d="M88 19l363 692h38l363 -692l-139 -62l-243 485l-243 -485z" />
    <glyph glyph-name="logicalor" unicode="&#x2228;" horiz-adv-x="940" 
d="M88 659l139 62l243 -485l243 485l139 -62l-363 -692h-38z" />
    <glyph glyph-name="intersection" unicode="&#x2229;" horiz-adv-x="940" 
d="M129 390q0 162 88.5 249.5t252.5 87.5t252.5 -87.5t88.5 -249.5v-461h-145v429q0 117 -51 180.5t-145 63.5t-145 -63.5t-51 -180.5v-429h-145v461z" />
    <glyph glyph-name="union" unicode="&#x222a;" horiz-adv-x="940" 
d="M217.5 16.5q-88.5 87.5 -88.5 249.5v461h145v-429q0 -117 51 -180.5t145 -63.5t145 63.5t51 180.5v429h145v-461q0 -162 -88.5 -249.5t-252.5 -87.5t-252.5 87.5z" />
    <glyph glyph-name="integral" unicode="&#x222b;" horiz-adv-x="601" 
d="M78.5 -180.5q-33.5 13.5 -66.5 41.5l104 60q18 -35 42 -35q23 0 37 44q12 39 17 95q7 74 11 185l2 55q6 118 23 227q19 112 70.5 172.5t131.5 60.5q39 0 72.5 -13.5t66.5 -41.5l-104 -60q-17 35 -42 35q-22 0 -36 -44q-12 -39 -17 -98q-6 -57 -12 -183l-2 -55
q-6 -115 -23 -226q-19 -112 -70.5 -172.5t-131.5 -60.5q-39 0 -72.5 13.5z" />
    <glyph glyph-name="uni222C" unicode="&#x222c;" horiz-adv-x="940" 
d="M418.5 -180.5q-33.5 13.5 -66.5 41.5l104 60q18 -35 42 -35q23 0 37 44q12 39 17 95q7 74 11 185l2 55q6 118 23 227q19 112 70.5 172.5t131.5 60.5q39 0 72.5 -13.5t66.5 -41.5l-104 -60q-17 35 -42 35q-22 0 -36 -44q-12 -39 -17 -98q-6 -57 -12 -183l-2 -55
q-6 -115 -23 -226q-19 -112 -70.5 -172.5t-131.5 -60.5q-39 0 -72.5 13.5zM78.5 -180.5q-33.5 13.5 -66.5 41.5l104 60q18 -35 42 -35q23 0 37 44q12 39 17 95q7 74 11 185l2 55q6 118 23 227q19 112 70.5 172.5t131.5 60.5q39 0 72.5 -13.5t66.5 -41.5l-104 -60
q-17 35 -42 35q-22 0 -36 -44q-12 -39 -17 -98q-6 -57 -12 -183l-2 -55q-6 -115 -23 -226q-19 -112 -70.5 -172.5t-131.5 -60.5q-39 0 -72.5 13.5z" />
    <glyph glyph-name="uni222E" unicode="&#x222e;" horiz-adv-x="940" 
d="M247.5 -180.5q-33.5 13.5 -66.5 41.5l104 60q18 -35 42 -35q23 0 37 44q12 39 16 90q-89 23 -141 90t-52 158q0 72 30 129.5t84.5 93t124.5 43.5q22 91 71.5 141t121.5 50q39 0 72.5 -13.5t66.5 -41.5l-104 -60q-17 35 -42 35q-22 0 -36 -44q-10 -34 -15 -78
q85 -26 134 -94t49 -160q0 -102 -62 -172t-165 -85q-22 -99 -72 -152.5t-125 -53.5q-39 0 -72.5 13.5zM392 210l2 55q2 50 11 139q-40 -17 -62.5 -52.5t-22.5 -82.5q0 -41 18 -73.5t51 -53.5zM598 186q23 36 24 83q0 42 -19 75.5t-52 51.5l-4 -76l-2 -55q-2 -47 -10 -132
q40 17 63 53z" />
    <glyph glyph-name="therefore" unicode="&#x2234;" horiz-adv-x="940" 
d="M407.5 406.5q-28.5 27.5 -28.5 67.5t28.5 68t69.5 28q40 0 67.5 -28t27.5 -68t-27.5 -67.5t-67.5 -27.5q-41 0 -69.5 27.5zM187.5 66.5q-28.5 27.5 -28.5 67.5t28.5 68t69.5 28q40 0 67.5 -28t27.5 -68t-27.5 -67.5t-67.5 -27.5q-41 0 -69.5 27.5zM617.5 66.5
q-28.5 27.5 -28.5 67.5t28.5 68t69.5 28q40 0 67.5 -28t27.5 -68t-27.5 -67.5t-67.5 -27.5q-41 0 -69.5 27.5z" />
    <glyph glyph-name="uni2235" unicode="&#x2235;" horiz-adv-x="940" 
d="M617.5 407q-28.5 28 -28.5 68t28.5 67.5t69.5 27.5q40 0 67.5 -27.5t27.5 -67.5t-27.5 -68t-67.5 -28q-41 0 -69.5 28zM407.5 67q-28.5 28 -28.5 68t28.5 67.5t69.5 27.5q40 0 67.5 -27.5t27.5 -67.5t-27.5 -68t-67.5 -28q-41 0 -69.5 28zM187.5 407q-28.5 28 -28.5 68
t28.5 67.5t69.5 27.5q40 0 67.5 -27.5t27.5 -67.5t-27.5 -68t-67.5 -28q-41 0 -69.5 28z" />
    <glyph glyph-name="similar" unicode="&#x223c;" horiz-adv-x="940" 
d="M435 251q-36 28 -58 38.5t-45 10.5q-69 0 -90 -104l-161 60q19 97 79.5 150t150.5 53q50 0 96.5 -16t98.5 -49q41 -27 63.5 -38t42.5 -11q75 0 85 93l161 -60q-18 -93 -80 -142.5t-157 -49.5q-97 0 -186 65z" />
    <glyph glyph-name="uni223D" unicode="&#x223d;" horiz-adv-x="940" 
d="M650 208q65 0 92 20.5t27 66.5t-19.5 67.5t-60.5 21.5q-50 0 -94.5 -29.5t-87.5 -89.5q-63 -85 -126.5 -125t-140.5 -40q-46 0 -90 24q-46 24 -72.5 70.5t-26.5 105.5q0 95 64.5 148.5t178.5 53.5l-9 -119q-57 0 -84.5 -20.5t-27.5 -62.5q0 -37 18 -59t47 -23
q44 -2 76 12q29 14 52.5 36.5t57.5 67.5q60 81 128 124.5t140 43.5q90 0 144 -56t54 -151q0 -205 -242 -205z" />
    <glyph glyph-name="uni2252" unicode="&#x2252;" horiz-adv-x="640" 
d="M62 517h524v-110h-524v110zM407.5 -28q-28.5 28 -28.5 68t28.5 67.5t69.5 27.5q40 0 67.5 -27.5t27.5 -67.5t-27.5 -68t-67.5 -28q-41 0 -69.5 28zM62 297h524v-110h-524v110zM96.5 607q-28.5 28 -28.5 68t28.5 67.5t69.5 27.5q40 0 67.5 -27.5t27.5 -67.5t-27.5 -68
t-67.5 -28q-41 0 -69.5 28z" />
    <glyph glyph-name="notequal" unicode="&#x2260;" horiz-adv-x="640" 
d="M159 132h-101v140h164l50 110h-214v140h278l38 85h147l-38 -85h99v-140h-163l-50 -110h213v-140h-276l-40 -88h-147z" />
    <glyph glyph-name="equivalence" unicode="&#x2261;" horiz-adv-x="940" 
d="M120 567h700v-110h-700v110zM120 147h700v-110h-700v110zM120 357h700v-110h-700v110z" />
    <glyph glyph-name="lessequal" unicode="&#x2264;" horiz-adv-x="684" 
d="M105 342v172l475 138l34 -110l-411 -114l411 -114l-34 -110zM65 145h568v-116h-568v116z" />
    <glyph glyph-name="greaterequal" unicode="&#x2265;" horiz-adv-x="684" 
d="M77 314l411 114l-411 114l34 110l475 -138v-172l-475 -138zM58 145h568v-116h-568v116z" />
    <glyph glyph-name="uni226A" unicode="&#x226a;" horiz-adv-x="940" 
d="M190 251v94l365 333l78 -89l-312 -292l302 -268l-78 -91zM437 334l373 331l75 -86l-312 -282l312 -268l-75 -88l-373 321v72z" />
    <glyph glyph-name="uni226B" unicode="&#x226b;" horiz-adv-x="924" 
d="M317 29l302 268l-312 292l78 89l365 -333v-94l-355 -313zM367 297l-312 282l75 86l373 -331v-72l-373 -321l-75 88z" />
    <glyph glyph-name="propersubset" unicode="&#x2282;" horiz-adv-x="612" 
d="M301 47q-118 0 -181.5 67t-63.5 191t63.5 191.5t181.5 67.5h256v-124h-219q-69 0 -106 -35t-37 -100t37 -99.5t106 -34.5h219v-124h-256z" />
    <glyph glyph-name="propersuperset" unicode="&#x2283;" horiz-adv-x="612" 
d="M56 171h219q69 0 106 34.5t37 99.5t-37 100t-106 35h-219v124h256q118 0 181.5 -67.5t63.5 -191.5t-63.5 -191t-181.5 -67h-256v124z" />
    <glyph glyph-name="reflexsubset" unicode="&#x2286;" horiz-adv-x="640" 
d="M306 154q-119 0 -182 64t-63 184t62.5 184.5t182.5 64.5h256v-114h-234q-151 0 -151 -135q0 -134 151 -134h234v-114h-256zM58 67h524v-120h-524v120z" />
    <glyph glyph-name="reflexsuperset" unicode="&#x2287;" horiz-adv-x="640" 
d="M78 268h234q151 0 151 134q0 135 -151 135h-234v114h256q120 0 182.5 -64.5t62.5 -184.5t-63 -184t-182 -64h-256v114zM58 67h524v-120h-524v120z" />
    <glyph glyph-name="uni2299" unicode="&#x2299;" horiz-adv-x="940" 
d="M235 -99q-106 60 -165.5 165.5t-59.5 234.5q0 130 60 235q60 106 165.5 165.5t234.5 59.5q130 0 235 -60q106 -60 165.5 -165.5t59.5 -234.5q0 -130 -60 -235q-60 -106 -165.5 -165.5t-234.5 -59.5q-130 0 -235 60zM643 -11q78 48 122 130.5t44 181.5q0 100 -44 183
q-45 83 -122.5 129.5t-172.5 46.5q-96 0 -173 -47q-78 -48 -122 -130.5t-44 -181.5q0 -100 45 -183q45 -84 122 -130t172 -46q96 0 173 47zM365.5 117q-45.5 28 -70.5 76.5t-25 107.5t25 107.5t70.5 76.5t104.5 28t104.5 -28t70.5 -76.5t25 -107.5t-25 -107.5t-70.5 -76.5
t-104.5 -28t-104.5 28z" />
    <glyph glyph-name="uni22A5" unicode="&#x22a5;" horiz-adv-x="940" 
d="M135 100h229v610h212v-610h229v-172h-670v172z" />
    <glyph glyph-name="uni2312" unicode="&#x2312;" horiz-adv-x="600" 
d="M53 564q21 104 86 160t167 56t167.5 -56t86.5 -159l-123 -33q-15 69 -49 106t-82 37q-46 0 -78 -36t-47 -107z" />
    <glyph glyph-name="uni2460" unicode="&#x2460;" 
d="M265 -99q-106 60 -165.5 165.5t-59.5 234.5q0 130 60 235q60 106 165.5 165.5t234.5 59.5q130 0 235 -60q106 -60 165.5 -165.5t59.5 -234.5q0 -130 -60 -235q-60 -106 -165.5 -165.5t-234.5 -59.5q-130 0 -235 60zM440 471h-77v73q19 2 40.5 12.5t36.5 25.5h144v-555
h-144v444zM679 -21q80 49 125 133.5t45 188.5t-45 189q-46 85 -126 133t-178 48t-178 -48q-80 -49 -125.5 -134t-45.5 -188q0 -106 46 -188q45 -85 125 -133.5t178 -48.5q100 0 179 48z" />
    <glyph glyph-name="uni2461" unicode="&#x2461;" 
d="M265 -99q-106 60 -165.5 165.5t-59.5 234.5q0 130 60 235q60 106 165.5 165.5t234.5 59.5q130 0 235 -60q106 -60 165.5 -165.5t59.5 -234.5q0 -130 -60 -235q-60 -106 -165.5 -165.5t-234.5 -59.5q-130 0 -235 60zM679 -21q80 49 125 133.5t45 188.5t-45 189
q-46 85 -126 133t-178 48t-178 -48q-80 -49 -125.5 -134t-45.5 -188q0 -106 46 -188q45 -85 125 -133.5t178 -48.5q100 0 179 48zM315 145q136 130 179 178q31 32 45 57.5t14 51.5q0 24 -13.5 40t-36.5 16q-29 0 -45.5 -24.5t-16.5 -64.5h-133q0 56 25 100t69 69t101 25
q52 0 94 -21.5t66 -58.5t24 -82q0 -42 -21 -83t-65 -88q-62 -62 -131 -122q46 17 79 17h148v-105h-382v95z" />
    <glyph glyph-name="uni2462" unicode="&#x2462;" 
d="M265 -99q-106 60 -165.5 165.5t-59.5 234.5q0 130 60 235q60 106 165.5 165.5t234.5 59.5q130 0 235 -60q106 -60 165.5 -165.5t59.5 -234.5q0 -130 -60 -235q-60 -106 -165.5 -165.5t-234.5 -59.5q-130 0 -235 60zM386.5 50q-48.5 23 -75.5 64t-28 93h133q2 -34 24 -55
t57 -21q32 0 54 18.5t22 46.5q0 35 -28 54t-84 19h-67l-15 92h50q57 0 86.5 18t29.5 49q0 22 -14.5 37t-36.5 15q-25 0 -40.5 -17.5t-15.5 -44.5h-134q0 47 24 84.5t68 59.5t103 22q52 0 93 -20t64 -53t23 -69t-22.5 -65.5t-62.5 -46.5v-6q49 -10 80.5 -47t31.5 -85
q0 -47 -27 -84.5t-74 -59t-105 -21.5q-65 0 -113.5 23zM679 -21q80 49 125 133.5t45 188.5t-45 189q-46 85 -126 133t-178 48t-178 -48q-80 -49 -125.5 -134t-45.5 -188q0 -106 46 -188q45 -85 125 -133.5t178 -48.5q100 0 179 48z" />
    <glyph glyph-name="uni2463" unicode="&#x2463;" 
d="M265 -99q-106 60 -165.5 165.5t-59.5 234.5q0 130 60 235q60 106 165.5 165.5t234.5 59.5q130 0 235 -60q106 -60 165.5 -165.5t59.5 -234.5q0 -130 -60 -235q-60 -106 -165.5 -165.5t-234.5 -59.5q-130 0 -235 60zM519 135h-252v96l162 340h225v-332h62v-104h-62v-110
h-135v110zM679 -21q80 49 125 133.5t45 188.5t-45 189q-46 85 -126 133t-178 48t-178 -48q-80 -49 -125.5 -134t-45.5 -188q0 -106 46 -188q45 -85 125 -133.5t178 -48.5q100 0 179 48zM519 239v117q0 87 4 136q-16 -51 -48 -120l-57 -133h101z" />
    <glyph glyph-name="uni2464" unicode="&#x2464;" 
d="M265 -99q-106 60 -165.5 165.5t-59.5 234.5q0 130 60 235q60 106 165.5 165.5t234.5 59.5q130 0 235 -60q106 -60 165.5 -165.5t59.5 -234.5q0 -130 -60 -235q-60 -106 -165.5 -165.5t-234.5 -59.5q-130 0 -235 60zM394.5 38q-48.5 24 -76 68t-27.5 100h135
q0 -37 21.5 -61t53.5 -24q29 0 47 23.5t18 60.5q0 35 -17.5 57.5t-44.5 22.5q-29 0 -60 -25h-140l36 308h332v-104h-207l-13 -103q15 9 34.5 14.5t37.5 5.5q79 0 128.5 -50.5t49.5 -130.5q0 -55 -25.5 -97t-70.5 -65.5t-102 -23.5q-61 0 -109.5 24zM679 -21q80 49 125 133.5
t45 188.5t-45 189q-46 85 -126 133t-178 48t-178 -48q-80 -49 -125.5 -134t-45.5 -188q0 -106 46 -188q45 -85 125 -133.5t178 -48.5q100 0 179 48z" />
    <glyph glyph-name="uni2465" unicode="&#x2465;" 
d="M265 -99q-106 60 -165.5 165.5t-59.5 234.5q0 130 60 235q60 106 165.5 165.5t234.5 59.5q130 0 235 -60q106 -60 165.5 -165.5t59.5 -234.5q0 -130 -60 -235q-60 -106 -165.5 -165.5t-234.5 -59.5q-130 0 -235 60zM548 153q18 22 18 56q0 27 -17.5 46t-41.5 19
q-27 0 -44 -15l-35 65h-5v-39q0 -77 20.5 -115.5t59.5 -38.5q27 0 45 22zM347 93.5q-58 68.5 -58 191.5q0 146 54 224t154 78q56 0 99 -27q40 -26 65 -65t28 -80h-133q-4 30 -19.5 48t-38.5 18q-31 0 -50 -32.5t-23 -93.5q20 10 48 16t53 6q50 0 89.5 -21.5t62 -59.5
t22.5 -87q0 -53 -25 -95t-69 -65.5t-99 -23.5q-102 0 -160 68.5zM679 -21q80 49 125 133.5t45 188.5t-45 189q-46 85 -126 133t-178 48t-178 -48q-80 -49 -125.5 -134t-45.5 -188q0 -106 46 -188q45 -85 125 -133.5t178 -48.5q100 0 179 48z" />
    <glyph glyph-name="uni2466" unicode="&#x2466;" 
d="M265 -99q-106 60 -165.5 165.5t-59.5 234.5q0 130 60 235q60 106 165.5 165.5t234.5 59.5q130 0 235 -60q106 -60 165.5 -165.5t59.5 -234.5q0 -130 -60 -235q-60 -106 -165.5 -165.5t-234.5 -59.5q-130 0 -235 60zM546 445h-217l-19 102h376v-93l-141 -445h-139z
M679 -21q80 49 125 133.5t45 188.5t-45 189q-46 85 -126 133t-178 48t-178 -48q-80 -49 -125.5 -134t-45.5 -188q0 -106 46 -188q45 -85 125 -133.5t178 -48.5q100 0 179 48z" />
    <glyph glyph-name="uni2467" unicode="&#x2467;" 
d="M265 -99q-106 60 -165.5 165.5t-59.5 234.5q0 130 60 235q60 106 165.5 165.5t234.5 59.5q130 0 235 -60q106 -60 165.5 -165.5t59.5 -234.5q0 -130 -60 -235q-60 -106 -165.5 -165.5t-234.5 -59.5q-130 0 -235 60zM559 159q20 16 20 40t-20.5 43.5t-53.5 27.5
q-33 -6 -52.5 -26t-19.5 -44t20.5 -40.5t53.5 -16.5q32 0 52 16zM679 -21q80 49 125 133.5t45 188.5t-45 189q-46 85 -126 133t-178 48t-178 -48q-80 -49 -125.5 -134t-45.5 -188q0 -106 46 -188q45 -85 125 -133.5t178 -48.5q100 0 179 48zM404 62.5q-45 18.5 -70.5 51
t-25.5 73.5q0 80 88 126q-32 19 -51.5 48.5t-19.5 61.5q0 40 23.5 72t65.5 50.5t94 18.5q51 0 91.5 -18t63.5 -49.5t23 -70.5q0 -34 -20.5 -61.5t-56.5 -46.5q48 -25 71 -55.5t23 -71.5q0 -42 -25.5 -75.5t-70.5 -52.5t-102 -19q-56 0 -101 18.5zM547 385q14 17 14 33
q0 22 -14 35t-40 13t-42 -13.5t-16 -33.5q0 -33 59 -63q25 12 39 29z" />
    <glyph glyph-name="uni2468" unicode="&#x2468;" 
d="M265 -99q-106 60 -165.5 165.5t-59.5 234.5q0 130 60 235q60 106 165.5 165.5t234.5 59.5q130 0 235 -60q106 -60 165.5 -165.5t59.5 -234.5q0 -130 -60 -235q-60 -106 -165.5 -165.5t-234.5 -59.5q-130 0 -235 60zM679 -21q80 49 125 133.5t45 188.5t-45 189
q-46 85 -126 133t-178 48t-178 -48q-80 -49 -125.5 -134t-45.5 -188q0 -106 46 -188q45 -85 125 -133.5t178 -48.5q100 0 179 48zM409 56q-43 24 -67.5 65t-26.5 90h132q2 -36 20 -57t47 -21q32 0 50 31t21 104q-41 -23 -94 -23q-78 0 -127.5 45.5t-49.5 119.5q0 48 24 86.5
t67 60t97 21.5q102 0 158 -66.5t56 -190.5q0 -146 -51.5 -219t-151.5 -73q-60 0 -104 27zM587 292q0 38 -1 45q-5 81 -26 108q-23 29 -54 29q-25 0 -43 -18t-18 -47t17.5 -47t45.5 -18q26 0 44 9l28 -61h7z" />
    <glyph glyph-name="uni2469" unicode="&#x2469;" 
d="M265 -99q-106 60 -165.5 165.5t-59.5 234.5q0 130 60 235q60 106 165.5 165.5t234.5 59.5q130 0 235 -60q106 -60 165.5 -165.5t59.5 -234.5q0 -130 -60 -235q-60 -106 -165.5 -165.5t-234.5 -59.5q-130 0 -235 60zM289 427h-62v58q14 1 31.5 9.5t30.5 21.5h115v-445
h-115v356zM679 -21q80 49 125 133.5t45 188.5t-45 189q-46 85 -126 133t-178 48t-178 -48q-80 -49 -125.5 -134t-45.5 -188q0 -106 46 -188q45 -85 125 -133.5t178 -48.5q100 0 179 48zM490.5 120q-46.5 60 -46.5 167q0 113 46 176.5t128 63.5t127.5 -63.5t45.5 -177.5
q0 -107 -45.5 -166.5t-127.5 -59.5q-81 0 -127.5 60zM663 188q16 36 16 111q0 68 -16 103q-16 37 -46 37q-28 0 -45 -38q-16 -36 -16 -108q0 -66 17 -106q17 -39 45 -39q29 0 45 40z" />
    <glyph glyph-name="uni246A" unicode="&#x246a;" 
d="M265 -99q-106 60 -165.5 165.5t-59.5 234.5q0 130 60 235q60 106 165.5 165.5t234.5 59.5q130 0 235 -60q106 -60 165.5 -165.5t59.5 -234.5q0 -130 -60 -235q-60 -106 -165.5 -165.5t-234.5 -59.5q-130 0 -235 60zM325 441h-68v63q14 1 33 11t35 23h125v-487h-125v390z
M679 -21q80 49 125 133.5t45 188.5t-45 189q-46 85 -126 133t-178 48t-178 -48q-80 -49 -125.5 -134t-45.5 -188q0 -106 46 -188q45 -85 125 -133.5t178 -48.5q100 0 179 48zM572 441h-68v63q15 1 34.5 10.5t33.5 23.5h125v-487h-125v390z" />
    <glyph glyph-name="uni246B" unicode="&#x246b;" 
d="M265 -99q-106 60 -165.5 165.5t-59.5 234.5q0 130 60 235q60 106 165.5 165.5t234.5 59.5q130 0 235 -60q106 -60 165.5 -165.5t59.5 -234.5q0 -130 -60 -235q-60 -106 -165.5 -165.5t-234.5 -59.5q-130 0 -235 60zM292 435h-63v60q16 2 33.5 10.5t29.5 20.5h117v-461
h-117v370zM679 -21q80 49 125 133.5t45 188.5t-45 189q-46 85 -126 133t-178 48t-178 -48q-80 -49 -125.5 -134t-45.5 -188q0 -106 46 -188q45 -85 125 -133.5t178 -48.5q100 0 179 48zM455 151q101 98 152 157q27 29 38.5 50t11.5 44q0 21 -12 35t-30 14q-24 0 -39 -22
t-15 -56h-111q0 74 46 121.5t119 47.5q45 0 80 -18.5t55 -50.5t20 -71q0 -38 -18 -73.5t-55 -75.5q-43 -47 -109 -107q34 14 66 14h104v-91h-303v82z" />
    <glyph glyph-name="uni246C" unicode="&#x246c;" 
d="M265 -99q-106 60 -165.5 165.5t-59.5 234.5q0 130 60 235q60 106 165.5 165.5t234.5 59.5q130 0 235 -60q106 -60 165.5 -165.5t59.5 -234.5q0 -130 -60 -235q-60 -106 -165.5 -165.5t-234.5 -59.5q-130 0 -235 60zM281 430h-64v61q15 2 33.5 11.5t30.5 21.5h116v-470
h-116v376zM679 -21q80 49 125 133.5t45 188.5t-45 189q-46 85 -126 133t-178 48t-178 -48q-80 -49 -125.5 -134t-45.5 -188q0 -106 46 -188q45 -85 125 -133.5t178 -48.5q100 0 179 48zM485 85.5q-51 43.5 -52 115.5h114q1 -30 20 -48.5t49 -18.5q27 0 45 16t18 41
q0 65 -94 65h-58l-13 81h42q49 0 75 16t26 44q0 20 -12.5 32.5t-31.5 12.5q-21 0 -34.5 -15.5t-13.5 -39.5h-114q0 65 46 106t120 41q44 0 79 -17t54.5 -46t19.5 -63q0 -31 -19 -57t-54 -42v-4q43 -10 69.5 -42.5t26.5 -75.5q0 -41 -22 -74t-62 -52t-92 -19q-81 0 -132 43.5
z" />
    <glyph glyph-name="uni246D" unicode="&#x246d;" 
d="M265 -99q-106 60 -165.5 165.5t-59.5 234.5q0 130 60 235q60 106 165.5 165.5t234.5 59.5q130 0 235 -60q106 -60 165.5 -165.5t59.5 -234.5q0 -130 -60 -235q-60 -106 -165.5 -165.5t-234.5 -59.5q-130 0 -235 60zM290 434h-59v59q15 2 31.5 11t27.5 21h111v-458h-111
v367zM679 -21q80 49 125 133.5t45 188.5t-45 189q-46 85 -126 133t-178 48t-178 -48q-80 -49 -125.5 -134t-45.5 -188q0 -106 46 -188q45 -85 125 -133.5t178 -48.5q100 0 179 48zM632 159h-196v81l127 285h175v-279h49v-87h-49v-92h-106v92zM632 246v98q0 74 4 115
q-21 -67 -37 -101l-45 -112h78z" />
    <glyph glyph-name="uni246E" unicode="&#x246e;" 
d="M265 -99q-106 60 -165.5 165.5t-59.5 234.5q0 130 60 235q60 106 165.5 165.5t234.5 59.5q130 0 235 -60q106 -60 165.5 -165.5t59.5 -234.5q0 -130 -60 -235q-60 -106 -165.5 -165.5t-234.5 -59.5q-130 0 -235 60zM292 432h-57v62q13 1 29.5 10t27.5 22h106v-464h-106
v370zM679 -21q80 49 125 133.5t45 188.5t-45 189q-46 85 -126 133t-178 48t-178 -48q-80 -49 -125.5 -134t-45.5 -188q0 -106 46 -188q45 -85 125 -133.5t178 -48.5q100 0 179 48zM494 87.5q-46 46.5 -46 118.5h104q0 -32 16.5 -52t40.5 -20q22 0 36 20t14 51q0 30 -13.5 49
t-33.5 19q-23 0 -46 -20h-108l29 266h253v-90h-159l-9 -89q22 16 53 16q61 0 99.5 -42.5t38.5 -110.5q0 -72 -42.5 -117t-108.5 -45q-72 0 -118 46.5z" />
    <glyph glyph-name="uni2474" unicode="&#x2474;" 
d="M719 -95q47 95 72 200t25 205q0 103 -25 208t-72 197l92 44q71 -82 110 -199t39 -250t-39 -250t-110 -199zM189 -139q-71 82 -110 199t-39 250t39 250t110 199l92 -44q-47 -95 -72 -200t-25 -205t25 -205t72 -200zM440 481h-77v73q19 2 40.5 12.5t36.5 25.5h144v-555
h-144v444z" />
    <glyph glyph-name="uni2475" unicode="&#x2475;" 
d="M719 -95q47 95 72 200t25 205q0 103 -25 208t-72 197l92 44q71 -82 110 -199t39 -250t-39 -250t-110 -199zM189 -139q-71 82 -110 199t-39 250t39 250t110 199l92 -44q-47 -95 -72 -200t-25 -205t25 -205t72 -200zM315 165q136 130 179 178q31 32 45 57.5t14 51.5
q0 24 -13.5 40t-36.5 16q-29 0 -45.5 -24.5t-16.5 -64.5h-133q0 56 25 100t69 69t101 25q52 0 94 -21.5t66 -58.5t24 -82q0 -42 -21 -83t-65 -88q-62 -62 -131 -122q46 17 79 17h148v-105h-382v95z" />
    <glyph glyph-name="uni2476" unicode="&#x2476;" 
d="M386.5 70q-48.5 23 -75.5 64t-28 93h133q2 -34 24 -55t57 -21q32 0 54 18.5t22 46.5q0 35 -28 54t-84 19h-67l-15 92h50q57 0 86.5 18t29.5 49q0 22 -14.5 37t-36.5 15q-25 0 -40.5 -17.5t-15.5 -44.5h-134q0 47 24 84.5t68 59.5t103 22q52 0 93 -20t64 -53t23 -69
t-22.5 -65.5t-62.5 -46.5v-6q49 -10 80.5 -47t31.5 -85q0 -47 -27 -84.5t-74 -59t-105 -21.5q-65 0 -113.5 23zM189 -139q-71 82 -110 199t-39 250t39 250t110 199l92 -44q-47 -95 -72 -200t-25 -205t25 -205t72 -200zM719 -95q47 95 72 200t25 205q0 103 -25 208t-72 197
l92 44q71 -82 110 -199t39 -250t-39 -250t-110 -199z" />
    <glyph glyph-name="uni2477" unicode="&#x2477;" 
d="M519 155h-252v96l162 340h225v-332h62v-104h-62v-110h-135v110zM189 -139q-71 82 -110 199t-39 250t39 250t110 199l92 -44q-47 -95 -72 -200t-25 -205t25 -205t72 -200zM519 259v117q0 87 4 136q-16 -51 -48 -120l-57 -133h101zM719 -95q47 95 72 200t25 205
q0 103 -25 208t-72 197l92 44q71 -82 110 -199t39 -250t-39 -250t-110 -199z" />
    <glyph glyph-name="uni2478" unicode="&#x2478;" 
d="M394.5 58q-48.5 24 -76 68t-27.5 100h135q0 -37 21.5 -61t53.5 -24q29 0 47 23.5t18 60.5q0 35 -17.5 57.5t-44.5 22.5q-29 0 -60 -25h-140l36 308h332v-104h-207l-13 -103q15 9 34.5 14.5t37.5 5.5q79 0 128.5 -50.5t49.5 -130.5q0 -55 -25.5 -97t-70.5 -65.5
t-102 -23.5q-61 0 -109.5 24zM189 -139q-71 82 -110 199t-39 250t39 250t110 199l92 -44q-47 -95 -72 -200t-25 -205t25 -205t72 -200zM719 -95q47 95 72 200t25 205q0 103 -25 208t-72 197l92 44q71 -82 110 -199t39 -250t-39 -250t-110 -199z" />
    <glyph glyph-name="uni2479" unicode="&#x2479;" 
d="M347 113.5q-58 68.5 -58 191.5q0 146 54 224t154 78q56 0 99 -27q40 -26 65 -65t28 -80h-133q-4 30 -19.5 48t-38.5 18q-31 0 -50 -32.5t-23 -93.5q20 10 48 16t53 6q50 0 89.5 -21.5t62 -59.5t22.5 -87q0 -53 -25 -95t-69 -65.5t-99 -23.5q-102 0 -160 68.5zM189 -139
q-71 82 -110 199t-39 250t39 250t110 199l92 -44q-47 -95 -72 -200t-25 -205t25 -205t72 -200zM548 173q18 22 18 56q0 27 -17.5 46t-41.5 19q-27 0 -44 -15l-35 65h-5v-39q0 -77 20.5 -115.5t59.5 -38.5q27 0 45 22zM719 -95q47 95 72 200t25 205q0 103 -25 208t-72 197
l92 44q71 -82 110 -199t39 -250t-39 -250t-110 -199z" />
    <glyph glyph-name="uni247A" unicode="&#x247a;" 
d="M719 -95q47 95 72 200t25 205q0 103 -25 208t-72 197l92 44q71 -82 110 -199t39 -250t-39 -250t-110 -199zM189 -139q-71 82 -110 199t-39 250t39 250t110 199l92 -44q-47 -95 -72 -200t-25 -205t25 -205t72 -200zM546 465h-217l-19 102h376v-93l-141 -445h-139z" />
    <glyph glyph-name="uni247B" unicode="&#x247b;" 
d="M388.5 57.5q-49.5 20.5 -77 56t-27.5 79.5q0 42 24.5 77.5t71.5 60.5q-36 21 -57 53t-21 67q0 44 25.5 79t71 55t103.5 20q57 0 101.5 -20.5t68.5 -55t24 -75.5q0 -37 -22 -67t-61 -51q52 -28 77 -61.5t25 -77.5t-26.5 -80.5t-76 -58t-113.5 -21.5q-61 0 -110.5 20.5z
M189 -139q-71 82 -110 199t-39 250t39 250t110 199l92 -44q-47 -95 -72 -200t-25 -205t25 -205t72 -200zM557.5 162.5q21.5 17.5 21.5 44.5q0 25 -23 47t-57 30q-35 -6 -57 -28t-22 -48q0 -27 22.5 -45t58.5 -18q35 0 56.5 17.5zM545 410q15 18 15 36q0 23 -15.5 37
t-43.5 14q-29 0 -46 -14t-17 -36q0 -39 64 -70q28 15 43 33zM719 -95q47 95 72 200t25 205q0 103 -25 208t-72 197l92 44q71 -82 110 -199t39 -250t-39 -250t-110 -199z" />
    <glyph glyph-name="uni247C" unicode="&#x247c;" 
d="M409 76q-43 24 -67.5 65t-26.5 90h132q2 -36 20 -57t47 -21q32 0 50 31t21 104q-41 -23 -94 -23q-78 0 -127.5 45.5t-49.5 119.5q0 48 24 86.5t67 60t97 21.5q102 0 158 -66.5t56 -190.5q0 -146 -51.5 -219t-151.5 -73q-60 0 -104 27zM189 -139q-71 82 -110 199t-39 250
t39 250t110 199l92 -44q-47 -95 -72 -200t-25 -205t25 -205t72 -200zM587 312q0 38 -1 45q-5 81 -26 108q-23 29 -54 29q-25 0 -43 -18t-18 -47t17.5 -47t45.5 -18q26 0 44 9l28 -61h7zM719 -95q47 95 72 200t25 205q0 103 -25 208t-72 197l92 44q71 -82 110 -199t39 -250
t-39 -250t-110 -199z" />
    <glyph glyph-name="uni247D" unicode="&#x247d;" 
d="M719 -95q47 95 72 200t25 205q0 103 -25 208t-72 197l92 44q71 -82 110 -199t39 -250t-39 -250t-110 -199zM189 -139q-71 82 -110 199t-39 250t39 250t110 199l92 -44q-47 -95 -72 -200t-25 -205t25 -205t72 -200zM289 447h-62v58q14 1 31.5 9.5t30.5 21.5h115v-445h-115
v356zM490.5 140q-46.5 60 -46.5 167q0 113 46 176.5t128 63.5t127.5 -63.5t45.5 -177.5q0 -107 -45.5 -166.5t-127.5 -59.5q-81 0 -127.5 60zM663 208q16 36 16 111q0 68 -16 103q-16 37 -46 37q-28 0 -45 -38q-16 -36 -16 -108q0 -66 17 -106q17 -39 45 -39q29 0 45 40z
" />
    <glyph glyph-name="uni247E" unicode="&#x247e;" 
d="M719 -95q47 95 72 200t25 205q0 103 -25 208t-72 197l92 44q71 -82 110 -199t39 -250t-39 -250t-110 -199zM189 -139q-71 82 -110 199t-39 250t39 250t110 199l92 -44q-47 -95 -72 -200t-25 -205t25 -205t72 -200zM325 461h-68v63q14 1 33 11t35 23h125v-487h-125v390z
M572 461h-68v63q15 1 34.5 10.5t33.5 23.5h125v-487h-125v390z" />
    <glyph glyph-name="uni247F" unicode="&#x247f;" 
d="M719 -95q47 95 72 200t25 205q0 103 -25 208t-72 197l92 44q71 -82 110 -199t39 -250t-39 -250t-110 -199zM189 -139q-71 82 -110 199t-39 250t39 250t110 199l92 -44q-47 -95 -72 -200t-25 -205t25 -205t72 -200zM292 455h-63v60q16 2 33.5 10.5t29.5 20.5h117v-461
h-117v370zM455 171q101 98 152 157q27 29 38.5 50t11.5 44q0 21 -12 35t-30 14q-24 0 -39 -22t-15 -56h-111q0 74 46 121.5t119 47.5q45 0 80 -18.5t55 -50.5t20 -71q0 -38 -18 -73.5t-55 -75.5q-43 -47 -109 -107q34 14 66 14h104v-91h-303v82z" />
    <glyph glyph-name="uni2480" unicode="&#x2480;" 
d="M719 -95q47 95 72 200t25 205q0 103 -25 208t-72 197l92 44q71 -82 110 -199t39 -250t-39 -250t-110 -199zM189 -139q-71 82 -110 199t-39 250t39 250t110 199l92 -44q-47 -95 -72 -200t-25 -205t25 -205t72 -200zM281 450h-64v61q15 2 33.5 11.5t30.5 21.5h116v-470
h-116v376zM485 105.5q-51 43.5 -52 115.5h114q1 -30 20 -48.5t49 -18.5q27 0 45 16t18 41q0 65 -94 65h-58l-13 81h42q49 0 75 16t26 44q0 20 -12.5 32.5t-31.5 12.5q-21 0 -34.5 -15.5t-13.5 -39.5h-114q0 65 46 106t120 41q44 0 79 -17t54.5 -46t19.5 -63q0 -31 -19 -57
t-54 -42v-4q43 -10 69.5 -42.5t26.5 -75.5q0 -41 -22 -74t-62 -52t-92 -19q-81 0 -132 43.5z" />
    <glyph glyph-name="uni2481" unicode="&#x2481;" 
d="M719 -95q47 95 72 200t25 205q0 103 -25 208t-72 197l92 44q71 -82 110 -199t39 -250t-39 -250t-110 -199zM189 -139q-71 82 -110 199t-39 250t39 250t110 199l92 -44q-47 -95 -72 -200t-25 -205t25 -205t72 -200zM290 454h-59v59q15 2 31.5 11t27.5 21h111v-458h-111
v367zM632 179h-196v76l127 290h165v-284h49v-82h-49v-92h-96v92zM632 261v103q0 74 4 115l-18 -51l-10 -28l-9 -22l-45 -117h78z" />
    <glyph glyph-name="uni2482" unicode="&#x2482;" 
d="M719 -95q47 95 72 200t25 205q0 103 -25 208t-72 197l92 44q71 -82 110 -199t39 -250t-39 -250t-110 -199zM189 -139q-71 82 -110 199t-39 250t39 250t110 199l92 -44q-47 -95 -72 -200t-25 -205t25 -205t72 -200zM292 452h-57v62q13 1 29.5 10t27.5 22h106v-464h-106
v370zM494 107.5q-46 46.5 -46 118.5h104q0 -32 16.5 -52t40.5 -20q22 0 36 20t14 51q0 30 -13.5 49t-33.5 19q-23 0 -46 -20h-108l29 266h253v-90h-159l-9 -89q22 16 53 16q61 0 99.5 -42.5t38.5 -110.5q0 -72 -42.5 -117t-108.5 -45q-72 0 -118 46.5z" />
    <glyph glyph-name="uni249C" unicode="&#x249c;" 
d="M719 -95q47 95 72 200t25 205q0 103 -25 208t-72 197l92 44q71 -82 110 -199t39 -250t-39 -250t-110 -199zM189 -139q-71 82 -110 199t-39 250t39 250t110 199l92 -44q-47 -95 -72 -200t-25 -205t25 -205t72 -200zM359 115q-40 24 -62.5 72.5t-22.5 115.5q0 65 24 115
t66.5 77.5t97.5 27.5q24 0 37 -10l56 -111h5v105h134v-401h-121l-9 42q-41 -56 -123 -56q-44 0 -82 23zM532 226.5q23 21.5 28 50.5v88q-34 45 -76 45q-37 0 -57.5 -26.5t-20.5 -72.5q0 -50 19.5 -78t55.5 -28q28 0 51 21.5z" />
    <glyph glyph-name="uni249D" unicode="&#x249d;" 
d="M445 134v-85h-128v551h128v-117l-4 -61q53 38 115 38q79 0 123 -50.5t44 -142.5q0 -106 -53.5 -169t-146.5 -63h-12zM189 -139q-71 82 -110 199t-39 250t39 250t110 199l92 -44q-47 -95 -72 -200t-25 -205t25 -205t72 -200zM464 146q63 0 96 31t33 88q0 39 -18 61t-51 22
q-44 0 -79 -35v-167h19zM719 -95q47 95 72 200t25 205q0 103 -25 208t-72 197l92 44q71 -82 110 -199t39 -250t-39 -250t-110 -199z" />
    <glyph glyph-name="uni249E" unicode="&#x249e;" 
d="M719 -95q47 95 72 200t25 205q0 103 -25 208t-72 197l92 44q71 -82 110 -199t39 -250t-39 -250t-110 -199zM189 -139q-71 82 -110 199t-39 250t39 250t110 199l92 -44q-47 -95 -72 -200t-25 -205t25 -205t72 -200zM389 108.5q-50 27.5 -77.5 79t-27.5 119.5
q0 67 27.5 118t77.5 79t115 28q87 0 145 -48t65 -126h-134q-23 56 -76 56q-38 0 -61 -29t-23 -78t23 -78.5t61 -29.5q31 0 49.5 14.5t26.5 44.5h134q-7 -85 -62 -131t-148 -46q-65 0 -115 27.5z" />
    <glyph glyph-name="uni249F" unicode="&#x249f;" 
d="M359 67q-40 24 -62.5 72.5t-22.5 115.5q0 65 24 115t66.5 77.5t97.5 27.5q24 0 37 -10l56 -111h5v271h134v-567h-121l-8 43q-42 -57 -124 -57q-44 0 -82 23zM189 -139q-71 82 -110 199t-39 250t39 250t110 199l92 -44q-47 -95 -72 -200t-25 -205t25 -205t72 -200z
M532 178.5q23 21.5 28 50.5v88q-34 45 -76 45q-37 0 -57.5 -26.5t-20.5 -72.5q0 -50 19.5 -78t55.5 -28q28 0 51 21.5zM719 -95q47 95 72 200t25 205q0 103 -25 208t-72 197l92 44q71 -82 110 -199t39 -250t-39 -250t-110 -199z" />
    <glyph glyph-name="uni24A0" unicode="&#x24a0;" 
d="M378 104.5q-54 28.5 -83.5 81t-29.5 121.5q0 70 29.5 124.5t83.5 84.5t125 30q69 0 121.5 -29.5t82 -83.5t32.5 -124v-34h-339q7 -39 35.5 -62.5t67.5 -23.5q28 0 50 10.5t33 30.5h143q-22 -72 -81.5 -113t-144.5 -41q-71 0 -125 28.5zM189 -139q-71 82 -110 199t-39 250
t39 250t110 199l92 -44q-47 -95 -72 -200t-25 -205t25 -205t72 -200zM599 364q-9 34 -35 52.5t-62 18.5q-37 0 -63.5 -19t-35.5 -52h196zM719 -95q47 95 72 200t25 205q0 103 -25 208t-72 197l92 44q71 -82 110 -199t39 -250t-39 -250t-110 -199z" />
    <glyph glyph-name="uni24A1" unicode="&#x24a1;" 
d="M719 -95q47 95 72 200t25 205q0 103 -25 208t-72 197l92 44q71 -82 110 -199t39 -250t-39 -250t-110 -199zM189 -139q-71 82 -110 199t-39 250t39 250t110 199l92 -44q-47 -95 -72 -200t-25 -205t25 -205t72 -200zM419 322h-84v107h84v32q0 49 13 74q13 29 53.5 42.5
t110.5 13.5h29v-97q-29 -1 -43 -5.5t-20.5 -17t-6.5 -38.5v-4h88v-107h-88v-298h-136v298z" />
    <glyph glyph-name="uni24A2" unicode="&#x24a2;" 
d="M346 127h76q57 0 82 9q26 8 35.5 28t10.5 63q-42 -50 -119 -50q-43 0 -81 23q-40 24 -63 71t-23 111q0 63 24 111.5t66.5 75t97.5 26.5q24 0 37 -10l56 -112h5v105h135l-1 -289q-1 -117 -18.5 -169t-67 -70.5t-160.5 -18.5h-92v96zM189 -139q-71 82 -110 199t-39 250
t39 250t110 199l92 -44q-47 -95 -72 -200t-25 -205t25 -205t72 -200zM522.5 312q22.5 21 27.5 51v74q-34 45 -76 45q-36 0 -57 -25t-21 -67q0 -46 19.5 -72.5t55.5 -26.5q29 0 51.5 21zM719 -95q47 95 72 200t25 205q0 103 -25 208t-72 197l92 44q71 -82 110 -199t39 -250
t-39 -250t-110 -199z" />
    <glyph glyph-name="uni24A3" unicode="&#x24a3;" 
d="M719 -95q47 95 72 200t25 205q0 103 -25 208t-72 197l92 44q71 -82 110 -199t39 -250t-39 -250t-110 -199zM189 -139q-71 82 -110 199t-39 250t39 250t110 199l92 -44q-47 -95 -72 -200t-25 -205t25 -205t72 -200zM311 576h127v-112l-5 -72q23 18 51.5 30t53.5 16l28 2
q60 0 95.5 -41.5t35.5 -116.5v-237h-127v212q0 39 -10.5 57t-32.5 18q-8 0 -23 -4q-32 -8 -66 -34v-249h-127v531z" />
    <glyph glyph-name="uni24A4" unicode="&#x24a4;" 
d="M719 -95q47 95 72 200t25 205q0 103 -25 208t-72 197l92 44q71 -82 110 -199t39 -250t-39 -250t-110 -199zM189 -139q-71 82 -110 199t-39 250t39 250t110 199l92 -44q-47 -95 -72 -200t-25 -205t25 -205t72 -200zM439 423h122v-369h-122v369zM447 470.5
q-20 18.5 -20 47.5t20 48t52 19q33 0 53 -19t20 -48t-20 -47.5t-53 -18.5q-32 0 -52 18.5z" />
    <glyph glyph-name="uni24A5" unicode="&#x24a5;" 
d="M719 -95q47 95 72 200t25 205q0 103 -25 208t-72 197l92 44q71 -82 110 -199t39 -250t-39 -250t-110 -199zM189 -139q-71 82 -110 199t-39 250t39 250t110 199l92 -44q-47 -95 -72 -200t-25 -205t25 -205t72 -200zM408 76q35 1 47.5 12t12.5 43v328h112v-317
q0 -58 -15 -88q-15 -29 -44.5 -40.5t-85.5 -11.5h-27v74zM476.5 503q-18.5 17 -18.5 43q0 27 18.5 44t47.5 17t47.5 -17t18.5 -44q0 -26 -18.5 -43t-47.5 -17t-47.5 17z" />
    <glyph glyph-name="uni24A6" unicode="&#x24a6;" 
d="M719 -95q47 95 72 200t25 205q0 103 -25 208t-72 197l92 44q71 -82 110 -199t39 -250t-39 -250t-110 -199zM189 -139q-71 82 -110 199t-39 250t39 250t110 199l92 -44q-47 -95 -72 -200t-25 -205t25 -205t72 -200zM329 566h118v-304l106 155h138l-120 -166l124 -191h-142
l-106 183v-183h-118v506z" />
    <glyph glyph-name="uni24A7" unicode="&#x24a7;" 
d="M719 -95q47 95 72 200t25 205q0 103 -25 208t-72 197l92 44q71 -82 110 -199t39 -250t-39 -250t-110 -199zM189 -139q-71 82 -110 199t-39 250t39 250t110 199l92 -44q-47 -95 -72 -200t-25 -205t25 -205t72 -200zM549 32q-61 0 -90 12q-27 10 -36 40q-10 27 -10 94v389
h128v-419q0 -18 10 -24.5t35 -6.5v-85h-37z" />
    <glyph glyph-name="uni24A8" unicode="&#x24a8;" 
d="M719 -95q47 95 72 200t25 205q0 103 -25 208t-72 197l92 44q71 -82 110 -199t39 -250t-39 -250t-110 -199zM189 -139q-71 82 -110 199t-39 250t39 250t110 199l92 -44q-47 -95 -72 -200t-25 -205t25 -205t72 -200zM248 492h105l8 -30q49 46 96 46q63 0 88 -61
q57 61 112 61q102 0 102 -152v-252h-115v202q0 53 -7 71q-7 21 -25 21q-25 0 -52 -32v-262h-114v202q0 53 -7 71q-7 21 -26 21q-24 0 -51 -32v-262h-114v388z" />
    <glyph glyph-name="uni24A9" unicode="&#x24a9;" 
d="M719 -95q47 95 72 200t25 205q0 103 -25 208t-72 197l92 44q71 -82 110 -199t39 -250t-39 -250t-110 -199zM189 -139q-71 82 -110 199t-39 250t39 250t110 199l92 -44q-47 -95 -72 -200t-25 -205t25 -205t72 -200zM292 522h131l10 -33q26 19 55.5 31.5t55.5 16.5
q18 2 30 2q68 0 107.5 -46t39.5 -130v-264h-142v237q0 43 -11.5 63t-36.5 20q-16 0 -25 -4q-32 -9 -72 -38v-278h-142v423z" />
    <glyph glyph-name="uni24AA" unicode="&#x24aa;" 
d="M719 -95q47 95 72 200t25 205q0 103 -25 208t-72 197l92 44q71 -82 110 -199t39 -250t-39 -250t-110 -199zM189 -139q-71 82 -110 199t-39 250t39 250t110 199l92 -44q-47 -95 -72 -200t-25 -205t25 -205t72 -200zM380 110.5q-53 28.5 -82 80t-29 118.5q0 71 29.5 124
t82.5 82t122 29t121.5 -29t81 -82t28.5 -122q0 -68 -28.5 -120t-81 -80.5t-121.5 -28.5q-70 0 -123 28.5zM569.5 234q25.5 32 25.5 82q0 48 -25.5 77t-68.5 29q-41 0 -67 -30t-26 -79t26 -80t69 -31q41 0 66.5 32z" />
    <glyph glyph-name="uni24AB" unicode="&#x24ab;" 
d="M328 569h114l11 -21q25 18 54.5 28t58.5 10q80 0 123.5 -51t43.5 -144q-1 -104 -54.5 -166t-144.5 -62h-12l-67 102v-231h-127v535zM189 -139q-71 82 -110 199t-39 250t39 250t110 199l92 -44q-47 -95 -72 -200t-25 -205t25 -205t72 -200zM475 274q63 0 96 30.5t33 87.5
q0 39 -18 61t-52 22q-43 0 -79 -38v-163h20zM719 -95q47 95 72 200t25 205q0 103 -25 208t-72 197l92 44q71 -82 110 -199t39 -250t-39 -250t-110 -199z" />
    <glyph glyph-name="uni24AC" unicode="&#x24ac;" 
d="M547 173q-44 -14 -84 -14q-90 0 -144.5 56.5t-54.5 151.5q0 68 25 118.5t68.5 77.5t96.5 27q56 0 97 -35l10 18h116v-545h-130v145zM189 -139q-71 82 -110 199t-39 250t39 250t110 199l92 -44q-47 -95 -72 -200t-25 -205t25 -205t72 -200zM547 437q-28 40 -69 40
q-38 0 -60.5 -28t-22.5 -75t22 -74t60 -27q29 0 42 7l28 -64v221zM719 -95q47 95 72 200t25 205q0 103 -25 208t-72 197l92 44q71 -82 110 -199t39 -250t-39 -250t-110 -199z" />
    <glyph glyph-name="uni24AD" unicode="&#x24ad;" 
d="M719 -95q47 95 72 200t25 205q0 103 -25 208t-72 197l92 44q71 -82 110 -199t39 -250t-39 -250t-110 -199zM189 -139q-71 82 -110 199t-39 250t39 250t110 199l92 -44q-47 -95 -72 -200t-25 -205t25 -205t72 -200zM358 514h127l14 -43q32 45 89 45q41 0 90 -13v-121
q-54 15 -90 15q-24 0 -47.5 -10.5t-41.5 -30.5v-263h-141v421z" />
    <glyph glyph-name="uni24AE" unicode="&#x24ae;" 
d="M719 -95q47 95 72 200t25 205q0 103 -25 208t-72 197l92 44q71 -82 110 -199t39 -250t-39 -250t-110 -199zM189 -139q-71 82 -110 199t-39 250t39 250t110 199l92 -44q-47 -95 -72 -200t-25 -205t25 -205t72 -200zM384.5 92q-50.5 23 -77 64.5t-24.5 95.5h140
q-2 -33 18.5 -51.5t61.5 -18.5q65 0 65 29q0 17 -24 29q-26 13 -89 30q-82 28 -117.5 60t-35.5 80q0 61 53.5 98.5t143.5 37.5q62 0 108.5 -21t71 -58.5t22.5 -85.5h-140q6 52 -62 52q-54 0 -54 -24q0 -13 18 -22q15 -8 67 -27l21 -7q87 -28 123.5 -61.5t36.5 -83.5
q0 -68 -54 -103.5t-154 -35.5q-68 0 -118.5 23z" />
    <glyph glyph-name="uni24AF" unicode="&#x24af;" 
d="M719 -95q47 95 72 200t25 205q0 103 -25 208t-72 197l92 44q71 -82 110 -199t39 -250t-39 -250t-110 -199zM189 -139q-71 82 -110 199t-39 250t39 250t110 199l92 -44q-47 -95 -72 -200t-25 -205t25 -205t72 -200zM557 44q-74 0 -103 13q-32 12 -42 46q-11 35 -11 108
v155h-91v116h91v105h147v-105h94v-116h-94v-182q0 -22 16 -29q13 -7 59 -7v-104h-66z" />
    <glyph glyph-name="uni24B0" unicode="&#x24b0;" 
d="M719 -95q47 95 72 200t25 205q0 103 -25 208t-72 197l92 44q71 -82 110 -199t39 -250t-39 -250t-110 -199zM189 -139q-71 82 -110 199t-39 250t39 250t110 199l92 -44q-47 -95 -72 -200t-25 -205t25 -205t72 -200zM280 290v224h140v-212q0 -55 14.5 -77t48.5 -22
q42 0 82 33v278h140v-418h-129l-10 31q-63 -45 -128 -45q-158 0 -158 208z" />
    <glyph glyph-name="uni24B1" unicode="&#x24b1;" 
d="M719 -95q47 95 72 200t25 205q0 103 -25 208t-72 197l92 44q71 -82 110 -199t39 -250t-39 -250t-110 -199zM189 -139q-71 82 -110 199t-39 250t39 250t110 199l92 -44q-47 -95 -72 -200t-25 -205t25 -205t72 -200zM279 512h139l79 -291h3l79 291h139l-123 -409h-193z" />
    <glyph glyph-name="uni24B2" unicode="&#x24b2;" 
d="M719 -95q47 95 72 200t25 205q0 103 -25 208t-72 197l92 44q71 -82 110 -199t39 -250t-39 -250t-110 -199zM189 -139q-71 82 -110 199t-39 250t39 250t110 199l92 -44q-47 -95 -72 -200t-25 -205t25 -205t72 -200zM245 510h113l30 -215l9 -76h1l6 68l31 223h130l30 -223
l7 -68h2q4 47 9 76l29 215h113l-62 -397h-151l-30 189q-4 18 -7 51l-4 29h-3q-6 -68 -10 -80l-31 -189h-150z" />
    <glyph glyph-name="uni24B3" unicode="&#x24b3;" 
d="M719 -95q47 95 72 200t25 205q0 103 -25 208t-72 197l92 44q71 -82 110 -199t39 -250t-39 -250t-110 -199zM189 -139q-71 82 -110 199t-39 250t39 250t110 199l92 -44q-47 -95 -72 -200t-25 -205t25 -205t72 -200zM415 313l-127 199h145l62 -104h2l62 104h145l-128 -199
l132 -199h-147l-64 106h-3l-64 -106h-146z" />
    <glyph glyph-name="uni24B4" unicode="&#x24b4;" 
d="M324 113h40q58 0 85.5 10.5t44.5 40.5h-75l-140 401h144l87 -276l10 -43h1l9 43l68 276h141l-81 -296q-29 -107 -66 -161q-35 -51 -78 -71t-113 -20h-77v96zM189 -139q-71 82 -110 199t-39 250t39 250t110 199l92 -44q-47 -95 -72 -200t-25 -205t25 -205t72 -200z
M719 -95q47 95 72 200t25 205q0 103 -25 208t-72 197l92 44q71 -82 110 -199t39 -250t-39 -250t-110 -199z" />
    <glyph glyph-name="uni24B5" unicode="&#x24b5;" 
d="M719 -95q47 95 72 200t25 205q0 103 -25 208t-72 197l92 44q71 -82 110 -199t39 -250t-39 -250t-110 -199zM189 -139q-71 82 -110 199t-39 250t39 250t110 199l92 -44q-47 -95 -72 -200t-25 -205t25 -205t72 -200zM324 168l175 242h-172v113h343v-69l-151 -208l-38 -45
q36 11 70 11h129v-112h-355z" />
    <glyph glyph-name="uni24D0" unicode="&#x24d0;" 
d="M265 -99q-106 60 -165.5 165.5t-59.5 234.5q0 130 60 235q60 106 165.5 165.5t234.5 59.5q130 0 235 -60q106 -60 165.5 -165.5t59.5 -234.5q0 -130 -60 -235q-60 -106 -165.5 -165.5t-234.5 -59.5q-130 0 -235 60zM359 115q-40 24 -62.5 72.5t-22.5 115.5q0 65 24 115
t66.5 77.5t97.5 27.5q24 0 37 -10l56 -111h5v105h134v-401h-121l-9 42q-41 -56 -123 -56q-44 0 -82 23zM532 226.5q23 21.5 28 50.5v88q-34 45 -76 45q-37 0 -57.5 -26.5t-20.5 -72.5q0 -50 19.5 -78t55.5 -28q28 0 51 21.5zM679 -21q80 49 125 133.5t45 188.5t-45 189
q-46 85 -126 133t-178 48t-178 -48q-80 -49 -125.5 -134t-45.5 -188q0 -106 46 -188q45 -85 125 -133.5t178 -48.5q100 0 179 48z" />
    <glyph glyph-name="uni24D1" unicode="&#x24d1;" 
d="M265 -99q-106 60 -165.5 165.5t-59.5 234.5q0 130 60 235q60 106 165.5 165.5t234.5 59.5q130 0 235 -60q106 -60 165.5 -165.5t59.5 -234.5q0 -130 -60 -235q-60 -106 -165.5 -165.5t-234.5 -59.5q-130 0 -235 60zM484 136q63 0 96 31t33 88q0 39 -18 61t-51 22
q-44 0 -79 -35v-167h19zM679 -21q80 49 125 133.5t45 188.5t-45 189q-46 85 -126 133t-178 48t-178 -48q-80 -49 -125.5 -134t-45.5 -188q0 -106 46 -188q45 -85 125 -133.5t178 -48.5q100 0 179 48zM465 124v-85h-128v551h128v-117l-4 -61q53 38 115 38q79 0 123 -50.5
t44 -142.5q0 -106 -53.5 -169t-146.5 -63h-12z" />
    <glyph glyph-name="uni24D2" unicode="&#x24d2;" 
d="M265 -99q-106 60 -165.5 165.5t-59.5 234.5q0 130 60 235q60 106 165.5 165.5t234.5 59.5q130 0 235 -60q106 -60 165.5 -165.5t59.5 -234.5q0 -130 -60 -235q-60 -106 -165.5 -165.5t-234.5 -59.5q-130 0 -235 60zM389 98.5q-50 27.5 -77.5 79t-27.5 119.5
q0 67 27.5 118t77.5 79t115 28q87 0 145 -48t65 -126h-134q-23 56 -76 56q-38 0 -61 -29t-23 -78t23 -78.5t61 -29.5q31 0 49.5 14.5t26.5 44.5h134q-7 -85 -62 -131t-148 -46q-65 0 -115 27.5zM679 -21q80 49 125 133.5t45 188.5t-45 189q-46 85 -126 133t-178 48t-178 -48
q-80 -49 -125.5 -134t-45.5 -188q0 -106 46 -188q45 -85 125 -133.5t178 -48.5q100 0 179 48z" />
    <glyph glyph-name="uni24D3" unicode="&#x24d3;" 
d="M265 -99q-106 60 -165.5 165.5t-59.5 234.5q0 130 60 235q60 106 165.5 165.5t234.5 59.5q130 0 235 -60q106 -60 165.5 -165.5t59.5 -234.5q0 -130 -60 -235q-60 -106 -165.5 -165.5t-234.5 -59.5q-130 0 -235 60zM512 158.5q23 21.5 28 50.5v88q-34 45 -76 45
q-37 0 -57.5 -26.5t-20.5 -72.5q0 -50 19.5 -78t55.5 -28q28 0 51 21.5zM339 47q-40 24 -62.5 72.5t-22.5 115.5q0 65 24 115t66.5 77.5t97.5 27.5q24 0 37 -10l56 -111h5v271h134v-567h-121l-8 43q-42 -57 -124 -57q-44 0 -82 23zM679 -21q80 49 125 133.5t45 188.5
t-45 189q-46 85 -126 133t-178 48t-178 -48q-80 -49 -125.5 -134t-45.5 -188q0 -106 46 -188q45 -85 125 -133.5t178 -48.5q100 0 179 48z" />
    <glyph glyph-name="uni24D4" unicode="&#x24d4;" 
d="M265 -99q-106 60 -165.5 165.5t-59.5 234.5q0 130 60 235q60 106 165.5 165.5t234.5 59.5q130 0 235 -60q106 -60 165.5 -165.5t59.5 -234.5q0 -130 -60 -235q-60 -106 -165.5 -165.5t-234.5 -59.5q-130 0 -235 60zM679 -21q80 49 125 133.5t45 188.5t-45 189
q-46 85 -126 133t-178 48t-178 -48q-80 -49 -125.5 -134t-45.5 -188q0 -106 46 -188q45 -85 125 -133.5t178 -48.5q100 0 179 48zM378 94.5q-54 28.5 -83.5 81t-29.5 121.5q0 70 29.5 124.5t83.5 84.5t125 30q69 0 121.5 -29.5t82 -83.5t32.5 -124v-34h-339
q7 -39 35.5 -62.5t67.5 -23.5q28 0 50 10.5t33 30.5h143q-22 -72 -81.5 -113t-144.5 -41q-71 0 -125 28.5zM599 354q-9 34 -35 52.5t-62 18.5q-37 0 -63.5 -19t-35.5 -52h196z" />
    <glyph glyph-name="uni24D5" unicode="&#x24d5;" 
d="M265 -99q-106 60 -165.5 165.5t-59.5 234.5q0 130 60 235q60 106 165.5 165.5t234.5 59.5q130 0 235 -60q106 -60 165.5 -165.5t59.5 -234.5q0 -130 -60 -235q-60 -106 -165.5 -165.5t-234.5 -59.5q-130 0 -235 60zM419 312h-84v107h84v32q0 49 13 74q13 29 53.5 42.5
t110.5 13.5h29v-97q-29 -1 -43 -5.5t-20.5 -17t-6.5 -38.5v-4h88v-107h-88v-298h-136v298zM679 -21q80 49 125 133.5t45 188.5t-45 189q-46 85 -126 133t-178 48t-178 -48q-80 -49 -125.5 -134t-45.5 -188q0 -106 46 -188q45 -85 125 -133.5t178 -48.5q100 0 179 48z" />
    <glyph glyph-name="uni24D6" unicode="&#x24d6;" 
d="M265 -99q-106 60 -165.5 165.5t-59.5 234.5q0 130 60 235q60 106 165.5 165.5t234.5 59.5q130 0 235 -60q106 -60 165.5 -165.5t59.5 -234.5q0 -130 -60 -235q-60 -106 -165.5 -165.5t-234.5 -59.5q-130 0 -235 60zM356 117h76q57 0 82 9q26 8 35.5 28t10.5 63
q-42 -50 -119 -50q-43 0 -81 23q-40 24 -63 71t-23 111q0 63 24 111.5t66.5 75t97.5 26.5q24 0 37 -10l56 -112h5v105h135l-1 -289q-1 -117 -18.5 -169t-67 -70.5t-160.5 -18.5h-92v96zM679 -21q80 49 125 133.5t45 188.5t-45 189q-46 85 -126 133t-178 48t-178 -48
q-80 -49 -125.5 -134t-45.5 -188q0 -106 46 -188q45 -85 125 -133.5t178 -48.5q100 0 179 48zM532.5 302q22.5 21 27.5 51v74q-34 45 -76 45q-36 0 -57 -25t-21 -67q0 -46 19.5 -72.5t55.5 -26.5q29 0 51.5 21z" />
    <glyph glyph-name="uni24D7" unicode="&#x24d7;" 
d="M265 -99q-106 60 -165.5 165.5t-59.5 234.5q0 130 60 235q60 106 165.5 165.5t234.5 59.5q130 0 235 -60q106 -60 165.5 -165.5t59.5 -234.5q0 -130 -60 -235q-60 -106 -165.5 -165.5t-234.5 -59.5q-130 0 -235 60zM679 -21q80 49 125 133.5t45 188.5t-45 189
q-46 85 -126 133t-178 48t-178 -48q-80 -49 -125.5 -134t-45.5 -188q0 -106 46 -188q45 -85 125 -133.5t178 -48.5q100 0 179 48zM311 566h127v-112l-5 -72q23 18 51.5 30t53.5 16l28 2q60 0 95.5 -41.5t35.5 -116.5v-237h-127v212q0 39 -10.5 57t-32.5 18q-8 0 -23 -4
q-32 -8 -66 -34v-249h-127v531z" />
    <glyph glyph-name="uni24D8" unicode="&#x24d8;" 
d="M265 -99q-106 60 -165.5 165.5t-59.5 234.5q0 130 60 235q60 106 165.5 165.5t234.5 59.5q130 0 235 -60q106 -60 165.5 -165.5t59.5 -234.5q0 -130 -60 -235q-60 -106 -165.5 -165.5t-234.5 -59.5q-130 0 -235 60zM439 413h122v-369h-122v369zM679 -21q80 49 125 133.5
t45 188.5t-45 189q-46 85 -126 133t-178 48t-178 -48q-80 -49 -125.5 -134t-45.5 -188q0 -106 46 -188q45 -85 125 -133.5t178 -48.5q100 0 179 48zM447 460.5q-20 18.5 -20 47.5t20 48t52 19q33 0 53 -19t20 -48t-20 -47.5t-53 -18.5q-32 0 -52 18.5z" />
    <glyph glyph-name="uni24D9" unicode="&#x24d9;" 
d="M265 -99q-106 60 -165.5 165.5t-59.5 234.5q0 130 60 235q60 106 165.5 165.5t234.5 59.5q130 0 235 -60q106 -60 165.5 -165.5t59.5 -234.5q0 -130 -60 -235q-60 -106 -165.5 -165.5t-234.5 -59.5q-130 0 -235 60zM408 66q35 1 47.5 12t12.5 43v328h112v-317
q0 -58 -15 -88q-15 -29 -44.5 -40.5t-85.5 -11.5h-27v74zM679 -21q80 49 125 133.5t45 188.5t-45 189q-46 85 -126 133t-178 48t-178 -48q-80 -49 -125.5 -134t-45.5 -188q0 -106 46 -188q45 -85 125 -133.5t178 -48.5q100 0 179 48zM476.5 493q-18.5 17 -18.5 43
q0 27 18.5 44t47.5 17t47.5 -17t18.5 -44q0 -26 -18.5 -43t-47.5 -17t-47.5 17z" />
    <glyph glyph-name="uni24DA" unicode="&#x24da;" 
d="M265 -99q-106 60 -165.5 165.5t-59.5 234.5q0 130 60 235q60 106 165.5 165.5t234.5 59.5q130 0 235 -60q106 -60 165.5 -165.5t59.5 -234.5q0 -130 -60 -235q-60 -106 -165.5 -165.5t-234.5 -59.5q-130 0 -235 60zM679 -21q80 49 125 133.5t45 188.5t-45 189
q-46 85 -126 133t-178 48t-178 -48q-80 -49 -125.5 -134t-45.5 -188q0 -106 46 -188q45 -85 125 -133.5t178 -48.5q100 0 179 48zM329 556h118v-304l106 155h138l-120 -166l124 -191h-142l-106 183v-183h-118v506z" />
    <glyph glyph-name="uni24DB" unicode="&#x24db;" 
d="M265 -99q-106 60 -165.5 165.5t-59.5 234.5q0 130 60 235q60 106 165.5 165.5t234.5 59.5q130 0 235 -60q106 -60 165.5 -165.5t59.5 -234.5q0 -130 -60 -235q-60 -106 -165.5 -165.5t-234.5 -59.5q-130 0 -235 60zM549 22q-61 0 -90 12q-27 10 -36 40q-10 27 -10 94v389
h128v-419q0 -18 10 -24.5t35 -6.5v-85h-37zM679 -21q80 49 125 133.5t45 188.5t-45 189q-46 85 -126 133t-178 48t-178 -48q-80 -49 -125.5 -134t-45.5 -188q0 -106 46 -188q45 -85 125 -133.5t178 -48.5q100 0 179 48z" />
    <glyph glyph-name="uni24DC" unicode="&#x24dc;" 
d="M265 -99q-106 60 -165.5 165.5t-59.5 234.5q0 130 60 235q60 106 165.5 165.5t234.5 59.5q130 0 235 -60q106 -60 165.5 -165.5t59.5 -234.5q0 -130 -60 -235q-60 -106 -165.5 -165.5t-234.5 -59.5q-130 0 -235 60zM248 482h105l8 -30q49 46 96 46q63 0 88 -61
q57 61 112 61q102 0 102 -152v-252h-115v202q0 53 -7 71q-7 21 -25 21q-25 0 -52 -32v-262h-114v202q0 53 -7 71q-7 21 -26 21q-24 0 -51 -32v-262h-114v388zM679 -21q80 49 125 133.5t45 188.5t-45 189q-46 85 -126 133t-178 48t-178 -48q-80 -49 -125.5 -134t-45.5 -188
q0 -106 46 -188q45 -85 125 -133.5t178 -48.5q100 0 179 48z" />
    <glyph glyph-name="uni24DD" unicode="&#x24dd;" 
d="M265 -99q-106 60 -165.5 165.5t-59.5 234.5q0 130 60 235q60 106 165.5 165.5t234.5 59.5q130 0 235 -60q106 -60 165.5 -165.5t59.5 -234.5q0 -130 -60 -235q-60 -106 -165.5 -165.5t-234.5 -59.5q-130 0 -235 60zM679 -21q80 49 125 133.5t45 188.5t-45 189
q-46 85 -126 133t-178 48t-178 -48q-80 -49 -125.5 -134t-45.5 -188q0 -106 46 -188q45 -85 125 -133.5t178 -48.5q100 0 179 48zM292 512h131l10 -33q26 19 55.5 31.5t55.5 16.5q18 2 30 2q68 0 107.5 -46t39.5 -130v-264h-142v237q0 43 -11.5 63t-36.5 20q-16 0 -25 -4
q-32 -9 -72 -38v-278h-142v423z" />
    <glyph glyph-name="uni24DE" unicode="&#x24de;" 
d="M265 -99q-106 60 -165.5 165.5t-59.5 234.5q0 130 60 235q60 106 165.5 165.5t234.5 59.5q130 0 235 -60q106 -60 165.5 -165.5t59.5 -234.5q0 -130 -60 -235q-60 -106 -165.5 -165.5t-234.5 -59.5q-130 0 -235 60zM679 -21q80 49 125 133.5t45 188.5t-45 189
q-46 85 -126 133t-178 48t-178 -48q-80 -49 -125.5 -134t-45.5 -188q0 -106 46 -188q45 -85 125 -133.5t178 -48.5q100 0 179 48zM380 100.5q-53 28.5 -82 80t-29 118.5q0 71 29.5 124t82.5 82t122 29t121.5 -29t81 -82t28.5 -122q0 -68 -28.5 -120t-81 -80.5t-121.5 -28.5
q-70 0 -123 28.5zM569.5 224q25.5 32 25.5 82q0 48 -25.5 77t-68.5 29q-41 0 -67 -30t-26 -79t26 -80t69 -31q41 0 66.5 32z" />
    <glyph glyph-name="uni24DF" unicode="&#x24df;" 
d="M265 -99q-106 60 -165.5 165.5t-59.5 234.5q0 130 60 235q60 106 165.5 165.5t234.5 59.5q130 0 235 -60q106 -60 165.5 -165.5t59.5 -234.5q0 -130 -60 -235q-60 -106 -165.5 -165.5t-234.5 -59.5q-130 0 -235 60zM679 -21q80 49 125 133.5t45 188.5t-45 189
q-46 85 -126 133t-178 48t-178 -48q-80 -49 -125.5 -134t-45.5 -188q0 -106 46 -188q45 -85 125 -133.5t178 -48.5q100 0 179 48zM328 559h114l11 -21q25 18 54.5 28t58.5 10q80 0 123.5 -51t43.5 -144q-1 -104 -54.5 -166t-144.5 -62h-12l-67 102v-231h-127v535zM475 264
q63 0 96 30.5t33 87.5q0 39 -18 61t-52 22q-43 0 -79 -38v-163h20z" />
    <glyph glyph-name="uni24E0" unicode="&#x24e0;" 
d="M265 -99q-106 60 -165.5 165.5t-59.5 234.5q0 130 60 235q60 106 165.5 165.5t234.5 59.5q130 0 235 -60q106 -60 165.5 -165.5t59.5 -234.5q0 -130 -60 -235q-60 -106 -165.5 -165.5t-234.5 -59.5q-130 0 -235 60zM547 153q-44 -14 -84 -14q-90 0 -144.5 56.5
t-54.5 151.5q0 68 25 118.5t68.5 77.5t96.5 27q56 0 97 -35l10 18h116v-545h-130v145zM547 417q-28 40 -69 40q-38 0 -60.5 -28t-22.5 -75t22 -74t60 -27q29 0 42 7l28 -64v221zM679 -21q80 49 125 133.5t45 188.5t-45 189q-46 85 -126 133t-178 48t-178 -48
q-80 -49 -125.5 -134t-45.5 -188q0 -106 46 -188q45 -85 125 -133.5t178 -48.5q100 0 179 48z" />
    <glyph glyph-name="uni24E1" unicode="&#x24e1;" 
d="M265 -99q-106 60 -165.5 165.5t-59.5 234.5q0 130 60 235q60 106 165.5 165.5t234.5 59.5q130 0 235 -60q106 -60 165.5 -165.5t59.5 -234.5q0 -130 -60 -235q-60 -106 -165.5 -165.5t-234.5 -59.5q-130 0 -235 60zM679 -21q80 49 125 133.5t45 188.5t-45 189
q-46 85 -126 133t-178 48t-178 -48q-80 -49 -125.5 -134t-45.5 -188q0 -106 46 -188q45 -85 125 -133.5t178 -48.5q100 0 179 48zM358 504h127l14 -43q32 45 89 45q41 0 90 -13v-121q-54 15 -90 15q-24 0 -47.5 -10.5t-41.5 -30.5v-263h-141v421z" />
    <glyph glyph-name="uni24E2" unicode="&#x24e2;" 
d="M265 -99q-106 60 -165.5 165.5t-59.5 234.5q0 130 60 235q60 106 165.5 165.5t234.5 59.5q130 0 235 -60q106 -60 165.5 -165.5t59.5 -234.5q0 -130 -60 -235q-60 -106 -165.5 -165.5t-234.5 -59.5q-130 0 -235 60zM384.5 82q-50.5 23 -77 64.5t-24.5 95.5h140
q-2 -33 18.5 -51.5t61.5 -18.5q65 0 65 29q0 17 -24 29q-26 13 -89 30q-82 28 -117.5 60t-35.5 80q0 61 53.5 98.5t143.5 37.5q62 0 108.5 -21t71 -58.5t22.5 -85.5h-140q6 52 -62 52q-54 0 -54 -24q0 -13 18 -22q15 -8 67 -27l21 -7q87 -28 123.5 -61.5t36.5 -83.5
q0 -68 -54 -103.5t-154 -35.5q-68 0 -118.5 23zM679 -21q80 49 125 133.5t45 188.5t-45 189q-46 85 -126 133t-178 48t-178 -48q-80 -49 -125.5 -134t-45.5 -188q0 -106 46 -188q45 -85 125 -133.5t178 -48.5q100 0 179 48z" />
    <glyph glyph-name="uni24E3" unicode="&#x24e3;" 
d="M265 -99q-106 60 -165.5 165.5t-59.5 234.5q0 130 60 235q60 106 165.5 165.5t234.5 59.5q130 0 235 -60q106 -60 165.5 -165.5t59.5 -234.5q0 -130 -60 -235q-60 -106 -165.5 -165.5t-234.5 -59.5q-130 0 -235 60zM557 34q-74 0 -103 13q-32 12 -42 46q-11 35 -11 108
v155h-91v116h91v105h147v-105h94v-116h-94v-182q0 -22 16 -29q13 -7 59 -7v-104h-66zM679 -21q80 49 125 133.5t45 188.5t-45 189q-46 85 -126 133t-178 48t-178 -48q-80 -49 -125.5 -134t-45.5 -188q0 -106 46 -188q45 -85 125 -133.5t178 -48.5q100 0 179 48z" />
    <glyph glyph-name="uni24E4" unicode="&#x24e4;" 
d="M265 -99q-106 60 -165.5 165.5t-59.5 234.5q0 130 60 235q60 106 165.5 165.5t234.5 59.5q130 0 235 -60q106 -60 165.5 -165.5t59.5 -234.5q0 -130 -60 -235q-60 -106 -165.5 -165.5t-234.5 -59.5q-130 0 -235 60zM280 280v224h140v-212q0 -55 14.5 -77t48.5 -22
q42 0 82 33v278h140v-418h-129l-10 31q-63 -45 -128 -45q-158 0 -158 208zM679 -21q80 49 125 133.5t45 188.5t-45 189q-46 85 -126 133t-178 48t-178 -48q-80 -49 -125.5 -134t-45.5 -188q0 -106 46 -188q45 -85 125 -133.5t178 -48.5q100 0 179 48z" />
    <glyph glyph-name="uni24E5" unicode="&#x24e5;" 
d="M265 -99q-106 60 -165.5 165.5t-59.5 234.5q0 130 60 235q60 106 165.5 165.5t234.5 59.5q130 0 235 -60q106 -60 165.5 -165.5t59.5 -234.5q0 -130 -60 -235q-60 -106 -165.5 -165.5t-234.5 -59.5q-130 0 -235 60zM679 -21q80 49 125 133.5t45 188.5t-45 189
q-46 85 -126 133t-178 48t-178 -48q-80 -49 -125.5 -134t-45.5 -188q0 -106 46 -188q45 -85 125 -133.5t178 -48.5q100 0 179 48zM279 502h139l79 -291h3l79 291h139l-123 -409h-193z" />
    <glyph glyph-name="uni24E6" unicode="&#x24e6;" 
d="M265 -99q-106 60 -165.5 165.5t-59.5 234.5q0 130 60 235q60 106 165.5 165.5t234.5 59.5q130 0 235 -60q106 -60 165.5 -165.5t59.5 -234.5q0 -130 -60 -235q-60 -106 -165.5 -165.5t-234.5 -59.5q-130 0 -235 60zM679 -21q80 49 125 133.5t45 188.5t-45 189
q-46 85 -126 133t-178 48t-178 -48q-80 -49 -125.5 -134t-45.5 -188q0 -106 46 -188q45 -85 125 -133.5t178 -48.5q100 0 179 48zM245 500h113l30 -215l9 -76h1l6 68l31 223h130l30 -223l7 -68h2q4 47 9 76l29 215h113l-62 -397h-151l-30 189q-4 18 -7 51l-4 29h-3
q-6 -68 -10 -80l-31 -189h-150z" />
    <glyph glyph-name="uni24E7" unicode="&#x24e7;" 
d="M265 -99q-106 60 -165.5 165.5t-59.5 234.5q0 130 60 235q60 106 165.5 165.5t234.5 59.5q130 0 235 -60q106 -60 165.5 -165.5t59.5 -234.5q0 -130 -60 -235q-60 -106 -165.5 -165.5t-234.5 -59.5q-130 0 -235 60zM415 303l-127 199h145l62 -104h2l62 104h145l-128 -199
l132 -199h-147l-64 106h-3l-64 -106h-146zM679 -21q80 49 125 133.5t45 188.5t-45 189q-46 85 -126 133t-178 48t-178 -48q-80 -49 -125.5 -134t-45.5 -188q0 -106 46 -188q45 -85 125 -133.5t178 -48.5q100 0 179 48z" />
    <glyph glyph-name="uni24E8" unicode="&#x24e8;" 
d="M265 -99q-106 60 -165.5 165.5t-59.5 234.5q0 130 60 235q60 106 165.5 165.5t234.5 59.5q130 0 235 -60q106 -60 165.5 -165.5t59.5 -234.5q0 -130 -60 -235q-60 -106 -165.5 -165.5t-234.5 -59.5q-130 0 -235 60zM324 83h40q58 0 85.5 10.5t44.5 40.5h-75l-140 401h144
l87 -276l10 -43h1l9 43l68 276h141l-81 -296q-29 -107 -66 -161q-35 -51 -78 -71t-113 -20h-77v96zM679 -21q80 49 125 133.5t45 188.5t-45 189q-46 85 -126 133t-178 48t-178 -48q-80 -49 -125.5 -134t-45.5 -188q0 -106 46 -188q45 -85 125 -133.5t178 -48.5q100 0 179 48
z" />
    <glyph glyph-name="uni24E9" unicode="&#x24e9;" 
d="M265 -99q-106 60 -165.5 165.5t-59.5 234.5q0 130 60 235q60 106 165.5 165.5t234.5 59.5q130 0 235 -60q106 -60 165.5 -165.5t59.5 -234.5q0 -130 -60 -235q-60 -106 -165.5 -165.5t-234.5 -59.5q-130 0 -235 60zM679 -21q80 49 125 133.5t45 188.5t-45 189
q-46 85 -126 133t-178 48t-178 -48q-80 -49 -125.5 -134t-45.5 -188q0 -106 46 -188q45 -85 125 -133.5t178 -48.5q100 0 179 48zM324 158l175 242h-172v113h343v-69l-151 -208l-38 -45q36 11 70 11h129v-112h-355z" />
    <glyph glyph-name="uni2500" unicode="&#x2500;" horiz-adv-x="920" 
d="M5 370h910v-34h-910v34z" />
    <glyph glyph-name="uni2501" unicode="&#x2501;" horiz-adv-x="920" 
d="M5 390h910v-74h-910v74z" />
    <glyph glyph-name="uni2502" unicode="&#x2502;" horiz-adv-x="920" 
d="M443 850h34v-994h-34v994z" />
    <glyph glyph-name="uni2503" unicode="&#x2503;" horiz-adv-x="920" 
d="M423 850h74v-994h-74v994z" />
    <glyph glyph-name="uni250C" unicode="&#x250c;" horiz-adv-x="920" 
d="M443 370h472v-34h-438v-480h-34v514z" />
    <glyph glyph-name="uni250D" unicode="&#x250d;" horiz-adv-x="920" 
d="M443 390h472v-74h-438v-460h-34v534z" />
    <glyph glyph-name="uni250E" unicode="&#x250e;" horiz-adv-x="920" 
d="M424 370h491v-34h-418v-480h-73v514z" />
    <glyph glyph-name="uni250F" unicode="&#x250f;" horiz-adv-x="920" 
d="M424 390h491v-74h-418v-460h-73v534z" />
    <glyph glyph-name="uni2510" unicode="&#x2510;" horiz-adv-x="920" 
d="M443 336h-438v34h472v-514h-34v480z" />
    <glyph glyph-name="uni2511" unicode="&#x2511;" horiz-adv-x="920" 
d="M443 316h-438v74h472v-534h-34v460z" />
    <glyph glyph-name="uni2512" unicode="&#x2512;" horiz-adv-x="920" 
d="M422 336h-417v34h490v-514h-73v480z" />
    <glyph glyph-name="uni2513" unicode="&#x2513;" horiz-adv-x="920" 
d="M423 316h-418v74h491v-534h-73v460z" />
    <glyph glyph-name="uni2514" unicode="&#x2514;" horiz-adv-x="920" 
d="M443 850h34v-480h438v-34h-472v514z" />
    <glyph glyph-name="uni2515" unicode="&#x2515;" horiz-adv-x="920" 
d="M443 850h34v-460h438v-74h-472v534z" />
    <glyph glyph-name="uni2516" unicode="&#x2516;" horiz-adv-x="920" 
d="M424 850h73v-480h418v-34h-491v514z" />
    <glyph glyph-name="uni2517" unicode="&#x2517;" horiz-adv-x="920" 
d="M424 850h73v-460h418v-74h-491v534z" />
    <glyph glyph-name="uni2518" unicode="&#x2518;" horiz-adv-x="920" 
d="M5 370h438v480h34v-514h-472v34z" />
    <glyph glyph-name="uni2519" unicode="&#x2519;" horiz-adv-x="920" 
d="M5 390h438v460h34v-534h-472v74z" />
    <glyph glyph-name="uni251A" unicode="&#x251a;" horiz-adv-x="920" 
d="M5 370h418v480h73v-514h-491v34z" />
    <glyph glyph-name="uni251B" unicode="&#x251b;" horiz-adv-x="920" 
d="M5 390h418v460h73v-534h-491v74z" />
    <glyph glyph-name="uni251C" unicode="&#x251c;" horiz-adv-x="920" 
d="M443 850h34v-480h438v-34h-438v-480h-34v994z" />
    <glyph glyph-name="uni251D" unicode="&#x251d;" horiz-adv-x="920" 
d="M443 850h34v-460h438v-74h-438v-460h-34v994z" />
    <glyph glyph-name="uni251E" unicode="&#x251e;" horiz-adv-x="920" 
d="M443 356h-19v494h73v-480h418v-34h-439l1 -240v-240h-34v500z" />
    <glyph glyph-name="uni251F" unicode="&#x251f;" horiz-adv-x="920" 
d="M424 350h19v500h34v-480h438v-34h-418v-480h-73v494z" />
    <glyph glyph-name="uni2520" unicode="&#x2520;" horiz-adv-x="920" 
d="M424 850h73v-480h418v-34h-418v-480h-73v994z" />
    <glyph glyph-name="uni2521" unicode="&#x2521;" horiz-adv-x="920" 
d="M443 356h-19v494h73v-460h418v-74h-438v-460h-34v500z" />
    <glyph glyph-name="uni2522" unicode="&#x2522;" horiz-adv-x="920" 
d="M424 350h19v500h34v-460h438v-74h-418v-460h-73v494z" />
    <glyph glyph-name="uni2523" unicode="&#x2523;" horiz-adv-x="920" 
d="M424 850h73v-460h418v-74h-418v-460h-73v994z" />
    <glyph glyph-name="uni2524" unicode="&#x2524;" horiz-adv-x="920" 
d="M443 336h-438v34h438v480h34v-993h-34v479z" />
    <glyph glyph-name="uni2525" unicode="&#x2525;" horiz-adv-x="920" 
d="M443 316h-438v74h438v460h34v-993h-34v459z" />
    <glyph glyph-name="uni2526" unicode="&#x2526;" horiz-adv-x="920" 
d="M443 336h-438v34h418v480h73v-494h-20v-500h-33v480z" />
    <glyph glyph-name="uni2527" unicode="&#x2527;" horiz-adv-x="920" 
d="M423 336h-418v34h438v480h33v-500h20v-494h-73v480z" />
    <glyph glyph-name="uni2528" unicode="&#x2528;" horiz-adv-x="920" 
d="M424 336h-419v34h419v480h73v-994h-73v480z" />
    <glyph glyph-name="uni2529" unicode="&#x2529;" horiz-adv-x="920" 
d="M443 316h-438v74h418v460h73v-494h-20v-499h-33v459z" />
    <glyph glyph-name="uni252A" unicode="&#x252a;" horiz-adv-x="920" 
d="M423 316h-418v74h438v460h33v-500h20v-494h-73v460z" />
    <glyph glyph-name="uni252B" unicode="&#x252b;" horiz-adv-x="920" 
d="M423 316h-418v74h418v460h73v-994h-73v460z" />
    <glyph glyph-name="uni252C" unicode="&#x252c;" horiz-adv-x="920" 
d="M443 336h-438v34h910v-34h-438v-480h-34v480z" />
    <glyph glyph-name="uni252D" unicode="&#x252d;" horiz-adv-x="920" 
d="M443 316h-438v74h452v-20h458v-34h-438v-480h-34v460z" />
    <glyph glyph-name="uni252E" unicode="&#x252e;" horiz-adv-x="920" 
d="M443 336h-438v34h458v20h452v-74h-438v-460h-34v480z" />
    <glyph glyph-name="uni252F" unicode="&#x252f;" horiz-adv-x="920" 
d="M443 316h-438v74h910v-74h-438v-460h-34v460z" />
    <glyph glyph-name="uni2530" unicode="&#x2530;" horiz-adv-x="920" 
d="M423 336h-418v34h910v-34h-418v-480h-74v480z" />
    <glyph glyph-name="uni2531" unicode="&#x2531;" horiz-adv-x="920" 
d="M423 316h-418v74h452v-20h458v-34h-418v-480h-74v460z" />
    <glyph glyph-name="uni2532" unicode="&#x2532;" horiz-adv-x="920" 
d="M423 336h-418v34h458v20h452v-74h-418v-460h-74v480z" />
    <glyph glyph-name="uni2533" unicode="&#x2533;" horiz-adv-x="920" 
d="M423 316h-418v74h910v-74h-418v-460h-74v460z" />
    <glyph glyph-name="uni2534" unicode="&#x2534;" horiz-adv-x="920" 
d="M5 370h438v479h34v-479h438v-34h-910v34z" />
    <glyph glyph-name="uni2535" unicode="&#x2535;" horiz-adv-x="920" 
d="M5 390h438v459h34v-479h438v-34h-458v-20h-452v74z" />
    <glyph glyph-name="uni2536" unicode="&#x2536;" horiz-adv-x="920" 
d="M463 336h-458v34h438v479h34v-459h438v-74h-452v20z" />
    <glyph glyph-name="uni2537" unicode="&#x2537;" horiz-adv-x="920" 
d="M5 390h438v460h34v-460h438v-74h-910v74z" />
    <glyph glyph-name="uni2538" unicode="&#x2538;" horiz-adv-x="920" 
d="M5 370h418v480h74v-480h418v-34h-910v34z" />
    <glyph glyph-name="uni2539" unicode="&#x2539;" horiz-adv-x="920" 
d="M5 390h418v460h74v-480h418v-34h-458v-20h-452v74z" />
    <glyph glyph-name="uni253A" unicode="&#x253a;" horiz-adv-x="920" 
d="M463 336h-458v34h418v480h74v-460h418v-74h-452v20z" />
    <glyph glyph-name="uni253B" unicode="&#x253b;" horiz-adv-x="920" 
d="M5 390h418v460h74v-460h418v-74h-910v74z" />
    <glyph glyph-name="uni253C" unicode="&#x253c;" horiz-adv-x="920" 
d="M443 336h-438v34h438v480h34v-480h438v-34h-438v-480h-34v480z" />
    <glyph glyph-name="uni253D" unicode="&#x253d;" horiz-adv-x="920" 
d="M443 316h-438v78h438v456h34v-480h438v-34h-438v-480h-34v460z" />
    <glyph glyph-name="uni253E" unicode="&#x253e;" horiz-adv-x="920" 
d="M443 336h-438v34h438v480h34v-460h438v-74h-438v-460h-34v480z" />
    <glyph glyph-name="uni253F" unicode="&#x253f;" horiz-adv-x="920" 
d="M443 316h-438v74h438v460h34v-460h438v-74h-438v-460h-34v460z" />
    <glyph glyph-name="uni2540" unicode="&#x2540;" horiz-adv-x="920" 
d="M443 336h-438v34h418v480h74v-480h418v-34h-438v-480h-34v480z" />
    <glyph glyph-name="uni2541" unicode="&#x2541;" horiz-adv-x="920" 
d="M423 336h-418v34h438v480h34v-480h438v-34h-418v-480h-74v480z" />
    <glyph glyph-name="uni2542" unicode="&#x2542;" horiz-adv-x="920" 
d="M423 336h-418v34h418v480h74v-480h418v-34h-418v-480h-74v480z" />
    <glyph glyph-name="uni2543" unicode="&#x2543;" horiz-adv-x="920" 
d="M443 316h-438v74h418v460h74v-480h418v-34h-438v-480h-34v460z" />
    <glyph glyph-name="uni2544" unicode="&#x2544;" horiz-adv-x="920" 
d="M443 336h-438v34h418v480h74v-460h418v-74h-438v-460h-34v480z" />
    <glyph glyph-name="uni2545" unicode="&#x2545;" horiz-adv-x="920" 
d="M423 316h-418v74h438v460h34v-480h438v-34h-418v-480h-74v460z" />
    <glyph glyph-name="uni2546" unicode="&#x2546;" horiz-adv-x="920" 
d="M423 336h-418v34h438v480h34v-460h438v-74h-418v-460h-74v480z" />
    <glyph glyph-name="uni2547" unicode="&#x2547;" horiz-adv-x="920" 
d="M443 316h-438v74h418v460h74v-460h418v-74h-438v-460h-34v460z" />
    <glyph glyph-name="uni2548" unicode="&#x2548;" horiz-adv-x="920" 
d="M423 316h-418v74h438v460h34v-460h438v-74h-418v-460h-74v460z" />
    <glyph glyph-name="uni2549" unicode="&#x2549;" horiz-adv-x="920" 
d="M423 316h-418v74h418v460h74v-480h418v-34h-418v-480h-74v460z" />
    <glyph glyph-name="uni254A" unicode="&#x254a;" horiz-adv-x="920" 
d="M423 336h-418v34h418v480h74v-460h418v-74h-418v-460h-74v480z" />
    <glyph glyph-name="uni254B" unicode="&#x254b;" horiz-adv-x="920" 
d="M423 316h-418v74h418v460h74v-460h418v-74h-418v-460h-74v460z" />
    <glyph glyph-name="shade" unicode="&#x2592;" horiz-adv-x="940" 
d="M102 615v46l25 25h16l695 -695v-46l-25 -25h-16zM102 195l275 -275h-112l-163 163v112zM102 372l452 -452h-112l-340 340v112zM102 549l629 -629h-112l-517 517v112zM321 686l517 -517v-112l-629 629h112zM498 686l340 -340v-112l-452 452h112zM675 686l163 -163v-112
l-275 275h112z" />
    <glyph glyph-name="filledbox" unicode="&#x25a0;" horiz-adv-x="940" 
d="M53 717h834v-834h-834v834z" />
    <glyph glyph-name="uni25A1" unicode="&#x25a1;" horiz-adv-x="940" 
d="M53 717h834v-834h-834v834zM766 -16v632h-592v-632h592z" />
    <glyph glyph-name="uni25A3" unicode="&#x25a3;" horiz-adv-x="940" 
d="M53 717h834v-834h-834v834zM787 -39v678h-634v-678h634zM262 532h416v-464h-416v464z" />
    <glyph glyph-name="uni25A4" unicode="&#x25a4;" horiz-adv-x="940" 
d="M53 717h834v-834h-834v834zM807 -49v42h-674v-42h674zM807 61v42h-674v-42h674zM807 171v42h-674v-42h674zM807 281v41h-674v-41h674zM807 390v41h-674v-41h674zM807 499v41h-674v-41h674zM807 608v41h-674v-41h674z" />
    <glyph glyph-name="uni25A5" unicode="&#x25a5;" horiz-adv-x="940" 
d="M53 717h834v-834h-834v834zM160 -49v698h-27v-698h27zM267 -49v698h-27v-698h27zM375 -49v698h-28v-698h28zM483 -49v698h-28v-698h28zM591 -49v698h-28v-698h28zM699 -49v698h-28v-698h28zM807 -49v698h-28v-698h28z" />
    <glyph glyph-name="uni25A6" unicode="&#x25a6;" horiz-adv-x="940" 
d="M53 717h834v-834h-834v834zM160 -49v42h-27v-42h27zM160 61v42h-27v-42h27zM160 171v42h-27v-42h27zM160 281v41h-27v-41h27zM160 390v41h-27v-41h27zM160 499v41h-27v-41h27zM160 608v41h-27v-41h27zM267 -49v42h-27v-42h27zM267 61v42h-27v-42h27zM267 171v42h-27v-42
h27zM267 281v41h-27v-41h27zM267 390v41h-27v-41h27zM267 499v41h-27v-41h27zM267 608v41h-27v-41h27zM375 -49v42h-28v-42h28zM375 61v42h-28v-42h28zM375 171v42h-28v-42h28zM375 281v41h-28v-41h28zM375 390v41h-28v-41h28zM375 499v41h-28v-41h28zM375 608v41h-28v-41
h28zM483 -49v42h-28v-42h28zM483 61v42h-28v-42h28zM483 171v42h-28v-42h28zM483 281v41h-28v-41h28zM483 390v41h-28v-41h28zM483 499v41h-28v-41h28zM483 608v41h-28v-41h28zM591 -49v42h-28v-42h28zM591 61v42h-28v-42h28zM591 171v42h-28v-42h28zM591 281v41h-28v-41h28
zM591 390v41h-28v-41h28zM591 499v41h-28v-41h28zM591 608v41h-28v-41h28zM699 -49v42h-28v-42h28zM699 61v42h-28v-42h28zM699 171v42h-28v-42h28zM699 281v41h-28v-41h28zM699 390v41h-28v-41h28zM699 499v41h-28v-41h28zM699 608v41h-28v-41h28zM807 -49v42h-28v-42h28z
M807 61v42h-28v-42h28zM807 171v42h-28v-42h28zM807 281v41h-28v-41h28zM807 390v41h-28v-41h28zM807 499v41h-28v-41h28zM807 608v41h-28v-41h28z" />
    <glyph glyph-name="uni25A7" unicode="&#x25a7;" horiz-adv-x="940" 
d="M53 717h834v-834h-834v834zM246 -49l-113 113v-113h113zM358 -49h65l-290 290v-65zM535 -49h65l-467 467v-65zM712 -49h66l-645 645v-66zM807 34v66l-549 549h-66zM807 212v65l-372 372h-65zM807 389v65l-195 195h-65zM807 566v83h-83z" />
    <glyph glyph-name="uni25A8" unicode="&#x25a8;" horiz-adv-x="940" 
d="M53 717h834v-834h-834v834zM748 649h-66l-549 -549v-66zM570 649h-65l-372 -372v-65zM393 649h-65l-195 -195v-65zM216 649h-83v-83zM228 -49l579 579v66l-645 -645h66zM405 -49l402 402v65l-467 -467h65zM582 -49l225 225v65l-290 -290h65zM807 -49v113l-113 -113h113z
" />
    <glyph glyph-name="uni25A9" unicode="&#x25a9;" horiz-adv-x="940" 
d="M53 717h834v-834h-834v834zM148 49l-15 15v-30zM148 227l-15 14v-29zM148 404l-15 14v-29zM148 581l-15 15v-30zM228 -49l9 9l-33 33l-42 -42h66zM204 105l33 33l-33 33l-33 -33zM204 283l32 32l-32 33l-33 -33zM204 460l33 33l-33 32l-33 -33zM204 637l12 12h-24z
M293 16l33 33l-33 33l-33 -33zM293 194l32 32l-33 33l-32 -32zM292 371l33 33l-32 33l-33 -33zM293 549l33 33l-33 32l-33 -33zM381 282l33 33l-33 33l-33 -33zM358 -49h47l9 9l-32 32l-33 -32zM382 105l32 32l-33 33l-32 -32zM381 460l33 33l-32 33l-33 -33zM382 638l11 11
h-23zM470 193l33 33l-33 33l-33 -33zM470 371l33 33l-33 33l-33 -33zM470 16l33 33l-33 32l-32 -32zM470 549l33 33l-33 32l-32 -32zM535 -49h47l9 9l-32 32l-33 -32zM559 105l33 33l-33 32l-33 -33zM559 282l33 33l-33 33l-33 -33zM559 460l33 33l-33 33l-33 -33zM559 638
l11 11h-23zM647 16l33 33l-32 33l-33 -33zM648 194l33 33l-33 32l-33 -33zM648 371l33 33l-33 33l-33 -33zM648 549l32 32l-33 33l-32 -32zM712 -49h66l-42 42l-33 -33zM736 105l33 33l-32 33l-33 -33zM737 283l32 32l-32 33l-33 -33zM737 460l32 32l-33 33l-32 -32z
M736 637l12 12h-24zM807 34v30l-15 -15zM807 566v30l-15 -15zM807 212v29l-14 -14zM807 389v29l-14 -14z" />
    <glyph glyph-name="triagup" unicode="&#x25b2;" horiz-adv-x="940" 
d="M470 717l417 -834h-834z" />
    <glyph glyph-name="uni25B3" unicode="&#x25b3;" horiz-adv-x="940" 
d="M470 717l417 -834h-834zM726 -29l-256 522l-256 -522h512z" />
    <glyph glyph-name="uni25B6" unicode="&#x25b6;" horiz-adv-x="940" 
d="M83 717l834 -417l-834 -417v834z" />
    <glyph glyph-name="uni25B7" unicode="&#x25b7;" horiz-adv-x="940" 
d="M83 717l834 -417l-834 -417v834zM708 300l-522 256v-512z" />
    <glyph glyph-name="triagdn" unicode="&#x25bc;" horiz-adv-x="940" 
d="M53 717h834l-417 -834z" />
    <glyph glyph-name="uni25BD" unicode="&#x25bd;" horiz-adv-x="940" 
d="M53 717h834l-417 -834zM470 107l256 522h-512z" />
    <glyph glyph-name="uni25C0" unicode="&#x25c0;" horiz-adv-x="940" 
d="M83 300l834 417v-834z" />
    <glyph glyph-name="uni25C1" unicode="&#x25c1;" horiz-adv-x="940" 
d="M83 300l834 417v-834zM814 44v512l-522 -256z" />
    <glyph glyph-name="uni25C6" unicode="&#x25c6;" horiz-adv-x="940" 
d="M0 315l470 470l470 -470l-470 -470z" />
    <glyph glyph-name="uni25C7" unicode="&#x25c7;" horiz-adv-x="940" 
d="M0 315l470 470l470 -470l-470 -470zM470 1l314 314l-314 314l-314 -314z" />
    <glyph glyph-name="uni25C8" unicode="&#x25c8;" horiz-adv-x="940" 
d="M0 315l470 470l470 -470l-470 -470zM470 -9l324 324l-324 324l-324 -324zM470 519l204 -204l-204 -204l-204 204z" />
    <glyph glyph-name="circle" unicode="&#x25cb;" horiz-adv-x="940" 
d="M235 -99q-106 60 -165.5 165.5t-59.5 234.5q0 130 60 235q60 106 165.5 165.5t234.5 59.5q130 0 235 -60q106 -60 165.5 -165.5t59.5 -234.5q0 -130 -60 -235q-60 -106 -165.5 -165.5t-234.5 -59.5q-130 0 -235 60zM643 -11q78 48 122 130.5t44 181.5q0 100 -44 183
q-45 83 -122.5 129.5t-172.5 46.5q-96 0 -173 -47q-78 -48 -122 -130.5t-44 -181.5q0 -100 45 -183q45 -84 122 -130t172 -46q96 0 173 47z" />
    <glyph glyph-name="uni25CE" unicode="&#x25ce;" horiz-adv-x="940" 
d="M235 -99q-106 60 -165.5 165.5t-59.5 234.5q0 130 60 235q60 106 165.5 165.5t234.5 59.5q130 0 235 -60q106 -60 165.5 -165.5t59.5 -234.5q0 -130 -60 -235q-60 -106 -165.5 -165.5t-234.5 -59.5q-130 0 -235 60zM643 -11q78 48 122 130.5t44 181.5q0 100 -44 183
q-45 83 -122.5 129.5t-172.5 46.5q-96 0 -173 -47q-78 -48 -122 -130.5t-44 -181.5q0 -100 45 -183q45 -84 122 -130t172 -46q96 0 173 47zM344.5 88.5q-55.5 31.5 -87 87t-31.5 125.5t31.5 125.5t87 87t125.5 31.5t125.5 -31.5t87 -87t31.5 -125.5t-31.5 -125.5t-87 -87
t-125.5 -31.5t-125.5 31.5zM558 208.5q35 37.5 35 92.5t-35 92.5t-88 37.5t-88 -37.5t-35 -92.5t35 -92.5t88 -37.5t88 37.5z" />
    <glyph glyph-name="uni25CF" unicode="&#x25cf;" horiz-adv-x="940" 
d="M235 -99q-106 60 -165.5 165.5t-59.5 234.5q0 130 60 235q60 106 165.5 165.5t234.5 59.5q130 0 235 -60q106 -60 165.5 -165.5t59.5 -234.5q0 -130 -60 -235q-60 -106 -165.5 -165.5t-234.5 -59.5q-130 0 -235 60z" />
    <glyph glyph-name="uni25D0" unicode="&#x25d0;" horiz-adv-x="940" 
d="M235 -99q-106 60 -165.5 165.5t-59.5 234.5q0 130 60 235q60 106 165.5 165.5t234.5 59.5q130 0 235 -60q106 -60 165.5 -165.5t59.5 -234.5q0 -130 -60 -235q-60 -106 -165.5 -165.5t-234.5 -59.5q-130 0 -235 60zM470 -58q96 0 173 47q78 48 122 130.5t44 181.5
q0 100 -44 183q-45 83 -122.5 129.5t-172.5 46.5v-718z" />
    <glyph glyph-name="uni25D1" unicode="&#x25d1;" horiz-adv-x="940" 
d="M235 -99q-106 60 -165.5 165.5t-59.5 234.5q0 130 60 235q60 106 165.5 165.5t234.5 59.5q130 0 235 -60q106 -60 165.5 -165.5t59.5 -234.5q0 -130 -60 -235q-60 -106 -165.5 -165.5t-234.5 -59.5q-130 0 -235 60zM470 660q-96 0 -173 -47q-78 -48 -122 -130.5
t-44 -181.5q0 -100 45 -183q45 -84 122 -130t172 -46v718z" />
    <glyph glyph-name="uni2605" unicode="&#x2605;" horiz-adv-x="960" 
d="M309 200l-273 198v2h337l106 323h2l106 -323h337v-2l-273 -198l106 -324h-1l-276 199l-276 -199h-1z" />
    <glyph glyph-name="uni2606" unicode="&#x2606;" horiz-adv-x="960" 
d="M309 200l-273 198v2h337l106 323h2l106 -323h337v-2l-273 -198l106 -324h-1l-276 199l-276 -199h-1zM352 215l-82 -247h2l208 152l209 -152h1l-82 247l206 147v2h-254l-79 243h-2l-79 -243h-254v-2z" />
    <glyph glyph-name="uni260E" unicode="&#x260e;" horiz-adv-x="960" 
d="M132 -54q-43 0 -43 48q0 17 11 34l13 28l7 30l5 27q10 46 24 64q22 33 61 75q41 41 63 81q27 50 27 122v43q0 11 -6 11q-18 0 -35 -14.5t-17 -31.5q0 -4 8 -31t8 -32q0 -37 -78 -66q-56 -22 -110 -22q-49 0 -49 66q0 140 174 203q113 40 285 40q167 0 281 -40
q178 -63 178 -194q0 -68 -52 -68q-44 0 -106 20q-77 26 -77 59q0 14 9 39q11 28 11 34q0 12 -16.5 21.5t-35.5 9.5q-14 0 -14 -16l2 -30q0 -78 30 -125q35 -46 66 -84q45 -47 61 -94q9 -16 12 -49l10 -49q1 -4 5 -10l8 -15q9 -16 9 -27q0 -25 -21.5 -41t-52.5 -16h-655z
M598 60q50 53 50 128t-48 129q-49 52 -122 52q-75 0 -126 -51q-49 -52 -49 -130q0 -76 47 -129q50 -50 125 -50q72 0 123 51zM537 434q39 0 39 25v47q-39 -9 -96 -9q-51 0 -97 11v-50q0 -24 37 -24h117z" />
    <glyph glyph-name="uni260F" unicode="&#x260f;" horiz-adv-x="960" 
d="M132 -54q-43 0 -43 48q0 17 11 34l13 28l7 30l5 27q10 46 24 64q22 33 61 75q41 41 63 81q27 50 27 122v43q0 11 -6 11q-18 0 -35 -14.5t-17 -31.5q0 -4 8 -31t8 -32q0 -37 -78 -66q-56 -22 -110 -22q-49 0 -49 66q0 140 174 203q113 40 285 40q167 0 281 -40
q178 -63 178 -194q0 -68 -52 -68q-44 0 -106 20q-77 26 -77 59q0 14 9 39q11 28 11 34q0 12 -16.5 21.5t-35.5 9.5q-14 0 -14 -16l2 -30q0 -78 30 -125q35 -46 66 -84q45 -47 61 -94q9 -16 12 -49l10 -49q1 -4 5 -10l8 -15q9 -16 9 -27q0 -25 -21.5 -41t-52.5 -16h-655z
M336 46q-57 57 -57 141q0 90 55 145q57 57 143 57q87 0 142 -57q56 -56 56 -145q0 -85 -57 -142q-56 -56 -141 -56q-84 0 -141 57zM598 60q50 53 50 128t-48 129q-49 52 -122 52q-75 0 -126 -51q-49 -52 -49 -130q0 -76 47 -129q50 -50 125 -50q72 0 123 51zM779 -31
q54 0 54 34q0 10 -9 32l-14 32q-5 37 -20 88q-20 48 -65 93q-52 55 -64 83q-30 56 -30 142q0 54 29 54q30 0 56 -14q35 -17 35 -41q0 -18 -10 -37t-10 -36q0 -23 64 -41q44 -16 82 -16q34 0 34 40q0 121 -166 178q-115 39 -264 39q-154 0 -268 -40q-167 -57 -167 -179
q0 -46 30 -46q32 0 89 19q69 21 69 47q0 9 -10 28t-10 36q0 25 31 47q28 22 58 22q27 0 27 -49q0 -117 -57 -200l-98 -114q-16 -20 -26 -60l-14 -61q-1 -11 -11 -29q-8 -24 -8 -29q0 -22 25 -22h638zM418 412q-60 0 -60 42v77q69 -12 123 -12q61 0 120 10v-73q0 -44 -68 -44
h-115zM537 434q39 0 39 25v47q-39 -9 -96 -9q-51 0 -97 11v-50q0 -24 37 -24h117z" />
    <glyph glyph-name="uni261C" unicode="&#x261c;" horiz-adv-x="960" 
d="M497 102q-27 -13 -53 -13q-17 0 -50 11q-29 14 -29 35q0 8 3 14q-86 14 -86 57q0 15 14 23q-52 12 -52 55q0 33 38 50q-215 0 -238 17q-17 14 -17 28q0 33 46 40q284 38 451 38q88 0 142 -12q22 -4 62 -25q37 -23 55 -30q32 -9 56 -14v42h94v-304h-94v31q-31 -1 -94 -27
q-93 -38 -175 -38q-48 0 -73 22zM524 127q42 28 55 58l2 9q0 19 -20 19q-30 -24 -62 -39q-36 -22 -94 -26l-10 -1h-8q-5 0 -6 -1q-3 -3 -3 -11q0 -17 30 -26q14 -7 42 -7q34 0 74 25zM493.5 184q40.5 21 67.5 55l2 10q0 23 -23 23q-5 0 -10 -3q-13 -9 -28 -18l-30 -20
q-47 -26 -83 -26q-13 0 -43 6l-34 8q-15 0 -15 -14q0 -23 44 -37q27 -10 61 -10q51 5 91.5 26zM458 238q42 22 62 42q4 4 4 9q0 16 -21 16q-3 0 -17 -8l-43 -26q-52 -33 -85 -33q-19 0 -32 10q-15 11 -15 26q0 18 23 32q25 16 25 22q0 7 -17 7q-33 0 -53 -10
q-30 -15 -30 -41q0 -27 50 -50q48 -17 76 -17t73 21zM701 114l61 24q36 16 77 18v206q-26 1 -63 17q-61 33 -113 53q-33 10 -139 10q-196 0 -450 -36q-30 -4 -30 -27q0 -25 51 -28l224 -4h7l13 1q10 1 19 0l9 -3l9 -6q54 44 96 62q58 18 169 22l1 -13q-112 -2 -168 -22
q-16 -6 -56 -35l-57 -43q-36 -21 -36 -37q0 -21 35 -21q32 0 79 32q49 34 64 34q12 0 31 -3q12 -4 31 -4l34 2q10 0 10 -6q0 -4 -7 -8q35 -84 121 -106l-1 -8q-45 10 -85 43t-54 74q-6 3 -17 3q-25 0 -25 -10t19 -17q18 -7 18 -23q0 -18 -10 -31q24 -10 24 -36
q0 -33 -77 -80q14 -15 48 -15q69 0 138 21zM918 127v279h-62v-279h62z" />
    <glyph glyph-name="uni261E" unicode="&#x261e;" horiz-adv-x="960" 
d="M215 118q-63 26 -94 27v-31h-94v304h94v-42q24 5 56 14q18 8 55 30q40 21 62 25q54 12 142 12q167 0 451 -38q46 -7 46 -40q0 -14 -17 -28q-23 -17 -238 -17q38 -17 38 -50q0 -43 -52 -55q14 -8 14 -23q0 -43 -86 -57q3 -6 3 -14q0 -21 -29 -35q-33 -11 -50 -11
q-24 0 -53 13q-25 -22 -73 -22q-82 0 -175 38zM104 127v279h-62v-279h62zM552 109q30 9 30 26q0 8 -3 11q-1 1 -6 1h-7l-11 1q-58 4 -94 26q-32 15 -62 39q-20 0 -20 -19l2 -9q13 -30 55 -58q40 -25 74 -25q28 0 42 7zM619 168q44 14 44 37q0 14 -15 14l-34 -8
q-30 -6 -43 -6q-36 0 -83 26l-29 20q-16 8 -29 18q-4 3 -10 3q-23 0 -23 -23l2 -10q27 -34 67.5 -55t91.5 -26q34 0 61 10zM445 108q-77 47 -77 80q0 26 24 36q-10 13 -10 31q0 16 18 23q19 7 19 17t-25 10q-11 0 -17 -3q-14 -41 -54 -74t-85 -43l-1 8q86 22 121 106
q-7 4 -7 8q0 6 10 6l34 -2q20 0 32 4q20 3 30 3q15 0 64 -34q47 -32 79 -32q35 0 35 21q0 16 -36 37l-57 43q-40 29 -56 35q-56 20 -168 22l1 13q111 -4 169 -22q42 -18 96 -62l9 6l9 3q9 1 19 0l13 -1h7l224 4q51 2 51 28q0 23 -30 27q-253 36 -450 36q-106 0 -139 -10
q-52 -20 -113 -53q-37 -16 -63 -17v-206q41 -2 77 -18l61 -24q69 -21 138 -21q35 0 48 15zM651 234q50 23 50 50q0 26 -30 41q-20 10 -53 10q-17 0 -17 -7q0 -6 25 -22q23 -14 23 -32q0 -15 -15 -26q-13 -10 -32 -10q-32 0 -85 33l-42 26l-18 8q-21 0 -21 -16q0 -5 4 -9
q20 -20 62 -42q45 -21 73 -21t76 17z" />
    <glyph glyph-name="female" unicode="&#x2640;" horiz-adv-x="960" 
d="M457 170h-280v46h280v123q-47 5 -85.5 31.5t-61 68.5t-22.5 91q0 53 25.5 97t69.5 69.5t97 25.5t97 -25.5t69.5 -69.5t25.5 -97q0 -49 -22.5 -91t-61 -68.5t-85.5 -31.5v-123h280v-46h-280v-292h-46v292zM554.5 403.5q33.5 19.5 52.5 52.5t19 74q0 40 -19.5 73.5t-53 53
t-73.5 19.5t-73.5 -19.5t-53 -53t-19.5 -73.5q0 -41 19 -74t52.5 -52.5t74.5 -19.5t74.5 19.5z" />
    <glyph glyph-name="male" unicode="&#x2642;" horiz-adv-x="960" 
d="M227 -38.5q-44 25.5 -69.5 69.5t-25.5 97q0 56 26 99.5t70 68t96 24.5q65 0 119 -42l311 311h-271v43h345v-345h-43v270l-310 -310q41 -56 41 -119q0 -53 -25.5 -97t-69.5 -69.5t-97 -25.5t-97 25.5zM396 0q33 19 52.5 52.5t19.5 74.5q0 62 -41.5 103.5t-103.5 41.5
q-41 0 -74.5 -19.5t-52.5 -52.5t-19 -73t19.5 -73.5t53 -53t73.5 -19.5t73 19z" />
    <glyph glyph-name="spade" unicode="&#x2660;" horiz-adv-x="960" 
d="M356 -121q-3 0 -5 6q-1 1 -1 3q0 4 6 10q48 42 69.5 87t25.5 111q0 17 -6 17q-5 0 -7 -5l-8 -16q-18 -42 -61 -67.5t-97 -25.5q-52 0 -96 26.5t-70 74.5t-26 109q0 63 28 118q25 48 53 81.5t101 102.5q168 167 216 243l2 2l2 -2q48 -76 216 -243q60 -57 93 -93
q41 -46 65 -101t24 -108q0 -60 -25 -108t-69 -75t-98 -27t-97 25.5t-61 67.5l-7 16q-3 5 -8 5q-6 0 -6 -17q4 -66 25.5 -111t69.5 -87q7 -7 6 -13q-3 -6 -6 -6h-248z" />
    <glyph glyph-name="uni2661" unicode="&#x2661;" horiz-adv-x="960" 
d="M478 -102q-26 45 -88 118.5t-129 139.5q-60 57 -94 97q-43 49 -68 105t-25 112q0 68 27.5 120.5t73 81.5t99.5 29q134 0 204 -145l2 -3q1 0 2 3q33 72 85.5 108.5t118.5 36.5q54 0 99.5 -29t73 -81.5t27.5 -120.5q0 -67 -28 -122q-26 -50 -55 -85t-104 -107
q-67 -66 -129 -139.5t-88 -118.5l-2 -2zM482 -37q65 96 188 217l15 14q42 39 82 85q39 43 60.5 93t21.5 98q0 54 -22 98.5t-59.5 70t-81.5 25.5q-57 0 -102.5 -34.5t-72.5 -100.5q-9 -18 -15.5 -25t-15.5 -7t-15.5 7t-15.5 25q-27 66 -72.5 100.5t-102.5 34.5
q-44 0 -81.5 -25.5t-59.5 -70t-22 -98.5q0 -56 25 -105q21 -44 50 -79t90 -93l15 -14q108 -104 187 -216l2 -2z" />
    <glyph glyph-name="club" unicode="&#x2663;" horiz-adv-x="960" 
d="M357 -122q-7 0 -7 8q0 5 6 11q48 42 69.5 87t25.5 111q0 18 -6 18q-4 0 -6 -5q-1 -6 -9 -17q-27 -45 -74.5 -72t-101.5 -27t-98.5 25t-69.5 69t-25 100q0 54 24.5 99t68.5 71t101 26q43 0 83 -22q1 -1 3 -1q3 0 4 3q2 3 0 6l-3 3q-28 24 -44 60.5t-16 77.5q0 56 26 101.5
t71 72t101 26.5q53 0 98.5 -25.5t72.5 -71t27 -102.5q0 -41 -16 -77.5t-44 -61.5l-3 -3q-1 -4 0 -6q2 -3 4 -3l3 1q18 10 40.5 16t41.5 6q54 0 98.5 -24.5t70.5 -69t26 -102.5q0 -54 -24.5 -98.5t-68.5 -70t-100 -25.5q-53 0 -99.5 26.5t-76.5 72.5q-6 7 -8 17q-2 5 -7 5
q-6 0 -6 -18q6 -70 28 -115.5t67 -82.5q7 -7 6 -13q-3 -6 -6 -6h-247z" />
    <glyph glyph-name="uni2664" unicode="&#x2664;" horiz-adv-x="960" 
d="M340 -123q-3 0 -6 5l-1 3q0 4 7 11q29 27 47 55t30 64q8 26 9 48v23l-3 -6q-26 -39 -68 -62t-87 -23q-56 0 -99.5 26.5t-68.5 75t-25 110.5q0 63 29 119q24 48 56 85.5t100 102.5q64 59 127.5 131t90.5 115l2 2l2 -2q27 -43 90.5 -115t127.5 -131q54 -51 91 -91
q44 -49 69 -104.5t25 -111.5q0 -62 -25 -110.5t-68.5 -75t-99.5 -26.5q-48 0 -88.5 22t-66.5 63q-3 2 -3 4l1 -24q0 -15 8 -45q12 -36 30 -64t47 -55q9 -9 6 -14t-6 -5h-280zM552 -86q3 0 -1 4l-9 13q-43 67 -43 150q0 25 5 45q5 15 19 15q13 0 20 -12q8 -13 18 -23
q28 -38 59 -55.5t74 -17.5t78.5 23t55.5 62.5t20 88.5q0 54 -27 106q-24 44 -55 80.5t-90 92.5q-58 53 -114 114.5t-80 96.5l-2 2l-2 -2q-23 -34 -78 -94t-115 -117q-52 -49 -84 -85q-41 -44 -65 -95.5t-24 -98.5q0 -49 20 -88.5t55.5 -62.5t78.5 -23q79 0 133 73
q10 10 18 23q8 12 20 12q15 0 19 -15q5 -20 5 -45q0 -83 -43 -150q-6 -10 -9 -13q-4 -4 -1 -4h144z" />
    <glyph glyph-name="heart" unicode="&#x2665;" horiz-adv-x="960" 
d="M478 -100q-29 47 -91.5 120.5t-124.5 134.5q-69 66 -94 95q-42 46 -67 103.5t-25 114.5q0 66 27.5 119t73.5 82.5t99 29.5q75 0 126.5 -39t72.5 -114q1 -7 5 -7t5 7q18 72 71 112.5t128 40.5q53 0 99 -29.5t73.5 -82.5t27.5 -119q0 -62 -29 -123q-26 -50 -54.5 -84.5
t-102.5 -105.5q-62 -61 -124.5 -134.5t-91.5 -120.5l-2 -2z" />
    <glyph glyph-name="uni2667" unicode="&#x2667;" horiz-adv-x="960" 
d="M340 -124q-3 0 -6 5l-1 3q0 4 7 11q34 34 52 63.5t30 71.5q7 24 5 53l-4 -6l-6 -10q-30 -36 -74 -56t-92 -20q-56 0 -100 25.5t-68.5 71t-24.5 102.5q0 89 53 143.5t141 54.5q20 0 45.5 -6.5t35.5 -13.5q2 -1 2.5 0t-1.5 2q-24 28 -38.5 65.5t-14.5 78.5q0 55 26.5 100.5
t72 72t100.5 26.5q58 0 103 -27t70.5 -72.5t25.5 -99.5q0 -41 -14.5 -78.5t-38.5 -65.5q-3 -3 1 -2q10 7 35.5 13.5t45.5 6.5q88 0 141 -54.5t53 -143.5q0 -57 -24.5 -102.5t-68.5 -71t-100 -25.5q-48 0 -92 20t-74 56l-6 10l-4 6q1 -44 5 -53q12 -42 30 -71.5t52 -63.5
q9 -9 6 -14t-6 -5h-280zM552 -87q3 0 -1 4q-5 5 -10 13q-43 70 -43 149q0 30 6 45t21 15q12 0 19 -12q4 -9 17 -23q30 -39 65.5 -57.5t82.5 -18.5q44 0 79.5 21.5t56 58.5t20.5 82q0 71 -43.5 116.5t-113.5 45.5q-40 0 -83 -22q-19 -8 -25 -8q-13 0 -22 11q-5 8 -5 14
q0 11 6 18q8 12 24 32q35 47 39 117q1 43 -20.5 80t-59 59t-82.5 22q-42 0 -79 -21t-60 -58t-23 -82q0 -64 39 -117l25 -32q5 -8 5 -18q0 -6 -5 -14q-9 -11 -22 -11q-6 0 -25 8q-43 22 -83 22q-70 0 -113.5 -45.5t-43.5 -116.5q0 -45 20.5 -82t56 -58.5t79.5 -21.5
q47 0 82 18t66 58q10 10 18 23q8 12 18 12q15 0 21 -15t6 -45q0 -82 -43 -149q-6 -10 -9 -13q-4 -4 -2 -4h144z" />
    <glyph glyph-name="uni2668" unicode="&#x2668;" horiz-adv-x="960" 
d="M324.5 -65.5q-72.5 17.5 -127.5 50.5q-57 33 -87.5 76t-30.5 93q0 66 38.5 109t110.5 59l2 -4q-101 -32 -101 -117q0 -39 27 -73.5t76 -59.5q51 -25 115 -39t133 -14t133 14t116 39q48 25 75 59.5t27 73.5q0 85 -101 117l2 4q72 -16 110.5 -59t38.5 -109q0 -50 -30 -93
t-87 -76q-55 -33 -128.5 -50.5t-155.5 -17.5q-83 0 -155.5 17.5zM272 124q24 24 34 53t10 72q0 25 -10 54t-33 73q-40 76 -40 125q0 48 28 91t79 73l5 -6q-24 -24 -34.5 -54t-10.5 -70q0 -24 9 -50.5t35 -77.5q39 -76 39 -126q0 -48 -28 -90.5t-79 -72.5zM438 88
q24 27 34.5 61t10.5 81q0 28 -10 61t-33 83q-42 87 -42 141t28.5 102.5t81.5 83.5l5 -7q-24 -27 -34.5 -60.5t-10.5 -80.5q0 -28 10 -61t33 -83q41 -91 41 -142q0 -53 -28.5 -101.5t-80.5 -83.5zM609 124q24 24 34 53.5t10 71.5q0 25 -10 54t-33 73q-40 76 -40 126
q0 48 28 90.5t79 72.5l5 -6q-24 -24 -34.5 -54t-10.5 -70q0 -24 9 -50.5t35 -77.5q39 -73 39 -125q0 -48 -28 -91t-79 -73z" />
    <glyph glyph-name="uni2669" unicode="&#x2669;" horiz-adv-x="960" 
d="M373 -122.5q-25 19.5 -25 51.5q0 34 23 64.5t61.5 49.5t81.5 19q38 0 60 -13v693h38v-720q0 -46 -22 -83.5t-61.5 -59t-91.5 -21.5q-39 0 -64 19.5z" />
    <glyph glyph-name="musicalnote" unicode="&#x266a;" horiz-adv-x="960" 
d="M262 -122.5q-25 19.5 -25 51.5q0 34 23 64.5t61.5 49.5t81.5 19q39 0 61 -13v693h24q0 -116 111 -212q124 -106 124 -216q0 -105 -81 -234h-25q61 121 61 202t-49 142.5t-127 79.5v-482q0 -47 -22 -84t-62 -58.5t-92 -21.5q-39 0 -64 19.5z" />
    <glyph glyph-name="uni266C" unicode="&#x266c;" horiz-adv-x="960" 
d="M111.5 -136.5q-25.5 19.5 -25.5 51.5t22.5 63t60.5 50.5t83 19.5q39 0 61 -13v598l562 123v-626q0 -47 -22.5 -84t-62.5 -58t-91 -21q-39 0 -64 19.5t-25 51.5q0 31 22.5 62t60.5 50.5t83 19.5q38 0 60 -12v328l-485 -105v-374q0 -46 -22.5 -83t-62 -58.5t-90.5 -21.5
q-39 0 -64.5 19.5zM836 582v69l-485 -105v-69z" />
    <glyph glyph-name="uni266D" unicode="&#x266d;" horiz-adv-x="960" 
d="M287 729h37v-479q37 63 91 98.5t117 35.5q62 0 101 -36t39 -90q0 -63 -33.5 -113t-105.5 -96l-40 -25q-86 -55 -126 -86t-72 -67h-8v858zM324 -61q25 29 83 76q46 36 73 64q63 65 63 161q0 80 -69 80q-37 0 -77 -32t-73 -88v-261z" />
    <glyph glyph-name="uni3000" unicode="&#x3000;" 
 />
    <glyph glyph-name="uni3001" unicode="&#x3001;" 
d="M220 -155q-38 70 -77 126q-43 63 -93 107l93 54q52 -37 112 -97q59 -62 97 -122z" />
    <glyph glyph-name="uni3002" unicode="&#x3002;" 
d="M103 -119q-35 20 -54 54.5t-19 75.5q0 40 19 74t54 54t79 20q43 0 77 -19.5t53 -53.5t19 -75q0 -65 -42.5 -107.5t-106.5 -42.5q-44 0 -79 20zM222 -38q17 20 17 48t-17 48t-41 20q-25 0 -42 -19.5t-17 -48.5t17 -48.5t42 -19.5q24 0 41 20z" />
    <glyph glyph-name="uni3003" unicode="&#x3003;" horiz-adv-x="600" 
d="M260 206l95 293l130 -52l-136 -277zM155 519l130 -53l-136 -276l-89 36z" />
    <glyph glyph-name="uni3008" unicode="&#x3008;" horiz-adv-x="386" 
d="M25 326l182 466h139l-182 -466l182 -467h-139z" />
    <glyph glyph-name="uni3009" unicode="&#x3009;" horiz-adv-x="386" 
d="M222 326l-182 466h139l182 -466l-182 -467h-139z" />
    <glyph glyph-name="uni300A" unicode="&#x300a;" horiz-adv-x="600" 
d="M255 326l172 466h149l-182 -466l182 -467h-149zM197 792h149l-182 -466l182 -467h-149l-172 467z" />
    <glyph glyph-name="uni300B" unicode="&#x300b;" horiz-adv-x="600" 
d="M452 326l-182 466h149l172 -466l-172 -467h-149zM222 326l-182 466h149l172 -466l-172 -467h-149z" />
    <glyph glyph-name="uni300C" unicode="&#x300c;" horiz-adv-x="342" 
d="M80 792h222v-106h-95v-199h-127v305z" />
    <glyph glyph-name="uni300D" unicode="&#x300d;" horiz-adv-x="342" 
d="M40 -37h95v199h127v-305h-222v106z" />
    <glyph glyph-name="uni300E" unicode="&#x300e;" horiz-adv-x="391" 
d="M80 452l1 339l270 2v-152l-85 -1l-1 -190zM198 507v188l85 1v40h-134v-229h49z" />
    <glyph glyph-name="uni300F" unicode="&#x300f;" horiz-adv-x="391" 
d="M40 8l85 1l1 190l185 -2l-1 -339l-270 -2v152zM242 -87v229h-49v-188l-85 -1v-40h134z" />
    <glyph glyph-name="uni3010" unicode="&#x3010;" horiz-adv-x="332" 
d="M80 792h222v-6q-111 -164 -111 -460t111 -460v-6h-222v932z" />
    <glyph glyph-name="uni3011" unicode="&#x3011;" horiz-adv-x="332" 
d="M30 -134q111 164 111 460t-111 460v6h222v-932h-222v6z" />
    <glyph glyph-name="uni3013" unicode="&#x3013;" horiz-adv-x="800" 
d="M50 523h700v-110h-700v110zM50 313h700v-110h-700v110z" />
    <glyph glyph-name="uni3014" unicode="&#x3014;" horiz-adv-x="367" 
d="M80 -32v724l247 110v-124l-115 -52v-592l115 -52v-124z" />
    <glyph glyph-name="uni3015" unicode="&#x3015;" horiz-adv-x="367" 
d="M40 -18l115 52v592l-115 52v124l247 -110v-724l-247 -110v124z" />
    <glyph glyph-name="uni3041" unicode="&#x3041;" horiz-adv-x="920" 
d="M477 16l20 -2q34 0 66 13q37 13 58.5 42.5t21.5 67.5q0 32 -23 76q-36 -67 -76 -115t-89 -81l25 -42l-119 -47l-19 40q-28 -5 -46 -5q-70 0 -109.5 34t-40.5 93q0 75 53 143q43 58 125 99v37q-39 -6 -95 -6q-43 0 -60 4l-23 111q62 -8 97 -8q23 0 81 5v136h126v-114
l187 42l24 -104q-42 -11 -106.5 -24t-104.5 -19v-28q21 3 43 3q23 0 44 -3l11 37l133 -38l-17 -41q44 -23 75.5 -78.5t31.5 -112.5q0 -55 -28 -102.5t-78.5 -77.5t-113.5 -36zM325 75v75l-1 51q-23 -21 -37.5 -48t-14.5 -48q0 -35 28 -35q7 0 25 5zM450 165q7 9 41 64l18 30
q-34 1 -59 0v-94z" />
    <glyph glyph-name="uni3042" unicode="&#x3042;" horiz-adv-x="920" 
d="M491 35l23 -2q42 0 80 16q44 16 69.5 50t25.5 80q0 22 -6.5 42t-21.5 49q-44 -81 -91 -138t-105 -96l29 -50l-141 -55l-23 47q-30 -6 -54 -6q-83 0 -130.5 41t-48.5 110q0 47 15.5 88.5t47.5 82.5q25 33 63.5 64t85.5 54v43q-46 -7 -110 -7q-43 0 -75 5l-27 132
q60 -9 114 -9q47 0 98 6v162h150v-136q147 30 222 50l29 -124q-58 -18 -251 -51v-33q24 3 48 3q37 0 56 -4l12 44l159 -45l-20 -48q52 -29 89.5 -93.5t37.5 -134.5q0 -67 -33.5 -123t-93 -91.5t-135.5 -42.5zM310 105v90l-1 60q-27 -24 -44.5 -56.5t-17.5 -57.5
q0 -42 34 -42q14 0 29 6zM459 213q18 24 50 79l20 33l-31 1l-39 -2v-111z" />
    <glyph glyph-name="uni3043" unicode="&#x3043;" horiz-adv-x="920" 
d="M215 -27q-44 46 -66.5 117t-22.5 148q0 167 48 321l113 -67q-18 -72 -26 -129t-8 -123q0 -90 23.5 -148t59.5 -58q24 0 56 42.5t50 96.5l74 -113q-19 -56 -71 -97t-111 -41q-72 0 -119 51zM687 76q-17 85 -58.5 154t-123.5 151l88 71q82 -63 138 -150t75 -180z" />
    <glyph glyph-name="uni3044" unicode="&#x3044;" horiz-adv-x="920" 
d="M162 -17q-52 55 -79 139.5t-27 175.5q0 204 58 382l134 -79q-21 -84 -30.5 -152.5t-9.5 -147.5q0 -70 13 -126t35.5 -88t50.5 -32q18 0 42 23.5t47 62t37 80.5l88 -135q-23 -71 -85 -117.5t-132 -46.5q-87 0 -142 61zM724 105q-20 103 -69 184.5t-147 179.5l105 84
q98 -76 164 -178t89 -215z" />
    <glyph glyph-name="uni3045" unicode="&#x3045;" horiz-adv-x="920" 
d="M289 -17q82 26 130 52q116 60 116 182q0 45 -25 75t-63 30q-29 0 -79.5 -15.5t-101.5 -40.5l-46 102q45 26 112 44.5t117 18.5q62 0 110.5 -26t75.5 -73.5t27 -108.5q0 -110 -74.5 -194.5t-203.5 -126.5zM568 431q-80 99 -267 109l84 90q63 1 131 -27.5t122 -76.5z" />
    <glyph glyph-name="uni3046" unicode="&#x3046;" horiz-adv-x="920" 
d="M268 -1q87 27 154 61q139 70 139 217q0 52 -30 88.5t-74 36.5q-35 0 -94.5 -18.5t-121.5 -48.5l-55 122q54 31 133.5 53t139.5 22q73 0 131 -31t90 -87.5t32 -129.5q0 -131 -89 -232t-242 -150zM600 532q-95 117 -318 130l100 107q75 1 156.5 -33t144.5 -91z" />
    <glyph glyph-name="uni3047" unicode="&#x3047;" horiz-adv-x="920" 
d="M101 -28l377 357l-293 -5l-29 105h473l52 -75l-173 -156q40 -28 40 -72q0 -12 -6 -44q-6 -25 -6 -40q0 -21 14.5 -29t50.5 -8q63 0 154 42l-30 -113q-64 -30 -132 -30l-40 2q-66 6 -106.5 37.5t-40.5 78.5q0 38 14 83q2 9 1 10q-2 3 -6 -1l-224 -223zM280 497l7 104
l324 -17l-9 -105z" />
    <glyph glyph-name="uni3048" unicode="&#x3048;" horiz-adv-x="920" 
d="M37 -13l448 425l-349 -5l-34 124l563 1l62 -90l-206 -185q25 -17 36 -38t11 -48q0 -24 -7 -53t-7 -47q0 -21 12 -30.5t42 -12.5q3 -1 24 -1q71 0 183 50l-36 -135q-40 -18 -76.5 -26.5t-79.5 -8.5l-49 2q-76 7 -125.5 45.5t-49.5 92.5q0 43 17 99l2 8q0 4 -2.5 5t-5.5 -2
l-267 -266zM249 612l9 124l386 -20l-11 -125z" />
    <glyph glyph-name="uni3049" unicode="&#x3049;" horiz-adv-x="920" 
d="M219.5 -44.5q-32.5 19.5 -51.5 53t-19 74.5q0 69 45 124t128 94v54l-36 -1q-57 -4 -141 -5l-27 107q94 -1 204 8v140h125v-118q46 14 101 37v-117q-41 -24 -101 -34v-35q38 5 57 5q80 0 141 -29.5t94 -80.5t31 -114q0 -49 -25 -90t-67.5 -65t-91.5 -24q-62 0 -121 31
l53 100q15 -9 34.5 -14.5t37.5 -5.5q24 0 39 19.5t15 52.5q0 53 -39 82.5t-102 29.5q-27 0 -57 -8v-157q0 -62 -42 -97.5t-112 -35.5q-40 0 -72.5 19.5zM322 89v87q-25 -18 -38 -43t-13 -52q0 -20 6.5 -28.5t19.5 -8.5q25 0 25 45zM748 284q-29 47 -88.5 87.5t-110.5 48.5
l50 92q65 -12 123.5 -49t86.5 -83z" />
    <glyph glyph-name="uni304A" unicode="&#x304a;" horiz-adv-x="920" 
d="M169 -41.5q-39 22.5 -62.5 62.5t-23.5 90q0 159 206 260v64q-138 -6 -210 -7l-33 127q113 -1 243 9v167h149v-140q54 16 120 44v-140q-47 -28 -120 -40v-42q35 5 69 5q87 0 158 -31q76 -33 118.5 -94t39.5 -140q-1 -58 -31 -107.5t-79.5 -78t-108.5 -28.5q-34 0 -72.5 10
t-72.5 27l63 120q18 -11 41.5 -17.5t44.5 -6.5q28 0 46.5 24t18.5 62q0 62 -46.5 97.5t-120.5 35.5q-38 0 -69 -10v-187q0 -74 -50.5 -116t-132.5 -42q-46 0 -85 22.5zM289 118v104q-30 -22 -45.5 -51.5t-15.5 -62.5q0 -44 31 -44q30 0 30 54zM796 350q-35 57 -105 105
t-131 57l59 110q77 -14 146.5 -58t103.5 -99z" />
    <glyph glyph-name="uni304B" unicode="&#x304b;" horiz-adv-x="920" 
d="M47 -55l143 451l-107 -11l-32 127l180 14l73 225l128 -64l-46 -152l76 3q50 2 83.5 -16.5t49.5 -54.5l117 58q66 -60 111 -132t63 -144l-139 -95q-10 68 -48 144t-95 143q5 -32 5 -48q0 -119 -8.5 -193t-31.5 -141q-50 -137 -197 -143l-59 121q49 3 68 10q22 7 34 26
t23 64q9 32 17.5 102.5t8.5 114.5q0 25 -3 35q-4 22 -32 22l-82 -2l-157 -506z" />
    <glyph glyph-name="uni304C" unicode="&#x304c;" horiz-adv-x="920" 
d="M47 -55l143 451l-107 -11l-32 127l180 14l73 225l128 -64l-46 -152l76 3q50 2 83.5 -16.5t49.5 -54.5l105 52q-26 38 -73.5 76t-96.5 59l104 65q62 -24 104.5 -62t76.5 -98l-73 -63q55 -57 92 -120.5t52 -126.5l-139 -95q-10 68 -48 144t-95 143q5 -32 5 -48
q0 -119 -8.5 -193t-31.5 -141q-50 -137 -197 -143l-59 121q49 3 68 10q22 7 34 26t23 64q9 32 17.5 102.5t8.5 114.5q0 25 -3 35q-4 22 -32 22l-82 -2l-157 -506zM835 567q-6 44 -61.5 96t-126.5 86l99 65q57 -20 95 -53t77 -94l9 -14z" />
    <glyph glyph-name="uni304D" unicode="&#x304d;" horiz-adv-x="920" 
d="M350 -76q-78 22 -123 70t-45 114q0 56 31 101.5t87 73.5t130 33q3 1 21 1q34 0 56 -6l-12 40l-21 -2q-138 -16 -191 -16q-62 0 -111 17l-46 126q63 -19 139 -19q20 0 88 5l101 9l-10 31l-213 -15l-60 121l233 16l-29 91l151 10l29 -88l141 10l45 -116l-146 -13l9 -29
q56 4 155 16l48 -118l-162 -17l58 -182l-134 -23q-19 12 -42 18t-62 8q-52 2 -92 -20.5t-40 -58.5q0 -43 52.5 -64t133.5 -18q61 2 104.5 12t88.5 34l61 -134q-68 -21 -131.5 -30.5t-136.5 -9.5q-85 0 -155 22z" />
    <glyph glyph-name="uni304E" unicode="&#x304e;" horiz-adv-x="920" 
d="M300 -76q-78 22 -123 70t-45 114q0 56 31 101.5t87 73.5t130 33q3 1 21 1q34 0 56 -6l-12 40l-21 -2q-138 -16 -191 -16q-62 0 -111 17l-46 126q63 -19 139 -19q20 0 88 5l101 9l-10 31l-213 -15l-60 121l233 16l-29 91l151 10l29 -88l117 8q-55 41 -97 59l104 65
q62 -24 104.5 -62t76.5 -98l-94 -82q-12 37 -56 85l31 -81l-146 -13l9 -29q56 4 155 16l48 -118l-162 -17l58 -182l-134 -23q-19 12 -42 18t-62 8q-52 2 -92 -20.5t-40 -58.5q0 -43 52.5 -64t133.5 -18q61 2 104.5 12t88.5 34l61 -134q-68 -21 -131.5 -30.5t-136.5 -9.5
q-85 0 -155 22zM830 607q-26 60 -74.5 106t-113.5 76l99 65q125 -56 181 -161z" />
    <glyph glyph-name="uni304F" unicode="&#x304f;" horiz-adv-x="920" 
d="M547 -113q-93 168 -164 264t-165 177l331 432l125 -88l-264 -330q168 -183 263 -369z" />
    <glyph glyph-name="uni3050" unicode="&#x3050;" horiz-adv-x="920" 
d="M457 -113q-93 168 -164 264t-165 177l331 432l125 -88l-264 -330q168 -183 263 -369zM649 310q-24 55 -73.5 101t-117.5 76l104 65q60 -23 103.5 -61.5t77.5 -98.5zM760 397q-50 117 -188 182l99 65q52 -16 102 -60.5t79 -100.5z" />
    <glyph glyph-name="uni3051" unicode="&#x3051;" horiz-adv-x="920" 
d="M362 21q74 20 109 43q41 24 60 64t19 102v172h-232v126h232v193h150v-193h179q-13 -16 -13 -50v-76h-166v-173q0 -83 -31.5 -150.5t-86.5 -109t-125 -51.5zM167 -74q-50 235 -50 435q0 169 38 376l147 -14q-28 -175 -28 -365q0 -92 7 -193t22 -238z" />
    <glyph glyph-name="uni3052" unicode="&#x3052;" 
d="M342 21q74 20 109 43q41 24 60 64t19 102v172h-232v126h232v193h125q-20 22 -62 50l116 47q44 -28 65 -50q23 -25 40.5 -53.5t42.5 -83.5l-104 -65q-25 72 -73 128v-166h179q-13 -16 -13 -50v-76h-166v-173q0 -83 -31.5 -150.5t-86.5 -109t-125 -51.5zM157 -74
q-50 235 -50 435q0 169 38 376l147 -14q-28 -175 -28 -365q0 -92 7 -193t22 -238zM877 638q-10 51 -54.5 110t-102.5 98l110 48q44 -25 69 -51q24 -24 40 -52t40 -86z" />
    <glyph glyph-name="uni3053" unicode="&#x3053;" horiz-adv-x="920" 
d="M415 -48q-113 0 -186 26q-72 27 -108 89.5t-42 172.5l143 54q6 -89 18 -131q12 -43 49.5 -63t112.5 -20h435q-13 -16 -13 -50v-78h-409zM396 490q-156 0 -240 15v127q89 -16 240 -16h380q-13 -16 -13 -50v-76h-367z" />
    <glyph glyph-name="uni3054" unicode="&#x3054;" horiz-adv-x="960" 
d="M415 -48q-113 0 -186 26q-72 27 -108 89.5t-42 172.5l143 54q6 -89 18 -131q12 -43 49.5 -63t112.5 -20h435q-13 -16 -13 -50v-78h-409zM396 490q-156 0 -240 15v127q89 -16 240 -16h345q-13 -16 -13 -50v-76h-332zM780 572q-21 46 -78.5 89t-128.5 70l97 72
q60 -14 105.5 -47.5t88.5 -94.5zM873 658q-9 44 -69 92.5t-134 73.5l92 74q64 -18 105.5 -49.5t88.5 -95.5z" />
    <glyph glyph-name="uni3055" unicode="&#x3055;" horiz-adv-x="920" 
d="M334 -62q-63 28 -96.5 76t-33.5 108q0 55 35 108q37 54 106 82t160 23q-27 44 -53 98l-98 -3q-101 -2 -163 14l-57 132q62 -12 108 -17t90 -4l74 2q-25 74 -35 168h161q5 -88 25 -155l192 17l49 -120l-188 -19q60 -116 144 -197l-78 -109q-40 41 -80 58.5t-93 17.5
q-62 0 -105 -24.5t-43 -64.5q0 -44 37.5 -69.5t103.5 -25.5t110.5 10.5t83.5 34.5l68 -129q-133 -46 -275 -42q-86 2 -149 30z" />
    <glyph glyph-name="uni3056" unicode="&#x3056;" horiz-adv-x="920" 
d="M294 -62q-63 28 -96.5 76t-33.5 108q0 55 35 108q37 54 106 82t160 23q-27 44 -53 98l-98 -3q-101 -2 -163 14l-57 132q62 -12 108 -17t90 -4l74 2q-25 74 -35 168h161q5 -88 25 -155l192 17l49 -120l-188 -19q60 -116 144 -197l-78 -109q-40 41 -80 58.5t-93 17.5
q-62 0 -105 -24.5t-43 -64.5q0 -44 37.5 -69.5t103.5 -25.5t110.5 10.5t83.5 34.5l68 -129q-133 -46 -275 -42q-86 2 -149 30zM746 552q-21 46 -78.5 89t-128.5 70l97 72q60 -14 105.5 -47.5t88.5 -94.5zM839 648q-9 44 -69 92.5t-134 73.5l92 74q64 -18 105.5 -49.5
t88.5 -95.5z" />
    <glyph glyph-name="uni3057" unicode="&#x3057;" horiz-adv-x="920" 
d="M234.5 -29q-52.5 57 -52.5 175v564h153v-566q0 -58 16.5 -80.5t60.5 -22.5q78 0 155 43.5t143 126.5l71 -126q-63 -77 -169.5 -124t-217.5 -47q-107 0 -159.5 57z" />
    <glyph glyph-name="uni3058" unicode="&#x3058;" horiz-adv-x="920" 
d="M234.5 -29q-52.5 57 -52.5 175v564h153v-566q0 -58 16.5 -80.5t60.5 -22.5q78 0 155 43.5t143 126.5l71 -126q-63 -77 -169.5 -124t-217.5 -47q-107 0 -159.5 57zM608 381q-23 51 -78.5 102t-112.5 75l104 65q114 -43 181 -160zM720 471q-32 69 -76 111.5t-112 70.5
l99 65q62 -24 104.5 -62t76.5 -99z" />
    <glyph glyph-name="uni3059" unicode="&#x3059;" horiz-adv-x="920" 
d="M273 -27q58 34 89.5 58.5t56.5 52.5q-13 -3 -24 -3q-52 0 -94 23.5t-66 63t-24 86.5q0 51 23 93.5t62.5 68t88.5 26.5q24 0 42 -3v27h-342v126h342v148h151v-148h258q-13 -16 -13 -50v-76h-245v-110q30 -61 30 -142q0 -93 -65 -182.5t-171 -143.5zM425 260v41
q-9 12 -27 12q-16 0 -26 -13.5t-10 -37.5q0 -53 34 -53q29 0 29 51z" />
    <glyph glyph-name="uni305A" unicode="&#x305a;" horiz-adv-x="920" 
d="M253 -27q58 34 89.5 58.5t56.5 52.5q-13 -3 -24 -3q-52 0 -94 23.5t-66 63t-24 86.5q0 51 23 93.5t62.5 68t88.5 26.5q24 0 42 -3v27h-342v126h342v148h151v-148h166q-20 46 -74 93.5t-113 72.5l104 65q61 -23 104 -61.5t77 -98.5l-81 -71h75q-13 -16 -13 -50v-76h-245
v-110q30 -61 30 -142q0 -93 -65 -182.5t-171 -143.5zM405 260v41q-9 12 -27 12q-16 0 -26 -13.5t-10 -37.5q0 -53 34 -53q29 0 29 51zM830 661q-23 63 -73.5 111.5t-114.5 70.5l99 65q62 -24 100.5 -58t80.5 -103z" />
    <glyph glyph-name="uni305B" unicode="&#x305b;" horiz-adv-x="920" 
d="M421 -51q-63 0 -104 15q-42 15 -62.5 54.5t-20.5 107.5v264l-178 -10l1 129l177 10v193h152v-184l162 8v178h150v-168l164 12v-132l-164 -10v-118q0 -79 -53 -128t-140 -49q-16 0 -51 5l-40 143q56 -18 93 -18q22 0 31.5 10t9.5 33v112l-162 -9v-271q0 -27 10 -38.5
t33 -11.5h349v-127h-357z" />
    <glyph glyph-name="uni305C" unicode="&#x305c;" horiz-adv-x="920" 
d="M401 -51q-63 0 -104 15q-42 15 -62.5 54.5t-20.5 107.5v264l-178 -10l1 129l177 10v193h152v-184l143 8v178h110q-49 34 -77 44l104 65q61 -23 104 -61.5t77 -98.5l-94 -82q-17 53 -74 101v-136l183 12v-132l-183 -10v-118q0 -84 -45 -130.5t-129 -46.5q-14 0 -46 3
l-24 2l-40 143q56 -18 93 -18q22 0 31.5 10t9.5 33v112l-143 -9v-271q0 -27 10 -38.5t33 -11.5h349v-127h-357zM835 661q-9 47 -62.5 97.5t-125.5 84.5l99 65q61 -24 98 -56t74 -91l9 -14z" />
    <glyph glyph-name="uni305D" unicode="&#x305d;" horiz-adv-x="920" 
d="M430 -56q-65 27 -101 82t-36 130q0 28 8.5 58.5t24.5 58.5l-237 -23l-33 125l233 25l177 181l-266 -13l-8 128l433 10l64 -88l-217 -204l344 33l42 -113l-310 -28q-50 -6 -84 -49t-34 -99q0 -119 135 -119q40 0 81 9t102 33l-30 -140q-80 -23 -148 -23q-76 0 -140 26z
" />
    <glyph glyph-name="uni305E" unicode="&#x305e;" horiz-adv-x="920" 
d="M380 -56q-65 27 -101 82t-36 130q0 28 8.5 58.5t24.5 58.5l-237 -23l-33 125l233 25l177 181l-266 -13l-8 128l426 10l-25 18l116 47q53 -33 87.5 -77t59.5 -111l-103 -64q-38 106 -118 174l54 -75l-217 -204l344 33l42 -113l-310 -28q-51 -5 -84.5 -47t-33.5 -101
q0 -119 135 -119q40 0 81 9t102 33l-30 -140q-80 -23 -148 -23q-76 0 -140 26zM817 581q-21 69 -58 118t-99 90l110 48q104 -77 149 -189z" />
    <glyph glyph-name="uni305F" unicode="&#x305f;" horiz-adv-x="920" 
d="M81 -24l154 447h-134l-39 127h214l67 200l141 -42l-46 -143q44 6 121.5 21t95.5 21l-35 -137l-3 -2q-11 -5 -83.5 -18.5t-140.5 -23.5l-167 -511zM602 -71q-94 0 -157 43.5t-98 143.5l132 58q14 -48 30 -72q17 -25 54 -35t105 -8l165 5l17 -127l-177 -5zM463 369
q103 41 199 41q76 0 154 -27l-11 -139q-85 32 -157 32q-38 0 -79.5 -8.5t-104.5 -27.5z" />
    <glyph glyph-name="uni3060" unicode="&#x3060;" horiz-adv-x="920" 
d="M81 -24l154 447h-134l-39 127h214l67 200l141 -42l-46 -143q24 3 117 21l-35 -137q-47 -16 -127 -23l-167 -511zM602 -71q-94 0 -157 43.5t-98 143.5l132 58q14 -48 30 -72q17 -25 54 -35t105 -8l165 5l17 -127l-177 -5zM463 369q103 41 199 41q76 0 154 -27l-11 -139
q-85 32 -157 32q-38 0 -79.5 -8.5t-104.5 -27.5zM728 471q-13 42 -70 99q-56 50 -121 78l104 65q73 -28 113 -71q39 -38 68 -89zM830 551q-6 39 -68 104q-46 44 -120 78l99 65q74 -28 115 -72q26 -25 57 -75l9 -14z" />
    <glyph glyph-name="uni3061" unicode="&#x3061;" horiz-adv-x="920" 
d="M390 -85.5q-41 2.5 -58 7.5l-71 138l36 -4q104 -14 126 -14q71 0 131 22.5t95 60t35 80.5q0 65 -82 65q-58 0 -110.5 -32.5t-106.5 -102.5l-85 88l9 170q-42 -6 -73 -6q-32 0 -61 6l-39 137q39 -12 84 -12q47 0 96 13l14 209h153l-10 -164q103 29 226 99l51 -118
q-48 -32 -122.5 -62.5t-161.5 -54.5l-4 -74q75 34 156 34q101 0 160 -53t59 -145q0 -76 -53 -144q-53 -67 -138 -106.5t-175 -39.5q-40 0 -81 2.5z" />
    <glyph glyph-name="uni3062" unicode="&#x3062;" horiz-adv-x="920" 
d="M280 -85.5q-41 2.5 -58 7.5l-71 138l36 -4q104 -14 126 -14q71 0 131 22.5t95 60t35 80.5q0 65 -82 65q-58 0 -110.5 -32.5t-106.5 -102.5l-85 88l9 170q-42 -6 -73 -6q-32 0 -61 6l-39 137q39 -12 84 -12q47 0 96 13l14 209h153l-10 -164q103 29 226 99l51 -118
q-48 -32 -122.5 -62.5t-161.5 -54.5l-4 -74q75 34 156 34q101 0 160 -53t59 -145q0 -76 -53 -144q-53 -67 -138 -106.5t-175 -39.5q-40 0 -81 2.5zM711 522q-4 28 -27.5 64.5t-62 71t-83.5 56.5l111 57q112 -56 164 -175zM822 593q-11 53 -56 104.5t-116 93.5l106 55
q57 -29 99.5 -74.5t64.5 -100.5z" />
    <glyph glyph-name="uni3063" unicode="&#x3063;" horiz-adv-x="920" 
d="M373 17l-54 105l112 -1q108 -1 169 41t61 123q0 54 -37 90t-92 36t-117 -28t-166 -95q-54 -37 -83 -50l-67 95l49 32q74 50 129 81q63 37 127 58.5t118 21.5q82 0 144.5 -32t97 -88.5t34.5 -127.5q0 -74 -42 -136q-43 -61 -118 -96t-165 -35q-68 0 -100 6z" />
    <glyph glyph-name="uni3064" unicode="&#x3064;" horiz-adv-x="920" 
d="M357 0l-61 120l127 -1q130 -1 204 49t74 149q0 42 -20 77t-56 55t-82 20q-70 0 -147 -34.5t-195 -114.5q-55 -35 -91 -56l-78 110l52 34q86 57 153 96q170 97 294 97q96 0 169.5 -37.5t114 -104.5t40.5 -151q0 -87 -50 -160q-51 -73 -138.5 -114t-193.5 -41q-81 0 -116 7
z" />
    <glyph glyph-name="uni3065" unicode="&#x3065;" horiz-adv-x="920" 
d="M342 0l-61 120l127 -1q130 -1 204 49t74 149q0 42 -20 77t-56 55t-82 20q-70 0 -147 -34.5t-195 -114.5q-55 -35 -91 -56l-78 110l52 34q86 57 153 96q170 97 294 97q119 0 204 -59q-21 41 -79 81.5t-115 56.5l98 73q119 -29 193 -143l-78 -82q49 -40 75 -96t26 -124
q0 -87 -50 -160q-51 -73 -138.5 -114t-193.5 -41q-81 0 -116 7zM837 618q-53 114 -204 166l93 74q130 -45 194 -145z" />
    <glyph glyph-name="uni3066" unicode="&#x3066;" horiz-adv-x="920" 
d="M722 -58q-116 -4 -216 28q-99 33 -152.5 105t-53.5 180q0 78 27.5 144.5t82.5 127.5q-45 -6 -145 -21.5t-157 -26.5l-22 131l734 102l14 -129l-119 -17q-77 -22 -136 -66t-92 -103t-33 -125q0 -85 35 -132q33 -43 89.5 -60.5t154.5 -17.5l50 1z" />
    <glyph glyph-name="uni3067" unicode="&#x3067;" horiz-adv-x="920" 
d="M722 -58q-116 -4 -216 28q-99 33 -152.5 105t-53.5 180q0 78 27.5 144.5t82.5 127.5q-45 -6 -145 -21.5t-157 -26.5l-22 131l734 102l14 -129l-119 -17q-77 -22 -136 -66t-92 -103t-33 -125q0 -85 35 -132q33 -43 89.5 -60.5t154.5 -17.5l50 1zM710 188q-10 39 -76 96
q-65 47 -128 66l98 73q68 -17 118 -58q43 -33 75 -85zM807 278q-4 21 -22.5 44.5t-54.5 54.5q-54 43 -127 67l93 74q66 -20 121 -60q26 -23 61 -70l12 -15z" />
    <glyph glyph-name="uni3068" unicode="&#x3068;" horiz-adv-x="920" 
d="M300.5 -58.5q-82.5 27.5 -127 78.5t-44.5 120q0 76 47.5 127t150.5 95q-10 53 -10 125v230h152v-227q0 -43 4 -68l230 97l58 -127l-374 -153q-51 -21 -74.5 -45t-23.5 -57q0 -91 222 -91q113 0 244 41l39 -129q-135 -44 -301 -44q-110 0 -192.5 27.5z" />
    <glyph glyph-name="uni3069" unicode="&#x3069;" horiz-adv-x="920" 
d="M258.5 -58.5q-82.5 27.5 -127 78.5t-44.5 120q0 76 47.5 127t150.5 95q-10 53 -10 125v230h152v-227q0 -43 4 -68l230 97l58 -127l-374 -153q-51 -21 -74.5 -45t-23.5 -57q0 -91 222 -91q113 0 244 41l39 -129q-135 -44 -301 -44q-110 0 -192.5 27.5zM719 481
q-10 39 -76 96q-65 47 -128 66l98 73q68 -17 118 -58q43 -33 75 -85zM824 578q-4 21 -22.5 44.5t-54.5 54.5q-54 43 -127 67l93 74q66 -20 121 -60q26 -23 61 -70l12 -15z" />
    <glyph glyph-name="uni306A" unicode="&#x306a;" horiz-adv-x="920" 
d="M68 -24l154 447h-134l-39 127h214l67 200l141 -42l-46 -143q24 3 117 21l-35 -137q-47 -16 -127 -23l-167 -511zM523.5 53q11.5 17 14.5 53q-16 9 -49 9q-19 0 -31 -11t-12 -28t12 -28.5t31 -11.5q23 0 34.5 17zM757 -101q-12 40 -33 76.5t-47 62.5q-22 -62 -68 -96.5
t-112 -34.5q-94 0 -149.5 43t-55.5 117q0 48 27.5 89t77 66t112.5 25q26 0 31 -1v108h134q-35 23 -77 37.5t-101 24.5l98 103q62 -1 132.5 -37.5t112.5 -88.5l-85 -110q-39 42 -63 59v-143q114 -66 181 -184z" />
    <glyph glyph-name="uni306B" unicode="&#x306b;" horiz-adv-x="920" 
d="M154 -74q-44 229 -44 442q0 186 33 369l147 -14q-28 -175 -28 -365q0 -92 7 -193t22 -238zM531 5q-90 0 -141 43.5t-65 133.5l134 28q10 -33 25 -52q14 -16 37.5 -21.5t72.5 -5.5h249v-126h-312zM367 611h282q44 0 94 8t81 20v-129q-17 -11 -78.5 -18.5t-120.5 -7.5h-258
v127z" />
    <glyph glyph-name="uni306C" unicode="&#x306c;" horiz-adv-x="920" 
d="M740 -99q-19 59 -37 93q-24 -26 -57 -41.5t-67 -15.5q-69 0 -116 40.5t-50 103.5q-82 -102 -181 -102q-55 0 -98.5 28t-68 77t-24.5 110q0 67 35.5 134t100.5 124q-26 95 -26 197q0 44 5 86l151 -30q-5 -42 -5 -77q0 -49 8 -95q65 26 151 30q10 33 38 170l149 -39
q-16 -75 -38 -151q96 -38 150.5 -115t53.5 -168q3 -67 -18 -128q36 -53 77 -163zM272 133.5q17 14.5 26 40.5q-34 53 -67 136q-44 -50 -44 -109q0 -34 13 -58t33 -24q22 0 39 14.5zM605.5 80q11.5 9 18.5 24q-12 16 -22 22.5t-21 6.5t-19.5 -8.5t-8.5 -21.5q0 -14 8 -23
t21 -9q12 0 23.5 9zM419 426q-45 -11 -79 -30q12 -35 40 -79q17 36 39 109zM661 265q-1 48 -24.5 87t-63.5 60q-31 -90 -64 -166q27 12 61 12q51 0 89 -20z" />
    <glyph glyph-name="uni306D" unicode="&#x306d;" horiz-adv-x="920" 
d="M802 -102q-40 88 -71 131q-26 -32 -63.5 -50.5t-76.5 -18.5q-52 0 -93 17.5t-64.5 48.5t-23.5 71q0 45 24.5 83.5t67.5 61.5t98 23q43 0 81 -13q6 24 6 51q0 61 -32 96.5t-92 35.5q-17 0 -37 -3q-88 -16 -171 -129v-392h-152v188l-87 -145l-98 95l185 348v34l-149 -22
l-27 128l176 28v177h152v-157l39 -15l-42 -92l-1 -27q32 41 74 71.5t82 42.5q42 13 87 13q48 0 89.5 -16t69.5 -44q33 -32 51.5 -77t21.5 -97q1 -5 1 -31q0 -82 -28 -150q62 -62 104 -157zM618 95.5q14 13.5 20 36.5q-13 6 -35 6q-16 0 -26.5 -8.5t-10.5 -22.5
q0 -12 6.5 -18.5t16.5 -6.5q15 0 29 13.5z" />
    <glyph glyph-name="uni306E" unicode="&#x306e;" horiz-adv-x="920" 
d="M430 71q133 24 193.5 76t60.5 150q0 52 -22.5 98.5t-62.5 80.5l-162 -342q-30 -65 -76 -100t-97 -35q-56 0 -97 33t-63 93.5t-22 139.5q0 25 1 30q7 110 65 192q56 78 141 122t179 44q96 0 181 -49q86 -49 137 -132t51 -177q0 -136 -88.5 -221t-259.5 -121zM298 178
l161 350q-89 -5 -149.5 -68.5t-75.5 -165.5l-2 -44q0 -37 8 -71q8 -30 28 -30q16 0 30 29z" />
    <glyph glyph-name="uni306F" unicode="&#x306f;" horiz-adv-x="920" 
d="M743 -93q-12 33 -33 71t-41 64q-20 -60 -69.5 -93.5t-120.5 -33.5q-94 0 -149.5 48.5t-55.5 135.5q0 48 28 90t78 68t112 26q25 0 50 -3v149l-267 -15v127l267 15v144h150v-135l140 9v-129l-139 -8v-220q96 -90 151 -216zM127 -74q-50 238 -50 436q0 170 38 375l147 -14
q-28 -175 -28 -366q0 -92 7 -192t22 -238zM524.5 68.5q16.5 27.5 14.5 66.5q-23 23 -55 23q-26 0 -44.5 -17t-18.5 -42q0 -27 15.5 -42.5t42.5 -15.5q29 0 45.5 27.5z" />
    <glyph glyph-name="uni3070" unicode="&#x3070;" horiz-adv-x="920" 
d="M685 -93q-12 33 -33 71t-41 64q-20 -60 -69.5 -93.5t-120.5 -33.5q-94 0 -149.5 48.5t-55.5 135.5q0 48 28 90t78 68t112 26q25 0 50 -3v149l-267 -15v127l267 15v144h135q-44 41 -87 62l111 57q53 -27 91.5 -68.5t72.5 -106.5l-102 -74q-23 63 -71 114v-119l140 9v-129
l-139 -8v-220q96 -90 151 -216zM76 -74q-50 238 -50 436q0 170 38 375l147 -14q-28 -175 -28 -366q0 -92 7 -192t22 -238zM466.5 68.5q16.5 27.5 14.5 66.5q-23 23 -55 23q-26 0 -44.5 -17t-18.5 -42q0 -27 15.5 -42.5t42.5 -15.5q29 0 45.5 27.5zM824 643q-37 118 -172 198
l106 55q60 -30 99.5 -73t64.5 -102z" />
    <glyph glyph-name="uni3071" unicode="&#x3071;" horiz-adv-x="920" 
d="M685 -93q-12 33 -33 71t-41 64q-20 -60 -69.5 -93.5t-120.5 -33.5q-96 0 -150.5 47.5t-54.5 136.5q0 50 29 92.5t79 67t110 24.5q25 0 50 -3v149l-267 -15v127l267 15v144h150v-135l140 9v-129l-139 -8v-220q96 -90 151 -216zM76 -74q-50 238 -50 436q0 170 38 375
l147 -14q-28 -175 -28 -366q0 -92 7 -192t22 -238zM466.5 68.5q16.5 27.5 14.5 66.5q-23 23 -55 23q-26 0 -44.5 -17t-18.5 -42t16 -41.5t42 -16.5q29 0 45.5 27.5zM677.5 646.5q-39.5 36.5 -39.5 91.5t39.5 91t98.5 36t98.5 -36t39.5 -91t-39.5 -91.5t-98.5 -36.5
t-98.5 36.5zM794.5 717.5q7.5 8.5 7.5 20.5t-7.5 20t-18.5 8t-18.5 -8t-7.5 -20t7.5 -20.5t18.5 -8.5t18.5 8.5z" />
    <glyph glyph-name="uni3072" unicode="&#x3072;" horiz-adv-x="920" 
d="M253 -47q-61 37 -95.5 103.5t-34.5 152.5q0 126 63 240q-51 -10 -126 -8v123q180 -8 323 119l78 -116q-98 -92 -141 -174t-43 -185q0 -74 28.5 -118t83.5 -44q52 0 92 35t62 100t22 150q0 79 -26.5 166.5t-75.5 175.5l109 71q79 -101 154 -178.5t167 -153.5l-101 -110
l-86 96q11 -38 11 -95q0 -99 -37 -185q-40 -94 -115.5 -148t-173.5 -54q-77 0 -138 37z" />
    <glyph glyph-name="uni3073" unicode="&#x3073;" horiz-adv-x="920" 
d="M253 -47q-61 37 -95.5 103.5t-34.5 152.5q0 126 63 240q-51 -10 -126 -8v123q180 -8 323 119l78 -116q-98 -92 -141 -174t-43 -185q0 -74 28.5 -118t83.5 -44q52 0 92 35t62 100t22 150q0 79 -26.5 166.5t-75.5 175.5l109 71q79 -101 154 -178.5t167 -153.5l-101 -110
l-86 96q11 -38 11 -95q0 -99 -37 -185q-40 -94 -115.5 -148t-173.5 -54q-77 0 -138 37zM723 585q-19 60 -64.5 110.5t-108.5 81.5l111 57q58 -23 96 -64.5t68 -110.5zM846 656q-30 74 -68 115t-116 83l106 55q55 -28 94 -70t70 -105z" />
    <glyph glyph-name="uni3074" unicode="&#x3074;" horiz-adv-x="920" 
d="M253 -47q-61 37 -95.5 103.5t-34.5 152.5q0 126 63 240q-51 -10 -126 -8v123q180 -8 323 119l78 -116q-98 -92 -141 -174t-43 -185q0 -74 28.5 -118t83.5 -44q52 0 92 35t62 100t22 150q0 79 -26.5 166.5t-75.5 175.5l109 71q79 -101 154 -178.5t167 -153.5l-101 -110
l-86 96q11 -38 11 -95q0 -99 -37 -185q-40 -94 -115.5 -148t-173.5 -54q-77 0 -138 37zM668.5 656.5q-39.5 36.5 -39.5 91.5t39.5 91t98.5 36t98.5 -36t39.5 -91t-39.5 -91.5t-98.5 -36.5t-98.5 36.5zM785.5 727.5q7.5 8.5 7.5 20.5t-7.5 20t-18.5 8t-18.5 -8t-7.5 -20
t7.5 -20.5t18.5 -8.5t18.5 8.5z" />
    <glyph glyph-name="uni3075" unicode="&#x3075;" horiz-adv-x="920" 
d="M309 -40q-57 25 -87 65l58 116q-67 -53 -181 -96l-56 119q68 27 124.5 64.5t109.5 92.5l61 -124q-22 -25 -48 -48q23 -40 58 -63t72 -23q36 0 60 27t24 68q0 92 -128 127q-170 51 -170 148q0 53 36 91.5t100 57.5l119 -67q-97 -40 -97 -71q0 -12 14 -20q15 -8 54 -19
q223 -58 223 -237q0 -64 -29.5 -117t-82.5 -84.5t-119 -31.5q-58 0 -115 25zM731 112q-12 69 -29 120q-18 46 -47.5 84.5t-82.5 87.5l119 62q69 -54 109 -119.5t64 -161.5zM512 522q-58 57 -116.5 82t-151.5 32l71 109q63 -2 109 -13q42 -11 77 -32t86 -63z" />
    <glyph glyph-name="uni3076" unicode="&#x3076;" horiz-adv-x="920" 
d="M309 -40q-57 25 -87 65l58 116q-67 -53 -181 -96l-56 119q68 27 124.5 64.5t109.5 92.5l61 -124q-22 -25 -48 -48q23 -40 58 -63t72 -23q36 0 60 27t24 68q0 92 -128 127q-170 51 -170 148q0 53 36 91.5t100 57.5l119 -67q-97 -40 -97 -71q0 -12 14 -20q15 -8 54 -19
q223 -58 223 -237q0 -64 -29.5 -117t-82.5 -84.5t-119 -31.5q-58 0 -115 25zM731 112q-12 69 -29 120q-18 46 -47.5 84.5t-82.5 87.5l119 62q69 -54 109 -119.5t64 -161.5zM512 522q-58 57 -116.5 82t-151.5 32l71 109q63 -2 109 -13q42 -11 77 -32t86 -63zM679 556
q-21 69 -60 112.5t-113 79.5l111 57q113 -57 164 -175zM804 643q-56 113 -182 188l106 55q107 -54 164 -175z" />
    </font>
</defs>
</svg>
