<svg width="41" height="40" viewBox="0 0 41 40" fill="none" xmlns="http://www.w3.org/2000/svg">
    <path d="M14.133 3.334v5M27.465 3.334v5M6.633 15.15h28.333M32.816 26.283l-5.9 5.9c-.233.233-.45.667-.5.983l-.317 2.25c-.116.817.45 1.384 1.267 1.267l2.25-.316c.317-.05.767-.267.983-.5l5.9-5.9c1.017-1.017 1.5-2.2 0-3.7-1.483-1.484-2.666-1-3.683.016z" stroke="#444" stroke-width="2" stroke-miterlimit="10" stroke-linecap="round" stroke-linejoin="round"/>
    <path d="M31.967 27.133c.5 1.8 1.9 3.2 3.7 3.7M20.799 36.667h-6.667c-5.833 0-8.333-3.333-8.333-8.333V14.167c0-5 2.5-8.333 8.333-8.333h13.333c5.834 0 8.334 3.333 8.334 8.333v5.834" stroke="#444" stroke-width="2" stroke-miterlimit="10" stroke-linecap="round" stroke-linejoin="round"/>
    <path d="M20.791 22.833h.015M14.623 22.833h.015M14.623 27.833h.015" stroke="#444" stroke-width="2" stroke-linecap="round" stroke-linejoin="round"/>
</svg>
