<svg width="40" height="40" viewBox="0 0 40 40" fill="none" xmlns="http://www.w3.org/2000/svg">
    <path d="M7.1 18.367v8.283c0 3.034 0 3.034 2.866 4.967l7.884 4.55c1.183.683 3.116.683 4.3 0l7.883-4.55C32.9 29.684 32.9 29.684 32.9 26.65v-8.283c0-3.033 0-3.033-2.867-4.967L22.15 8.85c-1.184-.683-3.117-.683-4.3 0L9.966 13.4C7.1 15.334 7.1 15.334 7.1 18.367z" stroke="#444" stroke-width="2" stroke-linecap="round" stroke-linejoin="round"/>
    <path d="M29.167 12.717V8.334c0-3.333-1.666-5-5-5h-8.333c-3.333 0-5 1.667-5 5v4.267M21.049 18.316l.95 1.483c.15.233.483.467.733.533l1.7.434c1.05.266 1.334 1.166.65 2l-1.116 1.35c-.167.216-.3.6-.284.866l.1 1.75c.067 1.084-.7 1.634-1.7 1.234l-1.633-.65c-.25-.1-.667-.1-.917 0l-1.633.65c-1 .4-1.767-.167-1.7-1.234l.1-1.75a1.458 1.458 0 0 0-.283-.866l-1.117-1.35c-.683-.834-.4-1.734.65-2l1.7-.434c.267-.066.6-.316.733-.533l.95-1.483c.6-.9 1.534-.9 2.117 0z" stroke="#444" stroke-width="2" stroke-linecap="round" stroke-linejoin="round"/>
</svg>
