<svg width="41" height="40" viewBox="0 0 41 40" fill="none" xmlns="http://www.w3.org/2000/svg">
    <path d="M17.583 3.718 9.267 6.834c-1.917.717-3.484 2.984-3.484 5.034V24.25c0 1.967 1.3 4.55 2.884 5.733l7.166 5.35c2.35 1.767 6.217 1.767 8.567 0l7.167-5.35c1.583-1.183 2.883-3.766 2.883-5.733V11.868c0-2.05-1.567-4.317-3.484-5.034L22.65 3.718c-1.417-.517-3.683-.517-5.067 0z" stroke="#444" stroke-width="2" stroke-linecap="round" stroke-linejoin="round"/>
    <path d="M20.1 25.833a6.667 6.667 0 1 0 0-13.333 6.667 6.667 0 0 0 0 13.333z" stroke="#444" stroke-width="2" stroke-miterlimit="10" stroke-linecap="round" stroke-linejoin="round"/>
    <path d="M20.517 17.084v1.55c0 .583-.3 1.133-.817 1.433l-1.266.767" stroke="#444" stroke-width="2" stroke-miterlimit="10" stroke-linecap="round" stroke-linejoin="round"/>
</svg>
