<svg width="26" height="26" viewBox="0 0 26 26" fill="none" xmlns="http://www.w3.org/2000/svg">
    <path fill-rule="evenodd" clip-rule="evenodd" d="M5.688 5.34a.348.348 0 0 0-.349.348V9.17a1.045 1.045 0 0 1-2.089 0V5.688A2.437 2.437 0 0 1 5.688 3.25H9.17a1.045 1.045 0 0 1 0 2.09H5.688zm10.098-1.045c0-.577.467-1.045 1.044-1.045h3.483a2.437 2.437 0 0 1 2.437 2.438V9.17a1.045 1.045 0 1 1-2.09 0V5.688a.348.348 0 0 0-.348-.349H16.83a1.045 1.045 0 0 1-1.044-1.044zM4.295 15.785c.577 0 1.044.468 1.044 1.045v3.483c0 .192.156.348.348.348H9.17a1.045 1.045 0 0 1 0 2.089H5.688a2.437 2.437 0 0 1-2.438-2.438V16.83c0-.577.468-1.044 1.045-1.044zm17.41 0c.577 0 1.045.468 1.045 1.045v3.483a2.437 2.437 0 0 1-2.438 2.437H16.83a1.045 1.045 0 1 1 0-2.09h3.483a.348.348 0 0 0 .348-.348V16.83c0-.577.467-1.044 1.044-1.044z" fill="#fff"/>
</svg>
