<?xml version="1.0" standalone="no"?>
<!DOCTYPE svg PUBLIC "-//W3C//DTD SVG 1.1//EN" "http://www.w3.org/Graphics/SVG/1.1/DTD/svg11.dtd" >
<svg xmlns="http://www.w3.org/2000/svg" xmlns:xlink="http://www.w3.org/1999/xlink" version="1.1">
<metadata>
Created by FontForge 20170731 at Thu Aug  5 13:52:18 2021
 By Aleksey,,,
Copyright 2020 The Saira Project Authors (https://github.com/Omnibus-Type/Saira)
</metadata>
<defs>
<font id="Saira-Thin" horiz-adv-x="0" >
  <font-face 
    font-family="Saira Thin"
    font-weight="250"
    font-stretch="normal"
    units-per-em="1000"
    panose-1="0 0 0 0 0 0 0 0 0 0"
    ascent="800"
    descent="-200"
    x-height="510"
    cap-height="688"
    bbox="-180 -393 1239 1162"
    underline-thickness="35"
    underline-position="-211"
    unicode-range="U+000D-FB02"
  />
<missing-glyph horiz-adv-x="500" 
d="M0 0v700h500v-700h-500zM225 99v70h60v-70h-60zM50 50h400v600h-400v-600zM229 215v63q0 32 16.5 52t37.5 37t38.5 38.5t17.5 59.5q0 14 -6 34.5t-25 36.5t-58 16q-34 0 -53.5 -12t-29 -29.5t-12.5 -33.5t-3 -25v-28h-49q-1 5 -2.5 14t-1.5 17q0 9 4 32.5t19 50
t45.5 45.5t82.5 19q53 0 82 -19t42 -44t16 -46t3 -26q0 -50 -22 -79.5t-45 -49.5q-17 -14 -30.5 -29.5t-13.5 -40.5v-53h-53z" />
    <glyph glyph-name="fi" unicode="fi" horiz-adv-x="579" 
d="M138 0v478h-108v32h108v115q0 32 7 53t21 34t35 20t48 9t60 2v-30q-40 0 -66 -3.5t-41.5 -12.5t-22 -25t-6.5 -41v-121h136v-32h-136v-478h-35zM444 0v510h35v-510h-35zM440 682v61h43v-61h-43z" />
    <glyph glyph-name="fl" unicode="fl" horiz-adv-x="559" 
d="M138 0v478h-108v32h108v115q0 32 7 53t21 34t35 20t48 9t60 2v-30q-40 0 -66 -3.5t-41.5 -12.5t-22 -25t-6.5 -41v-121h136v-32h-136v-478h-35zM424 0v743h35v-743h-35z" />
    <glyph glyph-name="f_f" unicode="ff" horiz-adv-x="630" 
d="M138 0v478h-108v32h108v115q0 32 7 53t21 34t35 20t48 9t60 2v-30q-40 0 -66 -3.5t-41.5 -12.5t-22 -25t-6.5 -41v-121h251v115q0 32 7 53t21 34t35 20t48 9t60 2v-30q-40 0 -66 -3.5t-41.5 -12.5t-22 -25t-6.5 -41v-121h136v-32h-136v-478h-35v478h-251v-478h-35z" />
    <glyph glyph-name="f_f_i" unicode="ffi" horiz-adv-x="865" 
d="M138 0v478h-108v32h108v115q0 32 7 53t21 34t35 20t48 9t60 2v-30q-40 0 -66 -3.5t-41.5 -12.5t-22 -25t-6.5 -41v-121h251v115q0 32 7 53t21 34t35 20t48 9t60 2v-30q-40 0 -66 -3.5t-41.5 -12.5t-22 -25t-6.5 -41v-121h136v-32h-136v-478h-35v478h-251v-478h-35zM730 0
v510h35v-510h-35zM726 682v61h43v-61h-43z" />
    <glyph glyph-name="f_f_l" unicode="ffl" horiz-adv-x="845" 
d="M138 0v478h-108v32h108v115q0 32 7 53t21 34t35 20t48 9t60 2v-30q-40 0 -66 -3.5t-41.5 -12.5t-22 -25t-6.5 -41v-121h251v115q0 32 7 53t21 34t35 20t48 9t60 2v-30q-40 0 -66 -3.5t-41.5 -12.5t-22 -25t-6.5 -41v-121h136v-32h-136v-478h-35v478h-251v-478h-35zM710 0
v743h35v-743h-35z" />
    <glyph glyph-name=".notdef" horiz-adv-x="500" 
d="M0 0v700h500v-700h-500zM225 99v70h60v-70h-60zM50 50h400v600h-400v-600zM229 215v63q0 32 16.5 52t37.5 37t38.5 38.5t17.5 59.5q0 14 -6 34.5t-25 36.5t-58 16q-34 0 -53.5 -12t-29 -29.5t-12.5 -33.5t-3 -25v-28h-49q-1 5 -2.5 14t-1.5 17q0 9 4 32.5t19 50
t45.5 45.5t82.5 19q53 0 82 -19t42 -44t16 -46t3 -26q0 -50 -22 -79.5t-45 -49.5q-17 -14 -30.5 -29.5t-13.5 -40.5v-53h-53z" />
    <glyph glyph-name=".null" 
 />
    <glyph glyph-name="nonmarkingreturn" horiz-adv-x="333" 
 />
    <glyph glyph-name="CR" unicode="&#xd;" horiz-adv-x="224" 
 />
    <glyph glyph-name="space" unicode=" " horiz-adv-x="224" 
 />
    <glyph glyph-name="exclam" unicode="!" horiz-adv-x="198" 
d="M85 173q-1 44 -1.5 86.5t-1.5 83t-1.5 76.5t-0.5 67v55v147h38v-147v-55t-0.5 -67t-1.5 -76.5t-1.5 -83t-1.5 -86.5h-28zM75 0v65h48v-65h-48z" />
    <glyph glyph-name="quotedbl" unicode="&#x22;" horiz-adv-x="270" 
d="M174 454l-8 145v89h39v-89l-8 -145h-23zM73 454l-8 145v89h39v-89l-8 -145h-23z" />
    <glyph glyph-name="numbersign" unicode="#" horiz-adv-x="833" 
d="M134 0l46 202h-103v34h111l48 206h-122v34h130l49 212h34l-49 -212h201l49 212h34l-49 -212h110v-34h-118l-48 -206h129v-34h-137l-46 -202h-34l46 202h-201l-46 -202h-34zM222 236h201l48 206h-201z" />
    <glyph glyph-name="dollar" unicode="$" horiz-adv-x="537" 
d="M276 68l-66 2t-62 3.5t-52 5.5v34q26 -3 46.5 -5.5t38.5 -3.5t38 -2t45 -1q66 -1 99.5 8t45.5 34t12 72q0 49 -7 71t-23 28.5t-42 8.5l-157 15q-44 5 -68.5 17.5t-34 39.5t-9.5 73q0 50 12 80t35.5 45t58 20.5t79.5 5.5q28 0 57.5 -1.5t57.5 -4t49 -6.5v-34q-26 4 -55 7
t-57 4.5t-53 1.5q-32 0 -59 -2t-47 -12t-31 -33t-11 -64q0 -42 6.5 -63t23.5 -28.5t46 -10.5l163 -15q42 -4 64 -16.5t30 -42t8 -84.5q0 -61 -18.5 -93t-58 -43t-104.5 -11zM254 -8v704h34v-704h-34z" />
    <glyph glyph-name="percent" unicode="%" horiz-adv-x="795" 
d="M152 0l449 688h42l-449 -688h-42zM196 311q-47 0 -74.5 7.5t-40.5 28t-17 58t-4 98.5t4 99t17 58.5t40.5 28t74.5 7.5t74 -7.5t40 -28t17 -58.5t4 -99t-4 -98.5t-17 -58t-40 -28t-74 -7.5zM196 345q34 0 54 3.5t30 17.5t13 46.5t3 90.5q0 59 -2 91.5t-11.5 46.5t-30 17.5
t-56.5 3.5q-34 0 -54 -3.5t-30 -17.5t-13 -46.5t-3 -91.5q0 -58 3 -90.5t13 -46.5t30 -17.5t54 -3.5zM600 -8q-47 0 -74.5 7.5t-40.5 28t-17 58t-4 98.5t4 99t17 58.5t40.5 28t74.5 7.5t74 -7.5t40 -28t17 -58.5t4 -99t-4 -98.5t-17 -58t-40 -28t-74 -7.5zM600 26
q34 0 54 3.5t30 17.5t13 46.5t3 90.5q0 59 -2 91.5t-11.5 46.5t-30 17.5t-56.5 3.5q-34 0 -54 -3.5t-30 -17.5t-13 -46.5t-3 -91.5q0 -58 3 -90.5t13 -46.5t30 -17.5t54 -3.5z" />
    <glyph glyph-name="ampersand" unicode="&#x26;" horiz-adv-x="734" 
d="M363 -8q-75 0 -126 8t-82.5 24t-48.5 39t-23 53.5t-6 67.5q0 56 14.5 88.5t42.5 50t68 26.5v4q-60 14 -89.5 50.5t-29.5 111.5q0 42 11 75.5t40 57t84.5 36t143.5 12.5q30 0 66.5 -2t72 -5.5t62.5 -8.5v-32q-29 5 -62.5 8.5t-64.5 5.5t-53 2q-88 0 -141 -8.5t-79.5 -27
t-35.5 -47t-9 -68.5q0 -22 4.5 -47.5t20.5 -48t50.5 -37t95.5 -14.5h115v-34h-115q-61 0 -96.5 -11t-53 -32t-22.5 -49t-5 -63q0 -67 27.5 -99.5t83.5 -43t140 -10.5q31 0 65 1.5t68.5 5t63.5 9.5l-28 -25v351h157v-34h-122v-324q-21 -3 -54 -7t-72 -6.5t-78 -2.5z" />
    <glyph glyph-name="quotesingle" unicode="'" horiz-adv-x="169" 
d="M73 454l-8 145v89h39v-89l-8 -145h-23z" />
    <glyph glyph-name="parenleft" unicode="(" horiz-adv-x="279" 
d="M226 -150q-31 38 -53.5 70t-38.5 66t-25.5 76t-14 99t-4.5 136t4.5 135.5t14 98.5t25.5 76t38.5 66t53.5 70h33q-26 -34 -47.5 -64t-37.5 -62.5t-27 -75t-16.5 -102t-5.5 -142.5t5.5 -142.5t16.5 -102t27 -75.5t37.5 -62.5t47.5 -64.5h-33z" />
    <glyph glyph-name="parenright" unicode=")" horiz-adv-x="279" 
d="M20 -150q26 35 47.5 64.5t37.5 62.5t27 75.5t16.5 102t5.5 142.5t-5.5 142.5t-16.5 102t-27 75t-37.5 62.5t-47.5 64h33q31 -38 53.5 -70t38.5 -66t25.5 -76t14 -98.5t4.5 -135.5t-4.5 -136t-14 -99t-25.5 -76t-38.5 -66t-53.5 -70h-33z" />
    <glyph glyph-name="asterisk" unicode="*" horiz-adv-x="438" 
d="M200 321l5 159l-135 -84l-19 33l140 75l-140 76l19 33l135 -85l-5 160h38l-6 -160l136 85l19 -33l-140 -76l140 -75l-19 -33l-135 84l5 -159h-38z" />
    <glyph glyph-name="plus" unicode="+" horiz-adv-x="540" 
d="M253 53v184h-183v32h183v184h32v-184h185v-32h-185v-184h-32z" />
    <glyph glyph-name="comma" unicode="," horiz-adv-x="176" 
d="M34 -101v21q23 0 33.5 5.5t13.5 19.5t3 38v17h-20v65h48v-75q0 -27 -3.5 -44.5t-12 -28t-23.5 -14.5t-39 -4z" />
    <glyph glyph-name="hyphen" unicode="-" horiz-adv-x="355" 
d="M65 268v36h225v-36h-225z" />
    <glyph glyph-name="period" unicode="." horiz-adv-x="176" 
d="M64 0v65h48v-65h-48z" />
    <glyph glyph-name="slash" unicode="/" horiz-adv-x="328" 
d="M0 -55l290 798h38l-291 -798h-37z" />
    <glyph glyph-name="zero" unicode="0" horiz-adv-x="676" 
d="M338 -8q-73 0 -119.5 7t-73 27t-38 59t-14.5 102t-3 157t3 157t14.5 102t38 59t73 27t119.5 7t119.5 -7t73 -27t38 -59t14.5 -102t3 -157t-3 -157t-14.5 -102t-38 -59t-73 -27t-119.5 -7zM338 26q62 0 101.5 4t62 19t33 49t13 93.5t2.5 152.5t-2.5 152.5t-13 93.5t-33 49
t-62 19t-101.5 4q-61 0 -101 -4t-62.5 -19t-33 -49t-13 -93.5t-2.5 -152.5t2.5 -152.5t13 -93.5t33 -49t62.5 -19t101 -4z" />
    <glyph glyph-name="one" unicode="1" horiz-adv-x="365" 
d="M199 0v642l-149 -79v37l156 88h29v-688h-36z" />
    <glyph glyph-name="two" unicode="2" horiz-adv-x="608" 
d="M80 0v71q0 56 2 91.5t12 58t33.5 39t66.5 35.5l206 90q38 17 57.5 34.5t27 42t7.5 61.5q0 59 -16 88.5t-57 40t-117 10.5q-26 0 -62.5 -1.5t-74.5 -4t-71 -5.5v32q27 4 63.5 7t76.5 4.5t76 1.5q46 0 85.5 -4t69.5 -19.5t46.5 -49t16.5 -91.5q0 -56 -11.5 -89t-39 -54
t-75.5 -42l-233 -102q-28 -12 -39 -30t-12.5 -45.5t-1.5 -69.5v-66h412v-34h-448z" />
    <glyph glyph-name="three" unicode="3" horiz-adv-x="596" 
d="M259 -8q-29 0 -64 2t-69 5t-61 7v32q34 -3 70 -6t68.5 -4.5t55.5 -1.5q67 0 115.5 10.5t74.5 42.5t26 98q0 55 -15.5 89t-49 50t-88.5 16h-138v34h138q34 0 67 12t55.5 43.5t22.5 91.5q0 65 -23.5 97t-71.5 42t-123 10q-25 0 -56.5 -1.5t-63.5 -4t-60 -6.5v32
q27 4 60.5 7t68 5t62.5 2q70 0 117 -10t74.5 -31t39.5 -55.5t12 -84.5q0 -75 -31 -112.5t-86 -48.5v-4q38 -6 66 -23.5t43.5 -52t15.5 -90.5q0 -46 -9.5 -82t-36 -60.5t-76.5 -37t-130 -12.5z" />
    <glyph glyph-name="four" unicode="4" horiz-adv-x="638" 
d="M438 0v176h-384v31l278 481h42l-278 -478h343v300h35v-300h109v-34h-109v-176h-36z" />
    <glyph glyph-name="five" unicode="5" horiz-adv-x="616" 
d="M284 -8q-29 0 -64 2t-69 5t-61 7v32q34 -3 70 -6t68.5 -4.5t55.5 -1.5q67 0 109.5 8.5t65.5 28t32 52.5t9 82q0 53 -9.5 85.5t-34.5 49t-71.5 22.5t-120.5 6q-15 0 -41 -2t-58 -5t-67 -8v343h387v-34h-351v-272q22 4 49 6.5t57.5 4t62.5 1.5q79 0 125.5 -11.5t69.5 -35.5
t30.5 -59.5t7.5 -83.5q0 -60 -10.5 -101t-38 -65t-77 -35t-126.5 -11z" />
    <glyph glyph-name="six" unicode="6" horiz-adv-x="648" 
d="M350 -8q-69 0 -118.5 7.5t-80.5 33t-47 79.5q-6 20 -9 51.5t-4 74t-1 96.5q0 55 1.5 99t5.5 79t12 61q16 51 47 77.5t80.5 36t120.5 9.5q24 0 56 -2t67.5 -5t69.5 -7v-32q-29 4 -62.5 6.5t-65 4t-57.5 1.5q-80 0 -127.5 -12t-71.5 -45t-32 -95.5t-8 -164.5h6q12 14 34 26
t65 19t116 7q68 0 114.5 -6t74.5 -24.5t40 -56t12 -100.5q0 -65 -9 -107.5t-34 -66.5t-72 -34t-123 -10zM342 26q64 0 105 5t64 21.5t32 49.5t9 89q0 61 -8.5 95.5t-30.5 51t-63.5 21t-107.5 4.5q-73 0 -116 -7.5t-63.5 -23.5t-27 -41.5t-6.5 -62.5q0 -67 10 -107.5t34 -61
t65 -27t104 -6.5z" />
    <glyph glyph-name="seven" unicode="7" horiz-adv-x="558" 
d="M161 0l297 654h-413v34h455v-29l-298 -659h-41z" />
    <glyph glyph-name="eight" unicode="8" horiz-adv-x="682" 
d="M341 -8q-82 0 -133 11.5t-77.5 35.5t-36 60t-9.5 85q0 61 14 93.5t42 48t69 23.5v4q-62 11 -90.5 49t-28.5 113q0 48 11 82.5t39 56t76.5 32t123.5 10.5t123.5 -10.5t76.5 -32t39 -56t11 -82.5q0 -75 -28.5 -113t-90.5 -49v-4q41 -8 69 -23.5t42 -48t14 -93.5
q0 -49 -9.5 -85t-36 -60t-77 -35.5t-133.5 -11.5zM341 26q84 0 132 11.5t68 44.5t20 95q0 50 -9.5 80t-33.5 46.5t-67 22t-110 5.5t-110 -5.5t-67 -22t-33.5 -46.5t-9.5 -80q0 -62 20 -95t68 -44.5t132 -11.5zM341 365q86 0 132 13t64 45.5t18 89.5q0 58 -17 90t-63 45.5
t-134 13.5t-134 -13.5t-63 -45.5t-17 -90q0 -57 18 -89.5t64.5 -45.5t131.5 -13z" />
    <glyph glyph-name="nine" unicode="9" horiz-adv-x="648" 
d="M291 -8q-25 0 -58 2t-68 5t-67 7v32q29 -3 61.5 -6t65 -4.5t58.5 -1.5q80 0 127.5 12t71.5 45t32 95.5t8 164.5h-6q-11 -14 -33.5 -26t-65.5 -19t-116 -7q-68 0 -114.5 6t-74.5 24.5t-40 56t-12 100.5q0 65 9 107.5t34 66.5t72 34t123 10q70 0 119 -7t79.5 -30t44.5 -72
q11 -38 14 -95t3 -138q0 -54 -1.5 -99t-6 -81t-13.5 -65q-15 -48 -45.5 -73t-79.5 -34.5t-121 -9.5zM306 325q73 0 116 7.5t63.5 23.5t27 41.5t6.5 62.5q0 67 -10 107.5t-34 61t-65 27t-104 6.5q-64 0 -105 -5t-64 -21.5t-32 -49.5t-9 -89q0 -61 8.5 -95.5t30.5 -51
t63.5 -21t107.5 -4.5z" />
    <glyph glyph-name="colon" unicode=":" horiz-adv-x="176" 
d="M64 445v65h48v-65h-48zM64 0v65h48v-65h-48z" />
    <glyph glyph-name="semicolon" unicode=";" horiz-adv-x="176" 
d="M34 -101v21q23 0 33.5 5.5t13.5 19.5t3 38v17h-20v65h48v-75q0 -27 -3.5 -44.5t-12 -28t-23.5 -14.5t-39 -4zM64 445v65h48v-65h-48z" />
    <glyph glyph-name="less" unicode="&#x3c;" horiz-adv-x="541" 
d="M471 45l-400 182v52l400 182v-37l-377 -171l377 -171v-37z" />
    <glyph glyph-name="equal" unicode="=" horiz-adv-x="540" 
d="M70 337v32h400v-32h-400zM70 137v32h400v-32h-400z" />
    <glyph glyph-name="greater" unicode="&#x3e;" horiz-adv-x="541" 
d="M70 45v37l377 171l-377 171v37l400 -182v-52z" />
    <glyph glyph-name="question" unicode="?" horiz-adv-x="496" 
d="M164 173v87q0 38 7.5 56.5t26 28.5t50.5 21l28 10q46 16 68 31.5t29 42.5t7 76q0 61 -16 89.5t-53 37.5t-100 9q-15 0 -34.5 -1t-42.5 -2.5t-47 -3.5t-47 -5v32q27 4 59 7t62.5 5t54.5 2q52 0 89.5 -6.5t62 -24t36.5 -48.5t12 -80q0 -33 -2 -60.5t-10.5 -50t-27 -39.5
t-51.5 -29l-21 -7q-38 -14 -59 -23.5t-30.5 -18t-12 -20t-2.5 -31.5v-85h-36zM158 0v65h48v-65h-48z" />
    <glyph glyph-name="at" unicode="@" horiz-adv-x="924" 
d="M462 -108q-110 0 -180 8.5t-109.5 32.5t-57 68.5t-21.5 116t-4 176.5t4 176.5t21.5 116t57 68.5t109.5 32.5t180 8.5t180 -8.5t109.5 -32.5t57 -68.5t21.5 -116t4 -176.5q0 -79 -6.5 -123.5t-21 -65t-38 -25.5t-58.5 -5h-102l-3 71h-4q-11 -35 -37.5 -52t-58.5 -21.5
t-62 -4.5q-54 0 -88.5 9.5t-51.5 36.5t-17 79q0 47 11 74.5t39.5 39.5t78.5 12q14 0 46.5 -0.5t71 -1.5t68.5 -2v37q0 47 -5.5 74t-20.5 39.5t-44 16.5t-76 4q-16 0 -35 -1t-38 -2.5t-36 -3.5t-29 -4v33q29 5 68.5 7.5t82.5 2.5q53 0 86 -7t51 -24.5t24.5 -48.5t6.5 -80
v-253h86q20 0 34.5 4t24.5 21t14.5 55.5t4.5 108.5q0 104 -4 172t-20 108t-50.5 59t-95.5 25q-32 4 -74 6t-95 2q-52 0 -93.5 -2t-73.5 -6q-61 -6 -96 -25t-51 -59t-20 -108t-4 -172t4.5 -172t22 -107.5t56 -59t106.5 -26.5q18 -2 58 -4t92 -2h61t48.5 0.5t37.5 1t27 1.5
v-31q-12 -1 -23.5 -1.5t-29.5 -1t-47 -0.5h-74zM442 100q59 0 94 13.5t50 47t15 93.5v33h-178q-41 0 -63.5 -6t-30.5 -26t-8 -62q0 -38 9.5 -58.5t36 -27.5t75.5 -7z" />
    <glyph glyph-name="A" unicode="A" horiz-adv-x="683" 
d="M40 0l284 688h35l284 -688h-39l-91 222h-344l-91 -222h-38zM183 256h316l-155 381h-5z" />
    <glyph glyph-name="B" unicode="B" horiz-adv-x="687" 
d="M115 0v688h307q68 0 105.5 -22.5t52 -61t14.5 -88.5q0 -42 -11.5 -75.5t-37 -56t-68.5 -30.5v-4q56 -9 82.5 -36.5t34.5 -63t8 -70.5q0 -32 -6.5 -64t-26 -58t-57 -42t-99.5 -16h-298zM151 34h266q57 0 89.5 16.5t46 50t13.5 82.5q0 51 -15.5 84t-48 49t-85.5 16h-266
v-298zM151 366h263q46 0 78 17t49 49.5t17 77.5q0 48 -12.5 80t-44 48t-87.5 16h-263v-288z" />
    <glyph glyph-name="C" unicode="C" horiz-adv-x="578" 
d="M357 -8q-68 0 -115.5 6.5t-77 26t-46 58t-22.5 102.5t-6 159q0 94 6 157.5t22.5 102t46 58.5t77 27t115.5 7q26 0 53.5 -1.5t53.5 -4t45 -6.5v-32q-20 3 -44.5 5.5t-50 3.5t-47.5 1q-65 0 -109 -5.5t-70.5 -22.5t-39.5 -51.5t-17.5 -92.5t-4.5 -146t4.5 -146t17.5 -92.5
t39.5 -51.5t70.5 -22.5t109 -5.5q35 0 75.5 3t70.5 7v-34q-20 -3 -47 -5t-55.5 -3.5t-53.5 -1.5z" />
    <glyph glyph-name="D" unicode="D" horiz-adv-x="693" 
d="M115 0v688h205q80 0 132 -6.5t82.5 -26.5t45.5 -58t19 -99.5t4 -153.5t-4 -153.5t-19 -99.5t-45.5 -58t-82.5 -26.5t-132 -6.5h-205zM151 34h149q76 0 125.5 3.5t78 18t42 47.5t17.5 91.5t4 149.5t-4 149.5t-18 91.5t-43 47.5t-78 18t-124 3.5h-149v-620z" />
    <glyph glyph-name="E" unicode="E" horiz-adv-x="598" 
d="M115 0v688h426v-34h-390v-289h343v-34h-343v-297h390v-34h-426z" />
    <glyph glyph-name="F" unicode="F" horiz-adv-x="561" 
d="M115 0v688h406v-34h-370v-303h333v-34h-333v-317h-36z" />
    <glyph glyph-name="G" unicode="G" horiz-adv-x="683" 
d="M372 -8q-71 0 -120.5 7t-81 27t-49 59t-24.5 102t-7 157t7 157t25 102t50 59t81 27t119 7q34 0 72.5 -2.5t74 -6.5t61.5 -9v-32q-29 5 -62 8.5t-63.5 5.5t-52.5 2q-67 0 -115 -3.5t-79.5 -18t-49 -48.5t-25 -93.5t-7.5 -154.5q0 -83 4.5 -140t18.5 -92t41 -54t71 -25.5
t110 -6.5q24 0 56.5 2t65 4.5t54.5 5.5v277h-194v34h230v-340q-32 -5 -69.5 -9t-74.5 -6t-67 -2z" />
    <glyph glyph-name="H" unicode="H" horiz-adv-x="738" 
d="M115 0v688h36v-323h436v323h36v-688h-36v331h-436v-331h-36z" />
    <glyph glyph-name="I" unicode="I" horiz-adv-x="266" 
d="M115 0v688h36v-688h-36z" />
    <glyph glyph-name="J" unicode="J" horiz-adv-x="324" 
d="M40 0v34q53 2 82 7t42 24t16 62t3 119v442h36v-424q0 -75 -2.5 -124t-11 -77t-28 -41t-52.5 -17t-85 -5z" />
    <glyph glyph-name="K" unicode="K" horiz-adv-x="665" 
d="M115 0v688h36v-322h173l256 322h42l-268 -339l271 -349h-43l-258 332h-173v-332h-36z" />
    <glyph glyph-name="L" unicode="L" horiz-adv-x="536" 
d="M115 0v688h36v-654h350v-34h-386z" />
    <glyph glyph-name="M" unicode="M" horiz-adv-x="915" 
d="M115 0v688h46l294 -635h5l295 635h45v-688h-36v618h-4l-287 -618h-32l-287 618h-4v-618h-35z" />
    <glyph glyph-name="N" unicode="N" horiz-adv-x="738" 
d="M115 0v688h35l434 -622h4v622h35v-688h-35l-434 622h-4v-622h-35z" />
    <glyph glyph-name="O" unicode="O" horiz-adv-x="726" 
d="M363 -8q-77 0 -127.5 7t-80 27t-43.5 59t-18 102t-4 157t4 157t18 102t43.5 59t80 27t127.5 7t127.5 -7t80 -27t43.5 -59t18 -102t4 -157t-4 -157t-18 -102t-43.5 -59t-80 -27t-127.5 -7zM363 26q65 0 108 3.5t69 18.5t39 49t17 93.5t4 153.5t-4 153.5t-17 93.5t-39 49
t-69 18.5t-108 3.5t-108 -3.5t-69 -18.5t-39 -49t-17 -93.5t-4 -153.5t4 -153.5t17 -93.5t39 -49t69 -18.5t108 -3.5z" />
    <glyph glyph-name="P" unicode="P" horiz-adv-x="655" 
d="M115 0v688h288q68 0 106 -17t55 -46t21.5 -66t4.5 -78q0 -40 -4.5 -77.5t-22.5 -66.5t-56 -46t-104 -17h-252v-274h-36zM151 308h250q54 0 84.5 12t45.5 34.5t19 54.5t4 72t-3.5 72t-18 54.5t-45.5 34.5t-86 12h-250v-346z" />
    <glyph glyph-name="Q" unicode="Q" horiz-adv-x="726" 
d="M604 -115l-254 333h43l254 -331v-2h-43zM363 -8q-77 0 -127.5 7t-80 27t-43.5 59t-18 102t-4 157t4 157t18 102t43.5 59t80 27t127.5 7t127.5 -7t80 -27t43.5 -59t18 -102t4 -157t-4 -157t-18 -102t-43.5 -59t-80 -27t-127.5 -7zM363 26q65 0 108 3.5t69 18.5t39 49
t17 93.5t4 153.5t-4 153.5t-17 93.5t-39 49t-69 18.5t-108 3.5t-108 -3.5t-69 -18.5t-39 -49t-17 -93.5t-4 -153.5t4 -153.5t17 -93.5t39 -49t69 -18.5t108 -3.5z" />
    <glyph glyph-name="R" unicode="R" horiz-adv-x="685" 
d="M115 0v688h306q64 0 100 -16.5t52.5 -45t20.5 -63.5t4 -72q0 -41 -6.5 -79.5t-30.5 -67.5t-77 -42l121 -302h-40l-121 304l15 -6q-7 -2 -18.5 -3t-34.5 -1h-255v-294h-36zM151 328h253q55 0 87 12t47 34t19.5 51.5t4.5 65.5t-3.5 65.5t-17 51.5t-42.5 34t-80 12h-268
v-326z" />
    <glyph glyph-name="S" unicode="S" horiz-adv-x="636" 
d="M333 -8q-36 0 -78.5 1.5t-82.5 4.5t-72 6v35q34 -3 74.5 -6t80 -5t68.5 -2q52 0 87 4t65 20q20 11 29.5 31t12.5 46.5t3 55.5q0 46 -2.5 73t-14 41.5t-38 21t-73.5 11.5l-183 19q-48 5 -74.5 18.5t-38 34.5t-14 49.5t-2.5 63.5q0 57 14 93t43 55t74 26t107 7
q38 0 76.5 -1.5t72 -4.5t54.5 -7v-33q-28 4 -63 6.5t-70.5 4t-66.5 1.5q-62 0 -101.5 -6.5t-63.5 -23.5q-26 -17 -33 -47.5t-7 -71.5q0 -48 6.5 -74.5t28 -38t64.5 -16.5l174 -18q44 -4 76.5 -10t53 -20.5t29.5 -45.5q4 -12 5.5 -27.5t2 -34t0.5 -40.5q0 -56 -10 -92.5
t-29.5 -57.5t-47 -31t-61.5 -12.5t-75 -2.5z" />
    <glyph glyph-name="T" unicode="T" horiz-adv-x="582" 
d="M273 0v654h-233v34h502v-34h-233v-654h-36z" />
    <glyph glyph-name="U" unicode="U" horiz-adv-x="717" 
d="M359 -8q-70 0 -116.5 8.5t-74 28.5t-41.5 55t-18 86.5t-4 123.5v394h36v-424q0 -72 6 -118t26.5 -72.5t65 -37t120.5 -10.5q77 0 120.5 10.5t64.5 37t26.5 72.5t5.5 118v424h36v-394q0 -72 -4 -123.5t-17.5 -86.5t-41 -55t-74 -28.5t-116.5 -8.5z" />
    <glyph glyph-name="V" unicode="V" horiz-adv-x="663" 
d="M314 0l-274 688h39l250 -633h5l251 633h38l-274 -688h-35z" />
    <glyph glyph-name="W" unicode="W" horiz-adv-x="984" 
d="M252 0l-204 688h39l181 -623h6l200 623h38l200 -623h6l181 623h37l-204 -688h-35l-203 623h-4l-203 -623h-35z" />
    <glyph glyph-name="X" unicode="X" horiz-adv-x="674" 
d="M40 0l275 346l-271 342h45l245 -310h7l246 310h44l-272 -341l275 -347h-45l-248 313h-8l-249 -313h-44z" />
    <glyph glyph-name="Y" unicode="Y" horiz-adv-x="599" 
d="M281 0v281l-261 407h42l234 -369h7l235 369h41l-262 -407v-281h-36z" />
    <glyph glyph-name="Z" unicode="Z" horiz-adv-x="601" 
d="M60 0v32l433 622h-422v34h467v-32l-432 -622h440v-34h-486z" />
    <glyph glyph-name="bracketleft" unicode="[" horiz-adv-x="309" 
d="M115 -150v893h154v-33l-119 -4v-819l119 -4v-33h-154z" />
    <glyph glyph-name="backslash" unicode="\" horiz-adv-x="328" 
d="M291 -55l-291 798h38l290 -798h-37z" />
    <glyph glyph-name="bracketright" unicode="]" horiz-adv-x="309" 
d="M40 -150v33l119 4v819l-119 4v33h154v-893h-154z" />
    <glyph glyph-name="asciicircum" unicode="^" horiz-adv-x="470" 
d="M70 444l139 305h52l139 -305h-37l-128 282l-128 -282h-37z" />
    <glyph glyph-name="underscore" unicode="_" horiz-adv-x="340" 
d="M0 -160v32h340v-32h-340z" />
    <glyph glyph-name="grave" unicode="`" horiz-adv-x="153" 
d="M126 606l-126 132v5h46l107 -132v-5h-27z" />
    <glyph glyph-name="a" unicode="a" horiz-adv-x="574" 
d="M249 -8q-63 0 -104 11t-60.5 42.5t-19.5 92.5q0 56 13 87.5t46 44.5t92 13q12 0 37 -0.5t57.5 -1.5t66 -1.5t62.5 -1.5v46q0 56 -6.5 88.5t-25 48.5t-53.5 20.5t-91 4.5q-23 0 -53.5 -2t-59.5 -4.5t-49 -6.5v33q30 5 76 8.5t100 3.5q49 0 83.5 -5t57 -17t34.5 -33.5
t17 -54t5 -78.5v-330h-28l-3 83h-4q-14 -41 -45.5 -60.5t-70 -25t-74.5 -5.5zM248 24q35 0 68.5 3.5t59.5 16t39 40.5q14 30 19 59.5t5 66.5v41h-213q-50 0 -77.5 -8t-38 -32t-10.5 -73q0 -46 12 -71t44 -34t92 -9z" />
    <glyph glyph-name="b" unicode="b" horiz-adv-x="596" 
d="M320 -8q-40 0 -77 6t-65.5 25.5t-42.5 59.5h-4l-3 -83h-28v743h35v-307h4q12 30 36 48t60 26t85 8q64 0 103.5 -11.5t60.5 -40t29 -80t8 -131.5t-8 -131.5t-29 -80t-60.5 -40t-103.5 -11.5zM310 24q57 0 92 8t53 31.5t24.5 69.5t6.5 122t-6.5 122t-24.5 69.5t-53 31.5
t-92 8q-67 0 -106 -18.5t-53 -58.5q-11 -34 -13.5 -70.5t-2.5 -83.5q0 -45 2 -81.5t13 -70.5q14 -42 54 -60.5t106 -18.5z" />
    <glyph glyph-name="c" unicode="c" horiz-adv-x="458" 
d="M276 -8q-55 0 -91.5 9t-58.5 28.5t-33 50t-14.5 74t-3.5 100.5q0 64 5 109t18 75.5t35.5 47.5t56 24.5t81.5 7.5q33 0 69.5 -3t60.5 -8v-33q-26 5 -60.5 8.5t-62.5 3.5q-54 0 -87.5 -10t-51 -35t-23.5 -70t-6 -115q0 -73 6 -119t24 -70.5t52 -33.5t89 -9q32 0 67.5 4
t57.5 9v-33q-23 -5 -59.5 -8.5t-70.5 -3.5z" />
    <glyph glyph-name="d" unicode="d" horiz-adv-x="596" 
d="M276 -8q-64 0 -103.5 11.5t-60.5 40t-29 80t-8 131.5t8 131.5t29 80t60.5 40t103.5 11.5q49 0 85 -8t60 -26t36 -48h4v307h35v-743h-28l-3 83h-4q-14 -40 -42.5 -59.5t-65.5 -25.5t-77 -6zM286 24q66 0 106 18t53 58q12 36 14 75t2 94q0 36 -2 70t-11 61q-16 47 -56 66.5
t-111 19.5q-55 0 -89 -8t-52 -31.5t-24 -69.5t-6 -122t6.5 -122t24.5 -69.5t53 -31.5t92 -8z" />
    <glyph glyph-name="e" unicode="e" horiz-adv-x="562" 
d="M291 -8q-57 0 -95.5 7t-62.5 24.5t-36.5 47.5t-17 75t-4.5 108q0 75 5 125.5t25 81t65 44t124 13.5q55 0 90.5 -8t56 -25.5t30.5 -48t13 -75t3 -105.5v-13h-377q0 -66 6 -109t24 -67t55.5 -33.5t100.5 -9.5q27 0 58 2t60.5 5t52.5 7v-33q-19 -4 -48.5 -7t-62.5 -4.5
t-65 -1.5zM452 255v41q0 64 -7.5 102t-25.5 57t-49.5 25t-78.5 6q-61 0 -97.5 -7.5t-54.5 -29.5t-23.5 -63.5t-5.5 -110.5h362z" />
    <glyph glyph-name="f" unicode="f" horiz-adv-x="344" 
d="M138 0v478h-108v32h108v115q0 32 7 53t21 34t35 20t48 9t60 2v-30q-40 0 -66 -3.5t-41.5 -12.5t-22 -25t-6.5 -41v-121h136v-32h-136v-478h-35z" />
    <glyph glyph-name="g" unicode="g" horiz-adv-x="596" 
d="M280 -206q-32 0 -66.5 1t-66 2.5t-54.5 3.5v33q29 -2 61.5 -4t63.5 -3t57 -1q62 0 99 11t56 37t25 71.5t6 114.5v14h-4q-12 -30 -36 -48t-60 -26t-85 -8q-64 0 -103.5 11.5t-60.5 40t-29 80t-8 131.5t8 131.5t29 80t60.5 40t103.5 11.5q40 0 77 -6t65.5 -25.5t42.5 -59.5
h4l3 83h28v-438q0 -79 -7.5 -132.5t-30 -85.5t-65 -46t-113.5 -14zM286 24q67 0 106.5 19t53.5 62q11 31 13 67.5t2 82.5q0 45 -1.5 80.5t-10.5 62.5q-16 49 -56.5 68.5t-106.5 19.5q-57 0 -92 -8t-53 -31.5t-24.5 -69.5t-6.5 -122t6.5 -122t24.5 -69.5t53 -31.5t92 -8z" />
    <glyph glyph-name="h" unicode="h" horiz-adv-x="604" 
d="M100 0v743h35v-308h4q7 19 24 38t53.5 32t100.5 13q61 0 98 -11t56.5 -34t26 -61t6.5 -92v-320h-35v315q0 56 -6 89.5t-23 51.5t-48.5 24t-81.5 6q-66 0 -102 -17t-51.5 -47.5t-18.5 -71t-3 -86.5v-264h-35z" />
    <glyph glyph-name="i" unicode="i" horiz-adv-x="235" 
d="M96 682v61h43v-61h-43zM100 0v510h35v-510h-35z" />
    <glyph glyph-name="j" unicode="j" horiz-adv-x="235" 
d="M96 682v61h43v-61h-43zM-2 -200v30q47 0 68.5 5t27.5 17.5t6 34.5v623h35v-613q0 -34 -8.5 -54t-25.5 -29t-42.5 -11.5t-60.5 -2.5z" />
    <glyph glyph-name="k" unicode="k" horiz-adv-x="520" 
d="M100 0v743h35v-466h85l213 233h44l-228 -248l231 -262h-46l-214 243h-85v-243h-35z" />
    <glyph glyph-name="l" unicode="l" horiz-adv-x="235" 
d="M100 0v743h35v-743h-35z" />
    <glyph glyph-name="m" unicode="m" horiz-adv-x="893" 
d="M100 0v510h28l3 -83h4q7 24 23 44.5t49 33.5t90 13q75 0 110.5 -21t47.5 -70h5q7 24 24 44.5t51 33.5t91 13q72 0 108 -19.5t47.5 -63t11.5 -115.5v-320h-35v315q0 56 -5 89.5t-19.5 51.5t-42 24t-72.5 6q-58 0 -90 -15.5t-45.5 -45t-16.5 -70.5t-3 -91v-264h-35v315
q0 56 -5 89.5t-19.5 51.5t-42 24t-72.5 6q-58 0 -90 -17t-45.5 -47.5t-16.5 -71t-3 -86.5v-264h-35z" />
    <glyph glyph-name="n" unicode="n" horiz-adv-x="604" 
d="M100 0v510h28l3 -83h4q8 24 26 44.5t55 33.5t101 13q61 0 98 -11t56.5 -34t26 -61t6.5 -92v-320h-35v315q0 56 -6 89.5t-23 51.5t-48.5 24t-81.5 6q-66 0 -102 -17t-51.5 -47.5t-18.5 -71t-3 -86.5v-264h-35z" />
    <glyph glyph-name="o" unicode="o" horiz-adv-x="580" 
d="M290 -8q-61 0 -100.5 6.5t-63 23t-34.5 46.5t-14 75.5t-3 110.5t3 111t14 76t34.5 46.5t63 23.5t100.5 7t100.5 -7t63 -23.5t34.5 -46.5t14 -76t3 -111t-3 -110.5t-14 -75.5t-34.5 -46.5t-63 -23t-100.5 -6.5zM290 24q68 0 105 9t52.5 33t19 69.5t3.5 118.5t-3.5 119
t-19 70.5t-52.5 33.5t-105 9q-67 0 -104.5 -9t-53 -33.5t-19 -70.5t-3.5 -119t3.5 -118.5t19 -69.5t53 -33t104.5 -9z" />
    <glyph glyph-name="p" unicode="p" horiz-adv-x="596" 
d="M100 -200v710h28l3 -83h4q14 40 42.5 59.5t65.5 25.5t77 6q64 0 103.5 -11.5t60.5 -40t29 -80t8 -131.5t-8 -131.5t-29 -80t-60.5 -40t-103.5 -11.5q-49 0 -85 8t-60 26t-36 48h-4v-274h-35zM310 24q57 0 92 8t53 31.5t24.5 69.5t6.5 122t-6.5 122t-24.5 69.5t-53 31.5
t-92 8q-66 0 -106.5 -19t-54.5 -63q-10 -31 -12 -67.5t-2 -81.5q0 -46 2 -81.5t9 -58.5q17 -50 57 -70.5t107 -20.5z" />
    <glyph glyph-name="q" unicode="q" horiz-adv-x="596" 
d="M461 -200v274h-4q-12 -30 -36 -48t-60 -26t-85 -8q-64 0 -103.5 11.5t-60.5 40t-29 80t-8 131.5t8 131.5t29 80t60.5 40t103.5 11.5q40 0 77 -6t65.5 -25.5t42.5 -59.5h4l3 83h28v-710h-35zM286 24q67 0 106.5 19.5t55.5 65.5q9 28 11 64t2 82q0 45 -2 82t-14 73
q-13 40 -53 58t-106 18q-57 0 -92 -8t-53 -31.5t-24.5 -69.5t-6.5 -122t6.5 -122t24.5 -69.5t53 -31.5t92 -8z" />
    <glyph glyph-name="r" unicode="r" horiz-adv-x="341" 
d="M100 0v510h27l4 -109h4q12 48 37.5 73.5t61 34.5t77.5 9v-36q-73 0 -111 -26t-51.5 -76t-13.5 -121v-259h-35z" />
    <glyph glyph-name="s" unicode="s" horiz-adv-x="500" 
d="M254 -8q-26 0 -57.5 1.5t-61.5 4t-54 5.5v33q35 -4 59 -6t43.5 -3.5t39 -2t45.5 -0.5q58 0 86 11t37 35t9 63q0 46 -7 66.5t-23.5 26.5t-46.5 9l-148 14q-44 5 -68 17t-33 38t-9 69q0 50 12.5 79.5t37.5 43.5t61 18t82 4q23 0 49.5 -1.5t52.5 -4t47 -6.5v-33
q-29 5 -54.5 8t-52 4t-59.5 1q-41 0 -73 -5.5t-50 -27.5t-18 -73q0 -40 7 -59.5t24.5 -26.5t47.5 -10l143 -14q46 -4 70 -15t33.5 -38.5t9.5 -83.5q0 -44 -10 -71.5t-32 -42.5t-56.5 -21t-82.5 -6z" />
    <glyph glyph-name="t" unicode="t" horiz-adv-x="329" 
d="M138 0v478h-108v32h108v148h35v-148h126v-32h-126v-478h-35z" />
    <glyph glyph-name="u" unicode="u" horiz-adv-x="604" 
d="M287 -8q-61 0 -98 11t-56.5 34t-26 61t-6.5 92v320h35v-315q0 -55 6 -89t23 -52t48.5 -24t81.5 -6q66 0 102 17t51.5 47.5t18.5 71t3 86.5v264h35v-510h-28l-3 83h-4q-8 -24 -26 -44.5t-55 -33.5t-101 -13z" />
    <glyph glyph-name="v" unicode="v" horiz-adv-x="521" 
d="M243 0l-208 510h38l185 -461h6l185 461h37l-208 -510h-35z" />
    <glyph glyph-name="w" unicode="w" horiz-adv-x="803" 
d="M217 0l-178 510h38l155 -453h6l145 453h38l146 -453h6l154 453h37l-178 -510h-35l-147 449h-6l-146 -449h-35z" />
    <glyph glyph-name="x" unicode="x" horiz-adv-x="537" 
d="M40 0l206 259l-199 251h45l174 -220h5l175 220h44l-199 -250l206 -260h-45l-181 229h-5l-182 -229h-44z" />
    <glyph glyph-name="y" unicode="y" horiz-adv-x="604" 
d="M284 -206q-29 0 -60.5 1t-60 2.5t-49.5 3.5v33q27 -2 56 -4t57 -3t52 -1q65 0 103.5 13t57 40t24 69t5.5 100v27h-4q-6 -18 -23.5 -37.5t-54 -32.5t-100.5 -13q-61 0 -98 11t-56.5 34t-26 61t-6.5 92v320h35v-315q0 -55 6 -89t23 -52t48.5 -24t81.5 -6q66 0 102 17
t51.5 47.5t18.5 71t3 86.5v264h35v-443q0 -76 -8.5 -128.5t-31.5 -84t-66.5 -46t-113.5 -14.5z" />
    <glyph glyph-name="z" unicode="z" horiz-adv-x="496" 
d="M55 0v28l337 450h-325v32h372v-28l-336 -450h338v-32h-386z" />
    <glyph glyph-name="braceleft" unicode="{" horiz-adv-x="300" 
d="M243 -150q-22 12 -41 31.5t-33 44.5t-21.5 53.5t-7.5 57.5v115q0 32 -10 61.5t-34 49t-66 19.5v29q42 0 66 19.5t34 49.5t10 61v115q0 29 7.5 57.5t21.5 53.5t33 44.5t41 31.5h37q-23 -14 -42 -34t-33 -43.5t-22 -48.5t-8 -49v-121q0 -58 -19 -96.5t-66 -51.5v-5
q47 -13 66 -51.5t19 -96.5v-121q0 -24 8 -49t22 -48.5t33 -43.5t42 -34h-37z" />
    <glyph glyph-name="bar" unicode="|" horiz-adv-x="265" 
d="M115 -161v904h35v-904h-35z" />
    <glyph glyph-name="braceright" unicode="}" horiz-adv-x="300" 
d="M20 -150q23 14 42 34t33 43.5t22 48.5t8 49v121q0 58 19.5 96.5t65.5 51.5v5q-46 13 -65.5 51.5t-19.5 96.5v121q0 24 -8 49t-22 48.5t-33 43.5t-42 34h37q23 -12 41.5 -31.5t32.5 -44.5t21.5 -53.5t7.5 -57.5v-115q0 -31 10 -61t34 -49.5t66 -19.5v-29q-42 0 -66 -19.5
t-34 -49t-10 -61.5v-115q0 -29 -7.5 -57.5t-21.5 -53.5t-32.5 -44.5t-41.5 -31.5h-37z" />
    <glyph glyph-name="asciitilde" unicode="~" horiz-adv-x="497" 
d="M77 249q0 35 4.5 56t18 30t39.5 9q30 0 59.5 -8.5t60.5 -19.5q24 -8 49.5 -15.5t49.5 -7.5q23 0 29 14t6 48h27q0 -35 -4.5 -56t-18 -30t-39.5 -9q-30 0 -59.5 9t-61.5 19q-23 8 -48.5 15.5t-49.5 7.5q-22 0 -28.5 -14t-6.5 -48h-27z" />
    <glyph glyph-name="uni00A0" unicode="&#xa0;" horiz-adv-x="224" 
 />
    <glyph glyph-name="exclamdown" unicode="&#xa1;" horiz-adv-x="198" 
d="M80 -178v147v55t0.5 67t1.5 76.5t1.5 83t1.5 86.5h28q1 -44 1.5 -86.5t1.5 -83t1.5 -76.5t0.5 -67v-55v-147h-38zM75 445v65h48v-65h-48z" />
    <glyph glyph-name="cent" unicode="&#xa2;" horiz-adv-x="467" 
d="M281 68q-66 1 -106.5 13t-62 41.5t-29.5 83t-8 136.5q0 73 6.5 122t21.5 80t38.5 47t57.5 22t79 6q22 0 44.5 -1.5t44.5 -4.5t40 -6v-34q-23 6 -59 9.5t-70 2.5q-51 -1 -84 -10t-50.5 -33.5t-24.5 -72t-7 -125.5q0 -79 6.5 -126.5t24.5 -72.5t51.5 -34t86.5 -10
q31 0 69 4t62 11v-36q-14 -3 -35.5 -5.5t-46.5 -4.5t-49 -2zM261 -8v704h34v-704h-34z" />
    <glyph glyph-name="sterling" unicode="&#xa3;" horiz-adv-x="581" 
d="M60 0v34h74v307h-74v34h74v50q0 83 12 135.5t39.5 82.5t75 41.5t118.5 11.5q38 0 77.5 -3.5t62.5 -9.5v-32q-19 3 -43 5.5t-50 4t-52 1.5q-63 0 -103 -10t-62 -35.5t-30.5 -72t-8.5 -119.5v-50h274v-34h-274v-307h361v-34h-471z" />
    <glyph glyph-name="currency" unicode="&#xa4;" horiz-adv-x="763" 
d="M97 -17l-22 22l120 120q-19 30 -24 83t-5 135t4.5 134.5t23.5 83.5l-119 119l23 23l117 -117q24 19 64 26t102 7q63 0 103 -7t63 -27l118 118l22 -22l-119 -119q19 -31 23.5 -84t4.5 -135t-4.5 -134.5t-23.5 -83.5l120 -120l-23 -23l-119 119q-24 -18 -63.5 -25
t-101.5 -7t-102 7t-63 26zM381 101q68 0 105 9.5t52.5 35t19 73t3.5 124.5t-3.5 125t-19 74t-52.5 35.5t-105 9.5q-67 0 -104.5 -9.5t-53 -35.5t-19 -74t-3.5 -125t3.5 -124.5t19 -73t53 -35t104.5 -9.5z" />
    <glyph glyph-name="yen" unicode="&#xa5;" horiz-adv-x="619" 
d="M291 0v261h-215v34h195l-231 393h41l225 -393h7l226 393h40l-232 -393h195v-34h-215v-261h-36zM76 414v34h466v-34h-466z" />
    <glyph glyph-name="brokenbar" unicode="&#xa6;" horiz-adv-x="265" 
d="M115 390v353h35v-353h-35zM115 -161v353h35v-353h-35z" />
    <glyph glyph-name="section" unicode="&#xa7;" horiz-adv-x="699" 
d="M326 -171q-28 0 -59 1.5t-59 4t-47 5.5v33q23 -3 51 -5t56.5 -3.5t52.5 -1.5q56 0 97 5t63.5 27.5t22.5 72.5q0 43 -6.5 66t-23 35t-47.5 20l-251 67q-27 7 -47 15.5t-33 22.5t-19.5 35.5t-6.5 54.5q0 26 3 54t14 53t33 41t60 17q-16 22 -18.5 49.5t-2.5 55.5
q0 44 13.5 72t41 43t67.5 21t92 6q29 0 59.5 -1.5t58.5 -4t47 -5.5v-33q-34 5 -79 7.5t-81 2.5q-55 0 -96.5 -5t-64 -27t-22.5 -73q0 -42 7.5 -65.5t29.5 -36.5t65 -25l231 -62q22 -6 40.5 -14.5t32 -22t21 -35.5t7.5 -55q0 -25 -3.5 -54t-14 -54t-32.5 -41t-60 -16
q16 -22 18.5 -49.5t2.5 -55.5q0 -44 -13.5 -72t-41 -43t-67 -21t-92.5 -6zM106 297q0 -35 5.5 -55t21 -31.5t45.5 -19.5l262 -70q28 -7 43.5 -11.5t26.5 -4.5q41 0 62 29t21 93q0 35 -6 55.5t-24 32.5t-55 22l-246 65q-30 8 -46 12.5t-27 4.5q-40 0 -61.5 -29t-21.5 -93z
" />
    <glyph glyph-name="dieresis" unicode="&#xa8;" horiz-adv-x="253" 
d="M0 650v61h43v-61h-43zM210 650v61h43v-61h-43z" />
    <glyph glyph-name="copyright" unicode="&#xa9;" horiz-adv-x="724" 
d="M362 -8q-80 0 -131 7t-80 27t-42 59t-16 102t-3 157t3 157t16 102t42 59t80 27t131 7t131 -7t80 -27t42 -59t16 -102t3 -157t-3 -157t-16 -102t-42 -59t-80 -27t-131 -7zM385 154q-47 0 -76 6t-44 24.5t-20.5 57t-5.5 102.5t5.5 102t20.5 57t44 25t76 6q25 0 49 -1.5
t36 -4.5v-29q-15 2 -38 3.5t-43 1.5q-40 0 -64 -4.5t-35.5 -20t-15.5 -48t-4 -87.5t4 -87.5t15.5 -48t35.5 -20t64 -4.5q21 0 44.5 1.5t38.5 3.5v-30q-16 -2 -40.5 -3.5t-46.5 -1.5zM362 18q71 0 116.5 5t71.5 22.5t37.5 53t14.5 95t3 150.5t-3 150.5t-14.5 95t-37.5 53
t-71.5 22.5t-116.5 5t-116.5 -5t-71.5 -22.5t-37.5 -53t-14.5 -95t-3 -150.5t3 -150.5t14.5 -95t37.5 -53t71.5 -22.5t116.5 -5z" />
    <glyph glyph-name="ordfeminine" unicode="&#xaa;" horiz-adv-x="402" 
d="M178 316q-45 0 -74.5 7.5t-44 30.5t-14.5 69q0 41 9 64t33.5 32.5t68.5 9.5q11 0 37.5 -0.5t58 -1t57.5 -1.5v29q0 51 -8.5 74t-34.5 29.5t-78 6.5q-19 0 -42 -1t-43.5 -3t-33.5 -5v32q22 4 56 6t73 2q45 0 73.5 -6t44 -20.5t21 -41.5t5.5 -69v-239h-27l-5 44h-4
q-13 -23 -34.5 -33t-46 -12.5t-47.5 -2.5zM177 345q24 0 48.5 2.5t43.5 12t27 29.5q8 19 10.5 39.5t2.5 44.5v25h-146q-52 0 -69.5 -13.5t-17.5 -61.5q0 -47 20.5 -62.5t80.5 -15.5z" />
    <glyph glyph-name="guillemotleft" unicode="&#xab;" horiz-adv-x="455" 
d="M192 99l-132 205l132 206h31l-119 -206l119 -205h-31zM344 99l-132 205l132 206h31l-119 -206l119 -205h-31z" />
    <glyph glyph-name="logicalnot" unicode="&#xac;" horiz-adv-x="539" 
d="M435 53v185h-365v34h399v-219h-34z" />
    <glyph glyph-name="uni00AD" unicode="&#xad;" horiz-adv-x="355" 
d="M65 268v36h225v-36h-225z" />
    <glyph glyph-name="registered" unicode="&#xae;" horiz-adv-x="724" 
d="M362 -8q-80 0 -131 7t-80 27t-42 59t-16 102t-3 157t3 157t16 102t42 59t80 27t131 7t131 -7t80 -27t42 -59t16 -102t3 -157t-3 -157t-16 -102t-42 -59t-80 -27t-131 -7zM362 18q71 0 116.5 5t71.5 22.5t37.5 53t14.5 95t3 150.5t-3 150.5t-14.5 95t-37.5 53t-71.5 22.5
t-116.5 5t-116.5 -5t-71.5 -22.5t-37.5 -53t-14.5 -95t-3 -150.5t3 -150.5t14.5 -95t37.5 -53t71.5 -22.5t116.5 -5zM235 157v372h165q48 0 68.5 -16.5t25.5 -41.5t5 -51q0 -32 -10 -61.5t-46 -41.5l64 -160h-36l-59 154h-146v-154h-31zM266 341h125q36 0 52.5 10.5
t20.5 28.5t4 40q0 23 -3.5 41t-18 28t-47.5 10h-133v-158z" />
    <glyph glyph-name="macron" unicode="&#xaf;" horiz-adv-x="265" 
d="M0 650v31h265v-31h-265z" />
    <glyph glyph-name="degree" unicode="&#xb0;" horiz-adv-x="385" 
d="M193 397q-43 0 -67.5 6t-36.5 22t-15.5 45.5t-3.5 75.5t3.5 75.5t15.5 45.5t36.5 22.5t67.5 6.5t67.5 -6.5t36 -22.5t15 -45.5t3.5 -75.5t-3.5 -75.5t-15 -45.5t-36 -22t-67.5 -6zM193 428q44 0 62.5 9t22 34.5t3.5 74.5q0 50 -3.5 75.5t-22 34.5t-62.5 9t-63 -9
t-22.5 -34.5t-3.5 -75.5q0 -49 3.5 -74.5t22.5 -34.5t63 -9z" />
    <glyph glyph-name="plusminus" unicode="&#xb1;" horiz-adv-x="540" 
d="M253 184v184h-183v32h183v184h32v-184h185v-32h-185v-184h-32zM70 0v32h400v-32h-400z" />
    <glyph glyph-name="uni00B2" unicode="&#xb2;" horiz-adv-x="359" 
d="M45 420v42q0 43 3 66t17 36.5t46 25.5l115 45q23 9 33.5 16t14 18.5t3.5 31.5q0 29 -9 43t-32 18.5t-65 4.5q-22 0 -55.5 -1.5t-62.5 -4.5v31q24 4 60.5 6.5t68.5 2.5q37 0 66.5 -5t47.5 -25t18 -65q0 -30 -7 -49t-22.5 -30.5t-42.5 -22.5l-131 -51q-13 -5 -19.5 -11
t-8 -19t-1.5 -41v-28h232v-34h-269z" />
    <glyph glyph-name="uni00B3" unicode="&#xb3;" horiz-adv-x="352" 
d="M154 416q-25 0 -58.5 2t-58.5 6v31q29 -2 61 -4t52 -2q56 0 87 11.5t31 59.5q0 41 -19.5 57.5t-64.5 16.5h-80v33h80q20 0 38.5 5.5t30 20.5t11.5 44q0 31 -12.5 46t-39 19.5t-68.5 4.5q-22 0 -51 -1.5t-54 -4.5v31q24 4 57 6.5t59 2.5q55 0 86.5 -9.5t45 -31t13.5 -58.5
q0 -41 -18 -61.5t-50 -27.5v-2q34 -5 53.5 -24.5t19.5 -66.5q0 -34 -11.5 -57.5t-44 -35t-95.5 -11.5z" />
    <glyph glyph-name="acute" unicode="&#xb4;" horiz-adv-x="153" 
d="M0 606v5l107 133h46v-5l-126 -133h-27z" />
    <glyph glyph-name="uni00B5" unicode="&#xb5;" horiz-adv-x="604" 
d="M100 -190v700h35v-315q0 -55 6 -89t23 -52t48.5 -24t81.5 -6q66 0 102 17t51.5 47.5t18.5 71t3 86.5v264h35v-510h-28l-3 83h-4q-8 -24 -26 -44.5t-55 -33.5t-101 -13q-44 0 -75.5 6.5t-52 20.5t-32.5 37l27 -20h-19v-226h-35z" />
    <glyph glyph-name="paragraph" unicode="&#xb6;" horiz-adv-x="557" 
d="M319 -144v366q-70 0 -115 5t-71.5 18.5t-38.5 39t-15.5 67t-3.5 102.5t3.5 102.5t15.5 67.5t38.5 40t71.5 19t115 5h36v-832h-36zM421 -144v832h36v-832h-36z" />
    <glyph glyph-name="periodcentered" unicode="&#xb7;" horiz-adv-x="176" 
d="M64 267v65h48v-65h-48z" />
    <glyph glyph-name="cedilla" unicode="&#xb8;" horiz-adv-x="86" 
d="M0 -190v5l60 203h26v-5l-46 -203h-40z" />
    <glyph glyph-name="uni00B9" unicode="&#xb9;" horiz-adv-x="221" 
d="M114 420v333l-88 -43v35l96 51h29v-376h-37z" />
    <glyph glyph-name="ordmasculine" unicode="&#xba;" horiz-adv-x="414" 
d="M207 315q-55 0 -87 7.5t-47 27.5t-19 57t-4 97q0 59 4 97t19 58.5t47 28.5t87 8q56 0 87.5 -8t46.5 -28.5t19 -58.5t4 -97q0 -60 -4 -97t-19 -57t-46.5 -27.5t-87.5 -7.5zM207 344q47 0 72.5 6t36 23t13 48.5t2.5 82.5q0 50 -2.5 82t-13 49t-36 23.5t-72.5 6.5
q-46 0 -72 -6.5t-36.5 -23.5t-13 -49t-2.5 -82q0 -51 2.5 -82.5t13 -48.5t36.5 -23t72 -6z" />
    <glyph glyph-name="guillemotright" unicode="&#xbb;" horiz-adv-x="455" 
d="M80 99l119 205l-119 206h31l132 -206l-132 -205h-31zM232 99l119 205l-119 206h31l132 -206l-132 -205h-31z" />
    <glyph glyph-name="onequarter" unicode="&#xbc;" horiz-adv-x="655" 
d="M114 308v333l-88 -43v35l96 51h29v-376h-37zM41 0l449 688h42l-449 -688h-42zM530 0v90h-219v29l154 257h41l-154 -253h178l6 143h30v-143h61v-33h-61v-90h-36z" />
    <glyph glyph-name="onehalf" unicode="&#xbd;" horiz-adv-x="711" 
d="M114 308v333l-88 -43v35l96 51h29v-376h-37zM41 0l449 688h42l-449 -688h-42zM397 0v42q0 43 3 66t17 36.5t46 25.5l115 45q23 9 33.5 16t14 18.5t3.5 31.5q0 29 -9 43t-32 18.5t-65 4.5q-22 0 -55.5 -1.5t-62.5 -4.5v31q24 4 60.5 6.5t68.5 2.5q37 0 66.5 -5t47.5 -25
t18 -65q0 -30 -7 -49t-22.5 -30.5t-42.5 -22.5l-131 -51q-13 -5 -19.5 -11t-8 -19t-1.5 -41v-28h232v-34h-269z" />
    <glyph glyph-name="threequarters" unicode="&#xbe;" horiz-adv-x="786" 
d="M154 304q-25 0 -58.5 2t-58.5 6v31q29 -2 61 -4t52 -2q56 0 87 11.5t31 59.5q0 41 -19.5 57.5t-64.5 16.5h-80v33h80q20 0 38.5 5.5t30 20.5t11.5 44q0 31 -12.5 46t-39 19.5t-68.5 4.5q-22 0 -51 -1.5t-54 -4.5v31q24 4 57 6.5t59 2.5q55 0 86.5 -9.5t45 -31t13.5 -58.5
q0 -41 -18 -61.5t-50 -27.5v-2q34 -5 53.5 -24.5t19.5 -66.5q0 -34 -11.5 -57.5t-44 -35t-95.5 -11.5zM172 0l449 688h42l-449 -688h-42zM661 0v90h-219v29l154 257h41l-154 -253h178l6 143h30v-143h61v-33h-61v-90h-36z" />
    <glyph glyph-name="questiondown" unicode="&#xbf;" horiz-adv-x="426" 
d="M270 -186q-52 0 -89.5 6.5t-62 24t-36.5 48.5t-12 80q0 33 2 60.5t10.5 50t27.5 40t53 29.5l55 20q24 9 38 15.5t20.5 13.5t8 19t1.5 31v85h36v-87q0 -37 -7.5 -56t-25 -29t-49.5 -21l-26 -9q-47 -16 -70 -32t-30.5 -43t-7.5 -76q0 -60 16 -89t53.5 -38t99.5 -9
q15 0 34.5 1t42.5 2.5t47 3.5t47 5v-32q-27 -4 -59 -7t-62.5 -5t-54.5 -2zM280 445v65h48v-65h-48z" />
    <glyph glyph-name="Agrave" unicode="&#xc0;" horiz-adv-x="683" 
d="M40 0l284 688h35l284 -688h-39l-91 222h-344l-91 -222h-38zM183 256h316l-155 381h-5zM368 785l-126 132v5h46l107 -132v-5h-27z" />
    <glyph glyph-name="Aacute" unicode="&#xc1;" horiz-adv-x="683" 
d="M40 0l284 688h35l284 -688h-39l-91 222h-344l-91 -222h-38zM183 256h316l-155 381h-5zM307 784v5l107 133h46v-5l-126 -133h-27z" />
    <glyph glyph-name="Acircumflex" unicode="&#xc2;" horiz-adv-x="683" 
d="M40 0l284 688h35l284 -688h-39l-91 222h-344l-91 -222h-38zM183 256h316l-155 381h-5zM212 785v5l107 133h46l107 -133v-5h-27l-103 108l-103 -108h-27z" />
    <glyph glyph-name="Atilde" unicode="&#xc3;" horiz-adv-x="683" 
d="M40 0l284 688h35l284 -688h-39l-91 222h-344l-91 -222h-38zM183 256h316l-155 381h-5zM180 799q0 35 4.5 56t18 30t39.5 9q28 0 55 -8.5t55 -19.5q22 -8 43.5 -15.5t45.5 -7.5q23 0 29 14t6 48h27q0 -35 -4.5 -56t-18 -30t-39.5 -9q-30 0 -55.5 9t-54.5 19
q-22 8 -43.5 15.5t-45.5 7.5q-22 0 -28.5 -14t-6.5 -48h-27z" />
    <glyph glyph-name="Adieresis" unicode="&#xc4;" horiz-adv-x="683" 
d="M40 0l284 688h35l284 -688h-39l-91 222h-344l-91 -222h-38zM183 256h316l-155 381h-5zM215 828v61h43v-61h-43zM425 828v61h43v-61h-43z" />
    <glyph glyph-name="Aring" unicode="&#xc5;" horiz-adv-x="683" 
d="M40 0l284 688h35l284 -688h-39l-91 222h-344l-91 -222h-38zM183 256h316l-155 381h-5zM341 663q-40 0 -62.5 5t-33 15.5t-13.5 28.5t-3 44t3 44t13.5 29t33 16t62.5 5t63 -5t33.5 -16t13.5 -29t3 -44t-3 -44t-13.5 -28.5t-33.5 -15.5t-63 -5zM341 691q40 0 57 5.5
t20.5 20t3.5 39.5q0 26 -3.5 40.5t-20.5 20.5t-57 6q-39 0 -56 -6t-20.5 -20.5t-3.5 -40.5q0 -25 3.5 -39.5t20.5 -20t56 -5.5z" />
    <glyph glyph-name="AE" unicode="&#xc6;" horiz-adv-x="947" 
d="M0 0l354 688h536v-34h-490l90 -289h353v-34h-343l92 -297h298v-34h-326l-68 222h-345l-113 -222h-38zM169 256h316l-116 381h-5z" />
    <glyph glyph-name="Ccedilla" unicode="&#xc7;" horiz-adv-x="578" 
d="M357 -8q-68 0 -115.5 6.5t-77 26t-46 58t-22.5 102.5t-6 159q0 94 6 157.5t22.5 102t46 58.5t77 27t115.5 7q26 0 53.5 -1.5t53.5 -4t45 -6.5v-32q-20 3 -44.5 5.5t-50 3.5t-47.5 1q-65 0 -109 -5.5t-70.5 -22.5t-39.5 -51.5t-17.5 -92.5t-4.5 -146t4.5 -146t17.5 -92.5
t39.5 -51.5t70.5 -22.5t109 -5.5q35 0 75.5 3t70.5 7v-34q-20 -3 -47 -5t-55.5 -3.5t-53.5 -1.5zM260 -190v5l60 203h26v-5l-46 -203h-40z" />
    <glyph glyph-name="Egrave" unicode="&#xc8;" horiz-adv-x="598" 
d="M115 0v688h426v-34h-390v-289h343v-34h-343v-297h390v-34h-426zM359 785l-126 132v5h46l107 -132v-5h-27z" />
    <glyph glyph-name="Eacute" unicode="&#xc9;" horiz-adv-x="598" 
d="M115 0v688h426v-34h-390v-289h343v-34h-343v-297h390v-34h-426zM298 784v5l107 133h46v-5l-126 -133h-27z" />
    <glyph glyph-name="Ecircumflex" unicode="&#xca;" horiz-adv-x="598" 
d="M115 0v688h426v-34h-390v-289h343v-34h-343v-297h390v-34h-426zM203 785v5l107 133h46l107 -133v-5h-27l-103 108l-103 -108h-27z" />
    <glyph glyph-name="Edieresis" unicode="&#xcb;" horiz-adv-x="598" 
d="M115 0v688h426v-34h-390v-289h343v-34h-343v-297h390v-34h-426zM206 828v61h43v-61h-43zM416 828v61h43v-61h-43z" />
    <glyph glyph-name="Igrave" unicode="&#xcc;" horiz-adv-x="266" 
d="M115 0v688h36v-688h-36zM159 785l-126 132v5h46l107 -132v-5h-27z" />
    <glyph glyph-name="Iacute" unicode="&#xcd;" horiz-adv-x="266" 
d="M115 0v688h36v-688h-36zM98 784v5l107 133h46v-5l-126 -133h-27z" />
    <glyph glyph-name="Icircumflex" unicode="&#xce;" horiz-adv-x="266" 
d="M115 0v688h36v-688h-36zM3 785v5l107 133h46l107 -133v-5h-27l-103 108l-103 -108h-27z" />
    <glyph glyph-name="Idieresis" unicode="&#xcf;" horiz-adv-x="266" 
d="M115 0v688h36v-688h-36zM6 828v61h43v-61h-43zM216 828v61h43v-61h-43z" />
    <glyph glyph-name="Eth" unicode="&#xd0;" horiz-adv-x="693" 
d="M115 0v331h-70v36h70v321h205q80 0 132 -6.5t82.5 -26.5t45.5 -58t19 -99.5t4 -153.5t-4 -153.5t-19 -99.5t-45.5 -58t-82.5 -26.5t-132 -6.5h-205zM151 34h149q76 0 125.5 3.5t78 18t42 47.5t17.5 91.5t4 149.5t-4 149.5t-18 91.5t-43 47.5t-78 18t-124 3.5h-149v-287
h129v-36h-129v-297z" />
    <glyph glyph-name="Ntilde" unicode="&#xd1;" horiz-adv-x="738" 
d="M115 0v688h35l434 -622h4v622h35v-688h-35l-434 622h-4v-622h-35zM217 799q0 35 4.5 56t18 30t39.5 9q28 0 55 -8.5t55 -19.5q22 -8 43.5 -15.5t45.5 -7.5q23 0 29 14t6 48h27q0 -35 -4.5 -56t-18 -30t-39.5 -9q-30 0 -55.5 9t-54.5 19q-22 8 -43.5 15.5t-45.5 7.5
q-22 0 -28.5 -14t-6.5 -48h-27z" />
    <glyph glyph-name="Ograve" unicode="&#xd2;" horiz-adv-x="726" 
d="M363 -8q-77 0 -127.5 7t-80 27t-43.5 59t-18 102t-4 157t4 157t18 102t43.5 59t80 27t127.5 7t127.5 -7t80 -27t43.5 -59t18 -102t4 -157t-4 -157t-18 -102t-43.5 -59t-80 -27t-127.5 -7zM363 26q65 0 108 3.5t69 18.5t39 49t17 93.5t4 153.5t-4 153.5t-17 93.5t-39 49
t-69 18.5t-108 3.5t-108 -3.5t-69 -18.5t-39 -49t-17 -93.5t-4 -153.5t4 -153.5t17 -93.5t39 -49t69 -18.5t108 -3.5zM389 785l-126 132v5h46l107 -132v-5h-27z" />
    <glyph glyph-name="Oacute" unicode="&#xd3;" horiz-adv-x="726" 
d="M363 -8q-77 0 -127.5 7t-80 27t-43.5 59t-18 102t-4 157t4 157t18 102t43.5 59t80 27t127.5 7t127.5 -7t80 -27t43.5 -59t18 -102t4 -157t-4 -157t-18 -102t-43.5 -59t-80 -27t-127.5 -7zM363 26q65 0 108 3.5t69 18.5t39 49t17 93.5t4 153.5t-4 153.5t-17 93.5t-39 49
t-69 18.5t-108 3.5t-108 -3.5t-69 -18.5t-39 -49t-17 -93.5t-4 -153.5t4 -153.5t17 -93.5t39 -49t69 -18.5t108 -3.5zM328 784v5l107 133h46v-5l-126 -133h-27z" />
    <glyph glyph-name="Ocircumflex" unicode="&#xd4;" horiz-adv-x="726" 
d="M363 -8q-77 0 -127.5 7t-80 27t-43.5 59t-18 102t-4 157t4 157t18 102t43.5 59t80 27t127.5 7t127.5 -7t80 -27t43.5 -59t18 -102t4 -157t-4 -157t-18 -102t-43.5 -59t-80 -27t-127.5 -7zM363 26q65 0 108 3.5t69 18.5t39 49t17 93.5t4 153.5t-4 153.5t-17 93.5t-39 49
t-69 18.5t-108 3.5t-108 -3.5t-69 -18.5t-39 -49t-17 -93.5t-4 -153.5t4 -153.5t17 -93.5t39 -49t69 -18.5t108 -3.5zM233 785v5l107 133h46l107 -133v-5h-27l-103 108l-103 -108h-27z" />
    <glyph glyph-name="Otilde" unicode="&#xd5;" horiz-adv-x="726" 
d="M363 -8q-77 0 -127.5 7t-80 27t-43.5 59t-18 102t-4 157t4 157t18 102t43.5 59t80 27t127.5 7t127.5 -7t80 -27t43.5 -59t18 -102t4 -157t-4 -157t-18 -102t-43.5 -59t-80 -27t-127.5 -7zM363 26q65 0 108 3.5t69 18.5t39 49t17 93.5t4 153.5t-4 153.5t-17 93.5t-39 49
t-69 18.5t-108 3.5t-108 -3.5t-69 -18.5t-39 -49t-17 -93.5t-4 -153.5t4 -153.5t17 -93.5t39 -49t69 -18.5t108 -3.5zM201 799q0 35 4.5 56t18 30t39.5 9q28 0 55 -8.5t55 -19.5q22 -8 43.5 -15.5t45.5 -7.5q23 0 29 14t6 48h27q0 -35 -4.5 -56t-18 -30t-39.5 -9
q-30 0 -55.5 9t-54.5 19q-22 8 -43.5 15.5t-45.5 7.5q-22 0 -28.5 -14t-6.5 -48h-27z" />
    <glyph glyph-name="Odieresis" unicode="&#xd6;" horiz-adv-x="726" 
d="M363 -8q-77 0 -127.5 7t-80 27t-43.5 59t-18 102t-4 157t4 157t18 102t43.5 59t80 27t127.5 7t127.5 -7t80 -27t43.5 -59t18 -102t4 -157t-4 -157t-18 -102t-43.5 -59t-80 -27t-127.5 -7zM363 26q65 0 108 3.5t69 18.5t39 49t17 93.5t4 153.5t-4 153.5t-17 93.5t-39 49
t-69 18.5t-108 3.5t-108 -3.5t-69 -18.5t-39 -49t-17 -93.5t-4 -153.5t4 -153.5t17 -93.5t39 -49t69 -18.5t108 -3.5zM236 828v61h43v-61h-43zM446 828v61h43v-61h-43z" />
    <glyph glyph-name="multiply" unicode="&#xd7;" horiz-adv-x="467" 
d="M93 89l-22 23l140 140l-141 141l23 23l141 -141l141 141l22 -22l-141 -141l141 -141l-23 -23l-141 141z" />
    <glyph glyph-name="Oslash" unicode="&#xd8;" horiz-adv-x="726" 
d="M90 -55l508 798h38l-509 -798h-37zM363 -8q-77 0 -127.5 7t-80 27t-43.5 59t-18 102t-4 157t4 157t18 102t43.5 59t80 27t127.5 7t127.5 -7t80 -27t43.5 -59t18 -102t4 -157t-4 -157t-18 -102t-43.5 -59t-80 -27t-127.5 -7zM363 26q65 0 108 3.5t69 18.5t39 49t17 93.5
t4 153.5t-4 153.5t-17 93.5t-39 49t-69 18.5t-108 3.5t-108 -3.5t-69 -18.5t-39 -49t-17 -93.5t-4 -153.5t4 -153.5t17 -93.5t39 -49t69 -18.5t108 -3.5z" />
    <glyph glyph-name="Ugrave" unicode="&#xd9;" horiz-adv-x="717" 
d="M359 -8q-70 0 -116.5 8.5t-74 28.5t-41.5 55t-18 86.5t-4 123.5v394h36v-424q0 -72 6 -118t26.5 -72.5t65 -37t120.5 -10.5q77 0 120.5 10.5t64.5 37t26.5 72.5t5.5 118v424h36v-394q0 -72 -4 -123.5t-17.5 -86.5t-41 -55t-74 -28.5t-116.5 -8.5zM385 785l-126 132v5h46
l107 -132v-5h-27z" />
    <glyph glyph-name="Uacute" unicode="&#xda;" horiz-adv-x="717" 
d="M359 -8q-70 0 -116.5 8.5t-74 28.5t-41.5 55t-18 86.5t-4 123.5v394h36v-424q0 -72 6 -118t26.5 -72.5t65 -37t120.5 -10.5q77 0 120.5 10.5t64.5 37t26.5 72.5t5.5 118v424h36v-394q0 -72 -4 -123.5t-17.5 -86.5t-41 -55t-74 -28.5t-116.5 -8.5zM324 784v5l107 133h46
v-5l-126 -133h-27z" />
    <glyph glyph-name="Ucircumflex" unicode="&#xdb;" horiz-adv-x="717" 
d="M359 -8q-70 0 -116.5 8.5t-74 28.5t-41.5 55t-18 86.5t-4 123.5v394h36v-424q0 -72 6 -118t26.5 -72.5t65 -37t120.5 -10.5q77 0 120.5 10.5t64.5 37t26.5 72.5t5.5 118v424h36v-394q0 -72 -4 -123.5t-17.5 -86.5t-41 -55t-74 -28.5t-116.5 -8.5zM229 785v5l107 133h46
l107 -133v-5h-27l-103 108l-103 -108h-27z" />
    <glyph glyph-name="Udieresis" unicode="&#xdc;" horiz-adv-x="717" 
d="M359 -8q-70 0 -116.5 8.5t-74 28.5t-41.5 55t-18 86.5t-4 123.5v394h36v-424q0 -72 6 -118t26.5 -72.5t65 -37t120.5 -10.5q77 0 120.5 10.5t64.5 37t26.5 72.5t5.5 118v424h36v-394q0 -72 -4 -123.5t-17.5 -86.5t-41 -55t-74 -28.5t-116.5 -8.5zM232 828v61h43v-61h-43z
M442 828v61h43v-61h-43z" />
    <glyph glyph-name="Yacute" unicode="&#xdd;" horiz-adv-x="599" 
d="M281 0v281l-261 407h42l234 -369h7l235 369h41l-262 -407v-281h-36zM265 784v5l107 133h46v-5l-126 -133h-27z" />
    <glyph glyph-name="Thorn" unicode="&#xde;" horiz-adv-x="655" 
d="M115 0v688h36v-131h252q68 0 106 -17t55 -46t21.5 -66t4.5 -78q0 -40 -4.5 -77.5t-22.5 -66.5t-56 -46t-104 -17h-252v-143h-36zM151 177h250q54 0 84.5 12t45.5 34.5t19 54.5t4 72t-3.5 72t-18 54.5t-45.5 34.5t-86 12h-250v-346z" />
    <glyph glyph-name="germandbls" unicode="&#xdf;" horiz-adv-x="613" 
d="M100 0v527q0 76 20.5 125.5t69 73.5t134.5 24q61 0 100.5 -11t62.5 -32.5t32.5 -54t9.5 -75.5q0 -61 -28 -93t-88 -41v-4q62 -10 93.5 -53.5t31.5 -142.5q0 -69 -7.5 -115.5t-27.5 -74.5t-59 -40.5t-102 -12.5h-93v32h73q60 0 96 6t54.5 26t24.5 60.5t6 109.5
q0 73 -15.5 114t-53 57.5t-104.5 16.5h-41v32h41q59 0 95 13t52.5 41t16.5 74q0 50 -15 79.5t-53.5 43t-109.5 13.5q-62 0 -102.5 -15t-60 -57t-19.5 -124v-522h-34z" />
    <glyph glyph-name="agrave" unicode="&#xe0;" horiz-adv-x="574" 
d="M249 -8q-63 0 -104 11t-60.5 42.5t-19.5 92.5q0 56 13 87.5t46 44.5t92 13q12 0 37 -0.5t57.5 -1.5t66 -1.5t62.5 -1.5v46q0 56 -6.5 88.5t-25 48.5t-53.5 20.5t-91 4.5q-23 0 -53.5 -2t-59.5 -4.5t-49 -6.5v33q30 5 76 8.5t100 3.5q49 0 83.5 -5t57 -17t34.5 -33.5
t17 -54t5 -78.5v-330h-28l-3 83h-4q-14 -41 -45.5 -60.5t-70 -25t-74.5 -5.5zM248 24q35 0 68.5 3.5t59.5 16t39 40.5q14 30 19 59.5t5 66.5v41h-213q-50 0 -77.5 -8t-38 -32t-10.5 -73q0 -46 12 -71t44 -34t92 -9zM312 606l-126 132v5h46l107 -132v-5h-27z" />
    <glyph glyph-name="aacute" unicode="&#xe1;" horiz-adv-x="574" 
d="M249 -8q-63 0 -104 11t-60.5 42.5t-19.5 92.5q0 56 13 87.5t46 44.5t92 13q12 0 37 -0.5t57.5 -1.5t66 -1.5t62.5 -1.5v46q0 56 -6.5 88.5t-25 48.5t-53.5 20.5t-91 4.5q-23 0 -53.5 -2t-59.5 -4.5t-49 -6.5v33q30 5 76 8.5t100 3.5q49 0 83.5 -5t57 -17t34.5 -33.5
t17 -54t5 -78.5v-330h-28l-3 83h-4q-14 -41 -45.5 -60.5t-70 -25t-74.5 -5.5zM248 24q35 0 68.5 3.5t59.5 16t39 40.5q14 30 19 59.5t5 66.5v41h-213q-50 0 -77.5 -8t-38 -32t-10.5 -73q0 -46 12 -71t44 -34t92 -9zM236 606v5l107 133h46v-5l-126 -133h-27z" />
    <glyph glyph-name="acircumflex" unicode="&#xe2;" horiz-adv-x="574" 
d="M249 -8q-63 0 -104 11t-60.5 42.5t-19.5 92.5q0 56 13 87.5t46 44.5t92 13q12 0 37 -0.5t57.5 -1.5t66 -1.5t62.5 -1.5v46q0 56 -6.5 88.5t-25 48.5t-53.5 20.5t-91 4.5q-23 0 -53.5 -2t-59.5 -4.5t-49 -6.5v33q30 5 76 8.5t100 3.5q49 0 83.5 -5t57 -17t34.5 -33.5
t17 -54t5 -78.5v-330h-28l-3 83h-4q-14 -41 -45.5 -60.5t-70 -25t-74.5 -5.5zM248 24q35 0 68.5 3.5t59.5 16t39 40.5q14 30 19 59.5t5 66.5v41h-213q-50 0 -77.5 -8t-38 -32t-10.5 -73q0 -46 12 -71t44 -34t92 -9zM161 606v5l107 133h46l107 -133v-5h-27l-103 108
l-103 -108h-27z" />
    <glyph glyph-name="atilde" unicode="&#xe3;" horiz-adv-x="574" 
d="M249 -8q-63 0 -104 11t-60.5 42.5t-19.5 92.5q0 56 13 87.5t46 44.5t92 13q12 0 37 -0.5t57.5 -1.5t66 -1.5t62.5 -1.5v46q0 56 -6.5 88.5t-25 48.5t-53.5 20.5t-91 4.5q-23 0 -53.5 -2t-59.5 -4.5t-49 -6.5v33q30 5 76 8.5t100 3.5q49 0 83.5 -5t57 -17t34.5 -33.5
t17 -54t5 -78.5v-330h-28l-3 83h-4q-14 -41 -45.5 -60.5t-70 -25t-74.5 -5.5zM248 24q35 0 68.5 3.5t59.5 16t39 40.5q14 30 19 59.5t5 66.5v41h-213q-50 0 -77.5 -8t-38 -32t-10.5 -73q0 -46 12 -71t44 -34t92 -9zM129 621q0 35 4.5 56t18 30t39.5 9q28 0 55 -8.5t55 -19.5
q22 -8 43.5 -15.5t45.5 -7.5q23 0 29 14t6 48h27q0 -35 -4.5 -56t-18 -30t-39.5 -9q-30 0 -55.5 9t-54.5 19q-22 8 -43.5 15.5t-45.5 7.5q-22 0 -28.5 -14t-6.5 -48h-27z" />
    <glyph glyph-name="adieresis" unicode="&#xe4;" horiz-adv-x="574" 
d="M249 -8q-63 0 -104 11t-60.5 42.5t-19.5 92.5q0 56 13 87.5t46 44.5t92 13q12 0 37 -0.5t57.5 -1.5t66 -1.5t62.5 -1.5v46q0 56 -6.5 88.5t-25 48.5t-53.5 20.5t-91 4.5q-23 0 -53.5 -2t-59.5 -4.5t-49 -6.5v33q30 5 76 8.5t100 3.5q49 0 83.5 -5t57 -17t34.5 -33.5
t17 -54t5 -78.5v-330h-28l-3 83h-4q-14 -41 -45.5 -60.5t-70 -25t-74.5 -5.5zM248 24q35 0 68.5 3.5t59.5 16t39 40.5q14 30 19 59.5t5 66.5v41h-213q-50 0 -77.5 -8t-38 -32t-10.5 -73q0 -46 12 -71t44 -34t92 -9zM164 650v61h43v-61h-43zM374 650v61h43v-61h-43z" />
    <glyph glyph-name="aring" unicode="&#xe5;" horiz-adv-x="574" 
d="M249 -8q-63 0 -104 11t-60.5 42.5t-19.5 92.5q0 56 13 87.5t46 44.5t92 13q12 0 37 -0.5t57.5 -1.5t66 -1.5t62.5 -1.5v46q0 56 -6.5 88.5t-25 48.5t-53.5 20.5t-91 4.5q-23 0 -53.5 -2t-59.5 -4.5t-49 -6.5v33q30 5 76 8.5t100 3.5q49 0 83.5 -5t57 -17t34.5 -33.5
t17 -54t5 -78.5v-330h-28l-3 83h-4q-14 -41 -45.5 -60.5t-70 -25t-74.5 -5.5zM248 24q35 0 68.5 3.5t59.5 16t39 40.5q14 30 19 59.5t5 66.5v41h-213q-50 0 -77.5 -8t-38 -32t-10.5 -73q0 -46 12 -71t44 -34t92 -9zM290 592q-40 0 -62.5 5t-33 15.5t-13.5 28.5t-3 44t3 44
t13.5 29t33 16t62.5 5t63 -5t33.5 -16t13.5 -29t3 -44t-3 -44t-13.5 -28.5t-33.5 -15.5t-63 -5zM290 620q40 0 57 5.5t20.5 20t3.5 39.5q0 26 -3.5 40.5t-20.5 20.5t-57 6q-39 0 -56 -6t-20.5 -20.5t-3.5 -40.5q0 -25 3.5 -39.5t20.5 -20t56 -5.5z" />
    <glyph glyph-name="ae" unicode="&#xe6;" horiz-adv-x="926" 
d="M249 -8q-47 0 -82 6t-57.5 21.5t-33.5 44t-11 74.5q0 54 13 84.5t46 43.5t92 13h74.5h74.5h74v45q0 56 -6.5 88.5t-25 48.5t-53.5 20.5t-91 4.5q-23 0 -53.5 -2t-59.5 -4.5t-49 -6.5v33q30 5 76 8.5t100 3.5q83 0 125 -15t58 -57q20 39 65 55.5t133 16.5q55 0 90.5 -7.5
t56 -25.5t30.5 -47.5t13 -73.5t3 -104v-13h-377q0 -67 6 -111t24 -68t55.5 -34t100.5 -10q27 0 58 2t60.5 5t52.5 7v-33q-19 -4 -48.5 -7t-62.5 -4.5t-65 -1.5q-63 0 -103 9t-63 31t-35 61q-17 -46 -50 -67.5t-73 -27.5t-82 -6zM248 24q35 0 68.5 3.5t60 16.5t39.5 43
q13 28 18 57t5 66v37h-213q-50 0 -77.5 -7.5t-38 -30.5t-10.5 -71q0 -46 12 -71t44 -34t92 -9zM816 261q1 74 -4.5 118.5t-22.5 67.5t-49 31t-85 8q-61 0 -97.5 -7.5t-54.5 -28.5t-23.5 -62t-5.5 -109h358z" />
    <glyph glyph-name="ccedilla" unicode="&#xe7;" horiz-adv-x="458" 
d="M276 -8q-55 0 -91.5 9t-58.5 28.5t-33 50t-14.5 74t-3.5 100.5q0 64 5 109t18 75.5t35.5 47.5t56 24.5t81.5 7.5q33 0 69.5 -3t60.5 -8v-33q-26 5 -60.5 8.5t-62.5 3.5q-54 0 -87.5 -10t-51 -35t-23.5 -70t-6 -115q0 -73 6 -119t24 -70.5t52 -33.5t89 -9q32 0 67.5 4
t57.5 9v-33q-23 -5 -59.5 -8.5t-70.5 -3.5zM207 -190v5l60 203h26v-5l-46 -203h-40z" />
    <glyph glyph-name="egrave" unicode="&#xe8;" horiz-adv-x="562" 
d="M291 -8q-57 0 -95.5 7t-62.5 24.5t-36.5 47.5t-17 75t-4.5 108q0 75 5 125.5t25 81t65 44t124 13.5q55 0 90.5 -8t56 -25.5t30.5 -48t13 -75t3 -105.5v-13h-377q0 -66 6 -109t24 -67t55.5 -33.5t100.5 -9.5q27 0 58 2t60.5 5t52.5 7v-33q-19 -4 -48.5 -7t-62.5 -4.5
t-65 -1.5zM452 255v41q0 64 -7.5 102t-25.5 57t-49.5 25t-78.5 6q-61 0 -97.5 -7.5t-54.5 -29.5t-23.5 -63.5t-5.5 -110.5h362zM307 606l-126 132v5h46l107 -132v-5h-27z" />
    <glyph glyph-name="eacute" unicode="&#xe9;" horiz-adv-x="562" 
d="M291 -8q-57 0 -95.5 7t-62.5 24.5t-36.5 47.5t-17 75t-4.5 108q0 75 5 125.5t25 81t65 44t124 13.5q55 0 90.5 -8t56 -25.5t30.5 -48t13 -75t3 -105.5v-13h-377q0 -66 6 -109t24 -67t55.5 -33.5t100.5 -9.5q27 0 58 2t60.5 5t52.5 7v-33q-19 -4 -48.5 -7t-62.5 -4.5
t-65 -1.5zM452 255v41q0 64 -7.5 102t-25.5 57t-49.5 25t-78.5 6q-61 0 -97.5 -7.5t-54.5 -29.5t-23.5 -63.5t-5.5 -110.5h362zM231 606v5l107 133h46v-5l-126 -133h-27z" />
    <glyph glyph-name="ecircumflex" unicode="&#xea;" horiz-adv-x="562" 
d="M291 -8q-57 0 -95.5 7t-62.5 24.5t-36.5 47.5t-17 75t-4.5 108q0 75 5 125.5t25 81t65 44t124 13.5q55 0 90.5 -8t56 -25.5t30.5 -48t13 -75t3 -105.5v-13h-377q0 -66 6 -109t24 -67t55.5 -33.5t100.5 -9.5q27 0 58 2t60.5 5t52.5 7v-33q-19 -4 -48.5 -7t-62.5 -4.5
t-65 -1.5zM452 255v41q0 64 -7.5 102t-25.5 57t-49.5 25t-78.5 6q-61 0 -97.5 -7.5t-54.5 -29.5t-23.5 -63.5t-5.5 -110.5h362zM156 606v5l107 133h46l107 -133v-5h-27l-103 108l-103 -108h-27z" />
    <glyph glyph-name="edieresis" unicode="&#xeb;" horiz-adv-x="562" 
d="M291 -8q-57 0 -95.5 7t-62.5 24.5t-36.5 47.5t-17 75t-4.5 108q0 75 5 125.5t25 81t65 44t124 13.5q55 0 90.5 -8t56 -25.5t30.5 -48t13 -75t3 -105.5v-13h-377q0 -66 6 -109t24 -67t55.5 -33.5t100.5 -9.5q27 0 58 2t60.5 5t52.5 7v-33q-19 -4 -48.5 -7t-62.5 -4.5
t-65 -1.5zM452 255v41q0 64 -7.5 102t-25.5 57t-49.5 25t-78.5 6q-61 0 -97.5 -7.5t-54.5 -29.5t-23.5 -63.5t-5.5 -110.5h362zM159 650v61h43v-61h-43zM369 650v61h43v-61h-43z" />
    <glyph glyph-name="igrave" unicode="&#xec;" horiz-adv-x="235" 
d="M100 0v510h35v-510h-35zM139 606l-126 132v5h46l107 -132v-5h-27z" />
    <glyph glyph-name="iacute" unicode="&#xed;" horiz-adv-x="235" 
d="M100 0v510h35v-510h-35zM63 606v5l107 133h46v-5l-126 -133h-27z" />
    <glyph glyph-name="icircumflex" unicode="&#xee;" horiz-adv-x="235" 
d="M100 0v510h35v-510h-35zM-12 606v5l107 133h46l107 -133v-5h-27l-103 108l-103 -108h-27z" />
    <glyph glyph-name="idieresis" unicode="&#xef;" horiz-adv-x="235" 
d="M100 0v510h35v-510h-35zM-9 650v61h43v-61h-43zM201 650v61h43v-61h-43z" />
    <glyph glyph-name="eth" unicode="&#xf0;" horiz-adv-x="580" 
d="M290 -8q-61 0 -100.5 6.5t-63 23t-34.5 46.5t-14 75.5t-3 110.5q0 81 5.5 133t26 80.5t64 39.5t119.5 11q51 0 87.5 -9t61.5 -27l6 2q-16 49 -36.5 88.5t-43.5 69.5l-122 -21v32l99 17q-25 29 -45.5 46t-28.5 23v4h43q7 -4 26 -20.5t43 -45.5l100 18v-32l-79 -14
q30 -43 57.5 -107t37.5 -132q4 -27 6 -52.5t2.5 -46t0.5 -32.5q0 -72 -2.5 -122t-12.5 -82.5t-33 -50.5t-63.5 -25t-103.5 -7zM290 24q68 0 105 9t52.5 33t19 69.5t3.5 118.5q0 58 -3.5 101.5t-19 72.5t-52.5 43.5t-105 14.5q-67 0 -104.5 -9t-53 -33.5t-19 -70.5t-3.5 -119
t3.5 -118.5t19 -69.5t53 -33t104.5 -9z" />
    <glyph glyph-name="ntilde" unicode="&#xf1;" horiz-adv-x="604" 
d="M100 0v510h28l3 -83h4q8 24 26 44.5t55 33.5t101 13q61 0 98 -11t56.5 -34t26 -61t6.5 -92v-320h-35v315q0 56 -6 89.5t-23 51.5t-48.5 24t-81.5 6q-66 0 -102 -17t-51.5 -47.5t-18.5 -71t-3 -86.5v-264h-35zM140 621q0 35 4.5 56t18 30t39.5 9q28 0 55 -8.5t55 -19.5
q22 -8 43.5 -15.5t45.5 -7.5q23 0 29 14t6 48h27q0 -35 -4.5 -56t-18 -30t-39.5 -9q-30 0 -55.5 9t-54.5 19q-22 8 -43.5 15.5t-45.5 7.5q-22 0 -28.5 -14t-6.5 -48h-27z" />
    <glyph glyph-name="ograve" unicode="&#xf2;" horiz-adv-x="580" 
d="M290 -8q-61 0 -100.5 6.5t-63 23t-34.5 46.5t-14 75.5t-3 110.5t3 111t14 76t34.5 46.5t63 23.5t100.5 7t100.5 -7t63 -23.5t34.5 -46.5t14 -76t3 -111t-3 -110.5t-14 -75.5t-34.5 -46.5t-63 -23t-100.5 -6.5zM290 24q68 0 105 9t52.5 33t19 69.5t3.5 118.5t-3.5 119
t-19 70.5t-52.5 33.5t-105 9q-67 0 -104.5 -9t-53 -33.5t-19 -70.5t-3.5 -119t3.5 -118.5t19 -69.5t53 -33t104.5 -9zM311 606l-126 132v5h46l107 -132v-5h-27z" />
    <glyph glyph-name="oacute" unicode="&#xf3;" horiz-adv-x="580" 
d="M290 -8q-61 0 -100.5 6.5t-63 23t-34.5 46.5t-14 75.5t-3 110.5t3 111t14 76t34.5 46.5t63 23.5t100.5 7t100.5 -7t63 -23.5t34.5 -46.5t14 -76t3 -111t-3 -110.5t-14 -75.5t-34.5 -46.5t-63 -23t-100.5 -6.5zM290 24q68 0 105 9t52.5 33t19 69.5t3.5 118.5t-3.5 119
t-19 70.5t-52.5 33.5t-105 9q-67 0 -104.5 -9t-53 -33.5t-19 -70.5t-3.5 -119t3.5 -118.5t19 -69.5t53 -33t104.5 -9zM235 606v5l107 133h46v-5l-126 -133h-27z" />
    <glyph glyph-name="ocircumflex" unicode="&#xf4;" horiz-adv-x="580" 
d="M290 -8q-61 0 -100.5 6.5t-63 23t-34.5 46.5t-14 75.5t-3 110.5t3 111t14 76t34.5 46.5t63 23.5t100.5 7t100.5 -7t63 -23.5t34.5 -46.5t14 -76t3 -111t-3 -110.5t-14 -75.5t-34.5 -46.5t-63 -23t-100.5 -6.5zM290 24q68 0 105 9t52.5 33t19 69.5t3.5 118.5t-3.5 119
t-19 70.5t-52.5 33.5t-105 9q-67 0 -104.5 -9t-53 -33.5t-19 -70.5t-3.5 -119t3.5 -118.5t19 -69.5t53 -33t104.5 -9zM160 606v5l107 133h46l107 -133v-5h-27l-103 108l-103 -108h-27z" />
    <glyph glyph-name="otilde" unicode="&#xf5;" horiz-adv-x="580" 
d="M290 -8q-61 0 -100.5 6.5t-63 23t-34.5 46.5t-14 75.5t-3 110.5t3 111t14 76t34.5 46.5t63 23.5t100.5 7t100.5 -7t63 -23.5t34.5 -46.5t14 -76t3 -111t-3 -110.5t-14 -75.5t-34.5 -46.5t-63 -23t-100.5 -6.5zM290 24q68 0 105 9t52.5 33t19 69.5t3.5 118.5t-3.5 119
t-19 70.5t-52.5 33.5t-105 9q-67 0 -104.5 -9t-53 -33.5t-19 -70.5t-3.5 -119t3.5 -118.5t19 -69.5t53 -33t104.5 -9zM128 621q0 35 4.5 56t18 30t39.5 9q28 0 55 -8.5t55 -19.5q22 -8 43.5 -15.5t45.5 -7.5q23 0 29 14t6 48h27q0 -35 -4.5 -56t-18 -30t-39.5 -9
q-30 0 -55.5 9t-54.5 19q-22 8 -43.5 15.5t-45.5 7.5q-22 0 -28.5 -14t-6.5 -48h-27z" />
    <glyph glyph-name="odieresis" unicode="&#xf6;" horiz-adv-x="580" 
d="M290 -8q-61 0 -100.5 6.5t-63 23t-34.5 46.5t-14 75.5t-3 110.5t3 111t14 76t34.5 46.5t63 23.5t100.5 7t100.5 -7t63 -23.5t34.5 -46.5t14 -76t3 -111t-3 -110.5t-14 -75.5t-34.5 -46.5t-63 -23t-100.5 -6.5zM290 24q68 0 105 9t52.5 33t19 69.5t3.5 118.5t-3.5 119
t-19 70.5t-52.5 33.5t-105 9q-67 0 -104.5 -9t-53 -33.5t-19 -70.5t-3.5 -119t3.5 -118.5t19 -69.5t53 -33t104.5 -9zM163 650v61h43v-61h-43zM373 650v61h43v-61h-43z" />
    <glyph glyph-name="divide" unicode="&#xf7;" horiz-adv-x="540" 
d="M70 237v32h400v-32h-400zM248 32v61h44v-61h-44zM248 413v61h44v-61h-44z" />
    <glyph glyph-name="oslash" unicode="&#xf8;" horiz-adv-x="580" 
d="M76 -55l390 620h38l-391 -620h-37zM290 -8q-61 0 -100.5 6.5t-63 23t-34.5 46.5t-14 75.5t-3 110.5t3 111t14 76t34.5 46.5t63 23.5t100.5 7t100.5 -7t63 -23.5t34.5 -46.5t14 -76t3 -111t-3 -110.5t-14 -75.5t-34.5 -46.5t-63 -23t-100.5 -6.5zM290 24q68 0 105 9
t52.5 33t19 69.5t3.5 118.5t-3.5 119t-19 70.5t-52.5 33.5t-105 9q-67 0 -104.5 -9t-53 -33.5t-19 -70.5t-3.5 -119t3.5 -118.5t19 -69.5t53 -33t104.5 -9z" />
    <glyph glyph-name="ugrave" unicode="&#xf9;" horiz-adv-x="604" 
d="M287 -8q-61 0 -98 11t-56.5 34t-26 61t-6.5 92v320h35v-315q0 -55 6 -89t23 -52t48.5 -24t81.5 -6q66 0 102 17t51.5 47.5t18.5 71t3 86.5v264h35v-510h-28l-3 83h-4q-8 -24 -26 -44.5t-55 -33.5t-101 -13zM323 606l-126 132v5h46l107 -132v-5h-27z" />
    <glyph glyph-name="uacute" unicode="&#xfa;" horiz-adv-x="604" 
d="M287 -8q-61 0 -98 11t-56.5 34t-26 61t-6.5 92v320h35v-315q0 -55 6 -89t23 -52t48.5 -24t81.5 -6q66 0 102 17t51.5 47.5t18.5 71t3 86.5v264h35v-510h-28l-3 83h-4q-8 -24 -26 -44.5t-55 -33.5t-101 -13zM247 606v5l107 133h46v-5l-126 -133h-27z" />
    <glyph glyph-name="ucircumflex" unicode="&#xfb;" horiz-adv-x="604" 
d="M287 -8q-61 0 -98 11t-56.5 34t-26 61t-6.5 92v320h35v-315q0 -55 6 -89t23 -52t48.5 -24t81.5 -6q66 0 102 17t51.5 47.5t18.5 71t3 86.5v264h35v-510h-28l-3 83h-4q-8 -24 -26 -44.5t-55 -33.5t-101 -13zM172 606v5l107 133h46l107 -133v-5h-27l-103 108l-103 -108h-27
z" />
    <glyph glyph-name="udieresis" unicode="&#xfc;" horiz-adv-x="604" 
d="M287 -8q-61 0 -98 11t-56.5 34t-26 61t-6.5 92v320h35v-315q0 -55 6 -89t23 -52t48.5 -24t81.5 -6q66 0 102 17t51.5 47.5t18.5 71t3 86.5v264h35v-510h-28l-3 83h-4q-8 -24 -26 -44.5t-55 -33.5t-101 -13zM175 650v61h43v-61h-43zM385 650v61h43v-61h-43z" />
    <glyph glyph-name="yacute" unicode="&#xfd;" horiz-adv-x="604" 
d="M284 -206q-29 0 -60.5 1t-60 2.5t-49.5 3.5v33q27 -2 56 -4t57 -3t52 -1q65 0 103.5 13t57 40t24 69t5.5 100v27h-4q-6 -18 -23.5 -37.5t-54 -32.5t-100.5 -13q-61 0 -98 11t-56.5 34t-26 61t-6.5 92v320h35v-315q0 -55 6 -89t23 -52t48.5 -24t81.5 -6q66 0 102 17
t51.5 47.5t18.5 71t3 86.5v264h35v-443q0 -76 -8.5 -128.5t-31.5 -84t-66.5 -46t-113.5 -14.5zM247 606v5l107 133h46v-5l-126 -133h-27z" />
    <glyph glyph-name="thorn" unicode="&#xfe;" horiz-adv-x="596" 
d="M100 -190v933h35v-307h4q12 30 36 48t60 26t85 8q64 0 103.5 -11.5t60.5 -40t29 -80t8 -131.5t-8 -131.5t-29 -80t-60.5 -40t-103.5 -11.5q-73 0 -118 18.5t-63 63.5h-4v-264h-35zM310 24q57 0 92 8t53 31.5t24.5 69.5t6.5 122t-6.5 122t-24.5 69.5t-53 31.5t-92 8
q-66 0 -106.5 -19.5t-56.5 -67.5q-9 -28 -10.5 -63.5t-1.5 -80.5q0 -46 1.5 -81t8.5 -55q18 -53 58 -74t107 -21z" />
    <glyph glyph-name="ydieresis" unicode="&#xff;" horiz-adv-x="604" 
d="M284 -206q-29 0 -60.5 1t-60 2.5t-49.5 3.5v33q27 -2 56 -4t57 -3t52 -1q65 0 103.5 13t57 40t24 69t5.5 100v27h-4q-6 -18 -23.5 -37.5t-54 -32.5t-100.5 -13q-61 0 -98 11t-56.5 34t-26 61t-6.5 92v320h35v-315q0 -55 6 -89t23 -52t48.5 -24t81.5 -6q66 0 102 17
t51.5 47.5t18.5 71t3 86.5v264h35v-443q0 -76 -8.5 -128.5t-31.5 -84t-66.5 -46t-113.5 -14.5zM175 650v61h43v-61h-43zM385 650v61h43v-61h-43z" />
    <glyph glyph-name="Amacron" unicode="&#x100;" horiz-adv-x="683" 
d="M40 0l284 688h35l284 -688h-39l-91 222h-344l-91 -222h-38zM183 256h316l-155 381h-5zM209 828v31h265v-31h-265z" />
    <glyph glyph-name="amacron" unicode="&#x101;" horiz-adv-x="574" 
d="M249 -8q-63 0 -104 11t-60.5 42.5t-19.5 92.5q0 56 13 87.5t46 44.5t92 13q12 0 37 -0.5t57.5 -1.5t66 -1.5t62.5 -1.5v46q0 56 -6.5 88.5t-25 48.5t-53.5 20.5t-91 4.5q-23 0 -53.5 -2t-59.5 -4.5t-49 -6.5v33q30 5 76 8.5t100 3.5q49 0 83.5 -5t57 -17t34.5 -33.5
t17 -54t5 -78.5v-330h-28l-3 83h-4q-14 -41 -45.5 -60.5t-70 -25t-74.5 -5.5zM248 24q35 0 68.5 3.5t59.5 16t39 40.5q14 30 19 59.5t5 66.5v41h-213q-50 0 -77.5 -8t-38 -32t-10.5 -73q0 -46 12 -71t44 -34t92 -9zM158 650v31h265v-31h-265z" />
    <glyph glyph-name="Abreve" unicode="&#x102;" horiz-adv-x="683" 
d="M40 0l284 688h35l284 -688h-39l-91 222h-344l-91 -222h-38zM183 256h316l-155 381h-5zM341 775q-48 0 -74.5 10.5t-37.5 29.5t-13.5 44.5t-2.5 56.5h31q0 -37 4 -62.5t24.5 -38t68.5 -12.5t68.5 12.5t25 38t4.5 62.5h31q0 -31 -2.5 -56.5t-14 -44.5t-38 -29.5
t-74.5 -10.5z" />
    <glyph glyph-name="abreve" unicode="&#x103;" horiz-adv-x="574" 
d="M249 -8q-63 0 -104 11t-60.5 42.5t-19.5 92.5q0 56 13 87.5t46 44.5t92 13q12 0 37 -0.5t57.5 -1.5t66 -1.5t62.5 -1.5v46q0 56 -6.5 88.5t-25 48.5t-53.5 20.5t-91 4.5q-23 0 -53.5 -2t-59.5 -4.5t-49 -6.5v33q30 5 76 8.5t100 3.5q49 0 83.5 -5t57 -17t34.5 -33.5
t17 -54t5 -78.5v-330h-28l-3 83h-4q-14 -41 -45.5 -60.5t-70 -25t-74.5 -5.5zM248 24q35 0 68.5 3.5t59.5 16t39 40.5q14 30 19 59.5t5 66.5v41h-213q-50 0 -77.5 -8t-38 -32t-10.5 -73q0 -46 12 -71t44 -34t92 -9zM290 597q-48 0 -74.5 10.5t-37.5 29.5t-13.5 44.5
t-2.5 56.5h31q0 -37 4 -62.5t24.5 -38t68.5 -12.5t68.5 12.5t25 38t4.5 62.5h31q0 -31 -2.5 -56.5t-14 -44.5t-38 -29.5t-74.5 -10.5z" />
    <glyph glyph-name="Aogonek" unicode="&#x104;" horiz-adv-x="683" 
d="M40 0l284 688h35l284 -688h-39l-91 222h-344l-91 -222h-38zM183 256h316l-155 381h-5zM622 -200q-27 0 -44 9.5t-24.5 26t-7.5 36.5q0 33 21 71t54 67l22 -10q-13 -12 -28 -33t-25 -44.5t-10 -44.5q0 -19 10.5 -32.5t36.5 -13.5h6.5t10.5 1v-32q-7 -1 -11 -1h-11z" />
    <glyph glyph-name="aogonek" unicode="&#x105;" horiz-adv-x="574" 
d="M249 -8q-63 0 -104 11t-60.5 42.5t-19.5 92.5q0 56 13 87.5t46 44.5t92 13q12 0 37 -0.5t57.5 -1.5t66 -1.5t62.5 -1.5v46q0 56 -6.5 88.5t-25 48.5t-53.5 20.5t-91 4.5q-23 0 -53.5 -2t-59.5 -4.5t-49 -6.5v33q30 5 76 8.5t100 3.5q49 0 83.5 -5t57 -17t34.5 -33.5
t17 -54t5 -78.5v-330h-28l-3 83h-4q-14 -41 -45.5 -60.5t-70 -25t-74.5 -5.5zM248 24q35 0 68.5 3.5t59.5 16t39 40.5q14 30 19 59.5t5 66.5v41h-213q-50 0 -77.5 -8t-38 -32t-10.5 -73q0 -46 12 -71t44 -34t92 -9zM453 -200q-27 0 -44 9.5t-24.5 26t-7.5 36.5q0 33 21 71
t54 67l22 -10q-13 -12 -28 -33t-25 -44.5t-10 -44.5q0 -19 10.5 -32.5t36.5 -13.5h6.5t10.5 1v-32q-7 -1 -11 -1h-11z" />
    <glyph glyph-name="Cacute" unicode="&#x106;" horiz-adv-x="578" 
d="M357 -8q-68 0 -115.5 6.5t-77 26t-46 58t-22.5 102.5t-6 159q0 94 6 157.5t22.5 102t46 58.5t77 27t115.5 7q26 0 53.5 -1.5t53.5 -4t45 -6.5v-32q-20 3 -44.5 5.5t-50 3.5t-47.5 1q-65 0 -109 -5.5t-70.5 -22.5t-39.5 -51.5t-17.5 -92.5t-4.5 -146t4.5 -146t17.5 -92.5
t39.5 -51.5t70.5 -22.5t109 -5.5q35 0 75.5 3t70.5 7v-34q-20 -3 -47 -5t-55.5 -3.5t-53.5 -1.5zM294 784v5l107 133h46v-5l-126 -133h-27z" />
    <glyph glyph-name="cacute" unicode="&#x107;" horiz-adv-x="458" 
d="M276 -8q-55 0 -91.5 9t-58.5 28.5t-33 50t-14.5 74t-3.5 100.5q0 64 5 109t18 75.5t35.5 47.5t56 24.5t81.5 7.5q33 0 69.5 -3t60.5 -8v-33q-26 5 -60.5 8.5t-62.5 3.5q-54 0 -87.5 -10t-51 -35t-23.5 -70t-6 -115q0 -73 6 -119t24 -70.5t52 -33.5t89 -9q32 0 67.5 4
t57.5 9v-33q-23 -5 -59.5 -8.5t-70.5 -3.5zM204 606v5l107 133h46v-5l-126 -133h-27z" />
    <glyph glyph-name="Ccircumflex" unicode="&#x108;" horiz-adv-x="578" 
d="M357 -8q-68 0 -115.5 6.5t-77 26t-46 58t-22.5 102.5t-6 159q0 94 6 157.5t22.5 102t46 58.5t77 27t115.5 7q26 0 53.5 -1.5t53.5 -4t45 -6.5v-32q-20 3 -44.5 5.5t-50 3.5t-47.5 1q-65 0 -109 -5.5t-70.5 -22.5t-39.5 -51.5t-17.5 -92.5t-4.5 -146t4.5 -146t17.5 -92.5
t39.5 -51.5t70.5 -22.5t109 -5.5q35 0 75.5 3t70.5 7v-34q-20 -3 -47 -5t-55.5 -3.5t-53.5 -1.5zM199 785v5l107 133h46l107 -133v-5h-27l-103 108l-103 -108h-27z" />
    <glyph glyph-name="ccircumflex" unicode="&#x109;" horiz-adv-x="458" 
d="M276 -8q-55 0 -91.5 9t-58.5 28.5t-33 50t-14.5 74t-3.5 100.5q0 64 5 109t18 75.5t35.5 47.5t56 24.5t81.5 7.5q33 0 69.5 -3t60.5 -8v-33q-26 5 -60.5 8.5t-62.5 3.5q-54 0 -87.5 -10t-51 -35t-23.5 -70t-6 -115q0 -73 6 -119t24 -70.5t52 -33.5t89 -9q32 0 67.5 4
t57.5 9v-33q-23 -5 -59.5 -8.5t-70.5 -3.5zM129 606v5l107 133h46l107 -133v-5h-27l-103 108l-103 -108h-27z" />
    <glyph glyph-name="Cdotaccent" unicode="&#x10a;" horiz-adv-x="578" 
d="M357 -8q-68 0 -115.5 6.5t-77 26t-46 58t-22.5 102.5t-6 159q0 94 6 157.5t22.5 102t46 58.5t77 27t115.5 7q26 0 53.5 -1.5t53.5 -4t45 -6.5v-32q-20 3 -44.5 5.5t-50 3.5t-47.5 1q-65 0 -109 -5.5t-70.5 -22.5t-39.5 -51.5t-17.5 -92.5t-4.5 -146t4.5 -146t17.5 -92.5
t39.5 -51.5t70.5 -22.5t109 -5.5q35 0 75.5 3t70.5 7v-34q-20 -3 -47 -5t-55.5 -3.5t-53.5 -1.5zM307 829v61h43v-61h-43z" />
    <glyph glyph-name="cdotaccent" unicode="&#x10b;" horiz-adv-x="458" 
d="M276 -8q-55 0 -91.5 9t-58.5 28.5t-33 50t-14.5 74t-3.5 100.5q0 64 5 109t18 75.5t35.5 47.5t56 24.5t81.5 7.5q33 0 69.5 -3t60.5 -8v-33q-26 5 -60.5 8.5t-62.5 3.5q-54 0 -87.5 -10t-51 -35t-23.5 -70t-6 -115q0 -73 6 -119t24 -70.5t52 -33.5t89 -9q32 0 67.5 4
t57.5 9v-33q-23 -5 -59.5 -8.5t-70.5 -3.5zM237 650v61h43v-61h-43z" />
    <glyph glyph-name="Ccaron" unicode="&#x10c;" horiz-adv-x="578" 
d="M357 -8q-68 0 -115.5 6.5t-77 26t-46 58t-22.5 102.5t-6 159q0 94 6 157.5t22.5 102t46 58.5t77 27t115.5 7q26 0 53.5 -1.5t53.5 -4t45 -6.5v-32q-20 3 -44.5 5.5t-50 3.5t-47.5 1q-65 0 -109 -5.5t-70.5 -22.5t-39.5 -51.5t-17.5 -92.5t-4.5 -146t4.5 -146t17.5 -92.5
t39.5 -51.5t70.5 -22.5t109 -5.5q35 0 75.5 3t70.5 7v-34q-20 -3 -47 -5t-55.5 -3.5t-53.5 -1.5zM306 784l-107 132v5h27l103 -107l103 107h27v-5l-107 -132h-46z" />
    <glyph glyph-name="ccaron" unicode="&#x10d;" horiz-adv-x="458" 
d="M276 -8q-55 0 -91.5 9t-58.5 28.5t-33 50t-14.5 74t-3.5 100.5q0 64 5 109t18 75.5t35.5 47.5t56 24.5t81.5 7.5q33 0 69.5 -3t60.5 -8v-33q-26 5 -60.5 8.5t-62.5 3.5q-54 0 -87.5 -10t-51 -35t-23.5 -70t-6 -115q0 -73 6 -119t24 -70.5t52 -33.5t89 -9q32 0 67.5 4
t57.5 9v-33q-23 -5 -59.5 -8.5t-70.5 -3.5zM236 606l-107 132v5h27l103 -107l103 107h27v-5l-107 -132h-46z" />
    <glyph glyph-name="Dcaron" unicode="&#x10e;" horiz-adv-x="693" 
d="M115 0v688h205q80 0 132 -6.5t82.5 -26.5t45.5 -58t19 -99.5t4 -153.5t-4 -153.5t-19 -99.5t-45.5 -58t-82.5 -26.5t-132 -6.5h-205zM151 34h149q76 0 125.5 3.5t78 18t42 47.5t17.5 91.5t4 149.5t-4 149.5t-18 91.5t-43 47.5t-78 18t-124 3.5h-149v-620zM324 784
l-107 132v5h27l103 -107l103 107h27v-5l-107 -132h-46z" />
    <glyph glyph-name="dcaron" unicode="&#x10f;" horiz-adv-x="596" 
d="M276 -8q-64 0 -103.5 11.5t-60.5 40t-29 80t-8 131.5t8 131.5t29 80t60.5 40t103.5 11.5q49 0 85 -8t60 -26t36 -48h4v307h35v-743h-28l-3 83h-4q-14 -40 -42.5 -59.5t-65.5 -25.5t-77 -6zM286 24q66 0 106 18t53 58q12 36 14 75t2 94q0 36 -2 70t-11 61q-16 47 -56 66.5
t-111 19.5q-55 0 -89 -8t-52 -31.5t-24 -69.5t-6 -122t6.5 -122t24.5 -69.5t53 -31.5t92 -8zM526 454l12 145v89h34v-89l-23 -145h-23z" />
    <glyph glyph-name="Dcroat" unicode="&#x110;" horiz-adv-x="693" 
d="M115 0v331h-70v36h70v321h205q80 0 132 -6.5t82.5 -26.5t45.5 -58t19 -99.5t4 -153.5t-4 -153.5t-19 -99.5t-45.5 -58t-82.5 -26.5t-132 -6.5h-205zM151 34h149q76 0 125.5 3.5t78 18t42 47.5t17.5 91.5t4 149.5t-4 149.5t-18 91.5t-43 47.5t-78 18t-124 3.5h-149v-287
h129v-36h-129v-297z" />
    <glyph glyph-name="dcroat" unicode="&#x111;" horiz-adv-x="596" 
d="M310 656v32h255v-32h-255zM276 -8q-64 0 -103.5 11.5t-60.5 40t-29 80t-8 131.5t8 131.5t29 80t60.5 40t103.5 11.5q49 0 85 -8t60 -26t36 -48h4v307h35v-743h-28l-3 83h-4q-14 -40 -42.5 -59.5t-65.5 -25.5t-77 -6zM286 24q66 0 106 18t53 58q12 36 14 75t2 94
q0 36 -2 70t-11 61q-16 47 -56 66.5t-111 19.5q-55 0 -89 -8t-52 -31.5t-24 -69.5t-6 -122t6.5 -122t24.5 -69.5t53 -31.5t92 -8z" />
    <glyph glyph-name="Emacron" unicode="&#x112;" horiz-adv-x="598" 
d="M115 0v688h426v-34h-390v-289h343v-34h-343v-297h390v-34h-426zM200 828v31h265v-31h-265z" />
    <glyph glyph-name="emacron" unicode="&#x113;" horiz-adv-x="562" 
d="M291 -8q-57 0 -95.5 7t-62.5 24.5t-36.5 47.5t-17 75t-4.5 108q0 75 5 125.5t25 81t65 44t124 13.5q55 0 90.5 -8t56 -25.5t30.5 -48t13 -75t3 -105.5v-13h-377q0 -66 6 -109t24 -67t55.5 -33.5t100.5 -9.5q27 0 58 2t60.5 5t52.5 7v-33q-19 -4 -48.5 -7t-62.5 -4.5
t-65 -1.5zM452 255v41q0 64 -7.5 102t-25.5 57t-49.5 25t-78.5 6q-61 0 -97.5 -7.5t-54.5 -29.5t-23.5 -63.5t-5.5 -110.5h362zM153 650v31h265v-31h-265z" />
    <glyph glyph-name="Ebreve" unicode="&#x114;" horiz-adv-x="598" 
d="M115 0v688h426v-34h-390v-289h343v-34h-343v-297h390v-34h-426zM332 775q-48 0 -74.5 10.5t-37.5 29.5t-13.5 44.5t-2.5 56.5h31q0 -37 4 -62.5t24.5 -38t68.5 -12.5t68.5 12.5t25 38t4.5 62.5h31q0 -31 -2.5 -56.5t-14 -44.5t-38 -29.5t-74.5 -10.5z" />
    <glyph glyph-name="ebreve" unicode="&#x115;" horiz-adv-x="562" 
d="M291 -8q-57 0 -95.5 7t-62.5 24.5t-36.5 47.5t-17 75t-4.5 108q0 75 5 125.5t25 81t65 44t124 13.5q55 0 90.5 -8t56 -25.5t30.5 -48t13 -75t3 -105.5v-13h-377q0 -66 6 -109t24 -67t55.5 -33.5t100.5 -9.5q27 0 58 2t60.5 5t52.5 7v-33q-19 -4 -48.5 -7t-62.5 -4.5
t-65 -1.5zM452 255v41q0 64 -7.5 102t-25.5 57t-49.5 25t-78.5 6q-61 0 -97.5 -7.5t-54.5 -29.5t-23.5 -63.5t-5.5 -110.5h362zM285 597q-48 0 -74.5 10.5t-37.5 29.5t-13.5 44.5t-2.5 56.5h31q0 -37 4 -62.5t24.5 -38t68.5 -12.5t68.5 12.5t25 38t4.5 62.5h31
q0 -31 -2.5 -56.5t-14 -44.5t-38 -29.5t-74.5 -10.5z" />
    <glyph glyph-name="Edotaccent" unicode="&#x116;" horiz-adv-x="598" 
d="M115 0v688h426v-34h-390v-289h343v-34h-343v-297h390v-34h-426zM311 829v61h43v-61h-43z" />
    <glyph glyph-name="edotaccent" unicode="&#x117;" horiz-adv-x="562" 
d="M291 -8q-57 0 -95.5 7t-62.5 24.5t-36.5 47.5t-17 75t-4.5 108q0 75 5 125.5t25 81t65 44t124 13.5q55 0 90.5 -8t56 -25.5t30.5 -48t13 -75t3 -105.5v-13h-377q0 -66 6 -109t24 -67t55.5 -33.5t100.5 -9.5q27 0 58 2t60.5 5t52.5 7v-33q-19 -4 -48.5 -7t-62.5 -4.5
t-65 -1.5zM452 255v41q0 64 -7.5 102t-25.5 57t-49.5 25t-78.5 6q-61 0 -97.5 -7.5t-54.5 -29.5t-23.5 -63.5t-5.5 -110.5h362zM264 650v61h43v-61h-43z" />
    <glyph glyph-name="Eogonek" unicode="&#x118;" horiz-adv-x="598" 
d="M115 0v688h426v-34h-390v-289h343v-34h-343v-297h390v-34h-426zM520 -200q-27 0 -44 9.5t-24.5 26t-7.5 36.5q0 33 21 71t54 67l22 -10q-13 -12 -28 -33t-25 -44.5t-10 -44.5q0 -19 10.5 -32.5t36.5 -13.5h6.5t10.5 1v-32q-7 -1 -11 -1h-11z" />
    <glyph glyph-name="eogonek" unicode="&#x119;" horiz-adv-x="562" 
d="M291 -8q-57 0 -95.5 7t-62.5 24.5t-36.5 47.5t-17 75t-4.5 108q0 75 5 125.5t25 81t65 44t124 13.5q55 0 90.5 -8t56 -25.5t30.5 -48t13 -75t3 -105.5v-13h-377q0 -66 6 -109t24 -67t55.5 -33.5t100.5 -9.5q27 0 58 2t60.5 5t52.5 7v-33q-19 -4 -48.5 -7t-62.5 -4.5
t-65 -1.5zM452 255v41q0 64 -7.5 102t-25.5 57t-49.5 25t-78.5 6q-61 0 -97.5 -7.5t-54.5 -29.5t-23.5 -63.5t-5.5 -110.5h362zM446 -195q-27 0 -44 9.5t-24.5 26t-7.5 36.5q0 33 21 71t54 67l22 -10q-13 -12 -28 -33t-25 -44.5t-10 -44.5q0 -19 10.5 -32.5t36.5 -13.5h6.5
t10.5 1v-32q-7 -1 -11 -1h-11z" />
    <glyph glyph-name="Ecaron" unicode="&#x11a;" horiz-adv-x="598" 
d="M115 0v688h426v-34h-390v-289h343v-34h-343v-297h390v-34h-426zM310 784l-107 132v5h27l103 -107l103 107h27v-5l-107 -132h-46z" />
    <glyph glyph-name="ecaron" unicode="&#x11b;" horiz-adv-x="562" 
d="M291 -8q-57 0 -95.5 7t-62.5 24.5t-36.5 47.5t-17 75t-4.5 108q0 75 5 125.5t25 81t65 44t124 13.5q55 0 90.5 -8t56 -25.5t30.5 -48t13 -75t3 -105.5v-13h-377q0 -66 6 -109t24 -67t55.5 -33.5t100.5 -9.5q27 0 58 2t60.5 5t52.5 7v-33q-19 -4 -48.5 -7t-62.5 -4.5
t-65 -1.5zM452 255v41q0 64 -7.5 102t-25.5 57t-49.5 25t-78.5 6q-61 0 -97.5 -7.5t-54.5 -29.5t-23.5 -63.5t-5.5 -110.5h362zM263 606l-107 132v5h27l103 -107l103 107h27v-5l-107 -132h-46z" />
    <glyph glyph-name="Gcircumflex" unicode="&#x11c;" horiz-adv-x="683" 
d="M372 -8q-71 0 -120.5 7t-81 27t-49 59t-24.5 102t-7 157t7 157t25 102t50 59t81 27t119 7q34 0 72.5 -2.5t74 -6.5t61.5 -9v-32q-29 5 -62 8.5t-63.5 5.5t-52.5 2q-67 0 -115 -3.5t-79.5 -18t-49 -48.5t-25 -93.5t-7.5 -154.5q0 -83 4.5 -140t18.5 -92t41 -54t71 -25.5
t110 -6.5q24 0 56.5 2t65 4.5t54.5 5.5v277h-194v34h230v-340q-32 -5 -69.5 -9t-74.5 -6t-67 -2zM232 785v5l107 133h46l107 -133v-5h-27l-103 108l-103 -108h-27z" />
    <glyph glyph-name="gcircumflex" unicode="&#x11d;" horiz-adv-x="596" 
d="M280 -206q-32 0 -66.5 1t-66 2.5t-54.5 3.5v33q29 -2 61.5 -4t63.5 -3t57 -1q62 0 99 11t56 37t25 71.5t6 114.5v14h-4q-12 -30 -36 -48t-60 -26t-85 -8q-64 0 -103.5 11.5t-60.5 40t-29 80t-8 131.5t8 131.5t29 80t60.5 40t103.5 11.5q40 0 77 -6t65.5 -25.5t42.5 -59.5
h4l3 83h28v-438q0 -79 -7.5 -132.5t-30 -85.5t-65 -46t-113.5 -14zM286 24q67 0 106.5 19t53.5 62q11 31 13 67.5t2 82.5q0 45 -1.5 80.5t-10.5 62.5q-16 49 -56.5 68.5t-106.5 19.5q-57 0 -92 -8t-53 -31.5t-24.5 -69.5t-6.5 -122t6.5 -122t24.5 -69.5t53 -31.5t92 -8z
M168 606v5l107 133h46l107 -133v-5h-27l-103 108l-103 -108h-27z" />
    <glyph glyph-name="Gbreve" unicode="&#x11e;" horiz-adv-x="683" 
d="M372 -8q-71 0 -120.5 7t-81 27t-49 59t-24.5 102t-7 157t7 157t25 102t50 59t81 27t119 7q34 0 72.5 -2.5t74 -6.5t61.5 -9v-32q-29 5 -62 8.5t-63.5 5.5t-52.5 2q-67 0 -115 -3.5t-79.5 -18t-49 -48.5t-25 -93.5t-7.5 -154.5q0 -83 4.5 -140t18.5 -92t41 -54t71 -25.5
t110 -6.5q24 0 56.5 2t65 4.5t54.5 5.5v277h-194v34h230v-340q-32 -5 -69.5 -9t-74.5 -6t-67 -2zM361 775q-48 0 -74.5 10.5t-37.5 29.5t-13.5 44.5t-2.5 56.5h31q0 -37 4 -62.5t24.5 -38t68.5 -12.5t68.5 12.5t25 38t4.5 62.5h31q0 -31 -2.5 -56.5t-14 -44.5t-38 -29.5
t-74.5 -10.5z" />
    <glyph glyph-name="gbreve" unicode="&#x11f;" horiz-adv-x="596" 
d="M280 -206q-32 0 -66.5 1t-66 2.5t-54.5 3.5v33q29 -2 61.5 -4t63.5 -3t57 -1q62 0 99 11t56 37t25 71.5t6 114.5v14h-4q-12 -30 -36 -48t-60 -26t-85 -8q-64 0 -103.5 11.5t-60.5 40t-29 80t-8 131.5t8 131.5t29 80t60.5 40t103.5 11.5q40 0 77 -6t65.5 -25.5t42.5 -59.5
h4l3 83h28v-438q0 -79 -7.5 -132.5t-30 -85.5t-65 -46t-113.5 -14zM286 24q67 0 106.5 19t53.5 62q11 31 13 67.5t2 82.5q0 45 -1.5 80.5t-10.5 62.5q-16 49 -56.5 68.5t-106.5 19.5q-57 0 -92 -8t-53 -31.5t-24.5 -69.5t-6.5 -122t6.5 -122t24.5 -69.5t53 -31.5t92 -8z
M297 597q-48 0 -74.5 10.5t-37.5 29.5t-13.5 44.5t-2.5 56.5h31q0 -37 4 -62.5t24.5 -38t68.5 -12.5t68.5 12.5t25 38t4.5 62.5h31q0 -31 -2.5 -56.5t-14 -44.5t-38 -29.5t-74.5 -10.5z" />
    <glyph glyph-name="Gdotaccent" unicode="&#x120;" horiz-adv-x="683" 
d="M372 -8q-71 0 -120.5 7t-81 27t-49 59t-24.5 102t-7 157t7 157t25 102t50 59t81 27t119 7q34 0 72.5 -2.5t74 -6.5t61.5 -9v-32q-29 5 -62 8.5t-63.5 5.5t-52.5 2q-67 0 -115 -3.5t-79.5 -18t-49 -48.5t-25 -93.5t-7.5 -154.5q0 -83 4.5 -140t18.5 -92t41 -54t71 -25.5
t110 -6.5q24 0 56.5 2t65 4.5t54.5 5.5v277h-194v34h230v-340q-32 -5 -69.5 -9t-74.5 -6t-67 -2zM340 829v61h43v-61h-43z" />
    <glyph glyph-name="gdotaccent" unicode="&#x121;" horiz-adv-x="596" 
d="M280 -206q-32 0 -66.5 1t-66 2.5t-54.5 3.5v33q29 -2 61.5 -4t63.5 -3t57 -1q62 0 99 11t56 37t25 71.5t6 114.5v14h-4q-12 -30 -36 -48t-60 -26t-85 -8q-64 0 -103.5 11.5t-60.5 40t-29 80t-8 131.5t8 131.5t29 80t60.5 40t103.5 11.5q40 0 77 -6t65.5 -25.5t42.5 -59.5
h4l3 83h28v-438q0 -79 -7.5 -132.5t-30 -85.5t-65 -46t-113.5 -14zM286 24q67 0 106.5 19t53.5 62q11 31 13 67.5t2 82.5q0 45 -1.5 80.5t-10.5 62.5q-16 49 -56.5 68.5t-106.5 19.5q-57 0 -92 -8t-53 -31.5t-24.5 -69.5t-6.5 -122t6.5 -122t24.5 -69.5t53 -31.5t92 -8z
M276 650v61h43v-61h-43z" />
    <glyph glyph-name="uni0122" unicode="&#x122;" horiz-adv-x="683" 
d="M372 -8q-71 0 -120.5 7t-81 27t-49 59t-24.5 102t-7 157t7 157t25 102t50 59t81 27t119 7q34 0 72.5 -2.5t74 -6.5t61.5 -9v-32q-29 5 -62 8.5t-63.5 5.5t-52.5 2q-67 0 -115 -3.5t-79.5 -18t-49 -48.5t-25 -93.5t-7.5 -154.5q0 -83 4.5 -140t18.5 -92t41 -54t71 -25.5
t110 -6.5q24 0 56.5 2t65 4.5t54.5 5.5v277h-194v34h230v-340q-32 -5 -69.5 -9t-74.5 -6t-67 -2zM309 -256v21q23 0 33.5 5.5t13.5 19.5t3 38v17h-20v65h48v-75q0 -27 -3.5 -44.5t-12 -28t-23.5 -14.5t-39 -4z" />
    <glyph glyph-name="uni0123" unicode="&#x123;" horiz-adv-x="596" 
d="M280 -206q-32 0 -66.5 1t-66 2.5t-54.5 3.5v33q29 -2 61.5 -4t63.5 -3t57 -1q62 0 99 11t56 37t25 71.5t6 114.5v14h-4q-12 -30 -36 -48t-60 -26t-85 -8q-64 0 -103.5 11.5t-60.5 40t-29 80t-8 131.5t8 131.5t29 80t60.5 40t103.5 11.5q40 0 77 -6t65.5 -25.5t42.5 -59.5
h4l3 83h28v-438q0 -79 -7.5 -132.5t-30 -85.5t-65 -46t-113.5 -14zM286 24q67 0 106.5 19t53.5 62q11 31 13 67.5t2 82.5q0 45 -1.5 80.5t-10.5 62.5q-16 49 -56.5 68.5t-106.5 19.5q-57 0 -92 -8t-53 -31.5t-24.5 -69.5t-6.5 -122t6.5 -122t24.5 -69.5t53 -31.5t92 -8z
M274 585v75q0 27 3.5 44.5t12 28t23.5 14.5t39 4v-21q-34 0 -42 -13t-8 -50v-17h20v-65h-48z" />
    <glyph glyph-name="Hcircumflex" unicode="&#x124;" horiz-adv-x="738" 
d="M115 0v688h36v-323h436v323h36v-688h-36v331h-436v-331h-36zM239 785v5l107 133h46l107 -133v-5h-27l-103 108l-103 -108h-27z" />
    <glyph glyph-name="hcircumflex" unicode="&#x125;" horiz-adv-x="604" 
d="M100 0v743h35v-308h4q7 19 24 38t53.5 32t100.5 13q61 0 98 -11t56.5 -34t26 -61t6.5 -92v-320h-35v315q0 56 -6 89.5t-23 51.5t-48.5 24t-81.5 6q-66 0 -102 -17t-51.5 -47.5t-18.5 -71t-3 -86.5v-264h-35zM-12 785v5l107 133h46l107 -133v-5h-27l-103 108l-103 -108
h-27z" />
    <glyph glyph-name="Hbar" unicode="&#x126;" horiz-adv-x="738" 
d="M115 0v688h36v-158h436v158h36v-688h-36v311h-436v-311h-36zM151 345h436v151h-436v-151z" />
    <glyph glyph-name="hbar" unicode="&#x127;" horiz-adv-x="604" 
d="M31 656v32h255v-32h-255zM100 0v743h35v-308h4q7 19 24 38t53.5 32t100.5 13q61 0 98 -11t56.5 -34t26 -61t6.5 -92v-320h-35v315q0 56 -6 89.5t-23 51.5t-48.5 24t-81.5 6q-66 0 -102 -17t-51.5 -47.5t-18.5 -71t-3 -86.5v-264h-35z" />
    <glyph glyph-name="Itilde" unicode="&#x128;" horiz-adv-x="266" 
d="M115 0v688h36v-688h-36zM-29 799q0 35 4.5 56t18 30t39.5 9q28 0 55 -8.5t55 -19.5q22 -8 43.5 -15.5t45.5 -7.5q23 0 29 14t6 48h27q0 -35 -4.5 -56t-18 -30t-39.5 -9q-30 0 -55.5 9t-54.5 19q-22 8 -43.5 15.5t-45.5 7.5q-22 0 -28.5 -14t-6.5 -48h-27z" />
    <glyph glyph-name="itilde" unicode="&#x129;" horiz-adv-x="235" 
d="M100 0v510h35v-510h-35zM-44 621q0 35 4.5 56t18 30t39.5 9q28 0 55 -8.5t55 -19.5q22 -8 43.5 -15.5t45.5 -7.5q23 0 29 14t6 48h27q0 -35 -4.5 -56t-18 -30t-39.5 -9q-30 0 -55.5 9t-54.5 19q-22 8 -43.5 15.5t-45.5 7.5q-22 0 -28.5 -14t-6.5 -48h-27z" />
    <glyph glyph-name="Imacron" unicode="&#x12a;" horiz-adv-x="266" 
d="M115 0v688h36v-688h-36zM0 828v31h265v-31h-265z" />
    <glyph glyph-name="imacron" unicode="&#x12b;" horiz-adv-x="235" 
d="M100 0v510h35v-510h-35zM-15 650v31h265v-31h-265z" />
    <glyph glyph-name="Ibreve" unicode="&#x12c;" horiz-adv-x="266" 
d="M115 0v688h36v-688h-36zM132 775q-48 0 -74.5 10.5t-37.5 29.5t-13.5 44.5t-2.5 56.5h31q0 -37 4 -62.5t24.5 -38t68.5 -12.5t68.5 12.5t25 38t4.5 62.5h31q0 -31 -2.5 -56.5t-14 -44.5t-38 -29.5t-74.5 -10.5z" />
    <glyph glyph-name="ibreve" unicode="&#x12d;" horiz-adv-x="235" 
d="M100 0v510h35v-510h-35zM117 597q-48 0 -74.5 10.5t-37.5 29.5t-13.5 44.5t-2.5 56.5h31q0 -37 4 -62.5t24.5 -38t68.5 -12.5t68.5 12.5t25 38t4.5 62.5h31q0 -31 -2.5 -56.5t-14 -44.5t-38 -29.5t-74.5 -10.5z" />
    <glyph glyph-name="Iogonek" unicode="&#x12e;" horiz-adv-x="266" 
d="M115 0v688h36v-688h-36zM130 -200q-27 0 -44 9.5t-24.5 26t-7.5 36.5q0 33 21 71t54 67l22 -10q-13 -12 -28 -33t-25 -44.5t-10 -44.5q0 -19 10.5 -32.5t36.5 -13.5h6.5t10.5 1v-32q-7 -1 -11 -1h-11z" />
    <glyph glyph-name="iogonek" unicode="&#x12f;" horiz-adv-x="235" 
d="M96 682v61h43v-61h-43zM100 0v510h35v-510h-35zM114 -200q-27 0 -44 9.5t-24.5 26t-7.5 36.5q0 33 21 71t54 67l22 -10q-13 -12 -28 -33t-25 -44.5t-10 -44.5q0 -19 10.5 -32.5t36.5 -13.5h6.5t10.5 1v-32q-7 -1 -11 -1h-11z" />
    <glyph glyph-name="Idotaccent" unicode="&#x130;" horiz-adv-x="266" 
d="M115 0v688h36v-688h-36zM111 829v61h43v-61h-43z" />
    <glyph glyph-name="dotlessi" unicode="&#x131;" horiz-adv-x="235" 
d="M100 0v510h35v-510h-35z" />
    <glyph glyph-name="IJ" unicode="&#x132;" horiz-adv-x="590" 
d="M115 0v688h36v-688h-36zM306 0v34q53 2 82 7t42 24t16 62t3 119v442h36v-424q0 -75 -2.5 -124t-11 -77t-28 -41t-52.5 -17t-85 -5z" />
    <glyph glyph-name="ij" unicode="&#x133;" horiz-adv-x="470" 
d="M96 682v61h43v-61h-43zM100 0v510h35v-510h-35zM331 682v61h43v-61h-43zM233 -200v30q47 0 68.5 5t27.5 17.5t6 34.5v623h35v-613q0 -34 -8.5 -54t-25.5 -29t-42.5 -11.5t-60.5 -2.5z" />
    <glyph glyph-name="Jcircumflex" unicode="&#x134;" horiz-adv-x="324" 
d="M40 0v34q53 2 82 7t42 24t16 62t3 119v442h36v-424q0 -75 -2.5 -124t-11 -77t-28 -41t-52.5 -17t-85 -5zM71 785v5l107 133h46l107 -133v-5h-27l-103 108l-103 -108h-27z" />
    <glyph glyph-name="jcircumflex" unicode="&#x135;" horiz-adv-x="235" 
d="M-2 -200v30q47 0 68.5 5t27.5 17.5t6 34.5v623h35v-613q0 -34 -8.5 -54t-25.5 -29t-42.5 -11.5t-60.5 -2.5zM-12 606v5l107 133h46l107 -133v-5h-27l-103 108l-103 -108h-27z" />
    <glyph glyph-name="uni0136" unicode="&#x136;" horiz-adv-x="665" 
d="M115 0v688h36v-322h173l256 322h42l-268 -339l271 -349h-43l-258 332h-173v-332h-36zM280 -256v21q23 0 33.5 5.5t13.5 19.5t3 38v17h-20v65h48v-75q0 -27 -3.5 -44.5t-12 -28t-23.5 -14.5t-39 -4z" />
    <glyph glyph-name="uni0137" unicode="&#x137;" horiz-adv-x="520" 
d="M100 0v743h35v-466h85l213 233h44l-228 -248l231 -262h-46l-214 243h-85v-243h-35zM212 -256v21q23 0 33.5 5.5t13.5 19.5t3 38v17h-20v65h48v-75q0 -27 -3.5 -44.5t-12 -28t-23.5 -14.5t-39 -4z" />
    <glyph glyph-name="kgreenlandic" unicode="&#x138;" horiz-adv-x="520" 
d="M100 0v510h35v-233h85l213 233h44l-228 -248l231 -262h-46l-214 243h-85v-243h-35z" />
    <glyph glyph-name="Lacute" unicode="&#x139;" horiz-adv-x="536" 
d="M115 0v688h36v-654h350v-34h-386zM98 784v5l107 133h46v-5l-126 -133h-27z" />
    <glyph glyph-name="lacute" unicode="&#x13a;" horiz-adv-x="235" 
d="M100 0v743h35v-743h-35zM83 846v5l107 133h46v-5l-126 -133h-27z" />
    <glyph glyph-name="uni013B" unicode="&#x13b;" horiz-adv-x="536" 
d="M115 0v688h36v-654h350v-34h-386zM263 -256v21q23 0 33.5 5.5t13.5 19.5t3 38v17h-20v65h48v-75q0 -27 -3.5 -44.5t-12 -28t-23.5 -14.5t-39 -4z" />
    <glyph glyph-name="uni013C" unicode="&#x13c;" horiz-adv-x="235" 
d="M100 0v743h35v-743h-35zM65 -256v21q23 0 33.5 5.5t13.5 19.5t3 38v17h-20v65h48v-75q0 -27 -3.5 -44.5t-12 -28t-23.5 -14.5t-39 -4z" />
    <glyph glyph-name="Lcaron" unicode="&#x13d;" horiz-adv-x="536" 
d="M115 0v688h36v-654h350v-34h-386zM320 454l12 145v89h34v-89l-23 -145h-23z" />
    <glyph glyph-name="lcaron" unicode="&#x13e;" horiz-adv-x="235" 
d="M100 0v743h35v-743h-35zM205 454l12 145v89h34v-89l-23 -145h-23z" />
    <glyph glyph-name="Ldot" unicode="&#x13f;" horiz-adv-x="536" 
d="M115 0v688h36v-654h350v-34h-386zM374 327v65h45v-65h-45z" />
    <glyph glyph-name="ldot" unicode="&#x140;" horiz-adv-x="235" 
d="M100 0v743h35v-743h-35zM213 267v65h45v-65h-45z" />
    <glyph glyph-name="Lslash" unicode="&#x141;" horiz-adv-x="536" 
d="M46 285v34l318 116v-34zM115 0v688h36v-654h350v-34h-386z" />
    <glyph glyph-name="lslash" unicode="&#x142;" horiz-adv-x="235" 
d="M100 0v342l-66 -23v35l66 23v366h35v-353l69 25v-35l-69 -25v-355h-35z" />
    <glyph glyph-name="Nacute" unicode="&#x143;" horiz-adv-x="738" 
d="M115 0v688h35l434 -622h4v622h35v-688h-35l-434 622h-4v-622h-35zM344 784v5l107 133h46v-5l-126 -133h-27z" />
    <glyph glyph-name="nacute" unicode="&#x144;" horiz-adv-x="604" 
d="M100 0v510h28l3 -83h4q8 24 26 44.5t55 33.5t101 13q61 0 98 -11t56.5 -34t26 -61t6.5 -92v-320h-35v315q0 56 -6 89.5t-23 51.5t-48.5 24t-81.5 6q-66 0 -102 -17t-51.5 -47.5t-18.5 -71t-3 -86.5v-264h-35zM247 606v5l107 133h46v-5l-126 -133h-27z" />
    <glyph glyph-name="uni0145" unicode="&#x145;" horiz-adv-x="738" 
d="M115 0v688h35l434 -622h4v622h35v-688h-35l-434 622h-4v-622h-35zM326 -256v21q23 0 33.5 5.5t13.5 19.5t3 38v17h-20v65h48v-75q0 -27 -3.5 -44.5t-12 -28t-23.5 -14.5t-39 -4z" />
    <glyph glyph-name="uni0146" unicode="&#x146;" horiz-adv-x="604" 
d="M100 0v510h28l3 -83h4q8 24 26 44.5t55 33.5t101 13q61 0 98 -11t56.5 -34t26 -61t6.5 -92v-320h-35v315q0 56 -6 89.5t-23 51.5t-48.5 24t-81.5 6q-66 0 -102 -17t-51.5 -47.5t-18.5 -71t-3 -86.5v-264h-35zM249 -256v21q23 0 33.5 5.5t13.5 19.5t3 38v17h-20v65h48v-75
q0 -27 -3.5 -44.5t-12 -28t-23.5 -14.5t-39 -4z" />
    <glyph glyph-name="Ncaron" unicode="&#x147;" horiz-adv-x="738" 
d="M115 0v688h35l434 -622h4v622h35v-688h-35l-434 622h-4v-622h-35zM356 784l-107 132v5h27l103 -107l103 107h27v-5l-107 -132h-46z" />
    <glyph glyph-name="ncaron" unicode="&#x148;" horiz-adv-x="604" 
d="M100 0v510h28l3 -83h4q8 24 26 44.5t55 33.5t101 13q61 0 98 -11t56.5 -34t26 -61t6.5 -92v-320h-35v315q0 56 -6 89.5t-23 51.5t-48.5 24t-81.5 6q-66 0 -102 -17t-51.5 -47.5t-18.5 -71t-3 -86.5v-264h-35zM279 606l-107 132v5h27l103 -107l103 107h27v-5l-107 -132
h-46z" />
    <glyph glyph-name="napostrophe" unicode="&#x149;" horiz-adv-x="604" 
d="M100 0v510h28l3 -83h4q8 24 26 44.5t55 33.5t101 13q61 0 98 -11t56.5 -34t26 -61t6.5 -92v-320h-35v315q0 56 -6 89.5t-23 51.5t-48.5 24t-81.5 6q-66 0 -102 -17t-51.5 -47.5t-18.5 -71t-3 -86.5v-264h-35zM0 547v21q23 0 33.5 5.5t13.5 19.5t3 38v17h-20v65h48v-75
q0 -27 -3.5 -44.5t-12 -28t-23.5 -14.5t-39 -4z" />
    <glyph glyph-name="Eng" unicode="&#x14a;" horiz-adv-x="738" 
d="M486 -200v30q47 0 68.5 5t27.5 17.5t6 34.5v113l-434 622h-4v-622h-35v688h35l434 -622h4v622h35v-791q0 -28 -5.5 -45.5t-16 -28t-27 -15.5t-38.5 -6.5t-50 -1.5z" />
    <glyph glyph-name="eng" unicode="&#x14b;" horiz-adv-x="604" 
d="M367 -200v30q47 0 68.5 5t27.5 17.5t6 34.5v428q0 56 -6 89.5t-23 51.5t-48.5 24t-81.5 6q-66 0 -102 -17t-51.5 -47.5t-18.5 -71t-3 -86.5v-264h-35v510h28l3 -83h4q8 24 26 44.5t55 33.5t101 13q61 0 98 -11t56.5 -34t26 -61t6.5 -92v-423q0 -34 -8.5 -54t-25.5 -29
t-42.5 -11.5t-60.5 -2.5z" />
    <glyph glyph-name="Omacron" unicode="&#x14c;" horiz-adv-x="726" 
d="M363 -8q-77 0 -127.5 7t-80 27t-43.5 59t-18 102t-4 157t4 157t18 102t43.5 59t80 27t127.5 7t127.5 -7t80 -27t43.5 -59t18 -102t4 -157t-4 -157t-18 -102t-43.5 -59t-80 -27t-127.5 -7zM363 26q65 0 108 3.5t69 18.5t39 49t17 93.5t4 153.5t-4 153.5t-17 93.5t-39 49
t-69 18.5t-108 3.5t-108 -3.5t-69 -18.5t-39 -49t-17 -93.5t-4 -153.5t4 -153.5t17 -93.5t39 -49t69 -18.5t108 -3.5zM230 828v31h265v-31h-265z" />
    <glyph glyph-name="omacron" unicode="&#x14d;" horiz-adv-x="580" 
d="M290 -8q-61 0 -100.5 6.5t-63 23t-34.5 46.5t-14 75.5t-3 110.5t3 111t14 76t34.5 46.5t63 23.5t100.5 7t100.5 -7t63 -23.5t34.5 -46.5t14 -76t3 -111t-3 -110.5t-14 -75.5t-34.5 -46.5t-63 -23t-100.5 -6.5zM290 24q68 0 105 9t52.5 33t19 69.5t3.5 118.5t-3.5 119
t-19 70.5t-52.5 33.5t-105 9q-67 0 -104.5 -9t-53 -33.5t-19 -70.5t-3.5 -119t3.5 -118.5t19 -69.5t53 -33t104.5 -9zM157 650v31h265v-31h-265z" />
    <glyph glyph-name="Obreve" unicode="&#x14e;" horiz-adv-x="726" 
d="M363 -8q-77 0 -127.5 7t-80 27t-43.5 59t-18 102t-4 157t4 157t18 102t43.5 59t80 27t127.5 7t127.5 -7t80 -27t43.5 -59t18 -102t4 -157t-4 -157t-18 -102t-43.5 -59t-80 -27t-127.5 -7zM363 26q65 0 108 3.5t69 18.5t39 49t17 93.5t4 153.5t-4 153.5t-17 93.5t-39 49
t-69 18.5t-108 3.5t-108 -3.5t-69 -18.5t-39 -49t-17 -93.5t-4 -153.5t4 -153.5t17 -93.5t39 -49t69 -18.5t108 -3.5zM362 775q-48 0 -74.5 10.5t-37.5 29.5t-13.5 44.5t-2.5 56.5h31q0 -37 4 -62.5t24.5 -38t68.5 -12.5t68.5 12.5t25 38t4.5 62.5h31q0 -31 -2.5 -56.5
t-14 -44.5t-38 -29.5t-74.5 -10.5z" />
    <glyph glyph-name="obreve" unicode="&#x14f;" horiz-adv-x="580" 
d="M290 -8q-61 0 -100.5 6.5t-63 23t-34.5 46.5t-14 75.5t-3 110.5t3 111t14 76t34.5 46.5t63 23.5t100.5 7t100.5 -7t63 -23.5t34.5 -46.5t14 -76t3 -111t-3 -110.5t-14 -75.5t-34.5 -46.5t-63 -23t-100.5 -6.5zM290 24q68 0 105 9t52.5 33t19 69.5t3.5 118.5t-3.5 119
t-19 70.5t-52.5 33.5t-105 9q-67 0 -104.5 -9t-53 -33.5t-19 -70.5t-3.5 -119t3.5 -118.5t19 -69.5t53 -33t104.5 -9zM289 597q-48 0 -74.5 10.5t-37.5 29.5t-13.5 44.5t-2.5 56.5h31q0 -37 4 -62.5t24.5 -38t68.5 -12.5t68.5 12.5t25 38t4.5 62.5h31q0 -31 -2.5 -56.5
t-14 -44.5t-38 -29.5t-74.5 -10.5z" />
    <glyph glyph-name="Ohungarumlaut" unicode="&#x150;" horiz-adv-x="726" 
d="M363 -8q-77 0 -127.5 7t-80 27t-43.5 59t-18 102t-4 157t4 157t18 102t43.5 59t80 27t127.5 7t127.5 -7t80 -27t43.5 -59t18 -102t4 -157t-4 -157t-18 -102t-43.5 -59t-80 -27t-127.5 -7zM363 26q65 0 108 3.5t69 18.5t39 49t17 93.5t4 153.5t-4 153.5t-17 93.5t-39 49
t-69 18.5t-108 3.5t-108 -3.5t-69 -18.5t-39 -49t-17 -93.5t-4 -153.5t4 -153.5t17 -93.5t39 -49t69 -18.5t108 -3.5zM241 784v5l91 113h46v-5l-110 -113h-27zM410 784v5l91 113h46v-5l-110 -113h-27z" />
    <glyph glyph-name="ohungarumlaut" unicode="&#x151;" horiz-adv-x="580" 
d="M290 -8q-61 0 -100.5 6.5t-63 23t-34.5 46.5t-14 75.5t-3 110.5t3 111t14 76t34.5 46.5t63 23.5t100.5 7t100.5 -7t63 -23.5t34.5 -46.5t14 -76t3 -111t-3 -110.5t-14 -75.5t-34.5 -46.5t-63 -23t-100.5 -6.5zM290 24q68 0 105 9t52.5 33t19 69.5t3.5 118.5t-3.5 119
t-19 70.5t-52.5 33.5t-105 9q-67 0 -104.5 -9t-53 -33.5t-19 -70.5t-3.5 -119t3.5 -118.5t19 -69.5t53 -33t104.5 -9zM185 606v5l91 113h46v-5l-110 -113h-27zM354 606v5l91 113h46v-5l-110 -113h-27z" />
    <glyph glyph-name="OE" unicode="&#x152;" horiz-adv-x="1073" 
d="M363 0q-77 0 -127.5 6.5t-80 26.5t-43.5 58t-18 99.5t-4 153.5t4 153.5t18 99.5t43.5 58t80 26.5t127.5 6.5h653v-34h-380q-23 0 -43 1.5t-30 2.5q32 -20 47.5 -56.5t20.5 -94t5 -142.5h333v-34h-333q0 -87 -5 -147t-20 -97t-48 -57q10 2 30 3t43 1h380v-34h-653zM363 34
q65 0 108 3.5t69 18t39 47.5t17 91.5t4 149.5t-4 149.5t-17 91.5t-39 47.5t-69 18t-108 3.5t-108 -3.5t-69 -18t-39 -47.5t-17 -91.5t-4 -149.5t4 -149.5t17 -91.5t39 -47.5t69 -18t108 -3.5z" />
    <glyph glyph-name="oe" unicode="&#x153;" horiz-adv-x="957" 
d="M290 -8q-76 0 -119.5 11t-64 39t-26 79.5t-5.5 132.5t5.5 133t26 80.5t64 39.5t119.5 11q92 0 137 -17.5t61 -66.5q18 45 63.5 64.5t137.5 19.5q68 0 107 -12.5t57.5 -42t23.5 -80t5 -127.5v-13h-377q0 -66 6 -109t24 -67t55.5 -33.5t100.5 -9.5q27 0 58 2t60.5 5t52.5 7
v-33q-19 -4 -48.5 -7t-62.5 -4.5t-65 -1.5q-86 0 -131.5 18.5t-65.5 68.5q-11 -34 -34 -53t-62.5 -26.5t-102.5 -7.5zM290 24q68 0 105 9t52.5 33t19 69.5t3.5 118.5t-3.5 119t-19 70.5t-52.5 33.5t-105 9q-67 0 -104.5 -9t-53 -33.5t-19 -70.5t-3.5 -119t3.5 -118.5
t19 -69.5t53 -33t104.5 -9zM847 258v38q0 64 -7.5 102t-25.5 57t-49.5 25t-78.5 6q-61 0 -97.5 -7.5t-54.5 -29.5t-23.5 -63.5t-5.5 -110.5h359z" />
    <glyph glyph-name="Racute" unicode="&#x154;" horiz-adv-x="685" 
d="M115 0v688h306q64 0 100 -16.5t52.5 -45t20.5 -63.5t4 -72q0 -41 -6.5 -79.5t-30.5 -67.5t-77 -42l121 -302h-40l-121 304l15 -6q-7 -2 -18.5 -3t-34.5 -1h-255v-294h-36zM151 328h253q55 0 87 12t47 34t19.5 51.5t4.5 65.5t-3.5 65.5t-17 51.5t-42.5 34t-80 12h-268
v-326zM308 784v5l107 133h46v-5l-126 -133h-27z" />
    <glyph glyph-name="racute" unicode="&#x155;" horiz-adv-x="341" 
d="M100 0v510h27l4 -109h4q12 48 37.5 73.5t61 34.5t77.5 9v-36q-73 0 -111 -26t-51.5 -76t-13.5 -121v-259h-35zM116 606v5l107 133h46v-5l-126 -133h-27z" />
    <glyph glyph-name="uni0156" unicode="&#x156;" horiz-adv-x="685" 
d="M115 0v688h306q64 0 100 -16.5t52.5 -45t20.5 -63.5t4 -72q0 -41 -6.5 -79.5t-30.5 -67.5t-77 -42l121 -302h-40l-121 304l15 -6q-7 -2 -18.5 -3t-34.5 -1h-255v-294h-36zM151 328h253q55 0 87 12t47 34t19.5 51.5t4.5 65.5t-3.5 65.5t-17 51.5t-42.5 34t-80 12h-268
v-326zM290 -256v21q23 0 33.5 5.5t13.5 19.5t3 38v17h-20v65h48v-75q0 -27 -3.5 -44.5t-12 -28t-23.5 -14.5t-39 -4z" />
    <glyph glyph-name="uni0157" unicode="&#x157;" horiz-adv-x="341" 
d="M100 0v510h27l4 -109h4q12 48 37.5 73.5t61 34.5t77.5 9v-36q-73 0 -111 -26t-51.5 -76t-13.5 -121v-259h-35zM65 -256v21q23 0 33.5 5.5t13.5 19.5t3 38v17h-20v65h48v-75q0 -27 -3.5 -44.5t-12 -28t-23.5 -14.5t-39 -4z" />
    <glyph glyph-name="Rcaron" unicode="&#x158;" horiz-adv-x="685" 
d="M115 0v688h306q64 0 100 -16.5t52.5 -45t20.5 -63.5t4 -72q0 -41 -6.5 -79.5t-30.5 -67.5t-77 -42l121 -302h-40l-121 304l15 -6q-7 -2 -18.5 -3t-34.5 -1h-255v-294h-36zM151 328h253q55 0 87 12t47 34t19.5 51.5t4.5 65.5t-3.5 65.5t-17 51.5t-42.5 34t-80 12h-268
v-326zM320 784l-107 132v5h27l103 -107l103 107h27v-5l-107 -132h-46z" />
    <glyph glyph-name="rcaron" unicode="&#x159;" horiz-adv-x="341" 
d="M100 0v510h27l4 -109h4q12 48 37.5 73.5t61 34.5t77.5 9v-36q-73 0 -111 -26t-51.5 -76t-13.5 -121v-259h-35zM148 606l-107 132v5h27l103 -107l103 107h27v-5l-107 -132h-46z" />
    <glyph glyph-name="Sacute" unicode="&#x15a;" horiz-adv-x="636" 
d="M333 -8q-36 0 -78.5 1.5t-82.5 4.5t-72 6v35q34 -3 74.5 -6t80 -5t68.5 -2q52 0 87 4t65 20q20 11 29.5 31t12.5 46.5t3 55.5q0 46 -2.5 73t-14 41.5t-38 21t-73.5 11.5l-183 19q-48 5 -74.5 18.5t-38 34.5t-14 49.5t-2.5 63.5q0 57 14 93t43 55t74 26t107 7
q38 0 76.5 -1.5t72 -4.5t54.5 -7v-33q-28 4 -63 6.5t-70.5 4t-66.5 1.5q-62 0 -101.5 -6.5t-63.5 -23.5q-26 -17 -33 -47.5t-7 -71.5q0 -48 6.5 -74.5t28 -38t64.5 -16.5l174 -18q44 -4 76.5 -10t53 -20.5t29.5 -45.5q4 -12 5.5 -27.5t2 -34t0.5 -40.5q0 -56 -10 -92.5
t-29.5 -57.5t-47 -31t-61.5 -12.5t-75 -2.5zM283 784v5l107 133h46v-5l-126 -133h-27z" />
    <glyph glyph-name="sacute" unicode="&#x15b;" horiz-adv-x="500" 
d="M254 -8q-26 0 -57.5 1.5t-61.5 4t-54 5.5v33q35 -4 59 -6t43.5 -3.5t39 -2t45.5 -0.5q58 0 86 11t37 35t9 63q0 46 -7 66.5t-23.5 26.5t-46.5 9l-148 14q-44 5 -68 17t-33 38t-9 69q0 50 12.5 79.5t37.5 43.5t61 18t82 4q23 0 49.5 -1.5t52.5 -4t47 -6.5v-33
q-29 5 -54.5 8t-52 4t-59.5 1q-41 0 -73 -5.5t-50 -27.5t-18 -73q0 -40 7 -59.5t24.5 -26.5t47.5 -10l143 -14q46 -4 70 -15t33.5 -38.5t9.5 -83.5q0 -44 -10 -71.5t-32 -42.5t-56.5 -21t-82.5 -6zM195 606v5l107 133h46v-5l-126 -133h-27z" />
    <glyph glyph-name="Scircumflex" unicode="&#x15c;" horiz-adv-x="636" 
d="M333 -8q-36 0 -78.5 1.5t-82.5 4.5t-72 6v35q34 -3 74.5 -6t80 -5t68.5 -2q52 0 87 4t65 20q20 11 29.5 31t12.5 46.5t3 55.5q0 46 -2.5 73t-14 41.5t-38 21t-73.5 11.5l-183 19q-48 5 -74.5 18.5t-38 34.5t-14 49.5t-2.5 63.5q0 57 14 93t43 55t74 26t107 7
q38 0 76.5 -1.5t72 -4.5t54.5 -7v-33q-28 4 -63 6.5t-70.5 4t-66.5 1.5q-62 0 -101.5 -6.5t-63.5 -23.5q-26 -17 -33 -47.5t-7 -71.5q0 -48 6.5 -74.5t28 -38t64.5 -16.5l174 -18q44 -4 76.5 -10t53 -20.5t29.5 -45.5q4 -12 5.5 -27.5t2 -34t0.5 -40.5q0 -56 -10 -92.5
t-29.5 -57.5t-47 -31t-61.5 -12.5t-75 -2.5zM188 785v5l107 133h46l107 -133v-5h-27l-103 108l-103 -108h-27z" />
    <glyph glyph-name="scircumflex" unicode="&#x15d;" horiz-adv-x="500" 
d="M254 -8q-26 0 -57.5 1.5t-61.5 4t-54 5.5v33q35 -4 59 -6t43.5 -3.5t39 -2t45.5 -0.5q58 0 86 11t37 35t9 63q0 46 -7 66.5t-23.5 26.5t-46.5 9l-148 14q-44 5 -68 17t-33 38t-9 69q0 50 12.5 79.5t37.5 43.5t61 18t82 4q23 0 49.5 -1.5t52.5 -4t47 -6.5v-33
q-29 5 -54.5 8t-52 4t-59.5 1q-41 0 -73 -5.5t-50 -27.5t-18 -73q0 -40 7 -59.5t24.5 -26.5t47.5 -10l143 -14q46 -4 70 -15t33.5 -38.5t9.5 -83.5q0 -44 -10 -71.5t-32 -42.5t-56.5 -21t-82.5 -6zM120 606v5l107 133h46l107 -133v-5h-27l-103 108l-103 -108h-27z" />
    <glyph glyph-name="Scedilla" unicode="&#x15e;" horiz-adv-x="636" 
d="M333 -8q-36 0 -78.5 1.5t-82.5 4.5t-72 6v35q34 -3 74.5 -6t80 -5t68.5 -2q52 0 87 4t65 20q20 11 29.5 31t12.5 46.5t3 55.5q0 46 -2.5 73t-14 41.5t-38 21t-73.5 11.5l-183 19q-48 5 -74.5 18.5t-38 34.5t-14 49.5t-2.5 63.5q0 57 14 93t43 55t74 26t107 7
q38 0 76.5 -1.5t72 -4.5t54.5 -7v-33q-28 4 -63 6.5t-70.5 4t-66.5 1.5q-62 0 -101.5 -6.5t-63.5 -23.5q-26 -17 -33 -47.5t-7 -71.5q0 -48 6.5 -74.5t28 -38t64.5 -16.5l174 -18q44 -4 76.5 -10t53 -20.5t29.5 -45.5q4 -12 5.5 -27.5t2 -34t0.5 -40.5q0 -56 -10 -92.5
t-29.5 -57.5t-47 -31t-61.5 -12.5t-75 -2.5zM249 -190v5l60 203h26v-5l-46 -203h-40z" />
    <glyph glyph-name="scedilla" unicode="&#x15f;" horiz-adv-x="500" 
d="M254 -8q-26 0 -57.5 1.5t-61.5 4t-54 5.5v33q35 -4 59 -6t43.5 -3.5t39 -2t45.5 -0.5q58 0 86 11t37 35t9 63q0 46 -7 66.5t-23.5 26.5t-46.5 9l-148 14q-44 5 -68 17t-33 38t-9 69q0 50 12.5 79.5t37.5 43.5t61 18t82 4q23 0 49.5 -1.5t52.5 -4t47 -6.5v-33
q-29 5 -54.5 8t-52 4t-59.5 1q-41 0 -73 -5.5t-50 -27.5t-18 -73q0 -40 7 -59.5t24.5 -26.5t47.5 -10l143 -14q46 -4 70 -15t33.5 -38.5t9.5 -83.5q0 -44 -10 -71.5t-32 -42.5t-56.5 -21t-82.5 -6zM181 -190v5l60 203h26v-5l-46 -203h-40z" />
    <glyph glyph-name="Scaron" unicode="&#x160;" horiz-adv-x="636" 
d="M333 -8q-36 0 -78.5 1.5t-82.5 4.5t-72 6v35q34 -3 74.5 -6t80 -5t68.5 -2q52 0 87 4t65 20q20 11 29.5 31t12.5 46.5t3 55.5q0 46 -2.5 73t-14 41.5t-38 21t-73.5 11.5l-183 19q-48 5 -74.5 18.5t-38 34.5t-14 49.5t-2.5 63.5q0 57 14 93t43 55t74 26t107 7
q38 0 76.5 -1.5t72 -4.5t54.5 -7v-33q-28 4 -63 6.5t-70.5 4t-66.5 1.5q-62 0 -101.5 -6.5t-63.5 -23.5q-26 -17 -33 -47.5t-7 -71.5q0 -48 6.5 -74.5t28 -38t64.5 -16.5l174 -18q44 -4 76.5 -10t53 -20.5t29.5 -45.5q4 -12 5.5 -27.5t2 -34t0.5 -40.5q0 -56 -10 -92.5
t-29.5 -57.5t-47 -31t-61.5 -12.5t-75 -2.5zM295 784l-107 132v5h27l103 -107l103 107h27v-5l-107 -132h-46z" />
    <glyph glyph-name="scaron" unicode="&#x161;" horiz-adv-x="500" 
d="M254 -8q-26 0 -57.5 1.5t-61.5 4t-54 5.5v33q35 -4 59 -6t43.5 -3.5t39 -2t45.5 -0.5q58 0 86 11t37 35t9 63q0 46 -7 66.5t-23.5 26.5t-46.5 9l-148 14q-44 5 -68 17t-33 38t-9 69q0 50 12.5 79.5t37.5 43.5t61 18t82 4q23 0 49.5 -1.5t52.5 -4t47 -6.5v-33
q-29 5 -54.5 8t-52 4t-59.5 1q-41 0 -73 -5.5t-50 -27.5t-18 -73q0 -40 7 -59.5t24.5 -26.5t47.5 -10l143 -14q46 -4 70 -15t33.5 -38.5t9.5 -83.5q0 -44 -10 -71.5t-32 -42.5t-56.5 -21t-82.5 -6zM227 606l-107 132v5h27l103 -107l103 107h27v-5l-107 -132h-46z" />
    <glyph glyph-name="uni0162" unicode="&#x162;" horiz-adv-x="582" 
d="M273 0v654h-233v34h502v-34h-233v-654h-36zM222 -190v5l60 203h26v-5l-46 -203h-40z" />
    <glyph glyph-name="uni0163" unicode="&#x163;" horiz-adv-x="329" 
d="M138 0v478h-108v32h108v148h35v-148h126v-32h-126v-478h-35zM87 -190v5l60 203h26v-5l-46 -203h-40z" />
    <glyph glyph-name="Tcaron" unicode="&#x164;" horiz-adv-x="582" 
d="M273 0v654h-233v34h502v-34h-233v-654h-36zM268 784l-107 132v5h27l103 -107l103 107h27v-5l-107 -132h-46z" />
    <glyph glyph-name="tcaron" unicode="&#x165;" horiz-adv-x="329" 
d="M138 0v478h-108v32h108v148h35v-148h126v-32h-126v-478h-35zM229 579l12 145v89h34v-89l-23 -145h-23z" />
    <glyph glyph-name="Tbar" unicode="&#x166;" horiz-adv-x="582" 
d="M71 346v32h440v-32h-440zM273 0v654h-233v34h502v-34h-233v-654h-36z" />
    <glyph glyph-name="tbar" unicode="&#x167;" horiz-adv-x="329" 
d="M34 256v32h265v-32h-265zM138 0v478h-108v32h108v148h35v-148h126v-32h-126v-478h-35z" />
    <glyph glyph-name="Utilde" unicode="&#x168;" horiz-adv-x="717" 
d="M359 -8q-70 0 -116.5 8.5t-74 28.5t-41.5 55t-18 86.5t-4 123.5v394h36v-424q0 -72 6 -118t26.5 -72.5t65 -37t120.5 -10.5q77 0 120.5 10.5t64.5 37t26.5 72.5t5.5 118v424h36v-394q0 -72 -4 -123.5t-17.5 -86.5t-41 -55t-74 -28.5t-116.5 -8.5zM197 799q0 35 4.5 56
t18 30t39.5 9q28 0 55 -8.5t55 -19.5q22 -8 43.5 -15.5t45.5 -7.5q23 0 29 14t6 48h27q0 -35 -4.5 -56t-18 -30t-39.5 -9q-30 0 -55.5 9t-54.5 19q-22 8 -43.5 15.5t-45.5 7.5q-22 0 -28.5 -14t-6.5 -48h-27z" />
    <glyph glyph-name="utilde" unicode="&#x169;" horiz-adv-x="604" 
d="M287 -8q-61 0 -98 11t-56.5 34t-26 61t-6.5 92v320h35v-315q0 -55 6 -89t23 -52t48.5 -24t81.5 -6q66 0 102 17t51.5 47.5t18.5 71t3 86.5v264h35v-510h-28l-3 83h-4q-8 -24 -26 -44.5t-55 -33.5t-101 -13zM140 621q0 35 4.5 56t18 30t39.5 9q28 0 55 -8.5t55 -19.5
q22 -8 43.5 -15.5t45.5 -7.5q23 0 29 14t6 48h27q0 -35 -4.5 -56t-18 -30t-39.5 -9q-30 0 -55.5 9t-54.5 19q-22 8 -43.5 15.5t-45.5 7.5q-22 0 -28.5 -14t-6.5 -48h-27z" />
    <glyph glyph-name="Umacron" unicode="&#x16a;" horiz-adv-x="717" 
d="M359 -8q-70 0 -116.5 8.5t-74 28.5t-41.5 55t-18 86.5t-4 123.5v394h36v-424q0 -72 6 -118t26.5 -72.5t65 -37t120.5 -10.5q77 0 120.5 10.5t64.5 37t26.5 72.5t5.5 118v424h36v-394q0 -72 -4 -123.5t-17.5 -86.5t-41 -55t-74 -28.5t-116.5 -8.5zM226 828v31h265v-31
h-265z" />
    <glyph glyph-name="umacron" unicode="&#x16b;" horiz-adv-x="604" 
d="M287 -8q-61 0 -98 11t-56.5 34t-26 61t-6.5 92v320h35v-315q0 -55 6 -89t23 -52t48.5 -24t81.5 -6q66 0 102 17t51.5 47.5t18.5 71t3 86.5v264h35v-510h-28l-3 83h-4q-8 -24 -26 -44.5t-55 -33.5t-101 -13zM169 650v31h265v-31h-265z" />
    <glyph glyph-name="Ubreve" unicode="&#x16c;" horiz-adv-x="717" 
d="M359 -8q-70 0 -116.5 8.5t-74 28.5t-41.5 55t-18 86.5t-4 123.5v394h36v-424q0 -72 6 -118t26.5 -72.5t65 -37t120.5 -10.5q77 0 120.5 10.5t64.5 37t26.5 72.5t5.5 118v424h36v-394q0 -72 -4 -123.5t-17.5 -86.5t-41 -55t-74 -28.5t-116.5 -8.5zM358 775
q-48 0 -74.5 10.5t-37.5 29.5t-13.5 44.5t-2.5 56.5h31q0 -37 4 -62.5t24.5 -38t68.5 -12.5t68.5 12.5t25 38t4.5 62.5h31q0 -31 -2.5 -56.5t-14 -44.5t-38 -29.5t-74.5 -10.5z" />
    <glyph glyph-name="ubreve" unicode="&#x16d;" horiz-adv-x="604" 
d="M287 -8q-61 0 -98 11t-56.5 34t-26 61t-6.5 92v320h35v-315q0 -55 6 -89t23 -52t48.5 -24t81.5 -6q66 0 102 17t51.5 47.5t18.5 71t3 86.5v264h35v-510h-28l-3 83h-4q-8 -24 -26 -44.5t-55 -33.5t-101 -13zM301 597q-48 0 -74.5 10.5t-37.5 29.5t-13.5 44.5t-2.5 56.5h31
q0 -37 4 -62.5t24.5 -38t68.5 -12.5t68.5 12.5t25 38t4.5 62.5h31q0 -31 -2.5 -56.5t-14 -44.5t-38 -29.5t-74.5 -10.5z" />
    <glyph glyph-name="Uring" unicode="&#x16e;" horiz-adv-x="717" 
d="M359 -8q-70 0 -116.5 8.5t-74 28.5t-41.5 55t-18 86.5t-4 123.5v394h36v-424q0 -72 6 -118t26.5 -72.5t65 -37t120.5 -10.5q77 0 120.5 10.5t64.5 37t26.5 72.5t5.5 118v424h36v-394q0 -72 -4 -123.5t-17.5 -86.5t-41 -55t-74 -28.5t-116.5 -8.5zM358 770q-40 0 -62.5 5
t-33 15.5t-13.5 28.5t-3 44t3 44t13.5 29t33 16t62.5 5t63 -5t33.5 -16t13.5 -29t3 -44t-3 -44t-13.5 -28.5t-33.5 -15.5t-63 -5zM358 798q40 0 57 5.5t20.5 20t3.5 39.5q0 26 -3.5 40.5t-20.5 20.5t-57 6q-39 0 -56 -6t-20.5 -20.5t-3.5 -40.5q0 -25 3.5 -39.5t20.5 -20
t56 -5.5z" />
    <glyph glyph-name="uring" unicode="&#x16f;" horiz-adv-x="604" 
d="M287 -8q-61 0 -98 11t-56.5 34t-26 61t-6.5 92v320h35v-315q0 -55 6 -89t23 -52t48.5 -24t81.5 -6q66 0 102 17t51.5 47.5t18.5 71t3 86.5v264h35v-510h-28l-3 83h-4q-8 -24 -26 -44.5t-55 -33.5t-101 -13zM301 592q-40 0 -62.5 5t-33 15.5t-13.5 28.5t-3 44t3 44
t13.5 29t33 16t62.5 5t63 -5t33.5 -16t13.5 -29t3 -44t-3 -44t-13.5 -28.5t-33.5 -15.5t-63 -5zM301 620q40 0 57 5.5t20.5 20t3.5 39.5q0 26 -3.5 40.5t-20.5 20.5t-57 6q-39 0 -56 -6t-20.5 -20.5t-3.5 -40.5q0 -25 3.5 -39.5t20.5 -20t56 -5.5z" />
    <glyph glyph-name="Uhungarumlaut" unicode="&#x170;" horiz-adv-x="717" 
d="M359 -8q-70 0 -116.5 8.5t-74 28.5t-41.5 55t-18 86.5t-4 123.5v394h36v-424q0 -72 6 -118t26.5 -72.5t65 -37t120.5 -10.5q77 0 120.5 10.5t64.5 37t26.5 72.5t5.5 118v424h36v-394q0 -72 -4 -123.5t-17.5 -86.5t-41 -55t-74 -28.5t-116.5 -8.5zM237 784v5l91 113h46v-5
l-110 -113h-27zM406 784v5l91 113h46v-5l-110 -113h-27z" />
    <glyph glyph-name="uhungarumlaut" unicode="&#x171;" horiz-adv-x="604" 
d="M287 -8q-61 0 -98 11t-56.5 34t-26 61t-6.5 92v320h35v-315q0 -55 6 -89t23 -52t48.5 -24t81.5 -6q66 0 102 17t51.5 47.5t18.5 71t3 86.5v264h35v-510h-28l-3 83h-4q-8 -24 -26 -44.5t-55 -33.5t-101 -13zM197 606v5l91 113h46v-5l-110 -113h-27zM366 606v5l91 113h46
v-5l-110 -113h-27z" />
    <glyph glyph-name="Uogonek" unicode="&#x172;" horiz-adv-x="717" 
d="M359 -8q-70 0 -116.5 8.5t-74 28.5t-41.5 55t-18 86.5t-4 123.5v394h36v-424q0 -72 6 -118t26.5 -72.5t65 -37t120.5 -10.5q77 0 120.5 10.5t64.5 37t26.5 72.5t5.5 118v424h36v-394q0 -72 -4 -123.5t-17.5 -86.5t-41 -55t-74 -28.5t-116.5 -8.5zM387 -200q-27 0 -44 9.5
t-24.5 26t-7.5 36.5q0 33 21 71t54 67l22 -10q-13 -12 -28 -33t-25 -44.5t-10 -44.5q0 -19 10.5 -32.5t36.5 -13.5h6.5t10.5 1v-32q-7 -1 -11 -1h-11z" />
    <glyph glyph-name="uogonek" unicode="&#x173;" horiz-adv-x="604" 
d="M287 -8q-61 0 -98 11t-56.5 34t-26 61t-6.5 92v320h35v-315q0 -55 6 -89t23 -52t48.5 -24t81.5 -6q66 0 102 17t51.5 47.5t18.5 71t3 86.5v264h35v-510h-28l-3 83h-4q-8 -24 -26 -44.5t-55 -33.5t-101 -13zM483 -200q-27 0 -44 9.5t-24.5 26t-7.5 36.5q0 33 21 71t54 67
l22 -10q-13 -12 -28 -33t-25 -44.5t-10 -44.5q0 -19 10.5 -32.5t36.5 -13.5h6.5t10.5 1v-32q-7 -1 -11 -1h-11z" />
    <glyph glyph-name="Wcircumflex" unicode="&#x174;" horiz-adv-x="984" 
d="M252 0l-204 688h39l181 -623h6l200 623h38l200 -623h6l181 623h37l-204 -688h-35l-203 623h-4l-203 -623h-35zM362 785v5l107 133h46l107 -133v-5h-27l-103 108l-103 -108h-27z" />
    <glyph glyph-name="wcircumflex" unicode="&#x175;" horiz-adv-x="803" 
d="M217 0l-178 510h38l155 -453h6l145 453h38l146 -453h6l154 453h37l-178 -510h-35l-147 449h-6l-146 -449h-35zM272 606v5l107 133h46l107 -133v-5h-27l-103 108l-103 -108h-27z" />
    <glyph glyph-name="Ycircumflex" unicode="&#x176;" horiz-adv-x="599" 
d="M281 0v281l-261 407h42l234 -369h7l235 369h41l-262 -407v-281h-36zM170 785v5l107 133h46l107 -133v-5h-27l-103 108l-103 -108h-27z" />
    <glyph glyph-name="ycircumflex" unicode="&#x177;" horiz-adv-x="604" 
d="M284 -206q-29 0 -60.5 1t-60 2.5t-49.5 3.5v33q27 -2 56 -4t57 -3t52 -1q65 0 103.5 13t57 40t24 69t5.5 100v27h-4q-6 -18 -23.5 -37.5t-54 -32.5t-100.5 -13q-61 0 -98 11t-56.5 34t-26 61t-6.5 92v320h35v-315q0 -55 6 -89t23 -52t48.5 -24t81.5 -6q66 0 102 17
t51.5 47.5t18.5 71t3 86.5v264h35v-443q0 -76 -8.5 -128.5t-31.5 -84t-66.5 -46t-113.5 -14.5zM172 606v5l107 133h46l107 -133v-5h-27l-103 108l-103 -108h-27z" />
    <glyph glyph-name="Ydieresis" unicode="&#x178;" horiz-adv-x="599" 
d="M281 0v281l-261 407h42l234 -369h7l235 369h41l-262 -407v-281h-36zM173 828v61h43v-61h-43zM383 828v61h43v-61h-43z" />
    <glyph glyph-name="Zacute" unicode="&#x179;" horiz-adv-x="601" 
d="M60 0v32l433 622h-422v34h467v-32l-432 -622h440v-34h-486zM266 784v5l107 133h46v-5l-126 -133h-27z" />
    <glyph glyph-name="zacute" unicode="&#x17a;" horiz-adv-x="496" 
d="M55 0v28l337 450h-325v32h372v-28l-336 -450h338v-32h-386zM196 606v5l107 133h46v-5l-126 -133h-27z" />
    <glyph glyph-name="Zdotaccent" unicode="&#x17b;" horiz-adv-x="601" 
d="M60 0v32l433 622h-422v34h467v-32l-432 -622h440v-34h-486zM279 829v61h43v-61h-43z" />
    <glyph glyph-name="zdotaccent" unicode="&#x17c;" horiz-adv-x="496" 
d="M55 0v28l337 450h-325v32h372v-28l-336 -450h338v-32h-386zM229 650v61h43v-61h-43z" />
    <glyph glyph-name="Zcaron" unicode="&#x17d;" horiz-adv-x="601" 
d="M60 0v32l433 622h-422v34h467v-32l-432 -622h440v-34h-486zM278 784l-107 132v5h27l103 -107l103 107h27v-5l-107 -132h-46z" />
    <glyph glyph-name="zcaron" unicode="&#x17e;" horiz-adv-x="496" 
d="M55 0v28l337 450h-325v32h372v-28l-336 -450h338v-32h-386zM228 606l-107 132v5h27l103 -107l103 107h27v-5l-107 -132h-46z" />
    <glyph glyph-name="longs" unicode="&#x17f;" horiz-adv-x="304" 
d="M138 0v478h-108v32h108v115q0 32 7 53t21 34t35 20t48 9t60 2v-30q-40 0 -66 -3.5t-41.5 -12.5t-22 -25t-6.5 -41v-631h-35z" />
    <glyph glyph-name="uni018F" unicode="&#x18f;" horiz-adv-x="706" 
d="M353 -8q-74 0 -122.5 7t-77 27t-42 59t-17.5 102t-4 157v21h490q0 82 -5.5 136t-20 86.5t-42 48.5t-72.5 21t-111 5q-39 0 -85.5 -5.5t-80.5 -14.5v34q23 6 53.5 10.5t62.5 7t60 2.5q71 0 120 -6.5t80 -26t47.5 -58t23 -102.5t6.5 -159q0 -94 -4 -157t-17.5 -102t-42 -59
t-77 -27t-122.5 -7zM353 26q62 0 102.5 3.5t65.5 18t37.5 47t17 89.5t4.5 147h-454q0 -90 4.5 -147t17 -89.5t37.5 -47t66 -18t102 -3.5z" />
    <glyph glyph-name="florin" unicode="&#x192;" horiz-adv-x="315" 
d="M-160 -190l7 30q39 0 66.5 5t46 21.5t32 50t25.5 89.5l100 472h-108l7 32h118l-13 -15l9 40q11 51 23 87.5t28 60t38.5 36.5t53 18.5t72.5 5.5l-7 -30q-42 0 -70 -6.5t-47 -25t-32.5 -55.5t-25.5 -97l-7 -34l-6 15h145l-7 -32h-136l-100 -470q-12 -58 -27 -95.5
t-33.5 -58.5t-41 -30.5t-50 -11.5t-60.5 -2z" />
    <glyph glyph-name="uni019D" unicode="&#x19d;" horiz-adv-x="738" 
d="M13 -200v30q35 0 55.5 2.5t30.5 9t13 17.5t3 28v801h35l434 -622h4v622h35v-688h-35l-434 622h-4v-725q0 -28 -5.5 -45.5t-16 -28t-27 -15.5t-38.5 -6.5t-50 -1.5z" />
    <glyph glyph-name="Ohorn" unicode="&#x1a0;" horiz-adv-x="726" 
d="M497 660v28h59q34 0 42 13t8 50v35h33v-28q0 -29 -3.5 -48t-12.5 -30t-25.5 -15.5t-41.5 -4.5h-59zM363 -8q-77 0 -127.5 7t-80 27t-43.5 59t-18 102t-4 157t4 157t18 102t43.5 59t80 27t127.5 7t127.5 -7t80 -27t43.5 -59t18 -102t4 -157t-4 -157t-18 -102t-43.5 -59
t-80 -27t-127.5 -7zM363 26q65 0 108 3.5t69 18.5t39 49t17 93.5t4 153.5t-4 153.5t-17 93.5t-39 49t-69 18.5t-108 3.5t-108 -3.5t-69 -18.5t-39 -49t-17 -93.5t-4 -153.5t4 -153.5t17 -93.5t39 -49t69 -18.5t108 -3.5z" />
    <glyph glyph-name="ohorn" unicode="&#x1a1;" horiz-adv-x="580" 
d="M375 482v28h59q34 0 42 13t8 50v35h33v-28q0 -29 -3.5 -48t-12.5 -30t-25.5 -15.5t-41.5 -4.5h-59zM290 -8q-61 0 -100.5 6.5t-63 23t-34.5 46.5t-14 75.5t-3 110.5t3 111t14 76t34.5 46.5t63 23.5t100.5 7t100.5 -7t63 -23.5t34.5 -46.5t14 -76t3 -111t-3 -110.5
t-14 -75.5t-34.5 -46.5t-63 -23t-100.5 -6.5zM290 24q68 0 105 9t52.5 33t19 69.5t3.5 118.5t-3.5 119t-19 70.5t-52.5 33.5t-105 9q-67 0 -104.5 -9t-53 -33.5t-19 -70.5t-3.5 -119t3.5 -118.5t19 -69.5t53 -33t104.5 -9z" />
    <glyph glyph-name="Uhorn" unicode="&#x1af;" horiz-adv-x="717" 
d="M576 660v28h59q34 0 42 13t8 50v35h33v-28q0 -29 -3.5 -48t-12.5 -30t-25.5 -15.5t-41.5 -4.5h-59zM359 -8q-70 0 -116.5 8.5t-74 28.5t-41.5 55t-18 86.5t-4 123.5v394h36v-424q0 -72 6 -118t26.5 -72.5t65 -37t120.5 -10.5q77 0 120.5 10.5t64.5 37t26.5 72.5t5.5 118
v424h36v-394q0 -72 -4 -123.5t-17.5 -86.5t-41 -55t-74 -28.5t-116.5 -8.5z" />
    <glyph glyph-name="uhorn" unicode="&#x1b0;" horiz-adv-x="604" 
d="M469 482v28h59q34 0 42 13t8 50v35h33v-28q0 -29 -3.5 -48t-12.5 -30t-25.5 -15.5t-41.5 -4.5h-59zM287 -8q-61 0 -98 11t-56.5 34t-26 61t-6.5 92v320h35v-315q0 -55 6 -89t23 -52t48.5 -24t81.5 -6q66 0 102 17t51.5 47.5t18.5 71t3 86.5v264h35v-510h-28l-3 83h-4
q-8 -24 -26 -44.5t-55 -33.5t-101 -13z" />
    <glyph glyph-name="uni01C4" unicode="&#x1c4;" horiz-adv-x="1294" 
d="M115 0v688h205q80 0 132 -6.5t82.5 -26.5t45.5 -58t19 -99.5t4 -153.5t-4 -153.5t-19 -99.5t-45.5 -58t-82.5 -26.5t-132 -6.5h-205zM151 34h149q76 0 125.5 3.5t78 18t42 47.5t17.5 91.5t4 149.5t-4 149.5t-18 91.5t-43 47.5t-78 18t-124 3.5h-149v-620zM753 0v32
l433 622h-422v34h467v-32l-432 -622h440v-34h-486zM971 784l-107 132v5h27l103 -107l103 107h27v-5l-107 -132h-46z" />
    <glyph glyph-name="uni01C5" unicode="&#x1c5;" horiz-adv-x="1189" 
d="M115 0v688h205q80 0 132 -6.5t82.5 -26.5t45.5 -58t19 -99.5t4 -153.5t-4 -153.5t-19 -99.5t-45.5 -58t-82.5 -26.5t-132 -6.5h-205zM151 34h149q76 0 125.5 3.5t78 18t42 47.5t17.5 91.5t4 149.5t-4 149.5t-18 91.5t-43 47.5t-78 18t-124 3.5h-149v-620zM748 0v28
l337 450h-325v32h372v-28l-336 -450h338v-32h-386zM921 606l-107 132v5h27l103 -107l103 107h27v-5l-107 -132h-46z" />
    <glyph glyph-name="uni01C6" unicode="&#x1c6;" horiz-adv-x="1092" 
d="M276 -8q-64 0 -103.5 11.5t-60.5 40t-29 80t-8 131.5t8 131.5t29 80t60.5 40t103.5 11.5q49 0 85 -8t60 -26t36 -48h4v307h35v-743h-28l-3 83h-4q-14 -40 -42.5 -59.5t-65.5 -25.5t-77 -6zM286 24q66 0 106 18t53 58q12 36 14 75t2 94q0 36 -2 70t-11 61q-16 47 -56 66.5
t-111 19.5q-55 0 -89 -8t-52 -31.5t-24 -69.5t-6 -122t6.5 -122t24.5 -69.5t53 -31.5t92 -8zM651 0v28l337 450h-325v32h372v-28l-336 -450h338v-32h-386zM824 606l-107 132v5h27l103 -107l103 107h27v-5l-107 -132h-46z" />
    <glyph glyph-name="uni01C7" unicode="&#x1c7;" horiz-adv-x="860" 
d="M115 0v688h36v-654h350v-34h-386zM576 0v34q53 2 82 7t42 24t16 62t3 119v442h36v-424q0 -75 -2.5 -124t-11 -77t-28 -41t-52.5 -17t-85 -5z" />
    <glyph glyph-name="uni01C8" unicode="&#x1c8;" horiz-adv-x="771" 
d="M115 0v688h36v-654h350v-34h-386zM632 682v61h43v-61h-43zM534 -200v30q47 0 68.5 5t27.5 17.5t6 34.5v623h35v-613q0 -34 -8.5 -54t-25.5 -29t-42.5 -11.5t-60.5 -2.5z" />
    <glyph glyph-name="uni01C9" unicode="&#x1c9;" horiz-adv-x="470" 
d="M100 0v743h35v-743h-35zM331 682v61h43v-61h-43zM233 -200v30q47 0 68.5 5t27.5 17.5t6 34.5v623h35v-613q0 -34 -8.5 -54t-25.5 -29t-42.5 -11.5t-60.5 -2.5z" />
    <glyph glyph-name="uni01CA" unicode="&#x1ca;" horiz-adv-x="1062" 
d="M115 0v688h35l434 -622h4v622h35v-688h-35l-434 622h-4v-622h-35zM778 0v34q53 2 82 7t42 24t16 62t3 119v442h36v-424q0 -75 -2.5 -124t-11 -77t-28 -41t-52.5 -17t-85 -5z" />
    <glyph glyph-name="uni01CB" unicode="&#x1cb;" horiz-adv-x="973" 
d="M115 0v688h35l434 -622h4v622h35v-688h-35l-434 622h-4v-622h-35zM834 682v61h43v-61h-43zM736 -200v30q47 0 68.5 5t27.5 17.5t6 34.5v623h35v-613q0 -34 -8.5 -54t-25.5 -29t-42.5 -11.5t-60.5 -2.5z" />
    <glyph glyph-name="uni01CC" unicode="&#x1cc;" horiz-adv-x="839" 
d="M100 0v510h28l3 -83h4q8 24 26 44.5t55 33.5t101 13q61 0 98 -11t56.5 -34t26 -61t6.5 -92v-320h-35v315q0 56 -6 89.5t-23 51.5t-48.5 24t-81.5 6q-66 0 -102 -17t-51.5 -47.5t-18.5 -71t-3 -86.5v-264h-35zM700 682v61h43v-61h-43zM602 -200v30q47 0 68.5 5t27.5 17.5
t6 34.5v623h35v-613q0 -34 -8.5 -54t-25.5 -29t-42.5 -11.5t-60.5 -2.5z" />
    <glyph glyph-name="uni01CD" unicode="&#x1cd;" horiz-adv-x="683" 
d="M40 0l284 688h35l284 -688h-39l-91 222h-344l-91 -222h-38zM183 256h316l-155 381h-5zM319 784l-107 132v5h27l103 -107l103 107h27v-5l-107 -132h-46z" />
    <glyph glyph-name="uni01CE" unicode="&#x1ce;" horiz-adv-x="574" 
d="M249 -8q-63 0 -104 11t-60.5 42.5t-19.5 92.5q0 56 13 87.5t46 44.5t92 13q12 0 37 -0.5t57.5 -1.5t66 -1.5t62.5 -1.5v46q0 56 -6.5 88.5t-25 48.5t-53.5 20.5t-91 4.5q-23 0 -53.5 -2t-59.5 -4.5t-49 -6.5v33q30 5 76 8.5t100 3.5q49 0 83.5 -5t57 -17t34.5 -33.5
t17 -54t5 -78.5v-330h-28l-3 83h-4q-14 -41 -45.5 -60.5t-70 -25t-74.5 -5.5zM248 24q35 0 68.5 3.5t59.5 16t39 40.5q14 30 19 59.5t5 66.5v41h-213q-50 0 -77.5 -8t-38 -32t-10.5 -73q0 -46 12 -71t44 -34t92 -9zM268 606l-107 132v5h27l103 -107l103 107h27v-5l-107 -132
h-46z" />
    <glyph glyph-name="uni01CF" unicode="&#x1cf;" horiz-adv-x="266" 
d="M115 0v688h36v-688h-36zM110 784l-107 132v5h27l103 -107l103 107h27v-5l-107 -132h-46z" />
    <glyph glyph-name="uni01D0" unicode="&#x1d0;" horiz-adv-x="235" 
d="M100 0v510h35v-510h-35zM95 606l-107 132v5h27l103 -107l103 107h27v-5l-107 -132h-46z" />
    <glyph glyph-name="uni01D1" unicode="&#x1d1;" horiz-adv-x="726" 
d="M363 -8q-77 0 -127.5 7t-80 27t-43.5 59t-18 102t-4 157t4 157t18 102t43.5 59t80 27t127.5 7t127.5 -7t80 -27t43.5 -59t18 -102t4 -157t-4 -157t-18 -102t-43.5 -59t-80 -27t-127.5 -7zM363 26q65 0 108 3.5t69 18.5t39 49t17 93.5t4 153.5t-4 153.5t-17 93.5t-39 49
t-69 18.5t-108 3.5t-108 -3.5t-69 -18.5t-39 -49t-17 -93.5t-4 -153.5t4 -153.5t17 -93.5t39 -49t69 -18.5t108 -3.5zM340 784l-107 132v5h27l103 -107l103 107h27v-5l-107 -132h-46z" />
    <glyph glyph-name="uni01D2" unicode="&#x1d2;" horiz-adv-x="580" 
d="M290 -8q-61 0 -100.5 6.5t-63 23t-34.5 46.5t-14 75.5t-3 110.5t3 111t14 76t34.5 46.5t63 23.5t100.5 7t100.5 -7t63 -23.5t34.5 -46.5t14 -76t3 -111t-3 -110.5t-14 -75.5t-34.5 -46.5t-63 -23t-100.5 -6.5zM290 24q68 0 105 9t52.5 33t19 69.5t3.5 118.5t-3.5 119
t-19 70.5t-52.5 33.5t-105 9q-67 0 -104.5 -9t-53 -33.5t-19 -70.5t-3.5 -119t3.5 -118.5t19 -69.5t53 -33t104.5 -9zM267 606l-107 132v5h27l103 -107l103 107h27v-5l-107 -132h-46z" />
    <glyph glyph-name="uni01D3" unicode="&#x1d3;" horiz-adv-x="717" 
d="M359 -8q-70 0 -116.5 8.5t-74 28.5t-41.5 55t-18 86.5t-4 123.5v394h36v-424q0 -72 6 -118t26.5 -72.5t65 -37t120.5 -10.5q77 0 120.5 10.5t64.5 37t26.5 72.5t5.5 118v424h36v-394q0 -72 -4 -123.5t-17.5 -86.5t-41 -55t-74 -28.5t-116.5 -8.5zM336 784l-107 132v5h27
l103 -107l103 107h27v-5l-107 -132h-46z" />
    <glyph glyph-name="uni01D4" unicode="&#x1d4;" horiz-adv-x="604" 
d="M287 -8q-61 0 -98 11t-56.5 34t-26 61t-6.5 92v320h35v-315q0 -55 6 -89t23 -52t48.5 -24t81.5 -6q66 0 102 17t51.5 47.5t18.5 71t3 86.5v264h35v-510h-28l-3 83h-4q-8 -24 -26 -44.5t-55 -33.5t-101 -13zM279 606l-107 132v5h27l103 -107l103 107h27v-5l-107 -132h-46z
" />
    <glyph glyph-name="uni01D5" unicode="&#x1d5;" horiz-adv-x="717" 
d="M359 -8q-70 0 -116.5 8.5t-74 28.5t-41.5 55t-18 86.5t-4 123.5v394h36v-424q0 -72 6 -118t26.5 -72.5t65 -37t120.5 -10.5q77 0 120.5 10.5t64.5 37t26.5 72.5t5.5 118v424h36v-394q0 -72 -4 -123.5t-17.5 -86.5t-41 -55t-74 -28.5t-116.5 -8.5zM232 828v61h43v-61h-43z
M442 828v61h43v-61h-43zM226 1008v31h265v-31h-265z" />
    <glyph glyph-name="uni01D6" unicode="&#x1d6;" horiz-adv-x="604" 
d="M287 -8q-61 0 -98 11t-56.5 34t-26 61t-6.5 92v320h35v-315q0 -55 6 -89t23 -52t48.5 -24t81.5 -6q66 0 102 17t51.5 47.5t18.5 71t3 86.5v264h35v-510h-28l-3 83h-4q-8 -24 -26 -44.5t-55 -33.5t-101 -13zM175 650v61h43v-61h-43zM385 650v61h43v-61h-43zM169 815v31
h265v-31h-265z" />
    <glyph glyph-name="uni01D7" unicode="&#x1d7;" horiz-adv-x="717" 
d="M359 -8q-70 0 -116.5 8.5t-74 28.5t-41.5 55t-18 86.5t-4 123.5v394h36v-424q0 -72 6 -118t26.5 -72.5t65 -37t120.5 -10.5q77 0 120.5 10.5t64.5 37t26.5 72.5t5.5 118v424h36v-394q0 -72 -4 -123.5t-17.5 -86.5t-41 -55t-74 -28.5t-116.5 -8.5zM232 828v61h43v-61h-43z
M442 828v61h43v-61h-43zM324 964v5l107 133h46v-5l-126 -133h-27z" />
    <glyph glyph-name="uni01D8" unicode="&#x1d8;" horiz-adv-x="604" 
d="M287 -8q-61 0 -98 11t-56.5 34t-26 61t-6.5 92v320h35v-315q0 -55 6 -89t23 -52t48.5 -24t81.5 -6q66 0 102 17t51.5 47.5t18.5 71t3 86.5v264h35v-510h-28l-3 83h-4q-8 -24 -26 -44.5t-55 -33.5t-101 -13zM175 650v61h43v-61h-43zM385 650v61h43v-61h-43zM247 771v5
l107 133h46v-5l-126 -133h-27z" />
    <glyph glyph-name="uni01D9" unicode="&#x1d9;" horiz-adv-x="717" 
d="M359 -8q-70 0 -116.5 8.5t-74 28.5t-41.5 55t-18 86.5t-4 123.5v394h36v-424q0 -72 6 -118t26.5 -72.5t65 -37t120.5 -10.5q77 0 120.5 10.5t64.5 37t26.5 72.5t5.5 118v424h36v-394q0 -72 -4 -123.5t-17.5 -86.5t-41 -55t-74 -28.5t-116.5 -8.5zM232 828v61h43v-61h-43z
M442 828v61h43v-61h-43zM336 964l-107 132v5h27l103 -107l103 107h27v-5l-107 -132h-46z" />
    <glyph glyph-name="uni01DA" unicode="&#x1da;" horiz-adv-x="604" 
d="M287 -8q-61 0 -98 11t-56.5 34t-26 61t-6.5 92v320h35v-315q0 -55 6 -89t23 -52t48.5 -24t81.5 -6q66 0 102 17t51.5 47.5t18.5 71t3 86.5v264h35v-510h-28l-3 83h-4q-8 -24 -26 -44.5t-55 -33.5t-101 -13zM175 650v61h43v-61h-43zM385 650v61h43v-61h-43zM279 771
l-107 132v5h27l103 -107l103 107h27v-5l-107 -132h-46z" />
    <glyph glyph-name="uni01DB" unicode="&#x1db;" horiz-adv-x="717" 
d="M359 -8q-70 0 -116.5 8.5t-74 28.5t-41.5 55t-18 86.5t-4 123.5v394h36v-424q0 -72 6 -118t26.5 -72.5t65 -37t120.5 -10.5q77 0 120.5 10.5t64.5 37t26.5 72.5t5.5 118v424h36v-394q0 -72 -4 -123.5t-17.5 -86.5t-41 -55t-74 -28.5t-116.5 -8.5zM232 828v61h43v-61h-43z
M442 828v61h43v-61h-43zM385 965l-126 132v5h46l107 -132v-5h-27z" />
    <glyph glyph-name="uni01DC" unicode="&#x1dc;" horiz-adv-x="604" 
d="M287 -8q-61 0 -98 11t-56.5 34t-26 61t-6.5 92v320h35v-315q0 -55 6 -89t23 -52t48.5 -24t81.5 -6q66 0 102 17t51.5 47.5t18.5 71t3 86.5v264h35v-510h-28l-3 83h-4q-8 -24 -26 -44.5t-55 -33.5t-101 -13zM175 650v61h43v-61h-43zM385 650v61h43v-61h-43zM323 771
l-126 132v5h46l107 -132v-5h-27z" />
    <glyph glyph-name="Gcaron" unicode="&#x1e6;" horiz-adv-x="683" 
d="M372 -8q-71 0 -120.5 7t-81 27t-49 59t-24.5 102t-7 157t7 157t25 102t50 59t81 27t119 7q34 0 72.5 -2.5t74 -6.5t61.5 -9v-32q-29 5 -62 8.5t-63.5 5.5t-52.5 2q-67 0 -115 -3.5t-79.5 -18t-49 -48.5t-25 -93.5t-7.5 -154.5q0 -83 4.5 -140t18.5 -92t41 -54t71 -25.5
t110 -6.5q24 0 56.5 2t65 4.5t54.5 5.5v277h-194v34h230v-340q-32 -5 -69.5 -9t-74.5 -6t-67 -2zM339 784l-107 132v5h27l103 -107l103 107h27v-5l-107 -132h-46z" />
    <glyph glyph-name="gcaron" unicode="&#x1e7;" horiz-adv-x="596" 
d="M280 -206q-32 0 -66.5 1t-66 2.5t-54.5 3.5v33q29 -2 61.5 -4t63.5 -3t57 -1q62 0 99 11t56 37t25 71.5t6 114.5v14h-4q-12 -30 -36 -48t-60 -26t-85 -8q-64 0 -103.5 11.5t-60.5 40t-29 80t-8 131.5t8 131.5t29 80t60.5 40t103.5 11.5q40 0 77 -6t65.5 -25.5t42.5 -59.5
h4l3 83h28v-438q0 -79 -7.5 -132.5t-30 -85.5t-65 -46t-113.5 -14zM286 24q67 0 106.5 19t53.5 62q11 31 13 67.5t2 82.5q0 45 -1.5 80.5t-10.5 62.5q-16 49 -56.5 68.5t-106.5 19.5q-57 0 -92 -8t-53 -31.5t-24.5 -69.5t-6.5 -122t6.5 -122t24.5 -69.5t53 -31.5t92 -8z
M275 606l-107 132v5h27l103 -107l103 107h27v-5l-107 -132h-46z" />
    <glyph glyph-name="uni01EA" unicode="&#x1ea;" horiz-adv-x="726" 
d="M363 -8q-77 0 -127.5 7t-80 27t-43.5 59t-18 102t-4 157t4 157t18 102t43.5 59t80 27t127.5 7t127.5 -7t80 -27t43.5 -59t18 -102t4 -157t-4 -157t-18 -102t-43.5 -59t-80 -27t-127.5 -7zM363 26q65 0 108 3.5t69 18.5t39 49t17 93.5t4 153.5t-4 153.5t-17 93.5t-39 49
t-69 18.5t-108 3.5t-108 -3.5t-69 -18.5t-39 -49t-17 -93.5t-4 -153.5t4 -153.5t17 -93.5t39 -49t69 -18.5t108 -3.5zM378 -200q-27 0 -44 9.5t-24.5 26t-7.5 36.5q0 33 21 71t54 67l22 -10q-13 -12 -28 -33t-25 -44.5t-10 -44.5q0 -19 10.5 -32.5t36.5 -13.5h6.5t10.5 1
v-32q-7 -1 -11 -1h-11z" />
    <glyph glyph-name="uni01EB" unicode="&#x1eb;" horiz-adv-x="580" 
d="M290 -8q-61 0 -100.5 6.5t-63 23t-34.5 46.5t-14 75.5t-3 110.5t3 111t14 76t34.5 46.5t63 23.5t100.5 7t100.5 -7t63 -23.5t34.5 -46.5t14 -76t3 -111t-3 -110.5t-14 -75.5t-34.5 -46.5t-63 -23t-100.5 -6.5zM290 24q68 0 105 9t52.5 33t19 69.5t3.5 118.5t-3.5 119
t-19 70.5t-52.5 33.5t-105 9q-67 0 -104.5 -9t-53 -33.5t-19 -70.5t-3.5 -119t3.5 -118.5t19 -69.5t53 -33t104.5 -9zM306 -200q-27 0 -44 9.5t-24.5 26t-7.5 36.5q0 33 21 71t54 67l22 -10q-13 -12 -28 -33t-25 -44.5t-10 -44.5q0 -19 10.5 -32.5t36.5 -13.5h6.5t10.5 1
v-32q-7 -1 -11 -1h-11z" />
    <glyph glyph-name="uni01F1" unicode="&#x1f1;" horiz-adv-x="1294" 
d="M115 0v688h205q80 0 132 -6.5t82.5 -26.5t45.5 -58t19 -99.5t4 -153.5t-4 -153.5t-19 -99.5t-45.5 -58t-82.5 -26.5t-132 -6.5h-205zM151 34h149q76 0 125.5 3.5t78 18t42 47.5t17.5 91.5t4 149.5t-4 149.5t-18 91.5t-43 47.5t-78 18t-124 3.5h-149v-620zM753 0v32
l433 622h-422v34h467v-32l-432 -622h440v-34h-486z" />
    <glyph glyph-name="uni01F2" unicode="&#x1f2;" horiz-adv-x="1189" 
d="M115 0v688h205q80 0 132 -6.5t82.5 -26.5t45.5 -58t19 -99.5t4 -153.5t-4 -153.5t-19 -99.5t-45.5 -58t-82.5 -26.5t-132 -6.5h-205zM151 34h149q76 0 125.5 3.5t78 18t42 47.5t17.5 91.5t4 149.5t-4 149.5t-18 91.5t-43 47.5t-78 18t-124 3.5h-149v-620zM748 0v28
l337 450h-325v32h372v-28l-336 -450h338v-32h-386z" />
    <glyph glyph-name="uni01F3" unicode="&#x1f3;" horiz-adv-x="1092" 
d="M276 -8q-64 0 -103.5 11.5t-60.5 40t-29 80t-8 131.5t8 131.5t29 80t60.5 40t103.5 11.5q49 0 85 -8t60 -26t36 -48h4v307h35v-743h-28l-3 83h-4q-14 -40 -42.5 -59.5t-65.5 -25.5t-77 -6zM286 24q66 0 106 18t53 58q12 36 14 75t2 94q0 36 -2 70t-11 61q-16 47 -56 66.5
t-111 19.5q-55 0 -89 -8t-52 -31.5t-24 -69.5t-6 -122t6.5 -122t24.5 -69.5t53 -31.5t92 -8zM651 0v28l337 450h-325v32h372v-28l-336 -450h338v-32h-386z" />
    <glyph glyph-name="uni01F4" unicode="&#x1f4;" horiz-adv-x="683" 
d="M372 -8q-71 0 -120.5 7t-81 27t-49 59t-24.5 102t-7 157t7 157t25 102t50 59t81 27t119 7q34 0 72.5 -2.5t74 -6.5t61.5 -9v-32q-29 5 -62 8.5t-63.5 5.5t-52.5 2q-67 0 -115 -3.5t-79.5 -18t-49 -48.5t-25 -93.5t-7.5 -154.5q0 -83 4.5 -140t18.5 -92t41 -54t71 -25.5
t110 -6.5q24 0 56.5 2t65 4.5t54.5 5.5v277h-194v34h230v-340q-32 -5 -69.5 -9t-74.5 -6t-67 -2zM327 784v5l107 133h46v-5l-126 -133h-27z" />
    <glyph glyph-name="uni01F5" unicode="&#x1f5;" horiz-adv-x="596" 
d="M280 -206q-32 0 -66.5 1t-66 2.5t-54.5 3.5v33q29 -2 61.5 -4t63.5 -3t57 -1q62 0 99 11t56 37t25 71.5t6 114.5v14h-4q-12 -30 -36 -48t-60 -26t-85 -8q-64 0 -103.5 11.5t-60.5 40t-29 80t-8 131.5t8 131.5t29 80t60.5 40t103.5 11.5q40 0 77 -6t65.5 -25.5t42.5 -59.5
h4l3 83h28v-438q0 -79 -7.5 -132.5t-30 -85.5t-65 -46t-113.5 -14zM286 24q67 0 106.5 19t53.5 62q11 31 13 67.5t2 82.5q0 45 -1.5 80.5t-10.5 62.5q-16 49 -56.5 68.5t-106.5 19.5q-57 0 -92 -8t-53 -31.5t-24.5 -69.5t-6.5 -122t6.5 -122t24.5 -69.5t53 -31.5t92 -8z
M243 606v5l107 133h46v-5l-126 -133h-27z" />
    <glyph glyph-name="Aringacute" unicode="&#x1fa;" horiz-adv-x="683" 
d="M40 0l284 688h35l284 -688h-39l-91 222h-344l-91 -222h-38zM183 256h316l-155 381h-5zM341 661q-40 0 -62.5 5t-33 15.5t-13.5 28.5t-3 44t3 44t13.5 29t33 16t62.5 5t63 -5t33.5 -16t13.5 -29t3 -44t-3 -44t-13.5 -28.5t-33.5 -15.5t-63 -5zM341 689q40 0 57 5.5
t20.5 20t3.5 39.5q0 26 -3.5 40.5t-20.5 20.5t-57 6q-39 0 -56 -6t-20.5 -20.5t-3.5 -40.5q0 -25 3.5 -39.5t20.5 -20t56 -5.5zM307 905v5l107 133h46v-5l-126 -133h-27z" />
    <glyph glyph-name="aringacute" unicode="&#x1fb;" horiz-adv-x="574" 
d="M249 -8q-63 0 -104 11t-60.5 42.5t-19.5 92.5q0 56 13 87.5t46 44.5t92 13q12 0 37 -0.5t57.5 -1.5t66 -1.5t62.5 -1.5v46q0 56 -6.5 88.5t-25 48.5t-53.5 20.5t-91 4.5q-23 0 -53.5 -2t-59.5 -4.5t-49 -6.5v33q30 5 76 8.5t100 3.5q49 0 83.5 -5t57 -17t34.5 -33.5
t17 -54t5 -78.5v-330h-28l-3 83h-4q-14 -41 -45.5 -60.5t-70 -25t-74.5 -5.5zM248 24q35 0 68.5 3.5t59.5 16t39 40.5q14 30 19 59.5t5 66.5v41h-213q-50 0 -77.5 -8t-38 -32t-10.5 -73q0 -46 12 -71t44 -34t92 -9zM290 592q-40 0 -62.5 5t-33 15.5t-13.5 28.5t-3 44t3 44
t13.5 29t33 16t62.5 5t63 -5t33.5 -16t13.5 -29t3 -44t-3 -44t-13.5 -28.5t-33.5 -15.5t-63 -5zM290 620q40 0 57 5.5t20.5 20t3.5 39.5q0 26 -3.5 40.5t-20.5 20.5t-57 6q-39 0 -56 -6t-20.5 -20.5t-3.5 -40.5q0 -25 3.5 -39.5t20.5 -20t56 -5.5zM236 836v5l107 133h46v-5
l-126 -133h-27z" />
    <glyph glyph-name="AEacute" unicode="&#x1fc;" horiz-adv-x="947" 
d="M0 0l354 688h536v-34h-490l90 -289h353v-34h-343l92 -297h298v-34h-326l-68 222h-345l-113 -222h-38zM169 256h316l-116 381h-5zM433 784v5l107 133h46v-5l-126 -133h-27z" />
    <glyph glyph-name="aeacute" unicode="&#x1fd;" horiz-adv-x="926" 
d="M249 -8q-47 0 -82 6t-57.5 21.5t-33.5 44t-11 74.5q0 54 13 84.5t46 43.5t92 13h74.5h74.5h74v45q0 56 -6.5 88.5t-25 48.5t-53.5 20.5t-91 4.5q-23 0 -53.5 -2t-59.5 -4.5t-49 -6.5v33q30 5 76 8.5t100 3.5q83 0 125 -15t58 -57q20 39 65 55.5t133 16.5q55 0 90.5 -7.5
t56 -25.5t30.5 -47.5t13 -73.5t3 -104v-13h-377q0 -67 6 -111t24 -68t55.5 -34t100.5 -10q27 0 58 2t60.5 5t52.5 7v-33q-19 -4 -48.5 -7t-62.5 -4.5t-65 -1.5q-63 0 -103 9t-63 31t-35 61q-17 -46 -50 -67.5t-73 -27.5t-82 -6zM248 24q35 0 68.5 3.5t60 16.5t39.5 43
q13 28 18 57t5 66v37h-213q-50 0 -77.5 -7.5t-38 -30.5t-10.5 -71q0 -46 12 -71t44 -34t92 -9zM816 261q1 74 -4.5 118.5t-22.5 67.5t-49 31t-85 8q-61 0 -97.5 -7.5t-54.5 -28.5t-23.5 -62t-5.5 -109h358zM408 606v5l107 133h46v-5l-126 -133h-27z" />
    <glyph glyph-name="Oslashacute" unicode="&#x1fe;" horiz-adv-x="726" 
d="M90 -55l508 798h38l-509 -798h-37zM363 -8q-77 0 -127.5 7t-80 27t-43.5 59t-18 102t-4 157t4 157t18 102t43.5 59t80 27t127.5 7t127.5 -7t80 -27t43.5 -59t18 -102t4 -157t-4 -157t-18 -102t-43.5 -59t-80 -27t-127.5 -7zM363 26q65 0 108 3.5t69 18.5t39 49t17 93.5
t4 153.5t-4 153.5t-17 93.5t-39 49t-69 18.5t-108 3.5t-108 -3.5t-69 -18.5t-39 -49t-17 -93.5t-4 -153.5t4 -153.5t17 -93.5t39 -49t69 -18.5t108 -3.5zM328 784v5l107 133h46v-5l-126 -133h-27z" />
    <glyph glyph-name="oslashacute" unicode="&#x1ff;" horiz-adv-x="580" 
d="M76 -55l390 620h38l-391 -620h-37zM290 -8q-61 0 -100.5 6.5t-63 23t-34.5 46.5t-14 75.5t-3 110.5t3 111t14 76t34.5 46.5t63 23.5t100.5 7t100.5 -7t63 -23.5t34.5 -46.5t14 -76t3 -111t-3 -110.5t-14 -75.5t-34.5 -46.5t-63 -23t-100.5 -6.5zM290 24q68 0 105 9
t52.5 33t19 69.5t3.5 118.5t-3.5 119t-19 70.5t-52.5 33.5t-105 9q-67 0 -104.5 -9t-53 -33.5t-19 -70.5t-3.5 -119t3.5 -118.5t19 -69.5t53 -33t104.5 -9zM235 606v5l107 133h46v-5l-126 -133h-27z" />
    <glyph glyph-name="uni0200" unicode="&#x200;" horiz-adv-x="683" 
d="M40 0l284 688h35l284 -688h-39l-91 222h-344l-91 -222h-38zM183 256h316l-155 381h-5zM473 784h-27l-110 113v5h46l91 -113v-5zM304 784h-27l-110 113v5h46l91 -113v-5z" />
    <glyph glyph-name="uni0201" unicode="&#x201;" horiz-adv-x="574" 
d="M249 -8q-63 0 -104 11t-60.5 42.5t-19.5 92.5q0 56 13 87.5t46 44.5t92 13q12 0 37 -0.5t57.5 -1.5t66 -1.5t62.5 -1.5v46q0 56 -6.5 88.5t-25 48.5t-53.5 20.5t-91 4.5q-23 0 -53.5 -2t-59.5 -4.5t-49 -6.5v33q30 5 76 8.5t100 3.5q49 0 83.5 -5t57 -17t34.5 -33.5
t17 -54t5 -78.5v-330h-28l-3 83h-4q-14 -41 -45.5 -60.5t-70 -25t-74.5 -5.5zM248 24q35 0 68.5 3.5t59.5 16t39 40.5q14 30 19 59.5t5 66.5v41h-213q-50 0 -77.5 -8t-38 -32t-10.5 -73q0 -46 12 -71t44 -34t92 -9zM410 606h-27l-110 113v5h46l91 -113v-5zM241 606h-27
l-110 113v5h46l91 -113v-5z" />
    <glyph glyph-name="uni0202" unicode="&#x202;" horiz-adv-x="683" 
d="M40 0l284 688h35l284 -688h-39l-91 222h-344l-91 -222h-38zM183 256h316l-155 381h-5zM342 920q48 0 74.5 -10.5t37.5 -29.5t13.5 -44.5t2.5 -56.5h-31q0 38 -4 63t-24.5 37.5t-68.5 12.5t-68.5 -12.5t-25 -37.5t-4.5 -63h-31q0 31 2.5 56.5t14 44.5t38 29.5t74.5 10.5z
" />
    <glyph glyph-name="uni0203" unicode="&#x203;" horiz-adv-x="574" 
d="M249 -8q-63 0 -104 11t-60.5 42.5t-19.5 92.5q0 56 13 87.5t46 44.5t92 13q12 0 37 -0.5t57.5 -1.5t66 -1.5t62.5 -1.5v46q0 56 -6.5 88.5t-25 48.5t-53.5 20.5t-91 4.5q-23 0 -53.5 -2t-59.5 -4.5t-49 -6.5v33q30 5 76 8.5t100 3.5q49 0 83.5 -5t57 -17t34.5 -33.5
t17 -54t5 -78.5v-330h-28l-3 83h-4q-14 -41 -45.5 -60.5t-70 -25t-74.5 -5.5zM248 24q35 0 68.5 3.5t59.5 16t39 40.5q14 30 19 59.5t5 66.5v41h-213q-50 0 -77.5 -8t-38 -32t-10.5 -73q0 -46 12 -71t44 -34t92 -9zM291 742q48 0 74.5 -10.5t37.5 -29.5t13.5 -44.5
t2.5 -56.5h-31q0 38 -4 63t-24.5 37.5t-68.5 12.5t-68.5 -12.5t-25 -37.5t-4.5 -63h-31q0 31 2.5 56.5t14 44.5t38 29.5t74.5 10.5z" />
    <glyph glyph-name="uni0204" unicode="&#x204;" horiz-adv-x="598" 
d="M115 0v688h426v-34h-390v-289h343v-34h-343v-297h390v-34h-426zM464 784h-27l-110 113v5h46l91 -113v-5zM295 784h-27l-110 113v5h46l91 -113v-5z" />
    <glyph glyph-name="uni0205" unicode="&#x205;" horiz-adv-x="562" 
d="M291 -8q-57 0 -95.5 7t-62.5 24.5t-36.5 47.5t-17 75t-4.5 108q0 75 5 125.5t25 81t65 44t124 13.5q55 0 90.5 -8t56 -25.5t30.5 -48t13 -75t3 -105.5v-13h-377q0 -66 6 -109t24 -67t55.5 -33.5t100.5 -9.5q27 0 58 2t60.5 5t52.5 7v-33q-19 -4 -48.5 -7t-62.5 -4.5
t-65 -1.5zM452 255v41q0 64 -7.5 102t-25.5 57t-49.5 25t-78.5 6q-61 0 -97.5 -7.5t-54.5 -29.5t-23.5 -63.5t-5.5 -110.5h362zM405 606h-27l-110 113v5h46l91 -113v-5zM236 606h-27l-110 113v5h46l91 -113v-5z" />
    <glyph glyph-name="uni0206" unicode="&#x206;" horiz-adv-x="598" 
d="M115 0v688h426v-34h-390v-289h343v-34h-343v-297h390v-34h-426zM333 920q48 0 74.5 -10.5t37.5 -29.5t13.5 -44.5t2.5 -56.5h-31q0 38 -4 63t-24.5 37.5t-68.5 12.5t-68.5 -12.5t-25 -37.5t-4.5 -63h-31q0 31 2.5 56.5t14 44.5t38 29.5t74.5 10.5z" />
    <glyph glyph-name="uni0207" unicode="&#x207;" horiz-adv-x="562" 
d="M291 -8q-57 0 -95.5 7t-62.5 24.5t-36.5 47.5t-17 75t-4.5 108q0 75 5 125.5t25 81t65 44t124 13.5q55 0 90.5 -8t56 -25.5t30.5 -48t13 -75t3 -105.5v-13h-377q0 -66 6 -109t24 -67t55.5 -33.5t100.5 -9.5q27 0 58 2t60.5 5t52.5 7v-33q-19 -4 -48.5 -7t-62.5 -4.5
t-65 -1.5zM452 255v41q0 64 -7.5 102t-25.5 57t-49.5 25t-78.5 6q-61 0 -97.5 -7.5t-54.5 -29.5t-23.5 -63.5t-5.5 -110.5h362zM286 742q48 0 74.5 -10.5t37.5 -29.5t13.5 -44.5t2.5 -56.5h-31q0 38 -4 63t-24.5 37.5t-68.5 12.5t-68.5 -12.5t-25 -37.5t-4.5 -63h-31
q0 31 2.5 56.5t14 44.5t38 29.5t74.5 10.5z" />
    <glyph glyph-name="uni0208" unicode="&#x208;" horiz-adv-x="266" 
d="M115 0v688h36v-688h-36zM264 784h-27l-110 113v5h46l91 -113v-5zM95 784h-27l-110 113v5h46l91 -113v-5z" />
    <glyph glyph-name="uni0209" unicode="&#x209;" horiz-adv-x="235" 
d="M100 0v510h35v-510h-35zM237 606h-27l-110 113v5h46l91 -113v-5zM68 606h-27l-110 113v5h46l91 -113v-5z" />
    <glyph glyph-name="uni020A" unicode="&#x20a;" horiz-adv-x="266" 
d="M115 0v688h36v-688h-36zM133 920q48 0 74.5 -10.5t37.5 -29.5t13.5 -44.5t2.5 -56.5h-31q0 38 -4 63t-24.5 37.5t-68.5 12.5t-68.5 -12.5t-25 -37.5t-4.5 -63h-31q0 31 2.5 56.5t14 44.5t38 29.5t74.5 10.5z" />
    <glyph glyph-name="uni020B" unicode="&#x20b;" horiz-adv-x="235" 
d="M100 0v510h35v-510h-35zM118 742q48 0 74.5 -10.5t37.5 -29.5t13.5 -44.5t2.5 -56.5h-31q0 38 -4 63t-24.5 37.5t-68.5 12.5t-68.5 -12.5t-25 -37.5t-4.5 -63h-31q0 31 2.5 56.5t14 44.5t38 29.5t74.5 10.5z" />
    <glyph glyph-name="uni020C" unicode="&#x20c;" horiz-adv-x="726" 
d="M363 -8q-77 0 -127.5 7t-80 27t-43.5 59t-18 102t-4 157t4 157t18 102t43.5 59t80 27t127.5 7t127.5 -7t80 -27t43.5 -59t18 -102t4 -157t-4 -157t-18 -102t-43.5 -59t-80 -27t-127.5 -7zM363 26q65 0 108 3.5t69 18.5t39 49t17 93.5t4 153.5t-4 153.5t-17 93.5t-39 49
t-69 18.5t-108 3.5t-108 -3.5t-69 -18.5t-39 -49t-17 -93.5t-4 -153.5t4 -153.5t17 -93.5t39 -49t69 -18.5t108 -3.5zM494 784h-27l-110 113v5h46l91 -113v-5zM325 784h-27l-110 113v5h46l91 -113v-5z" />
    <glyph glyph-name="uni020D" unicode="&#x20d;" horiz-adv-x="580" 
d="M290 -8q-61 0 -100.5 6.5t-63 23t-34.5 46.5t-14 75.5t-3 110.5t3 111t14 76t34.5 46.5t63 23.5t100.5 7t100.5 -7t63 -23.5t34.5 -46.5t14 -76t3 -111t-3 -110.5t-14 -75.5t-34.5 -46.5t-63 -23t-100.5 -6.5zM290 24q68 0 105 9t52.5 33t19 69.5t3.5 118.5t-3.5 119
t-19 70.5t-52.5 33.5t-105 9q-67 0 -104.5 -9t-53 -33.5t-19 -70.5t-3.5 -119t3.5 -118.5t19 -69.5t53 -33t104.5 -9zM409 606h-27l-110 113v5h46l91 -113v-5zM240 606h-27l-110 113v5h46l91 -113v-5z" />
    <glyph glyph-name="uni020E" unicode="&#x20e;" horiz-adv-x="726" 
d="M363 -8q-77 0 -127.5 7t-80 27t-43.5 59t-18 102t-4 157t4 157t18 102t43.5 59t80 27t127.5 7t127.5 -7t80 -27t43.5 -59t18 -102t4 -157t-4 -157t-18 -102t-43.5 -59t-80 -27t-127.5 -7zM363 26q65 0 108 3.5t69 18.5t39 49t17 93.5t4 153.5t-4 153.5t-17 93.5t-39 49
t-69 18.5t-108 3.5t-108 -3.5t-69 -18.5t-39 -49t-17 -93.5t-4 -153.5t4 -153.5t17 -93.5t39 -49t69 -18.5t108 -3.5zM363 920q48 0 74.5 -10.5t37.5 -29.5t13.5 -44.5t2.5 -56.5h-31q0 38 -4 63t-24.5 37.5t-68.5 12.5t-68.5 -12.5t-25 -37.5t-4.5 -63h-31q0 31 2.5 56.5
t14 44.5t38 29.5t74.5 10.5z" />
    <glyph glyph-name="uni020F" unicode="&#x20f;" horiz-adv-x="580" 
d="M290 -8q-61 0 -100.5 6.5t-63 23t-34.5 46.5t-14 75.5t-3 110.5t3 111t14 76t34.5 46.5t63 23.5t100.5 7t100.5 -7t63 -23.5t34.5 -46.5t14 -76t3 -111t-3 -110.5t-14 -75.5t-34.5 -46.5t-63 -23t-100.5 -6.5zM290 24q68 0 105 9t52.5 33t19 69.5t3.5 118.5t-3.5 119
t-19 70.5t-52.5 33.5t-105 9q-67 0 -104.5 -9t-53 -33.5t-19 -70.5t-3.5 -119t3.5 -118.5t19 -69.5t53 -33t104.5 -9zM290 742q48 0 74.5 -10.5t37.5 -29.5t13.5 -44.5t2.5 -56.5h-31q0 38 -4 63t-24.5 37.5t-68.5 12.5t-68.5 -12.5t-25 -37.5t-4.5 -63h-31q0 31 2.5 56.5
t14 44.5t38 29.5t74.5 10.5z" />
    <glyph glyph-name="uni0210" unicode="&#x210;" horiz-adv-x="685" 
d="M115 0v688h306q64 0 100 -16.5t52.5 -45t20.5 -63.5t4 -72q0 -41 -6.5 -79.5t-30.5 -67.5t-77 -42l121 -302h-40l-121 304l15 -6q-7 -2 -18.5 -3t-34.5 -1h-255v-294h-36zM151 328h253q55 0 87 12t47 34t19.5 51.5t4.5 65.5t-3.5 65.5t-17 51.5t-42.5 34t-80 12h-268
v-326zM474 784h-27l-110 113v5h46l91 -113v-5zM305 784h-27l-110 113v5h46l91 -113v-5z" />
    <glyph glyph-name="uni0211" unicode="&#x211;" horiz-adv-x="341" 
d="M100 0v510h27l4 -109h4q12 48 37.5 73.5t61 34.5t77.5 9v-36q-73 0 -111 -26t-51.5 -76t-13.5 -121v-259h-35zM290 606h-27l-110 113v5h46l91 -113v-5zM121 606h-27l-110 113v5h46l91 -113v-5z" />
    <glyph glyph-name="uni0212" unicode="&#x212;" horiz-adv-x="685" 
d="M115 0v688h306q64 0 100 -16.5t52.5 -45t20.5 -63.5t4 -72q0 -41 -6.5 -79.5t-30.5 -67.5t-77 -42l121 -302h-40l-121 304l15 -6q-7 -2 -18.5 -3t-34.5 -1h-255v-294h-36zM151 328h253q55 0 87 12t47 34t19.5 51.5t4.5 65.5t-3.5 65.5t-17 51.5t-42.5 34t-80 12h-268
v-326zM343 920q48 0 74.5 -10.5t37.5 -29.5t13.5 -44.5t2.5 -56.5h-31q0 38 -4 63t-24.5 37.5t-68.5 12.5t-68.5 -12.5t-25 -37.5t-4.5 -63h-31q0 31 2.5 56.5t14 44.5t38 29.5t74.5 10.5z" />
    <glyph glyph-name="uni0213" unicode="&#x213;" horiz-adv-x="341" 
d="M100 0v510h27l4 -109h4q12 48 37.5 73.5t61 34.5t77.5 9v-36q-73 0 -111 -26t-51.5 -76t-13.5 -121v-259h-35zM171 742q48 0 74.5 -10.5t37.5 -29.5t13.5 -44.5t2.5 -56.5h-31q0 38 -4 63t-24.5 37.5t-68.5 12.5t-68.5 -12.5t-25 -37.5t-4.5 -63h-31q0 31 2.5 56.5
t14 44.5t38 29.5t74.5 10.5z" />
    <glyph glyph-name="uni0214" unicode="&#x214;" horiz-adv-x="717" 
d="M359 -8q-70 0 -116.5 8.5t-74 28.5t-41.5 55t-18 86.5t-4 123.5v394h36v-424q0 -72 6 -118t26.5 -72.5t65 -37t120.5 -10.5q77 0 120.5 10.5t64.5 37t26.5 72.5t5.5 118v424h36v-394q0 -72 -4 -123.5t-17.5 -86.5t-41 -55t-74 -28.5t-116.5 -8.5zM490 784h-27l-110 113v5
h46l91 -113v-5zM321 784h-27l-110 113v5h46l91 -113v-5z" />
    <glyph glyph-name="uni0215" unicode="&#x215;" horiz-adv-x="604" 
d="M287 -8q-61 0 -98 11t-56.5 34t-26 61t-6.5 92v320h35v-315q0 -55 6 -89t23 -52t48.5 -24t81.5 -6q66 0 102 17t51.5 47.5t18.5 71t3 86.5v264h35v-510h-28l-3 83h-4q-8 -24 -26 -44.5t-55 -33.5t-101 -13zM421 606h-27l-110 113v5h46l91 -113v-5zM252 606h-27l-110 113
v5h46l91 -113v-5z" />
    <glyph glyph-name="uni0216" unicode="&#x216;" horiz-adv-x="717" 
d="M359 -8q-70 0 -116.5 8.5t-74 28.5t-41.5 55t-18 86.5t-4 123.5v394h36v-424q0 -72 6 -118t26.5 -72.5t65 -37t120.5 -10.5q77 0 120.5 10.5t64.5 37t26.5 72.5t5.5 118v424h36v-394q0 -72 -4 -123.5t-17.5 -86.5t-41 -55t-74 -28.5t-116.5 -8.5zM359 920
q48 0 74.5 -10.5t37.5 -29.5t13.5 -44.5t2.5 -56.5h-31q0 38 -4 63t-24.5 37.5t-68.5 12.5t-68.5 -12.5t-25 -37.5t-4.5 -63h-31q0 31 2.5 56.5t14 44.5t38 29.5t74.5 10.5z" />
    <glyph glyph-name="uni0217" unicode="&#x217;" horiz-adv-x="604" 
d="M287 -8q-61 0 -98 11t-56.5 34t-26 61t-6.5 92v320h35v-315q0 -55 6 -89t23 -52t48.5 -24t81.5 -6q66 0 102 17t51.5 47.5t18.5 71t3 86.5v264h35v-510h-28l-3 83h-4q-8 -24 -26 -44.5t-55 -33.5t-101 -13zM302 742q48 0 74.5 -10.5t37.5 -29.5t13.5 -44.5t2.5 -56.5h-31
q0 38 -4 63t-24.5 37.5t-68.5 12.5t-68.5 -12.5t-25 -37.5t-4.5 -63h-31q0 31 2.5 56.5t14 44.5t38 29.5t74.5 10.5z" />
    <glyph glyph-name="uni0218" unicode="&#x218;" horiz-adv-x="636" 
d="M333 -8q-36 0 -78.5 1.5t-82.5 4.5t-72 6v35q34 -3 74.5 -6t80 -5t68.5 -2q52 0 87 4t65 20q20 11 29.5 31t12.5 46.5t3 55.5q0 46 -2.5 73t-14 41.5t-38 21t-73.5 11.5l-183 19q-48 5 -74.5 18.5t-38 34.5t-14 49.5t-2.5 63.5q0 57 14 93t43 55t74 26t107 7
q38 0 76.5 -1.5t72 -4.5t54.5 -7v-33q-28 4 -63 6.5t-70.5 4t-66.5 1.5q-62 0 -101.5 -6.5t-63.5 -23.5q-26 -17 -33 -47.5t-7 -71.5q0 -48 6.5 -74.5t28 -38t64.5 -16.5l174 -18q44 -4 76.5 -10t53 -20.5t29.5 -45.5q4 -12 5.5 -27.5t2 -34t0.5 -40.5q0 -56 -10 -92.5
t-29.5 -57.5t-47 -31t-61.5 -12.5t-75 -2.5zM265 -256v21q23 0 33.5 5.5t13.5 19.5t3 38v17h-20v65h48v-75q0 -27 -3.5 -44.5t-12 -28t-23.5 -14.5t-39 -4z" />
    <glyph glyph-name="uni0219" unicode="&#x219;" horiz-adv-x="500" 
d="M254 -8q-26 0 -57.5 1.5t-61.5 4t-54 5.5v33q35 -4 59 -6t43.5 -3.5t39 -2t45.5 -0.5q58 0 86 11t37 35t9 63q0 46 -7 66.5t-23.5 26.5t-46.5 9l-148 14q-44 5 -68 17t-33 38t-9 69q0 50 12.5 79.5t37.5 43.5t61 18t82 4q23 0 49.5 -1.5t52.5 -4t47 -6.5v-33
q-29 5 -54.5 8t-52 4t-59.5 1q-41 0 -73 -5.5t-50 -27.5t-18 -73q0 -40 7 -59.5t24.5 -26.5t47.5 -10l143 -14q46 -4 70 -15t33.5 -38.5t9.5 -83.5q0 -44 -10 -71.5t-32 -42.5t-56.5 -21t-82.5 -6zM197 -256v21q23 0 33.5 5.5t13.5 19.5t3 38v17h-20v65h48v-75
q0 -27 -3.5 -44.5t-12 -28t-23.5 -14.5t-39 -4z" />
    <glyph glyph-name="uni021A" unicode="&#x21a;" horiz-adv-x="582" 
d="M273 0v654h-233v34h502v-34h-233v-654h-36zM238 -256v21q23 0 33.5 5.5t13.5 19.5t3 38v17h-20v65h48v-75q0 -27 -3.5 -44.5t-12 -28t-23.5 -14.5t-39 -4z" />
    <glyph glyph-name="uni021B" unicode="&#x21b;" horiz-adv-x="329" 
d="M138 0v478h-108v32h108v148h35v-148h126v-32h-126v-478h-35zM103 -256v21q23 0 33.5 5.5t13.5 19.5t3 38v17h-20v65h48v-75q0 -27 -3.5 -44.5t-12 -28t-23.5 -14.5t-39 -4z" />
    <glyph glyph-name="uni022A" unicode="&#x22a;" horiz-adv-x="726" 
d="M363 -8q-77 0 -127.5 7t-80 27t-43.5 59t-18 102t-4 157t4 157t18 102t43.5 59t80 27t127.5 7t127.5 -7t80 -27t43.5 -59t18 -102t4 -157t-4 -157t-18 -102t-43.5 -59t-80 -27t-127.5 -7zM363 26q65 0 108 3.5t69 18.5t39 49t17 93.5t4 153.5t-4 153.5t-17 93.5t-39 49
t-69 18.5t-108 3.5t-108 -3.5t-69 -18.5t-39 -49t-17 -93.5t-4 -153.5t4 -153.5t17 -93.5t39 -49t69 -18.5t108 -3.5zM236 828v61h43v-61h-43zM446 828v61h43v-61h-43zM230 1008v31h265v-31h-265z" />
    <glyph glyph-name="uni022B" unicode="&#x22b;" horiz-adv-x="580" 
d="M290 -8q-61 0 -100.5 6.5t-63 23t-34.5 46.5t-14 75.5t-3 110.5t3 111t14 76t34.5 46.5t63 23.5t100.5 7t100.5 -7t63 -23.5t34.5 -46.5t14 -76t3 -111t-3 -110.5t-14 -75.5t-34.5 -46.5t-63 -23t-100.5 -6.5zM290 24q68 0 105 9t52.5 33t19 69.5t3.5 118.5t-3.5 119
t-19 70.5t-52.5 33.5t-105 9q-67 0 -104.5 -9t-53 -33.5t-19 -70.5t-3.5 -119t3.5 -118.5t19 -69.5t53 -33t104.5 -9zM163 650v61h43v-61h-43zM373 650v61h43v-61h-43zM157 815v31h265v-31h-265z" />
    <glyph glyph-name="uni022C" unicode="&#x22c;" horiz-adv-x="726" 
d="M363 -8q-77 0 -127.5 7t-80 27t-43.5 59t-18 102t-4 157t4 157t18 102t43.5 59t80 27t127.5 7t127.5 -7t80 -27t43.5 -59t18 -102t4 -157t-4 -157t-18 -102t-43.5 -59t-80 -27t-127.5 -7zM363 26q65 0 108 3.5t69 18.5t39 49t17 93.5t4 153.5t-4 153.5t-17 93.5t-39 49
t-69 18.5t-108 3.5t-108 -3.5t-69 -18.5t-39 -49t-17 -93.5t-4 -153.5t4 -153.5t17 -93.5t39 -49t69 -18.5t108 -3.5zM201 799q0 35 4.5 56t18 30t39.5 9q28 0 55 -8.5t55 -19.5q22 -8 43.5 -15.5t45.5 -7.5q23 0 29 14t6 48h27q0 -35 -4.5 -56t-18 -30t-39.5 -9
q-30 0 -55.5 9t-54.5 19q-22 8 -43.5 15.5t-45.5 7.5q-22 0 -28.5 -14t-6.5 -48h-27zM230 1006v31h265v-31h-265z" />
    <glyph glyph-name="uni022D" unicode="&#x22d;" horiz-adv-x="580" 
d="M290 -8q-61 0 -100.5 6.5t-63 23t-34.5 46.5t-14 75.5t-3 110.5t3 111t14 76t34.5 46.5t63 23.5t100.5 7t100.5 -7t63 -23.5t34.5 -46.5t14 -76t3 -111t-3 -110.5t-14 -75.5t-34.5 -46.5t-63 -23t-100.5 -6.5zM290 24q68 0 105 9t52.5 33t19 69.5t3.5 118.5t-3.5 119
t-19 70.5t-52.5 33.5t-105 9q-67 0 -104.5 -9t-53 -33.5t-19 -70.5t-3.5 -119t3.5 -118.5t19 -69.5t53 -33t104.5 -9zM128 621q0 35 4.5 56t18 30t39.5 9q28 0 55 -8.5t55 -19.5q22 -8 43.5 -15.5t45.5 -7.5q23 0 29 14t6 48h27q0 -35 -4.5 -56t-18 -30t-39.5 -9
q-30 0 -55.5 9t-54.5 19q-22 8 -43.5 15.5t-45.5 7.5q-22 0 -28.5 -14t-6.5 -48h-27zM157 828v31h265v-31h-265z" />
    <glyph glyph-name="uni0230" unicode="&#x230;" horiz-adv-x="726" 
d="M363 -8q-77 0 -127.5 7t-80 27t-43.5 59t-18 102t-4 157t4 157t18 102t43.5 59t80 27t127.5 7t127.5 -7t80 -27t43.5 -59t18 -102t4 -157t-4 -157t-18 -102t-43.5 -59t-80 -27t-127.5 -7zM363 26q65 0 108 3.5t69 18.5t39 49t17 93.5t4 153.5t-4 153.5t-17 93.5t-39 49
t-69 18.5t-108 3.5t-108 -3.5t-69 -18.5t-39 -49t-17 -93.5t-4 -153.5t4 -153.5t17 -93.5t39 -49t69 -18.5t108 -3.5zM341 829v61h43v-61h-43zM230 993v31h265v-31h-265z" />
    <glyph glyph-name="uni0231" unicode="&#x231;" horiz-adv-x="580" 
d="M290 -8q-61 0 -100.5 6.5t-63 23t-34.5 46.5t-14 75.5t-3 110.5t3 111t14 76t34.5 46.5t63 23.5t100.5 7t100.5 -7t63 -23.5t34.5 -46.5t14 -76t3 -111t-3 -110.5t-14 -75.5t-34.5 -46.5t-63 -23t-100.5 -6.5zM290 24q68 0 105 9t52.5 33t19 69.5t3.5 118.5t-3.5 119
t-19 70.5t-52.5 33.5t-105 9q-67 0 -104.5 -9t-53 -33.5t-19 -70.5t-3.5 -119t3.5 -118.5t19 -69.5t53 -33t104.5 -9zM268 650v61h43v-61h-43zM157 815v31h265v-31h-265z" />
    <glyph glyph-name="uni0232" unicode="&#x232;" horiz-adv-x="599" 
d="M281 0v281l-261 407h42l234 -369h7l235 369h41l-262 -407v-281h-36zM167 828v31h265v-31h-265z" />
    <glyph glyph-name="uni0233" unicode="&#x233;" horiz-adv-x="604" 
d="M284 -206q-29 0 -60.5 1t-60 2.5t-49.5 3.5v33q27 -2 56 -4t57 -3t52 -1q65 0 103.5 13t57 40t24 69t5.5 100v27h-4q-6 -18 -23.5 -37.5t-54 -32.5t-100.5 -13q-61 0 -98 11t-56.5 34t-26 61t-6.5 92v320h35v-315q0 -55 6 -89t23 -52t48.5 -24t81.5 -6q66 0 102 17
t51.5 47.5t18.5 71t3 86.5v264h35v-443q0 -76 -8.5 -128.5t-31.5 -84t-66.5 -46t-113.5 -14.5zM169 650v31h265v-31h-265z" />
    <glyph glyph-name="uni0237" unicode="&#x237;" horiz-adv-x="235" 
d="M-2 -200v30q47 0 68.5 5t27.5 17.5t6 34.5v623h35v-613q0 -34 -8.5 -54t-25.5 -29t-42.5 -11.5t-60.5 -2.5z" />
    <glyph glyph-name="uni0259" unicode="&#x259;" horiz-adv-x="562" 
d="M271 518q57 0 95.5 -7t62.5 -24.5t36.5 -47.5t17 -75t4.5 -108q0 -75 -5 -125.5t-25 -81t-64.5 -44t-124.5 -13.5q-55 0 -90.5 8t-56 25.5t-30.5 48t-13 75t-3 105.5v13h377q0 66 -6 109t-24 67t-55.5 33.5t-100.5 9.5q-27 0 -58 -2t-60.5 -5t-52.5 -7v33q20 4 49 7
t62 4.5t65 1.5zM110 255v-41q0 -64 7.5 -102t25.5 -57t49.5 -25t78.5 -6q61 0 97.5 7.5t54.5 29.5t23.5 63.5t5.5 110.5h-362z" />
    <glyph glyph-name="uni0272" unicode="&#x272;" horiz-adv-x="604" 
d="M-2 -200v30q47 0 68.5 5t27.5 17.5t6 34.5v623h28l3 -83h4q8 24 26 44.5t55 33.5t101 13q61 0 98 -11t56.5 -34t26 -61t6.5 -92v-320h-35v315q0 56 -6 89.5t-23 51.5t-48.5 24t-81.5 6q-66 0 -102 -17t-51.5 -47.5t-18.5 -71t-3 -86.5v-367q0 -34 -8.5 -54t-25.5 -29
t-42.5 -11.5t-60.5 -2.5z" />
    <glyph glyph-name="uni02B9" unicode="&#x2b9;" horiz-adv-x="59" 
d="M0 394l20 294h39l-10 -149l-26 -145h-23z" />
    <glyph glyph-name="uni02BA" unicode="&#x2ba;" horiz-adv-x="179" 
d="M120 394l20 294h39l-10 -149l-26 -145h-23zM0 394l20 294h39l-10 -149l-26 -145h-23z" />
    <glyph glyph-name="uni02BC" unicode="&#x2bc;" horiz-adv-x="78" 
d="M0 577v21q23 0 33.5 5.5t13.5 19.5t3 38v17h-20v65h48v-75q0 -27 -3.5 -44.5t-12 -28t-23.5 -14.5t-39 -4z" />
    <glyph glyph-name="circumflex" unicode="&#x2c6;" horiz-adv-x="260" 
d="M0 606v5l107 133h46l107 -133v-5h-27l-103 108l-103 -108h-27z" />
    <glyph glyph-name="caron" unicode="&#x2c7;" horiz-adv-x="260" 
d="M107 606l-107 132v5h27l103 -107l103 107h27v-5l-107 -132h-46z" />
    <glyph glyph-name="uni02C9" unicode="&#x2c9;" horiz-adv-x="265" 
d="M0 650v31h265v-31h-265z" />
    <glyph glyph-name="breve" unicode="&#x2d8;" horiz-adv-x="257" 
d="M128 597q-48 0 -74.5 10.5t-37.5 29.5t-13.5 44.5t-2.5 56.5h31q0 -37 4 -62.5t24.5 -38t68.5 -12.5t68.5 12.5t25 38t4.5 62.5h31q0 -31 -2.5 -56.5t-14 -44.5t-38 -29.5t-74.5 -10.5z" />
    <glyph glyph-name="dotaccent" unicode="&#x2d9;" horiz-adv-x="43" 
d="M0 650v61h43v-61h-43z" />
    <glyph glyph-name="ring" unicode="&#x2da;" horiz-adv-x="225" 
d="M112 592q-40 0 -62.5 5t-33 15.5t-13.5 28.5t-3 44t3 44t13.5 29t33 16t62.5 5t63 -5t33.5 -16t13.5 -29t3 -44t-3 -44t-13.5 -28.5t-33.5 -15.5t-63 -5zM112 620q40 0 57 5.5t20.5 20t3.5 39.5q0 26 -3.5 40.5t-20.5 20.5t-57 6q-39 0 -56 -6t-20.5 -20.5t-3.5 -40.5
q0 -25 3.5 -39.5t20.5 -20t56 -5.5z" />
    <glyph glyph-name="ogonek" unicode="&#x2db;" horiz-adv-x="98" 
d="M76 -196q-27 0 -44 9.5t-24.5 26t-7.5 36.5q0 33 21 71t54 67l22 -10q-13 -12 -28 -33t-25 -44.5t-10 -44.5q0 -19 10.5 -32.5t36.5 -13.5h6.5t10.5 1v-32q-7 -1 -11 -1h-11z" />
    <glyph glyph-name="tilde" unicode="&#x2dc;" horiz-adv-x="323" 
d="M0 621q0 35 4.5 56t18 30t39.5 9q28 0 55 -8.5t55 -19.5q22 -8 43.5 -15.5t45.5 -7.5q23 0 29 14t6 48h27q0 -35 -4.5 -56t-18 -30t-39.5 -9q-30 0 -55.5 9t-54.5 19q-22 8 -43.5 15.5t-45.5 7.5q-22 0 -28.5 -14t-6.5 -48h-27z" />
    <glyph glyph-name="hungarumlaut" unicode="&#x2dd;" horiz-adv-x="306" 
d="M0 606v5l91 113h46v-5l-110 -113h-27zM169 606v5l91 113h46v-5l-110 -113h-27z" />
    <glyph glyph-name="gravecomb" unicode="&#x300;" 
d="M126 606l-126 132v5h46l107 -132v-5h-27z" />
    <glyph glyph-name="acutecomb" unicode="&#x301;" 
d="M0 606v5l107 133h46v-5l-126 -133h-27z" />
    <glyph glyph-name="uni0302" unicode="&#x302;" 
d="M0 606v5l107 133h46l107 -133v-5h-27l-103 108l-103 -108h-27z" />
    <glyph glyph-name="tildecomb" unicode="&#x303;" 
d="M0 621q0 35 4.5 56t18 30t39.5 9q28 0 55 -8.5t55 -19.5q22 -8 43.5 -15.5t45.5 -7.5q23 0 29 14t6 48h27q0 -35 -4.5 -56t-18 -30t-39.5 -9q-30 0 -55.5 9t-54.5 19q-22 8 -43.5 15.5t-45.5 7.5q-22 0 -28.5 -14t-6.5 -48h-27z" />
    <glyph glyph-name="uni0304" unicode="&#x304;" 
d="M0 650v31h265v-31h-265z" />
    <glyph glyph-name="uni0306" unicode="&#x306;" 
d="M128 597q-48 0 -74.5 10.5t-37.5 29.5t-13.5 44.5t-2.5 56.5h31q0 -37 4 -62.5t24.5 -38t68.5 -12.5t68.5 12.5t25 38t4.5 62.5h31q0 -31 -2.5 -56.5t-14 -44.5t-38 -29.5t-74.5 -10.5z" />
    <glyph glyph-name="uni0307" unicode="&#x307;" 
d="M0 650v61h43v-61h-43z" />
    <glyph glyph-name="uni0308" unicode="&#x308;" 
d="M0 650v61h43v-61h-43zM210 650v61h43v-61h-43z" />
    <glyph glyph-name="hookabovecomb" unicode="&#x309;" 
d="M75 592v11q0 16 4 24.5t13 14t25 9.5l26 7q27 8 40 13.5t17 13t4 21.5q0 22 -8 30.5t-30 10.5t-64 2q-12 0 -29 -0.5t-36 -1.5t-37 -3v26q24 3 55.5 4.5t54.5 1.5q45 0 72.5 -4.5t40 -18.5t12.5 -43q0 -19 -3.5 -32t-15.5 -22t-38 -16l-30 -8q-22 -6 -31.5 -10
t-11.5 -10.5t-2 -19.5h-28z" />
    <glyph glyph-name="uni030A" unicode="&#x30a;" 
d="M112 592q-40 0 -62.5 5t-33 15.5t-13.5 28.5t-3 44t3 44t13.5 29t33 16t62.5 5t63 -5t33.5 -16t13.5 -29t3 -44t-3 -44t-13.5 -28.5t-33.5 -15.5t-63 -5zM112 620q40 0 57 5.5t20.5 20t3.5 39.5q0 26 -3.5 40.5t-20.5 20.5t-57 6q-39 0 -56 -6t-20.5 -20.5t-3.5 -40.5
q0 -25 3.5 -39.5t20.5 -20t56 -5.5z" />
    <glyph glyph-name="uni030B" unicode="&#x30b;" 
d="M0 606v5l91 113h46v-5l-110 -113h-27zM169 606v5l91 113h46v-5l-110 -113h-27z" />
    <glyph glyph-name="uni030C" unicode="&#x30c;" 
d="M107 606l-107 132v5h27l103 -107l103 107h27v-5l-107 -132h-46z" />
    <glyph glyph-name="uni030F" unicode="&#x30f;" 
d="M306 606h-27l-110 113v5h46l91 -113v-5zM137 606h-27l-110 113v5h46l91 -113v-5z" />
    <glyph glyph-name="uni0311" unicode="&#x311;" 
d="M129 742q48 0 74.5 -10.5t37.5 -29.5t13.5 -44.5t2.5 -56.5h-31q0 38 -4 63t-24.5 37.5t-68.5 12.5t-68.5 -12.5t-25 -37.5t-4.5 -63h-31q0 31 2.5 56.5t14 44.5t38 29.5t74.5 10.5z" />
    <glyph glyph-name="uni0312" unicode="&#x312;" 
d="M0 585v75q0 27 3.5 44.5t12 28t23.5 14.5t39 4v-21q-34 0 -42 -13t-8 -50v-17h20v-65h-48z" />
    <glyph glyph-name="uni031B" unicode="&#x31b;" 
d="M0 482v28h59q34 0 42 13t8 50v35h33v-28q0 -29 -3.5 -48t-12.5 -30t-25.5 -15.5t-41.5 -4.5h-59z" />
    <glyph glyph-name="dotbelowcomb" unicode="&#x323;" 
d="M0 -187v57h44v-57h-44z" />
    <glyph glyph-name="uni0324" unicode="&#x324;" 
d="M0 -143v61h43v-61h-43zM210 -143v61h43v-61h-43z" />
    <glyph glyph-name="uni0326" unicode="&#x326;" 
d="M0 -256v21q23 0 33.5 5.5t13.5 19.5t3 38v17h-20v65h48v-75q0 -27 -3.5 -44.5t-12 -28t-23.5 -14.5t-39 -4z" />
    <glyph glyph-name="uni0327" unicode="&#x327;" 
d="M0 -190v5l60 203h26v-5l-46 -203h-40z" />
    <glyph glyph-name="uni0328" unicode="&#x328;" 
d="M76 -196q-27 0 -44 9.5t-24.5 26t-7.5 36.5q0 33 21 71t54 67l22 -10q-13 -12 -28 -33t-25 -44.5t-10 -44.5q0 -19 10.5 -32.5t36.5 -13.5h6.5t10.5 1v-32q-7 -1 -11 -1h-11z" />
    <glyph glyph-name="uni032E" unicode="&#x32e;" 
d="M128 -208q-48 0 -74.5 10.5t-37.5 29.5t-13.5 44.5t-2.5 56.5h31q0 -37 4 -62.5t24.5 -38t68.5 -12.5t68.5 12.5t25 38t4.5 62.5h31q0 -31 -2.5 -56.5t-14 -44.5t-38 -29.5t-74.5 -10.5z" />
    <glyph glyph-name="uni0331" unicode="&#x331;" 
d="M0 -154v31h265v-31h-265z" />
    <glyph glyph-name="uni0335" unicode="&#x335;" 
d="M0 331v36h235v-36h-235z" />
    <glyph glyph-name="uni0336" unicode="&#x336;" 
d="M0 494v36h508v-36h-508z" />
    <glyph glyph-name="uni0394" unicode="&#x394;" horiz-adv-x="683" 
d="M40 0l284 688h35l284 -688h-603zM92 34h498l-246 603h-5z" />
    <glyph glyph-name="uni03A9" unicode="&#x3a9;" horiz-adv-x="726" 
d="M93 0v34h3l120 -8v6q-58 17 -85 58t-34 108t-7 160q0 82 4 140t18 96.5t43.5 61t80 31.5t127.5 9t127.5 -9t80 -31.5t43.5 -61t18 -96.5t4 -140q0 -93 -7.5 -160t-34 -108t-84.5 -58v-6l120 8h3v-34h-209v29q60 9 95.5 28.5t52.5 55.5t22.5 95.5t5.5 149.5q0 82 -4 137
t-17 88t-39 50.5t-69 23t-108 5.5t-108 -5.5t-69 -23t-39 -50.5t-17 -88t-4 -137q0 -90 5.5 -149.5t22.5 -95.5t52.5 -55.5t95.5 -28.5v-29h-209z" />
    <glyph glyph-name="uni03BC" unicode="&#x3bc;" horiz-adv-x="604" 
d="M100 -190v700h35v-315q0 -55 6 -89t23 -52t48.5 -24t81.5 -6q66 0 102 17t51.5 47.5t18.5 71t3 86.5v264h35v-510h-28l-3 83h-4q-8 -24 -26 -44.5t-55 -33.5t-101 -13q-44 0 -75.5 6.5t-52 20.5t-32.5 37l27 -20h-19v-226h-35z" />
    <glyph glyph-name="pi" unicode="&#x3c0;" horiz-adv-x="594" 
d="M100 0v510h394v-510h-35v478h-324v-478h-35z" />
    <glyph glyph-name="uni1E0C" unicode="&#x1e0c;" horiz-adv-x="693" 
d="M115 0v688h205q80 0 132 -6.5t82.5 -26.5t45.5 -58t19 -99.5t4 -153.5t-4 -153.5t-19 -99.5t-45.5 -58t-82.5 -26.5t-132 -6.5h-205zM151 34h149q76 0 125.5 3.5t78 18t42 47.5t17.5 91.5t4 149.5t-4 149.5t-18 91.5t-43 47.5t-78 18t-124 3.5h-149v-620zM325 -187v57h44
v-57h-44z" />
    <glyph glyph-name="uni1E0D" unicode="&#x1e0d;" horiz-adv-x="596" 
d="M276 -8q-64 0 -103.5 11.5t-60.5 40t-29 80t-8 131.5t8 131.5t29 80t60.5 40t103.5 11.5q49 0 85 -8t60 -26t36 -48h4v307h35v-743h-28l-3 83h-4q-14 -40 -42.5 -59.5t-65.5 -25.5t-77 -6zM286 24q66 0 106 18t53 58q12 36 14 75t2 94q0 36 -2 70t-11 61q-16 47 -56 66.5
t-111 19.5q-55 0 -89 -8t-52 -31.5t-24 -69.5t-6 -122t6.5 -122t24.5 -69.5t53 -31.5t92 -8zM276 -187v57h44v-57h-44z" />
    <glyph glyph-name="uni1E24" unicode="&#x1e24;" horiz-adv-x="738" 
d="M115 0v688h36v-323h436v323h36v-688h-36v331h-436v-331h-36zM347 -187v57h44v-57h-44z" />
    <glyph glyph-name="uni1E25" unicode="&#x1e25;" horiz-adv-x="604" 
d="M100 0v743h35v-308h4q7 19 24 38t53.5 32t100.5 13q61 0 98 -11t56.5 -34t26 -61t6.5 -92v-320h-35v315q0 56 -6 89.5t-23 51.5t-48.5 24t-81.5 6q-66 0 -102 -17t-51.5 -47.5t-18.5 -71t-3 -86.5v-264h-35zM280 -187v57h44v-57h-44z" />
    <glyph glyph-name="uni1E44" unicode="&#x1e44;" horiz-adv-x="738" 
d="M115 0v688h35l434 -622h4v622h35v-688h-35l-434 622h-4v-622h-35zM357 829v61h43v-61h-43z" />
    <glyph glyph-name="uni1E45" unicode="&#x1e45;" horiz-adv-x="604" 
d="M100 0v510h28l3 -83h4q8 24 26 44.5t55 33.5t101 13q61 0 98 -11t56.5 -34t26 -61t6.5 -92v-320h-35v315q0 56 -6 89.5t-23 51.5t-48.5 24t-81.5 6q-66 0 -102 -17t-51.5 -47.5t-18.5 -71t-3 -86.5v-264h-35zM280 650v61h43v-61h-43z" />
    <glyph glyph-name="uni1E5A" unicode="&#x1e5a;" horiz-adv-x="685" 
d="M115 0v688h306q64 0 100 -16.5t52.5 -45t20.5 -63.5t4 -72q0 -41 -6.5 -79.5t-30.5 -67.5t-77 -42l121 -302h-40l-121 304l15 -6q-7 -2 -18.5 -3t-34.5 -1h-255v-294h-36zM151 328h253q55 0 87 12t47 34t19.5 51.5t4.5 65.5t-3.5 65.5t-17 51.5t-42.5 34t-80 12h-268
v-326zM321 -187v57h44v-57h-44z" />
    <glyph glyph-name="uni1E5B" unicode="&#x1e5b;" horiz-adv-x="341" 
d="M100 0v510h27l4 -109h4q12 48 37.5 73.5t61 34.5t77.5 9v-36q-73 0 -111 -26t-51.5 -76t-13.5 -121v-259h-35zM96 -187v57h44v-57h-44z" />
    <glyph glyph-name="uni1E62" unicode="&#x1e62;" horiz-adv-x="636" 
d="M333 -8q-36 0 -78.5 1.5t-82.5 4.5t-72 6v35q34 -3 74.5 -6t80 -5t68.5 -2q52 0 87 4t65 20q20 11 29.5 31t12.5 46.5t3 55.5q0 46 -2.5 73t-14 41.5t-38 21t-73.5 11.5l-183 19q-48 5 -74.5 18.5t-38 34.5t-14 49.5t-2.5 63.5q0 57 14 93t43 55t74 26t107 7
q38 0 76.5 -1.5t72 -4.5t54.5 -7v-33q-28 4 -63 6.5t-70.5 4t-66.5 1.5q-62 0 -101.5 -6.5t-63.5 -23.5q-26 -17 -33 -47.5t-7 -71.5q0 -48 6.5 -74.5t28 -38t64.5 -16.5l174 -18q44 -4 76.5 -10t53 -20.5t29.5 -45.5q4 -12 5.5 -27.5t2 -34t0.5 -40.5q0 -56 -10 -92.5
t-29.5 -57.5t-47 -31t-61.5 -12.5t-75 -2.5zM296 -187v57h44v-57h-44z" />
    <glyph glyph-name="uni1E63" unicode="&#x1e63;" horiz-adv-x="500" 
d="M254 -8q-26 0 -57.5 1.5t-61.5 4t-54 5.5v33q35 -4 59 -6t43.5 -3.5t39 -2t45.5 -0.5q58 0 86 11t37 35t9 63q0 46 -7 66.5t-23.5 26.5t-46.5 9l-148 14q-44 5 -68 17t-33 38t-9 69q0 50 12.5 79.5t37.5 43.5t61 18t82 4q23 0 49.5 -1.5t52.5 -4t47 -6.5v-33
q-29 5 -54.5 8t-52 4t-59.5 1q-41 0 -73 -5.5t-50 -27.5t-18 -73q0 -40 7 -59.5t24.5 -26.5t47.5 -10l143 -14q46 -4 70 -15t33.5 -38.5t9.5 -83.5q0 -44 -10 -71.5t-32 -42.5t-56.5 -21t-82.5 -6zM228 -187v57h44v-57h-44z" />
    <glyph glyph-name="uni1E6C" unicode="&#x1e6c;" horiz-adv-x="582" 
d="M273 0v654h-233v34h502v-34h-233v-654h-36zM269 -187v57h44v-57h-44z" />
    <glyph glyph-name="uni1E6D" unicode="&#x1e6d;" horiz-adv-x="329" 
d="M138 0v478h-108v32h108v148h35v-148h126v-32h-126v-478h-35zM134 -187v57h44v-57h-44z" />
    <glyph glyph-name="Wgrave" unicode="&#x1e80;" horiz-adv-x="984" 
d="M252 0l-204 688h39l181 -623h6l200 623h38l200 -623h6l181 623h37l-204 -688h-35l-203 623h-4l-203 -623h-35zM518 785l-126 132v5h46l107 -132v-5h-27z" />
    <glyph glyph-name="wgrave" unicode="&#x1e81;" horiz-adv-x="803" 
d="M217 0l-178 510h38l155 -453h6l145 453h38l146 -453h6l154 453h37l-178 -510h-35l-147 449h-6l-146 -449h-35zM423 606l-126 132v5h46l107 -132v-5h-27z" />
    <glyph glyph-name="Wacute" unicode="&#x1e82;" horiz-adv-x="984" 
d="M252 0l-204 688h39l181 -623h6l200 623h38l200 -623h6l181 623h37l-204 -688h-35l-203 623h-4l-203 -623h-35zM457 784v5l107 133h46v-5l-126 -133h-27z" />
    <glyph glyph-name="wacute" unicode="&#x1e83;" horiz-adv-x="803" 
d="M217 0l-178 510h38l155 -453h6l145 453h38l146 -453h6l154 453h37l-178 -510h-35l-147 449h-6l-146 -449h-35zM347 606v5l107 133h46v-5l-126 -133h-27z" />
    <glyph glyph-name="Wdieresis" unicode="&#x1e84;" horiz-adv-x="984" 
d="M252 0l-204 688h39l181 -623h6l200 623h38l200 -623h6l181 623h37l-204 -688h-35l-203 623h-4l-203 -623h-35zM365 828v61h43v-61h-43zM575 828v61h43v-61h-43z" />
    <glyph glyph-name="wdieresis" unicode="&#x1e85;" horiz-adv-x="803" 
d="M217 0l-178 510h38l155 -453h6l145 453h38l146 -453h6l154 453h37l-178 -510h-35l-147 449h-6l-146 -449h-35zM275 650v61h43v-61h-43zM485 650v61h43v-61h-43z" />
    <glyph glyph-name="uni1E92" unicode="&#x1e92;" horiz-adv-x="601" 
d="M60 0v32l433 622h-422v34h467v-32l-432 -622h440v-34h-486zM279 -187v57h44v-57h-44z" />
    <glyph glyph-name="uni1E93" unicode="&#x1e93;" horiz-adv-x="496" 
d="M55 0v28l337 450h-325v32h372v-28l-336 -450h338v-32h-386zM229 -187v57h44v-57h-44z" />
    <glyph glyph-name="uni1E9E" unicode="&#x1e9e;" horiz-adv-x="716" 
d="M411 -8q-38 0 -85 4t-81 10v32q43 -5 90 -8.5t82 -3.5q65 0 104.5 14.5t56.5 48t17 90.5q0 54 -14.5 88t-46 49.5t-82.5 15.5h-118v22l213 288l-4 -16q-41 14 -75.5 21.5t-69.5 11t-75 3.5q-49 0 -82 -6.5t-53 -25t-30 -53.5t-13.5 -92t-3.5 -141v-344h-36v386
q0 79 5.5 133.5t18.5 89.5t37 54t60.5 26t88.5 7q54 0 101.5 -6.5t87.5 -17t70 -22.5v-28l-200 -271l-7 13h79q61 0 102 -19t62 -59.5t21 -105.5q0 -48 -12 -83t-38 -58.5t-68 -35t-102 -11.5z" />
    <glyph glyph-name="uni1EA0" unicode="&#x1ea0;" horiz-adv-x="683" 
d="M40 0l284 688h35l284 -688h-39l-91 222h-344l-91 -222h-38zM183 256h316l-155 381h-5zM320 -187v57h44v-57h-44z" />
    <glyph glyph-name="uni1EA1" unicode="&#x1ea1;" horiz-adv-x="574" 
d="M249 -8q-63 0 -104 11t-60.5 42.5t-19.5 92.5q0 56 13 87.5t46 44.5t92 13q12 0 37 -0.5t57.5 -1.5t66 -1.5t62.5 -1.5v46q0 56 -6.5 88.5t-25 48.5t-53.5 20.5t-91 4.5q-23 0 -53.5 -2t-59.5 -4.5t-49 -6.5v33q30 5 76 8.5t100 3.5q49 0 83.5 -5t57 -17t34.5 -33.5
t17 -54t5 -78.5v-330h-28l-3 83h-4q-14 -41 -45.5 -60.5t-70 -25t-74.5 -5.5zM248 24q35 0 68.5 3.5t59.5 16t39 40.5q14 30 19 59.5t5 66.5v41h-213q-50 0 -77.5 -8t-38 -32t-10.5 -73q0 -46 12 -71t44 -34t92 -9zM265 -187v57h44v-57h-44z" />
    <glyph glyph-name="uni1EA2" unicode="&#x1ea2;" horiz-adv-x="683" 
d="M40 0l284 688h35l284 -688h-39l-91 222h-344l-91 -222h-38zM183 256h316l-155 381h-5zM307 770v11q0 16 4 24.5t13 14t25 9.5l26 7q27 8 40 13.5t17 13t4 21.5q0 22 -8 30.5t-30 10.5t-64 2q-12 0 -29 -0.5t-36 -1.5t-37 -3v26q24 3 55.5 4.5t54.5 1.5q45 0 72.5 -4.5
t40 -18.5t12.5 -43q0 -19 -3.5 -32t-15.5 -22t-38 -16l-30 -8q-22 -6 -31.5 -10t-11.5 -10.5t-2 -19.5h-28z" />
    <glyph glyph-name="uni1EA3" unicode="&#x1ea3;" horiz-adv-x="574" 
d="M249 -8q-63 0 -104 11t-60.5 42.5t-19.5 92.5q0 56 13 87.5t46 44.5t92 13q12 0 37 -0.5t57.5 -1.5t66 -1.5t62.5 -1.5v46q0 56 -6.5 88.5t-25 48.5t-53.5 20.5t-91 4.5q-23 0 -53.5 -2t-59.5 -4.5t-49 -6.5v33q30 5 76 8.5t100 3.5q49 0 83.5 -5t57 -17t34.5 -33.5
t17 -54t5 -78.5v-330h-28l-3 83h-4q-14 -41 -45.5 -60.5t-70 -25t-74.5 -5.5zM248 24q35 0 68.5 3.5t59.5 16t39 40.5q14 30 19 59.5t5 66.5v41h-213q-50 0 -77.5 -8t-38 -32t-10.5 -73q0 -46 12 -71t44 -34t92 -9zM256 592v11q0 16 4 24.5t13 14t25 9.5l26 7q27 8 40 13.5
t17 13t4 21.5q0 22 -8 30.5t-30 10.5t-64 2q-12 0 -29 -0.5t-36 -1.5t-37 -3v26q24 3 55.5 4.5t54.5 1.5q45 0 72.5 -4.5t40 -18.5t12.5 -43q0 -19 -3.5 -32t-15.5 -22t-38 -16l-30 -8q-22 -6 -31.5 -10t-11.5 -10.5t-2 -19.5h-28z" />
    <glyph glyph-name="uni1EA4" unicode="&#x1ea4;" horiz-adv-x="683" 
d="M40 0l284 688h35l284 -688h-39l-91 222h-344l-91 -222h-38zM183 256h316l-155 381h-5zM212 785v5l107 133h46l107 -133v-5h-27l-103 108l-103 -108h-27zM307 962v5l107 133h46v-5l-126 -133h-27z" />
    <glyph glyph-name="uni1EA5" unicode="&#x1ea5;" horiz-adv-x="574" 
d="M249 -8q-63 0 -104 11t-60.5 42.5t-19.5 92.5q0 56 13 87.5t46 44.5t92 13q12 0 37 -0.5t57.5 -1.5t66 -1.5t62.5 -1.5v46q0 56 -6.5 88.5t-25 48.5t-53.5 20.5t-91 4.5q-23 0 -53.5 -2t-59.5 -4.5t-49 -6.5v33q30 5 76 8.5t100 3.5q49 0 83.5 -5t57 -17t34.5 -33.5
t17 -54t5 -78.5v-330h-28l-3 83h-4q-14 -41 -45.5 -60.5t-70 -25t-74.5 -5.5zM248 24q35 0 68.5 3.5t59.5 16t39 40.5q14 30 19 59.5t5 66.5v41h-213q-50 0 -77.5 -8t-38 -32t-10.5 -73q0 -46 12 -71t44 -34t92 -9zM161 606v5l107 133h46l107 -133v-5h-27l-103 108
l-103 -108h-27zM236 784v5l107 133h46v-5l-126 -133h-27z" />
    <glyph glyph-name="uni1EA6" unicode="&#x1ea6;" horiz-adv-x="683" 
d="M40 0l284 688h35l284 -688h-39l-91 222h-344l-91 -222h-38zM183 256h316l-155 381h-5zM212 785v5l107 133h46l107 -133v-5h-27l-103 108l-103 -108h-27zM368 963l-126 132v5h46l107 -132v-5h-27z" />
    <glyph glyph-name="uni1EA7" unicode="&#x1ea7;" horiz-adv-x="574" 
d="M249 -8q-63 0 -104 11t-60.5 42.5t-19.5 92.5q0 56 13 87.5t46 44.5t92 13q12 0 37 -0.5t57.5 -1.5t66 -1.5t62.5 -1.5v46q0 56 -6.5 88.5t-25 48.5t-53.5 20.5t-91 4.5q-23 0 -53.5 -2t-59.5 -4.5t-49 -6.5v33q30 5 76 8.5t100 3.5q49 0 83.5 -5t57 -17t34.5 -33.5
t17 -54t5 -78.5v-330h-28l-3 83h-4q-14 -41 -45.5 -60.5t-70 -25t-74.5 -5.5zM248 24q35 0 68.5 3.5t59.5 16t39 40.5q14 30 19 59.5t5 66.5v41h-213q-50 0 -77.5 -8t-38 -32t-10.5 -73q0 -46 12 -71t44 -34t92 -9zM161 606v5l107 133h46l107 -133v-5h-27l-103 108
l-103 -108h-27zM312 784l-126 132v5h46l107 -132v-5h-27z" />
    <glyph glyph-name="uni1EA8" unicode="&#x1ea8;" horiz-adv-x="683" 
d="M40 0l284 688h35l284 -688h-39l-91 222h-344l-91 -222h-38zM183 256h316l-155 381h-5zM212 785v5l107 133h46l107 -133v-5h-27l-103 108l-103 -108h-27zM307 948v11q0 16 4 24.5t13 14t25 9.5l26 7q27 8 40 13.5t17 13t4 21.5q0 22 -8 30.5t-30 10.5t-64 2
q-12 0 -29 -0.5t-36 -1.5t-37 -3v26q24 3 55.5 4.5t54.5 1.5q45 0 72.5 -4.5t40 -18.5t12.5 -43q0 -19 -3.5 -32t-15.5 -22t-38 -16l-30 -8q-22 -6 -31.5 -10t-11.5 -10.5t-2 -19.5h-28z" />
    <glyph glyph-name="uni1EA9" unicode="&#x1ea9;" horiz-adv-x="574" 
d="M249 -8q-63 0 -104 11t-60.5 42.5t-19.5 92.5q0 56 13 87.5t46 44.5t92 13q12 0 37 -0.5t57.5 -1.5t66 -1.5t62.5 -1.5v46q0 56 -6.5 88.5t-25 48.5t-53.5 20.5t-91 4.5q-23 0 -53.5 -2t-59.5 -4.5t-49 -6.5v33q30 5 76 8.5t100 3.5q49 0 83.5 -5t57 -17t34.5 -33.5
t17 -54t5 -78.5v-330h-28l-3 83h-4q-14 -41 -45.5 -60.5t-70 -25t-74.5 -5.5zM248 24q35 0 68.5 3.5t59.5 16t39 40.5q14 30 19 59.5t5 66.5v41h-213q-50 0 -77.5 -8t-38 -32t-10.5 -73q0 -46 12 -71t44 -34t92 -9zM161 606v5l107 133h46l107 -133v-5h-27l-103 108
l-103 -108h-27zM256 770v11q0 16 4 24.5t13 14t25 9.5l26 7q27 8 40 13.5t17 13t4 21.5q0 22 -8 30.5t-30 10.5t-64 2q-12 0 -29 -0.5t-36 -1.5t-37 -3v26q24 3 55.5 4.5t54.5 1.5q45 0 72.5 -4.5t40 -18.5t12.5 -43q0 -19 -3.5 -32t-15.5 -22t-38 -16l-30 -8
q-22 -6 -31.5 -10t-11.5 -10.5t-2 -19.5h-28z" />
    <glyph glyph-name="uni1EAA" unicode="&#x1eaa;" horiz-adv-x="683" 
d="M40 0l284 688h35l284 -688h-39l-91 222h-344l-91 -222h-38zM183 256h316l-155 381h-5zM212 785v5l107 133h46l107 -133v-5h-27l-103 108l-103 -108h-27zM180 977q0 35 4.5 56t18 30t39.5 9q28 0 55 -8.5t55 -19.5q22 -8 43.5 -15.5t45.5 -7.5q23 0 29 14t6 48h27
q0 -35 -4.5 -56t-18 -30t-39.5 -9q-30 0 -55.5 9t-54.5 19q-22 8 -43.5 15.5t-45.5 7.5q-22 0 -28.5 -14t-6.5 -48h-27z" />
    <glyph glyph-name="uni1EAB" unicode="&#x1eab;" horiz-adv-x="574" 
d="M249 -8q-63 0 -104 11t-60.5 42.5t-19.5 92.5q0 56 13 87.5t46 44.5t92 13q12 0 37 -0.5t57.5 -1.5t66 -1.5t62.5 -1.5v46q0 56 -6.5 88.5t-25 48.5t-53.5 20.5t-91 4.5q-23 0 -53.5 -2t-59.5 -4.5t-49 -6.5v33q30 5 76 8.5t100 3.5q49 0 83.5 -5t57 -17t34.5 -33.5
t17 -54t5 -78.5v-330h-28l-3 83h-4q-14 -41 -45.5 -60.5t-70 -25t-74.5 -5.5zM248 24q35 0 68.5 3.5t59.5 16t39 40.5q14 30 19 59.5t5 66.5v41h-213q-50 0 -77.5 -8t-38 -32t-10.5 -73q0 -46 12 -71t44 -34t92 -9zM161 606v5l107 133h46l107 -133v-5h-27l-103 108
l-103 -108h-27zM129 799q0 35 4.5 56t18 30t39.5 9q28 0 55 -8.5t55 -19.5q22 -8 43.5 -15.5t45.5 -7.5q23 0 29 14t6 48h27q0 -35 -4.5 -56t-18 -30t-39.5 -9q-30 0 -55.5 9t-54.5 19q-22 8 -43.5 15.5t-45.5 7.5q-22 0 -28.5 -14t-6.5 -48h-27z" />
    <glyph glyph-name="uni1EAC" unicode="&#x1eac;" horiz-adv-x="683" 
d="M40 0l284 688h35l284 -688h-39l-91 222h-344l-91 -222h-38zM183 256h316l-155 381h-5zM320 -187v57h44v-57h-44zM212 785v5l107 133h46l107 -133v-5h-27l-103 108l-103 -108h-27z" />
    <glyph glyph-name="uni1EAD" unicode="&#x1ead;" horiz-adv-x="574" 
d="M249 -8q-63 0 -104 11t-60.5 42.5t-19.5 92.5q0 56 13 87.5t46 44.5t92 13q12 0 37 -0.5t57.5 -1.5t66 -1.5t62.5 -1.5v46q0 56 -6.5 88.5t-25 48.5t-53.5 20.5t-91 4.5q-23 0 -53.5 -2t-59.5 -4.5t-49 -6.5v33q30 5 76 8.5t100 3.5q49 0 83.5 -5t57 -17t34.5 -33.5
t17 -54t5 -78.5v-330h-28l-3 83h-4q-14 -41 -45.5 -60.5t-70 -25t-74.5 -5.5zM248 24q35 0 68.5 3.5t59.5 16t39 40.5q14 30 19 59.5t5 66.5v41h-213q-50 0 -77.5 -8t-38 -32t-10.5 -73q0 -46 12 -71t44 -34t92 -9zM265 -187v57h44v-57h-44zM161 606v5l107 133h46l107 -133
v-5h-27l-103 108l-103 -108h-27z" />
    <glyph glyph-name="uni1EAE" unicode="&#x1eae;" horiz-adv-x="683" 
d="M40 0l284 688h35l284 -688h-39l-91 222h-344l-91 -222h-38zM183 256h316l-155 381h-5zM341 775q-48 0 -74.5 10.5t-37.5 29.5t-13.5 44.5t-2.5 56.5h31q0 -37 4 -62.5t24.5 -38t68.5 -12.5t68.5 12.5t25 38t4.5 62.5h31q0 -31 -2.5 -56.5t-14 -44.5t-38 -29.5
t-74.5 -10.5zM307 959v5l107 133h46v-5l-126 -133h-27z" />
    <glyph glyph-name="uni1EAF" unicode="&#x1eaf;" horiz-adv-x="574" 
d="M249 -8q-63 0 -104 11t-60.5 42.5t-19.5 92.5q0 56 13 87.5t46 44.5t92 13q12 0 37 -0.5t57.5 -1.5t66 -1.5t62.5 -1.5v46q0 56 -6.5 88.5t-25 48.5t-53.5 20.5t-91 4.5q-23 0 -53.5 -2t-59.5 -4.5t-49 -6.5v33q30 5 76 8.5t100 3.5q49 0 83.5 -5t57 -17t34.5 -33.5
t17 -54t5 -78.5v-330h-28l-3 83h-4q-14 -41 -45.5 -60.5t-70 -25t-74.5 -5.5zM248 24q35 0 68.5 3.5t59.5 16t39 40.5q14 30 19 59.5t5 66.5v41h-213q-50 0 -77.5 -8t-38 -32t-10.5 -73q0 -46 12 -71t44 -34t92 -9zM290 597q-48 0 -74.5 10.5t-37.5 29.5t-13.5 44.5
t-2.5 56.5h31q0 -37 4 -62.5t24.5 -38t68.5 -12.5t68.5 12.5t25 38t4.5 62.5h31q0 -31 -2.5 -56.5t-14 -44.5t-38 -29.5t-74.5 -10.5zM236 781v5l107 133h46v-5l-126 -133h-27z" />
    <glyph glyph-name="uni1EB0" unicode="&#x1eb0;" horiz-adv-x="683" 
d="M40 0l284 688h35l284 -688h-39l-91 222h-344l-91 -222h-38zM183 256h316l-155 381h-5zM341 775q-48 0 -74.5 10.5t-37.5 29.5t-13.5 44.5t-2.5 56.5h31q0 -37 4 -62.5t24.5 -38t68.5 -12.5t68.5 12.5t25 38t4.5 62.5h31q0 -31 -2.5 -56.5t-14 -44.5t-38 -29.5
t-74.5 -10.5zM363 959l-126 132v5h46l107 -132v-5h-27z" />
    <glyph glyph-name="uni1EB1" unicode="&#x1eb1;" horiz-adv-x="574" 
d="M249 -8q-63 0 -104 11t-60.5 42.5t-19.5 92.5q0 56 13 87.5t46 44.5t92 13q12 0 37 -0.5t57.5 -1.5t66 -1.5t62.5 -1.5v46q0 56 -6.5 88.5t-25 48.5t-53.5 20.5t-91 4.5q-23 0 -53.5 -2t-59.5 -4.5t-49 -6.5v33q30 5 76 8.5t100 3.5q49 0 83.5 -5t57 -17t34.5 -33.5
t17 -54t5 -78.5v-330h-28l-3 83h-4q-14 -41 -45.5 -60.5t-70 -25t-74.5 -5.5zM248 24q35 0 68.5 3.5t59.5 16t39 40.5q14 30 19 59.5t5 66.5v41h-213q-50 0 -77.5 -8t-38 -32t-10.5 -73q0 -46 12 -71t44 -34t92 -9zM290 597q-48 0 -74.5 10.5t-37.5 29.5t-13.5 44.5
t-2.5 56.5h31q0 -37 4 -62.5t24.5 -38t68.5 -12.5t68.5 12.5t25 38t4.5 62.5h31q0 -31 -2.5 -56.5t-14 -44.5t-38 -29.5t-74.5 -10.5zM312 781l-126 132v5h46l107 -132v-5h-27z" />
    <glyph glyph-name="uni1EB2" unicode="&#x1eb2;" horiz-adv-x="683" 
d="M40 0l284 688h35l284 -688h-39l-91 222h-344l-91 -222h-38zM183 256h316l-155 381h-5zM341 775q-48 0 -74.5 10.5t-37.5 29.5t-13.5 44.5t-2.5 56.5h31q0 -37 4 -62.5t24.5 -38t68.5 -12.5t68.5 12.5t25 38t4.5 62.5h31q0 -31 -2.5 -56.5t-14 -44.5t-38 -29.5
t-74.5 -10.5zM307 945v11q0 16 4 24.5t13 14t25 9.5l26 7q27 8 40 13.5t17 13t4 21.5q0 22 -8 30.5t-30 10.5t-64 2q-12 0 -29 -0.5t-36 -1.5t-37 -3v26q24 3 55.5 4.5t54.5 1.5q45 0 72.5 -4.5t40 -18.5t12.5 -43q0 -19 -3.5 -32t-15.5 -22t-38 -16l-30 -8
q-22 -6 -31.5 -10t-11.5 -10.5t-2 -19.5h-28z" />
    <glyph glyph-name="uni1EB3" unicode="&#x1eb3;" horiz-adv-x="574" 
d="M249 -8q-63 0 -104 11t-60.5 42.5t-19.5 92.5q0 56 13 87.5t46 44.5t92 13q12 0 37 -0.5t57.5 -1.5t66 -1.5t62.5 -1.5v46q0 56 -6.5 88.5t-25 48.5t-53.5 20.5t-91 4.5q-23 0 -53.5 -2t-59.5 -4.5t-49 -6.5v33q30 5 76 8.5t100 3.5q49 0 83.5 -5t57 -17t34.5 -33.5
t17 -54t5 -78.5v-330h-28l-3 83h-4q-14 -41 -45.5 -60.5t-70 -25t-74.5 -5.5zM248 24q35 0 68.5 3.5t59.5 16t39 40.5q14 30 19 59.5t5 66.5v41h-213q-50 0 -77.5 -8t-38 -32t-10.5 -73q0 -46 12 -71t44 -34t92 -9zM290 597q-48 0 -74.5 10.5t-37.5 29.5t-13.5 44.5
t-2.5 56.5h31q0 -37 4 -62.5t24.5 -38t68.5 -12.5t68.5 12.5t25 38t4.5 62.5h31q0 -31 -2.5 -56.5t-14 -44.5t-38 -29.5t-74.5 -10.5zM256 767v11q0 16 4 24.5t13 14t25 9.5l26 7q27 8 40 13.5t17 13t4 21.5q0 22 -8 30.5t-30 10.5t-64 2q-12 0 -29 -0.5t-36 -1.5t-37 -3v26
q24 3 55.5 4.5t54.5 1.5q45 0 72.5 -4.5t40 -18.5t12.5 -43q0 -19 -3.5 -32t-15.5 -22t-38 -16l-30 -8q-22 -6 -31.5 -10t-11.5 -10.5t-2 -19.5h-28z" />
    <glyph glyph-name="uni1EB4" unicode="&#x1eb4;" horiz-adv-x="683" 
d="M40 0l284 688h35l284 -688h-39l-91 222h-344l-91 -222h-38zM183 256h316l-155 381h-5zM341 775q-48 0 -74.5 10.5t-37.5 29.5t-13.5 44.5t-2.5 56.5h31q0 -37 4 -62.5t24.5 -38t68.5 -12.5t68.5 12.5t25 38t4.5 62.5h31q0 -31 -2.5 -56.5t-14 -44.5t-38 -29.5
t-74.5 -10.5zM180 974q0 35 4.5 56t18 30t39.5 9q28 0 55 -8.5t55 -19.5q22 -8 43.5 -15.5t45.5 -7.5q23 0 29 14t6 48h27q0 -35 -4.5 -56t-18 -30t-39.5 -9q-30 0 -55.5 9t-54.5 19q-22 8 -43.5 15.5t-45.5 7.5q-22 0 -28.5 -14t-6.5 -48h-27z" />
    <glyph glyph-name="uni1EB5" unicode="&#x1eb5;" horiz-adv-x="574" 
d="M249 -8q-63 0 -104 11t-60.5 42.5t-19.5 92.5q0 56 13 87.5t46 44.5t92 13q12 0 37 -0.5t57.5 -1.5t66 -1.5t62.5 -1.5v46q0 56 -6.5 88.5t-25 48.5t-53.5 20.5t-91 4.5q-23 0 -53.5 -2t-59.5 -4.5t-49 -6.5v33q30 5 76 8.5t100 3.5q49 0 83.5 -5t57 -17t34.5 -33.5
t17 -54t5 -78.5v-330h-28l-3 83h-4q-14 -41 -45.5 -60.5t-70 -25t-74.5 -5.5zM248 24q35 0 68.5 3.5t59.5 16t39 40.5q14 30 19 59.5t5 66.5v41h-213q-50 0 -77.5 -8t-38 -32t-10.5 -73q0 -46 12 -71t44 -34t92 -9zM290 597q-48 0 -74.5 10.5t-37.5 29.5t-13.5 44.5
t-2.5 56.5h31q0 -37 4.5 -62.5t24.5 -38t68 -12.5t68.5 12.5t25 38t4.5 62.5h31q0 -31 -2.5 -56.5t-14 -44.5t-38 -29.5t-74.5 -10.5zM129 796q0 35 4.5 56t18 30t39.5 9q28 0 55 -8.5t55 -19.5q22 -8 43.5 -15.5t45.5 -7.5q23 0 29 14t6 48h27q0 -35 -4.5 -56t-18 -30
t-39.5 -9q-30 0 -55.5 9t-54.5 19q-22 8 -43.5 15.5t-45.5 7.5q-22 0 -28.5 -14t-6.5 -48h-27z" />
    <glyph glyph-name="uni1EB6" unicode="&#x1eb6;" horiz-adv-x="683" 
d="M40 0l284 688h35l284 -688h-39l-91 222h-344l-91 -222h-38zM183 256h316l-155 381h-5zM320 -187v57h44v-57h-44zM341 775q-48 0 -74.5 10.5t-37.5 29.5t-13.5 44.5t-2.5 56.5h31q0 -37 4 -62.5t24.5 -38t68.5 -12.5t68.5 12.5t25 38t4.5 62.5h31q0 -31 -2.5 -56.5
t-14 -44.5t-38 -29.5t-74.5 -10.5z" />
    <glyph glyph-name="uni1EB7" unicode="&#x1eb7;" horiz-adv-x="574" 
d="M249 -8q-63 0 -104 11t-60.5 42.5t-19.5 92.5q0 56 13 87.5t46 44.5t92 13q12 0 37 -0.5t57.5 -1.5t66 -1.5t62.5 -1.5v46q0 56 -6.5 88.5t-25 48.5t-53.5 20.5t-91 4.5q-23 0 -53.5 -2t-59.5 -4.5t-49 -6.5v33q30 5 76 8.5t100 3.5q49 0 83.5 -5t57 -17t34.5 -33.5
t17 -54t5 -78.5v-330h-28l-3 83h-4q-14 -41 -45.5 -60.5t-70 -25t-74.5 -5.5zM248 24q35 0 68.5 3.5t59.5 16t39 40.5q14 30 19 59.5t5 66.5v41h-213q-50 0 -77.5 -8t-38 -32t-10.5 -73q0 -46 12 -71t44 -34t92 -9zM265 -187v57h44v-57h-44zM290 597q-48 0 -74.5 10.5
t-37.5 29.5t-13.5 44.5t-2.5 56.5h31q0 -37 4 -62.5t24.5 -38t68.5 -12.5t68.5 12.5t25 38t4.5 62.5h31q0 -31 -2.5 -56.5t-14 -44.5t-38 -29.5t-74.5 -10.5z" />
    <glyph glyph-name="uni1EB8" unicode="&#x1eb8;" horiz-adv-x="598" 
d="M115 0v688h426v-34h-390v-289h343v-34h-343v-297h390v-34h-426zM311 -187v57h44v-57h-44z" />
    <glyph glyph-name="uni1EB9" unicode="&#x1eb9;" horiz-adv-x="562" 
d="M291 -8q-57 0 -95.5 7t-62.5 24.5t-36.5 47.5t-17 75t-4.5 108q0 75 5 125.5t25 81t65 44t124 13.5q55 0 90.5 -8t56 -25.5t30.5 -48t13 -75t3 -105.5v-13h-377q0 -66 6 -109t24 -67t55.5 -33.5t100.5 -9.5q27 0 58 2t60.5 5t52.5 7v-33q-19 -4 -48.5 -7t-62.5 -4.5
t-65 -1.5zM452 255v41q0 64 -7.5 102t-25.5 57t-49.5 25t-78.5 6q-61 0 -97.5 -7.5t-54.5 -29.5t-23.5 -63.5t-5.5 -110.5h362zM259 -187v57h44v-57h-44z" />
    <glyph glyph-name="uni1EBA" unicode="&#x1eba;" horiz-adv-x="598" 
d="M115 0v688h426v-34h-390v-289h343v-34h-343v-297h390v-34h-426zM298 770v11q0 16 4 24.5t13 14t25 9.5l26 7q27 8 40 13.5t17 13t4 21.5q0 22 -8 30.5t-30 10.5t-64 2q-12 0 -29 -0.5t-36 -1.5t-37 -3v26q24 3 55.5 4.5t54.5 1.5q45 0 72.5 -4.5t40 -18.5t12.5 -43
q0 -19 -3.5 -32t-15.5 -22t-38 -16l-30 -8q-22 -6 -31.5 -10t-11.5 -10.5t-2 -19.5h-28z" />
    <glyph glyph-name="uni1EBB" unicode="&#x1ebb;" horiz-adv-x="562" 
d="M291 -8q-57 0 -95.5 7t-62.5 24.5t-36.5 47.5t-17 75t-4.5 108q0 75 5 125.5t25 81t65 44t124 13.5q55 0 90.5 -8t56 -25.5t30.5 -48t13 -75t3 -105.5v-13h-377q0 -66 6 -109t24 -67t55.5 -33.5t100.5 -9.5q27 0 58 2t60.5 5t52.5 7v-33q-19 -4 -48.5 -7t-62.5 -4.5
t-65 -1.5zM452 255v41q0 64 -7.5 102t-25.5 57t-49.5 25t-78.5 6q-61 0 -97.5 -7.5t-54.5 -29.5t-23.5 -63.5t-5.5 -110.5h362zM251 592v11q0 16 4 24.5t13 14t25 9.5l26 7q27 8 40 13.5t17 13t4 21.5q0 22 -8 30.5t-30 10.5t-64 2q-12 0 -29 -0.5t-36 -1.5t-37 -3v26
q24 3 55.5 4.5t54.5 1.5q45 0 72.5 -4.5t40 -18.5t12.5 -43q0 -19 -3.5 -32t-15.5 -22t-38 -16l-30 -8q-22 -6 -31.5 -10t-11.5 -10.5t-2 -19.5h-28z" />
    <glyph glyph-name="uni1EBC" unicode="&#x1ebc;" horiz-adv-x="598" 
d="M115 0v688h426v-34h-390v-289h343v-34h-343v-297h390v-34h-426zM171 799q0 35 4.5 56t18 30t39.5 9q28 0 55 -8.5t55 -19.5q22 -8 43.5 -15.5t45.5 -7.5q23 0 29 14t6 48h27q0 -35 -4.5 -56t-18 -30t-39.5 -9q-30 0 -55.5 9t-54.5 19q-22 8 -43.5 15.5t-45.5 7.5
q-22 0 -28.5 -14t-6.5 -48h-27z" />
    <glyph glyph-name="uni1EBD" unicode="&#x1ebd;" horiz-adv-x="562" 
d="M291 -8q-57 0 -95.5 7t-62.5 24.5t-36.5 47.5t-17 75t-4.5 108q0 75 5 125.5t25 81t65 44t124 13.5q55 0 90.5 -8t56 -25.5t30.5 -48t13 -75t3 -105.5v-13h-377q0 -66 6 -109t24 -67t55.5 -33.5t100.5 -9.5q27 0 58 2t60.5 5t52.5 7v-33q-19 -4 -48.5 -7t-62.5 -4.5
t-65 -1.5zM452 255v41q0 64 -7.5 102t-25.5 57t-49.5 25t-78.5 6q-61 0 -97.5 -7.5t-54.5 -29.5t-23.5 -63.5t-5.5 -110.5h362zM124 621q0 35 4.5 56t18 30t39.5 9q28 0 55 -8.5t55 -19.5q22 -8 43.5 -15.5t45.5 -7.5q23 0 29 14t6 48h27q0 -35 -4.5 -56t-18 -30t-39.5 -9
q-30 0 -55.5 9t-54.5 19q-22 8 -43.5 15.5t-45.5 7.5q-22 0 -28.5 -14t-6.5 -48h-27z" />
    <glyph glyph-name="uni1EBE" unicode="&#x1ebe;" horiz-adv-x="598" 
d="M115 0v688h426v-34h-390v-289h343v-34h-343v-297h390v-34h-426zM203 785v5l107 133h46l107 -133v-5h-27l-103 108l-103 -108h-27zM298 962v5l107 133h46v-5l-126 -133h-27z" />
    <glyph glyph-name="uni1EBF" unicode="&#x1ebf;" horiz-adv-x="562" 
d="M291 -8q-57 0 -95.5 7t-62.5 24.5t-36.5 47.5t-17 75t-4.5 108q0 75 5 125.5t25 81t65 44t124 13.5q55 0 90.5 -8t56 -25.5t30.5 -48t13 -75t3 -105.5v-13h-377q0 -66 6 -109t24 -67t55.5 -33.5t100.5 -9.5q27 0 58 2t60.5 5t52.5 7v-33q-19 -4 -48.5 -7t-62.5 -4.5
t-65 -1.5zM452 255v41q0 64 -7.5 102t-25.5 57t-49.5 25t-78.5 6q-61 0 -97.5 -7.5t-54.5 -29.5t-23.5 -63.5t-5.5 -110.5h362zM156 606v5l107 133h46l107 -133v-5h-27l-103 108l-103 -108h-27zM231 784v5l107 133h46v-5l-126 -133h-27z" />
    <glyph glyph-name="uni1EC0" unicode="&#x1ec0;" horiz-adv-x="598" 
d="M115 0v688h426v-34h-390v-289h343v-34h-343v-297h390v-34h-426zM203 785v5l107 133h46l107 -133v-5h-27l-103 108l-103 -108h-27zM359 963l-126 132v5h46l107 -132v-5h-27z" />
    <glyph glyph-name="uni1EC1" unicode="&#x1ec1;" horiz-adv-x="562" 
d="M291 -8q-57 0 -95.5 7t-62.5 24.5t-36.5 47.5t-17 75t-4.5 108q0 75 5 125.5t25 81t65 44t124 13.5q55 0 90.5 -8t56 -25.5t30.5 -48t13 -75t3 -105.5v-13h-377q0 -66 6 -109t24 -67t55.5 -33.5t100.5 -9.5q27 0 58 2t60.5 5t52.5 7v-33q-19 -4 -48.5 -7t-62.5 -4.5
t-65 -1.5zM452 255v41q0 64 -7.5 102t-25.5 57t-49.5 25t-78.5 6q-61 0 -97.5 -7.5t-54.5 -29.5t-23.5 -63.5t-5.5 -110.5h362zM156 606v5l107 133h46l107 -133v-5h-27l-103 108l-103 -108h-27zM307 784l-126 132v5h46l107 -132v-5h-27z" />
    <glyph glyph-name="uni1EC2" unicode="&#x1ec2;" horiz-adv-x="598" 
d="M115 0v688h426v-34h-390v-289h343v-34h-343v-297h390v-34h-426zM203 785v5l107 133h46l107 -133v-5h-27l-103 108l-103 -108h-27zM298 948v11q0 16 4 24.5t13 14t25 9.5l26 7q27 8 40 13.5t17 13t4 21.5q0 22 -8 30.5t-30 10.5t-64 2q-12 0 -29 -0.5t-36 -1.5t-37 -3v26
q24 3 55.5 4.5t54.5 1.5q45 0 72.5 -4.5t40 -18.5t12.5 -43q0 -19 -3.5 -32t-15.5 -22t-38 -16l-30 -8q-22 -6 -31.5 -10t-11.5 -10.5t-2 -19.5h-28z" />
    <glyph glyph-name="uni1EC3" unicode="&#x1ec3;" horiz-adv-x="562" 
d="M291 -8q-57 0 -95.5 7t-62.5 24.5t-36.5 47.5t-17 75t-4.5 108q0 75 5 125.5t25 81t65 44t124 13.5q55 0 90.5 -8t56 -25.5t30.5 -48t13 -75t3 -105.5v-13h-377q0 -66 6 -109t24 -67t55.5 -33.5t100.5 -9.5q27 0 58 2t60.5 5t52.5 7v-33q-19 -4 -48.5 -7t-62.5 -4.5
t-65 -1.5zM452 255v41q0 64 -7.5 102t-25.5 57t-49.5 25t-78.5 6q-61 0 -97.5 -7.5t-54.5 -29.5t-23.5 -63.5t-5.5 -110.5h362zM156 606v5l107 133h46l107 -133v-5h-27l-103 108l-103 -108h-27zM251 770v11q0 16 4 24.5t13 14t25 9.5l26 7q27 8 40 13.5t17 13t4 21.5
q0 22 -8 30.5t-30 10.5t-64 2q-12 0 -29 -0.5t-36 -1.5t-37 -3v26q24 3 55.5 4.5t54.5 1.5q45 0 72.5 -4.5t40 -18.5t12.5 -43q0 -19 -3.5 -32t-15.5 -22t-38 -16l-30 -8q-22 -6 -31.5 -10t-11.5 -10.5t-2 -19.5h-28z" />
    <glyph glyph-name="uni1EC4" unicode="&#x1ec4;" horiz-adv-x="598" 
d="M115 0v688h426v-34h-390v-289h343v-34h-343v-297h390v-34h-426zM203 785v5l107 133h46l107 -133v-5h-27l-103 108l-103 -108h-27zM171 977q0 35 4.5 56t18 30t39.5 9q28 0 55 -8.5t55 -19.5q22 -8 43.5 -15.5t45.5 -7.5q23 0 29 14t6 48h27q0 -35 -4.5 -56t-18 -30
t-39.5 -9q-30 0 -55.5 9t-54.5 19q-22 8 -43.5 15.5t-45.5 7.5q-22 0 -28.5 -14t-6.5 -48h-27z" />
    <glyph glyph-name="uni1EC5" unicode="&#x1ec5;" horiz-adv-x="562" 
d="M291 -8q-57 0 -95.5 7t-62.5 24.5t-36.5 47.5t-17 75t-4.5 108q0 75 5 125.5t25 81t65 44t124 13.5q55 0 90.5 -8t56 -25.5t30.5 -48t13 -75t3 -105.5v-13h-377q0 -66 6 -109t24 -67t55.5 -33.5t100.5 -9.5q27 0 58 2t60.5 5t52.5 7v-33q-19 -4 -48.5 -7t-62.5 -4.5
t-65 -1.5zM452 255v41q0 64 -7.5 102t-25.5 57t-49.5 25t-78.5 6q-61 0 -97.5 -7.5t-54.5 -29.5t-23.5 -63.5t-5.5 -110.5h362zM156 606v5l107 133h46l107 -133v-5h-27l-103 108l-103 -108h-27zM124 799q0 35 4.5 56t18 30t39.5 9q28 0 55 -8.5t55 -19.5q22 -8 43.5 -15.5
t45.5 -7.5q23 0 29 14t6 48h27q0 -35 -4.5 -56t-18 -30t-39.5 -9q-30 0 -55.5 9t-54.5 19q-22 8 -43.5 15.5t-45.5 7.5q-22 0 -28.5 -14t-6.5 -48h-27z" />
    <glyph glyph-name="uni1EC6" unicode="&#x1ec6;" horiz-adv-x="598" 
d="M115 0v688h426v-34h-390v-289h343v-34h-343v-297h390v-34h-426zM311 -187v57h44v-57h-44zM203 785v5l107 133h46l107 -133v-5h-27l-103 108l-103 -108h-27z" />
    <glyph glyph-name="uni1EC7" unicode="&#x1ec7;" horiz-adv-x="562" 
d="M291 -8q-57 0 -95.5 7t-62.5 24.5t-36.5 47.5t-17 75t-4.5 108q0 75 5 125.5t25 81t65 44t124 13.5q55 0 90.5 -8t56 -25.5t30.5 -48t13 -75t3 -105.5v-13h-377q0 -66 6 -109t24 -67t55.5 -33.5t100.5 -9.5q27 0 58 2t60.5 5t52.5 7v-33q-19 -4 -48.5 -7t-62.5 -4.5
t-65 -1.5zM452 255v41q0 64 -7.5 102t-25.5 57t-49.5 25t-78.5 6q-61 0 -97.5 -7.5t-54.5 -29.5t-23.5 -63.5t-5.5 -110.5h362zM259 -187v57h44v-57h-44zM156 606v5l107 133h46l107 -133v-5h-27l-103 108l-103 -108h-27z" />
    <glyph glyph-name="uni1EC8" unicode="&#x1ec8;" horiz-adv-x="266" 
d="M115 0v688h36v-688h-36zM98 770v11q0 16 4 24.5t13 14t25 9.5l26 7q27 8 40 13.5t17 13t4 21.5q0 22 -8 30.5t-30 10.5t-64 2q-12 0 -29 -0.5t-36 -1.5t-37 -3v26q24 3 55.5 4.5t54.5 1.5q45 0 72.5 -4.5t40 -18.5t12.5 -43q0 -19 -3.5 -32t-15.5 -22t-38 -16l-30 -8
q-22 -6 -31.5 -10t-11.5 -10.5t-2 -19.5h-28z" />
    <glyph glyph-name="uni1EC9" unicode="&#x1ec9;" horiz-adv-x="235" 
d="M100 0v510h35v-510h-35zM83 592v11q0 16 4 24.5t13 14t25 9.5l26 7q27 8 40 13.5t17 13t4 21.5q0 22 -8 30.5t-30 10.5t-64 2q-12 0 -29 -0.5t-36 -1.5t-37 -3v26q24 3 55.5 4.5t54.5 1.5q45 0 72.5 -4.5t40 -18.5t12.5 -43q0 -19 -3.5 -32t-15.5 -22t-38 -16l-30 -8
q-22 -6 -31.5 -10t-11.5 -10.5t-2 -19.5h-28z" />
    <glyph glyph-name="uni1ECA" unicode="&#x1eca;" horiz-adv-x="266" 
d="M115 0v688h36v-688h-36zM111 -187v57h44v-57h-44z" />
    <glyph glyph-name="uni1ECB" unicode="&#x1ecb;" horiz-adv-x="235" 
d="M96 682v61h43v-61h-43zM100 0v510h35v-510h-35zM96 -187v57h44v-57h-44z" />
    <glyph glyph-name="uni1ECC" unicode="&#x1ecc;" horiz-adv-x="726" 
d="M363 -8q-77 0 -127.5 7t-80 27t-43.5 59t-18 102t-4 157t4 157t18 102t43.5 59t80 27t127.5 7t127.5 -7t80 -27t43.5 -59t18 -102t4 -157t-4 -157t-18 -102t-43.5 -59t-80 -27t-127.5 -7zM363 26q65 0 108 3.5t69 18.5t39 49t17 93.5t4 153.5t-4 153.5t-17 93.5t-39 49
t-69 18.5t-108 3.5t-108 -3.5t-69 -18.5t-39 -49t-17 -93.5t-4 -153.5t4 -153.5t17 -93.5t39 -49t69 -18.5t108 -3.5zM341 -187v57h44v-57h-44z" />
    <glyph glyph-name="uni1ECD" unicode="&#x1ecd;" horiz-adv-x="580" 
d="M290 -8q-61 0 -100.5 6.5t-63 23t-34.5 46.5t-14 75.5t-3 110.5t3 111t14 76t34.5 46.5t63 23.5t100.5 7t100.5 -7t63 -23.5t34.5 -46.5t14 -76t3 -111t-3 -110.5t-14 -75.5t-34.5 -46.5t-63 -23t-100.5 -6.5zM290 24q68 0 105 9t52.5 33t19 69.5t3.5 118.5t-3.5 119
t-19 70.5t-52.5 33.5t-105 9q-67 0 -104.5 -9t-53 -33.5t-19 -70.5t-3.5 -119t3.5 -118.5t19 -69.5t53 -33t104.5 -9zM268 -187v57h44v-57h-44z" />
    <glyph glyph-name="uni1ECE" unicode="&#x1ece;" horiz-adv-x="726" 
d="M363 -8q-77 0 -127.5 7t-80 27t-43.5 59t-18 102t-4 157t4 157t18 102t43.5 59t80 27t127.5 7t127.5 -7t80 -27t43.5 -59t18 -102t4 -157t-4 -157t-18 -102t-43.5 -59t-80 -27t-127.5 -7zM363 26q65 0 108 3.5t69 18.5t39 49t17 93.5t4 153.5t-4 153.5t-17 93.5t-39 49
t-69 18.5t-108 3.5t-108 -3.5t-69 -18.5t-39 -49t-17 -93.5t-4 -153.5t4 -153.5t17 -93.5t39 -49t69 -18.5t108 -3.5zM328 770v11q0 16 4 24.5t13 14t25 9.5l26 7q27 8 40 13.5t17 13t4 21.5q0 22 -8 30.5t-30 10.5t-64 2q-12 0 -29 -0.5t-36 -1.5t-37 -3v26q24 3 55.5 4.5
t54.5 1.5q45 0 72.5 -4.5t40 -18.5t12.5 -43q0 -19 -3.5 -32t-15.5 -22t-38 -16l-30 -8q-22 -6 -31.5 -10t-11.5 -10.5t-2 -19.5h-28z" />
    <glyph glyph-name="uni1ECF" unicode="&#x1ecf;" horiz-adv-x="580" 
d="M290 -8q-61 0 -100.5 6.5t-63 23t-34.5 46.5t-14 75.5t-3 110.5t3 111t14 76t34.5 46.5t63 23.5t100.5 7t100.5 -7t63 -23.5t34.5 -46.5t14 -76t3 -111t-3 -110.5t-14 -75.5t-34.5 -46.5t-63 -23t-100.5 -6.5zM290 24q68 0 105 9t52.5 33t19 69.5t3.5 118.5t-3.5 119
t-19 70.5t-52.5 33.5t-105 9q-67 0 -104.5 -9t-53 -33.5t-19 -70.5t-3.5 -119t3.5 -118.5t19 -69.5t53 -33t104.5 -9zM255 592v11q0 16 4 24.5t13 14t25 9.5l26 7q27 8 40 13.5t17 13t4 21.5q0 22 -8 30.5t-30 10.5t-64 2q-12 0 -29 -0.5t-36 -1.5t-37 -3v26q24 3 55.5 4.5
t54.5 1.5q45 0 72.5 -4.5t40 -18.5t12.5 -43q0 -19 -3.5 -32t-15.5 -22t-38 -16l-30 -8q-22 -6 -31.5 -10t-11.5 -10.5t-2 -19.5h-28z" />
    <glyph glyph-name="uni1ED0" unicode="&#x1ed0;" horiz-adv-x="726" 
d="M363 -8q-77 0 -127.5 7t-80 27t-43.5 59t-18 102t-4 157t4 157t18 102t43.5 59t80 27t127.5 7t127.5 -7t80 -27t43.5 -59t18 -102t4 -157t-4 -157t-18 -102t-43.5 -59t-80 -27t-127.5 -7zM363 26q65 0 108 3.5t69 18.5t39 49t17 93.5t4 153.5t-4 153.5t-17 93.5t-39 49
t-69 18.5t-108 3.5t-108 -3.5t-69 -18.5t-39 -49t-17 -93.5t-4 -153.5t4 -153.5t17 -93.5t39 -49t69 -18.5t108 -3.5zM233 785v5l107 133h46l107 -133v-5h-27l-103 108l-103 -108h-27zM328 962v5l107 133h46v-5l-126 -133h-27z" />
    <glyph glyph-name="uni1ED1" unicode="&#x1ed1;" horiz-adv-x="580" 
d="M290 -8q-61 0 -100.5 6.5t-63 23t-34.5 46.5t-14 75.5t-3 110.5t3 111t14 76t34.5 46.5t63 23.5t100.5 7t100.5 -7t63 -23.5t34.5 -46.5t14 -76t3 -111t-3 -110.5t-14 -75.5t-34.5 -46.5t-63 -23t-100.5 -6.5zM290 24q68 0 105 9t52.5 33t19 69.5t3.5 118.5t-3.5 119
t-19 70.5t-52.5 33.5t-105 9q-67 0 -104.5 -9t-53 -33.5t-19 -70.5t-3.5 -119t3.5 -118.5t19 -69.5t53 -33t104.5 -9zM160 606v5l107 133h46l107 -133v-5h-27l-103 108l-103 -108h-27zM235 784v5l107 133h46v-5l-126 -133h-27z" />
    <glyph glyph-name="uni1ED2" unicode="&#x1ed2;" horiz-adv-x="726" 
d="M363 -8q-77 0 -127.5 7t-80 27t-43.5 59t-18 102t-4 157t4 157t18 102t43.5 59t80 27t127.5 7t127.5 -7t80 -27t43.5 -59t18 -102t4 -157t-4 -157t-18 -102t-43.5 -59t-80 -27t-127.5 -7zM363 26q65 0 108 3.5t69 18.5t39 49t17 93.5t4 153.5t-4 153.5t-17 93.5t-39 49
t-69 18.5t-108 3.5t-108 -3.5t-69 -18.5t-39 -49t-17 -93.5t-4 -153.5t4 -153.5t17 -93.5t39 -49t69 -18.5t108 -3.5zM233 785v5l107 133h46l107 -133v-5h-27l-103 108l-103 -108h-27zM389 963l-126 132v5h46l107 -132v-5h-27z" />
    <glyph glyph-name="uni1ED3" unicode="&#x1ed3;" horiz-adv-x="580" 
d="M290 -8q-61 0 -100.5 6.5t-63 23t-34.5 46.5t-14 75.5t-3 110.5t3 111t14 76t34.5 46.5t63 23.5t100.5 7t100.5 -7t63 -23.5t34.5 -46.5t14 -76t3 -111t-3 -110.5t-14 -75.5t-34.5 -46.5t-63 -23t-100.5 -6.5zM290 24q68 0 105 9t52.5 33t19 69.5t3.5 118.5t-3.5 119
t-19 70.5t-52.5 33.5t-105 9q-67 0 -104.5 -9t-53 -33.5t-19 -70.5t-3.5 -119t3.5 -118.5t19 -69.5t53 -33t104.5 -9zM160 606v5l107 133h46l107 -133v-5h-27l-103 108l-103 -108h-27zM311 784l-126 132v5h46l107 -132v-5h-27z" />
    <glyph glyph-name="uni1ED4" unicode="&#x1ed4;" horiz-adv-x="726" 
d="M363 -8q-77 0 -127.5 7t-80 27t-43.5 59t-18 102t-4 157t4 157t18 102t43.5 59t80 27t127.5 7t127.5 -7t80 -27t43.5 -59t18 -102t4 -157t-4 -157t-18 -102t-43.5 -59t-80 -27t-127.5 -7zM363 26q65 0 108 3.5t69 18.5t39 49t17 93.5t4 153.5t-4 153.5t-17 93.5t-39 49
t-69 18.5t-108 3.5t-108 -3.5t-69 -18.5t-39 -49t-17 -93.5t-4 -153.5t4 -153.5t17 -93.5t39 -49t69 -18.5t108 -3.5zM233 785v5l107 133h46l107 -133v-5h-27l-103 108l-103 -108h-27zM328 948v11q0 16 4 24.5t13 14t25 9.5l26 7q27 8 40 13.5t17 13t4 21.5q0 22 -8 30.5
t-30 10.5t-64 2q-12 0 -29 -0.5t-36 -1.5t-37 -3v26q24 3 55.5 4.5t54.5 1.5q45 0 72.5 -4.5t40 -18.5t12.5 -43q0 -19 -3.5 -32t-15.5 -22t-38 -16l-30 -8q-22 -6 -31.5 -10t-11.5 -10.5t-2 -19.5h-28z" />
    <glyph glyph-name="uni1ED5" unicode="&#x1ed5;" horiz-adv-x="580" 
d="M290 -8q-61 0 -100.5 6.5t-63 23t-34.5 46.5t-14 75.5t-3 110.5t3 111t14 76t34.5 46.5t63 23.5t100.5 7t100.5 -7t63 -23.5t34.5 -46.5t14 -76t3 -111t-3 -110.5t-14 -75.5t-34.5 -46.5t-63 -23t-100.5 -6.5zM290 24q68 0 105 9t52.5 33t19 69.5t3.5 118.5t-3.5 119
t-19 70.5t-52.5 33.5t-105 9q-67 0 -104.5 -9t-53 -33.5t-19 -70.5t-3.5 -119t3.5 -118.5t19 -69.5t53 -33t104.5 -9zM160 606v5l107 133h46l107 -133v-5h-27l-103 108l-103 -108h-27zM255 770v11q0 16 4 24.5t13 14t25 9.5l26 7q27 8 40 13.5t17 13t4 21.5q0 22 -8 30.5
t-30 10.5t-64 2q-12 0 -29 -0.5t-36 -1.5t-37 -3v26q24 3 55.5 4.5t54.5 1.5q45 0 72.5 -4.5t40 -18.5t12.5 -43q0 -19 -3.5 -32t-15.5 -22t-38 -16l-30 -8q-22 -6 -31.5 -10t-11.5 -10.5t-2 -19.5h-28z" />
    <glyph glyph-name="uni1ED6" unicode="&#x1ed6;" horiz-adv-x="726" 
d="M363 -8q-77 0 -127.5 7t-80 27t-43.5 59t-18 102t-4 157t4 157t18 102t43.5 59t80 27t127.5 7t127.5 -7t80 -27t43.5 -59t18 -102t4 -157t-4 -157t-18 -102t-43.5 -59t-80 -27t-127.5 -7zM363 26q65 0 108 3.5t69 18.5t39 49t17 93.5t4 153.5t-4 153.5t-17 93.5t-39 49
t-69 18.5t-108 3.5t-108 -3.5t-69 -18.5t-39 -49t-17 -93.5t-4 -153.5t4 -153.5t17 -93.5t39 -49t69 -18.5t108 -3.5zM233 785v5l107 133h46l107 -133v-5h-27l-103 108l-103 -108h-27zM201 977q0 35 4.5 56t18 30t39.5 9q28 0 55 -8.5t55 -19.5q22 -8 43.5 -15.5t45.5 -7.5
q23 0 29 14t6 48h27q0 -35 -4.5 -56t-18 -30t-39.5 -9q-30 0 -55.5 9t-54.5 19q-22 8 -43.5 15.5t-45.5 7.5q-22 0 -28.5 -14t-6.5 -48h-27z" />
    <glyph glyph-name="uni1ED7" unicode="&#x1ed7;" horiz-adv-x="580" 
d="M290 -8q-61 0 -100.5 6.5t-63 23t-34.5 46.5t-14 75.5t-3 110.5t3 111t14 76t34.5 46.5t63 23.5t100.5 7t100.5 -7t63 -23.5t34.5 -46.5t14 -76t3 -111t-3 -110.5t-14 -75.5t-34.5 -46.5t-63 -23t-100.5 -6.5zM290 24q68 0 105 9t52.5 33t19 69.5t3.5 118.5t-3.5 119
t-19 70.5t-52.5 33.5t-105 9q-67 0 -104.5 -9t-53 -33.5t-19 -70.5t-3.5 -119t3.5 -118.5t19 -69.5t53 -33t104.5 -9zM160 606v5l107 133h46l107 -133v-5h-27l-103 108l-103 -108h-27zM128 799q0 35 4.5 56t18 30t39.5 9q28 0 55 -8.5t55 -19.5q22 -8 43.5 -15.5t45.5 -7.5
q23 0 29 14t6 48h27q0 -35 -4.5 -56t-18 -30t-39.5 -9q-30 0 -55.5 9t-54.5 19q-22 8 -43.5 15.5t-45.5 7.5q-22 0 -28.5 -14t-6.5 -48h-27z" />
    <glyph glyph-name="uni1ED8" unicode="&#x1ed8;" horiz-adv-x="726" 
d="M363 -8q-77 0 -127.5 7t-80 27t-43.5 59t-18 102t-4 157t4 157t18 102t43.5 59t80 27t127.5 7t127.5 -7t80 -27t43.5 -59t18 -102t4 -157t-4 -157t-18 -102t-43.5 -59t-80 -27t-127.5 -7zM363 26q65 0 108 3.5t69 18.5t39 49t17 93.5t4 153.5t-4 153.5t-17 93.5t-39 49
t-69 18.5t-108 3.5t-108 -3.5t-69 -18.5t-39 -49t-17 -93.5t-4 -153.5t4 -153.5t17 -93.5t39 -49t69 -18.5t108 -3.5zM341 -187v57h44v-57h-44zM233 785v5l107 133h46l107 -133v-5h-27l-103 108l-103 -108h-27z" />
    <glyph glyph-name="uni1ED9" unicode="&#x1ed9;" horiz-adv-x="580" 
d="M290 -8q-61 0 -100.5 6.5t-63 23t-34.5 46.5t-14 75.5t-3 110.5t3 111t14 76t34.5 46.5t63 23.5t100.5 7t100.5 -7t63 -23.5t34.5 -46.5t14 -76t3 -111t-3 -110.5t-14 -75.5t-34.5 -46.5t-63 -23t-100.5 -6.5zM290 24q68 0 105 9t52.5 33t19 69.5t3.5 118.5t-3.5 119
t-19 70.5t-52.5 33.5t-105 9q-67 0 -104.5 -9t-53 -33.5t-19 -70.5t-3.5 -119t3.5 -118.5t19 -69.5t53 -33t104.5 -9zM268 -187v57h44v-57h-44zM160 606v5l107 133h46l107 -133v-5h-27l-103 108l-103 -108h-27z" />
    <glyph glyph-name="uni1EDA" unicode="&#x1eda;" horiz-adv-x="726" 
d="M497 660v28h59q34 0 42 13t8 50v35h33v-28q0 -29 -3.5 -48t-12.5 -30t-25.5 -15.5t-41.5 -4.5h-59zM363 -8q-77 0 -127.5 7t-80 27t-43.5 59t-18 102t-4 157t4 157t18 102t43.5 59t80 27t127.5 7t127.5 -7t80 -27t43.5 -59t18 -102t4 -157t-4 -157t-18 -102t-43.5 -59
t-80 -27t-127.5 -7zM363 26q65 0 108 3.5t69 18.5t39 49t17 93.5t4 153.5t-4 153.5t-17 93.5t-39 49t-69 18.5t-108 3.5t-108 -3.5t-69 -18.5t-39 -49t-17 -93.5t-4 -153.5t4 -153.5t17 -93.5t39 -49t69 -18.5t108 -3.5zM328 784v5l107 133h46v-5l-126 -133h-27z" />
    <glyph glyph-name="uni1EDB" unicode="&#x1edb;" horiz-adv-x="580" 
d="M375 482v28h59q34 0 42 13t8 50v35h33v-28q0 -29 -3.5 -48t-12.5 -30t-25.5 -15.5t-41.5 -4.5h-59zM290 -8q-61 0 -100.5 6.5t-63 23t-34.5 46.5t-14 75.5t-3 110.5t3 111t14 76t34.5 46.5t63 23.5t100.5 7t100.5 -7t63 -23.5t34.5 -46.5t14 -76t3 -111t-3 -110.5
t-14 -75.5t-34.5 -46.5t-63 -23t-100.5 -6.5zM290 24q68 0 105 9t52.5 33t19 69.5t3.5 118.5t-3.5 119t-19 70.5t-52.5 33.5t-105 9q-67 0 -104.5 -9t-53 -33.5t-19 -70.5t-3.5 -119t3.5 -118.5t19 -69.5t53 -33t104.5 -9zM235 606v5l107 133h46v-5l-126 -133h-27z" />
    <glyph glyph-name="uni1EDC" unicode="&#x1edc;" horiz-adv-x="726" 
d="M497 660v28h59q34 0 42 13t8 50v35h33v-28q0 -29 -3.5 -48t-12.5 -30t-25.5 -15.5t-41.5 -4.5h-59zM363 -8q-77 0 -127.5 7t-80 27t-43.5 59t-18 102t-4 157t4 157t18 102t43.5 59t80 27t127.5 7t127.5 -7t80 -27t43.5 -59t18 -102t4 -157t-4 -157t-18 -102t-43.5 -59
t-80 -27t-127.5 -7zM363 26q65 0 108 3.5t69 18.5t39 49t17 93.5t4 153.5t-4 153.5t-17 93.5t-39 49t-69 18.5t-108 3.5t-108 -3.5t-69 -18.5t-39 -49t-17 -93.5t-4 -153.5t4 -153.5t17 -93.5t39 -49t69 -18.5t108 -3.5zM389 785l-126 132v5h46l107 -132v-5h-27z" />
    <glyph glyph-name="uni1EDD" unicode="&#x1edd;" horiz-adv-x="580" 
d="M375 482v28h59q34 0 42 13t8 50v35h33v-28q0 -29 -3.5 -48t-12.5 -30t-25.5 -15.5t-41.5 -4.5h-59zM290 -8q-61 0 -100.5 6.5t-63 23t-34.5 46.5t-14 75.5t-3 110.5t3 111t14 76t34.5 46.5t63 23.5t100.5 7t100.5 -7t63 -23.5t34.5 -46.5t14 -76t3 -111t-3 -110.5
t-14 -75.5t-34.5 -46.5t-63 -23t-100.5 -6.5zM290 24q68 0 105 9t52.5 33t19 69.5t3.5 118.5t-3.5 119t-19 70.5t-52.5 33.5t-105 9q-67 0 -104.5 -9t-53 -33.5t-19 -70.5t-3.5 -119t3.5 -118.5t19 -69.5t53 -33t104.5 -9zM311 606l-126 132v5h46l107 -132v-5h-27z" />
    <glyph glyph-name="uni1EDE" unicode="&#x1ede;" horiz-adv-x="726" 
d="M497 660v28h59q34 0 42 13t8 50v35h33v-28q0 -29 -3.5 -48t-12.5 -30t-25.5 -15.5t-41.5 -4.5h-59zM363 -8q-77 0 -127.5 7t-80 27t-43.5 59t-18 102t-4 157t4 157t18 102t43.5 59t80 27t127.5 7t127.5 -7t80 -27t43.5 -59t18 -102t4 -157t-4 -157t-18 -102t-43.5 -59
t-80 -27t-127.5 -7zM363 26q65 0 108 3.5t69 18.5t39 49t17 93.5t4 153.5t-4 153.5t-17 93.5t-39 49t-69 18.5t-108 3.5t-108 -3.5t-69 -18.5t-39 -49t-17 -93.5t-4 -153.5t4 -153.5t17 -93.5t39 -49t69 -18.5t108 -3.5zM328 770v11q0 16 4 24.5t13 14t25 9.5l26 7
q27 8 40 13.5t17 13t4 21.5q0 22 -8 30.5t-30 10.5t-64 2q-12 0 -29 -0.5t-36 -1.5t-37 -3v26q24 3 55.5 4.5t54.5 1.5q45 0 72.5 -4.5t40 -18.5t12.5 -43q0 -19 -3.5 -32t-15.5 -22t-38 -16l-30 -8q-22 -6 -31.5 -10t-11.5 -10.5t-2 -19.5h-28z" />
    <glyph glyph-name="uni1EDF" unicode="&#x1edf;" horiz-adv-x="580" 
d="M375 482v28h59q34 0 42 13t8 50v35h33v-28q0 -29 -3.5 -48t-12.5 -30t-25.5 -15.5t-41.5 -4.5h-59zM290 -8q-61 0 -100.5 6.5t-63 23t-34.5 46.5t-14 75.5t-3 110.5t3 111t14 76t34.5 46.5t63 23.5t100.5 7t100.5 -7t63 -23.5t34.5 -46.5t14 -76t3 -111t-3 -110.5
t-14 -75.5t-34.5 -46.5t-63 -23t-100.5 -6.5zM290 24q68 0 105 9t52.5 33t19 69.5t3.5 118.5t-3.5 119t-19 70.5t-52.5 33.5t-105 9q-67 0 -104.5 -9t-53 -33.5t-19 -70.5t-3.5 -119t3.5 -118.5t19 -69.5t53 -33t104.5 -9zM255 592v11q0 16 4 24.5t13 14t25 9.5l26 7
q27 8 40 13.5t17 13t4 21.5q0 22 -8 30.5t-30 10.5t-64 2q-12 0 -29 -0.5t-36 -1.5t-37 -3v26q24 3 55.5 4.5t54.5 1.5q45 0 72.5 -4.5t40 -18.5t12.5 -43q0 -19 -3.5 -32t-15.5 -22t-38 -16l-30 -8q-22 -6 -31.5 -10t-11.5 -10.5t-2 -19.5h-28z" />
    <glyph glyph-name="uni1EE0" unicode="&#x1ee0;" horiz-adv-x="726" 
d="M497 660v28h59q34 0 42 13t8 50v35h33v-28q0 -29 -3.5 -48t-12.5 -30t-25.5 -15.5t-41.5 -4.5h-59zM363 -8q-77 0 -127.5 7t-80 27t-43.5 59t-18 102t-4 157t4 157t18 102t43.5 59t80 27t127.5 7t127.5 -7t80 -27t43.5 -59t18 -102t4 -157t-4 -157t-18 -102t-43.5 -59
t-80 -27t-127.5 -7zM363 26q65 0 108 3.5t69 18.5t39 49t17 93.5t4 153.5t-4 153.5t-17 93.5t-39 49t-69 18.5t-108 3.5t-108 -3.5t-69 -18.5t-39 -49t-17 -93.5t-4 -153.5t4 -153.5t17 -93.5t39 -49t69 -18.5t108 -3.5zM201 799q0 35 4.5 56t18 30t39.5 9q28 0 55 -8.5
t55 -19.5q22 -8 43.5 -15.5t45.5 -7.5q23 0 29 14t6 48h27q0 -35 -4.5 -56t-18 -30t-39.5 -9q-30 0 -55.5 9t-54.5 19q-22 8 -43.5 15.5t-45.5 7.5q-22 0 -28.5 -14t-6.5 -48h-27z" />
    <glyph glyph-name="uni1EE1" unicode="&#x1ee1;" horiz-adv-x="580" 
d="M375 482v28h59q34 0 42 13t8 50v35h33v-28q0 -29 -3.5 -48t-12.5 -30t-25.5 -15.5t-41.5 -4.5h-59zM290 -8q-61 0 -100.5 6.5t-63 23t-34.5 46.5t-14 75.5t-3 110.5t3 111t14 76t34.5 46.5t63 23.5t100.5 7t100.5 -7t63 -23.5t34.5 -46.5t14 -76t3 -111t-3 -110.5
t-14 -75.5t-34.5 -46.5t-63 -23t-100.5 -6.5zM290 24q68 0 105 9t52.5 33t19 69.5t3.5 118.5t-3.5 119t-19 70.5t-52.5 33.5t-105 9q-67 0 -104.5 -9t-53 -33.5t-19 -70.5t-3.5 -119t3.5 -118.5t19 -69.5t53 -33t104.5 -9zM128 621q0 35 4.5 56t18 30t39.5 9q28 0 55 -8.5
t55 -19.5q22 -8 43.5 -15.5t45.5 -7.5q23 0 29 14t6 48h27q0 -35 -4.5 -56t-18 -30t-39.5 -9q-30 0 -55.5 9t-54.5 19q-22 8 -43.5 15.5t-45.5 7.5q-22 0 -28.5 -14t-6.5 -48h-27z" />
    <glyph glyph-name="uni1EE2" unicode="&#x1ee2;" horiz-adv-x="726" 
d="M497 660v28h59q34 0 42 13t8 50v35h33v-28q0 -29 -3.5 -48t-12.5 -30t-25.5 -15.5t-41.5 -4.5h-59zM363 -8q-77 0 -127.5 7t-80 27t-43.5 59t-18 102t-4 157t4 157t18 102t43.5 59t80 27t127.5 7t127.5 -7t80 -27t43.5 -59t18 -102t4 -157t-4 -157t-18 -102t-43.5 -59
t-80 -27t-127.5 -7zM363 26q65 0 108 3.5t69 18.5t39 49t17 93.5t4 153.5t-4 153.5t-17 93.5t-39 49t-69 18.5t-108 3.5t-108 -3.5t-69 -18.5t-39 -49t-17 -93.5t-4 -153.5t4 -153.5t17 -93.5t39 -49t69 -18.5t108 -3.5zM341 -187v57h44v-57h-44z" />
    <glyph glyph-name="uni1EE3" unicode="&#x1ee3;" horiz-adv-x="580" 
d="M375 482v28h59q34 0 42 13t8 50v35h33v-28q0 -29 -3.5 -48t-12.5 -30t-25.5 -15.5t-41.5 -4.5h-59zM290 -8q-61 0 -100.5 6.5t-63 23t-34.5 46.5t-14 75.5t-3 110.5t3 111t14 76t34.5 46.5t63 23.5t100.5 7t100.5 -7t63 -23.5t34.5 -46.5t14 -76t3 -111t-3 -110.5
t-14 -75.5t-34.5 -46.5t-63 -23t-100.5 -6.5zM290 24q68 0 105 9t52.5 33t19 69.5t3.5 118.5t-3.5 119t-19 70.5t-52.5 33.5t-105 9q-67 0 -104.5 -9t-53 -33.5t-19 -70.5t-3.5 -119t3.5 -118.5t19 -69.5t53 -33t104.5 -9zM268 -187v57h44v-57h-44z" />
    <glyph glyph-name="uni1EE4" unicode="&#x1ee4;" horiz-adv-x="717" 
d="M359 -8q-70 0 -116.5 8.5t-74 28.5t-41.5 55t-18 86.5t-4 123.5v394h36v-424q0 -72 6 -118t26.5 -72.5t65 -37t120.5 -10.5q77 0 120.5 10.5t64.5 37t26.5 72.5t5.5 118v424h36v-394q0 -72 -4 -123.5t-17.5 -86.5t-41 -55t-74 -28.5t-116.5 -8.5zM337 -187v57h44v-57h-44
z" />
    <glyph glyph-name="uni1EE5" unicode="&#x1ee5;" horiz-adv-x="604" 
d="M287 -8q-61 0 -98 11t-56.5 34t-26 61t-6.5 92v320h35v-315q0 -55 6 -89t23 -52t48.5 -24t81.5 -6q66 0 102 17t51.5 47.5t18.5 71t3 86.5v264h35v-510h-28l-3 83h-4q-8 -24 -26 -44.5t-55 -33.5t-101 -13zM271 -187v57h44v-57h-44z" />
    <glyph glyph-name="uni1EE6" unicode="&#x1ee6;" horiz-adv-x="717" 
d="M359 -8q-70 0 -116.5 8.5t-74 28.5t-41.5 55t-18 86.5t-4 123.5v394h36v-424q0 -72 6 -118t26.5 -72.5t65 -37t120.5 -10.5q77 0 120.5 10.5t64.5 37t26.5 72.5t5.5 118v424h36v-394q0 -72 -4 -123.5t-17.5 -86.5t-41 -55t-74 -28.5t-116.5 -8.5zM324 770v11q0 16 4 24.5
t13 14t25 9.5l26 7q27 8 40 13.5t17 13t4 21.5q0 22 -8 30.5t-30 10.5t-64 2q-12 0 -29 -0.5t-36 -1.5t-37 -3v26q24 3 55.5 4.5t54.5 1.5q45 0 72.5 -4.5t40 -18.5t12.5 -43q0 -19 -3.5 -32t-15.5 -22t-38 -16l-30 -8q-22 -6 -31.5 -10t-11.5 -10.5t-2 -19.5h-28z" />
    <glyph glyph-name="uni1EE7" unicode="&#x1ee7;" horiz-adv-x="604" 
d="M287 -8q-61 0 -98 11t-56.5 34t-26 61t-6.5 92v320h35v-315q0 -55 6 -89t23 -52t48.5 -24t81.5 -6q66 0 102 17t51.5 47.5t18.5 71t3 86.5v264h35v-510h-28l-3 83h-4q-8 -24 -26 -44.5t-55 -33.5t-101 -13zM267 592v11q0 16 4 24.5t13 14t25 9.5l26 7q27 8 40 13.5t17 13
t4 21.5q0 22 -8 30.5t-30 10.5t-64 2q-12 0 -29 -0.5t-36 -1.5t-37 -3v26q24 3 55.5 4.5t54.5 1.5q45 0 72.5 -4.5t40 -18.5t12.5 -43q0 -19 -3.5 -32t-15.5 -22t-38 -16l-30 -8q-22 -6 -31.5 -10t-11.5 -10.5t-2 -19.5h-28z" />
    <glyph glyph-name="uni1EE8" unicode="&#x1ee8;" horiz-adv-x="717" 
d="M576 660v28h59q34 0 42 13t8 50v35h33v-28q0 -29 -3.5 -48t-12.5 -30t-25.5 -15.5t-41.5 -4.5h-59zM359 -8q-70 0 -116.5 8.5t-74 28.5t-41.5 55t-18 86.5t-4 123.5v394h36v-424q0 -72 6 -118t26.5 -72.5t65 -37t120.5 -10.5q77 0 120.5 10.5t64.5 37t26.5 72.5t5.5 118
v424h36v-394q0 -72 -4 -123.5t-17.5 -86.5t-41 -55t-74 -28.5t-116.5 -8.5zM324 784v5l107 133h46v-5l-126 -133h-27z" />
    <glyph glyph-name="uni1EE9" unicode="&#x1ee9;" horiz-adv-x="604" 
d="M469 482v28h59q34 0 42 13t8 50v35h33v-28q0 -29 -3.5 -48t-12.5 -30t-25.5 -15.5t-41.5 -4.5h-59zM287 -8q-61 0 -98 11t-56.5 34t-26 61t-6.5 92v320h35v-315q0 -55 6 -89t23 -52t48.5 -24t81.5 -6q66 0 102 17t51.5 47.5t18.5 71t3 86.5v264h35v-510h-28l-3 83h-4
q-8 -24 -26 -44.5t-55 -33.5t-101 -13zM247 606v5l107 133h46v-5l-126 -133h-27z" />
    <glyph glyph-name="uni1EEA" unicode="&#x1eea;" horiz-adv-x="717" 
d="M576 660v28h59q34 0 42 13t8 50v35h33v-28q0 -29 -3.5 -48t-12.5 -30t-25.5 -15.5t-41.5 -4.5h-59zM359 -8q-70 0 -116.5 8.5t-74 28.5t-41.5 55t-18 86.5t-4 123.5v394h36v-424q0 -72 6 -118t26.5 -72.5t65 -37t120.5 -10.5q77 0 120.5 10.5t64.5 37t26.5 72.5t5.5 118
v424h36v-394q0 -72 -4 -123.5t-17.5 -86.5t-41 -55t-74 -28.5t-116.5 -8.5zM385 785l-126 132v5h46l107 -132v-5h-27z" />
    <glyph glyph-name="uni1EEB" unicode="&#x1eeb;" horiz-adv-x="604" 
d="M469 482v28h59q34 0 42 13t8 50v35h33v-28q0 -29 -3.5 -48t-12.5 -30t-25.5 -15.5t-41.5 -4.5h-59zM287 -8q-61 0 -98 11t-56.5 34t-26 61t-6.5 92v320h35v-315q0 -55 6 -89t23 -52t48.5 -24t81.5 -6q66 0 102 17t51.5 47.5t18.5 71t3 86.5v264h35v-510h-28l-3 83h-4
q-8 -24 -26 -44.5t-55 -33.5t-101 -13zM323 606l-126 132v5h46l107 -132v-5h-27z" />
    <glyph glyph-name="uni1EEC" unicode="&#x1eec;" horiz-adv-x="717" 
d="M576 660v28h59q34 0 42 13t8 50v35h33v-28q0 -29 -3.5 -48t-12.5 -30t-25.5 -15.5t-41.5 -4.5h-59zM359 -8q-70 0 -116.5 8.5t-74 28.5t-41.5 55t-18 86.5t-4 123.5v394h36v-424q0 -72 6 -118t26.5 -72.5t65 -37t120.5 -10.5q77 0 120.5 10.5t64.5 37t26.5 72.5t5.5 118
v424h36v-394q0 -72 -4 -123.5t-17.5 -86.5t-41 -55t-74 -28.5t-116.5 -8.5zM324 770v11q0 16 4 24.5t13 14t25 9.5l26 7q27 8 40 13.5t17 13t4 21.5q0 22 -8 30.5t-30 10.5t-64 2q-12 0 -29 -0.5t-36 -1.5t-37 -3v26q24 3 55.5 4.5t54.5 1.5q45 0 72.5 -4.5t40 -18.5
t12.5 -43q0 -19 -3.5 -32t-15.5 -22t-38 -16l-30 -8q-22 -6 -31.5 -10t-11.5 -10.5t-2 -19.5h-28z" />
    <glyph glyph-name="uni1EED" unicode="&#x1eed;" horiz-adv-x="604" 
d="M469 482v28h59q34 0 42 13t8 50v35h33v-28q0 -29 -3.5 -48t-12.5 -30t-25.5 -15.5t-41.5 -4.5h-59zM287 -8q-61 0 -98 11t-56.5 34t-26 61t-6.5 92v320h35v-315q0 -55 6 -89t23 -52t48.5 -24t81.5 -6q66 0 102 17t51.5 47.5t18.5 71t3 86.5v264h35v-510h-28l-3 83h-4
q-8 -24 -26 -44.5t-55 -33.5t-101 -13zM267 592v11q0 16 4 24.5t13 14t25 9.5l26 7q27 8 40 13.5t17 13t4 21.5q0 22 -8 30.5t-30 10.5t-64 2q-12 0 -29 -0.5t-36 -1.5t-37 -3v26q24 3 55.5 4.5t54.5 1.5q45 0 72.5 -4.5t40 -18.5t12.5 -43q0 -19 -3.5 -32t-15.5 -22
t-38 -16l-30 -8q-22 -6 -31.5 -10t-11.5 -10.5t-2 -19.5h-28z" />
    <glyph glyph-name="uni1EEE" unicode="&#x1eee;" horiz-adv-x="717" 
d="M576 660v28h59q34 0 42 13t8 50v35h33v-28q0 -29 -3.5 -48t-12.5 -30t-25.5 -15.5t-41.5 -4.5h-59zM359 -8q-70 0 -116.5 8.5t-74 28.5t-41.5 55t-18 86.5t-4 123.5v394h36v-424q0 -72 6 -118t26.5 -72.5t65 -37t120.5 -10.5q77 0 120.5 10.5t64.5 37t26.5 72.5t5.5 118
v424h36v-394q0 -72 -4 -123.5t-17.5 -86.5t-41 -55t-74 -28.5t-116.5 -8.5zM197 799q0 35 4.5 56t18 30t39.5 9q28 0 55 -8.5t55 -19.5q22 -8 43.5 -15.5t45.5 -7.5q23 0 29 14t6 48h27q0 -35 -4.5 -56t-18 -30t-39.5 -9q-30 0 -55.5 9t-54.5 19q-22 8 -43.5 15.5t-45.5 7.5
q-22 0 -28.5 -14t-6.5 -48h-27z" />
    <glyph glyph-name="uni1EEF" unicode="&#x1eef;" horiz-adv-x="604" 
d="M469 482v28h59q34 0 42 13t8 50v35h33v-28q0 -29 -3.5 -48t-12.5 -30t-25.5 -15.5t-41.5 -4.5h-59zM287 -8q-61 0 -98 11t-56.5 34t-26 61t-6.5 92v320h35v-315q0 -55 6 -89t23 -52t48.5 -24t81.5 -6q66 0 102 17t51.5 47.5t18.5 71t3 86.5v264h35v-510h-28l-3 83h-4
q-8 -24 -26 -44.5t-55 -33.5t-101 -13zM140 621q0 35 4.5 56t18 30t39.5 9q28 0 55 -8.5t55 -19.5q22 -8 43.5 -15.5t45.5 -7.5q23 0 29 14t6 48h27q0 -35 -4.5 -56t-18 -30t-39.5 -9q-30 0 -55.5 9t-54.5 19q-22 8 -43.5 15.5t-45.5 7.5q-22 0 -28.5 -14t-6.5 -48h-27z" />
    <glyph glyph-name="uni1EF0" unicode="&#x1ef0;" horiz-adv-x="717" 
d="M576 660v28h59q34 0 42 13t8 50v35h33v-28q0 -29 -3.5 -48t-12.5 -30t-25.5 -15.5t-41.5 -4.5h-59zM359 -8q-70 0 -116.5 8.5t-74 28.5t-41.5 55t-18 86.5t-4 123.5v394h36v-424q0 -72 6 -118t26.5 -72.5t65 -37t120.5 -10.5q77 0 120.5 10.5t64.5 37t26.5 72.5t5.5 118
v424h36v-394q0 -72 -4 -123.5t-17.5 -86.5t-41 -55t-74 -28.5t-116.5 -8.5zM337 -187v57h44v-57h-44z" />
    </font>
</defs>
</svg>
